<svg width="107" height="111" viewBox="0 0 107 111" fill="none" xmlns="http://www.w3.org/2000/svg">
<rect x="1.20759" y="1.2779" width="104.522" height="109.204" rx="9.4918" fill="#13122C"/>
<rect x="1.20759" y="1.2779" width="104.522" height="109.204" rx="9.4918" fill="url(#paint0_radial_2021_116425)" fill-opacity="0.08"/>
<rect x="1.20759" y="1.2779" width="104.522" height="109.204" rx="9.4918" fill="url(#paint1_radial_2021_116425)" fill-opacity="0.05"/>
<g filter="url(#filter0_b_2021_116425)">
<mask id="path-2-inside-1_2021_116425" fill="white">
<path d="M50.6456 42.7212C49.4295 43.3083 49.2274 44.8881 50.0535 47.3484C52.6158 54.98 63.244 55.8002 66.973 48.6541C68.6563 45.4283 68.284 42.6348 66.1708 42.6352C64.9862 42.6355 64.4139 43.2715 64.2894 44.7259C64.0896 47.0605 62.8363 48.728 60.6175 49.6117C59.9995 49.8579 58.6629 49.9743 57.9363 49.8452C55.3021 49.3773 53.5309 47.4171 53.3033 44.7178C53.2302 43.851 53.1777 43.6665 52.8932 43.2775C52.383 42.58 51.4279 42.3436 50.6456 42.7212Z"/>
<path d="M40.5089 62.9109C41.1685 62.9109 41.7032 63.4423 41.7032 64.0979V69.3297C42.416 69.733 42.8968 70.495 42.8968 71.3686C42.8968 71.4637 42.8911 71.5576 42.88 71.6497L47.2403 74.8764C47.7693 75.2679 47.8789 76.0116 47.485 76.5374C47.0911 77.0632 46.343 77.1721 45.8139 76.7806L41.4327 73.5384C41.1568 73.6509 40.8548 73.7129 40.5382 73.7129C39.2355 73.7129 38.1795 72.6633 38.1795 71.3686C38.1795 70.5191 38.6341 69.7751 39.3147 69.3639V64.0979C39.3147 63.4423 39.8494 62.9109 40.5089 62.9109Z"/>
<path fill-rule="evenodd" clip-rule="evenodd" d="M57.7812 24.3303C54.0324 24.7462 50.9625 27.3568 49.9013 31.0312L49.7384 31.5951L46.2211 31.6278C42.5223 31.6623 42.3385 31.7187 41.6174 31.9401L41.5546 31.9593C39.6427 32.5441 38.4 34.5051 38.1407 36.9366C38.106 37.2631 38.051 37.7839 38.0186 38.094C37.8775 39.4456 37.829 39.9078 37.7194 40.9428C37.6555 41.5467 37.5354 42.6951 37.4525 43.4949C37.3696 44.2946 37.2752 45.1893 37.2425 45.4831C37.2099 45.7769 37.1544 46.2977 37.1191 46.6404C37.0131 47.6692 36.9412 48.3608 36.8801 48.9403C36.8483 49.2422 36.7966 49.7363 36.7654 50.0383C36.6753 50.9102 36.5825 51.7923 36.5237 52.3381C36.4938 52.6156 36.4406 53.123 36.4054 53.4658C36.3703 53.8085 36.3161 54.3293 36.2848 54.6231C36.2614 54.8428 36.225 55.1894 36.1934 55.4936C29.2801 57.406 24.207 63.7093 24.207 71.1903C24.207 80.188 31.5455 87.4821 40.5981 87.4821C46.7116 87.4821 52.0435 84.1553 54.8611 79.2238C63.0786 79.2334 73.1058 79.2138 73.3999 79.1641C74.8585 78.9181 75.5765 78.7064 76.6411 78.2085C79.6344 76.8086 81.903 73.9407 82.528 70.7665C82.7684 69.5453 82.7934 68.6261 82.6265 67.1461C82.5673 66.6208 82.5007 66.0054 82.3827 64.8908C82.3498 64.5806 82.2953 64.0665 82.2615 63.7483C82.2277 63.43 82.148 62.6621 82.0844 62.0419C82.0209 61.4217 81.9264 60.5136 81.8744 60.024C81.8223 59.5344 81.7265 58.6263 81.6615 58.0061C81.5964 57.3859 81.5162 56.6247 81.4832 56.3146C81.4266 55.7819 81.3998 55.5229 81.2531 54.0889C81.2197 53.7625 81.163 53.2284 81.1271 52.9019C81.0402 52.1117 80.962 51.3683 80.8899 50.6466C80.8572 50.3202 80.805 49.8127 80.7737 49.519C80.7424 49.2252 80.6895 48.7177 80.656 48.3913C80.6226 48.0649 80.5666 47.5307 80.5316 47.2043C80.4966 46.8778 80.4422 46.357 80.4106 46.0469C80.379 45.7368 80.3255 45.2294 80.2917 44.9193C80.2578 44.6092 80.1635 43.7011 80.0821 42.9014C80.0008 42.1016 79.8939 41.0867 79.8446 40.646C79.7953 40.2054 79.7282 39.5844 79.6954 39.2661C79.5615 37.9636 79.5075 37.4433 79.4507 36.907C79.1678 34.2359 77.5313 31.9593 75.2471 31.7592C75.19 31.7542 75.136 31.7492 75.0821 31.7442C74.5862 31.6983 74.101 31.6533 71.3715 31.6278L67.8542 31.5951L67.6914 31.0312C66.4241 26.6435 62.2673 23.8327 57.7812 24.3303ZM56.3952 75.5516C64.1004 75.5604 72.753 75.5288 73.1571 75.4563C77.02 74.7638 79.3919 71.5602 78.9363 67.6506C78.8643 67.0329 78.7494 65.9503 78.47 63.2586C78.3903 62.4915 78.2973 61.6101 78.2632 61.3C78.2292 60.9899 78.1748 60.4691 78.1425 60.1427C78.1102 59.8163 78.0582 59.3088 78.0269 59.015C77.9956 58.7213 77.9404 58.2005 77.9043 57.8577C77.8681 57.515 77.8129 56.9942 77.7816 56.7004C77.7503 56.4066 77.6983 55.8991 77.666 55.5727C77.6337 55.2463 77.5807 54.7388 77.5483 54.445C77.4546 53.5956 77.3674 52.7688 77.3071 52.1601C77.2764 51.8499 77.2236 51.3358 77.1897 51.0176C77.128 50.4388 77.0623 49.8195 76.9474 48.7326C76.8377 47.6958 76.5908 45.3307 76.4717 44.1774C76.4076 43.5572 76.3273 42.796 76.293 42.4859C76.2588 42.1758 76.2043 41.655 76.172 41.3286C76.1397 41.0021 76.0877 40.4947 76.0564 40.2009C76.0251 39.9071 75.9714 39.3997 75.9372 39.0732C75.9028 38.7468 75.8482 38.2394 75.8158 37.9456C75.7834 37.6518 75.7394 37.2378 75.7181 37.0257C75.6421 36.2705 75.1473 35.6123 74.4995 35.4044C74.0293 35.2534 43.526 35.2571 43.0698 35.4081C42.3418 35.6491 41.9522 36.2562 41.8411 37.3224C41.8054 37.6652 41.7509 38.1726 41.7201 38.4501C41.6892 38.7275 41.6353 39.235 41.6002 39.5777C41.5652 39.9205 41.5103 40.448 41.4782 40.7499L41.3617 41.8479C41.3297 42.1498 41.2757 42.664 41.2418 42.9904C41.2079 43.3168 41.1139 44.2115 41.0328 44.9786C40.9517 45.7457 40.8436 46.774 40.7925 47.2636C40.7415 47.7533 40.6729 48.4076 40.6401 48.7177C40.5443 49.6239 40.3434 51.5509 40.2843 52.1304C40.2543 52.4242 40.2012 52.9316 40.1661 53.258C40.1311 53.5845 40.0751 54.1186 40.0416 54.445C40.0279 54.5786 40.011 54.7424 39.9936 54.9095C40.1942 54.9022 40.3957 54.8986 40.5981 54.8986C49.6506 54.8986 56.9891 62.1927 56.9891 71.1903C56.9891 72.7009 56.7823 74.1635 56.3952 75.5516ZM59.92 28.0911C61.5451 28.4309 62.9641 29.5106 63.6961 30.9644C63.8256 31.2216 63.9316 31.4754 63.9316 31.5284C63.9316 31.6166 63.4955 31.6248 58.7963 31.6248C54.0971 31.6248 53.6611 31.6166 53.6611 31.5284C53.6611 31.4754 53.767 31.2216 53.8965 30.9644C54.9829 28.807 57.5308 27.5916 59.92 28.0911ZM53.7049 71.1903C53.7049 78.3852 47.8368 84.2178 40.5981 84.2178C33.3593 84.2178 27.4912 78.3852 27.4912 71.1903C27.4912 63.9955 33.3593 58.1629 40.5981 58.1629C47.8368 58.1629 53.7049 63.9955 53.7049 71.1903Z"/>
</mask>
<path d="M50.6456 42.7212C49.4295 43.3083 49.2274 44.8881 50.0535 47.3484C52.6158 54.98 63.244 55.8002 66.973 48.6541C68.6563 45.4283 68.284 42.6348 66.1708 42.6352C64.9862 42.6355 64.4139 43.2715 64.2894 44.7259C64.0896 47.0605 62.8363 48.728 60.6175 49.6117C59.9995 49.8579 58.6629 49.9743 57.9363 49.8452C55.3021 49.3773 53.5309 47.4171 53.3033 44.7178C53.2302 43.851 53.1777 43.6665 52.8932 43.2775C52.383 42.58 51.4279 42.3436 50.6456 42.7212Z" fill="url(#paint2_linear_2021_116425)" fill-opacity="0.6"/>
<path d="M40.5089 62.9109C41.1685 62.9109 41.7032 63.4423 41.7032 64.0979V69.3297C42.416 69.733 42.8968 70.495 42.8968 71.3686C42.8968 71.4637 42.8911 71.5576 42.88 71.6497L47.2403 74.8764C47.7693 75.2679 47.8789 76.0116 47.485 76.5374C47.0911 77.0632 46.343 77.1721 45.8139 76.7806L41.4327 73.5384C41.1568 73.6509 40.8548 73.7129 40.5382 73.7129C39.2355 73.7129 38.1795 72.6633 38.1795 71.3686C38.1795 70.5191 38.6341 69.7751 39.3147 69.3639V64.0979C39.3147 63.4423 39.8494 62.9109 40.5089 62.9109Z" fill="url(#paint3_linear_2021_116425)" fill-opacity="0.6"/>
<path fill-rule="evenodd" clip-rule="evenodd" d="M57.7812 24.3303C54.0324 24.7462 50.9625 27.3568 49.9013 31.0312L49.7384 31.5951L46.2211 31.6278C42.5223 31.6623 42.3385 31.7187 41.6174 31.9401L41.5546 31.9593C39.6427 32.5441 38.4 34.5051 38.1407 36.9366C38.106 37.2631 38.051 37.7839 38.0186 38.094C37.8775 39.4456 37.829 39.9078 37.7194 40.9428C37.6555 41.5467 37.5354 42.6951 37.4525 43.4949C37.3696 44.2946 37.2752 45.1893 37.2425 45.4831C37.2099 45.7769 37.1544 46.2977 37.1191 46.6404C37.0131 47.6692 36.9412 48.3608 36.8801 48.9403C36.8483 49.2422 36.7966 49.7363 36.7654 50.0383C36.6753 50.9102 36.5825 51.7923 36.5237 52.3381C36.4938 52.6156 36.4406 53.123 36.4054 53.4658C36.3703 53.8085 36.3161 54.3293 36.2848 54.6231C36.2614 54.8428 36.225 55.1894 36.1934 55.4936C29.2801 57.406 24.207 63.7093 24.207 71.1903C24.207 80.188 31.5455 87.4821 40.5981 87.4821C46.7116 87.4821 52.0435 84.1553 54.8611 79.2238C63.0786 79.2334 73.1058 79.2138 73.3999 79.1641C74.8585 78.9181 75.5765 78.7064 76.6411 78.2085C79.6344 76.8086 81.903 73.9407 82.528 70.7665C82.7684 69.5453 82.7934 68.6261 82.6265 67.1461C82.5673 66.6208 82.5007 66.0054 82.3827 64.8908C82.3498 64.5806 82.2953 64.0665 82.2615 63.7483C82.2277 63.43 82.148 62.6621 82.0844 62.0419C82.0209 61.4217 81.9264 60.5136 81.8744 60.024C81.8223 59.5344 81.7265 58.6263 81.6615 58.0061C81.5964 57.3859 81.5162 56.6247 81.4832 56.3146C81.4266 55.7819 81.3998 55.5229 81.2531 54.0889C81.2197 53.7625 81.163 53.2284 81.1271 52.9019C81.0402 52.1117 80.962 51.3683 80.8899 50.6466C80.8572 50.3202 80.805 49.8127 80.7737 49.519C80.7424 49.2252 80.6895 48.7177 80.656 48.3913C80.6226 48.0649 80.5666 47.5307 80.5316 47.2043C80.4966 46.8778 80.4422 46.357 80.4106 46.0469C80.379 45.7368 80.3255 45.2294 80.2917 44.9193C80.2578 44.6092 80.1635 43.7011 80.0821 42.9014C80.0008 42.1016 79.8939 41.0867 79.8446 40.646C79.7953 40.2054 79.7282 39.5844 79.6954 39.2661C79.5615 37.9636 79.5075 37.4433 79.4507 36.907C79.1678 34.2359 77.5313 31.9593 75.2471 31.7592C75.19 31.7542 75.136 31.7492 75.0821 31.7442C74.5862 31.6983 74.101 31.6533 71.3715 31.6278L67.8542 31.5951L67.6914 31.0312C66.4241 26.6435 62.2673 23.8327 57.7812 24.3303ZM56.3952 75.5516C64.1004 75.5604 72.753 75.5288 73.1571 75.4563C77.02 74.7638 79.3919 71.5602 78.9363 67.6506C78.8643 67.0329 78.7494 65.9503 78.47 63.2586C78.3903 62.4915 78.2973 61.6101 78.2632 61.3C78.2292 60.9899 78.1748 60.4691 78.1425 60.1427C78.1102 59.8163 78.0582 59.3088 78.0269 59.015C77.9956 58.7213 77.9404 58.2005 77.9043 57.8577C77.8681 57.515 77.8129 56.9942 77.7816 56.7004C77.7503 56.4066 77.6983 55.8991 77.666 55.5727C77.6337 55.2463 77.5807 54.7388 77.5483 54.445C77.4546 53.5956 77.3674 52.7688 77.3071 52.1601C77.2764 51.8499 77.2236 51.3358 77.1897 51.0176C77.128 50.4388 77.0623 49.8195 76.9474 48.7326C76.8377 47.6958 76.5908 45.3307 76.4717 44.1774C76.4076 43.5572 76.3273 42.796 76.293 42.4859C76.2588 42.1758 76.2043 41.655 76.172 41.3286C76.1397 41.0021 76.0877 40.4947 76.0564 40.2009C76.0251 39.9071 75.9714 39.3997 75.9372 39.0732C75.9028 38.7468 75.8482 38.2394 75.8158 37.9456C75.7834 37.6518 75.7394 37.2378 75.7181 37.0257C75.6421 36.2705 75.1473 35.6123 74.4995 35.4044C74.0293 35.2534 43.526 35.2571 43.0698 35.4081C42.3418 35.6491 41.9522 36.2562 41.8411 37.3224C41.8054 37.6652 41.7509 38.1726 41.7201 38.4501C41.6892 38.7275 41.6353 39.235 41.6002 39.5777C41.5652 39.9205 41.5103 40.448 41.4782 40.7499L41.3617 41.8479C41.3297 42.1498 41.2757 42.664 41.2418 42.9904C41.2079 43.3168 41.1139 44.2115 41.0328 44.9786C40.9517 45.7457 40.8436 46.774 40.7925 47.2636C40.7415 47.7533 40.6729 48.4076 40.6401 48.7177C40.5443 49.6239 40.3434 51.5509 40.2843 52.1304C40.2543 52.4242 40.2012 52.9316 40.1661 53.258C40.1311 53.5845 40.0751 54.1186 40.0416 54.445C40.0279 54.5786 40.011 54.7424 39.9936 54.9095C40.1942 54.9022 40.3957 54.8986 40.5981 54.8986C49.6506 54.8986 56.9891 62.1927 56.9891 71.1903C56.9891 72.7009 56.7823 74.1635 56.3952 75.5516ZM59.92 28.0911C61.5451 28.4309 62.9641 29.5106 63.6961 30.9644C63.8256 31.2216 63.9316 31.4754 63.9316 31.5284C63.9316 31.6166 63.4955 31.6248 58.7963 31.6248C54.0971 31.6248 53.6611 31.6166 53.6611 31.5284C53.6611 31.4754 53.767 31.2216 53.8965 30.9644C54.9829 28.807 57.5308 27.5916 59.92 28.0911ZM53.7049 71.1903C53.7049 78.3852 47.8368 84.2178 40.5981 84.2178C33.3593 84.2178 27.4912 78.3852 27.4912 71.1903C27.4912 63.9955 33.3593 58.1629 40.5981 58.1629C47.8368 58.1629 53.7049 63.9955 53.7049 71.1903Z" fill="url(#paint4_linear_2021_116425)" fill-opacity="0.6"/>
<path d="M50.6456 42.7212C49.4295 43.3083 49.2274 44.8881 50.0535 47.3484C52.6158 54.98 63.244 55.8002 66.973 48.6541C68.6563 45.4283 68.284 42.6348 66.1708 42.6352C64.9862 42.6355 64.4139 43.2715 64.2894 44.7259C64.0896 47.0605 62.8363 48.728 60.6175 49.6117C59.9995 49.8579 58.6629 49.9743 57.9363 49.8452C55.3021 49.3773 53.5309 47.4171 53.3033 44.7178C53.2302 43.851 53.1777 43.6665 52.8932 43.2775C52.383 42.58 51.4279 42.3436 50.6456 42.7212Z" stroke="url(#paint5_linear_2021_116425)" stroke-width="0.936424" mask="url(#path-2-inside-1_2021_116425)"/>
<path d="M40.5089 62.9109C41.1685 62.9109 41.7032 63.4423 41.7032 64.0979V69.3297C42.416 69.733 42.8968 70.495 42.8968 71.3686C42.8968 71.4637 42.8911 71.5576 42.88 71.6497L47.2403 74.8764C47.7693 75.2679 47.8789 76.0116 47.485 76.5374C47.0911 77.0632 46.343 77.1721 45.8139 76.7806L41.4327 73.5384C41.1568 73.6509 40.8548 73.7129 40.5382 73.7129C39.2355 73.7129 38.1795 72.6633 38.1795 71.3686C38.1795 70.5191 38.6341 69.7751 39.3147 69.3639V64.0979C39.3147 63.4423 39.8494 62.9109 40.5089 62.9109Z" stroke="url(#paint6_linear_2021_116425)" stroke-width="0.936424" mask="url(#path-2-inside-1_2021_116425)"/>
<path fill-rule="evenodd" clip-rule="evenodd" d="M57.7812 24.3303C54.0324 24.7462 50.9625 27.3568 49.9013 31.0312L49.7384 31.5951L46.2211 31.6278C42.5223 31.6623 42.3385 31.7187 41.6174 31.9401L41.5546 31.9593C39.6427 32.5441 38.4 34.5051 38.1407 36.9366C38.106 37.2631 38.051 37.7839 38.0186 38.094C37.8775 39.4456 37.829 39.9078 37.7194 40.9428C37.6555 41.5467 37.5354 42.6951 37.4525 43.4949C37.3696 44.2946 37.2752 45.1893 37.2425 45.4831C37.2099 45.7769 37.1544 46.2977 37.1191 46.6404C37.0131 47.6692 36.9412 48.3608 36.8801 48.9403C36.8483 49.2422 36.7966 49.7363 36.7654 50.0383C36.6753 50.9102 36.5825 51.7923 36.5237 52.3381C36.4938 52.6156 36.4406 53.123 36.4054 53.4658C36.3703 53.8085 36.3161 54.3293 36.2848 54.6231C36.2614 54.8428 36.225 55.1894 36.1934 55.4936C29.2801 57.406 24.207 63.7093 24.207 71.1903C24.207 80.188 31.5455 87.4821 40.5981 87.4821C46.7116 87.4821 52.0435 84.1553 54.8611 79.2238C63.0786 79.2334 73.1058 79.2138 73.3999 79.1641C74.8585 78.9181 75.5765 78.7064 76.6411 78.2085C79.6344 76.8086 81.903 73.9407 82.528 70.7665C82.7684 69.5453 82.7934 68.6261 82.6265 67.1461C82.5673 66.6208 82.5007 66.0054 82.3827 64.8908C82.3498 64.5806 82.2953 64.0665 82.2615 63.7483C82.2277 63.43 82.148 62.6621 82.0844 62.0419C82.0209 61.4217 81.9264 60.5136 81.8744 60.024C81.8223 59.5344 81.7265 58.6263 81.6615 58.0061C81.5964 57.3859 81.5162 56.6247 81.4832 56.3146C81.4266 55.7819 81.3998 55.5229 81.2531 54.0889C81.2197 53.7625 81.163 53.2284 81.1271 52.9019C81.0402 52.1117 80.962 51.3683 80.8899 50.6466C80.8572 50.3202 80.805 49.8127 80.7737 49.519C80.7424 49.2252 80.6895 48.7177 80.656 48.3913C80.6226 48.0649 80.5666 47.5307 80.5316 47.2043C80.4966 46.8778 80.4422 46.357 80.4106 46.0469C80.379 45.7368 80.3255 45.2294 80.2917 44.9193C80.2578 44.6092 80.1635 43.7011 80.0821 42.9014C80.0008 42.1016 79.8939 41.0867 79.8446 40.646C79.7953 40.2054 79.7282 39.5844 79.6954 39.2661C79.5615 37.9636 79.5075 37.4433 79.4507 36.907C79.1678 34.2359 77.5313 31.9593 75.2471 31.7592C75.19 31.7542 75.136 31.7492 75.0821 31.7442C74.5862 31.6983 74.101 31.6533 71.3715 31.6278L67.8542 31.5951L67.6914 31.0312C66.4241 26.6435 62.2673 23.8327 57.7812 24.3303ZM56.3952 75.5516C64.1004 75.5604 72.753 75.5288 73.1571 75.4563C77.02 74.7638 79.3919 71.5602 78.9363 67.6506C78.8643 67.0329 78.7494 65.9503 78.47 63.2586C78.3903 62.4915 78.2973 61.6101 78.2632 61.3C78.2292 60.9899 78.1748 60.4691 78.1425 60.1427C78.1102 59.8163 78.0582 59.3088 78.0269 59.015C77.9956 58.7213 77.9404 58.2005 77.9043 57.8577C77.8681 57.515 77.8129 56.9942 77.7816 56.7004C77.7503 56.4066 77.6983 55.8991 77.666 55.5727C77.6337 55.2463 77.5807 54.7388 77.5483 54.445C77.4546 53.5956 77.3674 52.7688 77.3071 52.1601C77.2764 51.8499 77.2236 51.3358 77.1897 51.0176C77.128 50.4388 77.0623 49.8195 76.9474 48.7326C76.8377 47.6958 76.5908 45.3307 76.4717 44.1774C76.4076 43.5572 76.3273 42.796 76.293 42.4859C76.2588 42.1758 76.2043 41.655 76.172 41.3286C76.1397 41.0021 76.0877 40.4947 76.0564 40.2009C76.0251 39.9071 75.9714 39.3997 75.9372 39.0732C75.9028 38.7468 75.8482 38.2394 75.8158 37.9456C75.7834 37.6518 75.7394 37.2378 75.7181 37.0257C75.6421 36.2705 75.1473 35.6123 74.4995 35.4044C74.0293 35.2534 43.526 35.2571 43.0698 35.4081C42.3418 35.6491 41.9522 36.2562 41.8411 37.3224C41.8054 37.6652 41.7509 38.1726 41.7201 38.4501C41.6892 38.7275 41.6353 39.235 41.6002 39.5777C41.5652 39.9205 41.5103 40.448 41.4782 40.7499L41.3617 41.8479C41.3297 42.1498 41.2757 42.664 41.2418 42.9904C41.2079 43.3168 41.1139 44.2115 41.0328 44.9786C40.9517 45.7457 40.8436 46.774 40.7925 47.2636C40.7415 47.7533 40.6729 48.4076 40.6401 48.7177C40.5443 49.6239 40.3434 51.5509 40.2843 52.1304C40.2543 52.4242 40.2012 52.9316 40.1661 53.258C40.1311 53.5845 40.0751 54.1186 40.0416 54.445C40.0279 54.5786 40.011 54.7424 39.9936 54.9095C40.1942 54.9022 40.3957 54.8986 40.5981 54.8986C49.6506 54.8986 56.9891 62.1927 56.9891 71.1903C56.9891 72.7009 56.7823 74.1635 56.3952 75.5516ZM59.92 28.0911C61.5451 28.4309 62.9641 29.5106 63.6961 30.9644C63.8256 31.2216 63.9316 31.4754 63.9316 31.5284C63.9316 31.6166 63.4955 31.6248 58.7963 31.6248C54.0971 31.6248 53.6611 31.6166 53.6611 31.5284C53.6611 31.4754 53.767 31.2216 53.8965 30.9644C54.9829 28.807 57.5308 27.5916 59.92 28.0911ZM53.7049 71.1903C53.7049 78.3852 47.8368 84.2178 40.5981 84.2178C33.3593 84.2178 27.4912 78.3852 27.4912 71.1903C27.4912 63.9955 33.3593 58.1629 40.5981 58.1629C47.8368 58.1629 53.7049 63.9955 53.7049 71.1903Z" stroke="url(#paint7_linear_2021_116425)" stroke-width="0.936424" mask="url(#path-2-inside-1_2021_116425)"/>
</g>
<rect x="1.20759" y="1.2779" width="104.522" height="109.204" rx="9.4918" stroke="url(#paint8_linear_2021_116425)" stroke-width="0.975442"/>
<defs>
<filter id="filter0_b_2021_116425" x="21.5143" y="21.5807" width="63.9128" height="68.5964" filterUnits="userSpaceOnUse" color-interpolation-filters="sRGB">
<feFlood flood-opacity="0" result="BackgroundImageFix"/>
<feGaussianBlur in="BackgroundImageFix" stdDeviation="1.34635"/>
<feComposite in2="SourceAlpha" operator="in" result="effect1_backgroundBlur_2021_116425"/>
<feBlend mode="normal" in="SourceGraphic" in2="effect1_backgroundBlur_2021_116425" result="shape"/>
</filter>
<radialGradient id="paint0_radial_2021_116425" cx="0" cy="0" r="1" gradientUnits="userSpaceOnUse" gradientTransform="translate(24.9343 95.629) rotate(-58.4659) scale(30.3748 34.9312)">
<stop stop-color="#6E6FF8"/>
<stop offset="1" stop-color="#6E6FF8" stop-opacity="0"/>
</radialGradient>
<radialGradient id="paint1_radial_2021_116425" cx="0" cy="0" r="1" gradientUnits="userSpaceOnUse" gradientTransform="translate(42.4732 23.5282) rotate(76.7737) scale(40.3921 35.9454)">
<stop stop-color="#DEA4F2"/>
<stop offset="1" stop-opacity="0"/>
</radialGradient>
<linearGradient id="paint2_linear_2021_116425" x1="24.207" y1="95.4783" x2="84.1712" y2="39.6278" gradientUnits="userSpaceOnUse">
<stop stop-color="#686CF8"/>
<stop offset="1" stop-color="#ECABF1"/>
</linearGradient>
<linearGradient id="paint3_linear_2021_116425" x1="24.207" y1="95.4783" x2="84.1712" y2="39.6278" gradientUnits="userSpaceOnUse">
<stop stop-color="#686CF8"/>
<stop offset="1" stop-color="#ECABF1"/>
</linearGradient>
<linearGradient id="paint4_linear_2021_116425" x1="24.207" y1="95.4783" x2="84.1712" y2="39.6278" gradientUnits="userSpaceOnUse">
<stop stop-color="#686CF8"/>
<stop offset="1" stop-color="#ECABF1"/>
</linearGradient>
<linearGradient id="paint5_linear_2021_116425" x1="82.7335" y1="33.7928" x2="-4.17719" y2="60.0798" gradientUnits="userSpaceOnUse">
<stop stop-color="#9A7EBC" stop-opacity="0.7"/>
<stop offset="1" stop-color="#4F569F" stop-opacity="0.46"/>
</linearGradient>
<linearGradient id="paint6_linear_2021_116425" x1="82.7335" y1="33.7928" x2="-4.17719" y2="60.0798" gradientUnits="userSpaceOnUse">
<stop stop-color="#9A7EBC" stop-opacity="0.7"/>
<stop offset="1" stop-color="#4F569F" stop-opacity="0.46"/>
</linearGradient>
<linearGradient id="paint7_linear_2021_116425" x1="82.7335" y1="33.7928" x2="-4.17719" y2="60.0798" gradientUnits="userSpaceOnUse">
<stop stop-color="#9A7EBC" stop-opacity="0.7"/>
<stop offset="1" stop-color="#4F569F" stop-opacity="0.46"/>
</linearGradient>
<linearGradient id="paint8_linear_2021_116425" x1="-2.5545" y1="-1.93285" x2="123.685" y2="96.9375" gradientUnits="userSpaceOnUse">
<stop stop-color="#7E84BC" stop-opacity="0.4"/>
<stop offset="0.592787" stop-color="#37384A" stop-opacity="0.3"/>
<stop offset="0.930304" stop-color="#7379B5" stop-opacity="0.4"/>
</linearGradient>
</defs>
</svg>
