<svg width="107" height="111" viewBox="0 0 107 111" fill="none" xmlns="http://www.w3.org/2000/svg">
<rect x="1.01228" y="1.2779" width="104.522" height="109.204" rx="9.4918" fill="#13122C"/>
<rect x="1.01228" y="1.2779" width="104.522" height="109.204" rx="9.4918" fill="url(#paint0_radial_2021_116250)" fill-opacity="0.08"/>
<rect x="1.01228" y="1.2779" width="104.522" height="109.204" rx="9.4918" fill="url(#paint1_radial_2021_116250)" fill-opacity="0.05"/>
<g filter="url(#filter0_b_2021_116250)">
<mask id="path-2-inside-1_2021_116250" fill="white">
<path fill-rule="evenodd" clip-rule="evenodd" d="M48.219 26.2276C48.0352 26.3227 47.496 26.6273 47.0209 26.9045C46.5457 27.1817 46.0745 27.4558 45.9737 27.5135C45.8729 27.5713 45.6373 27.7071 45.4501 27.8154C45.2629 27.9237 45.0037 28.0718 44.8741 28.1447C44.7445 28.2175 44.576 28.3211 44.4996 28.3747C44.4231 28.4284 44.3495 28.4723 44.336 28.4723C44.3225 28.4723 43.902 28.7113 43.4016 29.0034C42.9012 29.2954 42.3975 29.5882 42.2823 29.6539C42.0283 29.7987 41.4506 30.1327 41.2352 30.2593C41.0505 30.3677 40.4758 30.7002 40.2142 30.8501C40.1134 30.9078 39.5125 31.2568 38.879 31.6257C38.2454 31.9947 37.6446 32.3437 37.5438 32.4014C37.443 32.4591 37.2074 32.5949 37.0202 32.7032C36.8331 32.8114 36.5974 32.947 36.4966 33.0046C36.3959 33.0621 35.9364 33.3284 35.4756 33.5963C35.0149 33.8641 34.5554 34.1306 34.4546 34.1883C34.3538 34.246 34.1241 34.3789 33.9441 34.4837C33.7642 34.5884 33.4697 34.7597 33.2896 34.8644C33.1097 34.9692 32.8892 35.0969 32.7997 35.1484C32.7102 35.1998 32.1565 35.5202 31.5693 35.8602C30.982 36.2002 30.3601 36.5601 30.1874 36.66C30.0146 36.76 29.8025 36.8833 29.7161 36.934C29.3711 37.1367 28.9109 37.4033 28.538 37.6166C28.322 37.7402 27.7094 38.0957 27.1767 38.4066C26.6439 38.7174 26.1256 39.0189 26.0248 39.0764C25.924 39.134 25.6884 39.2696 25.5012 39.3779C25.314 39.4862 25.0784 39.6219 24.9776 39.6796C23.7706 40.3707 23.3048 40.6522 23.1823 40.7649C22.8589 41.0625 22.8832 39.8295 22.8832 55.9415C22.8832 65.7293 22.9008 70.6757 22.9356 70.6757C22.9644 70.6757 22.9879 70.7065 22.9879 70.7442C22.9879 70.7819 23.0645 70.8862 23.1581 70.9759C23.316 71.1274 23.4871 71.2386 24.0903 71.5814C24.2183 71.6543 24.4704 71.7996 24.6504 71.9043C24.8304 72.009 25.1249 72.1804 25.3048 72.2851C25.4849 72.3899 25.7381 72.5351 25.8677 72.608C25.9973 72.6808 26.1658 72.7844 26.2423 72.838C26.3187 72.8917 26.3925 72.9356 26.4063 72.9356C26.42 72.9356 26.7549 73.1248 27.1505 73.3561C27.5461 73.5873 27.8783 73.7765 27.8887 73.7765C27.8991 73.7765 28.0318 73.8555 28.1836 73.952C28.3353 74.0485 28.6244 74.2172 28.826 74.3269C29.0276 74.4367 29.255 74.5706 29.3315 74.6245C29.4079 74.6784 29.4812 74.7226 29.4943 74.7226C29.5074 74.7226 29.9161 74.955 30.4025 75.2392C30.8889 75.5233 31.3929 75.8163 31.5225 75.8902C32.063 76.1987 34.1815 77.4261 35.0568 77.9378C35.5751 78.2409 36.1053 78.5491 36.2349 78.6227C36.3644 78.6963 36.6236 78.8451 36.8108 78.9534C36.998 79.0616 37.2336 79.1975 37.3344 79.2553C37.4352 79.313 37.8946 79.5794 38.3554 79.8473C38.8162 80.1151 39.2756 80.3814 39.3764 80.4389C39.4772 80.4965 39.7128 80.6321 39.9 80.7404C40.0872 80.8487 40.3464 80.9968 40.476 81.0697C40.6055 81.1425 40.7741 81.2461 40.8505 81.2997C40.927 81.3534 41.004 81.3973 41.0219 81.3973C41.0396 81.3973 41.142 81.4531 41.2494 81.5213C41.4143 81.626 43.5108 82.8442 44.0887 83.1711C44.1895 83.2281 44.5665 83.4459 44.9265 83.6552C45.2865 83.8644 45.6635 84.0833 45.7642 84.1414C45.865 84.1997 46.3245 84.4665 46.7852 84.7343C47.246 85.0022 47.7172 85.2761 47.8324 85.343C48.3433 85.6398 48.5119 85.707 48.7445 85.7067C48.8764 85.7065 49.0453 85.6744 49.1199 85.6354C49.437 85.4692 49.9832 85.1653 50.0315 85.1279C50.0603 85.1057 50.1689 85.04 50.2727 84.9819C50.6033 84.7971 52.5289 83.6817 52.9549 83.4282C53.1805 83.2941 53.3733 83.1843 53.3834 83.1843C53.3935 83.1843 53.5153 83.1155 53.654 83.0314C53.8708 82.8999 56.546 81.3437 57.0739 81.0419C57.1746 80.9843 57.4103 80.8486 57.5974 80.7404C57.7846 80.6321 58.0202 80.4963 58.121 80.4385C58.2218 80.3808 58.6813 80.1144 59.142 79.8465C59.6028 79.5786 60.0623 79.3119 60.1631 79.2536C60.2638 79.1954 60.6408 78.9766 61.0008 78.7673C61.3608 78.558 61.7566 78.3296 61.8804 78.2597C62.0042 78.1898 62.7319 77.7674 63.4974 77.321C64.263 76.8747 64.8975 76.5095 64.9075 76.5095C64.9175 76.5095 65.0546 76.4267 65.2122 76.3256C65.3698 76.2244 65.5096 76.1416 65.5231 76.1416C65.5365 76.1416 66.0941 75.8223 66.7623 75.4321C67.4304 75.0419 67.9883 74.7226 68.002 74.7226C68.0157 74.7226 68.0895 74.6786 68.166 74.625C68.2424 74.5713 68.411 74.4678 68.5405 74.3949C68.6701 74.3221 68.9293 74.1739 69.1165 74.0656C69.3037 73.9573 69.5629 73.8091 69.6924 73.7363C69.822 73.6634 69.9906 73.5599 70.067 73.5062C70.1435 73.4526 70.2186 73.4086 70.2338 73.4086C70.2491 73.4086 70.8066 73.0894 71.4727 72.6991C72.1387 72.3089 72.6935 71.9896 72.7055 71.9896C72.7175 71.9896 72.8562 71.9068 73.0138 71.8057C73.1713 71.7045 73.3109 71.6217 73.324 71.6217C73.3371 71.6217 73.5448 71.5053 73.7856 71.363C74.0264 71.2208 74.303 71.0166 74.4002 70.9093L74.5771 70.7143L74.6763 70.8395C74.8923 71.1121 75.1295 71.5134 75.3559 71.9896C75.8061 72.9364 75.9756 73.7074 75.9756 74.8088C75.9756 75.2582 75.9434 75.7255 75.894 75.9913C75.6973 77.052 75.182 78.1892 74.4778 79.1169C74.1082 79.6038 73.5569 80.1858 73.1004 80.5711C72.8531 80.7798 72.6183 80.9814 72.5788 81.0191C72.3653 81.2223 71.0589 82.0335 70.3873 82.38C69.9619 82.5995 69.5596 82.8147 69.4931 82.8583C69.3054 82.9814 69.1689 83.3007 69.1691 83.6158C69.1693 83.9426 69.2799 84.1547 69.5631 84.3715C69.7318 84.5007 69.8016 84.5195 70.1042 84.5173C70.8104 84.5122 73.1248 83.8308 74.5357 83.2126C75.5713 82.7589 76.7614 82.0739 77.8401 81.3106C78.6421 80.743 79.7613 79.6914 80.4885 78.822C80.9952 78.2163 81.7869 77.0339 82.1476 76.3441C82.4528 75.7604 82.8631 74.7797 83.0569 74.1703C83.2362 73.6065 83.3863 72.9672 83.4888 72.3312C83.5354 72.0422 83.5976 71.6874 83.6269 71.5429C83.6913 71.2267 83.656 69.0786 83.5777 68.5471C83.5082 68.0749 83.3163 67.1143 83.2574 66.9441C83.2325 66.8719 83.1594 66.6353 83.0951 66.4185C82.8471 65.5824 82.3064 64.3611 81.8555 63.6188C81.5567 63.1271 81.0781 62.4459 80.7206 62.0038C80.3447 61.5389 79.3897 60.5644 78.9077 60.1538C78.7205 59.9944 78.3435 59.7 78.0699 59.4997C77.1876 58.8534 76.5486 58.4759 75.3603 57.8987L74.6142 57.5363L74.6131 49.4031C74.612 41.6083 74.6079 41.2612 74.5153 41.0597C74.4621 40.9441 74.3625 40.8003 74.2939 40.7402C74.1898 40.6489 73.6651 40.3353 72.5198 39.6796C72.4191 39.6219 72.1834 39.4862 71.9963 39.3779C71.8091 39.2696 71.5735 39.1338 71.4727 39.0761C71.3719 39.0184 70.9124 38.7519 70.4517 38.4841C69.9909 38.2162 69.5314 37.9499 69.4307 37.8924C69.0187 37.6572 68.5967 37.4109 68.209 37.1791C67.9834 37.0443 67.7922 36.934 67.784 36.934C67.7758 36.934 67.1428 36.5688 66.3772 36.1225C65.6116 35.6762 64.8839 35.2537 64.7601 35.1836C64.6363 35.1136 64.4526 35.0084 64.3518 34.9499C64.251 34.8914 63.497 34.4533 62.6763 33.9765C61.8556 33.4997 61.1016 33.0623 61.0008 33.0047C60.9 32.9471 60.6762 32.8177 60.5034 32.7172C60.3306 32.6167 59.8712 32.3509 59.4824 32.1265C59.0936 31.9021 58.481 31.5466 58.121 31.3365C57.7611 31.1263 57.3782 30.9044 57.2702 30.8433C56.7975 30.576 56.7025 30.5203 56.5024 30.3935C56.3859 30.3196 56.2814 30.2593 56.2703 30.2593C56.2592 30.2593 55.6237 29.8941 54.8581 29.4477C54.0926 29.0014 53.3649 28.5786 53.2411 28.5082C53.1173 28.4378 52.8688 28.2945 52.6888 28.1897C51.838 27.6947 51.6948 27.6115 51.5238 27.5135C51.423 27.4558 50.9517 27.1817 50.4766 26.9045C49.2563 26.1926 48.976 26.0547 48.7487 26.0547C48.6302 26.0547 48.4215 26.1228 48.219 26.2276ZM49.4479 28.5216C49.6825 28.6598 49.9923 28.8379 50.1362 28.9174C50.2802 28.9969 51.1402 29.4941 52.0474 30.0223C52.9545 30.5504 53.7791 31.0297 53.8799 31.0875C54.1247 31.2276 54.6823 31.5505 55.0057 31.7393C55.1496 31.8234 55.344 31.9312 55.4376 31.9789C55.5312 32.0266 55.6078 32.084 55.6078 32.1064C55.6078 32.1288 55.5784 32.173 55.5423 32.2046C55.485 32.2548 52.8387 33.8007 52.1215 34.2029C51.9751 34.285 51.2839 34.6851 50.5854 35.0921C49.887 35.4991 49.2174 35.8879 49.0975 35.9561C48.8449 36.0999 48.5805 36.2527 47.3612 36.9597C45.9441 37.7814 45.1336 38.2512 44.7956 38.4469C44.6228 38.5469 44.4108 38.6697 44.3244 38.7197C44.238 38.7697 43.7785 39.0358 43.3034 39.3111C42.8282 39.5863 42.1713 39.9681 41.8436 40.1596C41.5159 40.3512 41.2368 40.5079 41.2234 40.5079C41.2099 40.5079 41.1364 40.5518 41.06 40.6055C40.9835 40.6592 40.815 40.7621 40.6854 40.8343C40.463 40.958 40.0814 41.1787 37.6747 42.5756C36.4628 43.2791 36.1065 43.4853 35.8683 43.6209C35.6313 43.756 33.401 45.0498 33.0933 45.2308C32.9637 45.307 32.8134 45.3875 32.7594 45.4096C32.662 45.4495 32.4125 45.3303 31.6796 44.894C31.4269 44.7435 29.348 43.5373 28.8522 43.2535C28.7514 43.1958 28.5158 43.06 28.3286 42.9517C28.1414 42.8435 27.8822 42.695 27.7526 42.6217C27.6231 42.5485 27.3521 42.3898 27.1505 42.269C26.9489 42.1481 26.5649 41.9248 26.2971 41.7725C26.0293 41.6202 25.8185 41.4706 25.8288 41.4399C25.8446 41.3921 26.4228 41.0379 27.2842 40.5481C27.4123 40.4753 27.6643 40.33 27.8443 40.2253C28.7061 39.7238 28.8384 39.647 29.0093 39.5495C29.1101 39.492 29.5695 39.2257 30.0303 38.9578C30.491 38.69 30.9505 38.4235 31.0513 38.3658C31.1521 38.3081 31.3877 38.1722 31.5749 38.0639C31.7621 37.9557 32.0212 37.8077 32.1508 37.7351C32.2804 37.6626 32.41 37.5852 32.4388 37.5633C32.4676 37.5413 32.5736 37.477 32.6744 37.4203C33.0139 37.2294 34.9623 36.1008 35.369 35.8594C35.5908 35.7278 35.7802 35.6201 35.7898 35.6201C35.7994 35.6201 35.9919 35.5102 36.2174 35.376C36.443 35.2417 36.71 35.0854 36.8108 35.0287C37.0067 34.9183 39.124 33.6915 39.6906 33.3601C39.8777 33.2506 40.5728 32.8483 41.2352 32.4661C43.0905 31.3954 43.1595 31.3552 43.3677 31.2236C43.475 31.1557 43.5747 31.1002 43.5892 31.1002C43.6036 31.1002 43.7444 31.0174 43.902 30.9162C44.0595 30.815 44.1998 30.7323 44.2137 30.7323C44.2275 30.7323 44.3524 30.6635 44.4911 30.5795C44.7013 30.4521 46.654 29.3179 47.2827 28.958C47.3835 28.9003 47.6191 28.7645 47.8063 28.6562C47.9934 28.5479 48.2526 28.4002 48.3822 28.3279C48.5118 28.2557 48.639 28.177 48.6649 28.1532C48.7174 28.1047 48.8301 28.1578 49.4479 28.5216ZM58.035 33.4978C58.2695 33.6314 58.5674 33.8009 58.697 33.8746C58.8266 33.9483 59.3449 34.2494 59.8489 34.5437C60.7547 35.0726 61.3282 35.4032 61.7862 35.6604C61.9158 35.7332 62.0807 35.8318 62.1527 35.8795C62.2247 35.9271 62.3675 36.0095 62.4702 36.0626C62.5728 36.1156 62.7024 36.1931 62.7581 36.2347C62.8564 36.3082 62.8547 36.3144 62.7025 36.438C62.6161 36.5082 62.5266 36.5657 62.5036 36.5658C62.4806 36.566 62.3329 36.6489 62.1754 36.7501C62.0178 36.8512 61.8805 36.934 61.8704 36.934C61.8602 36.934 61.4424 37.173 60.942 37.465C60.4416 37.7571 59.9379 38.0498 59.8227 38.1155C59.6182 38.2322 59.0897 38.5373 58.7755 38.7201C57.7433 39.3207 54.4276 41.2425 54.037 41.4665C53.9362 41.5243 53.4768 41.7909 53.016 42.0587C52.5552 42.3266 52.0958 42.5928 51.995 42.6504C51.8942 42.7079 51.6645 42.8406 51.4845 42.9454C51.3045 43.0501 51.01 43.2214 50.83 43.3261C50.65 43.4309 50.4203 43.5636 50.3195 43.6211C50.2187 43.6787 49.5354 44.0752 48.8011 44.5022C48.0667 44.9293 47.3835 45.3253 47.2827 45.3824C47.0086 45.5373 45.8045 46.2357 44.7694 46.8401C44.2655 47.1343 43.7471 47.4353 43.6175 47.5089C43.4879 47.5825 43.2287 47.7313 43.0416 47.8396C42.8544 47.9478 42.6188 48.0837 42.518 48.1415C42.4172 48.1993 41.7869 48.5653 41.1174 48.9549L39.9001 49.6632L39.7037 49.5458C39.5957 49.4812 39.4248 49.3814 39.324 49.324C39.2233 49.2666 38.7638 49.0005 38.303 48.7327C37.8423 48.4648 37.3828 48.1986 37.282 48.141C37.1812 48.0835 36.9456 47.9479 36.7584 47.8396C36.5713 47.7313 36.3356 47.5961 36.2349 47.5389C36.1341 47.4818 35.9691 47.3842 35.8683 47.3221C35.6246 47.1718 35.4839 47.0906 35.0386 46.8431C34.8326 46.7286 34.6642 46.6104 34.6644 46.5803C34.6647 46.5277 34.7296 46.4842 35.2372 46.1961C35.3654 46.1235 35.5892 45.9929 35.7347 45.9061C35.9894 45.754 37.9006 44.6496 38.2769 44.4369C38.3777 44.38 38.4837 44.3154 38.5125 44.2934C38.5413 44.2715 38.6709 44.1941 38.8005 44.1216C38.93 44.049 39.1892 43.901 39.3764 43.7928C39.5636 43.6845 39.7992 43.5487 39.9 43.491C40.1198 43.3652 42.3621 42.0655 42.6227 41.9128C42.796 41.8113 43.2451 41.5505 43.5913 41.3502C43.6777 41.3002 44.2314 40.9799 44.8218 40.6383C46.3443 39.7573 46.5013 39.6667 46.7067 39.5501C46.8075 39.493 47.102 39.3212 47.3612 39.1684C47.791 38.9151 49.9342 37.6702 50.3719 37.4197C50.4727 37.362 50.7083 37.2262 50.8955 37.1179C51.0826 37.0096 51.33 36.8673 51.4452 36.8016C51.5604 36.7359 52.0641 36.4432 52.5645 36.1511C53.0649 35.8591 53.4854 35.6201 53.4989 35.6201C53.5124 35.6201 53.586 35.5761 53.6624 35.5225C53.7389 35.4688 53.9074 35.3653 54.037 35.2924C54.1666 35.2196 54.4258 35.0709 54.613 34.962C54.8002 34.853 55.0122 34.732 55.0842 34.693C55.1562 34.654 55.7335 34.3166 56.367 33.9431C57.0006 33.5696 57.5391 33.262 57.5637 33.2595C57.5884 33.257 57.8004 33.3643 58.035 33.4978ZM65.5678 37.8613C65.9501 38.0823 66.3689 38.3222 66.4985 38.3944C66.6281 38.4666 66.7967 38.5697 66.8731 38.6234C66.9496 38.677 67.0231 38.721 67.0365 38.721C67.0499 38.721 67.3291 38.8777 67.6567 39.0692C68.4766 39.5484 69.9312 40.3905 70.2132 40.5494C71.0024 40.9937 71.6528 41.392 71.669 41.4407C71.685 41.4891 71.4276 41.6483 70.2684 42.307C70.1676 42.3643 70.0616 42.4291 70.0328 42.4511C70.004 42.4731 69.8744 42.5504 69.7448 42.6229C69.6152 42.6955 69.356 42.8435 69.1689 42.9517C68.9817 43.06 68.7461 43.1959 68.6453 43.2536C68.5445 43.3113 68.085 43.5778 67.6243 43.8456C67.1635 44.1135 66.704 44.3798 66.6032 44.4373C66.5025 44.4949 66.2668 44.6305 66.0797 44.7388C65.8925 44.8471 65.6333 44.995 65.5037 45.0676C65.3741 45.1402 65.2445 45.2175 65.2157 45.2395C65.1869 45.2614 65.0784 45.3269 64.9745 45.385C64.8706 45.4431 64.3051 45.7688 63.7179 46.1088C62.2787 46.942 62.0524 47.0729 61.8386 47.1954C61.7378 47.2531 60.9131 47.7324 60.006 48.2605C59.0989 48.7886 58.2742 49.2676 58.1734 49.3251C57.5034 49.707 57.0978 49.9412 56.2885 50.4139C55.7845 50.7082 55.2661 51.0092 55.1366 51.0828C55.007 51.1564 54.7537 51.3023 54.5737 51.407C54.3937 51.5118 54.0992 51.6831 53.9192 51.7879C53.7392 51.8926 53.4907 52.0359 53.3669 52.1064C53.2431 52.1768 52.5154 52.5996 51.7499 53.0459C50.9843 53.4922 50.3497 53.8574 50.3397 53.8574C50.3297 53.8574 50.1926 53.9402 50.035 54.0413C49.8775 54.1425 49.7379 54.2253 49.7248 54.2253C49.7117 54.2253 49.5009 54.3436 49.2562 54.4881C49.0116 54.6326 48.7832 54.7509 48.7487 54.7509C48.7142 54.7509 48.4859 54.6326 48.2412 54.4881C47.9966 54.3436 47.7864 54.2253 47.7741 54.2253C47.7619 54.2253 47.6565 54.1649 47.54 54.0911C47.4235 54.0173 47.2531 53.9144 47.1615 53.8624C47.0697 53.8105 46.5117 53.4884 45.9213 53.1469C45.331 52.8053 44.7066 52.4441 44.5338 52.3443C44.361 52.2444 44.149 52.1212 44.0626 52.0705C43.813 51.9239 43.2461 51.5966 42.9892 51.4507C42.8596 51.3772 42.5808 51.2145 42.3696 51.0893C42.1585 50.9641 41.9624 50.8616 41.9338 50.8616C41.9053 50.8616 41.8896 50.8232 41.8989 50.7763C41.9138 50.701 42.0525 50.6103 42.8321 50.1659C42.9329 50.1084 43.3924 49.8422 43.8531 49.5744C44.3139 49.3065 44.7733 49.0401 44.8741 48.9824C44.9749 48.9246 45.2105 48.7887 45.3977 48.6805C45.5849 48.5722 45.8441 48.4243 45.9737 48.3517C46.1033 48.2791 46.2329 48.2018 46.2617 48.1798C46.2905 48.1578 46.4083 48.0874 46.5235 48.0233C46.7615 47.8907 48.3004 46.9996 51.1573 45.34C52.2372 44.7127 53.2032 44.1522 53.304 44.0945C53.4048 44.0369 53.664 43.8886 53.8799 43.7651C54.0959 43.6416 54.685 43.2997 55.1889 43.0054C55.6929 42.7111 56.2112 42.4101 56.3408 42.3365C56.4704 42.2629 56.7296 42.1141 56.9168 42.0058C57.104 41.8975 57.3631 41.7493 57.4927 41.6764C57.6223 41.6036 57.7909 41.5001 57.8673 41.4464C57.9438 41.3927 58.0173 41.3488 58.0307 41.3488C58.0441 41.3488 58.3233 41.1921 58.6509 41.0006C59.6101 40.44 60.9554 39.6621 61.2102 39.5208C61.3398 39.4489 61.4694 39.3722 61.4982 39.3502C61.527 39.3282 61.6448 39.2571 61.76 39.1921C62.2761 38.901 62.4554 38.7974 63.5664 38.149C64.2144 37.7708 64.7733 37.461 64.8086 37.4605C64.8438 37.46 65.1855 37.6404 65.5678 37.8613ZM25.6059 43.5841C25.9947 43.8083 26.3952 44.0384 26.496 44.0955C26.9189 44.3351 29.0555 45.5753 29.2876 45.7159C29.4263 45.8 29.5496 45.8687 29.5615 45.8687C29.5734 45.8687 29.7121 45.9515 29.8697 46.0527C30.0272 46.1538 30.1686 46.2366 30.1838 46.2366C30.199 46.2366 30.3404 46.3194 30.498 46.4206C30.6555 46.5217 30.7967 46.6045 30.8116 46.6045C30.841 46.6045 31.6364 47.0705 31.6796 47.1131C31.694 47.1272 31.7176 49.6535 31.7319 52.7269L31.7581 58.315L31.9158 58.5105C32.0025 58.6181 32.2381 58.8006 32.4394 58.9161C32.6406 59.0317 32.8878 59.1734 32.9886 59.2311C33.0894 59.2888 33.5488 59.5552 34.0096 59.823C34.4703 60.0909 34.9298 60.3571 35.0306 60.4147C35.1314 60.4722 35.367 60.6079 35.5542 60.7162C35.7414 60.8244 36.0005 60.9726 36.1301 61.0454C36.2597 61.1183 36.4283 61.2218 36.5047 61.2755C36.5812 61.3291 36.6547 61.3731 36.6681 61.3731C36.6815 61.3731 36.9607 61.5298 37.2883 61.7213C39.6457 63.099 39.5586 63.0549 39.9175 63.0549C40.2224 63.0549 40.2649 63.04 40.4733 62.861C40.5975 62.7544 40.7313 62.5896 40.7707 62.4948C40.8297 62.353 40.8425 61.4499 40.8425 57.4067C40.8425 53.1382 40.8525 52.4909 40.9187 52.4909C40.9606 52.4909 41.1197 52.5652 41.2721 52.6559C41.4246 52.7467 41.62 52.8617 41.7064 52.9116C41.7928 52.9614 41.9459 53.05 42.0467 53.1085C43.1592 53.7539 44.6237 54.6022 44.7694 54.6856C44.8702 54.7434 45.1 54.8762 45.2799 54.981C45.4599 55.0857 45.7544 55.257 45.9344 55.3617C46.1144 55.4664 46.3441 55.5993 46.4449 55.657C47.4042 56.2063 47.7334 56.4048 47.7662 56.4539C47.8189 56.533 47.8168 83.0139 47.764 83.0466C47.7408 83.061 47.6289 83.0186 47.5153 82.9522C46.7518 82.5063 44.358 81.1217 44.0005 80.9193C43.9088 80.8673 43.7385 80.7644 43.622 80.6906C43.5055 80.6168 43.3957 80.5564 43.3779 80.5564C43.3602 80.5564 43.2831 80.5125 43.2067 80.4588C43.1303 80.4051 42.9558 80.2987 42.819 80.2223C42.3331 79.9509 42.1146 79.8253 41.2154 79.3005C40.715 79.0084 40.2945 78.7695 40.281 78.7695C40.2676 78.7695 40.1939 78.7255 40.1175 78.6719C40.0411 78.6182 39.8725 78.5147 39.7429 78.4418C39.6133 78.369 39.3542 78.2208 39.167 78.1126C38.9798 78.0043 38.7442 77.8685 38.6434 77.8108C38.0148 77.4509 36.0621 76.3167 35.8518 76.1893C35.7131 76.1052 35.5882 76.0365 35.5744 76.0365C35.5605 76.0365 35.4202 75.9537 35.2627 75.8525C35.1051 75.7514 34.9656 75.6686 34.9525 75.6686C34.9395 75.6686 34.7456 75.5591 34.5216 75.4253C34.2976 75.2916 34.0318 75.1349 33.931 75.0772C33.7597 74.9792 32.2104 74.0829 31.8628 73.8808C31.6093 73.7333 31.0401 73.4043 30.8418 73.2908C30.741 73.2331 30.1402 72.8838 29.5067 72.5146C28.8731 72.1454 28.2723 71.7964 28.1715 71.739C28.0707 71.6816 27.8351 71.546 27.6479 71.4378C27.4607 71.3295 27.2251 71.1939 27.1243 71.1365C26.0559 70.5276 24.839 69.804 24.8082 69.7593C24.7612 69.6909 24.7546 43.2194 24.8016 43.1722C24.8201 43.1537 24.8495 43.1472 24.8671 43.1576C24.8847 43.168 25.2171 43.3599 25.6059 43.5841ZM72.7293 49.9888C72.7293 56.1568 72.7215 56.7923 72.646 56.8214C72.6002 56.8391 72.5472 56.8439 72.5282 56.8322C72.4913 56.8095 71.3775 56.5158 71.1585 56.4711C70.2278 56.2809 69.9173 56.2227 69.5615 56.1714C69.3312 56.1383 69.0013 56.0905 68.8285 56.0653C68.5521 56.0251 67.9162 55.97 66.6163 55.8737L66.2367 55.8456V54.3092C66.2367 53.1074 66.2199 52.7159 66.1594 52.5115C66.0822 52.2506 65.9059 52.0373 65.6633 51.9117C65.4965 51.8253 65.0368 51.8263 64.8728 51.9134C64.7661 51.9702 63.3356 53.1281 63.2523 53.2252C63.2379 53.242 62.4368 53.9161 61.472 54.7232C60.5073 55.5302 59.5639 56.3219 59.3755 56.4825C59.1871 56.643 58.9161 56.8722 58.7733 56.9917C54.6845 60.4165 53.9177 61.0637 53.6819 61.2891C53.3978 61.5606 53.2905 61.8807 53.3654 62.2332C53.4276 62.5259 53.5808 62.6905 54.2246 63.1562C54.4814 63.342 54.9036 63.6515 55.1627 63.844C55.4219 64.0365 56.1288 64.5557 56.7335 64.9978C57.3383 65.4399 57.998 65.9247 58.1996 66.0751C58.4012 66.2256 58.7428 66.4784 58.9588 66.637C59.1748 66.7955 59.5871 67.0997 59.8751 67.3129C60.9576 68.1141 61.1594 68.2626 63.9329 70.2973C64.1489 70.4558 64.4081 70.6494 64.5089 70.7275C64.8464 70.9893 65.0278 71.057 65.3256 71.0322C65.6625 71.0042 65.9224 70.8386 66.09 70.5452C66.2081 70.3384 66.2109 70.2986 66.2269 68.6128C66.2409 67.1369 66.2542 66.8916 66.3206 66.8916C66.4638 66.8916 67.4119 66.9972 67.7552 67.0514C69.535 67.3324 71.2314 67.9409 72.4039 68.719L72.7031 68.9175L72.7182 69.3136C72.7307 69.6405 72.717 69.7242 72.6397 69.793C72.5586 69.8651 71.6309 70.4129 70.8967 70.8222C70.7671 70.8944 70.5986 70.9974 70.5221 71.0511C70.4457 71.1048 70.3722 71.1487 70.3589 71.1487C70.3456 71.1487 69.7084 71.5139 68.9428 71.9602C68.1772 72.4065 67.4495 72.8293 67.3258 72.8997C67.2019 72.9702 66.9475 73.1164 66.7603 73.2246C66.5731 73.3329 66.3375 73.4687 66.2367 73.5264C66.1359 73.5841 65.5351 73.9332 64.9016 74.3021C64.268 74.6711 63.6672 75.0201 63.5664 75.0778C63.4656 75.1355 63.23 75.2713 63.0428 75.3796C62.8556 75.4879 62.5965 75.6366 62.4669 75.7103C62.3373 75.7839 61.8189 76.0849 61.315 76.3791C60.129 77.0716 59.0466 77.6987 58.7494 77.8656C58.6198 77.9384 57.8097 78.409 56.9491 78.9115C56.0885 79.4139 55.2874 79.8798 55.1689 79.9468C54.6481 80.2409 54.4724 80.3421 53.3825 80.9762C51.8871 81.8462 51.2324 82.2255 50.974 82.3716C50.8588 82.4367 50.5407 82.6202 50.2671 82.7792C49.9936 82.9382 49.7521 83.0576 49.7305 83.0444C49.6796 83.0134 49.6805 56.5298 49.7312 56.4546C49.7524 56.4232 50.0878 56.2126 50.4766 55.9865C51.3723 55.4654 52.4899 54.8194 52.728 54.6849C52.8288 54.628 53.6535 54.1494 54.5606 53.6212C55.4677 53.0931 56.3277 52.5953 56.4717 52.515C56.6157 52.4348 57.3108 52.0327 58.0163 51.6214C58.7219 51.2101 59.3816 50.8265 59.4824 50.769C59.6532 50.6713 59.7875 50.5934 60.6474 50.0931C60.8274 49.9884 61.0727 49.8468 61.1925 49.7786C61.3124 49.7104 61.982 49.3216 62.6804 48.9146C63.3789 48.5077 64.0748 48.1052 64.2269 48.0202C64.3789 47.9353 64.7697 47.7094 65.0952 47.5182C65.4207 47.327 65.7879 47.113 65.9112 47.0425C66.0346 46.9722 66.397 46.762 66.7165 46.5756C67.0361 46.3891 67.3085 46.2366 67.3219 46.2366C67.3353 46.2366 67.4088 46.1927 67.4853 46.139C67.5617 46.0854 67.7303 45.9818 67.8599 45.909C67.9895 45.8361 68.2486 45.688 68.4358 45.5797C68.623 45.4714 68.8586 45.3356 68.9594 45.2779C69.0602 45.2202 69.661 44.8712 70.2946 44.5022C70.9281 44.1333 71.5289 43.7843 71.6297 43.7267C71.7305 43.669 71.9779 43.5256 72.1795 43.4078C72.3811 43.2901 72.5872 43.1926 72.6377 43.191C72.7245 43.1885 72.7293 43.5461 72.7293 49.9888ZM33.9033 48.3915C34.0049 48.4493 34.1765 48.5467 34.2845 48.6079C34.3925 48.6692 34.9992 49.0211 35.6327 49.39C36.2663 49.759 36.8671 50.108 36.9679 50.1657C37.0687 50.2234 37.3043 50.3593 37.4915 50.4675C37.6787 50.5758 37.9378 50.7239 38.0674 50.7968C38.197 50.8696 38.3656 50.9732 38.442 51.0268C38.5184 51.0805 38.6034 51.1244 38.6307 51.1244C38.6581 51.1244 38.7428 51.1825 38.819 51.2533L38.9575 51.3822V55.8752C38.9575 58.4967 38.9378 60.3805 38.9102 60.3977C38.8841 60.4138 38.7133 60.3413 38.5306 60.2366C38.3479 60.1319 38.0923 59.9866 37.9627 59.9138C37.8331 59.8409 37.6646 59.7374 37.5881 59.6837C37.5117 59.6301 37.4383 59.5861 37.4251 59.5861C37.4119 59.5861 36.9357 59.3141 36.3669 58.9817C35.798 58.6493 35.326 58.3773 35.3178 58.3773C35.3097 58.3773 35.1534 58.2864 34.9705 58.1752C34.7875 58.0641 34.4965 57.8948 34.3237 57.7991C34.1509 57.7033 33.9212 57.5692 33.8132 57.5012L33.6169 57.3774V52.8319C33.6169 49.9316 33.6353 48.2863 33.6677 48.2863C33.6956 48.2863 33.8016 48.3336 33.9033 48.3915ZM64.3088 56.0038L64.3256 57.099L64.4755 57.3158C64.5606 57.439 64.7204 57.5789 64.8453 57.6396C65.0339 57.7312 65.2033 57.7505 66.0306 57.7743C67.1731 57.8072 68.0407 57.8765 69.0238 58.0134C72.3014 58.4697 74.9988 59.5239 77.204 61.2106C78.1896 61.9644 79.3353 63.1999 79.9691 64.1924C80.7133 65.3579 81.2889 66.7498 81.5525 68.0215C81.6621 68.5503 81.7876 69.6894 81.7869 70.1498C81.7862 70.645 81.6584 71.8457 81.5547 72.3312C81.431 72.9108 81.2802 73.4582 81.1047 73.9653C80.9452 74.4261 80.4074 75.5734 80.1338 76.0364C79.9214 76.3961 79.3332 77.2314 79.0427 77.586C78.6275 78.093 77.9777 78.748 77.4416 79.2003C76.902 79.6555 76.1398 80.2132 76.105 80.1783C76.0931 80.1663 76.1916 79.9945 76.3239 79.7965C76.6438 79.3179 77.1335 78.3707 77.3304 77.8497C77.5186 77.3516 77.6691 76.8078 77.7886 76.1942C77.9058 75.5923 77.9069 74.0342 77.7905 73.4086C77.6729 72.7762 77.5074 72.1764 77.3198 71.7034C77.0104 70.9234 76.3652 69.8445 75.8258 69.2053C74.7132 67.8868 73.1985 66.8128 71.3941 66.0629C71.1925 65.9792 70.7449 65.8229 70.3993 65.7156C69.4557 65.4227 69.1635 65.3518 68.3057 65.2077C67.5648 65.0831 66.1245 64.9485 65.5232 64.9476C64.8951 64.9466 64.5992 65.1041 64.3993 65.5458C64.3134 65.7358 64.3016 65.9044 64.3006 66.9573C64.3 67.6149 64.2817 68.1529 64.2602 68.1529C64.2385 68.1529 64.0206 68.0035 63.7758 67.8208C63.3186 67.4795 62.9489 67.2066 61.3418 66.0244C60.831 65.6486 60.0294 65.0573 59.5606 64.7104C59.0918 64.3636 58.4323 63.8787 58.0952 63.633C56.7849 62.6782 55.9465 62.0436 55.9099 61.9791C55.8839 61.9332 56.4599 61.4198 57.7163 60.369C58.7309 59.5204 59.5727 58.8138 59.5871 58.7988C59.622 58.7625 60.2109 58.2674 62.3098 56.51C63.2745 55.7023 64.095 55.0116 64.133 54.975C64.1711 54.9384 64.2224 54.9085 64.247 54.9085C64.2717 54.9085 64.2994 55.4014 64.3088 56.0038Z"/>
</mask>
<path fill-rule="evenodd" clip-rule="evenodd" d="M48.219 26.2276C48.0352 26.3227 47.496 26.6273 47.0209 26.9045C46.5457 27.1817 46.0745 27.4558 45.9737 27.5135C45.8729 27.5713 45.6373 27.7071 45.4501 27.8154C45.2629 27.9237 45.0037 28.0718 44.8741 28.1447C44.7445 28.2175 44.576 28.3211 44.4996 28.3747C44.4231 28.4284 44.3495 28.4723 44.336 28.4723C44.3225 28.4723 43.902 28.7113 43.4016 29.0034C42.9012 29.2954 42.3975 29.5882 42.2823 29.6539C42.0283 29.7987 41.4506 30.1327 41.2352 30.2593C41.0505 30.3677 40.4758 30.7002 40.2142 30.8501C40.1134 30.9078 39.5125 31.2568 38.879 31.6257C38.2454 31.9947 37.6446 32.3437 37.5438 32.4014C37.443 32.4591 37.2074 32.5949 37.0202 32.7032C36.8331 32.8114 36.5974 32.947 36.4966 33.0046C36.3959 33.0621 35.9364 33.3284 35.4756 33.5963C35.0149 33.8641 34.5554 34.1306 34.4546 34.1883C34.3538 34.246 34.1241 34.3789 33.9441 34.4837C33.7642 34.5884 33.4697 34.7597 33.2896 34.8644C33.1097 34.9692 32.8892 35.0969 32.7997 35.1484C32.7102 35.1998 32.1565 35.5202 31.5693 35.8602C30.982 36.2002 30.3601 36.5601 30.1874 36.66C30.0146 36.76 29.8025 36.8833 29.7161 36.934C29.3711 37.1367 28.9109 37.4033 28.538 37.6166C28.322 37.7402 27.7094 38.0957 27.1767 38.4066C26.6439 38.7174 26.1256 39.0189 26.0248 39.0764C25.924 39.134 25.6884 39.2696 25.5012 39.3779C25.314 39.4862 25.0784 39.6219 24.9776 39.6796C23.7706 40.3707 23.3048 40.6522 23.1823 40.7649C22.8589 41.0625 22.8832 39.8295 22.8832 55.9415C22.8832 65.7293 22.9008 70.6757 22.9356 70.6757C22.9644 70.6757 22.9879 70.7065 22.9879 70.7442C22.9879 70.7819 23.0645 70.8862 23.1581 70.9759C23.316 71.1274 23.4871 71.2386 24.0903 71.5814C24.2183 71.6543 24.4704 71.7996 24.6504 71.9043C24.8304 72.009 25.1249 72.1804 25.3048 72.2851C25.4849 72.3899 25.7381 72.5351 25.8677 72.608C25.9973 72.6808 26.1658 72.7844 26.2423 72.838C26.3187 72.8917 26.3925 72.9356 26.4063 72.9356C26.42 72.9356 26.7549 73.1248 27.1505 73.3561C27.5461 73.5873 27.8783 73.7765 27.8887 73.7765C27.8991 73.7765 28.0318 73.8555 28.1836 73.952C28.3353 74.0485 28.6244 74.2172 28.826 74.3269C29.0276 74.4367 29.255 74.5706 29.3315 74.6245C29.4079 74.6784 29.4812 74.7226 29.4943 74.7226C29.5074 74.7226 29.9161 74.955 30.4025 75.2392C30.8889 75.5233 31.3929 75.8163 31.5225 75.8902C32.063 76.1987 34.1815 77.4261 35.0568 77.9378C35.5751 78.2409 36.1053 78.5491 36.2349 78.6227C36.3644 78.6963 36.6236 78.8451 36.8108 78.9534C36.998 79.0616 37.2336 79.1975 37.3344 79.2553C37.4352 79.313 37.8946 79.5794 38.3554 79.8473C38.8162 80.1151 39.2756 80.3814 39.3764 80.4389C39.4772 80.4965 39.7128 80.6321 39.9 80.7404C40.0872 80.8487 40.3464 80.9968 40.476 81.0697C40.6055 81.1425 40.7741 81.2461 40.8505 81.2997C40.927 81.3534 41.004 81.3973 41.0219 81.3973C41.0396 81.3973 41.142 81.4531 41.2494 81.5213C41.4143 81.626 43.5108 82.8442 44.0887 83.1711C44.1895 83.2281 44.5665 83.4459 44.9265 83.6552C45.2865 83.8644 45.6635 84.0833 45.7642 84.1414C45.865 84.1997 46.3245 84.4665 46.7852 84.7343C47.246 85.0022 47.7172 85.2761 47.8324 85.343C48.3433 85.6398 48.5119 85.707 48.7445 85.7067C48.8764 85.7065 49.0453 85.6744 49.1199 85.6354C49.437 85.4692 49.9832 85.1653 50.0315 85.1279C50.0603 85.1057 50.1689 85.04 50.2727 84.9819C50.6033 84.7971 52.5289 83.6817 52.9549 83.4282C53.1805 83.2941 53.3733 83.1843 53.3834 83.1843C53.3935 83.1843 53.5153 83.1155 53.654 83.0314C53.8708 82.8999 56.546 81.3437 57.0739 81.0419C57.1746 80.9843 57.4103 80.8486 57.5974 80.7404C57.7846 80.6321 58.0202 80.4963 58.121 80.4385C58.2218 80.3808 58.6813 80.1144 59.142 79.8465C59.6028 79.5786 60.0623 79.3119 60.1631 79.2536C60.2638 79.1954 60.6408 78.9766 61.0008 78.7673C61.3608 78.558 61.7566 78.3296 61.8804 78.2597C62.0042 78.1898 62.7319 77.7674 63.4974 77.321C64.263 76.8747 64.8975 76.5095 64.9075 76.5095C64.9175 76.5095 65.0546 76.4267 65.2122 76.3256C65.3698 76.2244 65.5096 76.1416 65.5231 76.1416C65.5365 76.1416 66.0941 75.8223 66.7623 75.4321C67.4304 75.0419 67.9883 74.7226 68.002 74.7226C68.0157 74.7226 68.0895 74.6786 68.166 74.625C68.2424 74.5713 68.411 74.4678 68.5405 74.3949C68.6701 74.3221 68.9293 74.1739 69.1165 74.0656C69.3037 73.9573 69.5629 73.8091 69.6924 73.7363C69.822 73.6634 69.9906 73.5599 70.067 73.5062C70.1435 73.4526 70.2186 73.4086 70.2338 73.4086C70.2491 73.4086 70.8066 73.0894 71.4727 72.6991C72.1387 72.3089 72.6935 71.9896 72.7055 71.9896C72.7175 71.9896 72.8562 71.9068 73.0138 71.8057C73.1713 71.7045 73.3109 71.6217 73.324 71.6217C73.3371 71.6217 73.5448 71.5053 73.7856 71.363C74.0264 71.2208 74.303 71.0166 74.4002 70.9093L74.5771 70.7143L74.6763 70.8395C74.8923 71.1121 75.1295 71.5134 75.3559 71.9896C75.8061 72.9364 75.9756 73.7074 75.9756 74.8088C75.9756 75.2582 75.9434 75.7255 75.894 75.9913C75.6973 77.052 75.182 78.1892 74.4778 79.1169C74.1082 79.6038 73.5569 80.1858 73.1004 80.5711C72.8531 80.7798 72.6183 80.9814 72.5788 81.0191C72.3653 81.2223 71.0589 82.0335 70.3873 82.38C69.9619 82.5995 69.5596 82.8147 69.4931 82.8583C69.3054 82.9814 69.1689 83.3007 69.1691 83.6158C69.1693 83.9426 69.2799 84.1547 69.5631 84.3715C69.7318 84.5007 69.8016 84.5195 70.1042 84.5173C70.8104 84.5122 73.1248 83.8308 74.5357 83.2126C75.5713 82.7589 76.7614 82.0739 77.8401 81.3106C78.6421 80.743 79.7613 79.6914 80.4885 78.822C80.9952 78.2163 81.7869 77.0339 82.1476 76.3441C82.4528 75.7604 82.8631 74.7797 83.0569 74.1703C83.2362 73.6065 83.3863 72.9672 83.4888 72.3312C83.5354 72.0422 83.5976 71.6874 83.6269 71.5429C83.6913 71.2267 83.656 69.0786 83.5777 68.5471C83.5082 68.0749 83.3163 67.1143 83.2574 66.9441C83.2325 66.8719 83.1594 66.6353 83.0951 66.4185C82.8471 65.5824 82.3064 64.3611 81.8555 63.6188C81.5567 63.1271 81.0781 62.4459 80.7206 62.0038C80.3447 61.5389 79.3897 60.5644 78.9077 60.1538C78.7205 59.9944 78.3435 59.7 78.0699 59.4997C77.1876 58.8534 76.5486 58.4759 75.3603 57.8987L74.6142 57.5363L74.6131 49.4031C74.612 41.6083 74.6079 41.2612 74.5153 41.0597C74.4621 40.9441 74.3625 40.8003 74.2939 40.7402C74.1898 40.6489 73.6651 40.3353 72.5198 39.6796C72.4191 39.6219 72.1834 39.4862 71.9963 39.3779C71.8091 39.2696 71.5735 39.1338 71.4727 39.0761C71.3719 39.0184 70.9124 38.7519 70.4517 38.4841C69.9909 38.2162 69.5314 37.9499 69.4307 37.8924C69.0187 37.6572 68.5967 37.4109 68.209 37.1791C67.9834 37.0443 67.7922 36.934 67.784 36.934C67.7758 36.934 67.1428 36.5688 66.3772 36.1225C65.6116 35.6762 64.8839 35.2537 64.7601 35.1836C64.6363 35.1136 64.4526 35.0084 64.3518 34.9499C64.251 34.8914 63.497 34.4533 62.6763 33.9765C61.8556 33.4997 61.1016 33.0623 61.0008 33.0047C60.9 32.9471 60.6762 32.8177 60.5034 32.7172C60.3306 32.6167 59.8712 32.3509 59.4824 32.1265C59.0936 31.9021 58.481 31.5466 58.121 31.3365C57.7611 31.1263 57.3782 30.9044 57.2702 30.8433C56.7975 30.576 56.7025 30.5203 56.5024 30.3935C56.3859 30.3196 56.2814 30.2593 56.2703 30.2593C56.2592 30.2593 55.6237 29.8941 54.8581 29.4477C54.0926 29.0014 53.3649 28.5786 53.2411 28.5082C53.1173 28.4378 52.8688 28.2945 52.6888 28.1897C51.838 27.6947 51.6948 27.6115 51.5238 27.5135C51.423 27.4558 50.9517 27.1817 50.4766 26.9045C49.2563 26.1926 48.976 26.0547 48.7487 26.0547C48.6302 26.0547 48.4215 26.1228 48.219 26.2276ZM49.4479 28.5216C49.6825 28.6598 49.9923 28.8379 50.1362 28.9174C50.2802 28.9969 51.1402 29.4941 52.0474 30.0223C52.9545 30.5504 53.7791 31.0297 53.8799 31.0875C54.1247 31.2276 54.6823 31.5505 55.0057 31.7393C55.1496 31.8234 55.344 31.9312 55.4376 31.9789C55.5312 32.0266 55.6078 32.084 55.6078 32.1064C55.6078 32.1288 55.5784 32.173 55.5423 32.2046C55.485 32.2548 52.8387 33.8007 52.1215 34.2029C51.9751 34.285 51.2839 34.6851 50.5854 35.0921C49.887 35.4991 49.2174 35.8879 49.0975 35.9561C48.8449 36.0999 48.5805 36.2527 47.3612 36.9597C45.9441 37.7814 45.1336 38.2512 44.7956 38.4469C44.6228 38.5469 44.4108 38.6697 44.3244 38.7197C44.238 38.7697 43.7785 39.0358 43.3034 39.3111C42.8282 39.5863 42.1713 39.9681 41.8436 40.1596C41.5159 40.3512 41.2368 40.5079 41.2234 40.5079C41.2099 40.5079 41.1364 40.5518 41.06 40.6055C40.9835 40.6592 40.815 40.7621 40.6854 40.8343C40.463 40.958 40.0814 41.1787 37.6747 42.5756C36.4628 43.2791 36.1065 43.4853 35.8683 43.6209C35.6313 43.756 33.401 45.0498 33.0933 45.2308C32.9637 45.307 32.8134 45.3875 32.7594 45.4096C32.662 45.4495 32.4125 45.3303 31.6796 44.894C31.4269 44.7435 29.348 43.5373 28.8522 43.2535C28.7514 43.1958 28.5158 43.06 28.3286 42.9517C28.1414 42.8435 27.8822 42.695 27.7526 42.6217C27.6231 42.5485 27.3521 42.3898 27.1505 42.269C26.9489 42.1481 26.5649 41.9248 26.2971 41.7725C26.0293 41.6202 25.8185 41.4706 25.8288 41.4399C25.8446 41.3921 26.4228 41.0379 27.2842 40.5481C27.4123 40.4753 27.6643 40.33 27.8443 40.2253C28.7061 39.7238 28.8384 39.647 29.0093 39.5495C29.1101 39.492 29.5695 39.2257 30.0303 38.9578C30.491 38.69 30.9505 38.4235 31.0513 38.3658C31.1521 38.3081 31.3877 38.1722 31.5749 38.0639C31.7621 37.9557 32.0212 37.8077 32.1508 37.7351C32.2804 37.6626 32.41 37.5852 32.4388 37.5633C32.4676 37.5413 32.5736 37.477 32.6744 37.4203C33.0139 37.2294 34.9623 36.1008 35.369 35.8594C35.5908 35.7278 35.7802 35.6201 35.7898 35.6201C35.7994 35.6201 35.9919 35.5102 36.2174 35.376C36.443 35.2417 36.71 35.0854 36.8108 35.0287C37.0067 34.9183 39.124 33.6915 39.6906 33.3601C39.8777 33.2506 40.5728 32.8483 41.2352 32.4661C43.0905 31.3954 43.1595 31.3552 43.3677 31.2236C43.475 31.1557 43.5747 31.1002 43.5892 31.1002C43.6036 31.1002 43.7444 31.0174 43.902 30.9162C44.0595 30.815 44.1998 30.7323 44.2137 30.7323C44.2275 30.7323 44.3524 30.6635 44.4911 30.5795C44.7013 30.4521 46.654 29.3179 47.2827 28.958C47.3835 28.9003 47.6191 28.7645 47.8063 28.6562C47.9934 28.5479 48.2526 28.4002 48.3822 28.3279C48.5118 28.2557 48.639 28.177 48.6649 28.1532C48.7174 28.1047 48.8301 28.1578 49.4479 28.5216ZM58.035 33.4978C58.2695 33.6314 58.5674 33.8009 58.697 33.8746C58.8266 33.9483 59.3449 34.2494 59.8489 34.5437C60.7547 35.0726 61.3282 35.4032 61.7862 35.6604C61.9158 35.7332 62.0807 35.8318 62.1527 35.8795C62.2247 35.9271 62.3675 36.0095 62.4702 36.0626C62.5728 36.1156 62.7024 36.1931 62.7581 36.2347C62.8564 36.3082 62.8547 36.3144 62.7025 36.438C62.6161 36.5082 62.5266 36.5657 62.5036 36.5658C62.4806 36.566 62.3329 36.6489 62.1754 36.7501C62.0178 36.8512 61.8805 36.934 61.8704 36.934C61.8602 36.934 61.4424 37.173 60.942 37.465C60.4416 37.7571 59.9379 38.0498 59.8227 38.1155C59.6182 38.2322 59.0897 38.5373 58.7755 38.7201C57.7433 39.3207 54.4276 41.2425 54.037 41.4665C53.9362 41.5243 53.4768 41.7909 53.016 42.0587C52.5552 42.3266 52.0958 42.5928 51.995 42.6504C51.8942 42.7079 51.6645 42.8406 51.4845 42.9454C51.3045 43.0501 51.01 43.2214 50.83 43.3261C50.65 43.4309 50.4203 43.5636 50.3195 43.6211C50.2187 43.6787 49.5354 44.0752 48.8011 44.5022C48.0667 44.9293 47.3835 45.3253 47.2827 45.3824C47.0086 45.5373 45.8045 46.2357 44.7694 46.8401C44.2655 47.1343 43.7471 47.4353 43.6175 47.5089C43.4879 47.5825 43.2287 47.7313 43.0416 47.8396C42.8544 47.9478 42.6188 48.0837 42.518 48.1415C42.4172 48.1993 41.7869 48.5653 41.1174 48.9549L39.9001 49.6632L39.7037 49.5458C39.5957 49.4812 39.4248 49.3814 39.324 49.324C39.2233 49.2666 38.7638 49.0005 38.303 48.7327C37.8423 48.4648 37.3828 48.1986 37.282 48.141C37.1812 48.0835 36.9456 47.9479 36.7584 47.8396C36.5713 47.7313 36.3356 47.5961 36.2349 47.5389C36.1341 47.4818 35.9691 47.3842 35.8683 47.3221C35.6246 47.1718 35.4839 47.0906 35.0386 46.8431C34.8326 46.7286 34.6642 46.6104 34.6644 46.5803C34.6647 46.5277 34.7296 46.4842 35.2372 46.1961C35.3654 46.1235 35.5892 45.9929 35.7347 45.9061C35.9894 45.754 37.9006 44.6496 38.2769 44.4369C38.3777 44.38 38.4837 44.3154 38.5125 44.2934C38.5413 44.2715 38.6709 44.1941 38.8005 44.1216C38.93 44.049 39.1892 43.901 39.3764 43.7928C39.5636 43.6845 39.7992 43.5487 39.9 43.491C40.1198 43.3652 42.3621 42.0655 42.6227 41.9128C42.796 41.8113 43.2451 41.5505 43.5913 41.3502C43.6777 41.3002 44.2314 40.9799 44.8218 40.6383C46.3443 39.7573 46.5013 39.6667 46.7067 39.5501C46.8075 39.493 47.102 39.3212 47.3612 39.1684C47.791 38.9151 49.9342 37.6702 50.3719 37.4197C50.4727 37.362 50.7083 37.2262 50.8955 37.1179C51.0826 37.0096 51.33 36.8673 51.4452 36.8016C51.5604 36.7359 52.0641 36.4432 52.5645 36.1511C53.0649 35.8591 53.4854 35.6201 53.4989 35.6201C53.5124 35.6201 53.586 35.5761 53.6624 35.5225C53.7389 35.4688 53.9074 35.3653 54.037 35.2924C54.1666 35.2196 54.4258 35.0709 54.613 34.962C54.8002 34.853 55.0122 34.732 55.0842 34.693C55.1562 34.654 55.7335 34.3166 56.367 33.9431C57.0006 33.5696 57.5391 33.262 57.5637 33.2595C57.5884 33.257 57.8004 33.3643 58.035 33.4978ZM65.5678 37.8613C65.9501 38.0823 66.3689 38.3222 66.4985 38.3944C66.6281 38.4666 66.7967 38.5697 66.8731 38.6234C66.9496 38.677 67.0231 38.721 67.0365 38.721C67.0499 38.721 67.3291 38.8777 67.6567 39.0692C68.4766 39.5484 69.9312 40.3905 70.2132 40.5494C71.0024 40.9937 71.6528 41.392 71.669 41.4407C71.685 41.4891 71.4276 41.6483 70.2684 42.307C70.1676 42.3643 70.0616 42.4291 70.0328 42.4511C70.004 42.4731 69.8744 42.5504 69.7448 42.6229C69.6152 42.6955 69.356 42.8435 69.1689 42.9517C68.9817 43.06 68.7461 43.1959 68.6453 43.2536C68.5445 43.3113 68.085 43.5778 67.6243 43.8456C67.1635 44.1135 66.704 44.3798 66.6032 44.4373C66.5025 44.4949 66.2668 44.6305 66.0797 44.7388C65.8925 44.8471 65.6333 44.995 65.5037 45.0676C65.3741 45.1402 65.2445 45.2175 65.2157 45.2395C65.1869 45.2614 65.0784 45.3269 64.9745 45.385C64.8706 45.4431 64.3051 45.7688 63.7179 46.1088C62.2787 46.942 62.0524 47.0729 61.8386 47.1954C61.7378 47.2531 60.9131 47.7324 60.006 48.2605C59.0989 48.7886 58.2742 49.2676 58.1734 49.3251C57.5034 49.707 57.0978 49.9412 56.2885 50.4139C55.7845 50.7082 55.2661 51.0092 55.1366 51.0828C55.007 51.1564 54.7537 51.3023 54.5737 51.407C54.3937 51.5118 54.0992 51.6831 53.9192 51.7879C53.7392 51.8926 53.4907 52.0359 53.3669 52.1064C53.2431 52.1768 52.5154 52.5996 51.7499 53.0459C50.9843 53.4922 50.3497 53.8574 50.3397 53.8574C50.3297 53.8574 50.1926 53.9402 50.035 54.0413C49.8775 54.1425 49.7379 54.2253 49.7248 54.2253C49.7117 54.2253 49.5009 54.3436 49.2562 54.4881C49.0116 54.6326 48.7832 54.7509 48.7487 54.7509C48.7142 54.7509 48.4859 54.6326 48.2412 54.4881C47.9966 54.3436 47.7864 54.2253 47.7741 54.2253C47.7619 54.2253 47.6565 54.1649 47.54 54.0911C47.4235 54.0173 47.2531 53.9144 47.1615 53.8624C47.0697 53.8105 46.5117 53.4884 45.9213 53.1469C45.331 52.8053 44.7066 52.4441 44.5338 52.3443C44.361 52.2444 44.149 52.1212 44.0626 52.0705C43.813 51.9239 43.2461 51.5966 42.9892 51.4507C42.8596 51.3772 42.5808 51.2145 42.3696 51.0893C42.1585 50.9641 41.9624 50.8616 41.9338 50.8616C41.9053 50.8616 41.8896 50.8232 41.8989 50.7763C41.9138 50.701 42.0525 50.6103 42.8321 50.1659C42.9329 50.1084 43.3924 49.8422 43.8531 49.5744C44.3139 49.3065 44.7733 49.0401 44.8741 48.9824C44.9749 48.9246 45.2105 48.7887 45.3977 48.6805C45.5849 48.5722 45.8441 48.4243 45.9737 48.3517C46.1033 48.2791 46.2329 48.2018 46.2617 48.1798C46.2905 48.1578 46.4083 48.0874 46.5235 48.0233C46.7615 47.8907 48.3004 46.9996 51.1573 45.34C52.2372 44.7127 53.2032 44.1522 53.304 44.0945C53.4048 44.0369 53.664 43.8886 53.8799 43.7651C54.0959 43.6416 54.685 43.2997 55.1889 43.0054C55.6929 42.7111 56.2112 42.4101 56.3408 42.3365C56.4704 42.2629 56.7296 42.1141 56.9168 42.0058C57.104 41.8975 57.3631 41.7493 57.4927 41.6764C57.6223 41.6036 57.7909 41.5001 57.8673 41.4464C57.9438 41.3927 58.0173 41.3488 58.0307 41.3488C58.0441 41.3488 58.3233 41.1921 58.6509 41.0006C59.6101 40.44 60.9554 39.6621 61.2102 39.5208C61.3398 39.4489 61.4694 39.3722 61.4982 39.3502C61.527 39.3282 61.6448 39.2571 61.76 39.1921C62.2761 38.901 62.4554 38.7974 63.5664 38.149C64.2144 37.7708 64.7733 37.461 64.8086 37.4605C64.8438 37.46 65.1855 37.6404 65.5678 37.8613ZM25.6059 43.5841C25.9947 43.8083 26.3952 44.0384 26.496 44.0955C26.9189 44.3351 29.0555 45.5753 29.2876 45.7159C29.4263 45.8 29.5496 45.8687 29.5615 45.8687C29.5734 45.8687 29.7121 45.9515 29.8697 46.0527C30.0272 46.1538 30.1686 46.2366 30.1838 46.2366C30.199 46.2366 30.3404 46.3194 30.498 46.4206C30.6555 46.5217 30.7967 46.6045 30.8116 46.6045C30.841 46.6045 31.6364 47.0705 31.6796 47.1131C31.694 47.1272 31.7176 49.6535 31.7319 52.7269L31.7581 58.315L31.9158 58.5105C32.0025 58.6181 32.2381 58.8006 32.4394 58.9161C32.6406 59.0317 32.8878 59.1734 32.9886 59.2311C33.0894 59.2888 33.5488 59.5552 34.0096 59.823C34.4703 60.0909 34.9298 60.3571 35.0306 60.4147C35.1314 60.4722 35.367 60.6079 35.5542 60.7162C35.7414 60.8244 36.0005 60.9726 36.1301 61.0454C36.2597 61.1183 36.4283 61.2218 36.5047 61.2755C36.5812 61.3291 36.6547 61.3731 36.6681 61.3731C36.6815 61.3731 36.9607 61.5298 37.2883 61.7213C39.6457 63.099 39.5586 63.0549 39.9175 63.0549C40.2224 63.0549 40.2649 63.04 40.4733 62.861C40.5975 62.7544 40.7313 62.5896 40.7707 62.4948C40.8297 62.353 40.8425 61.4499 40.8425 57.4067C40.8425 53.1382 40.8525 52.4909 40.9187 52.4909C40.9606 52.4909 41.1197 52.5652 41.2721 52.6559C41.4246 52.7467 41.62 52.8617 41.7064 52.9116C41.7928 52.9614 41.9459 53.05 42.0467 53.1085C43.1592 53.7539 44.6237 54.6022 44.7694 54.6856C44.8702 54.7434 45.1 54.8762 45.2799 54.981C45.4599 55.0857 45.7544 55.257 45.9344 55.3617C46.1144 55.4664 46.3441 55.5993 46.4449 55.657C47.4042 56.2063 47.7334 56.4048 47.7662 56.4539C47.8189 56.533 47.8168 83.0139 47.764 83.0466C47.7408 83.061 47.6289 83.0186 47.5153 82.9522C46.7518 82.5063 44.358 81.1217 44.0005 80.9193C43.9088 80.8673 43.7385 80.7644 43.622 80.6906C43.5055 80.6168 43.3957 80.5564 43.3779 80.5564C43.3602 80.5564 43.2831 80.5125 43.2067 80.4588C43.1303 80.4051 42.9558 80.2987 42.819 80.2223C42.3331 79.9509 42.1146 79.8253 41.2154 79.3005C40.715 79.0084 40.2945 78.7695 40.281 78.7695C40.2676 78.7695 40.1939 78.7255 40.1175 78.6719C40.0411 78.6182 39.8725 78.5147 39.7429 78.4418C39.6133 78.369 39.3542 78.2208 39.167 78.1126C38.9798 78.0043 38.7442 77.8685 38.6434 77.8108C38.0148 77.4509 36.0621 76.3167 35.8518 76.1893C35.7131 76.1052 35.5882 76.0365 35.5744 76.0365C35.5605 76.0365 35.4202 75.9537 35.2627 75.8525C35.1051 75.7514 34.9656 75.6686 34.9525 75.6686C34.9395 75.6686 34.7456 75.5591 34.5216 75.4253C34.2976 75.2916 34.0318 75.1349 33.931 75.0772C33.7597 74.9792 32.2104 74.0829 31.8628 73.8808C31.6093 73.7333 31.0401 73.4043 30.8418 73.2908C30.741 73.2331 30.1402 72.8838 29.5067 72.5146C28.8731 72.1454 28.2723 71.7964 28.1715 71.739C28.0707 71.6816 27.8351 71.546 27.6479 71.4378C27.4607 71.3295 27.2251 71.1939 27.1243 71.1365C26.0559 70.5276 24.839 69.804 24.8082 69.7593C24.7612 69.6909 24.7546 43.2194 24.8016 43.1722C24.8201 43.1537 24.8495 43.1472 24.8671 43.1576C24.8847 43.168 25.2171 43.3599 25.6059 43.5841ZM72.7293 49.9888C72.7293 56.1568 72.7215 56.7923 72.646 56.8214C72.6002 56.8391 72.5472 56.8439 72.5282 56.8322C72.4913 56.8095 71.3775 56.5158 71.1585 56.4711C70.2278 56.2809 69.9173 56.2227 69.5615 56.1714C69.3312 56.1383 69.0013 56.0905 68.8285 56.0653C68.5521 56.0251 67.9162 55.97 66.6163 55.8737L66.2367 55.8456V54.3092C66.2367 53.1074 66.2199 52.7159 66.1594 52.5115C66.0822 52.2506 65.9059 52.0373 65.6633 51.9117C65.4965 51.8253 65.0368 51.8263 64.8728 51.9134C64.7661 51.9702 63.3356 53.1281 63.2523 53.2252C63.2379 53.242 62.4368 53.9161 61.472 54.7232C60.5073 55.5302 59.5639 56.3219 59.3755 56.4825C59.1871 56.643 58.9161 56.8722 58.7733 56.9917C54.6845 60.4165 53.9177 61.0637 53.6819 61.2891C53.3978 61.5606 53.2905 61.8807 53.3654 62.2332C53.4276 62.5259 53.5808 62.6905 54.2246 63.1562C54.4814 63.342 54.9036 63.6515 55.1627 63.844C55.4219 64.0365 56.1288 64.5557 56.7335 64.9978C57.3383 65.4399 57.998 65.9247 58.1996 66.0751C58.4012 66.2256 58.7428 66.4784 58.9588 66.637C59.1748 66.7955 59.5871 67.0997 59.8751 67.3129C60.9576 68.1141 61.1594 68.2626 63.9329 70.2973C64.1489 70.4558 64.4081 70.6494 64.5089 70.7275C64.8464 70.9893 65.0278 71.057 65.3256 71.0322C65.6625 71.0042 65.9224 70.8386 66.09 70.5452C66.2081 70.3384 66.2109 70.2986 66.2269 68.6128C66.2409 67.1369 66.2542 66.8916 66.3206 66.8916C66.4638 66.8916 67.4119 66.9972 67.7552 67.0514C69.535 67.3324 71.2314 67.9409 72.4039 68.719L72.7031 68.9175L72.7182 69.3136C72.7307 69.6405 72.717 69.7242 72.6397 69.793C72.5586 69.8651 71.6309 70.4129 70.8967 70.8222C70.7671 70.8944 70.5986 70.9974 70.5221 71.0511C70.4457 71.1048 70.3722 71.1487 70.3589 71.1487C70.3456 71.1487 69.7084 71.5139 68.9428 71.9602C68.1772 72.4065 67.4495 72.8293 67.3258 72.8997C67.2019 72.9702 66.9475 73.1164 66.7603 73.2246C66.5731 73.3329 66.3375 73.4687 66.2367 73.5264C66.1359 73.5841 65.5351 73.9332 64.9016 74.3021C64.268 74.6711 63.6672 75.0201 63.5664 75.0778C63.4656 75.1355 63.23 75.2713 63.0428 75.3796C62.8556 75.4879 62.5965 75.6366 62.4669 75.7103C62.3373 75.7839 61.8189 76.0849 61.315 76.3791C60.129 77.0716 59.0466 77.6987 58.7494 77.8656C58.6198 77.9384 57.8097 78.409 56.9491 78.9115C56.0885 79.4139 55.2874 79.8798 55.1689 79.9468C54.6481 80.2409 54.4724 80.3421 53.3825 80.9762C51.8871 81.8462 51.2324 82.2255 50.974 82.3716C50.8588 82.4367 50.5407 82.6202 50.2671 82.7792C49.9936 82.9382 49.7521 83.0576 49.7305 83.0444C49.6796 83.0134 49.6805 56.5298 49.7312 56.4546C49.7524 56.4232 50.0878 56.2126 50.4766 55.9865C51.3723 55.4654 52.4899 54.8194 52.728 54.6849C52.8288 54.628 53.6535 54.1494 54.5606 53.6212C55.4677 53.0931 56.3277 52.5953 56.4717 52.515C56.6157 52.4348 57.3108 52.0327 58.0163 51.6214C58.7219 51.2101 59.3816 50.8265 59.4824 50.769C59.6532 50.6713 59.7875 50.5934 60.6474 50.0931C60.8274 49.9884 61.0727 49.8468 61.1925 49.7786C61.3124 49.7104 61.982 49.3216 62.6804 48.9146C63.3789 48.5077 64.0748 48.1052 64.2269 48.0202C64.3789 47.9353 64.7697 47.7094 65.0952 47.5182C65.4207 47.327 65.7879 47.113 65.9112 47.0425C66.0346 46.9722 66.397 46.762 66.7165 46.5756C67.0361 46.3891 67.3085 46.2366 67.3219 46.2366C67.3353 46.2366 67.4088 46.1927 67.4853 46.139C67.5617 46.0854 67.7303 45.9818 67.8599 45.909C67.9895 45.8361 68.2486 45.688 68.4358 45.5797C68.623 45.4714 68.8586 45.3356 68.9594 45.2779C69.0602 45.2202 69.661 44.8712 70.2946 44.5022C70.9281 44.1333 71.5289 43.7843 71.6297 43.7267C71.7305 43.669 71.9779 43.5256 72.1795 43.4078C72.3811 43.2901 72.5872 43.1926 72.6377 43.191C72.7245 43.1885 72.7293 43.5461 72.7293 49.9888ZM33.9033 48.3915C34.0049 48.4493 34.1765 48.5467 34.2845 48.6079C34.3925 48.6692 34.9992 49.0211 35.6327 49.39C36.2663 49.759 36.8671 50.108 36.9679 50.1657C37.0687 50.2234 37.3043 50.3593 37.4915 50.4675C37.6787 50.5758 37.9378 50.7239 38.0674 50.7968C38.197 50.8696 38.3656 50.9732 38.442 51.0268C38.5184 51.0805 38.6034 51.1244 38.6307 51.1244C38.6581 51.1244 38.7428 51.1825 38.819 51.2533L38.9575 51.3822V55.8752C38.9575 58.4967 38.9378 60.3805 38.9102 60.3977C38.8841 60.4138 38.7133 60.3413 38.5306 60.2366C38.3479 60.1319 38.0923 59.9866 37.9627 59.9138C37.8331 59.8409 37.6646 59.7374 37.5881 59.6837C37.5117 59.6301 37.4383 59.5861 37.4251 59.5861C37.4119 59.5861 36.9357 59.3141 36.3669 58.9817C35.798 58.6493 35.326 58.3773 35.3178 58.3773C35.3097 58.3773 35.1534 58.2864 34.9705 58.1752C34.7875 58.0641 34.4965 57.8948 34.3237 57.7991C34.1509 57.7033 33.9212 57.5692 33.8132 57.5012L33.6169 57.3774V52.8319C33.6169 49.9316 33.6353 48.2863 33.6677 48.2863C33.6956 48.2863 33.8016 48.3336 33.9033 48.3915ZM64.3088 56.0038L64.3256 57.099L64.4755 57.3158C64.5606 57.439 64.7204 57.5789 64.8453 57.6396C65.0339 57.7312 65.2033 57.7505 66.0306 57.7743C67.1731 57.8072 68.0407 57.8765 69.0238 58.0134C72.3014 58.4697 74.9988 59.5239 77.204 61.2106C78.1896 61.9644 79.3353 63.1999 79.9691 64.1924C80.7133 65.3579 81.2889 66.7498 81.5525 68.0215C81.6621 68.5503 81.7876 69.6894 81.7869 70.1498C81.7862 70.645 81.6584 71.8457 81.5547 72.3312C81.431 72.9108 81.2802 73.4582 81.1047 73.9653C80.9452 74.4261 80.4074 75.5734 80.1338 76.0364C79.9214 76.3961 79.3332 77.2314 79.0427 77.586C78.6275 78.093 77.9777 78.748 77.4416 79.2003C76.902 79.6555 76.1398 80.2132 76.105 80.1783C76.0931 80.1663 76.1916 79.9945 76.3239 79.7965C76.6438 79.3179 77.1335 78.3707 77.3304 77.8497C77.5186 77.3516 77.6691 76.8078 77.7886 76.1942C77.9058 75.5923 77.9069 74.0342 77.7905 73.4086C77.6729 72.7762 77.5074 72.1764 77.3198 71.7034C77.0104 70.9234 76.3652 69.8445 75.8258 69.2053C74.7132 67.8868 73.1985 66.8128 71.3941 66.0629C71.1925 65.9792 70.7449 65.8229 70.3993 65.7156C69.4557 65.4227 69.1635 65.3518 68.3057 65.2077C67.5648 65.0831 66.1245 64.9485 65.5232 64.9476C64.8951 64.9466 64.5992 65.1041 64.3993 65.5458C64.3134 65.7358 64.3016 65.9044 64.3006 66.9573C64.3 67.6149 64.2817 68.1529 64.2602 68.1529C64.2385 68.1529 64.0206 68.0035 63.7758 67.8208C63.3186 67.4795 62.9489 67.2066 61.3418 66.0244C60.831 65.6486 60.0294 65.0573 59.5606 64.7104C59.0918 64.3636 58.4323 63.8787 58.0952 63.633C56.7849 62.6782 55.9465 62.0436 55.9099 61.9791C55.8839 61.9332 56.4599 61.4198 57.7163 60.369C58.7309 59.5204 59.5727 58.8138 59.5871 58.7988C59.622 58.7625 60.2109 58.2674 62.3098 56.51C63.2745 55.7023 64.095 55.0116 64.133 54.975C64.1711 54.9384 64.2224 54.9085 64.247 54.9085C64.2717 54.9085 64.2994 55.4014 64.3088 56.0038Z" fill="url(#paint2_linear_2021_116250)" fill-opacity="0.6"/>
<path fill-rule="evenodd" clip-rule="evenodd" d="M48.219 26.2276C48.0352 26.3227 47.496 26.6273 47.0209 26.9045C46.5457 27.1817 46.0745 27.4558 45.9737 27.5135C45.8729 27.5713 45.6373 27.7071 45.4501 27.8154C45.2629 27.9237 45.0037 28.0718 44.8741 28.1447C44.7445 28.2175 44.576 28.3211 44.4996 28.3747C44.4231 28.4284 44.3495 28.4723 44.336 28.4723C44.3225 28.4723 43.902 28.7113 43.4016 29.0034C42.9012 29.2954 42.3975 29.5882 42.2823 29.6539C42.0283 29.7987 41.4506 30.1327 41.2352 30.2593C41.0505 30.3677 40.4758 30.7002 40.2142 30.8501C40.1134 30.9078 39.5125 31.2568 38.879 31.6257C38.2454 31.9947 37.6446 32.3437 37.5438 32.4014C37.443 32.4591 37.2074 32.5949 37.0202 32.7032C36.8331 32.8114 36.5974 32.947 36.4966 33.0046C36.3959 33.0621 35.9364 33.3284 35.4756 33.5963C35.0149 33.8641 34.5554 34.1306 34.4546 34.1883C34.3538 34.246 34.1241 34.3789 33.9441 34.4837C33.7642 34.5884 33.4697 34.7597 33.2896 34.8644C33.1097 34.9692 32.8892 35.0969 32.7997 35.1484C32.7102 35.1998 32.1565 35.5202 31.5693 35.8602C30.982 36.2002 30.3601 36.5601 30.1874 36.66C30.0146 36.76 29.8025 36.8833 29.7161 36.934C29.3711 37.1367 28.9109 37.4033 28.538 37.6166C28.322 37.7402 27.7094 38.0957 27.1767 38.4066C26.6439 38.7174 26.1256 39.0189 26.0248 39.0764C25.924 39.134 25.6884 39.2696 25.5012 39.3779C25.314 39.4862 25.0784 39.6219 24.9776 39.6796C23.7706 40.3707 23.3048 40.6522 23.1823 40.7649C22.8589 41.0625 22.8832 39.8295 22.8832 55.9415C22.8832 65.7293 22.9008 70.6757 22.9356 70.6757C22.9644 70.6757 22.9879 70.7065 22.9879 70.7442C22.9879 70.7819 23.0645 70.8862 23.1581 70.9759C23.316 71.1274 23.4871 71.2386 24.0903 71.5814C24.2183 71.6543 24.4704 71.7996 24.6504 71.9043C24.8304 72.009 25.1249 72.1804 25.3048 72.2851C25.4849 72.3899 25.7381 72.5351 25.8677 72.608C25.9973 72.6808 26.1658 72.7844 26.2423 72.838C26.3187 72.8917 26.3925 72.9356 26.4063 72.9356C26.42 72.9356 26.7549 73.1248 27.1505 73.3561C27.5461 73.5873 27.8783 73.7765 27.8887 73.7765C27.8991 73.7765 28.0318 73.8555 28.1836 73.952C28.3353 74.0485 28.6244 74.2172 28.826 74.3269C29.0276 74.4367 29.255 74.5706 29.3315 74.6245C29.4079 74.6784 29.4812 74.7226 29.4943 74.7226C29.5074 74.7226 29.9161 74.955 30.4025 75.2392C30.8889 75.5233 31.3929 75.8163 31.5225 75.8902C32.063 76.1987 34.1815 77.4261 35.0568 77.9378C35.5751 78.2409 36.1053 78.5491 36.2349 78.6227C36.3644 78.6963 36.6236 78.8451 36.8108 78.9534C36.998 79.0616 37.2336 79.1975 37.3344 79.2553C37.4352 79.313 37.8946 79.5794 38.3554 79.8473C38.8162 80.1151 39.2756 80.3814 39.3764 80.4389C39.4772 80.4965 39.7128 80.6321 39.9 80.7404C40.0872 80.8487 40.3464 80.9968 40.476 81.0697C40.6055 81.1425 40.7741 81.2461 40.8505 81.2997C40.927 81.3534 41.004 81.3973 41.0219 81.3973C41.0396 81.3973 41.142 81.4531 41.2494 81.5213C41.4143 81.626 43.5108 82.8442 44.0887 83.1711C44.1895 83.2281 44.5665 83.4459 44.9265 83.6552C45.2865 83.8644 45.6635 84.0833 45.7642 84.1414C45.865 84.1997 46.3245 84.4665 46.7852 84.7343C47.246 85.0022 47.7172 85.2761 47.8324 85.343C48.3433 85.6398 48.5119 85.707 48.7445 85.7067C48.8764 85.7065 49.0453 85.6744 49.1199 85.6354C49.437 85.4692 49.9832 85.1653 50.0315 85.1279C50.0603 85.1057 50.1689 85.04 50.2727 84.9819C50.6033 84.7971 52.5289 83.6817 52.9549 83.4282C53.1805 83.2941 53.3733 83.1843 53.3834 83.1843C53.3935 83.1843 53.5153 83.1155 53.654 83.0314C53.8708 82.8999 56.546 81.3437 57.0739 81.0419C57.1746 80.9843 57.4103 80.8486 57.5974 80.7404C57.7846 80.6321 58.0202 80.4963 58.121 80.4385C58.2218 80.3808 58.6813 80.1144 59.142 79.8465C59.6028 79.5786 60.0623 79.3119 60.1631 79.2536C60.2638 79.1954 60.6408 78.9766 61.0008 78.7673C61.3608 78.558 61.7566 78.3296 61.8804 78.2597C62.0042 78.1898 62.7319 77.7674 63.4974 77.321C64.263 76.8747 64.8975 76.5095 64.9075 76.5095C64.9175 76.5095 65.0546 76.4267 65.2122 76.3256C65.3698 76.2244 65.5096 76.1416 65.5231 76.1416C65.5365 76.1416 66.0941 75.8223 66.7623 75.4321C67.4304 75.0419 67.9883 74.7226 68.002 74.7226C68.0157 74.7226 68.0895 74.6786 68.166 74.625C68.2424 74.5713 68.411 74.4678 68.5405 74.3949C68.6701 74.3221 68.9293 74.1739 69.1165 74.0656C69.3037 73.9573 69.5629 73.8091 69.6924 73.7363C69.822 73.6634 69.9906 73.5599 70.067 73.5062C70.1435 73.4526 70.2186 73.4086 70.2338 73.4086C70.2491 73.4086 70.8066 73.0894 71.4727 72.6991C72.1387 72.3089 72.6935 71.9896 72.7055 71.9896C72.7175 71.9896 72.8562 71.9068 73.0138 71.8057C73.1713 71.7045 73.3109 71.6217 73.324 71.6217C73.3371 71.6217 73.5448 71.5053 73.7856 71.363C74.0264 71.2208 74.303 71.0166 74.4002 70.9093L74.5771 70.7143L74.6763 70.8395C74.8923 71.1121 75.1295 71.5134 75.3559 71.9896C75.8061 72.9364 75.9756 73.7074 75.9756 74.8088C75.9756 75.2582 75.9434 75.7255 75.894 75.9913C75.6973 77.052 75.182 78.1892 74.4778 79.1169C74.1082 79.6038 73.5569 80.1858 73.1004 80.5711C72.8531 80.7798 72.6183 80.9814 72.5788 81.0191C72.3653 81.2223 71.0589 82.0335 70.3873 82.38C69.9619 82.5995 69.5596 82.8147 69.4931 82.8583C69.3054 82.9814 69.1689 83.3007 69.1691 83.6158C69.1693 83.9426 69.2799 84.1547 69.5631 84.3715C69.7318 84.5007 69.8016 84.5195 70.1042 84.5173C70.8104 84.5122 73.1248 83.8308 74.5357 83.2126C75.5713 82.7589 76.7614 82.0739 77.8401 81.3106C78.6421 80.743 79.7613 79.6914 80.4885 78.822C80.9952 78.2163 81.7869 77.0339 82.1476 76.3441C82.4528 75.7604 82.8631 74.7797 83.0569 74.1703C83.2362 73.6065 83.3863 72.9672 83.4888 72.3312C83.5354 72.0422 83.5976 71.6874 83.6269 71.5429C83.6913 71.2267 83.656 69.0786 83.5777 68.5471C83.5082 68.0749 83.3163 67.1143 83.2574 66.9441C83.2325 66.8719 83.1594 66.6353 83.0951 66.4185C82.8471 65.5824 82.3064 64.3611 81.8555 63.6188C81.5567 63.1271 81.0781 62.4459 80.7206 62.0038C80.3447 61.5389 79.3897 60.5644 78.9077 60.1538C78.7205 59.9944 78.3435 59.7 78.0699 59.4997C77.1876 58.8534 76.5486 58.4759 75.3603 57.8987L74.6142 57.5363L74.6131 49.4031C74.612 41.6083 74.6079 41.2612 74.5153 41.0597C74.4621 40.9441 74.3625 40.8003 74.2939 40.7402C74.1898 40.6489 73.6651 40.3353 72.5198 39.6796C72.4191 39.6219 72.1834 39.4862 71.9963 39.3779C71.8091 39.2696 71.5735 39.1338 71.4727 39.0761C71.3719 39.0184 70.9124 38.7519 70.4517 38.4841C69.9909 38.2162 69.5314 37.9499 69.4307 37.8924C69.0187 37.6572 68.5967 37.4109 68.209 37.1791C67.9834 37.0443 67.7922 36.934 67.784 36.934C67.7758 36.934 67.1428 36.5688 66.3772 36.1225C65.6116 35.6762 64.8839 35.2537 64.7601 35.1836C64.6363 35.1136 64.4526 35.0084 64.3518 34.9499C64.251 34.8914 63.497 34.4533 62.6763 33.9765C61.8556 33.4997 61.1016 33.0623 61.0008 33.0047C60.9 32.9471 60.6762 32.8177 60.5034 32.7172C60.3306 32.6167 59.8712 32.3509 59.4824 32.1265C59.0936 31.9021 58.481 31.5466 58.121 31.3365C57.7611 31.1263 57.3782 30.9044 57.2702 30.8433C56.7975 30.576 56.7025 30.5203 56.5024 30.3935C56.3859 30.3196 56.2814 30.2593 56.2703 30.2593C56.2592 30.2593 55.6237 29.8941 54.8581 29.4477C54.0926 29.0014 53.3649 28.5786 53.2411 28.5082C53.1173 28.4378 52.8688 28.2945 52.6888 28.1897C51.838 27.6947 51.6948 27.6115 51.5238 27.5135C51.423 27.4558 50.9517 27.1817 50.4766 26.9045C49.2563 26.1926 48.976 26.0547 48.7487 26.0547C48.6302 26.0547 48.4215 26.1228 48.219 26.2276ZM49.4479 28.5216C49.6825 28.6598 49.9923 28.8379 50.1362 28.9174C50.2802 28.9969 51.1402 29.4941 52.0474 30.0223C52.9545 30.5504 53.7791 31.0297 53.8799 31.0875C54.1247 31.2276 54.6823 31.5505 55.0057 31.7393C55.1496 31.8234 55.344 31.9312 55.4376 31.9789C55.5312 32.0266 55.6078 32.084 55.6078 32.1064C55.6078 32.1288 55.5784 32.173 55.5423 32.2046C55.485 32.2548 52.8387 33.8007 52.1215 34.2029C51.9751 34.285 51.2839 34.6851 50.5854 35.0921C49.887 35.4991 49.2174 35.8879 49.0975 35.9561C48.8449 36.0999 48.5805 36.2527 47.3612 36.9597C45.9441 37.7814 45.1336 38.2512 44.7956 38.4469C44.6228 38.5469 44.4108 38.6697 44.3244 38.7197C44.238 38.7697 43.7785 39.0358 43.3034 39.3111C42.8282 39.5863 42.1713 39.9681 41.8436 40.1596C41.5159 40.3512 41.2368 40.5079 41.2234 40.5079C41.2099 40.5079 41.1364 40.5518 41.06 40.6055C40.9835 40.6592 40.815 40.7621 40.6854 40.8343C40.463 40.958 40.0814 41.1787 37.6747 42.5756C36.4628 43.2791 36.1065 43.4853 35.8683 43.6209C35.6313 43.756 33.401 45.0498 33.0933 45.2308C32.9637 45.307 32.8134 45.3875 32.7594 45.4096C32.662 45.4495 32.4125 45.3303 31.6796 44.894C31.4269 44.7435 29.348 43.5373 28.8522 43.2535C28.7514 43.1958 28.5158 43.06 28.3286 42.9517C28.1414 42.8435 27.8822 42.695 27.7526 42.6217C27.6231 42.5485 27.3521 42.3898 27.1505 42.269C26.9489 42.1481 26.5649 41.9248 26.2971 41.7725C26.0293 41.6202 25.8185 41.4706 25.8288 41.4399C25.8446 41.3921 26.4228 41.0379 27.2842 40.5481C27.4123 40.4753 27.6643 40.33 27.8443 40.2253C28.7061 39.7238 28.8384 39.647 29.0093 39.5495C29.1101 39.492 29.5695 39.2257 30.0303 38.9578C30.491 38.69 30.9505 38.4235 31.0513 38.3658C31.1521 38.3081 31.3877 38.1722 31.5749 38.0639C31.7621 37.9557 32.0212 37.8077 32.1508 37.7351C32.2804 37.6626 32.41 37.5852 32.4388 37.5633C32.4676 37.5413 32.5736 37.477 32.6744 37.4203C33.0139 37.2294 34.9623 36.1008 35.369 35.8594C35.5908 35.7278 35.7802 35.6201 35.7898 35.6201C35.7994 35.6201 35.9919 35.5102 36.2174 35.376C36.443 35.2417 36.71 35.0854 36.8108 35.0287C37.0067 34.9183 39.124 33.6915 39.6906 33.3601C39.8777 33.2506 40.5728 32.8483 41.2352 32.4661C43.0905 31.3954 43.1595 31.3552 43.3677 31.2236C43.475 31.1557 43.5747 31.1002 43.5892 31.1002C43.6036 31.1002 43.7444 31.0174 43.902 30.9162C44.0595 30.815 44.1998 30.7323 44.2137 30.7323C44.2275 30.7323 44.3524 30.6635 44.4911 30.5795C44.7013 30.4521 46.654 29.3179 47.2827 28.958C47.3835 28.9003 47.6191 28.7645 47.8063 28.6562C47.9934 28.5479 48.2526 28.4002 48.3822 28.3279C48.5118 28.2557 48.639 28.177 48.6649 28.1532C48.7174 28.1047 48.8301 28.1578 49.4479 28.5216ZM58.035 33.4978C58.2695 33.6314 58.5674 33.8009 58.697 33.8746C58.8266 33.9483 59.3449 34.2494 59.8489 34.5437C60.7547 35.0726 61.3282 35.4032 61.7862 35.6604C61.9158 35.7332 62.0807 35.8318 62.1527 35.8795C62.2247 35.9271 62.3675 36.0095 62.4702 36.0626C62.5728 36.1156 62.7024 36.1931 62.7581 36.2347C62.8564 36.3082 62.8547 36.3144 62.7025 36.438C62.6161 36.5082 62.5266 36.5657 62.5036 36.5658C62.4806 36.566 62.3329 36.6489 62.1754 36.7501C62.0178 36.8512 61.8805 36.934 61.8704 36.934C61.8602 36.934 61.4424 37.173 60.942 37.465C60.4416 37.7571 59.9379 38.0498 59.8227 38.1155C59.6182 38.2322 59.0897 38.5373 58.7755 38.7201C57.7433 39.3207 54.4276 41.2425 54.037 41.4665C53.9362 41.5243 53.4768 41.7909 53.016 42.0587C52.5552 42.3266 52.0958 42.5928 51.995 42.6504C51.8942 42.7079 51.6645 42.8406 51.4845 42.9454C51.3045 43.0501 51.01 43.2214 50.83 43.3261C50.65 43.4309 50.4203 43.5636 50.3195 43.6211C50.2187 43.6787 49.5354 44.0752 48.8011 44.5022C48.0667 44.9293 47.3835 45.3253 47.2827 45.3824C47.0086 45.5373 45.8045 46.2357 44.7694 46.8401C44.2655 47.1343 43.7471 47.4353 43.6175 47.5089C43.4879 47.5825 43.2287 47.7313 43.0416 47.8396C42.8544 47.9478 42.6188 48.0837 42.518 48.1415C42.4172 48.1993 41.7869 48.5653 41.1174 48.9549L39.9001 49.6632L39.7037 49.5458C39.5957 49.4812 39.4248 49.3814 39.324 49.324C39.2233 49.2666 38.7638 49.0005 38.303 48.7327C37.8423 48.4648 37.3828 48.1986 37.282 48.141C37.1812 48.0835 36.9456 47.9479 36.7584 47.8396C36.5713 47.7313 36.3356 47.5961 36.2349 47.5389C36.1341 47.4818 35.9691 47.3842 35.8683 47.3221C35.6246 47.1718 35.4839 47.0906 35.0386 46.8431C34.8326 46.7286 34.6642 46.6104 34.6644 46.5803C34.6647 46.5277 34.7296 46.4842 35.2372 46.1961C35.3654 46.1235 35.5892 45.9929 35.7347 45.9061C35.9894 45.754 37.9006 44.6496 38.2769 44.4369C38.3777 44.38 38.4837 44.3154 38.5125 44.2934C38.5413 44.2715 38.6709 44.1941 38.8005 44.1216C38.93 44.049 39.1892 43.901 39.3764 43.7928C39.5636 43.6845 39.7992 43.5487 39.9 43.491C40.1198 43.3652 42.3621 42.0655 42.6227 41.9128C42.796 41.8113 43.2451 41.5505 43.5913 41.3502C43.6777 41.3002 44.2314 40.9799 44.8218 40.6383C46.3443 39.7573 46.5013 39.6667 46.7067 39.5501C46.8075 39.493 47.102 39.3212 47.3612 39.1684C47.791 38.9151 49.9342 37.6702 50.3719 37.4197C50.4727 37.362 50.7083 37.2262 50.8955 37.1179C51.0826 37.0096 51.33 36.8673 51.4452 36.8016C51.5604 36.7359 52.0641 36.4432 52.5645 36.1511C53.0649 35.8591 53.4854 35.6201 53.4989 35.6201C53.5124 35.6201 53.586 35.5761 53.6624 35.5225C53.7389 35.4688 53.9074 35.3653 54.037 35.2924C54.1666 35.2196 54.4258 35.0709 54.613 34.962C54.8002 34.853 55.0122 34.732 55.0842 34.693C55.1562 34.654 55.7335 34.3166 56.367 33.9431C57.0006 33.5696 57.5391 33.262 57.5637 33.2595C57.5884 33.257 57.8004 33.3643 58.035 33.4978ZM65.5678 37.8613C65.9501 38.0823 66.3689 38.3222 66.4985 38.3944C66.6281 38.4666 66.7967 38.5697 66.8731 38.6234C66.9496 38.677 67.0231 38.721 67.0365 38.721C67.0499 38.721 67.3291 38.8777 67.6567 39.0692C68.4766 39.5484 69.9312 40.3905 70.2132 40.5494C71.0024 40.9937 71.6528 41.392 71.669 41.4407C71.685 41.4891 71.4276 41.6483 70.2684 42.307C70.1676 42.3643 70.0616 42.4291 70.0328 42.4511C70.004 42.4731 69.8744 42.5504 69.7448 42.6229C69.6152 42.6955 69.356 42.8435 69.1689 42.9517C68.9817 43.06 68.7461 43.1959 68.6453 43.2536C68.5445 43.3113 68.085 43.5778 67.6243 43.8456C67.1635 44.1135 66.704 44.3798 66.6032 44.4373C66.5025 44.4949 66.2668 44.6305 66.0797 44.7388C65.8925 44.8471 65.6333 44.995 65.5037 45.0676C65.3741 45.1402 65.2445 45.2175 65.2157 45.2395C65.1869 45.2614 65.0784 45.3269 64.9745 45.385C64.8706 45.4431 64.3051 45.7688 63.7179 46.1088C62.2787 46.942 62.0524 47.0729 61.8386 47.1954C61.7378 47.2531 60.9131 47.7324 60.006 48.2605C59.0989 48.7886 58.2742 49.2676 58.1734 49.3251C57.5034 49.707 57.0978 49.9412 56.2885 50.4139C55.7845 50.7082 55.2661 51.0092 55.1366 51.0828C55.007 51.1564 54.7537 51.3023 54.5737 51.407C54.3937 51.5118 54.0992 51.6831 53.9192 51.7879C53.7392 51.8926 53.4907 52.0359 53.3669 52.1064C53.2431 52.1768 52.5154 52.5996 51.7499 53.0459C50.9843 53.4922 50.3497 53.8574 50.3397 53.8574C50.3297 53.8574 50.1926 53.9402 50.035 54.0413C49.8775 54.1425 49.7379 54.2253 49.7248 54.2253C49.7117 54.2253 49.5009 54.3436 49.2562 54.4881C49.0116 54.6326 48.7832 54.7509 48.7487 54.7509C48.7142 54.7509 48.4859 54.6326 48.2412 54.4881C47.9966 54.3436 47.7864 54.2253 47.7741 54.2253C47.7619 54.2253 47.6565 54.1649 47.54 54.0911C47.4235 54.0173 47.2531 53.9144 47.1615 53.8624C47.0697 53.8105 46.5117 53.4884 45.9213 53.1469C45.331 52.8053 44.7066 52.4441 44.5338 52.3443C44.361 52.2444 44.149 52.1212 44.0626 52.0705C43.813 51.9239 43.2461 51.5966 42.9892 51.4507C42.8596 51.3772 42.5808 51.2145 42.3696 51.0893C42.1585 50.9641 41.9624 50.8616 41.9338 50.8616C41.9053 50.8616 41.8896 50.8232 41.8989 50.7763C41.9138 50.701 42.0525 50.6103 42.8321 50.1659C42.9329 50.1084 43.3924 49.8422 43.8531 49.5744C44.3139 49.3065 44.7733 49.0401 44.8741 48.9824C44.9749 48.9246 45.2105 48.7887 45.3977 48.6805C45.5849 48.5722 45.8441 48.4243 45.9737 48.3517C46.1033 48.2791 46.2329 48.2018 46.2617 48.1798C46.2905 48.1578 46.4083 48.0874 46.5235 48.0233C46.7615 47.8907 48.3004 46.9996 51.1573 45.34C52.2372 44.7127 53.2032 44.1522 53.304 44.0945C53.4048 44.0369 53.664 43.8886 53.8799 43.7651C54.0959 43.6416 54.685 43.2997 55.1889 43.0054C55.6929 42.7111 56.2112 42.4101 56.3408 42.3365C56.4704 42.2629 56.7296 42.1141 56.9168 42.0058C57.104 41.8975 57.3631 41.7493 57.4927 41.6764C57.6223 41.6036 57.7909 41.5001 57.8673 41.4464C57.9438 41.3927 58.0173 41.3488 58.0307 41.3488C58.0441 41.3488 58.3233 41.1921 58.6509 41.0006C59.6101 40.44 60.9554 39.6621 61.2102 39.5208C61.3398 39.4489 61.4694 39.3722 61.4982 39.3502C61.527 39.3282 61.6448 39.2571 61.76 39.1921C62.2761 38.901 62.4554 38.7974 63.5664 38.149C64.2144 37.7708 64.7733 37.461 64.8086 37.4605C64.8438 37.46 65.1855 37.6404 65.5678 37.8613ZM25.6059 43.5841C25.9947 43.8083 26.3952 44.0384 26.496 44.0955C26.9189 44.3351 29.0555 45.5753 29.2876 45.7159C29.4263 45.8 29.5496 45.8687 29.5615 45.8687C29.5734 45.8687 29.7121 45.9515 29.8697 46.0527C30.0272 46.1538 30.1686 46.2366 30.1838 46.2366C30.199 46.2366 30.3404 46.3194 30.498 46.4206C30.6555 46.5217 30.7967 46.6045 30.8116 46.6045C30.841 46.6045 31.6364 47.0705 31.6796 47.1131C31.694 47.1272 31.7176 49.6535 31.7319 52.7269L31.7581 58.315L31.9158 58.5105C32.0025 58.6181 32.2381 58.8006 32.4394 58.9161C32.6406 59.0317 32.8878 59.1734 32.9886 59.2311C33.0894 59.2888 33.5488 59.5552 34.0096 59.823C34.4703 60.0909 34.9298 60.3571 35.0306 60.4147C35.1314 60.4722 35.367 60.6079 35.5542 60.7162C35.7414 60.8244 36.0005 60.9726 36.1301 61.0454C36.2597 61.1183 36.4283 61.2218 36.5047 61.2755C36.5812 61.3291 36.6547 61.3731 36.6681 61.3731C36.6815 61.3731 36.9607 61.5298 37.2883 61.7213C39.6457 63.099 39.5586 63.0549 39.9175 63.0549C40.2224 63.0549 40.2649 63.04 40.4733 62.861C40.5975 62.7544 40.7313 62.5896 40.7707 62.4948C40.8297 62.353 40.8425 61.4499 40.8425 57.4067C40.8425 53.1382 40.8525 52.4909 40.9187 52.4909C40.9606 52.4909 41.1197 52.5652 41.2721 52.6559C41.4246 52.7467 41.62 52.8617 41.7064 52.9116C41.7928 52.9614 41.9459 53.05 42.0467 53.1085C43.1592 53.7539 44.6237 54.6022 44.7694 54.6856C44.8702 54.7434 45.1 54.8762 45.2799 54.981C45.4599 55.0857 45.7544 55.257 45.9344 55.3617C46.1144 55.4664 46.3441 55.5993 46.4449 55.657C47.4042 56.2063 47.7334 56.4048 47.7662 56.4539C47.8189 56.533 47.8168 83.0139 47.764 83.0466C47.7408 83.061 47.6289 83.0186 47.5153 82.9522C46.7518 82.5063 44.358 81.1217 44.0005 80.9193C43.9088 80.8673 43.7385 80.7644 43.622 80.6906C43.5055 80.6168 43.3957 80.5564 43.3779 80.5564C43.3602 80.5564 43.2831 80.5125 43.2067 80.4588C43.1303 80.4051 42.9558 80.2987 42.819 80.2223C42.3331 79.9509 42.1146 79.8253 41.2154 79.3005C40.715 79.0084 40.2945 78.7695 40.281 78.7695C40.2676 78.7695 40.1939 78.7255 40.1175 78.6719C40.0411 78.6182 39.8725 78.5147 39.7429 78.4418C39.6133 78.369 39.3542 78.2208 39.167 78.1126C38.9798 78.0043 38.7442 77.8685 38.6434 77.8108C38.0148 77.4509 36.0621 76.3167 35.8518 76.1893C35.7131 76.1052 35.5882 76.0365 35.5744 76.0365C35.5605 76.0365 35.4202 75.9537 35.2627 75.8525C35.1051 75.7514 34.9656 75.6686 34.9525 75.6686C34.9395 75.6686 34.7456 75.5591 34.5216 75.4253C34.2976 75.2916 34.0318 75.1349 33.931 75.0772C33.7597 74.9792 32.2104 74.0829 31.8628 73.8808C31.6093 73.7333 31.0401 73.4043 30.8418 73.2908C30.741 73.2331 30.1402 72.8838 29.5067 72.5146C28.8731 72.1454 28.2723 71.7964 28.1715 71.739C28.0707 71.6816 27.8351 71.546 27.6479 71.4378C27.4607 71.3295 27.2251 71.1939 27.1243 71.1365C26.0559 70.5276 24.839 69.804 24.8082 69.7593C24.7612 69.6909 24.7546 43.2194 24.8016 43.1722C24.8201 43.1537 24.8495 43.1472 24.8671 43.1576C24.8847 43.168 25.2171 43.3599 25.6059 43.5841ZM72.7293 49.9888C72.7293 56.1568 72.7215 56.7923 72.646 56.8214C72.6002 56.8391 72.5472 56.8439 72.5282 56.8322C72.4913 56.8095 71.3775 56.5158 71.1585 56.4711C70.2278 56.2809 69.9173 56.2227 69.5615 56.1714C69.3312 56.1383 69.0013 56.0905 68.8285 56.0653C68.5521 56.0251 67.9162 55.97 66.6163 55.8737L66.2367 55.8456V54.3092C66.2367 53.1074 66.2199 52.7159 66.1594 52.5115C66.0822 52.2506 65.9059 52.0373 65.6633 51.9117C65.4965 51.8253 65.0368 51.8263 64.8728 51.9134C64.7661 51.9702 63.3356 53.1281 63.2523 53.2252C63.2379 53.242 62.4368 53.9161 61.472 54.7232C60.5073 55.5302 59.5639 56.3219 59.3755 56.4825C59.1871 56.643 58.9161 56.8722 58.7733 56.9917C54.6845 60.4165 53.9177 61.0637 53.6819 61.2891C53.3978 61.5606 53.2905 61.8807 53.3654 62.2332C53.4276 62.5259 53.5808 62.6905 54.2246 63.1562C54.4814 63.342 54.9036 63.6515 55.1627 63.844C55.4219 64.0365 56.1288 64.5557 56.7335 64.9978C57.3383 65.4399 57.998 65.9247 58.1996 66.0751C58.4012 66.2256 58.7428 66.4784 58.9588 66.637C59.1748 66.7955 59.5871 67.0997 59.8751 67.3129C60.9576 68.1141 61.1594 68.2626 63.9329 70.2973C64.1489 70.4558 64.4081 70.6494 64.5089 70.7275C64.8464 70.9893 65.0278 71.057 65.3256 71.0322C65.6625 71.0042 65.9224 70.8386 66.09 70.5452C66.2081 70.3384 66.2109 70.2986 66.2269 68.6128C66.2409 67.1369 66.2542 66.8916 66.3206 66.8916C66.4638 66.8916 67.4119 66.9972 67.7552 67.0514C69.535 67.3324 71.2314 67.9409 72.4039 68.719L72.7031 68.9175L72.7182 69.3136C72.7307 69.6405 72.717 69.7242 72.6397 69.793C72.5586 69.8651 71.6309 70.4129 70.8967 70.8222C70.7671 70.8944 70.5986 70.9974 70.5221 71.0511C70.4457 71.1048 70.3722 71.1487 70.3589 71.1487C70.3456 71.1487 69.7084 71.5139 68.9428 71.9602C68.1772 72.4065 67.4495 72.8293 67.3258 72.8997C67.2019 72.9702 66.9475 73.1164 66.7603 73.2246C66.5731 73.3329 66.3375 73.4687 66.2367 73.5264C66.1359 73.5841 65.5351 73.9332 64.9016 74.3021C64.268 74.6711 63.6672 75.0201 63.5664 75.0778C63.4656 75.1355 63.23 75.2713 63.0428 75.3796C62.8556 75.4879 62.5965 75.6366 62.4669 75.7103C62.3373 75.7839 61.8189 76.0849 61.315 76.3791C60.129 77.0716 59.0466 77.6987 58.7494 77.8656C58.6198 77.9384 57.8097 78.409 56.9491 78.9115C56.0885 79.4139 55.2874 79.8798 55.1689 79.9468C54.6481 80.2409 54.4724 80.3421 53.3825 80.9762C51.8871 81.8462 51.2324 82.2255 50.974 82.3716C50.8588 82.4367 50.5407 82.6202 50.2671 82.7792C49.9936 82.9382 49.7521 83.0576 49.7305 83.0444C49.6796 83.0134 49.6805 56.5298 49.7312 56.4546C49.7524 56.4232 50.0878 56.2126 50.4766 55.9865C51.3723 55.4654 52.4899 54.8194 52.728 54.6849C52.8288 54.628 53.6535 54.1494 54.5606 53.6212C55.4677 53.0931 56.3277 52.5953 56.4717 52.515C56.6157 52.4348 57.3108 52.0327 58.0163 51.6214C58.7219 51.2101 59.3816 50.8265 59.4824 50.769C59.6532 50.6713 59.7875 50.5934 60.6474 50.0931C60.8274 49.9884 61.0727 49.8468 61.1925 49.7786C61.3124 49.7104 61.982 49.3216 62.6804 48.9146C63.3789 48.5077 64.0748 48.1052 64.2269 48.0202C64.3789 47.9353 64.7697 47.7094 65.0952 47.5182C65.4207 47.327 65.7879 47.113 65.9112 47.0425C66.0346 46.9722 66.397 46.762 66.7165 46.5756C67.0361 46.3891 67.3085 46.2366 67.3219 46.2366C67.3353 46.2366 67.4088 46.1927 67.4853 46.139C67.5617 46.0854 67.7303 45.9818 67.8599 45.909C67.9895 45.8361 68.2486 45.688 68.4358 45.5797C68.623 45.4714 68.8586 45.3356 68.9594 45.2779C69.0602 45.2202 69.661 44.8712 70.2946 44.5022C70.9281 44.1333 71.5289 43.7843 71.6297 43.7267C71.7305 43.669 71.9779 43.5256 72.1795 43.4078C72.3811 43.2901 72.5872 43.1926 72.6377 43.191C72.7245 43.1885 72.7293 43.5461 72.7293 49.9888ZM33.9033 48.3915C34.0049 48.4493 34.1765 48.5467 34.2845 48.6079C34.3925 48.6692 34.9992 49.0211 35.6327 49.39C36.2663 49.759 36.8671 50.108 36.9679 50.1657C37.0687 50.2234 37.3043 50.3593 37.4915 50.4675C37.6787 50.5758 37.9378 50.7239 38.0674 50.7968C38.197 50.8696 38.3656 50.9732 38.442 51.0268C38.5184 51.0805 38.6034 51.1244 38.6307 51.1244C38.6581 51.1244 38.7428 51.1825 38.819 51.2533L38.9575 51.3822V55.8752C38.9575 58.4967 38.9378 60.3805 38.9102 60.3977C38.8841 60.4138 38.7133 60.3413 38.5306 60.2366C38.3479 60.1319 38.0923 59.9866 37.9627 59.9138C37.8331 59.8409 37.6646 59.7374 37.5881 59.6837C37.5117 59.6301 37.4383 59.5861 37.4251 59.5861C37.4119 59.5861 36.9357 59.3141 36.3669 58.9817C35.798 58.6493 35.326 58.3773 35.3178 58.3773C35.3097 58.3773 35.1534 58.2864 34.9705 58.1752C34.7875 58.0641 34.4965 57.8948 34.3237 57.7991C34.1509 57.7033 33.9212 57.5692 33.8132 57.5012L33.6169 57.3774V52.8319C33.6169 49.9316 33.6353 48.2863 33.6677 48.2863C33.6956 48.2863 33.8016 48.3336 33.9033 48.3915ZM64.3088 56.0038L64.3256 57.099L64.4755 57.3158C64.5606 57.439 64.7204 57.5789 64.8453 57.6396C65.0339 57.7312 65.2033 57.7505 66.0306 57.7743C67.1731 57.8072 68.0407 57.8765 69.0238 58.0134C72.3014 58.4697 74.9988 59.5239 77.204 61.2106C78.1896 61.9644 79.3353 63.1999 79.9691 64.1924C80.7133 65.3579 81.2889 66.7498 81.5525 68.0215C81.6621 68.5503 81.7876 69.6894 81.7869 70.1498C81.7862 70.645 81.6584 71.8457 81.5547 72.3312C81.431 72.9108 81.2802 73.4582 81.1047 73.9653C80.9452 74.4261 80.4074 75.5734 80.1338 76.0364C79.9214 76.3961 79.3332 77.2314 79.0427 77.586C78.6275 78.093 77.9777 78.748 77.4416 79.2003C76.902 79.6555 76.1398 80.2132 76.105 80.1783C76.0931 80.1663 76.1916 79.9945 76.3239 79.7965C76.6438 79.3179 77.1335 78.3707 77.3304 77.8497C77.5186 77.3516 77.6691 76.8078 77.7886 76.1942C77.9058 75.5923 77.9069 74.0342 77.7905 73.4086C77.6729 72.7762 77.5074 72.1764 77.3198 71.7034C77.0104 70.9234 76.3652 69.8445 75.8258 69.2053C74.7132 67.8868 73.1985 66.8128 71.3941 66.0629C71.1925 65.9792 70.7449 65.8229 70.3993 65.7156C69.4557 65.4227 69.1635 65.3518 68.3057 65.2077C67.5648 65.0831 66.1245 64.9485 65.5232 64.9476C64.8951 64.9466 64.5992 65.1041 64.3993 65.5458C64.3134 65.7358 64.3016 65.9044 64.3006 66.9573C64.3 67.6149 64.2817 68.1529 64.2602 68.1529C64.2385 68.1529 64.0206 68.0035 63.7758 67.8208C63.3186 67.4795 62.9489 67.2066 61.3418 66.0244C60.831 65.6486 60.0294 65.0573 59.5606 64.7104C59.0918 64.3636 58.4323 63.8787 58.0952 63.633C56.7849 62.6782 55.9465 62.0436 55.9099 61.9791C55.8839 61.9332 56.4599 61.4198 57.7163 60.369C58.7309 59.5204 59.5727 58.8138 59.5871 58.7988C59.622 58.7625 60.2109 58.2674 62.3098 56.51C63.2745 55.7023 64.095 55.0116 64.133 54.975C64.1711 54.9384 64.2224 54.9085 64.247 54.9085C64.2717 54.9085 64.2994 55.4014 64.3088 56.0038Z" stroke="url(#paint3_linear_2021_116250)" stroke-width="0.936424" mask="url(#path-2-inside-1_2021_116250)"/>
</g>
<rect x="1.01228" y="1.2779" width="104.522" height="109.204" rx="9.4918" stroke="url(#paint4_linear_2021_116250)" stroke-width="0.975442"/>
<defs>
<filter id="filter0_b_2021_116250" x="20.1901" y="23.362" width="66.1628" height="65.0339" filterUnits="userSpaceOnUse" color-interpolation-filters="sRGB">
<feFlood flood-opacity="0" result="BackgroundImageFix"/>
<feGaussianBlur in="BackgroundImageFix" stdDeviation="1.34635"/>
<feComposite in2="SourceAlpha" operator="in" result="effect1_backgroundBlur_2021_116250"/>
<feBlend mode="normal" in="SourceGraphic" in2="effect1_backgroundBlur_2021_116250" result="shape"/>
</filter>
<radialGradient id="paint0_radial_2021_116250" cx="0" cy="0" r="1" gradientUnits="userSpaceOnUse" gradientTransform="translate(24.739 95.629) rotate(-58.4659) scale(30.3748 34.9312)">
<stop stop-color="#6E6FF8"/>
<stop offset="1" stop-color="#6E6FF8" stop-opacity="0"/>
</radialGradient>
<radialGradient id="paint1_radial_2021_116250" cx="0" cy="0" r="1" gradientUnits="userSpaceOnUse" gradientTransform="translate(42.2779 23.5282) rotate(76.7737) scale(40.3921 35.9454)">
<stop stop-color="#DEA4F2"/>
<stop offset="1" stop-opacity="0"/>
</radialGradient>
<linearGradient id="paint2_linear_2021_116250" x1="22.8828" y1="93.253" x2="79.5987" y2="35.1255" gradientUnits="userSpaceOnUse">
<stop stop-color="#686CF8"/>
<stop offset="1" stop-color="#ECABF1"/>
</linearGradient>
<linearGradient id="paint3_linear_2021_116250" x1="83.6603" y1="35.0384" x2="-5.02597" y2="64.555" gradientUnits="userSpaceOnUse">
<stop stop-color="#9A7EBC" stop-opacity="0.7"/>
<stop offset="1" stop-color="#4F569F" stop-opacity="0.46"/>
</linearGradient>
<linearGradient id="paint4_linear_2021_116250" x1="-2.74981" y1="-1.93285" x2="123.49" y2="96.9375" gradientUnits="userSpaceOnUse">
<stop stop-color="#7E84BC" stop-opacity="0.4"/>
<stop offset="0.592787" stop-color="#37384A" stop-opacity="0.3"/>
<stop offset="0.930304" stop-color="#7379B5" stop-opacity="0.4"/>
</linearGradient>
</defs>
</svg>
