<svg width="107" height="111" viewBox="0 0 107 111" fill="none" xmlns="http://www.w3.org/2000/svg">
<rect x="1.20759" y="1.2779" width="104.522" height="109.204" rx="9.4918" fill="#13122C"/>
<rect x="1.20759" y="1.2779" width="104.522" height="109.204" rx="9.4918" fill="url(#paint0_radial_2021_116296)" fill-opacity="0.08"/>
<rect x="1.20759" y="1.2779" width="104.522" height="109.204" rx="9.4918" fill="url(#paint1_radial_2021_116296)" fill-opacity="0.05"/>
<g filter="url(#filter0_b_2021_116296)">
<mask id="path-2-inside-1_2021_116296" fill="white">
<path fill-rule="evenodd" clip-rule="evenodd" d="M24.9503 30.2616C24.7454 30.4212 24.5047 30.7706 24.4155 31.038C24.2872 31.423 24.2977 31.629 24.466 32.0277C24.8944 33.0425 23.7335 32.9794 41.9809 32.9794H58.4077L58.8991 33.4659C59.2309 33.7943 59.3905 34.0863 59.3905 34.3653C59.3905 34.5925 58.4799 42.8856 57.367 52.7943C56.254 62.7031 55.3434 70.8932 55.3434 70.9945C55.3434 71.1404 54.4651 71.1786 51.1098 71.1786H46.8761L46.6263 69.8709C46.05 66.8539 44.053 64.6567 41.1064 63.7979C39.9777 63.4688 37.6897 63.4694 36.4333 63.799C35.2422 64.1115 34.1489 64.5957 33.1442 65.2559C31.2847 66.4775 29.8961 68.0817 28.9574 70.0927L28.4505 71.1786H24.5719C20.9021 71.1786 20.6733 71.1942 20.3228 71.467C20.1191 71.6255 19.8795 71.9742 19.7903 72.2416C19.662 72.6266 19.6725 72.8326 19.8407 73.2313C20.2186 74.1265 20.492 74.183 24.4472 74.183H27.9655L28.2006 75.4151C28.3298 76.0927 28.6421 77.0625 28.8946 77.5703C29.5266 78.8409 30.8231 80.176 32.0363 80.8056C33.3457 81.4851 34.5285 81.7661 36.0684 81.7635C37.6788 81.7609 38.9074 81.4776 40.395 80.766C41.8915 80.0501 43.4033 78.8764 44.3575 77.6895C45.1134 76.7491 46.2375 74.7763 46.2375 74.3899C46.2375 74.2121 47.2932 74.183 53.7535 74.183H61.2695V74.8008C61.2695 75.1407 61.3733 75.7684 61.5001 76.1957C62.1168 78.2739 63.6307 80.0824 65.4817 80.952C66.7883 81.5659 67.7193 81.7656 69.2754 81.7656C70.8046 81.7656 72.3673 81.3729 73.8243 80.6227C75.2483 79.8894 76.4274 78.9508 77.4737 77.7177C78.1715 76.8952 79.0762 75.3422 79.3867 74.4334C79.4605 74.2175 79.6691 74.183 80.8993 74.183C81.6876 74.183 82.6193 74.0957 82.9809 73.988C83.8565 73.7272 84.8937 73.0024 85.4194 72.2841C85.6555 71.9615 85.9414 71.3716 86.0547 70.9731C86.3747 69.8475 87.3278 60.5298 87.2262 59.5185C87.1136 58.3959 86.6693 57.0947 86.0898 56.1901C85.8337 55.7903 83.2946 52.8865 80.4472 49.737C74.9768 43.6862 74.5363 43.2795 72.6902 42.5749C71.7604 42.22 71.6851 42.2149 66.7258 42.1657C63.0171 42.1289 61.7031 42.0721 61.7031 41.9486C61.7031 41.8567 61.8709 40.332 62.0762 38.5607C62.5107 34.8087 62.4978 33.495 62.0171 32.5223C61.594 31.6665 60.72 30.8004 59.8523 30.3774L59.1737 30.0465L42.2483 30.009C25.4357 29.9717 25.3203 29.9734 24.9503 30.2616ZM27.87 39.5495C27.5626 39.8538 27.4475 40.1054 27.4475 40.4728C27.4475 41.1538 27.6791 41.6113 28.1688 41.8976C28.4934 42.0874 28.9634 42.1358 30.4828 42.1358C32.0022 42.1358 32.4723 42.0874 32.7969 41.8976C33.2866 41.6113 33.5181 41.1538 33.5181 40.4728C33.5181 40.1054 33.4031 39.8538 33.0956 39.5495L32.6732 39.1314H30.4828H28.2925L27.87 39.5495ZM37.1205 39.5495C36.813 39.8538 36.698 40.1054 36.698 40.4728C36.698 41.1538 36.9295 41.6113 37.4192 41.8976C37.7809 42.109 38.47 42.1358 43.5569 42.1358C49.9494 42.1358 49.9751 42.1322 50.3754 41.1841C50.5436 40.7854 50.5542 40.5793 50.4258 40.1943C50.3366 39.927 50.097 39.5783 49.8933 39.4198C49.5354 39.1411 49.3195 39.1314 43.5329 39.1314H37.5429L37.1205 39.5495ZM71.9654 45.581C72.4026 45.784 72.9898 46.1703 73.2704 46.4394C73.5509 46.7084 75.8925 49.2614 78.4738 52.1128C83.7464 57.9369 84.1208 58.4601 84.1367 60.0263C84.1505 61.3979 83.2342 69.7453 83.0098 70.2896C82.7583 70.9002 82.0846 71.1786 80.8591 71.1786H79.915V70.7079C79.915 70.0006 79.5276 68.6387 79.0501 67.6667C78.5044 66.5565 77.3318 65.3084 76.2292 64.6644C74.8727 63.8721 73.7167 63.5667 72.0376 63.5566C70.3195 63.5465 69.192 63.804 67.5569 64.58C65.4507 65.5798 63.8826 66.995 62.6838 68.9782C62.4041 69.4409 62.0594 70.1273 61.9178 70.5035L61.6603 71.1876L60.0557 71.1473L58.451 71.1071L58.4843 70.6779C58.571 69.5611 61.2886 45.4744 61.3467 45.3089C61.4002 45.1561 62.3466 45.1286 66.2916 45.1658L71.1704 45.2117L71.9654 45.581ZM24.948 48.5761C24.7444 48.7347 24.5047 49.0833 24.4155 49.3507C24.2872 49.7357 24.2977 49.9417 24.466 50.3404C24.8662 51.2886 24.8919 51.2921 31.2844 51.2921C36.3713 51.2921 37.0605 51.2654 37.4221 51.0539C37.9118 50.7676 38.1434 50.3101 38.1434 49.6291C38.1434 49.2617 38.0283 49.0102 37.7209 48.7059L37.2984 48.2877H31.3084C25.5218 48.2877 25.3059 48.2974 24.948 48.5761ZM41.7457 48.7059C41.4383 49.0102 41.3232 49.2617 41.3232 49.6291C41.3232 50.3101 41.5548 50.7676 42.0445 51.0539C42.3691 51.2438 42.8391 51.2921 44.3585 51.2921C45.8779 51.2921 46.3479 51.2438 46.6726 51.0539C47.1623 50.7676 47.3938 50.3101 47.3938 49.6291C47.3938 49.2617 47.2788 49.0102 46.9713 48.7059L46.5489 48.2877H44.3585H42.1682L41.7457 48.7059ZM65.0608 48.5096C64.8847 48.6316 64.6737 48.8555 64.5917 49.0071C64.5098 49.1586 64.255 51.489 64.0256 54.1858C63.6673 58.3963 63.6355 59.1533 63.8007 59.5446C64.1844 60.4536 64.1387 60.4485 71.7552 60.4485C77.9209 60.4485 78.6845 60.4236 79.0492 60.2103C79.5379 59.9246 79.7704 59.4666 79.7704 58.7903C79.7704 58.4002 79.6333 58.1422 79.1466 57.6167C78.8035 57.2463 76.7571 55.0358 74.5991 52.7045C72.4412 50.3731 70.5701 48.4256 70.4413 48.3767C70.3126 48.3278 69.1213 48.2877 67.7941 48.2877C65.8475 48.2877 65.319 48.3306 65.0608 48.5096ZM71.9496 54.3355L74.7522 57.3725L70.8799 57.4107C68.7502 57.4316 66.9749 57.4163 66.9348 57.3767C66.8699 57.3124 67.0557 54.62 67.2929 52.1863L67.38 51.2921L68.2634 51.2953L69.1469 51.2983L71.9496 54.3355ZM22.0055 57.6123C21.8345 57.6943 21.5814 57.9693 21.4431 58.2236C21.1202 58.8169 21.2477 59.5632 21.7521 60.0322L22.1229 60.377H32.7954H43.468L43.8388 60.0322C44.3428 59.5636 44.4707 58.8169 44.1485 58.2249C44.0106 57.9713 43.7382 57.6919 43.5432 57.604C43.0643 57.388 22.457 57.396 22.0055 57.6123ZM40.6917 66.9059C41.7701 67.3052 42.7088 68.1732 43.2239 69.2472C43.5774 69.9843 43.6352 70.2775 43.6326 71.3217C43.629 72.844 43.2156 74.0846 42.2798 75.3829C41.4328 76.5578 40.5024 77.3444 39.2274 77.9635C37.3306 78.8845 35.4532 78.9801 33.7884 78.2406C32.8618 77.829 32.1223 77.1183 31.6195 76.1566C31.3836 75.7056 31.2814 75.2121 31.2347 74.3005C31.1844 73.3189 31.2343 72.8531 31.4725 72.0769C31.6381 71.537 32.0242 70.7115 32.3303 70.2426C33.3685 68.6527 35.21 67.2933 36.9871 66.8049C37.3448 66.7064 38.1392 66.6203 38.7522 66.6131C39.5616 66.6038 40.0929 66.6841 40.6917 66.9059ZM74.3937 67.1664C74.8947 67.4322 75.4743 67.8481 75.6816 68.0908C76.255 68.7615 76.7249 69.8923 76.8214 70.8332C76.9314 71.9064 76.6023 73.3469 75.9779 74.526C75.3792 75.656 73.7426 77.276 72.6009 77.8686C70.0917 79.1708 67.2618 78.9698 65.6505 77.3749C64.8263 76.5591 64.4177 75.6063 64.3376 74.3139C64.2594 73.0515 64.5138 72.0051 65.221 70.6801C65.7675 69.6559 67.1359 68.2385 68.1351 67.6615C68.5326 67.4321 69.2806 67.0974 69.7973 66.918C70.5761 66.6476 70.9717 66.5996 72.1099 66.6376C73.3471 66.6788 73.5732 66.7312 74.3937 67.1664ZM21.2072 79.0061C20.7356 79.2957 20.5097 79.7551 20.5097 80.4242C20.5097 80.7916 20.6247 81.0431 20.9322 81.3474L21.3546 81.7656H23.8757C26.1844 81.7656 26.4279 81.7413 26.7672 81.4772C26.9708 81.3187 27.2105 80.97 27.2997 80.7026C27.428 80.3176 27.4175 80.1116 27.2492 79.7129C26.8962 78.8769 26.4829 78.7606 23.8774 78.7651C22.0067 78.7681 21.5238 78.8117 21.2072 79.0061ZM51.2712 79.0026C50.799 79.2968 50.5737 79.7562 50.5737 80.4242C50.5737 80.7916 50.6887 81.0431 50.9962 81.3474L51.4186 81.7656H55.3978C58.0219 81.7656 59.4976 81.7111 59.7315 81.6057C59.9265 81.5178 60.1989 81.2384 60.3368 80.9848C60.6588 80.3929 60.5311 79.6462 60.0273 79.1775L59.6568 78.8327L55.6572 78.7973C52.1175 78.7658 51.6133 78.7894 51.2712 79.0026Z"/>
</mask>
<path fill-rule="evenodd" clip-rule="evenodd" d="M24.9503 30.2616C24.7454 30.4212 24.5047 30.7706 24.4155 31.038C24.2872 31.423 24.2977 31.629 24.466 32.0277C24.8944 33.0425 23.7335 32.9794 41.9809 32.9794H58.4077L58.8991 33.4659C59.2309 33.7943 59.3905 34.0863 59.3905 34.3653C59.3905 34.5925 58.4799 42.8856 57.367 52.7943C56.254 62.7031 55.3434 70.8932 55.3434 70.9945C55.3434 71.1404 54.4651 71.1786 51.1098 71.1786H46.8761L46.6263 69.8709C46.05 66.8539 44.053 64.6567 41.1064 63.7979C39.9777 63.4688 37.6897 63.4694 36.4333 63.799C35.2422 64.1115 34.1489 64.5957 33.1442 65.2559C31.2847 66.4775 29.8961 68.0817 28.9574 70.0927L28.4505 71.1786H24.5719C20.9021 71.1786 20.6733 71.1942 20.3228 71.467C20.1191 71.6255 19.8795 71.9742 19.7903 72.2416C19.662 72.6266 19.6725 72.8326 19.8407 73.2313C20.2186 74.1265 20.492 74.183 24.4472 74.183H27.9655L28.2006 75.4151C28.3298 76.0927 28.6421 77.0625 28.8946 77.5703C29.5266 78.8409 30.8231 80.176 32.0363 80.8056C33.3457 81.4851 34.5285 81.7661 36.0684 81.7635C37.6788 81.7609 38.9074 81.4776 40.395 80.766C41.8915 80.0501 43.4033 78.8764 44.3575 77.6895C45.1134 76.7491 46.2375 74.7763 46.2375 74.3899C46.2375 74.2121 47.2932 74.183 53.7535 74.183H61.2695V74.8008C61.2695 75.1407 61.3733 75.7684 61.5001 76.1957C62.1168 78.2739 63.6307 80.0824 65.4817 80.952C66.7883 81.5659 67.7193 81.7656 69.2754 81.7656C70.8046 81.7656 72.3673 81.3729 73.8243 80.6227C75.2483 79.8894 76.4274 78.9508 77.4737 77.7177C78.1715 76.8952 79.0762 75.3422 79.3867 74.4334C79.4605 74.2175 79.6691 74.183 80.8993 74.183C81.6876 74.183 82.6193 74.0957 82.9809 73.988C83.8565 73.7272 84.8937 73.0024 85.4194 72.2841C85.6555 71.9615 85.9414 71.3716 86.0547 70.9731C86.3747 69.8475 87.3278 60.5298 87.2262 59.5185C87.1136 58.3959 86.6693 57.0947 86.0898 56.1901C85.8337 55.7903 83.2946 52.8865 80.4472 49.737C74.9768 43.6862 74.5363 43.2795 72.6902 42.5749C71.7604 42.22 71.6851 42.2149 66.7258 42.1657C63.0171 42.1289 61.7031 42.0721 61.7031 41.9486C61.7031 41.8567 61.8709 40.332 62.0762 38.5607C62.5107 34.8087 62.4978 33.495 62.0171 32.5223C61.594 31.6665 60.72 30.8004 59.8523 30.3774L59.1737 30.0465L42.2483 30.009C25.4357 29.9717 25.3203 29.9734 24.9503 30.2616ZM27.87 39.5495C27.5626 39.8538 27.4475 40.1054 27.4475 40.4728C27.4475 41.1538 27.6791 41.6113 28.1688 41.8976C28.4934 42.0874 28.9634 42.1358 30.4828 42.1358C32.0022 42.1358 32.4723 42.0874 32.7969 41.8976C33.2866 41.6113 33.5181 41.1538 33.5181 40.4728C33.5181 40.1054 33.4031 39.8538 33.0956 39.5495L32.6732 39.1314H30.4828H28.2925L27.87 39.5495ZM37.1205 39.5495C36.813 39.8538 36.698 40.1054 36.698 40.4728C36.698 41.1538 36.9295 41.6113 37.4192 41.8976C37.7809 42.109 38.47 42.1358 43.5569 42.1358C49.9494 42.1358 49.9751 42.1322 50.3754 41.1841C50.5436 40.7854 50.5542 40.5793 50.4258 40.1943C50.3366 39.927 50.097 39.5783 49.8933 39.4198C49.5354 39.1411 49.3195 39.1314 43.5329 39.1314H37.5429L37.1205 39.5495ZM71.9654 45.581C72.4026 45.784 72.9898 46.1703 73.2704 46.4394C73.5509 46.7084 75.8925 49.2614 78.4738 52.1128C83.7464 57.9369 84.1208 58.4601 84.1367 60.0263C84.1505 61.3979 83.2342 69.7453 83.0098 70.2896C82.7583 70.9002 82.0846 71.1786 80.8591 71.1786H79.915V70.7079C79.915 70.0006 79.5276 68.6387 79.0501 67.6667C78.5044 66.5565 77.3318 65.3084 76.2292 64.6644C74.8727 63.8721 73.7167 63.5667 72.0376 63.5566C70.3195 63.5465 69.192 63.804 67.5569 64.58C65.4507 65.5798 63.8826 66.995 62.6838 68.9782C62.4041 69.4409 62.0594 70.1273 61.9178 70.5035L61.6603 71.1876L60.0557 71.1473L58.451 71.1071L58.4843 70.6779C58.571 69.5611 61.2886 45.4744 61.3467 45.3089C61.4002 45.1561 62.3466 45.1286 66.2916 45.1658L71.1704 45.2117L71.9654 45.581ZM24.948 48.5761C24.7444 48.7347 24.5047 49.0833 24.4155 49.3507C24.2872 49.7357 24.2977 49.9417 24.466 50.3404C24.8662 51.2886 24.8919 51.2921 31.2844 51.2921C36.3713 51.2921 37.0605 51.2654 37.4221 51.0539C37.9118 50.7676 38.1434 50.3101 38.1434 49.6291C38.1434 49.2617 38.0283 49.0102 37.7209 48.7059L37.2984 48.2877H31.3084C25.5218 48.2877 25.3059 48.2974 24.948 48.5761ZM41.7457 48.7059C41.4383 49.0102 41.3232 49.2617 41.3232 49.6291C41.3232 50.3101 41.5548 50.7676 42.0445 51.0539C42.3691 51.2438 42.8391 51.2921 44.3585 51.2921C45.8779 51.2921 46.3479 51.2438 46.6726 51.0539C47.1623 50.7676 47.3938 50.3101 47.3938 49.6291C47.3938 49.2617 47.2788 49.0102 46.9713 48.7059L46.5489 48.2877H44.3585H42.1682L41.7457 48.7059ZM65.0608 48.5096C64.8847 48.6316 64.6737 48.8555 64.5917 49.0071C64.5098 49.1586 64.255 51.489 64.0256 54.1858C63.6673 58.3963 63.6355 59.1533 63.8007 59.5446C64.1844 60.4536 64.1387 60.4485 71.7552 60.4485C77.9209 60.4485 78.6845 60.4236 79.0492 60.2103C79.5379 59.9246 79.7704 59.4666 79.7704 58.7903C79.7704 58.4002 79.6333 58.1422 79.1466 57.6167C78.8035 57.2463 76.7571 55.0358 74.5991 52.7045C72.4412 50.3731 70.5701 48.4256 70.4413 48.3767C70.3126 48.3278 69.1213 48.2877 67.7941 48.2877C65.8475 48.2877 65.319 48.3306 65.0608 48.5096ZM71.9496 54.3355L74.7522 57.3725L70.8799 57.4107C68.7502 57.4316 66.9749 57.4163 66.9348 57.3767C66.8699 57.3124 67.0557 54.62 67.2929 52.1863L67.38 51.2921L68.2634 51.2953L69.1469 51.2983L71.9496 54.3355ZM22.0055 57.6123C21.8345 57.6943 21.5814 57.9693 21.4431 58.2236C21.1202 58.8169 21.2477 59.5632 21.7521 60.0322L22.1229 60.377H32.7954H43.468L43.8388 60.0322C44.3428 59.5636 44.4707 58.8169 44.1485 58.2249C44.0106 57.9713 43.7382 57.6919 43.5432 57.604C43.0643 57.388 22.457 57.396 22.0055 57.6123ZM40.6917 66.9059C41.7701 67.3052 42.7088 68.1732 43.2239 69.2472C43.5774 69.9843 43.6352 70.2775 43.6326 71.3217C43.629 72.844 43.2156 74.0846 42.2798 75.3829C41.4328 76.5578 40.5024 77.3444 39.2274 77.9635C37.3306 78.8845 35.4532 78.9801 33.7884 78.2406C32.8618 77.829 32.1223 77.1183 31.6195 76.1566C31.3836 75.7056 31.2814 75.2121 31.2347 74.3005C31.1844 73.3189 31.2343 72.8531 31.4725 72.0769C31.6381 71.537 32.0242 70.7115 32.3303 70.2426C33.3685 68.6527 35.21 67.2933 36.9871 66.8049C37.3448 66.7064 38.1392 66.6203 38.7522 66.6131C39.5616 66.6038 40.0929 66.6841 40.6917 66.9059ZM74.3937 67.1664C74.8947 67.4322 75.4743 67.8481 75.6816 68.0908C76.255 68.7615 76.7249 69.8923 76.8214 70.8332C76.9314 71.9064 76.6023 73.3469 75.9779 74.526C75.3792 75.656 73.7426 77.276 72.6009 77.8686C70.0917 79.1708 67.2618 78.9698 65.6505 77.3749C64.8263 76.5591 64.4177 75.6063 64.3376 74.3139C64.2594 73.0515 64.5138 72.0051 65.221 70.6801C65.7675 69.6559 67.1359 68.2385 68.1351 67.6615C68.5326 67.4321 69.2806 67.0974 69.7973 66.918C70.5761 66.6476 70.9717 66.5996 72.1099 66.6376C73.3471 66.6788 73.5732 66.7312 74.3937 67.1664ZM21.2072 79.0061C20.7356 79.2957 20.5097 79.7551 20.5097 80.4242C20.5097 80.7916 20.6247 81.0431 20.9322 81.3474L21.3546 81.7656H23.8757C26.1844 81.7656 26.4279 81.7413 26.7672 81.4772C26.9708 81.3187 27.2105 80.97 27.2997 80.7026C27.428 80.3176 27.4175 80.1116 27.2492 79.7129C26.8962 78.8769 26.4829 78.7606 23.8774 78.7651C22.0067 78.7681 21.5238 78.8117 21.2072 79.0061ZM51.2712 79.0026C50.799 79.2968 50.5737 79.7562 50.5737 80.4242C50.5737 80.7916 50.6887 81.0431 50.9962 81.3474L51.4186 81.7656H55.3978C58.0219 81.7656 59.4976 81.7111 59.7315 81.6057C59.9265 81.5178 60.1989 81.2384 60.3368 80.9848C60.6588 80.3929 60.5311 79.6462 60.0273 79.1775L59.6568 78.8327L55.6572 78.7973C52.1175 78.7658 51.6133 78.7894 51.2712 79.0026Z" fill="url(#paint2_linear_2021_116296)" fill-opacity="0.6"/>
<path fill-rule="evenodd" clip-rule="evenodd" d="M24.9503 30.2616C24.7454 30.4212 24.5047 30.7706 24.4155 31.038C24.2872 31.423 24.2977 31.629 24.466 32.0277C24.8944 33.0425 23.7335 32.9794 41.9809 32.9794H58.4077L58.8991 33.4659C59.2309 33.7943 59.3905 34.0863 59.3905 34.3653C59.3905 34.5925 58.4799 42.8856 57.367 52.7943C56.254 62.7031 55.3434 70.8932 55.3434 70.9945C55.3434 71.1404 54.4651 71.1786 51.1098 71.1786H46.8761L46.6263 69.8709C46.05 66.8539 44.053 64.6567 41.1064 63.7979C39.9777 63.4688 37.6897 63.4694 36.4333 63.799C35.2422 64.1115 34.1489 64.5957 33.1442 65.2559C31.2847 66.4775 29.8961 68.0817 28.9574 70.0927L28.4505 71.1786H24.5719C20.9021 71.1786 20.6733 71.1942 20.3228 71.467C20.1191 71.6255 19.8795 71.9742 19.7903 72.2416C19.662 72.6266 19.6725 72.8326 19.8407 73.2313C20.2186 74.1265 20.492 74.183 24.4472 74.183H27.9655L28.2006 75.4151C28.3298 76.0927 28.6421 77.0625 28.8946 77.5703C29.5266 78.8409 30.8231 80.176 32.0363 80.8056C33.3457 81.4851 34.5285 81.7661 36.0684 81.7635C37.6788 81.7609 38.9074 81.4776 40.395 80.766C41.8915 80.0501 43.4033 78.8764 44.3575 77.6895C45.1134 76.7491 46.2375 74.7763 46.2375 74.3899C46.2375 74.2121 47.2932 74.183 53.7535 74.183H61.2695V74.8008C61.2695 75.1407 61.3733 75.7684 61.5001 76.1957C62.1168 78.2739 63.6307 80.0824 65.4817 80.952C66.7883 81.5659 67.7193 81.7656 69.2754 81.7656C70.8046 81.7656 72.3673 81.3729 73.8243 80.6227C75.2483 79.8894 76.4274 78.9508 77.4737 77.7177C78.1715 76.8952 79.0762 75.3422 79.3867 74.4334C79.4605 74.2175 79.6691 74.183 80.8993 74.183C81.6876 74.183 82.6193 74.0957 82.9809 73.988C83.8565 73.7272 84.8937 73.0024 85.4194 72.2841C85.6555 71.9615 85.9414 71.3716 86.0547 70.9731C86.3747 69.8475 87.3278 60.5298 87.2262 59.5185C87.1136 58.3959 86.6693 57.0947 86.0898 56.1901C85.8337 55.7903 83.2946 52.8865 80.4472 49.737C74.9768 43.6862 74.5363 43.2795 72.6902 42.5749C71.7604 42.22 71.6851 42.2149 66.7258 42.1657C63.0171 42.1289 61.7031 42.0721 61.7031 41.9486C61.7031 41.8567 61.8709 40.332 62.0762 38.5607C62.5107 34.8087 62.4978 33.495 62.0171 32.5223C61.594 31.6665 60.72 30.8004 59.8523 30.3774L59.1737 30.0465L42.2483 30.009C25.4357 29.9717 25.3203 29.9734 24.9503 30.2616ZM27.87 39.5495C27.5626 39.8538 27.4475 40.1054 27.4475 40.4728C27.4475 41.1538 27.6791 41.6113 28.1688 41.8976C28.4934 42.0874 28.9634 42.1358 30.4828 42.1358C32.0022 42.1358 32.4723 42.0874 32.7969 41.8976C33.2866 41.6113 33.5181 41.1538 33.5181 40.4728C33.5181 40.1054 33.4031 39.8538 33.0956 39.5495L32.6732 39.1314H30.4828H28.2925L27.87 39.5495ZM37.1205 39.5495C36.813 39.8538 36.698 40.1054 36.698 40.4728C36.698 41.1538 36.9295 41.6113 37.4192 41.8976C37.7809 42.109 38.47 42.1358 43.5569 42.1358C49.9494 42.1358 49.9751 42.1322 50.3754 41.1841C50.5436 40.7854 50.5542 40.5793 50.4258 40.1943C50.3366 39.927 50.097 39.5783 49.8933 39.4198C49.5354 39.1411 49.3195 39.1314 43.5329 39.1314H37.5429L37.1205 39.5495ZM71.9654 45.581C72.4026 45.784 72.9898 46.1703 73.2704 46.4394C73.5509 46.7084 75.8925 49.2614 78.4738 52.1128C83.7464 57.9369 84.1208 58.4601 84.1367 60.0263C84.1505 61.3979 83.2342 69.7453 83.0098 70.2896C82.7583 70.9002 82.0846 71.1786 80.8591 71.1786H79.915V70.7079C79.915 70.0006 79.5276 68.6387 79.0501 67.6667C78.5044 66.5565 77.3318 65.3084 76.2292 64.6644C74.8727 63.8721 73.7167 63.5667 72.0376 63.5566C70.3195 63.5465 69.192 63.804 67.5569 64.58C65.4507 65.5798 63.8826 66.995 62.6838 68.9782C62.4041 69.4409 62.0594 70.1273 61.9178 70.5035L61.6603 71.1876L60.0557 71.1473L58.451 71.1071L58.4843 70.6779C58.571 69.5611 61.2886 45.4744 61.3467 45.3089C61.4002 45.1561 62.3466 45.1286 66.2916 45.1658L71.1704 45.2117L71.9654 45.581ZM24.948 48.5761C24.7444 48.7347 24.5047 49.0833 24.4155 49.3507C24.2872 49.7357 24.2977 49.9417 24.466 50.3404C24.8662 51.2886 24.8919 51.2921 31.2844 51.2921C36.3713 51.2921 37.0605 51.2654 37.4221 51.0539C37.9118 50.7676 38.1434 50.3101 38.1434 49.6291C38.1434 49.2617 38.0283 49.0102 37.7209 48.7059L37.2984 48.2877H31.3084C25.5218 48.2877 25.3059 48.2974 24.948 48.5761ZM41.7457 48.7059C41.4383 49.0102 41.3232 49.2617 41.3232 49.6291C41.3232 50.3101 41.5548 50.7676 42.0445 51.0539C42.3691 51.2438 42.8391 51.2921 44.3585 51.2921C45.8779 51.2921 46.3479 51.2438 46.6726 51.0539C47.1623 50.7676 47.3938 50.3101 47.3938 49.6291C47.3938 49.2617 47.2788 49.0102 46.9713 48.7059L46.5489 48.2877H44.3585H42.1682L41.7457 48.7059ZM65.0608 48.5096C64.8847 48.6316 64.6737 48.8555 64.5917 49.0071C64.5098 49.1586 64.255 51.489 64.0256 54.1858C63.6673 58.3963 63.6355 59.1533 63.8007 59.5446C64.1844 60.4536 64.1387 60.4485 71.7552 60.4485C77.9209 60.4485 78.6845 60.4236 79.0492 60.2103C79.5379 59.9246 79.7704 59.4666 79.7704 58.7903C79.7704 58.4002 79.6333 58.1422 79.1466 57.6167C78.8035 57.2463 76.7571 55.0358 74.5991 52.7045C72.4412 50.3731 70.5701 48.4256 70.4413 48.3767C70.3126 48.3278 69.1213 48.2877 67.7941 48.2877C65.8475 48.2877 65.319 48.3306 65.0608 48.5096ZM71.9496 54.3355L74.7522 57.3725L70.8799 57.4107C68.7502 57.4316 66.9749 57.4163 66.9348 57.3767C66.8699 57.3124 67.0557 54.62 67.2929 52.1863L67.38 51.2921L68.2634 51.2953L69.1469 51.2983L71.9496 54.3355ZM22.0055 57.6123C21.8345 57.6943 21.5814 57.9693 21.4431 58.2236C21.1202 58.8169 21.2477 59.5632 21.7521 60.0322L22.1229 60.377H32.7954H43.468L43.8388 60.0322C44.3428 59.5636 44.4707 58.8169 44.1485 58.2249C44.0106 57.9713 43.7382 57.6919 43.5432 57.604C43.0643 57.388 22.457 57.396 22.0055 57.6123ZM40.6917 66.9059C41.7701 67.3052 42.7088 68.1732 43.2239 69.2472C43.5774 69.9843 43.6352 70.2775 43.6326 71.3217C43.629 72.844 43.2156 74.0846 42.2798 75.3829C41.4328 76.5578 40.5024 77.3444 39.2274 77.9635C37.3306 78.8845 35.4532 78.9801 33.7884 78.2406C32.8618 77.829 32.1223 77.1183 31.6195 76.1566C31.3836 75.7056 31.2814 75.2121 31.2347 74.3005C31.1844 73.3189 31.2343 72.8531 31.4725 72.0769C31.6381 71.537 32.0242 70.7115 32.3303 70.2426C33.3685 68.6527 35.21 67.2933 36.9871 66.8049C37.3448 66.7064 38.1392 66.6203 38.7522 66.6131C39.5616 66.6038 40.0929 66.6841 40.6917 66.9059ZM74.3937 67.1664C74.8947 67.4322 75.4743 67.8481 75.6816 68.0908C76.255 68.7615 76.7249 69.8923 76.8214 70.8332C76.9314 71.9064 76.6023 73.3469 75.9779 74.526C75.3792 75.656 73.7426 77.276 72.6009 77.8686C70.0917 79.1708 67.2618 78.9698 65.6505 77.3749C64.8263 76.5591 64.4177 75.6063 64.3376 74.3139C64.2594 73.0515 64.5138 72.0051 65.221 70.6801C65.7675 69.6559 67.1359 68.2385 68.1351 67.6615C68.5326 67.4321 69.2806 67.0974 69.7973 66.918C70.5761 66.6476 70.9717 66.5996 72.1099 66.6376C73.3471 66.6788 73.5732 66.7312 74.3937 67.1664ZM21.2072 79.0061C20.7356 79.2957 20.5097 79.7551 20.5097 80.4242C20.5097 80.7916 20.6247 81.0431 20.9322 81.3474L21.3546 81.7656H23.8757C26.1844 81.7656 26.4279 81.7413 26.7672 81.4772C26.9708 81.3187 27.2105 80.97 27.2997 80.7026C27.428 80.3176 27.4175 80.1116 27.2492 79.7129C26.8962 78.8769 26.4829 78.7606 23.8774 78.7651C22.0067 78.7681 21.5238 78.8117 21.2072 79.0061ZM51.2712 79.0026C50.799 79.2968 50.5737 79.7562 50.5737 80.4242C50.5737 80.7916 50.6887 81.0431 50.9962 81.3474L51.4186 81.7656H55.3978C58.0219 81.7656 59.4976 81.7111 59.7315 81.6057C59.9265 81.5178 60.1989 81.2384 60.3368 80.9848C60.6588 80.3929 60.5311 79.6462 60.0273 79.1775L59.6568 78.8327L55.6572 78.7973C52.1175 78.7658 51.6133 78.7894 51.2712 79.0026Z" stroke="url(#paint3_linear_2021_116296)" stroke-width="0.936424" mask="url(#path-2-inside-1_2021_116296)"/>
</g>
<rect x="1.20759" y="1.2779" width="104.522" height="109.204" rx="9.4918" stroke="url(#paint4_linear_2021_116296)" stroke-width="0.975442"/>
<defs>
<filter id="filter0_b_2021_116296" x="17.0104" y="27.2995" width="72.9167" height="57.1589" filterUnits="userSpaceOnUse" color-interpolation-filters="sRGB">
<feFlood flood-opacity="0" result="BackgroundImageFix"/>
<feGaussianBlur in="BackgroundImageFix" stdDeviation="1.34635"/>
<feComposite in2="SourceAlpha" operator="in" result="effect1_backgroundBlur_2021_116296"/>
<feBlend mode="normal" in="SourceGraphic" in2="effect1_backgroundBlur_2021_116296" result="shape"/>
</filter>
<radialGradient id="paint0_radial_2021_116296" cx="0" cy="0" r="1" gradientUnits="userSpaceOnUse" gradientTransform="translate(24.9343 95.629) rotate(-58.4659) scale(30.3748 34.9312)">
<stop stop-color="#6E6FF8"/>
<stop offset="1" stop-color="#6E6FF8" stop-opacity="0"/>
</radialGradient>
<radialGradient id="paint1_radial_2021_116296" cx="0" cy="0" r="1" gradientUnits="userSpaceOnUse" gradientTransform="translate(42.4732 23.5282) rotate(76.7737) scale(40.3921 35.9454)">
<stop stop-color="#DEA4F2"/>
<stop offset="1" stop-opacity="0"/>
</radialGradient>
<linearGradient id="paint2_linear_2021_116296" x1="19.7031" y1="88.3153" x2="67.1812" y2="26.0213" gradientUnits="userSpaceOnUse">
<stop stop-color="#686CF8"/>
<stop offset="1" stop-color="#ECABF1"/>
</linearGradient>
<linearGradient id="paint3_linear_2021_116296" x1="87.2337" y1="37.7894" x2="-5.40443" y2="77.2601" gradientUnits="userSpaceOnUse">
<stop stop-color="#9A7EBC" stop-opacity="0.7"/>
<stop offset="1" stop-color="#4F569F" stop-opacity="0.46"/>
</linearGradient>
<linearGradient id="paint4_linear_2021_116296" x1="-2.5545" y1="-1.93285" x2="123.685" y2="96.9375" gradientUnits="userSpaceOnUse">
<stop stop-color="#7E84BC" stop-opacity="0.4"/>
<stop offset="0.592787" stop-color="#37384A" stop-opacity="0.3"/>
<stop offset="0.930304" stop-color="#7379B5" stop-opacity="0.4"/>
</linearGradient>
</defs>
</svg>
