<svg width="106" height="111" viewBox="0 0 106 111" fill="none" xmlns="http://www.w3.org/2000/svg">
<rect x="0.609935" y="1.2779" width="104.522" height="109.204" rx="9.4918" fill="#13122C"/>
<rect x="0.609935" y="1.2779" width="104.522" height="109.204" rx="9.4918" fill="url(#paint0_radial_2021_116273)" fill-opacity="0.08"/>
<rect x="0.609935" y="1.2779" width="104.522" height="109.204" rx="9.4918" fill="url(#paint1_radial_2021_116273)" fill-opacity="0.05"/>
<g filter="url(#filter0_b_2021_116273)">
<path fill-rule="evenodd" clip-rule="evenodd" d="M50.1509 25.6596C46.6482 26.0893 43.3921 27.3128 40.3556 29.3401C39.6372 29.8196 38.5612 30.6402 37.9643 31.1637C34.3962 34.2929 31.7726 38.8507 30.8104 43.5912C30.4844 45.1971 30.2903 47.728 30.3822 49.1728C30.5583 51.9418 31.3126 55.3397 32.3935 58.2327C33.0277 59.9301 33.2376 60.422 34.0916 62.2126L34.7602 63.6143L32.5721 65.8052L30.384 67.9962L31.659 69.2715L32.9341 70.5468L34.7705 68.7129C35.7806 67.7041 36.626 66.903 36.649 66.9326C36.6721 66.962 37.3221 67.944 38.0935 69.1145C41.2548 73.9117 45.3897 78.9353 49.7424 83.2674C50.7715 84.2916 51.7905 85.3455 52.9575 86.2697L54.9678 84.3345C60.2028 79.2947 65.0945 73.3688 68.4556 67.9957C71.5302 63.0803 73.4557 58.7608 74.5432 54.3387C75.1672 51.8013 75.3639 50.1936 75.3563 47.6883C75.3511 45.9904 75.2919 45.1676 75.0958 44.0662C74.9561 43.2824 74.7309 42.2403 74.5951 41.7505C74.2807 40.6161 73.415 38.4876 72.8589 37.4814C72.2955 36.4621 71.3932 35.1069 70.6542 34.1694L70.0611 33.417L72.7204 30.755L75.3798 28.0931L74.1043 26.8175L72.829 25.5419L70.1731 28.1963L67.5173 30.8506L66.522 30.0914C64.52 28.5643 62.4729 27.4839 60.0399 26.6702C56.8146 25.5916 53.481 25.2509 50.1509 25.6596ZM54.8751 29.1689C57.1422 29.4157 59.2951 30.0486 61.3476 31.0715C62.4857 31.6388 64.4718 32.9182 64.7675 33.2745C64.8936 33.4265 64.5005 33.8696 62.1828 36.1876L59.4496 38.9215L58.7481 38.4718C57.8117 37.8718 56.6941 37.4125 55.4174 37.1034C54.0719 36.7777 51.9463 36.7555 50.5665 37.0529C49.4244 37.2991 48.1226 37.8218 47.031 38.4723C46.0554 39.0538 44.7587 40.2176 44.0271 41.1686C43.2627 42.1622 42.5022 43.6502 42.1213 44.8975C41.8237 45.8723 41.7943 46.1388 41.7877 47.9258C41.7814 49.5901 41.8195 50.0284 42.0407 50.8354C42.3486 51.9587 42.7712 52.949 43.3507 53.9059L43.7719 54.6014L40.6398 57.7358C38.9171 59.4598 37.4806 60.8697 37.4475 60.8691C37.4143 60.8684 37.2984 60.668 37.1899 60.4238C36.206 58.2092 35.9417 57.5798 35.5924 56.619C35.1074 55.2853 34.5357 53.1764 34.2932 51.8267C33.8675 49.4565 33.8743 46.4673 34.3107 44.3037C34.5853 42.9417 35.138 41.2708 35.7429 39.973C36.5077 38.3329 37.892 36.3295 39.2088 34.9572C42.3164 31.7189 46.4019 29.683 50.8247 29.1689C52.0354 29.0282 53.5816 29.0282 54.8751 29.1689ZM68.3169 36.9761C69.1506 38.0602 70.0365 39.6137 70.5489 40.8903C71.5424 43.365 71.9914 46.3914 71.769 49.1134C71.5634 51.6291 71.179 53.4729 70.3307 56.0139C69.7445 57.7696 68.983 59.5546 67.9551 61.5828C65.2644 66.8923 61.0594 72.7411 56.2379 77.9119C55.147 79.0818 54.0161 80.214 52.8959 81.3558C51.7542 80.2374 50.646 79.0903 49.5657 77.9119C45.8914 73.9037 42.6244 69.676 40.1593 65.7393L39.2299 64.2549L42.7731 60.71L46.3162 57.1652L47.2541 57.7066C48.2986 58.3098 49.9285 58.8923 51.1008 59.0813C52.2792 59.2715 54.0037 59.2304 55.1992 58.9835C55.788 58.862 56.6851 58.5896 57.1927 58.3782C58.9082 57.664 60.6417 56.3435 61.7424 54.9129C62.4679 53.9697 63.2462 52.4616 63.6109 51.2916C64.1851 49.4501 64.233 47.0784 63.7348 45.1501C63.4822 44.173 62.9665 42.9817 62.4379 42.1553L62.0034 41.4761L64.7142 38.7629C66.2051 37.2706 67.4788 36.067 67.5444 36.0883C67.6101 36.1095 67.9577 36.509 68.3169 36.9761ZM54.6034 40.5819C55.2146 40.7097 56.7999 41.3732 56.7999 41.5013C56.7999 41.541 54.4517 43.9216 51.5816 46.7917L46.3634 52.01L46.0039 51.2497C44.9375 48.9944 45.0811 46.1915 46.3728 44.0437C46.8866 43.1895 48.0432 42.0324 48.8881 41.5276C50.6041 40.5021 52.6228 40.1682 54.6034 40.5819ZM59.8057 44.8108C60.2886 45.887 60.4806 46.8063 60.4806 48.0422C60.4806 49.3573 60.1946 50.5575 59.6172 51.6658C59.0975 52.6633 57.4501 54.2823 56.4437 54.7844C55.3996 55.3055 53.994 55.645 52.8818 55.645C51.8243 55.645 50.4485 55.3248 49.5506 54.8698L48.9275 54.5539L54.1396 49.3397C57.0063 46.472 59.3846 44.1256 59.4249 44.1256C59.4653 44.1256 59.6366 44.4339 59.8057 44.8108Z" fill="url(#paint2_linear_2021_116273)" fill-opacity="0.6"/>
<path d="M40.4855 29.5348L40.4855 29.5348C39.775 30.0091 38.7072 30.8235 38.1187 31.3397L38.1187 31.3397C34.5898 34.4345 31.992 38.9464 31.0398 43.6378C30.7174 45.2261 30.5254 47.7362 30.6158 49.1579L30.3822 49.1728L30.6158 49.1579C30.7903 51.9016 31.539 55.2769 32.6128 58.1508L32.4336 58.2177L32.6128 58.1508C33.2444 59.8412 33.4516 60.3268 34.3029 62.1118L34.9715 63.5135L35.0427 63.6627L34.9258 63.7797L32.7377 65.9706L30.7149 67.9961L31.8246 69.106L32.9342 70.2158L34.6051 68.5472C35.1111 68.0419 35.5765 67.5879 35.9189 67.2634C36.0897 67.1015 36.2315 66.9703 36.3329 66.8809C36.383 66.8367 36.4265 66.7997 36.4601 66.7738C36.4757 66.7618 36.4961 66.7467 36.5173 66.7344C36.5259 66.7293 36.5485 66.7164 36.5783 66.7077C36.5926 66.7034 36.6245 66.6952 36.6654 66.6984C36.7103 66.7019 36.7808 66.7214 36.833 66.7879L40.4855 29.5348ZM40.4855 29.5348C43.4928 27.527 46.7143 26.3171 50.1794 25.8919L50.1509 25.6596M40.4855 29.5348L50.1509 25.6596M50.1509 25.6596L50.1794 25.8919C53.4744 25.4876 56.773 25.8245 59.9656 26.8922C62.3747 27.6979 64.3988 28.7664 66.38 30.2776L67.3754 31.0368L67.5381 31.1609L67.6828 31.0162L70.3386 28.3619L72.829 25.8729M50.1509 25.6596L72.829 25.8729M72.829 25.8729L73.9388 26.9831L74.0949 26.827L73.9388 26.9831L75.0488 28.0932L72.5548 30.5896L69.8954 33.2515L69.7485 33.3986L69.8772 33.5619L70.4704 34.3143C71.2017 35.2421 72.0969 36.5868 72.654 37.5947C73.201 38.5845 74.0598 40.6959 74.3695 41.813C74.5026 42.293 74.7263 43.3272 74.8653 44.1073C75.0582 45.1904 75.1171 45.9985 75.1221 47.689C75.1297 50.1744 74.9355 51.7631 74.3158 54.2828L74.5432 54.3387L74.3158 54.2828C73.2357 58.6752 71.322 62.9718 68.2571 67.8715C64.9076 73.2262 60.0286 79.1374 54.8054 84.1658L52.9434 85.9584C51.9984 85.1918 51.1485 84.3419 50.2954 83.4887C50.1663 83.3596 50.0371 83.2305 49.9075 83.1015C45.5654 78.7799 41.4409 73.7686 38.289 68.9857L38.0935 69.1145L38.2889 68.9857C37.9032 68.4003 37.5478 67.8621 37.2858 67.4664C37.1549 67.2686 37.0472 67.1063 36.9708 66.9916C36.9009 66.8866 36.848 66.8073 36.8337 66.7887L72.829 25.8729ZM54.8768 29.1536L54.9005 28.9362C57.1952 29.186 59.3748 29.8268 61.452 30.862L61.3493 31.0681L61.452 30.862C62.0318 31.151 62.8208 31.6177 63.5002 32.0553C63.8405 32.2745 64.156 32.4882 64.4063 32.6705C64.6476 32.8464 64.8519 33.0096 64.9476 33.1249L64.9477 33.125C65.007 33.1965 65.0297 33.284 65.0206 33.3722C65.0127 33.4491 64.9815 33.5204 64.9472 33.5819C64.8783 33.7053 64.7532 33.8639 64.5667 34.0741C64.1888 34.5 63.5055 35.1958 62.3484 36.3531L59.6152 39.087L59.482 39.2202L59.3233 39.1186L58.6217 38.6689L58.725 38.5078L58.6217 38.6689C57.7109 38.0852 56.6182 37.635 55.3623 37.3309C54.0518 37.0137 51.9618 36.9916 50.6158 37.2818L50.5708 37.073L50.6158 37.2818C49.5007 37.5222 48.2226 38.0348 47.1509 38.6734C46.202 39.2389 44.9273 40.3824 44.2126 41.3113C43.4661 42.2818 42.7182 43.7444 42.3452 44.9659C42.1977 45.449 42.121 45.7428 42.0781 46.1327C42.0343 46.5299 42.0251 47.0303 42.0218 47.9267C42.0155 49.5863 42.054 49.9984 42.2665 50.7735L42.0665 50.8283L42.2665 50.7735C42.5689 51.8768 42.9831 52.847 43.5509 53.7846C43.5509 53.7846 43.5509 53.7846 43.5509 53.7847L43.9722 54.4801L44.0673 54.637L43.9375 54.7668L40.8054 57.9013C39.9437 58.7637 39.1533 59.5477 38.574 60.1163C38.2845 60.4004 38.0471 60.6313 37.8798 60.7914C37.7963 60.8712 37.7292 60.9345 37.6814 60.9782C37.6578 60.9997 37.637 61.0183 37.6204 61.0322C37.6126 61.0388 37.6024 61.0471 37.5917 61.0548C37.5868 61.0584 37.5772 61.0652 37.5649 61.0721C37.5589 61.0755 37.5478 61.0814 37.5333 61.0871C37.5233 61.091 37.4891 61.104 37.4433 61.1032L37.4424 61.1032C37.385 61.1019 37.3427 61.0807 37.3227 61.0691C37.3003 61.0561 37.2835 61.0419 37.2729 61.0321C37.2516 61.0126 37.2343 60.9913 37.222 60.975C37.1963 60.9411 37.1697 60.8989 37.1443 60.855C37.0925 60.7654 37.0327 60.6466 36.976 60.5188C35.992 58.3041 35.7247 57.6682 35.3724 56.699M54.8768 29.1536L35.3724 56.699M54.8768 29.1536L54.9005 28.9362C53.5906 28.7937 52.0269 28.7935 50.7977 28.9364C46.3203 29.4568 42.1848 31.5179 39.0399 34.7951C37.7062 36.185 36.3069 38.2095 35.5308 39.8741L35.5308 39.8741C34.9182 41.1882 34.3596 42.8767 34.0812 44.2575C33.6385 46.4524 33.6323 49.4715 34.0628 51.8681C34.3077 53.2314 34.883 55.3532 35.3724 56.699M54.8768 29.1536L35.5924 56.619L35.3724 56.699M49.4448 55.0786L49.4448 55.0786L48.8217 54.7627L48.5337 54.6167L48.7619 54.3884L53.974 49.1742C55.4076 47.7401 56.7193 46.4362 57.6777 45.4906C58.1569 45.0179 58.5481 44.6344 58.8223 44.3689C58.9593 44.2362 59.0679 44.1323 59.1438 44.0612C59.1815 44.0258 59.2127 43.9972 59.2358 43.9769C59.247 43.967 59.2589 43.9569 59.2699 43.9482C59.2749 43.9443 59.2838 43.9375 59.2944 43.9306C59.2995 43.9273 59.3096 43.921 59.323 43.9147C59.3276 43.9125 59.3687 43.8915 59.4249 43.8915C59.4964 43.8915 59.5466 43.9228 59.5642 43.9346C59.5867 43.9496 59.6036 43.9659 59.6141 43.9767C59.6356 43.9989 59.6544 44.0239 59.6694 44.0453C59.7006 44.0898 59.7356 44.1482 59.7717 44.2132C59.8447 44.3446 59.9328 44.5221 60.0193 44.715C60.0193 44.715 60.0193 44.715 60.0193 44.715L59.8057 44.8108L49.4448 55.0786ZM49.4448 55.0786C50.3771 55.5511 51.7895 55.8791 52.8818 55.8791C54.0321 55.8791 55.4733 55.5303 56.5482 54.9939L49.4448 55.0786ZM52.7321 81.523L52.8992 81.6867L53.063 81.5198C53.2948 81.2835 53.5272 81.0475 53.7599 80.8112C54.6497 79.9076 55.5422 79.0013 56.4091 78.0715C61.2427 72.8878 65.4616 67.0212 68.1639 61.6887C69.1958 59.6524 69.9622 57.8567 70.5528 56.088C71.4067 53.5303 71.7951 51.668 72.0023 49.1325C72.2276 46.3751 71.7735 43.3123 70.7662 40.8031C70.2458 39.5067 69.3493 37.9346 68.5025 36.8334C68.3206 36.5969 68.1409 36.3765 67.9972 36.2113C67.9256 36.1291 67.861 36.0582 67.8084 36.0053C67.7823 35.9791 67.7565 35.9544 67.7324 35.9342C67.7204 35.9241 67.7063 35.9129 67.6908 35.9025C67.6783 35.8941 67.6517 35.8769 67.6165 35.8656C67.5664 35.8493 67.5236 35.8537 67.5028 35.8571C67.4798 35.8609 67.4614 35.8672 67.4501 35.8716C67.4276 35.8803 67.409 35.8909 67.3974 35.8979C67.3728 35.9127 67.3469 35.9315 67.3226 35.9502C67.2724 35.9887 67.2069 36.0438 67.1298 36.1113C66.9746 36.2474 66.7602 36.4448 66.503 36.6879C65.9879 37.1746 65.2952 37.8502 64.5486 38.5975L61.8378 41.3107L61.7048 41.4438L61.8062 41.6023L62.2407 42.2815C62.7555 43.0864 63.2616 44.2548 63.5081 45.2087C63.9958 47.0962 63.9482 49.4234 63.3875 51.2219L63.5891 51.2848L63.3875 51.2219C63.0307 52.3663 62.265 53.8495 61.5568 54.7701C60.4818 56.1674 58.7817 57.4631 57.1027 58.1621L57.1027 58.1621C56.6101 58.3672 55.7274 58.6355 55.1519 58.7542L55.1518 58.7542C53.9835 58.9955 52.2878 59.0357 51.1381 58.8502L51.1008 59.0813L51.1381 58.8502C49.9944 58.6658 48.3914 58.093 47.3712 57.5039L47.3712 57.5039L46.4333 56.9625L46.2777 56.8726L46.1507 56.9997L42.6075 60.5445L39.0643 64.0894L38.9325 64.2211L39.0314 64.3791L39.9609 65.8635L40.1384 65.7524L39.9609 65.8636C42.4347 69.8141 45.7108 74.0531 49.3931 78.0701L49.5657 77.9119L49.3931 78.0701C50.4762 79.2515 51.5873 80.4016 52.7321 81.523ZM54.6513 40.3528L54.6512 40.3528C52.6139 39.9271 50.5352 40.2706 48.768 41.3266C48.323 41.5925 47.8074 42.0223 47.3407 42.4891C46.874 42.956 46.4423 43.4739 46.1722 43.923L46.1721 43.923C44.8403 46.1376 44.6922 49.0233 45.7922 51.3498L45.7922 51.3498L46.1517 52.1101L46.2939 52.4106L46.5289 52.1755L51.7472 46.9572C53.1825 45.5219 54.4875 44.2088 55.4337 43.2495C55.9068 42.7699 56.2906 42.3783 56.5563 42.1039C56.6891 41.9669 56.7931 41.8583 56.8642 41.7824C56.8996 41.7447 56.9282 41.7136 56.9485 41.6905C56.9583 41.6794 56.9685 41.6675 56.977 41.6567C56.9809 41.6517 56.9877 41.6429 56.9946 41.6323C56.9978 41.6274 57.0041 41.6173 57.0105 41.6041C57.0125 41.5999 57.034 41.5583 57.034 41.5013C57.034 41.4387 57.0107 41.3916 56.9959 41.3671C56.9801 41.3408 56.9621 41.3206 56.9487 41.3069C56.9218 41.2797 56.8907 41.2562 56.8633 41.2374C56.807 41.1986 56.7327 41.1565 56.6506 41.1139C56.4845 41.0275 56.2607 40.9257 56.0212 40.8255C55.5471 40.6271 54.9803 40.4216 54.6513 40.3528ZM59.8248 51.774L59.6231 51.6689L56.5482 54.9938C57.0842 54.7264 57.7683 54.176 58.377 53.5778C58.9858 52.9796 59.548 52.3051 59.8248 51.774Z" stroke="url(#paint3_linear_2021_116273)" stroke-width="0.468212"/>
</g>
<rect x="0.609935" y="1.2779" width="104.522" height="109.204" rx="9.4918" stroke="url(#paint4_linear_2021_116273)" stroke-width="0.975442"/>
<defs>
<filter id="filter0_b_2021_116273" x="27.6667" y="22.7995" width="50.4049" height="66.1667" filterUnits="userSpaceOnUse" color-interpolation-filters="sRGB">
<feFlood flood-opacity="0" result="BackgroundImageFix"/>
<feGaussianBlur in="BackgroundImageFix" stdDeviation="1.34635"/>
<feComposite in2="SourceAlpha" operator="in" result="effect1_backgroundBlur_2021_116273"/>
<feBlend mode="normal" in="SourceGraphic" in2="effect1_backgroundBlur_2021_116273" result="shape"/>
</filter>
<radialGradient id="paint0_radial_2021_116273" cx="0" cy="0" r="1" gradientUnits="userSpaceOnUse" gradientTransform="translate(24.3367 95.629) rotate(-58.4659) scale(30.3748 34.9312)">
<stop stop-color="#6E6FF8"/>
<stop offset="1" stop-color="#6E6FF8" stop-opacity="0"/>
</radialGradient>
<radialGradient id="paint1_radial_2021_116273" cx="0" cy="0" r="1" gradientUnits="userSpaceOnUse" gradientTransform="translate(41.8756 23.5282) rotate(76.7737) scale(40.3921 35.9454)">
<stop stop-color="#DEA4F2"/>
<stop offset="1" stop-opacity="0"/>
</radialGradient>
<linearGradient id="paint2_linear_2021_116273" x1="30.3594" y1="93.9584" x2="85.7483" y2="52.6871" gradientUnits="userSpaceOnUse">
<stop stop-color="#686CF8"/>
<stop offset="1" stop-color="#ECABF1"/>
</linearGradient>
<linearGradient id="paint3_linear_2021_116273" x1="75.3798" y1="34.6454" x2="6.44539" y2="51.3253" gradientUnits="userSpaceOnUse">
<stop stop-color="#9A7EBC" stop-opacity="0.7"/>
<stop offset="1" stop-color="#4F569F" stop-opacity="0.46"/>
</linearGradient>
<linearGradient id="paint4_linear_2021_116273" x1="-3.15215" y1="-1.93285" x2="123.088" y2="96.9375" gradientUnits="userSpaceOnUse">
<stop stop-color="#7E84BC" stop-opacity="0.4"/>
<stop offset="0.592787" stop-color="#37384A" stop-opacity="0.3"/>
<stop offset="0.930304" stop-color="#7379B5" stop-opacity="0.4"/>
</linearGradient>
</defs>
</svg>
