<svg width="107" height="111" viewBox="0 0 107 111" fill="none" xmlns="http://www.w3.org/2000/svg">
<rect x="1.01228" y="1.2779" width="104.522" height="109.204" rx="9.4918" fill="#13122C"/>
<rect x="1.01228" y="1.2779" width="104.522" height="109.204" rx="9.4918" fill="url(#paint0_radial_2021_116386)" fill-opacity="0.08"/>
<rect x="1.01228" y="1.2779" width="104.522" height="109.204" rx="9.4918" fill="url(#paint1_radial_2021_116386)" fill-opacity="0.05"/>
<g filter="url(#filter0_b_2021_116386)">
<mask id="path-2-inside-1_2021_116386" fill="white">
<path fill-rule="evenodd" clip-rule="evenodd" d="M39.9786 27.8947C38.3484 28.0963 37.1461 28.3388 35.8738 28.7227C33.1993 29.5297 30.9396 30.7104 29.2814 32.1675C27.6062 33.6394 26.6518 35.0199 26.004 36.9084L25.7398 37.6782L25.7092 50.4334C25.6829 61.3794 25.7021 63.3008 25.8447 63.9797C26.2202 65.7674 27.1235 67.3154 28.6932 68.8609C29.9046 70.0536 31.3381 71.0418 32.9917 71.824C34.2847 72.4358 36.0522 73.0369 37.3821 73.3173L38.3035 73.5115V78.28C38.3035 83.6844 38.3065 83.7073 39.0486 83.9198C39.3568 84.008 44.6178 84.0329 57.9027 84.0092C75.7917 83.9773 76.3457 83.9701 76.8878 83.7642C78.3008 83.2275 79.4513 82.2737 80.1563 81.0546C80.8734 79.8146 80.849 80.3382 80.849 66.1609C80.849 51.8073 80.8843 52.4892 80.0729 51.1421C79.8336 50.7446 79.4278 50.2128 79.1712 49.9601C78.6266 49.4238 77.679 48.8384 76.8878 48.5494C76.3659 48.3588 75.7949 48.3435 68.1491 48.3146L59.9688 48.2837L59.9671 43.2559C59.9654 38.0057 59.9382 37.6437 59.4447 36.3036C59.1706 35.5592 58.3553 34.2405 57.6918 33.4687C55.6099 31.0467 52.0547 29.1303 48.0636 28.2787C45.5602 27.7447 42.4039 27.5947 39.9786 27.8947ZM45.3153 30.1466C49.8851 30.6207 54.1446 32.5712 56.1141 35.0916C56.7103 35.8545 57.2628 36.9039 57.468 37.6626C57.6713 38.4148 57.6641 39.843 57.4529 40.6418C57.1173 41.9105 56.1599 43.3341 54.8875 44.4566C53.7056 45.4991 51.7222 46.5708 49.821 47.194C47.8038 47.8552 45.0272 48.2905 42.8264 48.2905C40.6224 48.2905 37.8423 47.8541 35.8317 47.1928C34.3804 46.7153 32.6454 45.8561 31.6252 45.1098C30.4102 44.2208 29.2316 42.9384 28.7532 41.9846C28.2311 40.9437 28.0321 40.1656 28.0306 39.1585C28.026 36.2992 29.987 33.8076 33.6782 31.9826C35.459 31.1022 37.9387 30.4081 40.202 30.1567C41.3879 30.0251 44.0918 30.0197 45.3153 30.1466ZM41.9664 35.1152C40.4066 35.2555 38.8797 35.9354 38.0194 36.8734C36.7048 38.3062 36.7652 40.214 38.1678 41.5593C40.4935 43.7899 45.2064 43.788 47.4939 41.5556C48.2348 40.8325 48.577 40.0721 48.5704 39.1629C48.5674 38.7427 48.4833 38.2491 48.3664 37.9653C48.257 37.6998 47.9334 37.2211 47.6472 36.9014C46.4621 35.5779 44.3186 34.9039 41.9664 35.1152ZM44.4216 37.5715C45.2109 37.8024 45.9403 38.3029 46.1641 38.7672C46.3498 39.1527 46.3495 39.1895 46.156 39.5793C45.9034 40.0882 44.9984 40.6424 44.1301 40.8199C43.7887 40.8896 43.0541 40.9261 42.4978 40.9009C41.6969 40.8646 41.3432 40.7912 40.7993 40.5486C39.6821 40.0504 39.2021 39.4016 39.4762 38.7599C39.7368 38.1495 40.6574 37.6286 41.8771 37.4014C42.5004 37.2853 43.7225 37.3669 44.4216 37.5715ZM30.6337 47.1548C31.7996 47.9292 33.7658 48.873 35.1449 49.3201C36.7116 49.828 37.8521 50.1032 39.3644 50.3378C40.4785 50.5108 42.2451 50.5345 58.3494 50.5918L74.6695 50.6498C76.203 50.6552 77.3391 50.9046 78.1535 52.4144C79.333 54.6005 77.7557 57.1257 75.3954 57.2973C73.495 57.4356 69.0299 57.4182 57.4525 57.4182C44.2277 57.4182 39.2438 57.4518 38.9782 57.543C38.2983 57.7764 38.3035 57.7209 38.3035 64.7748V71.1488L37.3263 70.8903C35.8512 70.5002 34.8012 70.1038 33.4554 69.4291C32.0976 68.7484 30.8032 67.8372 30.0143 67.0066C29.3719 66.3305 28.7626 65.4053 28.3766 64.5202L28.0851 63.8515L28.0541 54.4091L28.0232 44.9668L28.9289 45.7954C29.4271 46.2511 30.1942 46.8629 30.6337 47.1548ZM57.6236 46.6409V48.2905L55.3621 48.2857L53.1006 48.2807L53.5335 48.0382C54.7317 47.3666 55.9774 46.4882 56.7301 45.7841C57.1908 45.3532 57.5803 44.9985 57.5956 44.996C57.6109 44.9934 57.6236 45.7337 57.6236 46.6409ZM78.6365 78.196C78.5843 78.23 78.5088 78.4981 78.4689 78.7918C78.3749 79.4851 77.9023 80.3301 77.3469 80.7982C76.6695 81.3692 75.8838 81.6119 74.7128 81.6119H73.7187L73.6839 78.7613C73.6495 75.9339 73.647 75.9085 73.3838 75.6329C73.0474 75.2805 72.5883 75.1801 72.0753 75.3469C71.4113 75.5627 71.3598 75.8193 71.3598 78.9141V81.6119H69.2449H67.13L67.0951 78.8154C67.0746 77.173 67.0005 76.5146 67.0005 76.1297C67.0005 74.7551 64.7709 74.7001 64.7709 76.1847V78.7687V81.6119H62.5932H60.4155V78.7477V76.2397C60.4155 74.81 58.1819 74.81 58.1819 76.2397V78.7477V81.6119H56.0042H53.8265V78.7687V76.2947C53.8265 75.8262 53.4975 75.4043 52.991 75.2792C52.5591 75.1725 52.0406 75.3555 51.7719 75.7096C51.5502 76.0018 51.5353 76.174 51.5023 78.8154L51.4674 81.6119H49.3526H47.2376V78.9141C47.2376 75.8193 47.1861 75.5627 46.5221 75.3469C46.0091 75.1801 45.55 75.2805 45.2136 75.6329C44.9504 75.9085 44.9479 75.9339 44.9135 78.7613L44.8787 81.6119H42.8774H40.8762L40.8748 70.672L40.8735 59.7322L58.6014 59.7024L74.3344 59.6759C75.7847 59.6735 77.0425 59.6543 78.3109 58.8635L78.6746 58.6367L78.7031 68.3854C78.7188 73.7472 78.6889 78.1619 78.6365 78.196Z"/>
</mask>
<path fill-rule="evenodd" clip-rule="evenodd" d="M39.9786 27.8947C38.3484 28.0963 37.1461 28.3388 35.8738 28.7227C33.1993 29.5297 30.9396 30.7104 29.2814 32.1675C27.6062 33.6394 26.6518 35.0199 26.004 36.9084L25.7398 37.6782L25.7092 50.4334C25.6829 61.3794 25.7021 63.3008 25.8447 63.9797C26.2202 65.7674 27.1235 67.3154 28.6932 68.8609C29.9046 70.0536 31.3381 71.0418 32.9917 71.824C34.2847 72.4358 36.0522 73.0369 37.3821 73.3173L38.3035 73.5115V78.28C38.3035 83.6844 38.3065 83.7073 39.0486 83.9198C39.3568 84.008 44.6178 84.0329 57.9027 84.0092C75.7917 83.9773 76.3457 83.9701 76.8878 83.7642C78.3008 83.2275 79.4513 82.2737 80.1563 81.0546C80.8734 79.8146 80.849 80.3382 80.849 66.1609C80.849 51.8073 80.8843 52.4892 80.0729 51.1421C79.8336 50.7446 79.4278 50.2128 79.1712 49.9601C78.6266 49.4238 77.679 48.8384 76.8878 48.5494C76.3659 48.3588 75.7949 48.3435 68.1491 48.3146L59.9688 48.2837L59.9671 43.2559C59.9654 38.0057 59.9382 37.6437 59.4447 36.3036C59.1706 35.5592 58.3553 34.2405 57.6918 33.4687C55.6099 31.0467 52.0547 29.1303 48.0636 28.2787C45.5602 27.7447 42.4039 27.5947 39.9786 27.8947ZM45.3153 30.1466C49.8851 30.6207 54.1446 32.5712 56.1141 35.0916C56.7103 35.8545 57.2628 36.9039 57.468 37.6626C57.6713 38.4148 57.6641 39.843 57.4529 40.6418C57.1173 41.9105 56.1599 43.3341 54.8875 44.4566C53.7056 45.4991 51.7222 46.5708 49.821 47.194C47.8038 47.8552 45.0272 48.2905 42.8264 48.2905C40.6224 48.2905 37.8423 47.8541 35.8317 47.1928C34.3804 46.7153 32.6454 45.8561 31.6252 45.1098C30.4102 44.2208 29.2316 42.9384 28.7532 41.9846C28.2311 40.9437 28.0321 40.1656 28.0306 39.1585C28.026 36.2992 29.987 33.8076 33.6782 31.9826C35.459 31.1022 37.9387 30.4081 40.202 30.1567C41.3879 30.0251 44.0918 30.0197 45.3153 30.1466ZM41.9664 35.1152C40.4066 35.2555 38.8797 35.9354 38.0194 36.8734C36.7048 38.3062 36.7652 40.214 38.1678 41.5593C40.4935 43.7899 45.2064 43.788 47.4939 41.5556C48.2348 40.8325 48.577 40.0721 48.5704 39.1629C48.5674 38.7427 48.4833 38.2491 48.3664 37.9653C48.257 37.6998 47.9334 37.2211 47.6472 36.9014C46.4621 35.5779 44.3186 34.9039 41.9664 35.1152ZM44.4216 37.5715C45.2109 37.8024 45.9403 38.3029 46.1641 38.7672C46.3498 39.1527 46.3495 39.1895 46.156 39.5793C45.9034 40.0882 44.9984 40.6424 44.1301 40.8199C43.7887 40.8896 43.0541 40.9261 42.4978 40.9009C41.6969 40.8646 41.3432 40.7912 40.7993 40.5486C39.6821 40.0504 39.2021 39.4016 39.4762 38.7599C39.7368 38.1495 40.6574 37.6286 41.8771 37.4014C42.5004 37.2853 43.7225 37.3669 44.4216 37.5715ZM30.6337 47.1548C31.7996 47.9292 33.7658 48.873 35.1449 49.3201C36.7116 49.828 37.8521 50.1032 39.3644 50.3378C40.4785 50.5108 42.2451 50.5345 58.3494 50.5918L74.6695 50.6498C76.203 50.6552 77.3391 50.9046 78.1535 52.4144C79.333 54.6005 77.7557 57.1257 75.3954 57.2973C73.495 57.4356 69.0299 57.4182 57.4525 57.4182C44.2277 57.4182 39.2438 57.4518 38.9782 57.543C38.2983 57.7764 38.3035 57.7209 38.3035 64.7748V71.1488L37.3263 70.8903C35.8512 70.5002 34.8012 70.1038 33.4554 69.4291C32.0976 68.7484 30.8032 67.8372 30.0143 67.0066C29.3719 66.3305 28.7626 65.4053 28.3766 64.5202L28.0851 63.8515L28.0541 54.4091L28.0232 44.9668L28.9289 45.7954C29.4271 46.2511 30.1942 46.8629 30.6337 47.1548ZM57.6236 46.6409V48.2905L55.3621 48.2857L53.1006 48.2807L53.5335 48.0382C54.7317 47.3666 55.9774 46.4882 56.7301 45.7841C57.1908 45.3532 57.5803 44.9985 57.5956 44.996C57.6109 44.9934 57.6236 45.7337 57.6236 46.6409ZM78.6365 78.196C78.5843 78.23 78.5088 78.4981 78.4689 78.7918C78.3749 79.4851 77.9023 80.3301 77.3469 80.7982C76.6695 81.3692 75.8838 81.6119 74.7128 81.6119H73.7187L73.6839 78.7613C73.6495 75.9339 73.647 75.9085 73.3838 75.6329C73.0474 75.2805 72.5883 75.1801 72.0753 75.3469C71.4113 75.5627 71.3598 75.8193 71.3598 78.9141V81.6119H69.2449H67.13L67.0951 78.8154C67.0746 77.173 67.0005 76.5146 67.0005 76.1297C67.0005 74.7551 64.7709 74.7001 64.7709 76.1847V78.7687V81.6119H62.5932H60.4155V78.7477V76.2397C60.4155 74.81 58.1819 74.81 58.1819 76.2397V78.7477V81.6119H56.0042H53.8265V78.7687V76.2947C53.8265 75.8262 53.4975 75.4043 52.991 75.2792C52.5591 75.1725 52.0406 75.3555 51.7719 75.7096C51.5502 76.0018 51.5353 76.174 51.5023 78.8154L51.4674 81.6119H49.3526H47.2376V78.9141C47.2376 75.8193 47.1861 75.5627 46.5221 75.3469C46.0091 75.1801 45.55 75.2805 45.2136 75.6329C44.9504 75.9085 44.9479 75.9339 44.9135 78.7613L44.8787 81.6119H42.8774H40.8762L40.8748 70.672L40.8735 59.7322L58.6014 59.7024L74.3344 59.6759C75.7847 59.6735 77.0425 59.6543 78.3109 58.8635L78.6746 58.6367L78.7031 68.3854C78.7188 73.7472 78.6889 78.1619 78.6365 78.196Z" fill="url(#paint2_linear_2021_116386)" fill-opacity="0.6"/>
<path fill-rule="evenodd" clip-rule="evenodd" d="M39.9786 27.8947C38.3484 28.0963 37.1461 28.3388 35.8738 28.7227C33.1993 29.5297 30.9396 30.7104 29.2814 32.1675C27.6062 33.6394 26.6518 35.0199 26.004 36.9084L25.7398 37.6782L25.7092 50.4334C25.6829 61.3794 25.7021 63.3008 25.8447 63.9797C26.2202 65.7674 27.1235 67.3154 28.6932 68.8609C29.9046 70.0536 31.3381 71.0418 32.9917 71.824C34.2847 72.4358 36.0522 73.0369 37.3821 73.3173L38.3035 73.5115V78.28C38.3035 83.6844 38.3065 83.7073 39.0486 83.9198C39.3568 84.008 44.6178 84.0329 57.9027 84.0092C75.7917 83.9773 76.3457 83.9701 76.8878 83.7642C78.3008 83.2275 79.4513 82.2737 80.1563 81.0546C80.8734 79.8146 80.849 80.3382 80.849 66.1609C80.849 51.8073 80.8843 52.4892 80.0729 51.1421C79.8336 50.7446 79.4278 50.2128 79.1712 49.9601C78.6266 49.4238 77.679 48.8384 76.8878 48.5494C76.3659 48.3588 75.7949 48.3435 68.1491 48.3146L59.9688 48.2837L59.9671 43.2559C59.9654 38.0057 59.9382 37.6437 59.4447 36.3036C59.1706 35.5592 58.3553 34.2405 57.6918 33.4687C55.6099 31.0467 52.0547 29.1303 48.0636 28.2787C45.5602 27.7447 42.4039 27.5947 39.9786 27.8947ZM45.3153 30.1466C49.8851 30.6207 54.1446 32.5712 56.1141 35.0916C56.7103 35.8545 57.2628 36.9039 57.468 37.6626C57.6713 38.4148 57.6641 39.843 57.4529 40.6418C57.1173 41.9105 56.1599 43.3341 54.8875 44.4566C53.7056 45.4991 51.7222 46.5708 49.821 47.194C47.8038 47.8552 45.0272 48.2905 42.8264 48.2905C40.6224 48.2905 37.8423 47.8541 35.8317 47.1928C34.3804 46.7153 32.6454 45.8561 31.6252 45.1098C30.4102 44.2208 29.2316 42.9384 28.7532 41.9846C28.2311 40.9437 28.0321 40.1656 28.0306 39.1585C28.026 36.2992 29.987 33.8076 33.6782 31.9826C35.459 31.1022 37.9387 30.4081 40.202 30.1567C41.3879 30.0251 44.0918 30.0197 45.3153 30.1466ZM41.9664 35.1152C40.4066 35.2555 38.8797 35.9354 38.0194 36.8734C36.7048 38.3062 36.7652 40.214 38.1678 41.5593C40.4935 43.7899 45.2064 43.788 47.4939 41.5556C48.2348 40.8325 48.577 40.0721 48.5704 39.1629C48.5674 38.7427 48.4833 38.2491 48.3664 37.9653C48.257 37.6998 47.9334 37.2211 47.6472 36.9014C46.4621 35.5779 44.3186 34.9039 41.9664 35.1152ZM44.4216 37.5715C45.2109 37.8024 45.9403 38.3029 46.1641 38.7672C46.3498 39.1527 46.3495 39.1895 46.156 39.5793C45.9034 40.0882 44.9984 40.6424 44.1301 40.8199C43.7887 40.8896 43.0541 40.9261 42.4978 40.9009C41.6969 40.8646 41.3432 40.7912 40.7993 40.5486C39.6821 40.0504 39.2021 39.4016 39.4762 38.7599C39.7368 38.1495 40.6574 37.6286 41.8771 37.4014C42.5004 37.2853 43.7225 37.3669 44.4216 37.5715ZM30.6337 47.1548C31.7996 47.9292 33.7658 48.873 35.1449 49.3201C36.7116 49.828 37.8521 50.1032 39.3644 50.3378C40.4785 50.5108 42.2451 50.5345 58.3494 50.5918L74.6695 50.6498C76.203 50.6552 77.3391 50.9046 78.1535 52.4144C79.333 54.6005 77.7557 57.1257 75.3954 57.2973C73.495 57.4356 69.0299 57.4182 57.4525 57.4182C44.2277 57.4182 39.2438 57.4518 38.9782 57.543C38.2983 57.7764 38.3035 57.7209 38.3035 64.7748V71.1488L37.3263 70.8903C35.8512 70.5002 34.8012 70.1038 33.4554 69.4291C32.0976 68.7484 30.8032 67.8372 30.0143 67.0066C29.3719 66.3305 28.7626 65.4053 28.3766 64.5202L28.0851 63.8515L28.0541 54.4091L28.0232 44.9668L28.9289 45.7954C29.4271 46.2511 30.1942 46.8629 30.6337 47.1548ZM57.6236 46.6409V48.2905L55.3621 48.2857L53.1006 48.2807L53.5335 48.0382C54.7317 47.3666 55.9774 46.4882 56.7301 45.7841C57.1908 45.3532 57.5803 44.9985 57.5956 44.996C57.6109 44.9934 57.6236 45.7337 57.6236 46.6409ZM78.6365 78.196C78.5843 78.23 78.5088 78.4981 78.4689 78.7918C78.3749 79.4851 77.9023 80.3301 77.3469 80.7982C76.6695 81.3692 75.8838 81.6119 74.7128 81.6119H73.7187L73.6839 78.7613C73.6495 75.9339 73.647 75.9085 73.3838 75.6329C73.0474 75.2805 72.5883 75.1801 72.0753 75.3469C71.4113 75.5627 71.3598 75.8193 71.3598 78.9141V81.6119H69.2449H67.13L67.0951 78.8154C67.0746 77.173 67.0005 76.5146 67.0005 76.1297C67.0005 74.7551 64.7709 74.7001 64.7709 76.1847V78.7687V81.6119H62.5932H60.4155V78.7477V76.2397C60.4155 74.81 58.1819 74.81 58.1819 76.2397V78.7477V81.6119H56.0042H53.8265V78.7687V76.2947C53.8265 75.8262 53.4975 75.4043 52.991 75.2792C52.5591 75.1725 52.0406 75.3555 51.7719 75.7096C51.5502 76.0018 51.5353 76.174 51.5023 78.8154L51.4674 81.6119H49.3526H47.2376V78.9141C47.2376 75.8193 47.1861 75.5627 46.5221 75.3469C46.0091 75.1801 45.55 75.2805 45.2136 75.6329C44.9504 75.9085 44.9479 75.9339 44.9135 78.7613L44.8787 81.6119H42.8774H40.8762L40.8748 70.672L40.8735 59.7322L58.6014 59.7024L74.3344 59.6759C75.7847 59.6735 77.0425 59.6543 78.3109 58.8635L78.6746 58.6367L78.7031 68.3854C78.7188 73.7472 78.6889 78.1619 78.6365 78.196Z" stroke="url(#paint3_linear_2021_116386)" stroke-width="0.936424" mask="url(#path-2-inside-1_2021_116386)"/>
</g>
<rect x="1.01228" y="1.2779" width="104.522" height="109.204" rx="9.4918" stroke="url(#paint4_linear_2021_116386)" stroke-width="0.975442"/>
<defs>
<filter id="filter0_b_2021_116386" x="23.0065" y="25.0495" width="60.5339" height="61.6589" filterUnits="userSpaceOnUse" color-interpolation-filters="sRGB">
<feFlood flood-opacity="0" result="BackgroundImageFix"/>
<feGaussianBlur in="BackgroundImageFix" stdDeviation="1.34635"/>
<feComposite in2="SourceAlpha" operator="in" result="effect1_backgroundBlur_2021_116386"/>
<feBlend mode="normal" in="SourceGraphic" in2="effect1_backgroundBlur_2021_116386" result="shape"/>
</filter>
<radialGradient id="paint0_radial_2021_116386" cx="0" cy="0" r="1" gradientUnits="userSpaceOnUse" gradientTransform="translate(24.739 95.629) rotate(-58.4659) scale(30.3748 34.9312)">
<stop stop-color="#6E6FF8"/>
<stop offset="1" stop-color="#6E6FF8" stop-opacity="0"/>
</radialGradient>
<radialGradient id="paint1_radial_2021_116386" cx="0" cy="0" r="1" gradientUnits="userSpaceOnUse" gradientTransform="translate(42.2779 23.5282) rotate(76.7737) scale(40.3921 35.9454)">
<stop stop-color="#DEA4F2"/>
<stop offset="1" stop-opacity="0"/>
</radialGradient>
<linearGradient id="paint2_linear_2021_116386" x1="25.6992" y1="91.1369" x2="79.2155" y2="38.3809" gradientUnits="userSpaceOnUse">
<stop stop-color="#686CF8"/>
<stop offset="1" stop-color="#ECABF1"/>
</linearGradient>
<linearGradient id="paint3_linear_2021_116386" x1="80.8492" y1="36.2174" x2="-0.230543" y2="62.1729" gradientUnits="userSpaceOnUse">
<stop stop-color="#9A7EBC" stop-opacity="0.7"/>
<stop offset="1" stop-color="#4F569F" stop-opacity="0.46"/>
</linearGradient>
<linearGradient id="paint4_linear_2021_116386" x1="-2.74981" y1="-1.93285" x2="123.49" y2="96.9375" gradientUnits="userSpaceOnUse">
<stop stop-color="#7E84BC" stop-opacity="0.4"/>
<stop offset="0.592787" stop-color="#37384A" stop-opacity="0.3"/>
<stop offset="0.930304" stop-color="#7379B5" stop-opacity="0.4"/>
</linearGradient>
</defs>
</svg>
