<svg width="22" height="23" viewBox="0 0 22 23" fill="none" xmlns="http://www.w3.org/2000/svg">
<path d="M3.82845 10.6276H9.10381C9.33699 10.6276 9.56063 10.5349 9.72552 10.37C9.8904 10.2052 9.98304 9.98153 9.98304 9.74834V4.47298C9.98304 4.23979 9.8904 4.01616 9.72552 3.85127C9.56063 3.68638 9.33699 3.59375 9.10381 3.59375H3.82845C3.59526 3.59375 3.37163 3.68638 3.20674 3.85127C3.04185 4.01616 2.94922 4.23979 2.94922 4.47298V9.74834C2.94922 9.98153 3.04185 10.2052 3.20674 10.37C3.37163 10.5349 3.59526 10.6276 3.82845 10.6276ZM4.70767 5.3522H8.22458V8.86911H4.70767V5.3522Z" fill="url(#paint0_linear_2021_116372)"/>
<path d="M12.6214 10.6276H17.8968C18.13 10.6276 18.3536 10.5349 18.5185 10.37C18.6834 10.2052 18.776 9.98153 18.776 9.74834V4.47298C18.776 4.23979 18.6834 4.01616 18.5185 3.85127C18.3536 3.68638 18.13 3.59375 17.8968 3.59375H12.6214C12.3882 3.59375 12.1646 3.68638 11.9997 3.85127C11.8348 4.01616 11.7422 4.23979 11.7422 4.47298V9.74834C11.7422 9.98153 11.8348 10.2052 11.9997 10.37C12.1646 10.5349 12.3882 10.6276 12.6214 10.6276ZM13.5006 5.3522H17.0175V8.86911H13.5006V5.3522Z" fill="url(#paint1_linear_2021_116372)"/>
<path d="M3.82845 19.4166H9.10381C9.33699 19.4166 9.56063 19.324 9.72552 19.1591C9.8904 18.9942 9.98304 18.7706 9.98304 18.5374V13.262C9.98304 13.0289 9.8904 12.8052 9.72552 12.6403C9.56063 12.4754 9.33699 12.3828 9.10381 12.3828H3.82845C3.59526 12.3828 3.37163 12.4754 3.20674 12.6403C3.04185 12.8052 2.94922 13.0289 2.94922 13.262V18.5374C2.94922 18.7706 3.04185 18.9942 3.20674 19.1591C3.37163 19.324 3.59526 19.4166 3.82845 19.4166ZM4.70767 14.1413H8.22458V17.6582H4.70767V14.1413Z" fill="url(#paint2_linear_2021_116372)"/>
<path d="M12.6214 19.4166H17.8968C18.13 19.4166 18.3536 19.324 18.5185 19.1591C18.6834 18.9942 18.776 18.7706 18.776 18.5374V13.262C18.776 13.0289 18.6834 12.8052 18.5185 12.6403C18.3536 12.4754 18.13 12.3828 17.8968 12.3828H12.6214C12.3882 12.3828 12.1646 12.4754 11.9997 12.6403C11.8348 12.8052 11.7422 13.0289 11.7422 13.262V18.5374C11.7422 18.7706 11.8348 18.9942 11.9997 19.1591C12.1646 19.324 12.3882 19.4166 12.6214 19.4166ZM13.5006 14.1413H17.0175V17.6582H13.5006V14.1413Z" fill="url(#paint3_linear_2021_116372)"/>
<defs>
<linearGradient id="paint0_linear_2021_116372" x1="10.5358" y1="10.5629" x2="1.09578" y2="4.42983" gradientUnits="userSpaceOnUse">
<stop stop-color="#5961F8"/>
<stop offset="1" stop-color="#F2D9F7"/>
</linearGradient>
<linearGradient id="paint1_linear_2021_116372" x1="19.3288" y1="10.5629" x2="9.88875" y2="4.42983" gradientUnits="userSpaceOnUse">
<stop stop-color="#5961F8"/>
<stop offset="1" stop-color="#F2D9F7"/>
</linearGradient>
<linearGradient id="paint2_linear_2021_116372" x1="10.5358" y1="19.352" x2="1.09578" y2="13.2189" gradientUnits="userSpaceOnUse">
<stop stop-color="#5961F8"/>
<stop offset="1" stop-color="#F2D9F7"/>
</linearGradient>
<linearGradient id="paint3_linear_2021_116372" x1="19.3288" y1="19.352" x2="9.88875" y2="13.2189" gradientUnits="userSpaceOnUse">
<stop stop-color="#5961F8"/>
<stop offset="1" stop-color="#F2D9F7"/>
</linearGradient>
</defs>
</svg>
