<svg width="396" height="299" viewBox="0 0 396 299" fill="none" xmlns="http://www.w3.org/2000/svg">
<rect y="0.171875" width="396" height="298" rx="4" fill="#15142A"/>
<path d="M136.09 120.443H139.913V119.143H136.09V115.319H134.789V119.143H130.966V120.443H134.789V124.267H136.09V120.443ZM149.599 112.208H148.017V120.531C148.017 123.238 149.906 125.189 153.053 125.189C156.199 125.189 158.089 123.238 158.089 120.531V112.208H156.507V120.426C156.507 122.342 155.25 123.73 153.053 123.73C150.856 123.73 149.599 122.342 149.599 120.426V112.208ZM165.788 115.249C164.496 115.249 163.363 115.908 162.756 116.998H162.615V115.416H161.174V128.055H162.686V123.467H162.826C163.345 124.469 164.435 125.058 165.788 125.058C168.197 125.058 169.77 123.115 169.77 120.153C169.77 117.174 168.205 115.249 165.788 115.249ZM165.428 123.695C163.723 123.695 162.642 122.324 162.642 120.153C162.642 117.974 163.723 116.611 165.437 116.611C167.168 116.611 168.205 117.938 168.205 120.153C168.205 122.368 167.168 123.695 165.428 123.695ZM172.231 124.891H173.742V111.654H172.231V124.891ZM180.572 125.058C183.27 125.058 184.94 123.194 184.94 120.153C184.94 117.104 183.27 115.249 180.572 115.249C177.873 115.249 176.203 117.104 176.203 120.153C176.203 123.194 177.873 125.058 180.572 125.058ZM180.572 123.695C178.779 123.695 177.768 122.395 177.768 120.153C177.768 117.903 178.779 116.611 180.572 116.611C182.365 116.611 183.375 117.903 183.375 120.153C183.375 122.395 182.365 123.695 180.572 123.695ZM190.231 123.73C189.132 123.73 188.315 123.168 188.315 122.201C188.315 121.252 188.948 120.751 190.389 120.654L192.938 120.487V121.357C192.938 122.711 191.786 123.73 190.231 123.73ZM189.949 125.058C191.215 125.058 192.252 124.504 192.867 123.493H193.008V124.891H194.449V118.404C194.449 116.436 193.157 115.249 190.846 115.249C188.824 115.249 187.33 116.251 187.128 117.771H188.657C188.868 117.024 189.659 116.594 190.793 116.594C192.208 116.594 192.938 117.235 192.938 118.404V119.266L190.204 119.433C187.998 119.564 186.75 120.54 186.75 122.236C186.75 123.968 188.113 125.058 189.949 125.058ZM200.751 125.058C202.061 125.058 203.186 124.434 203.783 123.379H203.924V124.891H205.365V111.654H203.854V116.91H203.722C203.186 115.873 202.07 115.249 200.751 115.249C198.343 115.249 196.77 117.183 196.77 120.153C196.77 123.133 198.325 125.058 200.751 125.058ZM201.103 116.611C202.817 116.611 203.889 117.982 203.889 120.153C203.889 122.342 202.825 123.695 201.103 123.695C199.371 123.695 198.334 122.368 198.334 120.153C198.334 117.947 199.38 116.611 201.103 116.611ZM213.574 112.208V124.891H215.156V120.364H218.347C220.729 120.364 222.425 118.686 222.425 116.312C222.425 113.896 220.764 112.208 218.365 112.208H213.574ZM215.156 113.614H217.951C219.788 113.614 220.799 114.572 220.799 116.312C220.799 117.991 219.753 118.958 217.951 118.958H215.156V113.614ZM224.824 124.891H226.336V119.02C226.336 117.684 227.382 116.717 228.823 116.717C229.122 116.717 229.667 116.77 229.79 116.805V115.293C229.597 115.267 229.281 115.249 229.034 115.249C227.778 115.249 226.688 115.899 226.406 116.822H226.266V115.416H224.824V124.891ZM235.31 125.058C238.008 125.058 239.678 123.194 239.678 120.153C239.678 117.104 238.008 115.249 235.31 115.249C232.612 115.249 230.942 117.104 230.942 120.153C230.942 123.194 232.612 125.058 235.31 125.058ZM235.31 123.695C233.517 123.695 232.506 122.395 232.506 120.153C232.506 117.903 233.517 116.611 235.31 116.611C237.103 116.611 238.114 117.903 238.114 120.153C238.114 122.395 237.103 123.695 235.31 123.695ZM242.684 124.891H244.196V116.682H246.366V115.416H244.196V114.405C244.196 113.368 244.653 112.841 245.742 112.841C246.015 112.841 246.27 112.85 246.454 112.885V111.654C246.138 111.593 245.804 111.566 245.435 111.566C243.633 111.566 242.684 112.472 242.684 114.361V115.416H241.111V116.682H242.684V124.891ZM248.608 124.891H250.119V115.416H248.608V124.891ZM249.364 113.491C249.944 113.491 250.418 113.017 250.418 112.437C250.418 111.856 249.944 111.382 249.364 111.382C248.783 111.382 248.309 111.856 248.309 112.437C248.309 113.017 248.783 113.491 249.364 113.491ZM253.09 124.891H254.602V111.654H253.09V124.891ZM261.317 116.585C262.82 116.585 263.822 117.692 263.857 119.371H258.636C258.75 117.692 259.805 116.585 261.317 116.585ZM263.813 122.438C263.417 123.273 262.591 123.722 261.369 123.722C259.761 123.722 258.715 122.535 258.636 120.663V120.593H265.448V120.013C265.448 117.068 263.892 115.249 261.334 115.249C258.733 115.249 257.063 117.183 257.063 120.162C257.063 123.159 258.706 125.058 261.334 125.058C263.408 125.058 264.867 124.064 265.324 122.438H263.813Z" fill="#6E8DD7"/>
<path d="M107.965 145.058C110.663 145.058 112.333 143.194 112.333 140.153C112.333 137.104 110.663 135.249 107.965 135.249C105.267 135.249 103.597 137.104 103.597 140.153C103.597 143.194 105.267 145.058 107.965 145.058ZM107.965 143.695C106.172 143.695 105.161 142.395 105.161 140.153C105.161 137.903 106.172 136.611 107.965 136.611C109.758 136.611 110.769 137.903 110.769 140.153C110.769 142.395 109.758 143.695 107.965 143.695ZM114.706 144.891H116.218V139.02C116.218 137.684 117.264 136.717 118.705 136.717C119.004 136.717 119.549 136.77 119.672 136.805V135.293C119.479 135.267 119.162 135.249 118.916 135.249C117.659 135.249 116.57 135.899 116.288 136.822H116.148V135.416H114.706V144.891ZM130.149 145.058C131.458 145.058 132.583 144.434 133.181 143.379H133.322V144.891H134.763V131.654H133.251V136.91H133.119C132.583 135.873 131.467 135.249 130.149 135.249C127.74 135.249 126.167 137.183 126.167 140.153C126.167 143.133 127.723 145.058 130.149 145.058ZM130.5 136.611C132.214 136.611 133.286 137.982 133.286 140.153C133.286 142.342 132.223 143.695 130.5 143.695C128.769 143.695 127.732 142.368 127.732 140.153C127.732 137.947 128.778 136.611 130.5 136.611ZM137.698 144.891H139.21V139.02C139.21 137.684 140.256 136.717 141.698 136.717C141.996 136.717 142.541 136.77 142.664 136.805V135.293C142.471 135.267 142.155 135.249 141.908 135.249C140.652 135.249 139.562 135.899 139.281 136.822H139.14V135.416H137.698V144.891ZM148.184 145.058C150.882 145.058 152.552 143.194 152.552 140.153C152.552 137.104 150.882 135.249 148.184 135.249C145.486 135.249 143.816 137.104 143.816 140.153C143.816 143.194 145.486 145.058 148.184 145.058ZM148.184 143.695C146.391 143.695 145.38 142.395 145.38 140.153C145.38 137.903 146.391 136.611 148.184 136.611C149.977 136.611 150.988 137.903 150.988 140.153C150.988 142.395 149.977 143.695 148.184 143.695ZM159.539 135.249C158.247 135.249 157.114 135.908 156.507 136.998H156.366V135.416H154.925V148.055H156.437V143.467H156.577C157.096 144.469 158.186 145.058 159.539 145.058C161.948 145.058 163.521 143.115 163.521 140.153C163.521 137.174 161.956 135.249 159.539 135.249ZM159.179 143.695C157.474 143.695 156.393 142.324 156.393 140.153C156.393 137.974 157.474 136.611 159.188 136.611C160.919 136.611 161.956 137.938 161.956 140.153C161.956 142.368 160.919 143.695 159.179 143.695ZM172.749 144.891V139.397H178.365V137.991H172.749V133.632H178.866V132.208H171.167V144.891H172.749ZM181.31 144.891H182.822V135.416H181.31V144.891ZM182.066 133.491C182.646 133.491 183.12 133.017 183.12 132.437C183.12 131.856 182.646 131.382 182.066 131.382C181.486 131.382 181.011 131.856 181.011 132.437C181.011 133.017 181.486 133.491 182.066 133.491ZM185.792 144.891H187.304V131.654H185.792V144.891ZM194.019 136.585C195.522 136.585 196.524 137.692 196.559 139.371H191.338C191.452 137.692 192.507 136.585 194.019 136.585ZM196.515 142.438C196.119 143.273 195.293 143.722 194.072 143.722C192.463 143.722 191.417 142.535 191.338 140.663V140.593H198.15V140.013C198.15 137.068 196.594 135.249 194.036 135.249C191.435 135.249 189.765 137.183 189.765 140.162C189.765 143.159 191.408 145.058 194.036 145.058C196.111 145.058 197.57 144.064 198.027 142.438H196.515ZM200.303 138.009C200.303 139.38 201.112 140.145 202.887 140.575L204.513 140.971C205.524 141.217 206.016 141.656 206.016 142.307C206.016 143.177 205.102 143.783 203.827 143.783C202.615 143.783 201.859 143.273 201.604 142.474H200.048C200.215 144.047 201.665 145.058 203.775 145.058C205.928 145.058 207.572 143.889 207.572 142.192C207.572 140.83 206.71 140.057 204.926 139.626L203.467 139.274C202.351 139.002 201.823 138.598 201.823 137.947C201.823 137.104 202.702 136.532 203.827 136.532C204.97 136.532 205.708 137.033 205.91 137.789H207.405C207.202 136.233 205.823 135.249 203.836 135.249C201.823 135.249 200.303 136.436 200.303 138.009ZM215.657 132.964V135.416H214.128V136.682H215.657V142.43C215.657 144.24 216.44 144.961 218.391 144.961C218.69 144.961 218.98 144.926 219.279 144.873V143.599C218.997 143.625 218.848 143.634 218.575 143.634C217.591 143.634 217.169 143.159 217.169 142.043V136.682H219.279V135.416H217.169V132.964H215.657ZM225.317 145.058C228.015 145.058 229.685 143.194 229.685 140.153C229.685 137.104 228.015 135.249 225.317 135.249C222.618 135.249 220.948 137.104 220.948 140.153C220.948 143.194 222.618 145.058 225.317 145.058ZM225.317 143.695C223.524 143.695 222.513 142.395 222.513 140.153C222.513 137.903 223.524 136.611 225.317 136.611C227.11 136.611 228.12 137.903 228.12 140.153C228.12 142.395 227.11 143.695 225.317 143.695ZM244.802 135.416H243.29V141.023C243.29 142.685 242.376 143.678 240.706 143.678C239.195 143.678 238.562 142.887 238.562 141.182V135.416H237.05V141.551C237.05 143.792 238.157 145.058 240.284 145.058C241.735 145.058 242.745 144.46 243.22 143.405H243.361V144.891H244.802V135.416ZM252.264 135.249C250.972 135.249 249.838 135.908 249.232 136.998H249.091V135.416H247.65V148.055H249.161V143.467H249.302C249.821 144.469 250.91 145.058 252.264 145.058C254.672 145.058 256.245 143.115 256.245 140.153C256.245 137.174 254.681 135.249 252.264 135.249ZM251.904 143.695C250.198 143.695 249.117 142.324 249.117 140.153C249.117 137.974 250.198 136.611 251.912 136.611C253.644 136.611 254.681 137.938 254.681 140.153C254.681 142.368 253.644 143.695 251.904 143.695ZM258.706 144.891H260.218V131.654H258.706V144.891ZM267.047 145.058C269.745 145.058 271.415 143.194 271.415 140.153C271.415 137.104 269.745 135.249 267.047 135.249C264.349 135.249 262.679 137.104 262.679 140.153C262.679 143.194 264.349 145.058 267.047 145.058ZM267.047 143.695C265.254 143.695 264.243 142.395 264.243 140.153C264.243 137.903 265.254 136.611 267.047 136.611C268.84 136.611 269.851 137.903 269.851 140.153C269.851 142.395 268.84 143.695 267.047 143.695ZM276.706 143.73C275.608 143.73 274.79 143.168 274.79 142.201C274.79 141.252 275.423 140.751 276.865 140.654L279.413 140.487V141.357C279.413 142.711 278.262 143.73 276.706 143.73ZM276.425 145.058C277.691 145.058 278.728 144.504 279.343 143.493H279.484V144.891H280.925V138.404C280.925 136.436 279.633 135.249 277.322 135.249C275.3 135.249 273.806 136.251 273.604 137.771H275.133C275.344 137.024 276.135 136.594 277.269 136.594C278.684 136.594 279.413 137.235 279.413 138.404V139.266L276.68 139.433C274.474 139.564 273.226 140.54 273.226 142.236C273.226 143.968 274.588 145.058 276.425 145.058ZM287.227 145.058C288.536 145.058 289.661 144.434 290.259 143.379H290.4V144.891H291.841V131.654H290.329V136.91H290.198C289.661 135.873 288.545 135.249 287.227 135.249C284.819 135.249 283.245 137.183 283.245 140.153C283.245 143.133 284.801 145.058 287.227 145.058ZM287.578 136.611C289.292 136.611 290.365 137.982 290.365 140.153C290.365 142.342 289.301 143.695 287.578 143.695C285.847 143.695 284.81 142.368 284.81 140.153C284.81 137.947 285.856 136.611 287.578 136.611Z" fill="#5C6D8E"/>
</svg>
