<svg width="50" height="50" viewBox="0 0 50 50" fill="none" xmlns="http://www.w3.org/2000/svg">
<rect x="0.5" y="0.5" width="49" height="49" fill="#1A192C" stroke="#464964"/>
<path d="M16.2468 32.4468C16.0516 32.6421 16.0516 32.9587 16.2468 33.1539C16.4421 33.3492 16.7587 33.3492 16.9539 33.1539L16.2468 32.4468ZM21.4004 28.0004L21.7539 27.6468C21.5587 27.4516 21.2421 27.4516 21.0468 27.6468L21.4004 28.0004ZM23.8004 30.4004L23.4468 30.7539C23.6421 30.9492 23.9587 30.9492 24.1539 30.7539L23.8004 30.4004ZM29.2004 25.0004L29.5539 24.6468C29.3587 24.4516 29.0421 24.4516 28.8468 24.6468L29.2004 25.0004ZM33.6468 30.1539C33.8421 30.3492 34.1587 30.3492 34.3539 30.1539C34.5492 29.9587 34.5492 29.6421 34.3539 29.4468L33.6468 30.1539ZM16.9539 33.1539L21.7539 28.3539L21.0468 27.6468L16.2468 32.4468L16.9539 33.1539ZM21.0468 28.3539L23.4468 30.7539L24.1539 30.0468L21.7539 27.6468L21.0468 28.3539ZM24.1539 30.7539L29.5539 25.3539L28.8468 24.6468L23.4468 30.0468L24.1539 30.7539ZM28.8468 25.3539L33.6468 30.1539L34.3539 29.4468L29.5539 24.6468L28.8468 25.3539ZM19.0004 15.9004H31.0004V14.9004H19.0004V15.9004ZM34.1004 19.0004V31.0004H35.1004V19.0004H34.1004ZM31.0004 34.1004H19.0004V35.1004H31.0004V34.1004ZM15.9004 31.0004V19.0004H14.9004V31.0004H15.9004ZM19.0004 34.1004C17.2883 34.1004 15.9004 32.7125 15.9004 31.0004H14.9004C14.9004 33.2648 16.736 35.1004 19.0004 35.1004V34.1004ZM34.1004 31.0004C34.1004 32.7125 32.7125 34.1004 31.0004 34.1004V35.1004C33.2648 35.1004 35.1004 33.2648 35.1004 31.0004H34.1004ZM31.0004 15.9004C32.7125 15.9004 34.1004 17.2883 34.1004 19.0004H35.1004C35.1004 16.736 33.2648 14.9004 31.0004 14.9004V15.9004ZM19.0004 14.9004C16.736 14.9004 14.9004 16.736 14.9004 19.0004H15.9004C15.9004 17.2883 17.2883 15.9004 19.0004 15.9004V14.9004ZM22.1004 20.8004C22.1004 21.5184 21.5184 22.1004 20.8004 22.1004V23.1004C22.0706 23.1004 23.1004 22.0706 23.1004 20.8004H22.1004ZM20.8004 22.1004C20.0824 22.1004 19.5004 21.5184 19.5004 20.8004H18.5004C18.5004 22.0706 19.5301 23.1004 20.8004 23.1004V22.1004ZM19.5004 20.8004C19.5004 20.0824 20.0824 19.5004 20.8004 19.5004V18.5004C19.5301 18.5004 18.5004 19.5301 18.5004 20.8004H19.5004ZM20.8004 19.5004C21.5184 19.5004 22.1004 20.0824 22.1004 20.8004H23.1004C23.1004 19.5301 22.0706 18.5004 20.8004 18.5004V19.5004Z" fill="#464964"/>
</svg>
