<svg width="18" height="11" viewBox="0 0 18 11" fill="none" xmlns="http://www.w3.org/2000/svg">
<path fill-rule="evenodd" clip-rule="evenodd" d="M13.2572 0.804169C13.5684 1.10804 13.5743 1.60662 13.2704 1.91778L5.58002 9.79278C5.42506 9.95146 5.21037 10.0374 4.98872 10.0296C4.76706 10.0217 4.559 9.92076 4.41566 9.75151L1.08109 5.81401C0.80002 5.48211 0.841219 4.9852 1.17312 4.70412C1.50501 4.42305 2.00192 4.46425 2.283 4.79615L5.05807 8.07299L12.1436 0.817373C12.4475 0.506211 12.9461 0.500299 13.2572 0.804169Z" fill="url(#paint0_linear_5544_352820)"/>
<path fill-rule="evenodd" clip-rule="evenodd" d="M17.7611 0.804169C18.0723 1.10804 18.0782 1.60662 17.7743 1.91778L10.0839 9.79278C9.92897 9.95146 9.71428 10.0374 9.49262 10.0296C9.27097 10.0217 9.0629 9.92076 8.91957 9.75151L5.585 5.81401C5.30393 5.48211 5.34512 4.9852 5.67702 4.70412C6.00892 4.42305 6.50583 4.46425 6.78691 4.79615L9.56198 8.07299L16.6475 0.817373C16.9514 0.506211 17.45 0.500299 17.7611 0.804169Z" fill="url(#paint1_linear_5544_352820)"/>
<defs>
<linearGradient id="paint0_linear_5544_352820" x1="14.4847" y1="9.9432" x2="0.746014" y2="-1.95797" gradientUnits="userSpaceOnUse">
<stop stop-color="#5961F8"/>
<stop offset="1" stop-color="#F2D9F7"/>
</linearGradient>
<linearGradient id="paint1_linear_5544_352820" x1="18.9886" y1="9.9432" x2="5.24992" y2="-1.95797" gradientUnits="userSpaceOnUse">
<stop stop-color="#5961F8"/>
<stop offset="1" stop-color="#F2D9F7"/>
</linearGradient>
</defs>
</svg>
