<svg width="50" height="50" viewBox="0 0 50 50" fill="none" xmlns="http://www.w3.org/2000/svg">
<rect x="0.5" y="0.5" width="49" height="49" fill="#1A192C" stroke="#464964"/>
<path d="M29.2244 25C28.706 25.5887 28.0593 26.0619 27.3296 26.3865C26.5999 26.7111 25.8048 26.8793 25 26.8793C24.1952 26.8793 23.4001 26.7111 22.6704 26.3865C21.9407 26.0619 21.294 25.5887 20.7756 25C19.6236 25.6831 18.6724 26.6355 18.0119 27.7674C17.3513 28.8994 17.0031 30.1735 17 31.4698C17 31.8757 17.1686 32.2649 17.4686 32.5518C17.7687 32.8388 18.1757 33 18.6 33H31.4C31.8243 33 32.2313 32.8388 32.5314 32.5518C32.8314 32.2649 33 31.8757 33 31.4698C32.9969 30.1735 32.6487 28.8994 31.9881 27.7674C31.3276 26.6355 30.3764 25.6831 29.2244 25Z" stroke="#464964"/>
<path d="M25 24C24.2089 24 23.4355 23.7654 22.7777 23.3259C22.1199 22.8864 21.6072 22.2616 21.3045 21.5307C21.0017 20.7998 20.9225 19.9956 21.0769 19.2196C21.2312 18.4437 21.6122 17.731 22.1716 17.1716C22.731 16.6122 23.4437 16.2312 24.2196 16.0769C24.9956 15.9225 25.7998 16.0017 26.5307 16.3045C27.2616 16.6072 27.8864 17.1199 28.3259 17.7777C28.7654 18.4355 29 19.2089 29 20C28.9987 21.0605 28.5769 22.0771 27.827 22.827C27.0771 23.5769 26.0605 23.9987 25 24Z" stroke="#464964"/>
</svg>
