<svg width="396" height="300" viewBox="0 0 396 300" fill="none" xmlns="http://www.w3.org/2000/svg">
<rect width="396" height="300" rx="4" fill="#15142A"/>
<path d="M145.74 120.326H149.678V124.352H151.102V120.326H155.039V118.902H151.102V114.877H149.678V118.902H145.74V120.326ZM161.728 124.721H163.389L164.663 121.091H169.708L170.983 124.721H172.644L167.968 112.038H166.404L161.728 124.721ZM167.115 114.086H167.256L169.242 119.746H165.129L167.115 114.086ZM177.645 124.888C178.963 124.888 180.018 124.264 180.598 123.209H180.739V124.721H182.268V111.484H180.739V116.74H180.598C180.079 115.729 178.946 115.079 177.645 115.079C175.237 115.079 173.672 117.004 173.672 119.975V119.992C173.672 122.945 175.245 124.888 177.645 124.888ZM177.996 123.534C176.265 123.534 175.237 122.198 175.237 119.992V119.975C175.237 117.769 176.265 116.433 177.996 116.433C179.719 116.433 180.774 117.786 180.774 119.975V119.992C180.774 122.181 179.719 123.534 177.996 123.534ZM188.701 124.888C190.02 124.888 191.074 124.264 191.655 123.209H191.795V124.721H193.324V111.484H191.795V116.74H191.655C191.136 115.729 190.002 115.079 188.701 115.079C186.293 115.079 184.729 117.004 184.729 119.975V119.992C184.729 122.945 186.302 124.888 188.701 124.888ZM189.053 123.534C187.322 123.534 186.293 122.198 186.293 119.992V119.975C186.293 117.769 187.322 116.433 189.053 116.433C190.776 116.433 191.83 117.786 191.83 119.975V119.992C191.83 122.181 190.776 123.534 189.053 123.534ZM201.323 124.721H202.852V118.85C202.852 117.514 203.792 116.433 205.031 116.433C206.227 116.433 207 117.162 207 118.287V124.721H208.53V118.63C208.53 117.426 209.4 116.433 210.718 116.433C212.054 116.433 212.696 117.127 212.696 118.524V124.721H214.225V118.173C214.225 116.187 213.144 115.079 211.21 115.079C209.901 115.079 208.82 115.738 208.31 116.74H208.169C207.73 115.756 206.833 115.079 205.55 115.079C204.311 115.079 203.414 115.668 202.992 116.688H202.852V115.246H201.323V124.721ZM220.852 124.888C223.084 124.888 224.438 123.622 224.763 122.339L224.781 122.269H223.251L223.216 122.348C222.961 122.919 222.17 123.525 220.887 123.525C219.199 123.525 218.118 122.383 218.074 120.423H224.895V119.825C224.895 116.995 223.33 115.079 220.755 115.079C218.18 115.079 216.51 117.083 216.51 120.01V120.019C216.51 122.989 218.145 124.888 220.852 124.888ZM220.746 116.441C222.144 116.441 223.181 117.329 223.339 119.201H218.101C218.268 117.399 219.34 116.441 220.746 116.441ZM230.766 124.888C232.084 124.888 233.139 124.264 233.719 123.209H233.86V124.721H235.389V111.484H233.86V116.74H233.719C233.2 115.729 232.067 115.079 230.766 115.079C228.358 115.079 226.793 117.004 226.793 119.975V119.992C226.793 122.945 228.366 124.888 230.766 124.888ZM231.117 123.534C229.386 123.534 228.358 122.198 228.358 119.992V119.975C228.358 117.769 229.386 116.433 231.117 116.433C232.84 116.433 233.895 117.786 233.895 119.975V119.992C233.895 122.181 232.84 123.534 231.117 123.534ZM239.133 113.418C239.713 113.418 240.188 112.943 240.188 112.363C240.188 111.783 239.713 111.309 239.133 111.309C238.553 111.309 238.078 111.783 238.078 112.363C238.078 112.943 238.553 113.418 239.133 113.418ZM238.36 124.721H239.889V115.246H238.36V124.721ZM245.373 124.888C246.648 124.888 247.641 124.334 248.239 123.323H248.379V124.721H249.908V118.234C249.908 116.266 248.616 115.079 246.305 115.079C244.283 115.079 242.842 116.081 242.596 117.566L242.587 117.619H244.116L244.125 117.593C244.371 116.854 245.118 116.433 246.252 116.433C247.667 116.433 248.379 117.065 248.379 118.234V119.096L245.663 119.263C243.457 119.395 242.209 120.37 242.209 122.058V122.075C242.209 123.798 243.572 124.888 245.373 124.888ZM243.774 122.04V122.022C243.774 121.082 244.406 120.572 245.848 120.484L248.379 120.326V121.188C248.379 122.541 247.245 123.561 245.69 123.561C244.591 123.561 243.774 122.998 243.774 122.04Z" fill="#6E8DD7"/>
<path d="M107.956 154.888C110.655 154.888 112.324 153.024 112.324 149.992V149.975C112.324 146.934 110.655 145.079 107.956 145.079C105.258 145.079 103.588 146.934 103.588 149.975V149.992C103.588 153.024 105.258 154.888 107.956 154.888ZM107.956 153.534C106.163 153.534 105.153 152.225 105.153 149.992V149.975C105.153 147.733 106.163 146.433 107.956 146.433C109.749 146.433 110.76 147.733 110.76 149.975V149.992C110.76 152.225 109.749 153.534 107.956 153.534ZM114.698 154.721H116.227V148.85C116.227 147.461 117.264 146.538 118.723 146.538C119.057 146.538 119.347 146.573 119.663 146.626V145.141C119.514 145.114 119.189 145.079 118.899 145.079C117.615 145.079 116.728 145.659 116.367 146.652H116.227V145.246H114.698V154.721ZM130.114 154.888C131.432 154.888 132.487 154.264 133.067 153.209H133.207V154.721H134.737V141.484H133.207V146.74H133.067C132.548 145.729 131.414 145.079 130.114 145.079C127.705 145.079 126.141 147.004 126.141 149.975V149.992C126.141 152.945 127.714 154.888 130.114 154.888ZM130.465 153.534C128.734 153.534 127.705 152.198 127.705 149.992V149.975C127.705 147.769 128.734 146.433 130.465 146.433C132.188 146.433 133.242 147.786 133.242 149.975V149.992C133.242 152.181 132.188 153.534 130.465 153.534ZM137.672 154.721H139.201V148.85C139.201 147.461 140.239 146.538 141.698 146.538C142.031 146.538 142.322 146.573 142.638 146.626V145.141C142.489 145.114 142.163 145.079 141.873 145.079C140.59 145.079 139.702 145.659 139.342 146.652H139.201V145.246H137.672V154.721ZM148.157 154.888C150.856 154.888 152.526 153.024 152.526 149.992V149.975C152.526 146.934 150.856 145.079 148.157 145.079C145.459 145.079 143.789 146.934 143.789 149.975V149.992C143.789 153.024 145.459 154.888 148.157 154.888ZM148.157 153.534C146.365 153.534 145.354 152.225 145.354 149.992V149.975C145.354 147.733 146.365 146.433 148.157 146.433C149.95 146.433 150.961 147.733 150.961 149.975V149.992C150.961 152.225 149.95 153.534 148.157 153.534ZM154.899 157.885H156.428V153.227H156.569C157.087 154.237 158.221 154.888 159.522 154.888C161.93 154.888 163.494 152.963 163.494 149.992V149.975C163.494 147.021 161.921 145.079 159.522 145.079C158.203 145.079 157.149 145.703 156.569 146.758H156.428V145.246H154.899V157.885ZM159.17 153.534C157.448 153.534 156.393 152.181 156.393 149.992V149.975C156.393 147.786 157.448 146.433 159.17 146.433C160.902 146.433 161.93 147.769 161.93 149.975V149.992C161.93 152.198 160.902 153.534 159.17 153.534ZM171.141 154.721H172.723V149.228H178.339V147.821H172.723V143.462H178.84V142.038H171.141V154.721ZM182.057 143.418C182.637 143.418 183.112 142.943 183.112 142.363C183.112 141.783 182.637 141.309 182.057 141.309C181.477 141.309 181.002 141.783 181.002 142.363C181.002 142.943 181.477 143.418 182.057 143.418ZM181.283 154.721H182.813V145.246H181.283V154.721ZM185.783 154.721H187.313V141.484H185.783V154.721ZM194.115 154.888C196.348 154.888 197.701 153.622 198.027 152.339L198.044 152.269H196.515L196.48 152.348C196.225 152.919 195.434 153.525 194.151 153.525C192.463 153.525 191.382 152.383 191.338 150.423H198.158V149.825C198.158 146.995 196.594 145.079 194.019 145.079C191.444 145.079 189.774 147.083 189.774 150.01V150.019C189.774 152.989 191.408 154.888 194.115 154.888ZM194.01 146.441C195.407 146.441 196.445 147.329 196.603 149.201H191.365C191.531 147.399 192.604 146.441 194.01 146.441ZM203.783 154.888C205.937 154.888 207.58 153.719 207.58 152.031V152.014C207.58 150.66 206.719 149.887 204.935 149.456L203.476 149.104C202.36 148.832 201.885 148.428 201.885 147.786V147.769C201.885 146.934 202.711 146.354 203.836 146.354C204.979 146.354 205.717 146.872 205.919 147.619H207.422C207.211 146.072 205.831 145.079 203.845 145.079C201.832 145.079 200.321 146.266 200.321 147.839V147.848C200.321 149.21 201.12 149.983 202.896 150.405L204.364 150.757C205.532 151.038 206.016 151.486 206.016 152.128V152.146C206.016 153.007 205.111 153.613 203.836 153.613C202.623 153.613 201.867 153.095 201.613 152.304H200.048C200.224 153.868 201.674 154.888 203.783 154.888ZM218.382 154.791C218.681 154.791 218.971 154.756 219.27 154.703V153.402C218.989 153.429 218.839 153.438 218.567 153.438C217.582 153.438 217.196 152.989 217.196 151.873V146.512H219.27V145.246H217.196V142.794H215.614V145.246H214.119V146.512H215.614V152.26C215.614 154.07 216.431 154.791 218.382 154.791ZM225.308 154.888C228.006 154.888 229.676 153.024 229.676 149.992V149.975C229.676 146.934 228.006 145.079 225.308 145.079C222.61 145.079 220.94 146.934 220.94 149.975V149.992C220.94 153.024 222.61 154.888 225.308 154.888ZM225.308 153.534C223.515 153.534 222.504 152.225 222.504 149.992V149.975C222.504 147.733 223.515 146.433 225.308 146.433C227.101 146.433 228.112 147.733 228.112 149.975V149.992C228.112 152.225 227.101 153.534 225.308 153.534ZM240.284 154.888C241.673 154.888 242.631 154.316 243.097 153.306H243.238V154.721H244.767V145.246H243.238V150.854C243.238 152.515 242.35 153.534 240.68 153.534C239.168 153.534 238.553 152.717 238.553 151.012V145.246H237.024V151.381C237.024 153.622 238.131 154.888 240.284 154.888ZM247.623 157.885H249.153V153.227H249.293C249.812 154.237 250.946 154.888 252.246 154.888C254.655 154.888 256.219 152.963 256.219 149.992V149.975C256.219 147.021 254.646 145.079 252.246 145.079C250.928 145.079 249.873 145.703 249.293 146.758H249.153V145.246H247.623V157.885ZM251.895 153.534C250.172 153.534 249.117 152.181 249.117 149.992V149.975C249.117 147.786 250.172 146.433 251.895 146.433C253.626 146.433 254.655 147.769 254.655 149.975V149.992C254.655 152.198 253.626 153.534 251.895 153.534ZM258.698 154.721H260.227V141.484H258.698V154.721ZM267.056 154.888C269.754 154.888 271.424 153.024 271.424 149.992V149.975C271.424 146.934 269.754 145.079 267.056 145.079C264.358 145.079 262.688 146.934 262.688 149.975V149.992C262.688 153.024 264.358 154.888 267.056 154.888ZM267.056 153.534C265.263 153.534 264.252 152.225 264.252 149.992V149.975C264.252 147.733 265.263 146.433 267.056 146.433C268.849 146.433 269.86 147.733 269.86 149.975V149.992C269.86 152.225 268.849 153.534 267.056 153.534ZM276.399 154.888C277.673 154.888 278.666 154.334 279.264 153.323H279.405V154.721H280.934V148.234C280.934 146.266 279.642 145.079 277.33 145.079C275.309 145.079 273.867 146.081 273.621 147.566L273.613 147.619H275.142L275.151 147.593C275.397 146.854 276.144 146.433 277.278 146.433C278.693 146.433 279.405 147.065 279.405 148.234V149.096L276.689 149.263C274.483 149.395 273.235 150.37 273.235 152.058V152.075C273.235 153.798 274.597 154.888 276.399 154.888ZM274.799 152.04V152.022C274.799 151.082 275.432 150.572 276.873 150.484L279.405 150.326V151.188C279.405 152.541 278.271 153.561 276.715 153.561C275.616 153.561 274.799 152.998 274.799 152.04ZM287.227 154.888C288.545 154.888 289.6 154.264 290.18 153.209H290.321V154.721H291.85V141.484H290.321V146.74H290.18C289.661 145.729 288.528 145.079 287.227 145.079C284.819 145.079 283.254 147.004 283.254 149.975V149.992C283.254 152.945 284.827 154.888 287.227 154.888ZM287.578 153.534C285.847 153.534 284.819 152.198 284.819 149.992V149.975C284.819 147.769 285.847 146.433 287.578 146.433C289.301 146.433 290.356 147.786 290.356 149.975V149.992C290.356 152.181 289.301 153.534 287.578 153.534Z" fill="#5C6D8E"/>
</svg>
