<svg width="24" height="25" viewBox="0 0 24 25" fill="none" xmlns="http://www.w3.org/2000/svg">
<path d="M4 11.6995H10C10.2652 11.6995 10.5196 11.5941 10.7071 11.4066C10.8946 11.2191 11 10.9647 11 10.6995V4.69949C11 4.43428 10.8946 4.17992 10.7071 3.99239C10.5196 3.80485 10.2652 3.69949 10 3.69949H4C3.73478 3.69949 3.48043 3.80485 3.29289 3.99239C3.10536 4.17992 3 4.43428 3 4.69949V10.6995C3 10.9647 3.10536 11.2191 3.29289 11.4066C3.48043 11.5941 3.73478 11.6995 4 11.6995ZM5 5.69949H9V9.69949H5V5.69949Z" fill="#C8D8FF"/>
<path d="M14 11.6995H20C20.2652 11.6995 20.5196 11.5941 20.7071 11.4066C20.8947 11.2191 21 10.9647 21 10.6995V4.69949C21 4.43428 20.8947 4.17992 20.7071 3.99239C20.5196 3.80485 20.2652 3.69949 20 3.69949H14C13.7348 3.69949 13.4805 3.80485 13.2929 3.99239C13.1054 4.17992 13 4.43428 13 4.69949V10.6995C13 10.9647 13.1054 11.2191 13.2929 11.4066C13.4805 11.5941 13.7348 11.6995 14 11.6995ZM15 5.69949H19V9.69949H15V5.69949Z" fill="#C8D8FF"/>
<path d="M4 21.6995H10C10.2652 21.6995 10.5196 21.5942 10.7071 21.4066C10.8946 21.2191 11 20.9647 11 20.6995V14.6995C11 14.4343 10.8946 14.18 10.7071 13.9924C10.5196 13.8049 10.2652 13.6995 10 13.6995H4C3.73478 13.6995 3.48043 13.8049 3.29289 13.9924C3.10536 14.18 3 14.4343 3 14.6995V20.6995C3 20.9647 3.10536 21.2191 3.29289 21.4066C3.48043 21.5942 3.73478 21.6995 4 21.6995ZM5 15.6995H9V19.6995H5V15.6995Z" fill="#C8D8FF"/>
<path d="M14 21.6995H20C20.2652 21.6995 20.5196 21.5942 20.7071 21.4066C20.8947 21.2191 21 20.9647 21 20.6995V14.6995C21 14.4343 20.8947 14.18 20.7071 13.9924C20.5196 13.8049 20.2652 13.6995 20 13.6995H14C13.7348 13.6995 13.4805 13.8049 13.2929 13.9924C13.1054 14.18 13 14.4343 13 14.6995V20.6995C13 20.9647 13.1054 21.2191 13.2929 21.4066C13.4805 21.5942 13.7348 21.6995 14 21.6995ZM15 15.6995H19V19.6995H15V15.6995Z" fill="#C8D8FF"/>
</svg>
