<svg width="24" height="24" viewBox="0 0 24 24" fill="none" xmlns="http://www.w3.org/2000/svg">
<path d="M5.36335 2.39844C3.72696 2.39844 2.40039 3.725 2.40039 5.3614M14.1337 2.39844H9.86706M21.6004 5.3614C21.6004 3.725 20.2738 2.39844 18.6374 2.39844M2.40039 9.8651V14.1318M21.6004 14.1318V9.8651M2.40039 18.6355C2.40039 20.2719 3.72695 21.5984 5.36335 21.5984M18.6374 21.5984C20.2738 21.5984 21.6004 20.2719 21.6004 18.6355M9.86706 21.5984H14.1337M2.40039 11.9984H9.86706C11.0453 11.9984 12.0004 12.9536 12.0004 14.1318V21.5984H5.60039C3.83308 21.5984 2.40039 20.1657 2.40039 18.3984V11.9984Z" stroke="url(#paint0_linear_1980_112855)" stroke-width="2" stroke-linecap="round"/>
<defs>
<linearGradient id="paint0_linear_1980_112855" x1="23.1092" y1="21.4219" x2="-2.65889" y2="4.68067" gradientUnits="userSpaceOnUse">
<stop stop-color="#5961F8"/>
<stop offset="1" stop-color="#F2D9F7"/>
</linearGradient>
</defs>
</svg>
