<svg width="22" height="14" viewBox="0 0 22 14" fill="none" xmlns="http://www.w3.org/2000/svg">
<path fill-rule="evenodd" clip-rule="evenodd" d="M0.758276 0.398249C0.423611 0.70901 0.412758 1.22335 0.734035 1.54706L6.37884 7.23456C6.53724 7.39416 6.75607 7.48438 6.9848 7.48438C7.21353 7.48438 7.43237 7.39416 7.59077 7.23456L11.0168 3.78261L15.0768 7.87329L12.1842 10.5592L21.5 13.1719L19.1813 4.06196L16.2887 6.74792L11.6228 2.04669C11.4644 1.88709 11.2455 1.79688 11.0168 1.79688C10.7881 1.79688 10.5692 1.88709 10.4108 2.04669L6.9848 5.49864L1.94597 0.421694C1.62469 0.0979848 1.09294 0.0874881 0.758276 0.398249Z" fill="#F68486"/>
</svg>
