<svg width="21" height="14" viewBox="0 0 21 14" fill="none" xmlns="http://www.w3.org/2000/svg">
<path fill-rule="evenodd" clip-rule="evenodd" d="M0.258276 12.9455C-0.0763893 12.6347 -0.0872421 12.1204 0.234035 11.7967L5.87884 6.10919C6.03724 5.94959 6.25607 5.85937 6.4848 5.85937C6.71353 5.85937 6.93237 5.94959 7.09077 6.10919L10.5168 9.56114L14.5768 5.47046L11.6842 2.7845L21 0.171875L18.6813 9.28179L15.7887 6.59583L11.1228 11.2971C10.9644 11.4567 10.7455 11.5469 10.5168 11.5469C10.2881 11.5469 10.0692 11.4567 9.91084 11.2971L6.4848 7.84511L1.44597 12.9221C1.12469 13.2458 0.592941 13.2563 0.258276 12.9455Z" fill="#1AD598"/>
</svg>
