<svg width="20" height="18" viewBox="0 0 20 18" fill="none" xmlns="http://www.w3.org/2000/svg">
<path d="M15.5136 18C17.1001 18 18.3125 16.515 18.3125 14.7857V5.14286H1.6875V14.7857C1.6875 16.515 2.89994 18 4.48644 18H15.5136ZM7.03125 7.71429H12.9688C13.1262 7.71429 13.2772 7.78202 13.3886 7.90257C13.4999 8.02313 13.5625 8.18665 13.5625 8.35714C13.5625 8.52764 13.4999 8.69115 13.3886 8.81171C13.2772 8.93227 13.1262 9 12.9688 9H7.03125C6.87378 9 6.72276 8.93227 6.61141 8.81171C6.50006 8.69115 6.4375 8.52764 6.4375 8.35714C6.4375 8.18665 6.50006 8.02313 6.61141 7.90257C6.72276 7.78202 6.87378 7.71429 7.03125 7.71429V7.71429ZM1.45 0C1.19804 0 0.956408 0.108367 0.778249 0.301262C0.600089 0.494156 0.5 0.755777 0.5 1.02857L0.5 2.57143C0.5 2.84422 0.600089 3.10584 0.778249 3.29874C0.956408 3.49163 1.19804 3.6 1.45 3.6H18.55C18.802 3.6 19.0436 3.49163 19.2218 3.29874C19.3999 3.10584 19.5 2.84422 19.5 2.57143V1.02857C19.5 0.755777 19.3999 0.494156 19.2218 0.301262C19.0436 0.108367 18.802 0 18.55 0H1.45Z" fill="#434C60"/>
</svg>
