<svg width="29" height="25" viewBox="0 0 29 25" fill="none" xmlns="http://www.w3.org/2000/svg">
<path d="M27.1616 24.6211C26.7811 24.6211 26.4162 24.47 26.1472 24.2009C25.8782 23.9319 25.727 23.567 25.727 23.1865V8.11226C25.7254 6.82234 25.2121 5.58574 24.2998 4.67382C23.3875 3.76189 22.1507 3.24913 20.8607 3.24805C19.5711 3.2494 18.3346 3.76232 17.4227 4.67424C16.5108 5.58617 15.9979 6.82261 15.9965 8.11226C15.9965 8.49273 15.8454 8.85763 15.5763 9.12666C15.3073 9.3957 14.9424 9.54683 14.562 9.54683C14.1815 9.54683 13.8166 9.3957 13.5476 9.12666C13.2785 8.85763 13.1274 8.49273 13.1274 8.11226C13.1296 6.06191 13.945 4.09617 15.3948 2.64635C16.8446 1.19654 18.8104 0.381076 20.8607 0.378906C22.911 0.381347 24.8766 1.19689 26.3264 2.64665C27.7761 4.0964 28.5917 6.062 28.5941 8.11226V23.1865C28.5941 23.5666 28.4432 23.9312 28.1746 24.2002C27.906 24.4692 27.5417 24.6206 27.1616 24.6211Z" fill="url(#paint0_linear_176_10912)" stroke="url(#paint1_linear_176_10912)" stroke-width="0.5"/>
<path d="M14.5696 13.7148C15.3245 13.7148 15.9365 13.1028 15.9365 12.3479C15.9365 11.593 15.3245 10.981 14.5696 10.981C13.8146 10.981 13.2026 11.593 13.2026 12.3479C13.2026 13.1028 13.8146 13.7148 14.5696 13.7148Z" fill="url(#paint2_linear_176_10912)" stroke="url(#paint3_linear_176_10912)" stroke-width="0.5"/>
<path d="M8.26919 24.6211C6.21884 24.6189 4.25308 23.8035 2.80326 22.3537C1.35345 20.9038 0.537998 18.9381 0.535828 16.8877V1.81348C0.535828 1.433 0.686953 1.06811 0.955987 0.799078C1.22502 0.530044 1.58993 0.378906 1.9704 0.378906C2.35087 0.378906 2.71575 0.530044 2.98478 0.799078C3.25382 1.06811 3.40497 1.433 3.40497 1.81348V16.8877C3.40633 18.1774 3.91923 19.4138 4.83116 20.3258C5.74308 21.2377 6.97953 21.7506 8.26919 21.752C9.55884 21.7506 10.7953 21.2377 11.7072 20.3258C12.6191 19.4138 13.132 18.1774 13.1334 16.8877C13.1334 16.5073 13.2845 16.1424 13.5536 15.8733C13.8226 15.6043 14.1875 15.4532 14.568 15.4532C14.9484 15.4532 15.3133 15.6043 15.5824 15.8733C15.8514 16.1424 16.0025 16.5073 16.0025 16.8877C16.0004 18.9381 15.1849 20.9038 13.7351 22.3537C12.2853 23.8035 10.3195 24.6189 8.26919 24.6211Z" fill="url(#paint4_linear_176_10912)" stroke="url(#paint5_linear_176_10912)" stroke-width="0.5"/>
<defs>
<linearGradient id="paint0_linear_176_10912" x1="29.8095" y1="24.3982" x2="4.61835" y2="13.9563" gradientUnits="userSpaceOnUse">
<stop stop-color="#5961F8"/>
<stop offset="1" stop-color="#F2D9F7"/>
</linearGradient>
<linearGradient id="paint1_linear_176_10912" x1="29.8095" y1="24.3982" x2="4.61835" y2="13.9563" gradientUnits="userSpaceOnUse">
<stop stop-color="#5961F8"/>
<stop offset="1" stop-color="#F2D9F7"/>
</linearGradient>
<linearGradient id="paint2_linear_176_10912" x1="16.1514" y1="13.6897" x2="12.4822" y2="11.3059" gradientUnits="userSpaceOnUse">
<stop stop-color="#5961F8"/>
<stop offset="1" stop-color="#F2D9F7"/>
</linearGradient>
<linearGradient id="paint3_linear_176_10912" x1="16.1514" y1="13.6897" x2="12.4822" y2="11.3059" gradientUnits="userSpaceOnUse">
<stop stop-color="#5961F8"/>
<stop offset="1" stop-color="#F2D9F7"/>
</linearGradient>
<linearGradient id="paint4_linear_176_10912" x1="17.218" y1="24.3982" x2="-7.97321" y2="13.9563" gradientUnits="userSpaceOnUse">
<stop stop-color="#5961F8"/>
<stop offset="1" stop-color="#F2D9F7"/>
</linearGradient>
<linearGradient id="paint5_linear_176_10912" x1="17.218" y1="24.3982" x2="-7.97321" y2="13.9563" gradientUnits="userSpaceOnUse">
<stop stop-color="#5961F8"/>
<stop offset="1" stop-color="#F2D9F7"/>
</linearGradient>
</defs>
</svg>
