<svg width="21" height="21" viewBox="0 0 21 21" fill="none" xmlns="http://www.w3.org/2000/svg">
<path d="M14.0355 7.53385C13.8696 7.06322 13.5667 6.65299 13.1657 6.35597C12.7647 6.05894 12.284 5.88871 11.7855 5.86719H8.45215C7.78911 5.86719 7.15322 6.13058 6.68438 6.59942C6.21554 7.06826 5.95215 7.70415 5.95215 8.36719C5.95215 9.03023 6.21554 9.66611 6.68438 10.135C7.15322 10.6038 7.78911 10.8672 8.45215 10.8672H11.7855C12.4485 10.8672 13.0844 11.1306 13.5532 11.5994C14.0221 12.0683 14.2855 12.7041 14.2855 13.3672C14.2855 14.0302 14.0221 14.6661 13.5532 15.135C13.0844 15.6038 12.4485 15.8672 11.7855 15.8672H8.45215C7.9536 15.8457 7.47291 15.6754 7.07192 15.3784C6.67094 15.0814 6.36802 14.6712 6.20215 14.2005M10.1188 3.36719V5.86719M10.1188 15.8672V18.3672" stroke="#C8D8FF" stroke-width="2" stroke-linecap="round" stroke-linejoin="round"/>
</svg>
