<svg width="21" height="21" viewBox="0 0 21 21" fill="none" xmlns="http://www.w3.org/2000/svg">
<path d="M14.3278 15.9955C13.6741 16.2951 12.9635 16.4502 12.2445 16.4502C11.5254 16.4502 10.8148 16.2951 10.1611 15.9955C9.47778 15.7596 8.75141 15.6747 8.03208 15.7467C7.31275 15.8186 6.61757 16.0457 5.99447 16.4122C6.44065 16.2578 6.83399 15.9801 7.12894 15.6114C7.42389 15.2428 7.60841 14.7981 7.66113 14.3289V8.07887C7.66553 7.34881 7.90949 6.64039 8.35554 6.06242C8.80159 5.48445 9.42505 5.06891 10.1302 4.87962C10.8353 4.69033 11.583 4.73776 12.2585 5.01463C12.9341 5.29151 13.5 5.78251 13.8695 6.41221M11.7445 11.4122H5.91113" stroke="#C8D8FF" stroke-width="2" stroke-linecap="round" stroke-linejoin="round"/>
</svg>
