<svg width="15" height="15" viewBox="0 0 15 15" fill="none" xmlns="http://www.w3.org/2000/svg">
<path d="M8.99051 3.60319L9.03499 4.0541H9.4881H12.5807C12.5904 4.05411 12.5988 4.05564 12.6057 4.05784C12.6041 4.05837 12.6023 4.05887 12.6003 4.05932L12.5649 4.06157H12.1577H11.7161L11.6615 4.4997L10.7419 11.8741C10.7176 12.0687 10.6158 12.257 10.4436 12.3989C10.2704 12.5417 10.0402 12.625 9.7959 12.625H9.79584H5.20432H5.20426C4.96 12.625 4.72975 12.5417 4.5566 12.3989L4.23856 12.7848L4.55659 12.3989C4.3844 12.257 4.28265 12.0688 4.25828 11.8743C4.25827 11.8743 4.25827 11.8742 4.25827 11.8742C4.25826 11.8742 4.25826 11.8742 4.25826 11.8741L3.33794 4.49965L3.28327 4.06157H2.84179H2.41938C2.41938 4.06157 2.41937 4.06157 2.41936 4.06157C2.40971 4.06156 2.40129 4.06004 2.3943 4.05784C2.39601 4.0573 2.39782 4.0568 2.39973 4.05636L2.43522 4.0541H5.51207H5.96517L6.00965 3.60319C6.04154 3.27996 6.20357 2.97061 6.47683 2.7398L6.1542 2.35782L6.47683 2.7398C6.75109 2.50816 7.11572 2.37495 7.50002 2.375L7.50015 2.375C7.88445 2.37495 8.24907 2.50816 8.52333 2.7398C8.7966 2.97061 8.95863 3.27996 8.99051 3.60319ZM5.56619 6.20529L5.56022 6.23214L5.55722 6.25948L5.55142 6.31254L5.54845 6.33966V6.36694V10.4807V10.5084L5.55149 10.5358L5.5573 10.5882L5.56029 10.6152L5.56619 10.6417C5.66117 11.0686 6.06823 11.2743 6.41136 11.2743C6.75448 11.2743 7.16155 11.0686 7.25653 10.6417L7.2625 10.6149L7.26549 10.5875L7.2713 10.5345L7.27427 10.5074V10.4801V6.36761V6.34067L7.27137 6.31389L7.26556 6.26016L7.26254 6.23221L7.25641 6.20478C7.16142 5.77991 6.75564 5.57276 6.41136 5.57276C6.06823 5.57276 5.66117 5.77839 5.56619 6.20529ZM9.08881 5.71931V5.57276H8.58881C8.24569 5.57276 7.83862 5.77839 7.74364 6.20529L7.73767 6.23214L7.73467 6.25949L7.72887 6.31255L7.7259 6.33966V6.36694V10.4807V10.5084L7.72894 10.5358L7.73475 10.5882L7.73774 10.6152L7.74364 10.6417C7.83862 11.0686 8.24568 11.2743 8.58881 11.2743C8.93193 11.2743 9.339 11.0686 9.43398 10.6417L9.43995 10.6149L9.44294 10.5875L9.44875 10.5345L9.45172 10.5074V10.4801V6.36761V6.34067L9.44882 6.31389L9.44302 6.26016L9.44 6.23221L9.43386 6.20478C9.38467 5.98478 9.2524 5.82369 9.08881 5.71931ZM6.12243 3.44759L5.9902 4.0541H6.61096H8.38921H9.01112L8.87754 3.44671C8.73859 2.81491 8.1532 2.38246 7.50008 2.38246C6.84768 2.38246 6.26049 2.81439 6.12243 3.44759Z" fill="#5C6D8E" stroke="#5C6D8E"/>
</svg>
