<svg width="35" height="36" viewBox="0 0 35 36" fill="none" xmlns="http://www.w3.org/2000/svg">
<path d="M17.5001 9.17188C18.2969 9.17177 19.065 9.44731 19.6535 9.94438C20.2421 10.4415 20.6085 11.1242 20.681 11.8584H25.6293C25.85 11.8585 26.0624 11.9361 26.2236 12.0755C26.3849 12.2149 26.4829 12.4057 26.498 12.6095C26.513 12.8132 26.4439 13.0146 26.3047 13.173C26.1654 13.3314 25.9664 13.435 25.7477 13.4629L25.6293 13.4704H24.9522L23.4809 25.2698C23.4153 25.7936 23.144 26.2768 22.7186 26.6275C22.2931 26.9782 21.7431 27.1719 21.1733 27.1719H13.8269C13.2571 27.1719 12.7072 26.9782 12.2817 26.6275C11.8562 26.2768 11.5849 25.7936 11.5194 25.2698L10.0469 13.4704H9.37098C9.16051 13.4704 8.95716 13.3998 8.79854 13.2718C8.63992 13.1438 8.53675 12.967 8.50813 12.774L8.5 12.6644C8.50001 12.4696 8.57623 12.2815 8.71457 12.1347C8.85291 11.9879 9.04401 11.8925 9.25253 11.866L9.37098 11.8584H14.3193C14.3917 11.1242 14.7582 10.4415 15.3467 9.94438C15.9352 9.44731 16.7033 9.17177 17.5001 9.17188ZM15.7582 15.8883C15.4737 15.8883 15.2356 16.0549 15.1868 16.2741L15.1775 16.359V22.9411L15.1868 23.0249C15.2356 23.2441 15.4737 23.4107 15.7582 23.4107C16.0427 23.4107 16.2808 23.2441 16.3295 23.0249L16.3388 22.94V16.3601L16.3295 16.2741C16.2808 16.0559 16.0427 15.8883 15.7582 15.8883ZM19.2421 15.8883C18.9576 15.8883 18.7195 16.0549 18.6707 16.2741L18.6614 16.359V22.9411L18.6707 23.0249C18.7195 23.2441 18.9576 23.4107 19.2421 23.4107C19.5266 23.4107 19.7647 23.2441 19.8135 23.0249L19.8227 22.94V16.3601L19.8135 16.2741C19.7647 16.0559 19.5266 15.8894 19.2421 15.8894V15.8883ZM17.5001 10.7838C16.7975 10.7838 16.2111 11.2459 16.0775 11.8584H18.9227C18.788 11.2459 18.2027 10.7838 17.5001 10.7838Z" fill="#AABDE9"/>
</svg>
