<svg width="104" height="47" viewBox="0 0 104 47" fill="none" xmlns="http://www.w3.org/2000/svg">
<g filter="url(#filter0_d_2_59824)">
<rect x="1" y="1" width="102" height="44.1667" rx="4" fill="#15142A"/>
<path d="M19.5001 14.0835C20.2527 14.0834 20.9781 14.3589 21.5339 14.856C22.0897 15.3531 22.4358 16.0358 22.5042 16.7701H27.1777C27.3861 16.7701 27.5867 16.8477 27.739 16.9871C27.8913 17.1265 27.9839 17.3174 27.9981 17.5211C28.0123 17.7248 27.947 17.9262 27.8155 18.0847C27.684 18.2431 27.496 18.3466 27.2895 18.3745L27.1777 18.382H26.5382L25.1486 30.1814C25.0867 30.7052 24.8305 31.1884 24.4286 31.5391C24.0268 31.8898 23.5074 32.0836 22.9693 32.0835H16.031C15.4928 32.0836 14.9734 31.8898 14.5716 31.5391C14.1698 31.1884 13.9135 30.7052 13.8517 30.1814L12.4609 18.382H11.8226C11.6238 18.382 11.4318 18.3115 11.282 18.1834C11.1321 18.0554 11.0347 17.8786 11.0077 17.6856L11 17.576C11 17.3813 11.072 17.1931 11.2027 17.0463C11.3333 16.8995 11.5138 16.8041 11.7107 16.7776L11.8226 16.7701H16.496C16.5644 16.0358 16.9105 15.3531 17.4664 14.856C18.0222 14.3589 18.7476 14.0834 19.5001 14.0835ZM17.8549 20.7999C17.5862 20.7999 17.3614 20.9665 17.3153 21.1857L17.3065 21.2706V27.8527L17.3153 27.9365C17.3614 28.1557 17.5862 28.3223 17.8549 28.3223C18.1237 28.3223 18.3485 28.1557 18.3946 27.9365L18.4033 27.8516V21.2717L18.3946 21.1857C18.3485 20.9676 18.1237 20.7999 17.8549 20.7999ZM21.1453 20.7999C20.8766 20.7999 20.6518 20.9665 20.6057 21.1857L20.5969 21.2706V27.8527L20.6057 27.9365C20.6518 28.1557 20.8766 28.3223 21.1453 28.3223C21.414 28.3223 21.6389 28.1557 21.6849 27.9365L21.6937 27.8516V21.2717L21.6849 21.1857C21.6389 20.9676 21.414 20.801 21.1453 20.801V20.7999ZM19.5001 15.6954C18.8366 15.6954 18.2827 16.1575 18.1566 16.7701H20.8437C20.7165 16.1575 20.1637 15.6954 19.5001 15.6954Z" fill="#AABDE9"/>
<path d="M39.6172 16.4009V29.0835H43.9678C47.7383 29.0835 49.9531 26.7368 49.9531 22.7378C49.9531 18.7476 47.7295 16.4009 43.9678 16.4009H39.6172ZM41.1992 17.8247H43.8623C46.6748 17.8247 48.3359 19.6528 48.3359 22.7554C48.3359 25.8491 46.6924 27.6597 43.8623 27.6597H41.1992V17.8247ZM56.2812 20.7778C57.7842 20.7778 58.7861 21.8853 58.8213 23.564H53.6006C53.7148 21.8853 54.7695 20.7778 56.2812 20.7778ZM58.7773 26.6313C58.3818 27.4663 57.5557 27.9146 56.334 27.9146C54.7256 27.9146 53.6797 26.728 53.6006 24.856V24.7856H60.4121V24.2056C60.4121 21.2612 58.8564 19.4419 56.2988 19.4419C53.6973 19.4419 52.0273 21.3755 52.0273 24.355C52.0273 27.3521 53.6709 29.2505 56.2988 29.2505C58.373 29.2505 59.832 28.2573 60.2891 26.6313H58.7773ZM62.873 29.0835H64.3848V15.8472H62.873V29.0835ZM71.0996 20.7778C72.6025 20.7778 73.6045 21.8853 73.6396 23.564H68.4189C68.5332 21.8853 69.5879 20.7778 71.0996 20.7778ZM73.5957 26.6313C73.2002 27.4663 72.374 27.9146 71.1523 27.9146C69.5439 27.9146 68.498 26.728 68.4189 24.856V24.7856H75.2305V24.2056C75.2305 21.2612 73.6748 19.4419 71.1172 19.4419C68.5156 19.4419 66.8457 21.3755 66.8457 24.355C66.8457 27.3521 68.4893 29.2505 71.1172 29.2505C73.1914 29.2505 74.6504 28.2573 75.1074 26.6313H73.5957ZM78.2363 17.1567V19.6089H76.707V20.8745H78.2363V26.6226C78.2363 28.4331 79.0186 29.1538 80.9697 29.1538C81.2686 29.1538 81.5586 29.1187 81.8574 29.0659V27.7915C81.5762 27.8179 81.4268 27.8267 81.1543 27.8267C80.1699 27.8267 79.748 27.3521 79.748 26.2358V20.8745H81.8574V19.6089H79.748V17.1567H78.2363ZM87.7812 20.7778C89.2842 20.7778 90.2861 21.8853 90.3213 23.564H85.1006C85.2148 21.8853 86.2695 20.7778 87.7812 20.7778ZM90.2773 26.6313C89.8818 27.4663 89.0557 27.9146 87.834 27.9146C86.2256 27.9146 85.1797 26.728 85.1006 24.856V24.7856H91.9121V24.2056C91.9121 21.2612 90.3564 19.4419 87.7988 19.4419C85.1973 19.4419 83.5273 21.3755 83.5273 24.355C83.5273 27.3521 85.1709 29.2505 87.7988 29.2505C89.873 29.2505 91.332 28.2573 91.7891 26.6313H90.2773Z" fill="#5C6D8E"/>
<rect x="1.5" y="1.5" width="101" height="43.1667" rx="3.5" stroke="#343E50"/>
</g>
<defs>
<filter id="filter0_d_2_59824" x="1" y="1" width="102" height="45.1665" filterUnits="userSpaceOnUse" color-interpolation-filters="sRGB">
<feFlood flood-opacity="0" result="BackgroundImageFix"/>
<feColorMatrix in="SourceAlpha" type="matrix" values="0 0 0 0 0 0 0 0 0 0 0 0 0 0 0 0 0 0 127 0" result="hardAlpha"/>
<feOffset dy="1"/>
<feColorMatrix type="matrix" values="0 0 0 0 0 0 0 0 0 0 0 0 0 0 0 0 0 0 0.05 0"/>
<feBlend mode="normal" in2="BackgroundImageFix" result="effect1_dropShadow_2_59824"/>
<feBlend mode="normal" in="SourceGraphic" in2="effect1_dropShadow_2_59824" result="shape"/>
</filter>
</defs>
</svg>
