<svg width="20" height="20" viewBox="0 0 20 20" fill="none" xmlns="http://www.w3.org/2000/svg">
<path d="M10.0001 2.5C10.6641 2.49991 11.3042 2.72953 11.7946 3.14376C12.2851 3.55798 12.5904 4.1269 12.6508 4.73881H16.7744C16.9583 4.73886 17.1353 4.8035 17.2697 4.91968C17.4041 5.03585 17.4858 5.19489 17.4983 5.36467C17.5108 5.53444 17.4533 5.70229 17.3372 5.8343C17.2212 5.9663 17.0553 6.05263 16.8731 6.07582L16.7744 6.08209H16.2102L14.9841 15.9149C14.9294 16.3514 14.7034 16.7541 14.3488 17.0463C13.9942 17.3386 13.536 17.5001 13.0611 17.5H6.9391C6.46427 17.5001 6.00598 17.3386 5.65142 17.0463C5.29686 16.7541 5.07077 16.3514 5.01617 15.9149L3.78905 6.08209H3.22582C3.05042 6.08208 2.88096 6.0233 2.74878 5.91663C2.6166 5.80995 2.53063 5.66259 2.50677 5.50179L2.5 5.41045C2.50001 5.24815 2.56353 5.09134 2.67881 4.96902C2.79409 4.8467 2.95334 4.76715 3.12711 4.74507L3.22582 4.73881H7.34943C7.40979 4.1269 7.71517 3.55798 8.20561 3.14376C8.69604 2.72953 9.3361 2.49991 10.0001 2.5ZM8.54848 8.09701C8.31138 8.09701 8.11299 8.23582 8.07234 8.41851L8.0646 8.48925V13.9743L8.07234 14.0442C8.11299 14.2269 8.31138 14.3657 8.54848 14.3657C8.78558 14.3657 8.98397 14.2269 9.02461 14.0442L9.03235 13.9734V8.49015L9.02461 8.41851C8.98397 8.23672 8.78558 8.09701 8.54848 8.09701ZM11.4517 8.09701C11.2146 8.09701 11.0163 8.23582 10.9756 8.41851L10.9679 8.48925V13.9743L10.9756 14.0442C11.0163 14.2269 11.2146 14.3657 11.4517 14.3657C11.6888 14.3657 11.8872 14.2269 11.9279 14.0442L11.9356 13.9734V8.49015L11.9279 8.41851C11.8872 8.23672 11.6888 8.09791 11.4517 8.09791V8.09701ZM10.0001 3.84328C9.41462 3.84328 8.9259 4.22836 8.81461 4.73881H11.1856C11.0734 4.22836 10.5856 3.84328 10.0001 3.84328Z" fill="#F67E80"/>
</svg>
