<svg width="148" height="47" viewBox="0 0 148 47" fill="none" xmlns="http://www.w3.org/2000/svg">
<g filter="url(#filter0_d_2_56961)">
<rect x="1" y="1" width="146" height="44.1667" rx="4" fill="#15142A"/>
<path d="M24.6426 21.7985C24.6426 21.1165 24.9135 20.4624 25.3957 19.9802C25.878 19.498 26.532 19.2271 27.214 19.2271H34.9283C35.6103 19.2271 36.2643 19.498 36.7466 19.9802C37.2288 20.4624 37.4997 21.1165 37.4997 21.7985V29.5128C37.4997 30.1947 37.2288 30.8488 36.7466 31.331C36.2643 31.8133 35.6103 32.0842 34.9283 32.0842H27.214C26.532 32.0842 25.878 31.8133 25.3957 31.331C24.9135 30.8488 24.6426 30.1947 24.6426 29.5128V21.7985Z" fill="#96ABDE"/>
<path d="M22.0714 14.0825C21.3894 14.0825 20.7354 14.3534 20.2532 14.8357C19.7709 15.3179 19.5 15.972 19.5 16.6539V24.3682C19.5 25.0502 19.7709 25.7043 20.2532 26.1865C20.7354 26.6687 21.3894 26.9397 22.0714 26.9397V16.6539H32.3571C32.3571 15.972 32.0862 15.3179 31.604 14.8357C31.1218 14.3534 30.4677 14.0825 29.7857 14.0825H22.0714Z" fill="#96ABDE"/>
<path d="M57.6172 16.4009V29.0835H61.9678C65.7383 29.0835 67.9531 26.7368 67.9531 22.7378C67.9531 18.7476 65.7295 16.4009 61.9678 16.4009H57.6172ZM59.1992 17.8247H61.8623C64.6748 17.8247 66.3359 19.6528 66.3359 22.7554C66.3359 25.8491 64.6924 27.6597 61.8623 27.6597H59.1992V17.8247ZM78.166 19.6089H76.6543V25.2163C76.6543 26.8774 75.7402 27.8706 74.0703 27.8706C72.5586 27.8706 71.9258 27.0796 71.9258 25.3745V19.6089H70.4141V25.7437C70.4141 27.9849 71.5215 29.2505 73.6484 29.2505C75.0986 29.2505 76.1094 28.6528 76.584 27.5981H76.7246V29.0835H78.166V19.6089ZM85.6279 19.4419C84.3359 19.4419 83.2021 20.1011 82.5957 21.1909H82.4551V19.6089H81.0137V32.2476H82.5254V27.6597H82.666C83.1846 28.6616 84.2744 29.2505 85.6279 29.2505C88.0361 29.2505 89.6094 27.3081 89.6094 24.3462C89.6094 21.3667 88.0449 19.4419 85.6279 19.4419ZM85.2676 27.8882C83.5625 27.8882 82.4814 26.5171 82.4814 24.3462C82.4814 22.1665 83.5625 20.8042 85.2764 20.8042C87.0078 20.8042 88.0449 22.1313 88.0449 24.3462C88.0449 26.561 87.0078 27.8882 85.2676 27.8882ZM92.0703 29.0835H93.582V15.8472H92.0703V29.0835ZM96.5527 29.0835H98.0645V19.6089H96.5527V29.0835ZM97.3086 17.6841C97.8887 17.6841 98.3633 17.2095 98.3633 16.6294C98.3633 16.0493 97.8887 15.5747 97.3086 15.5747C96.7285 15.5747 96.2539 16.0493 96.2539 16.6294C96.2539 17.2095 96.7285 17.6841 97.3086 17.6841ZM108.787 22.5093C108.523 20.8218 107.117 19.4419 104.814 19.4419C102.16 19.4419 100.473 21.3579 100.473 24.311C100.473 27.3257 102.169 29.2505 104.823 29.2505C107.1 29.2505 108.515 27.9673 108.787 26.2271H107.258C106.977 27.2993 106.089 27.8882 104.814 27.8882C103.127 27.8882 102.037 26.4995 102.037 24.311C102.037 22.1665 103.109 20.8042 104.814 20.8042C106.177 20.8042 107.012 21.5688 107.258 22.5093H108.787ZM113.938 27.9233C112.839 27.9233 112.021 27.3608 112.021 26.394C112.021 25.4448 112.654 24.9438 114.096 24.8472L116.645 24.6802V25.5503C116.645 26.9038 115.493 27.9233 113.938 27.9233ZM113.656 29.2505C114.922 29.2505 115.959 28.6968 116.574 27.686H116.715V29.0835H118.156V22.5972C118.156 20.6284 116.864 19.4419 114.553 19.4419C112.531 19.4419 111.037 20.4438 110.835 21.9644H112.364C112.575 21.2173 113.366 20.7866 114.5 20.7866C115.915 20.7866 116.645 21.4282 116.645 22.5972V23.4585L113.911 23.6255C111.705 23.7573 110.457 24.7329 110.457 26.4292C110.457 28.1606 111.819 29.2505 113.656 29.2505ZM121.584 17.1567V19.6089H120.055V20.8745H121.584V26.6226C121.584 28.4331 122.366 29.1538 124.317 29.1538C124.616 29.1538 124.906 29.1187 125.205 29.0659V27.7915C124.924 27.8179 124.774 27.8267 124.502 27.8267C123.518 27.8267 123.096 27.3521 123.096 26.2358V20.8745H125.205V19.6089H123.096V17.1567H121.584ZM131.129 20.7778C132.632 20.7778 133.634 21.8853 133.669 23.564H128.448C128.562 21.8853 129.617 20.7778 131.129 20.7778ZM133.625 26.6313C133.229 27.4663 132.403 27.9146 131.182 27.9146C129.573 27.9146 128.527 26.728 128.448 24.856V24.7856H135.26V24.2056C135.26 21.2612 133.704 19.4419 131.146 19.4419C128.545 19.4419 126.875 21.3755 126.875 24.355C126.875 27.3521 128.519 29.2505 131.146 29.2505C133.221 29.2505 134.68 28.2573 135.137 26.6313H133.625Z" fill="#C8D8FF"/>
<rect x="1.5" y="1.5" width="145" height="43.1667" rx="3.5" stroke="#343E50"/>
</g>
<defs>
<filter id="filter0_d_2_56961" x="1" y="1" width="146" height="45.1665" filterUnits="userSpaceOnUse" color-interpolation-filters="sRGB">
<feFlood flood-opacity="0" result="BackgroundImageFix"/>
<feColorMatrix in="SourceAlpha" type="matrix" values="0 0 0 0 0 0 0 0 0 0 0 0 0 0 0 0 0 0 127 0" result="hardAlpha"/>
<feOffset dy="1"/>
<feColorMatrix type="matrix" values="0 0 0 0 0 0 0 0 0 0 0 0 0 0 0 0 0 0 0.05 0"/>
<feBlend mode="normal" in2="BackgroundImageFix" result="effect1_dropShadow_2_56961"/>
<feBlend mode="normal" in="SourceGraphic" in2="effect1_dropShadow_2_56961" result="shape"/>
</filter>
</defs>
</svg>
