<svg width="167" height="47" viewBox="0 0 167 47" fill="none" xmlns="http://www.w3.org/2000/svg">
<g filter="url(#filter0_d_2_56984)">
<rect x="1" y="1.82812" width="165" height="44.1667" rx="4" fill="#15142A"/>
<path d="M26.6122 14.4214L30.5189 18.3366C31.182 18.9988 31.1243 20.1215 30.5621 20.6973L19.0151 32.2416L11 33.9114L12.6722 25.8793C12.6722 25.8793 23.6282 14.8964 24.1904 14.3206C24.7526 13.7592 25.9491 13.7592 26.6122 14.4214ZM22.6767 18.4374L14.6183 26.5127L16.2185 28.1104L24.2048 19.9776L22.6767 18.4374ZM18.3953 30.284L26.4392 22.2231L24.8967 20.6685L16.8384 28.7294L18.3953 30.284Z" fill="#AABDE9"/>
<path d="M50.4746 28.4875H44.1992V24.1282H50.1494V22.7219H44.1992V18.6526H50.4746V17.2288H42.6172V29.9114H50.4746V28.4875ZM56.6533 30.0784C57.9629 30.0784 59.0879 29.4543 59.6855 28.3997H59.8262V29.9114H61.2676V16.675H59.7559V21.9309H59.624C59.0879 20.8938 57.9717 20.2698 56.6533 20.2698C54.2451 20.2698 52.6719 22.2034 52.6719 25.1741C52.6719 28.1536 54.2275 30.0784 56.6533 30.0784ZM57.0049 21.6321C58.7188 21.6321 59.791 23.0032 59.791 25.1741C59.791 27.3625 58.7275 28.7161 57.0049 28.7161C55.2734 28.7161 54.2363 27.3889 54.2363 25.1741C54.2363 22.968 55.2822 21.6321 57.0049 21.6321ZM64.2383 29.9114H65.75V20.4368H64.2383V29.9114ZM64.9941 18.512C65.5742 18.512 66.0488 18.0374 66.0488 17.4573C66.0488 16.8772 65.5742 16.4026 64.9941 16.4026C64.4141 16.4026 63.9395 16.8772 63.9395 17.4573C63.9395 18.0374 64.4141 18.512 64.9941 18.512ZM69.2656 17.9846V20.4368H67.7363V21.7024H69.2656V27.4504C69.2656 29.261 70.0479 29.9817 71.999 29.9817C72.2979 29.9817 72.5879 29.9465 72.8867 29.8938V28.6194C72.6055 28.6458 72.4561 28.6545 72.1836 28.6545C71.1992 28.6545 70.7773 28.1799 70.7773 27.0637V21.7024H72.8867V20.4368H70.7773V17.9846H69.2656ZM80.4453 17.2288V29.9114H82.0273V25.385H85.2178C87.5996 25.385 89.2959 23.7063 89.2959 21.3333C89.2959 18.9163 87.6348 17.2288 85.2354 17.2288H80.4453ZM82.0273 18.635H84.8223C86.6592 18.635 87.6699 19.593 87.6699 21.3333C87.6699 23.012 86.624 23.9788 84.8223 23.9788H82.0273V18.635ZM91.6953 29.9114H93.207V24.0403C93.207 22.7043 94.2529 21.7375 95.6943 21.7375C95.9932 21.7375 96.5381 21.7903 96.6611 21.8254V20.3137C96.4678 20.2874 96.1514 20.2698 95.9053 20.2698C94.6484 20.2698 93.5586 20.9202 93.2773 21.843H93.1367V20.4368H91.6953V29.9114ZM102.181 30.0784C104.879 30.0784 106.549 28.2151 106.549 25.1741C106.549 22.1243 104.879 20.2698 102.181 20.2698C99.4824 20.2698 97.8125 22.1243 97.8125 25.1741C97.8125 28.2151 99.4824 30.0784 102.181 30.0784ZM102.181 28.7161C100.388 28.7161 99.377 27.4153 99.377 25.1741C99.377 22.9241 100.388 21.6321 102.181 21.6321C103.974 21.6321 104.984 22.9241 104.984 25.1741C104.984 27.4153 103.974 28.7161 102.181 28.7161ZM112.429 30.0784C113.738 30.0784 114.863 29.4543 115.461 28.3997H115.602V29.9114H117.043V16.675H115.531V21.9309H115.399C114.863 20.8938 113.747 20.2698 112.429 20.2698C110.021 20.2698 108.447 22.2034 108.447 25.1741C108.447 28.1536 110.003 30.0784 112.429 30.0784ZM112.78 21.6321C114.494 21.6321 115.566 23.0032 115.566 25.1741C115.566 27.3625 114.503 28.7161 112.78 28.7161C111.049 28.7161 110.012 27.3889 110.012 25.1741C110.012 22.968 111.058 21.6321 112.78 21.6321ZM127.643 20.4368H126.131V26.0442C126.131 27.7053 125.217 28.6985 123.547 28.6985C122.035 28.6985 121.402 27.9075 121.402 26.2024V20.4368H119.891V26.5715C119.891 28.8127 120.998 30.0784 123.125 30.0784C124.575 30.0784 125.586 29.4807 126.061 28.426H126.201V29.9114H127.643V20.4368ZM138.33 23.3372C138.066 21.6497 136.66 20.2698 134.357 20.2698C131.703 20.2698 130.016 22.1858 130.016 25.1389C130.016 28.1536 131.712 30.0784 134.366 30.0784C136.643 30.0784 138.058 28.7952 138.33 27.0549H136.801C136.52 28.1272 135.632 28.7161 134.357 28.7161C132.67 28.7161 131.58 27.3274 131.58 25.1389C131.58 22.9944 132.652 21.6321 134.357 21.6321C135.72 21.6321 136.555 22.3967 136.801 23.3372H138.33ZM141.371 17.9846V20.4368H139.842V21.7024H141.371V27.4504C141.371 29.261 142.153 29.9817 144.104 29.9817C144.403 29.9817 144.693 29.9465 144.992 29.8938V28.6194C144.711 28.6458 144.562 28.6545 144.289 28.6545C143.305 28.6545 142.883 28.1799 142.883 27.0637V21.7024H144.992V20.4368H142.883V17.9846H141.371ZM146.882 23.0295C146.882 24.4006 147.69 25.1653 149.466 25.5959L151.092 25.9915C152.103 26.2375 152.595 26.677 152.595 27.3274C152.595 28.1975 151.681 28.804 150.406 28.804C149.193 28.804 148.438 28.2942 148.183 27.4944H146.627C146.794 29.0676 148.244 30.0784 150.354 30.0784C152.507 30.0784 154.15 28.9094 154.15 27.2131C154.15 25.8508 153.289 25.0774 151.505 24.6467L150.046 24.2952C148.93 24.0227 148.402 23.6184 148.402 22.968C148.402 22.1243 149.281 21.553 150.406 21.553C151.549 21.553 152.287 22.054 152.489 22.8098H153.983C153.781 21.2542 152.401 20.2698 150.415 20.2698C148.402 20.2698 146.882 21.4563 146.882 23.0295Z" fill="#C8D8FF"/>
<rect x="1.5" y="2.32812" width="164" height="43.1667" rx="3.5" stroke="#343E50"/>
</g>
<defs>
<filter id="filter0_d_2_56984" x="1" y="1.82812" width="165" height="45.1667" filterUnits="userSpaceOnUse" color-interpolation-filters="sRGB">
<feFlood flood-opacity="0" result="BackgroundImageFix"/>
<feColorMatrix in="SourceAlpha" type="matrix" values="0 0 0 0 0 0 0 0 0 0 0 0 0 0 0 0 0 0 127 0" result="hardAlpha"/>
<feOffset dy="1"/>
<feColorMatrix type="matrix" values="0 0 0 0 0 0 0 0 0 0 0 0 0 0 0 0 0 0 0.05 0"/>
<feBlend mode="normal" in2="BackgroundImageFix" result="effect1_dropShadow_2_56984"/>
<feBlend mode="normal" in="SourceGraphic" in2="effect1_dropShadow_2_56984" result="shape"/>
</filter>
</defs>
</svg>
