<svg width="21" height="20" viewBox="0 0 21 20" fill="none" xmlns="http://www.w3.org/2000/svg">
<path d="M9.70703 2.79302H4.70703C3.05018 2.79302 1.70703 4.13617 1.70703 5.79302V15.7931C1.70703 17.45 3.05018 18.7931 4.70703 18.7931H14.707C16.3639 18.7931 17.707 17.45 17.707 15.7931L17.707 10.7931M6.70703 13.793L10.3454 13.0599C10.5385 13.021 10.7158 12.9259 10.8551 12.7865L18.9999 4.63734C19.3904 4.24663 19.3901 3.61331 18.9993 3.22292L17.2739 1.49952C16.8833 1.1093 16.2502 1.10957 15.8599 1.50012L7.71433 9.65016C7.57532 9.78925 7.4804 9.96624 7.44145 10.159L6.70703 13.793Z" stroke="#C8D8FF" stroke-width="2" stroke-linecap="round" stroke-linejoin="round"/>
</svg>
