<svg width="85" height="47" viewBox="0 0 85 47" fill="none" xmlns="http://www.w3.org/2000/svg">
<g filter="url(#filter0_d_2_59823)">
<rect x="1" y="1.82812" width="83" height="44.1667" rx="4" fill="#15142A"/>
<path d="M26.6122 14.4216L30.5189 18.3369C31.182 18.999 31.1243 20.1218 30.5621 20.6976L19.0151 32.2419L11 33.9116L12.6722 25.8795C12.6722 25.8795 23.6282 14.8966 24.1904 14.3208C24.7526 13.7595 25.9491 13.7595 26.6122 14.4216ZM22.6767 18.4376L14.6183 26.5129L16.2185 28.1107L24.2048 19.9778L22.6767 18.4376ZM18.3953 30.2842L26.4392 22.2234L24.8967 20.6688L16.8384 28.7296L18.3953 30.2842Z" fill="#AABDE9"/>
<path d="M50.4746 28.4878H44.1992V24.1284H50.1494V22.7222H44.1992V18.6528H50.4746V17.229H42.6172V29.9116H50.4746V28.4878ZM56.6533 30.0786C57.9629 30.0786 59.0879 29.4546 59.6855 28.3999H59.8262V29.9116H61.2676V16.6753H59.7559V21.9312H59.624C59.0879 20.894 57.9717 20.27 56.6533 20.27C54.2451 20.27 52.6719 22.2036 52.6719 25.1743C52.6719 28.1538 54.2275 30.0786 56.6533 30.0786ZM57.0049 21.6323C58.7188 21.6323 59.791 23.0034 59.791 25.1743C59.791 27.3628 58.7275 28.7163 57.0049 28.7163C55.2734 28.7163 54.2363 27.3892 54.2363 25.1743C54.2363 22.9683 55.2822 21.6323 57.0049 21.6323ZM64.2383 29.9116H65.75V20.437H64.2383V29.9116ZM64.9941 18.5122C65.5742 18.5122 66.0488 18.0376 66.0488 17.4575C66.0488 16.8774 65.5742 16.4028 64.9941 16.4028C64.4141 16.4028 63.9395 16.8774 63.9395 17.4575C63.9395 18.0376 64.4141 18.5122 64.9941 18.5122ZM69.2656 17.9849V20.437H67.7363V21.7026H69.2656V27.4507C69.2656 29.2612 70.0479 29.9819 71.999 29.9819C72.2979 29.9819 72.5879 29.9468 72.8867 29.894V28.6196C72.6055 28.646 72.4561 28.6548 72.1836 28.6548C71.1992 28.6548 70.7773 28.1802 70.7773 27.064V21.7026H72.8867V20.437H70.7773V17.9849H69.2656Z" fill="#5C6D8E"/>
<rect x="1.5" y="2.32812" width="82" height="43.1667" rx="3.5" stroke="#343E50"/>
</g>
<defs>
<filter id="filter0_d_2_59823" x="1" y="1.82812" width="83" height="45.1665" filterUnits="userSpaceOnUse" color-interpolation-filters="sRGB">
<feFlood flood-opacity="0" result="BackgroundImageFix"/>
<feColorMatrix in="SourceAlpha" type="matrix" values="0 0 0 0 0 0 0 0 0 0 0 0 0 0 0 0 0 0 127 0" result="hardAlpha"/>
<feOffset dy="1"/>
<feColorMatrix type="matrix" values="0 0 0 0 0 0 0 0 0 0 0 0 0 0 0 0 0 0 0.05 0"/>
<feBlend mode="normal" in2="BackgroundImageFix" result="effect1_dropShadow_2_59823"/>
<feBlend mode="normal" in="SourceGraphic" in2="effect1_dropShadow_2_59823" result="shape"/>
</filter>
</defs>
</svg>
