<svg width="85" height="47" viewBox="0 0 85 47" fill="none" xmlns="http://www.w3.org/2000/svg">
<g filter="url(#filter0_d_2_56960)">
<rect x="1" y="1" width="83" height="44.1667" rx="4" fill="#15142A"/>
<path d="M26.6122 13.5935L30.5189 17.5088C31.182 18.1709 31.1243 19.2937 30.5621 19.8694L19.0151 31.4137L11 33.0835L12.6722 25.0514C12.6722 25.0514 23.6282 14.0685 24.1904 13.4927C24.7526 12.9313 25.9491 12.9313 26.6122 13.5935ZM22.6767 17.6095L14.6183 25.6848L16.2185 27.2826L24.2048 19.1497L22.6767 17.6095ZM18.3953 29.4561L26.4392 21.3952L24.8967 19.8406L16.8384 27.9015L18.3953 29.4561Z" fill="#AABDE9"/>
<path d="M50.4746 27.6597H44.1992V23.3003H50.1494V21.894H44.1992V17.8247H50.4746V16.4009H42.6172V29.0835H50.4746V27.6597ZM56.6533 29.2505C57.9629 29.2505 59.0879 28.6265 59.6855 27.5718H59.8262V29.0835H61.2676V15.8472H59.7559V21.103H59.624C59.0879 20.0659 57.9717 19.4419 56.6533 19.4419C54.2451 19.4419 52.6719 21.3755 52.6719 24.3462C52.6719 27.3257 54.2275 29.2505 56.6533 29.2505ZM57.0049 20.8042C58.7188 20.8042 59.791 22.1753 59.791 24.3462C59.791 26.5347 58.7275 27.8882 57.0049 27.8882C55.2734 27.8882 54.2363 26.561 54.2363 24.3462C54.2363 22.1401 55.2822 20.8042 57.0049 20.8042ZM64.2383 29.0835H65.75V19.6089H64.2383V29.0835ZM64.9941 17.6841C65.5742 17.6841 66.0488 17.2095 66.0488 16.6294C66.0488 16.0493 65.5742 15.5747 64.9941 15.5747C64.4141 15.5747 63.9395 16.0493 63.9395 16.6294C63.9395 17.2095 64.4141 17.6841 64.9941 17.6841ZM69.2656 17.1567V19.6089H67.7363V20.8745H69.2656V26.6226C69.2656 28.4331 70.0479 29.1538 71.999 29.1538C72.2979 29.1538 72.5879 29.1187 72.8867 29.0659V27.7915C72.6055 27.8179 72.4561 27.8267 72.1836 27.8267C71.1992 27.8267 70.7773 27.3521 70.7773 26.2358V20.8745H72.8867V19.6089H70.7773V17.1567H69.2656Z" fill="#C8D8FF"/>
<rect x="1.5" y="1.5" width="82" height="43.1667" rx="3.5" stroke="#343E50"/>
</g>
<defs>
<filter id="filter0_d_2_56960" x="1" y="1" width="83" height="45.1665" filterUnits="userSpaceOnUse" color-interpolation-filters="sRGB">
<feFlood flood-opacity="0" result="BackgroundImageFix"/>
<feColorMatrix in="SourceAlpha" type="matrix" values="0 0 0 0 0 0 0 0 0 0 0 0 0 0 0 0 0 0 127 0" result="hardAlpha"/>
<feOffset dy="1"/>
<feColorMatrix type="matrix" values="0 0 0 0 0 0 0 0 0 0 0 0 0 0 0 0 0 0 0.05 0"/>
<feBlend mode="normal" in2="BackgroundImageFix" result="effect1_dropShadow_2_56960"/>
<feBlend mode="normal" in="SourceGraphic" in2="effect1_dropShadow_2_56960" result="shape"/>
</filter>
</defs>
</svg>
