<svg width="20" height="21" viewBox="0 0 20 21" fill="none" xmlns="http://www.w3.org/2000/svg">
<path d="M16.3199 16.5002L4.31992 4.50024M8.15992 9.2535C7.86119 9.58285 7.67992 10.0155 7.67992 10.4893C7.67992 11.5211 8.53954 12.3576 9.59992 12.3576C10.0888 12.3576 10.5351 12.1798 10.874 11.887M16.351 12.3576C17.0119 11.3681 17.2799 10.5611 17.2799 10.5611C17.2799 10.5611 15.5322 4.98024 9.59992 4.98024C9.26688 4.98024 8.94702 4.99783 8.63992 5.03104M13.9199 14.7798C12.818 15.4828 11.3994 15.9799 9.59992 15.9504C3.74146 15.8546 1.91992 10.5611 1.91992 10.5611C1.91992 10.5611 2.76621 7.85871 5.27992 6.2149" stroke="#5C6D8E" stroke-width="1.6" stroke-linecap="round"/>
</svg>
