<svg width="54" height="54" viewBox="0 0 54 54" fill="none" xmlns="http://www.w3.org/2000/svg">
<path fill-rule="evenodd" clip-rule="evenodd" d="M17.6893 19.9393C17.9706 19.658 18.3522 19.5 18.75 19.5H23.75C24.0723 19.5013 24.3857 19.6058 24.6444 19.7982L24.6462 19.7995L27.2507 21.7482C27.2506 21.7481 27.2507 21.7482 27.2507 21.7482C27.2521 21.7492 27.2541 21.7499 27.2559 21.75H33.75C34.1478 21.75 34.5294 21.908 34.8107 22.1893C35.092 22.4706 35.25 22.8522 35.25 23.25V25.5C35.25 25.9142 34.9142 26.25 34.5 26.25C34.0858 26.25 33.75 25.9142 33.75 25.5V23.25H27.25C26.9277 23.2487 26.6143 23.1442 26.3556 22.9518L26.3538 22.9505L23.7493 21.0018C23.7493 21.0018 23.7494 21.0019 23.7493 21.0018C23.7479 21.0008 23.7459 21.0001 23.7441 21L18.75 21L18.75 34.5C18.75 34.9142 18.4142 35.25 18 35.25C17.5858 35.25 17.25 34.9142 17.25 34.5V21C17.25 20.6022 17.408 20.2206 17.6893 19.9393Z" fill="#C8D8FF"/>
<path d="M20.6643 25.0348C20.9202 24.8497 21.2279 24.75 21.5438 24.75H36.4594C36.6965 24.75 36.9303 24.8062 37.1416 24.9141C37.3528 25.0219 37.5355 25.1784 37.6745 25.3705C37.8136 25.5626 37.9051 25.785 37.9416 26.0194C37.9781 26.2538 37.9584 26.4934 37.8843 26.7188L37.8834 26.7215L35.2115 34.7372C35.1094 35.0434 34.8228 35.25 34.5 35.25H18C17.7589 35.25 17.5325 35.1341 17.3915 34.9384C17.2505 34.7428 17.2122 34.4913 17.2886 34.2626L20.1188 25.7812L20.1194 25.7795C20.2183 25.4802 20.4089 25.2196 20.6643 25.0348Z" fill="#C8D8FF"/>
</svg>
