<svg width="34" height="30" viewBox="0 0 34 30" fill="none" xmlns="http://www.w3.org/2000/svg">
<path d="M7.12917 11.5745H29.7492V9.15785C29.7493 8.67565 29.6532 8.19827 29.4665 7.75367C29.2798 7.30907 29.0063 6.90619 28.6619 6.56861C28.3176 6.23103 27.9094 5.96555 27.4612 5.7877C27.013 5.60985 26.5338 5.52321 26.0517 5.53285H18.2217C17.9284 5.53293 17.6435 5.43512 17.4121 5.25493L12.5787 1.48493C11.9223 0.974827 11.1143 0.698419 10.2829 0.699517H3.6975C3.21539 0.689873 2.73621 0.776513 2.288 0.954363C1.83979 1.13221 1.43157 1.3977 1.08724 1.73528C0.742912 2.07285 0.469395 2.47574 0.282705 2.92034C0.0960143 3.36493 -9.63782e-05 3.84231 7.25218e-08 4.32452V25.6516L3.625 14.1241C3.86493 13.3835 4.33324 12.7379 4.96275 12.2798C5.59227 11.8218 6.35066 11.5749 7.12917 11.5745Z" fill="url(#paint0_linear_176_8455)"/>
<path d="M33.6161 13.9911H7.1294C6.86286 13.9789 6.59979 14.0553 6.3812 14.2083C6.16262 14.3613 6.00083 14.5824 5.92106 14.837L1.48648 28.9624L1.81273 29.1799L2.13898 29.349C2.28713 29.418 2.4407 29.4745 2.59815 29.5182L2.87606 29.6028C3.12229 29.658 3.37307 29.6903 3.62523 29.6995H26.6923C27.4729 29.7016 28.234 29.4559 28.8659 28.9977C29.4979 28.5395 29.968 27.8925 30.2086 27.1499L33.6523 16.2749C33.9004 15.5317 33.8876 14.7261 33.6161 13.9911Z" fill="url(#paint1_linear_176_8455)"/>
<defs>
<linearGradient id="paint0_linear_176_8455" x1="32.087" y1="25.4222" x2="-3.40055" y2="-2.06541" gradientUnits="userSpaceOnUse">
<stop stop-color="#5961F8"/>
<stop offset="1" stop-color="#F2D9F7"/>
</linearGradient>
<linearGradient id="paint1_linear_176_8455" x1="36.3711" y1="29.5551" x2="14.2391" y2="-0.0484224" gradientUnits="userSpaceOnUse">
<stop stop-color="#5961F8"/>
<stop offset="1" stop-color="#F2D9F7"/>
</linearGradient>
</defs>
</svg>
