<svg width="24" height="25" viewBox="0 0 24 25" fill="none" xmlns="http://www.w3.org/2000/svg">
<path d="M19.5789 11.1837V8.1416C19.5789 7.58931 19.1312 7.1416 18.5789 7.1416H11.9089C11.6437 7.1416 11.3894 7.03624 11.2018 6.8487L9.76657 5.41344C9.57903 5.2259 9.32468 5.12054 9.05946 5.12054H3.39999C2.84771 5.12054 2.39999 5.56826 2.39999 6.12054V19.2784C2.39999 19.8307 2.84771 20.2784 3.39999 20.2784H4.57616C5.04859 20.2784 5.43157 19.8955 5.43157 19.423V19.423C5.43157 19.3205 5.45002 19.2187 5.48604 19.1227L8.21982 11.8326C8.36619 11.4423 8.73931 11.1837 9.15615 11.1837H20.2126C20.8951 11.1837 21.3771 11.8524 21.1612 12.4999L18.7963 19.5947C18.6602 20.003 18.2781 20.2784 17.8477 20.2784H4.42105" stroke="#C8D8FF" stroke-width="2" stroke-linecap="round" stroke-linejoin="round"/>
</svg>
