<svg width="37" height="38" viewBox="0 0 37 38" fill="none" xmlns="http://www.w3.org/2000/svg">
<path d="M20.7764 5.77012C19.425 6.55781 14.2219 9.56406 9.21387 12.4547C4.20586 15.3453 0.0867188 17.7518 0.0578125 17.7951C-0.0361328 17.9396 -0.00722656 18.4021 0.101172 18.4961C0.158984 18.5395 0.766016 18.9008 1.44531 19.2838C2.33418 19.7969 2.65215 20.0137 2.58711 20.0643C2.53652 20.1076 1.9873 20.4256 1.37305 20.7725C0.758789 21.1266 0.195117 21.459 0.130078 21.5168C-0.0289063 21.6469 -0.0433594 22.1238 0.101172 22.2684C0.151758 22.3262 0.758789 22.6875 1.43809 23.0777C2.11738 23.4607 2.67383 23.7932 2.67383 23.8004C2.67383 23.8148 2.11738 24.14 1.43809 24.5303C0.758789 24.9205 0.158984 25.2818 0.101172 25.3396C0.0433594 25.3975 0 25.5709 0 25.7227C0 25.9467 0.0433594 26.0334 0.202344 26.1418C0.310742 26.2141 3.29531 27.9412 6.83633 29.9719C11.5047 32.6529 13.3402 33.6719 13.4992 33.6719C13.6582 33.6719 16.8162 31.8869 25.3074 26.9873C31.674 23.3018 36.9133 20.2594 36.9422 20.2088C37.0361 20.0643 37.0072 19.6018 36.8988 19.5078C36.841 19.4645 36.234 19.1031 35.5547 18.7201C34.6658 18.207 34.3479 17.9902 34.4129 17.9396C34.4635 17.8963 35.0127 17.5783 35.627 17.2314C36.2412 16.8773 36.8049 16.5449 36.8771 16.4871C37.0289 16.357 37.0434 15.8801 36.8988 15.7355C36.8482 15.6777 36.2484 15.3164 35.5619 14.9262C34.8826 14.5359 34.3334 14.2035 34.3406 14.1891C34.3551 14.1818 34.9332 13.835 35.627 13.4375C36.3207 13.0328 36.9133 12.6643 36.9422 12.6209C36.9711 12.5703 37 12.4113 37 12.2668C37 12.0572 36.9566 11.9705 36.8049 11.8621C36.6893 11.7898 33.7047 10.0627 30.1637 8.02481C24.9822 5.05469 23.6742 4.33203 23.4791 4.33926C23.2984 4.33926 22.5975 4.71504 20.7764 5.77012ZM29.5133 8.91367L35.4102 12.3029L32.9676 13.7049C31.6307 14.4854 29.7012 15.591 28.6822 16.1764L26.8395 17.2459L26.2252 16.899C25.8928 16.7039 25.6182 16.516 25.6182 16.4727C25.6182 16.4365 26.7094 15.7789 28.0391 15.0057C29.8168 13.9867 30.4816 13.5604 30.5539 13.423C30.6262 13.2641 30.6189 13.1773 30.4889 12.8305C30.3588 12.5053 30.3443 12.3752 30.4021 12.1584C30.4816 11.8404 30.4094 11.5586 30.2215 11.443C30.1564 11.3996 28.899 10.6697 27.432 9.83145C25.1773 8.53066 24.7293 8.29942 24.5414 8.32832C24.4186 8.35 24.115 8.40059 23.8693 8.44395C23.3707 8.53066 22.7998 8.47285 22.1783 8.27051C21.752 8.12598 22.0844 7.96699 18.9553 9.77363C17.5967 10.5613 16.4549 11.1973 16.4043 11.1973C16.2598 11.1973 15.024 10.4674 15.0457 10.3951C15.0746 10.3012 23.4357 5.48828 23.5297 5.50996C23.5803 5.51719 26.2686 7.04922 29.5133 8.91367ZM22.5107 9.47734C22.7203 9.5207 23.2406 9.53516 23.7537 9.51348L24.6281 9.47734L26.9334 10.7998L29.2314 12.1295L29.2893 12.5414C29.3254 12.7654 29.3254 12.975 29.2893 13.0039C29.2242 13.0762 24.5992 15.7428 24.4619 15.7934C24.3969 15.8223 17.8785 12.1584 17.51 11.891C17.5027 11.8838 18.4928 11.3057 19.7141 10.5975C21.0004 9.85313 21.976 9.33281 22.041 9.36172C22.0988 9.3834 22.3084 9.43398 22.5107 9.47734ZM17.4738 13.1195C19.4467 14.2613 22.2434 15.8584 23.6814 16.6822L26.2975 18.1709L26.283 21.6686L26.2686 25.159L24.9895 25.9033L23.7031 26.6549V23.3018C23.7031 21.0615 23.6742 19.8908 23.6236 19.7752C23.5658 19.6523 21.8242 18.6189 17.4666 16.1186C14.1207 14.1963 11.3602 12.6064 11.324 12.5775C11.2807 12.5342 13.6799 11.0744 13.8244 11.06C13.8533 11.0527 15.4938 11.985 17.4738 13.1195ZM10.9699 13.6543L11.4975 13.9578L9.05488 15.367C7.71074 16.1402 6.56895 16.8268 6.52559 16.8918C6.40273 17.0436 6.40996 17.3398 6.54004 17.6506C6.6123 17.8313 6.63398 18.0408 6.60508 18.3299C6.57617 18.6262 6.59063 18.7852 6.66289 18.8646C6.71348 18.9297 7.99258 19.6885 9.50293 20.5557C12.5164 22.2756 12.1768 22.1455 13.1668 21.9721C13.6221 21.8926 14.3014 21.9648 14.8072 22.1455C14.9879 22.2033 15.1975 22.2322 15.277 22.2105C15.3637 22.1816 16.5777 21.5023 17.9797 20.693C19.3816 19.8836 20.5596 19.2188 20.6029 19.2188C20.7186 19.2188 21.9688 19.9414 21.9688 20.0064C21.9688 20.0498 13.5859 24.9277 13.4992 24.9277C13.4775 24.9277 11.5264 23.8148 9.17051 22.4635C6.80742 21.1049 4.14082 19.5729 3.23027 19.0598L1.58984 18.1131L3.84453 16.8123C5.0875 16.0969 7.01699 14.984 8.12988 14.3408C9.92207 13.3002 10.1678 13.1773 10.2979 13.2568C10.3773 13.3074 10.6809 13.4881 10.9699 13.6543ZM15.9057 16.4799C17.7123 17.5133 19.2588 18.4021 19.3527 18.4527C19.5117 18.5322 19.3672 18.6262 17.3076 19.8186L15.0963 21.0904L14.6844 20.9893C14.2725 20.8809 12.9861 20.852 12.6537 20.9459C12.5092 20.982 12.0322 20.7436 10.1605 19.6668C8.88145 18.9369 7.81914 18.3227 7.79023 18.2938C7.76855 18.2648 7.73242 18.0553 7.71797 17.8313L7.69629 17.4193L10.1172 16.0102C11.4469 15.2369 12.5598 14.601 12.5814 14.601C12.6104 14.5938 14.1062 15.4393 15.9057 16.4799ZM34.4924 15.5693C34.9549 15.8367 35.3379 16.0752 35.3379 16.0969C35.3379 16.1258 34.0732 16.8701 32.534 17.759C30.9947 18.6406 29.2098 19.674 28.5666 20.0498L27.3887 20.7291V19.45L27.3959 18.1709L30.301 16.5016L33.2061 14.825L33.4229 14.9551C33.5457 15.0273 34.0227 15.302 34.4924 15.5693ZM34.3189 19.2693C35.2439 19.7896 35.4029 19.9053 35.2873 19.9631C35.215 20.0064 33.4807 21.0037 31.4355 22.1816C29.3904 23.3668 27.6416 24.3641 27.5549 24.4146L27.3887 24.5014V23.2439V21.9865L30.2648 20.3172C31.8402 19.3994 33.1555 18.6479 33.1772 18.6479C33.2061 18.6406 33.7191 18.9225 34.3189 19.2693ZM8.56348 23.374C11.9383 25.3107 13.3402 26.084 13.4992 26.084C13.6582 26.084 14.9662 25.3613 18.117 23.5475C20.5307 22.1527 22.5324 20.9965 22.5686 20.9748C22.5975 20.9604 22.6119 21.5168 22.6047 22.2178L22.583 23.4969L18.0447 26.1201L13.4992 28.7434L9.91484 26.6838C7.93477 25.5492 5.27539 24.0244 3.99629 23.2873C2.70996 22.5502 1.66211 21.9287 1.66211 21.8998C1.66934 21.8492 3.68555 20.6713 3.77949 20.6713C3.81562 20.6641 5.96914 21.8854 8.56348 23.374ZM8.80195 27.3053C12.567 29.4732 13.4053 29.9213 13.5715 29.8924C13.6799 29.8707 15.7178 28.7217 18.1025 27.3486C20.4873 25.9684 22.4818 24.8266 22.5324 24.8049C22.5975 24.776 22.6191 25.0506 22.6191 26.0189V27.2764L18.0592 29.9068C14.4748 31.9736 13.4703 32.5229 13.3764 32.465C13.3113 32.4289 10.6375 30.8896 7.42891 29.0469L1.58984 25.701L2.69551 25.065L3.79395 24.4291L4.01074 24.5592C4.13359 24.6242 6.28711 25.86 8.80195 27.3053Z" fill="#C8D8FF"/>
<path d="M23.5921 11.7846C23.0357 12.1025 22.5226 12.435 22.4503 12.5217C22.1974 12.818 22.4648 13.3672 22.8622 13.3672C22.949 13.3672 23.5126 13.0854 24.1124 12.7385C25.3915 12.0086 25.5505 11.8207 25.2109 11.3871C24.9652 11.0764 24.7267 11.1342 23.5921 11.7846Z" fill="#C8D8FF"/>
<path d="M13.2599 17.7334C12.6312 18.1092 12.0675 18.4705 12.0169 18.5355C11.7929 18.8463 12.0747 19.3594 12.465 19.3594C12.6384 19.3594 14.763 18.1887 15.0521 17.9357C15.2183 17.7768 15.2183 17.3215 15.0448 17.1697C14.7775 16.924 14.4739 17.0252 13.2599 17.7334Z" fill="#C8D8FF"/>
</svg>
