<svg width="28" height="29" viewBox="0 0 28 29" fill="none" xmlns="http://www.w3.org/2000/svg">
<path d="M5.70167 26.0909L17.5621 14.9281L23.1435 20.5095M5.70167 26.0909H19.6552C21.9671 26.0909 23.8412 24.2167 23.8412 21.9049V14.9281M5.70167 26.0909C3.38978 26.0909 1.51562 24.2167 1.51562 21.9049V7.95137C1.51562 5.63948 3.38978 3.76532 5.70167 3.76532H14.7714M22.4459 10.5027L22.4459 6.55602M22.4459 6.55602L22.4459 2.60938M22.4459 6.55602L18.4992 6.55602M22.4459 6.55602L26.3925 6.55602M9.88772 10.0444C9.88772 11.2003 8.95064 12.1374 7.7947 12.1374C6.63875 12.1374 5.70167 11.2003 5.70167 10.0444C5.70167 8.88845 6.63875 7.95137 7.7947 7.95137C8.95064 7.95137 9.88772 8.88845 9.88772 10.0444Z" stroke="#C8D8FF" stroke-width="2.32558" stroke-linecap="round" stroke-linejoin="round"/>
</svg>
