<svg width="25" height="24" viewBox="0 0 25 24" fill="none" xmlns="http://www.w3.org/2000/svg">
<path d="M3.43385 19.4449C3.23859 19.6401 3.23859 19.9567 3.43385 20.152C3.62911 20.3472 3.94569 20.3472 4.14096 20.152L3.43385 19.4449ZM8.5874 14.9984L8.94095 14.6449C8.74569 14.4496 8.42911 14.4496 8.23385 14.6449L8.5874 14.9984ZM10.9874 17.3984L10.6338 17.752C10.8291 17.9473 11.1457 17.9473 11.341 17.752L10.9874 17.3984ZM16.3874 11.9984L16.741 11.6449C16.5457 11.4496 16.2291 11.4496 16.0338 11.6449L16.3874 11.9984ZM20.8338 17.152C21.0291 17.3473 21.3457 17.3473 21.541 17.152C21.7362 16.9567 21.7362 16.6401 21.541 16.4449L20.8338 17.152ZM4.14096 20.152L8.94095 15.352L8.23385 14.6449L3.43385 19.4449L4.14096 20.152ZM8.23385 15.352L10.6338 17.752L11.341 17.0449L8.94095 14.6449L8.23385 15.352ZM11.341 17.752L16.741 12.352L16.0338 11.6449L10.6338 17.0449L11.341 17.752ZM16.0338 12.352L20.8338 17.152L21.541 16.4449L16.741 11.6449L16.0338 12.352ZM6.1874 2.89844H18.1874V1.89844H6.1874V2.89844ZM21.2874 5.99844V17.9984H22.2874V5.99844H21.2874ZM18.1874 21.0984H6.1874V22.0984H18.1874V21.0984ZM3.0874 17.9984V5.99844H2.0874V17.9984H3.0874ZM6.1874 21.0984C4.47532 21.0984 3.0874 19.7105 3.0874 17.9984H2.0874C2.0874 20.2628 3.92303 22.0984 6.1874 22.0984V21.0984ZM21.2874 17.9984C21.2874 19.7105 19.8995 21.0984 18.1874 21.0984V22.0984C20.4518 22.0984 22.2874 20.2628 22.2874 17.9984H21.2874ZM18.1874 2.89844C19.8995 2.89844 21.2874 4.28635 21.2874 5.99844H22.2874C22.2874 3.73407 20.4518 1.89844 18.1874 1.89844V2.89844ZM6.1874 1.89844C3.92303 1.89844 2.0874 3.73407 2.0874 5.99844H3.0874C3.0874 4.28635 4.47532 2.89844 6.1874 2.89844V1.89844ZM9.2874 7.79844C9.2874 8.51641 8.70537 9.09844 7.9874 9.09844V10.0984C9.25766 10.0984 10.2874 9.06869 10.2874 7.79844H9.2874ZM7.9874 9.09844C7.26943 9.09844 6.6874 8.51641 6.6874 7.79844H5.6874C5.6874 9.06869 6.71715 10.0984 7.9874 10.0984V9.09844ZM6.6874 7.79844C6.6874 7.08047 7.26943 6.49844 7.9874 6.49844V5.49844C6.71715 5.49844 5.6874 6.52818 5.6874 7.79844H6.6874ZM7.9874 6.49844C8.70537 6.49844 9.2874 7.08047 9.2874 7.79844H10.2874C10.2874 6.52818 9.25766 5.49844 7.9874 5.49844V6.49844Z" fill="#C8D8FF"/>
</svg>
