<svg width="24" height="24" viewBox="0 0 24 24" fill="none" xmlns="http://www.w3.org/2000/svg">
<path d="M2.89328 19.0913C2.50276 19.4819 2.50276 20.115 2.89328 20.5055C3.28381 20.8961 3.91697 20.8961 4.3075 20.5055L2.89328 19.0913ZM8.40039 14.9984L9.1075 14.2913C8.71697 13.9008 8.08381 13.9008 7.69328 14.2913L8.40039 14.9984ZM10.8004 17.3984L10.0933 18.1055C10.4838 18.4961 11.117 18.4961 11.5075 18.1055L10.8004 17.3984ZM16.2004 11.9984L16.9075 11.2913C16.517 10.9008 15.8838 10.9008 15.4933 11.2913L16.2004 11.9984ZM20.2933 17.5055C20.6838 17.8961 21.317 17.8961 21.7075 17.5055C22.098 17.115 22.098 16.4819 21.7075 16.0913L20.2933 17.5055ZM4.3075 20.5055L9.1075 15.7055L7.69328 14.2913L2.89328 19.0913L4.3075 20.5055ZM7.69328 15.7055L10.0933 18.1055L11.5075 16.6913L9.1075 14.2913L7.69328 15.7055ZM11.5075 18.1055L16.9075 12.7055L15.4933 11.2913L10.0933 16.6913L11.5075 18.1055ZM15.4933 12.7055L20.2933 17.5055L21.7075 16.0913L16.9075 11.2913L15.4933 12.7055ZM6.00039 3.39844H18.0004V1.39844H6.00039V3.39844ZM20.6004 5.99844V17.9984H22.6004V5.99844H20.6004ZM18.0004 20.5984H6.00039V22.5984H18.0004V20.5984ZM3.40039 17.9984V5.99844H1.40039V17.9984H3.40039ZM6.00039 20.5984C4.56445 20.5984 3.40039 19.4344 3.40039 17.9984H1.40039C1.40039 20.5389 3.45988 22.5984 6.00039 22.5984V20.5984ZM20.6004 17.9984C20.6004 19.4344 19.4363 20.5984 18.0004 20.5984V22.5984C20.5409 22.5984 22.6004 20.5389 22.6004 17.9984H20.6004ZM18.0004 3.39844C19.4363 3.39844 20.6004 4.5625 20.6004 5.99844H22.6004C22.6004 3.45793 20.5409 1.39844 18.0004 1.39844V3.39844ZM6.00039 1.39844C3.45988 1.39844 1.40039 3.45793 1.40039 5.99844H3.40039C3.40039 4.5625 4.56445 3.39844 6.00039 3.39844V1.39844ZM8.60039 7.79844C8.60039 8.24026 8.24222 8.59844 7.80039 8.59844V10.5984C9.34679 10.5984 10.6004 9.34483 10.6004 7.79844H8.60039ZM7.80039 8.59844C7.35856 8.59844 7.00039 8.24026 7.00039 7.79844H5.00039C5.00039 9.34483 6.25399 10.5984 7.80039 10.5984V8.59844ZM7.00039 7.79844C7.00039 7.35661 7.35856 6.99844 7.80039 6.99844V4.99844C6.25399 4.99844 5.00039 6.25204 5.00039 7.79844H7.00039ZM7.80039 6.99844C8.24222 6.99844 8.60039 7.35661 8.60039 7.79844H10.6004C10.6004 6.25204 9.34679 4.99844 7.80039 4.99844V6.99844Z" fill="#C8D8FF"/>
</svg>
