<svg width="30" height="32" viewBox="0 0 30 32" fill="none" xmlns="http://www.w3.org/2000/svg">
<g filter="url(#filter0_d_215_10785)">
<path d="M5.89292 19.7924C5.50239 20.1829 5.50239 20.8161 5.89292 21.2066C6.28344 21.5971 6.91661 21.5971 7.30713 21.2066L5.89292 19.7924ZM11.4 15.6995L12.1071 14.9924C11.7166 14.6019 11.0834 14.6019 10.6929 14.9924L11.4 15.6995ZM13.8 18.0995L13.0929 18.8066C13.4834 19.1971 14.1166 19.1971 14.5071 18.8066L13.8 18.0995ZM19.2 12.6995L19.9071 11.9924C19.5166 11.6019 18.8834 11.6019 18.4929 11.9924L19.2 12.6995ZM23.2929 18.2066C23.6834 18.5971 24.3166 18.5971 24.7071 18.2066C25.0977 17.8161 25.0977 17.1829 24.7071 16.7924L23.2929 18.2066ZM7.30713 21.2066L12.1071 16.4066L10.6929 14.9924L5.89292 19.7924L7.30713 21.2066ZM10.6929 16.4066L13.0929 18.8066L14.5071 17.3924L12.1071 14.9924L10.6929 16.4066ZM14.5071 18.8066L19.9071 13.4066L18.4929 11.9924L13.0929 17.3924L14.5071 18.8066ZM18.4929 13.4066L23.2929 18.2066L24.7071 16.7924L19.9071 11.9924L18.4929 13.4066ZM9.00002 4.09949H21V2.09949H9.00002V4.09949ZM23.6 6.69949V18.6995H25.6V6.69949H23.6ZM21 21.2995H9.00002V23.2995H21V21.2995ZM6.40002 18.6995V6.69949H4.40002V18.6995H6.40002ZM9.00002 21.2995C7.56408 21.2995 6.40002 20.1354 6.40002 18.6995H4.40002C4.40002 21.24 6.45951 23.2995 9.00002 23.2995V21.2995ZM23.6 18.6995C23.6 20.1354 22.436 21.2995 21 21.2995V23.2995C23.5405 23.2995 25.6 21.24 25.6 18.6995H23.6ZM21 4.09949C22.436 4.09949 23.6 5.26355 23.6 6.69949H25.6C25.6 4.15898 23.5405 2.09949 21 2.09949V4.09949ZM9.00002 2.09949C6.45951 2.09949 4.40002 4.15898 4.40002 6.69949H6.40002C6.40002 5.26355 7.56408 4.09949 9.00002 4.09949V2.09949ZM11.6 8.49949C11.6 8.94131 11.2419 9.29949 10.8 9.29949V11.2995C12.3464 11.2995 13.6 10.0459 13.6 8.49949H11.6ZM10.8 9.29949C10.3582 9.29949 10 8.94131 10 8.49949H8.00002C8.00002 10.0459 9.25363 11.2995 10.8 11.2995V9.29949ZM10 8.49949C10 8.05766 10.3582 7.69949 10.8 7.69949V5.69949C9.25363 5.69949 8.00002 6.95309 8.00002 8.49949H10ZM10.8 7.69949C11.2419 7.69949 11.6 8.05766 11.6 8.49949H13.6C13.6 6.95309 12.3464 5.69949 10.8 5.69949V7.69949Z" fill="#C8D8FF"/>
</g>
<defs>
<filter id="filter0_d_215_10785" x="-1" y="0.699493" width="32" height="32" filterUnits="userSpaceOnUse" color-interpolation-filters="sRGB">
<feFlood flood-opacity="0" result="BackgroundImageFix"/>
<feColorMatrix in="SourceAlpha" type="matrix" values="0 0 0 0 0 0 0 0 0 0 0 0 0 0 0 0 0 0 127 0" result="hardAlpha"/>
<feOffset dy="4"/>
<feGaussianBlur stdDeviation="2"/>
<feComposite in2="hardAlpha" operator="out"/>
<feColorMatrix type="matrix" values="0 0 0 0 0 0 0 0 0 0 0 0 0 0 0 0 0 0 0.25 0"/>
<feBlend mode="normal" in2="BackgroundImageFix" result="effect1_dropShadow_215_10785"/>
<feBlend mode="normal" in="SourceGraphic" in2="effect1_dropShadow_215_10785" result="shape"/>
</filter>
</defs>
</svg>
