<svg width="44" height="45" viewBox="0 0 44 45" fill="none" xmlns="http://www.w3.org/2000/svg">
<rect x="0.5" y="1.32812" width="43" height="43" rx="3.5" stroke="#5C6D8E" stroke-dasharray="6 6"/>
<path d="M28.7712 18.1072V19.4729H26.7227V21.5215H25.3569V19.4729H23.3083V18.1072H25.3569V16.0586H26.7227V18.1072H28.7712ZM22.9669 22.8872C23.2387 22.8871 23.4992 22.7791 23.6913 22.5869C23.8834 22.3946 23.9913 22.134 23.9912 21.8622C23.9911 21.5905 23.8831 21.3299 23.6909 21.1378C23.4986 20.9457 23.238 20.8378 22.9662 20.8379C22.8317 20.838 22.6984 20.8645 22.5741 20.9161C22.4499 20.9676 22.3369 21.0431 22.2418 21.1383C22.1467 21.2335 22.0713 21.3464 22.0198 21.4708C21.9684 21.5951 21.9419 21.7284 21.9419 21.8629C21.942 21.9975 21.9685 22.1307 22.0201 22.255C22.0716 22.3793 22.1471 22.4922 22.2423 22.5873C22.3375 22.6825 22.4504 22.7579 22.5748 22.8093C22.6991 22.8608 22.8324 22.8872 22.9669 22.8872ZM25.3569 25.0956L25.0066 24.7063C24.8785 24.5637 24.7219 24.4497 24.5468 24.3716C24.3717 24.2935 24.1822 24.2532 23.9905 24.2532C23.7988 24.2532 23.6093 24.2935 23.4342 24.3716C23.2592 24.4497 23.1025 24.5637 22.9744 24.7063L22.5265 25.2055L19.2112 21.5215L17.1626 23.7975V19.4729H21.9426V18.1072H17.1626C16.8004 18.1072 16.453 18.2511 16.1969 18.5072C15.9408 18.7633 15.7969 19.1107 15.7969 19.4729V27.6672C15.7969 28.0294 15.9408 28.3768 16.1969 28.6329C16.453 28.8891 16.8004 29.033 17.1626 29.033H25.3569C25.7191 29.033 26.0665 28.8891 26.3226 28.6329C26.5788 28.3768 26.7227 28.0294 26.7227 27.6672V22.8872H25.3569V25.0956Z" fill="#AABDE9"/>
</svg>
