<svg width="18" height="19" viewBox="0 0 18 19" fill="none" xmlns="http://www.w3.org/2000/svg">
<circle cx="9" cy="9.30371" r="9" fill="#5C6D8E"/>
<path d="M8.2007 14.3179V7.95277H10.093V14.3179H8.2007ZM9.14687 6.63386C8.76458 6.63386 8.47786 6.53829 8.28672 6.34715C8.09557 6.156 8 5.87884 8 5.51566C8 5.13337 8.09557 4.85621 8.28672 4.68418C8.47786 4.49303 8.76458 4.39746 9.14687 4.39746C9.45271 4.39746 9.71075 4.49303 9.92101 4.68418C10.1504 4.85621 10.2651 5.13337 10.2651 5.51566C10.2651 5.89795 10.1504 6.18467 9.92101 6.37582C9.71075 6.54785 9.45271 6.63386 9.14687 6.63386Z" fill="#C8D8FF"/>
</svg>
