<svg width="90" height="25" viewBox="0 0 90 25" fill="none" xmlns="http://www.w3.org/2000/svg">
<path d="M15.4053 19.8906H5.37402V1.45312H0.655273V24H15.4053V19.8906ZM28.9209 0.875C22.2959 0.875 18.0615 5.40625 18.0615 12.7188C18.0615 20.0312 22.2334 24.5781 28.9209 24.5781C35.5928 24.5781 39.749 20.0312 39.749 12.7188C39.749 5.42188 35.5771 0.875 28.9209 0.875ZM28.9209 5.01562C32.5928 5.01562 34.9365 8 34.9365 12.7188C34.9365 17.4219 32.5928 20.4375 28.9209 20.4375C25.2178 20.4375 22.8896 17.4219 22.8896 12.7188C22.8896 8 25.2646 5.01562 28.9209 5.01562ZM64.0303 14.7969V11.9219H54.5615V15.4688H59.4521L59.4365 15.875C59.3428 18.5938 57.2021 20.4219 54.1084 20.4219C50.3896 20.4219 48.0459 17.4844 48.0459 12.6562C48.0459 7.92188 50.2803 5.03125 53.9209 5.03125C56.5459 5.03125 58.4365 6.35938 59.1396 8.64062H63.8271C63.1709 3.95312 59.249 0.875 53.9209 0.875C47.3584 0.875 43.2178 5.4375 43.2178 12.7031C43.2178 20.0781 47.3271 24.5781 54.0303 24.5781C60.1865 24.5781 64.0303 20.8281 64.0303 14.7969ZM78.4209 0.875C71.7959 0.875 67.5615 5.40625 67.5615 12.7188C67.5615 20.0312 71.7334 24.5781 78.4209 24.5781C85.0928 24.5781 89.249 20.0312 89.249 12.7188C89.249 5.42188 85.0771 0.875 78.4209 0.875ZM78.4209 5.01562C82.0928 5.01562 84.4365 8 84.4365 12.7188C84.4365 17.4219 82.0928 20.4375 78.4209 20.4375C74.7178 20.4375 72.3896 17.4219 72.3896 12.7188C72.3896 8 74.7646 5.01562 78.4209 5.01562Z" fill="url(#paint0_linear_12_7516)"/>
<defs>
<linearGradient id="paint0_linear_12_7516" x1="99.3079" y1="36.5587" x2="30.7999" y2="-50.6045" gradientUnits="userSpaceOnUse">
<stop stop-color="#5961F8"/>
<stop offset="1" stop-color="#F2D9F7"/>
</linearGradient>
</defs>
</svg>
