<svg width="55" height="55" viewBox="0 0 55 55" fill="none" xmlns="http://www.w3.org/2000/svg">
<rect width="55" height="55" rx="27.5" fill="#FAFFBF"/>
<path fill-rule="evenodd" clip-rule="evenodd" d="M24.4182 19.6421C21.3779 20.9543 19.25 23.9791 19.25 27.5009C19.25 27.8387 19.2696 28.1719 19.3077 28.4996L26.2902 26.6286L24.4182 19.6421ZM26.8048 19.0032L28.7832 26.3869L28.7928 26.4226C28.834 26.5756 28.8921 26.7913 28.9176 26.989C28.9497 27.2383 28.9572 27.6326 28.7253 28.0344C28.4933 28.4362 28.148 28.6268 27.9161 28.7237C27.7321 28.8005 27.5162 28.858 27.3632 28.8989L27.3274 28.9084L19.9459 30.8863C21.2577 33.9276 24.283 36.0564 27.8056 36.0564C32.5307 36.0564 36.3611 32.226 36.3611 27.5009C36.3611 22.7758 32.5307 18.9453 27.8056 18.9453C27.467 18.9453 27.1331 18.965 26.8048 19.0032Z" fill="#1D1E25"/>
<path d="M25.469 18.76C25.2632 17.9919 25.1603 17.6079 24.8186 17.4442C24.4768 17.2806 24.1482 17.4257 23.4908 17.716C22.7133 18.0593 21.9777 18.4949 21.3003 19.0147C20.1861 19.8696 19.2512 20.9357 18.549 22.1519C17.8468 23.3682 17.391 24.7108 17.2077 26.1032C17.0963 26.9498 17.0868 27.8046 17.1783 28.6496C17.2556 29.364 17.2942 29.7212 17.6068 29.9354C17.9194 30.1495 18.3034 30.0466 19.0716 29.8408L26.2197 27.9254C26.9697 27.7245 27.3447 27.624 27.5152 27.3286C27.6858 27.0332 27.5853 26.6582 27.3844 25.9082L25.469 18.76Z" fill="#1D1E25"/>
</svg>
