<svg width="44" height="44" viewBox="0 0 44 44" fill="none" xmlns="http://www.w3.org/2000/svg">
<path d="M14.8206 20.9791H20.096C20.3292 20.9791 20.5528 20.8865 20.7177 20.7216C20.8826 20.5567 20.9752 20.3331 20.9752 20.0999V14.8245C20.9752 14.5914 20.8826 14.3677 20.7177 14.2028C20.5528 14.0379 20.3292 13.9453 20.096 13.9453H14.8206C14.5874 13.9453 14.3638 14.0379 14.1989 14.2028C14.034 14.3677 13.9414 14.5914 13.9414 14.8245V20.0999C13.9414 20.3331 14.034 20.5567 14.1989 20.7216C14.3638 20.8865 14.5874 20.9791 14.8206 20.9791ZM15.6999 15.7038H19.2168V19.2207H15.6999V15.7038Z" fill="#C8D8FF"/>
<path d="M23.6136 20.9791H28.889C29.1221 20.9791 29.3458 20.8865 29.5107 20.7216C29.6756 20.5567 29.7682 20.3331 29.7682 20.0999V14.8245C29.7682 14.5914 29.6756 14.3677 29.5107 14.2028C29.3458 14.0379 29.1221 13.9453 28.889 13.9453H23.6136C23.3804 13.9453 23.1568 14.0379 22.9919 14.2028C22.827 14.3677 22.7344 14.5914 22.7344 14.8245V20.0999C22.7344 20.3331 22.827 20.5567 22.9919 20.7216C23.1568 20.8865 23.3804 20.9791 23.6136 20.9791ZM24.4928 15.7038H28.0097V19.2207H24.4928V15.7038Z" fill="#C8D8FF"/>
<path d="M14.8206 29.7682H20.096C20.3292 29.7682 20.5528 29.6756 20.7177 29.5107C20.8826 29.3458 20.9752 29.1221 20.9752 28.889V23.6136C20.9752 23.3804 20.8826 23.1568 20.7177 22.9919C20.5528 22.827 20.3292 22.7344 20.096 22.7344H14.8206C14.5874 22.7344 14.3638 22.827 14.1989 22.9919C14.034 23.1568 13.9414 23.3804 13.9414 23.6136V28.889C13.9414 29.1221 14.034 29.3458 14.1989 29.5107C14.3638 29.6756 14.5874 29.7682 14.8206 29.7682ZM15.6999 24.4928H19.2168V28.0097H15.6999V24.4928Z" fill="#C8D8FF"/>
<path d="M23.6136 29.7682H28.889C29.1221 29.7682 29.3458 29.6756 29.5107 29.5107C29.6756 29.3458 29.7682 29.1221 29.7682 28.889V23.6136C29.7682 23.3804 29.6756 23.1568 29.5107 22.9919C29.3458 22.827 29.1221 22.7344 28.889 22.7344H23.6136C23.3804 22.7344 23.1568 22.827 22.9919 22.9919C22.827 23.1568 22.7344 23.3804 22.7344 23.6136V28.889C22.7344 29.1221 22.827 29.3458 22.9919 29.5107C23.1568 29.6756 23.3804 29.7682 23.6136 29.7682ZM24.4928 24.4928H28.0097V28.0097H24.4928V24.4928Z" fill="#C8D8FF"/>
</svg>
