<svg width="44" height="44" viewBox="0 0 44 44" fill="none" xmlns="http://www.w3.org/2000/svg">
<path d="M14.8206 22.735H28.8883C29.1215 22.735 29.3451 22.6424 29.51 22.4775C29.6749 22.3126 29.7675 22.089 29.7675 21.8558C29.7675 21.6226 29.6749 21.399 29.51 21.2341C29.3451 21.0692 29.1215 20.9766 28.8883 20.9766H14.8206C14.5874 20.9766 14.3638 21.0692 14.1989 21.2341C14.034 21.399 13.9414 21.6226 13.9414 21.8558C13.9414 22.089 14.034 22.3126 14.1989 22.4775C14.3638 22.6424 14.5874 22.735 14.8206 22.735Z" fill="#C8D8FF"/>
<path d="M28.8883 15.7031H14.8206C14.5874 15.7031 14.3638 15.7958 14.1989 15.9606C14.034 16.1255 13.9414 16.3492 13.9414 16.5824C13.9414 16.8155 14.034 17.0392 14.1989 17.2041C14.3638 17.3689 14.5874 17.4616 14.8206 17.4616H28.8883C29.1215 17.4616 29.3451 17.3689 29.51 17.2041C29.6749 17.0392 29.7675 16.8155 29.7675 16.5824C29.7675 16.3492 29.6749 16.1255 29.51 15.9606C29.3451 15.7958 29.1215 15.7031 28.8883 15.7031Z" fill="#C8D8FF"/>
<path d="M14.8206 28.0085H28.8883C29.1215 28.0085 29.3451 27.9158 29.51 27.7509C29.6749 27.5861 29.7675 27.3624 29.7675 27.1292C29.7675 26.896 29.6749 26.6724 29.51 26.5075C29.3451 26.3426 29.1215 26.25 28.8883 26.25H14.8206C14.5874 26.25 14.3638 26.3426 14.1989 26.5075C14.034 26.6724 13.9414 26.896 13.9414 27.1292C13.9414 27.3624 14.034 27.5861 14.1989 27.7509C14.3638 27.9158 14.5874 28.0085 14.8206 28.0085Z" fill="#C8D8FF"/>
</svg>
