<svg width="46" height="46" viewBox="0 0 46 46" fill="none" xmlns="http://www.w3.org/2000/svg">
<rect x="1" y="1" width="43.7101" height="43.7101" rx="7.65433" fill="url(#paint0_linear_2103_120258)" fill-opacity="0.1"/>
<path d="M15.8206 23.735H29.8883C30.1215 23.735 30.3451 23.6424 30.51 23.4775C30.6749 23.3126 30.7675 23.089 30.7675 22.8558C30.7675 22.6226 30.6749 22.399 30.51 22.2341C30.3451 22.0692 30.1215 21.9766 29.8883 21.9766H15.8206C15.5874 21.9766 15.3638 22.0692 15.1989 22.2341C15.034 22.399 14.9414 22.6226 14.9414 22.8558C14.9414 23.089 15.034 23.3126 15.1989 23.4775C15.3638 23.6424 15.5874 23.735 15.8206 23.735Z" fill="url(#paint1_linear_2103_120258)"/>
<path d="M29.8883 16.7031H15.8206C15.5874 16.7031 15.3638 16.7958 15.1989 16.9606C15.034 17.1255 14.9414 17.3492 14.9414 17.5824C14.9414 17.8155 15.034 18.0392 15.1989 18.2041C15.3638 18.3689 15.5874 18.4616 15.8206 18.4616H29.8883C30.1215 18.4616 30.3451 18.3689 30.51 18.2041C30.6749 18.0392 30.7675 17.8155 30.7675 17.5824C30.7675 17.3492 30.6749 17.1255 30.51 16.9606C30.3451 16.7958 30.1215 16.7031 29.8883 16.7031Z" fill="url(#paint2_linear_2103_120258)"/>
<path d="M15.8206 29.0085H29.8883C30.1215 29.0085 30.3451 28.9158 30.51 28.7509C30.6749 28.5861 30.7675 28.3624 30.7675 28.1292C30.7675 27.896 30.6749 27.6724 30.51 27.5075C30.3451 27.3426 30.1215 27.25 29.8883 27.25H15.8206C15.5874 27.25 15.3638 27.3426 15.1989 27.5075C15.034 27.6724 14.9414 27.896 14.9414 28.1292C14.9414 28.3624 15.034 28.5861 15.1989 28.7509C15.3638 28.9158 15.5874 29.0085 15.8206 29.0085Z" fill="url(#paint3_linear_2103_120258)"/>
<rect x="1" y="1" width="43.7101" height="43.7101" rx="7.65433" stroke="url(#paint4_linear_2103_120258)" stroke-width="0.753623"/>
<defs>
<linearGradient id="paint0_linear_2103_120258" x1="48.1451" y1="44.3083" x2="-10.5178" y2="6.19565" gradientUnits="userSpaceOnUse">
<stop stop-color="#5961F8"/>
<stop offset="1" stop-color="#F2D9F7"/>
</linearGradient>
<linearGradient id="paint1_linear_2103_120258" x1="32.0112" y1="23.7189" x2="31.1528" y2="18.6999" gradientUnits="userSpaceOnUse">
<stop stop-color="#5961F8"/>
<stop offset="1" stop-color="#F2D9F7"/>
</linearGradient>
<linearGradient id="paint2_linear_2103_120258" x1="32.0112" y1="18.4454" x2="31.1528" y2="13.4264" gradientUnits="userSpaceOnUse">
<stop stop-color="#5961F8"/>
<stop offset="1" stop-color="#F2D9F7"/>
</linearGradient>
<linearGradient id="paint3_linear_2103_120258" x1="32.0112" y1="28.9923" x2="31.1528" y2="23.9733" gradientUnits="userSpaceOnUse">
<stop stop-color="#5961F8"/>
<stop offset="1" stop-color="#F2D9F7"/>
</linearGradient>
<linearGradient id="paint4_linear_2103_120258" x1="-0.793968" y1="-0.493691" x2="50.6855" y2="41.6478" gradientUnits="userSpaceOnUse">
<stop stop-color="#7E84BC" stop-opacity="0.4"/>
<stop offset="0.592787" stop-color="#37384A" stop-opacity="0.3"/>
<stop offset="0.930304" stop-color="#7379B5" stop-opacity="0.4"/>
</linearGradient>
</defs>
</svg>
