<svg width="34" height="22" viewBox="0 0 34 22" fill="none" xmlns="http://www.w3.org/2000/svg">
<path d="M20.0294 14.2642L26.8731 7.75321C25.4515 2.23874 19.8055 -1.08517 14.2623 0.329059C11.7661 0.965919 9.598 2.50536 8.18121 4.64685C8.28715 4.64419 20.0294 14.2642 20.0294 14.2642Z" fill="#0364B8"/>
<path d="M12.6412 5.87087L12.6409 5.87199C11.3332 5.06625 9.82505 4.64035 8.28681 4.64243C8.25128 4.64243 8.21635 4.64467 8.18088 4.64509C3.60544 4.70148 -0.0577739 8.43714 -0.00112168 12.9889C0.0194148 14.6401 0.538008 16.247 1.48742 17.6014L11.7404 16.3239L19.6012 10.0182L12.6412 5.87087Z" fill="#0078D4"/>
<path d="M26.8736 7.75592C26.7231 7.74593 26.5719 7.73902 26.419 7.73902C25.5009 7.73812 24.5923 7.92468 23.7496 8.28714L23.7494 8.28644L19.6021 10.0227L24.1742 15.6412L32.348 17.6179C34.1119 14.3602 32.8872 10.2968 29.6126 8.54198C28.7664 8.08854 27.8325 7.82055 26.8736 7.75596V7.75592H26.8736Z" fill="#1490DF"/>
<path d="M1.48767 17.6004C3.03579 19.8148 5.57584 21.1344 8.2871 21.133H26.4184C28.8952 21.1337 31.1724 19.7816 32.3474 17.6126L19.6015 10.0173L1.48767 17.6004Z" fill="#28A8EA"/>
</svg>
