<svg width="205" height="49" viewBox="0 0 205 49" fill="none" xmlns="http://www.w3.org/2000/svg">
<g filter="url(#filter0_d_1440_77178)">
<rect width="205" height="48" rx="4" fill="#15142A"/>
<rect x="12" y="9" width="30" height="30" rx="4" fill="#15142A"/>
<path d="M73 27V31C73 31.5304 72.7893 32.0391 72.4142 32.4142C72.0391 32.7893 71.5304 33 71 33H57C56.4696 33 55.9609 32.7893 55.5858 32.4142C55.2107 32.0391 55 31.5304 55 31V27" stroke="#C8D8FF" stroke-width="2" stroke-linecap="round" stroke-linejoin="round"/>
<path d="M69 20L64 15L59 20" stroke="#C8D8FF" stroke-width="2" stroke-linecap="round" stroke-linejoin="round"/>
<path d="M64 15V27" stroke="#C8D8FF" stroke-width="2" stroke-linecap="round" stroke-linejoin="round"/>
<path d="M18.4343 31.4449C18.2391 31.6401 18.2391 31.9567 18.4343 32.152C18.6296 32.3472 18.9462 32.3472 19.1414 32.152L18.4343 31.4449ZM23.5879 26.9984L23.9414 26.6449C23.7462 26.4496 23.4296 26.4496 23.2343 26.6449L23.5879 26.9984ZM25.9879 29.3984L25.6343 29.752C25.8296 29.9473 26.1462 29.9473 26.3414 29.752L25.9879 29.3984ZM31.3879 23.9984L31.7414 23.6449C31.5462 23.4496 31.2296 23.4496 31.0343 23.6449L31.3879 23.9984ZM35.8343 29.152C36.0296 29.3473 36.3462 29.3473 36.5414 29.152C36.7367 28.9567 36.7367 28.6401 36.5414 28.4449L35.8343 29.152ZM19.1414 32.152L23.9414 27.352L23.2343 26.6449L18.4343 31.4449L19.1414 32.152ZM23.2343 27.352L25.6343 29.752L26.3414 29.0449L23.9414 26.6449L23.2343 27.352ZM26.3414 29.752L31.7414 24.352L31.0343 23.6449L25.6343 29.0449L26.3414 29.752ZM31.0343 24.352L35.8343 29.152L36.5414 28.4449L31.7414 23.6449L31.0343 24.352ZM21.1879 14.8984H33.1879V13.8984H21.1879V14.8984ZM36.2879 17.9984V29.9984H37.2879V17.9984H36.2879ZM33.1879 33.0984H21.1879V34.0984H33.1879V33.0984ZM18.0879 29.9984V17.9984H17.0879V29.9984H18.0879ZM21.1879 33.0984C19.4758 33.0984 18.0879 31.7105 18.0879 29.9984H17.0879C17.0879 32.2628 18.9235 34.0984 21.1879 34.0984V33.0984ZM36.2879 29.9984C36.2879 31.7105 34.9 33.0984 33.1879 33.0984V34.0984C35.4523 34.0984 37.2879 32.2628 37.2879 29.9984H36.2879ZM33.1879 14.8984C34.9 14.8984 36.2879 16.2864 36.2879 17.9984H37.2879C37.2879 15.7341 35.4523 13.8984 33.1879 13.8984V14.8984ZM21.1879 13.8984C18.9235 13.8984 17.0879 15.7341 17.0879 17.9984H18.0879C18.0879 16.2864 19.4758 14.8984 21.1879 14.8984V13.8984ZM24.2879 19.7984C24.2879 20.5164 23.7059 21.0984 22.9879 21.0984V22.0984C24.2581 22.0984 25.2879 21.0687 25.2879 19.7984H24.2879ZM22.9879 21.0984C22.2699 21.0984 21.6879 20.5164 21.6879 19.7984H20.6879C20.6879 21.0687 21.7176 22.0984 22.9879 22.0984V21.0984ZM21.6879 19.7984C21.6879 19.0805 22.2699 18.4984 22.9879 18.4984V17.4984C21.7176 17.4984 20.6879 18.5282 20.6879 19.7984H21.6879ZM22.9879 18.4984C23.7059 18.4984 24.2879 19.0805 24.2879 19.7984H25.2879C25.2879 18.5282 24.2581 17.4984 22.9879 17.4984V18.4984Z" fill="#C8D8FF"/>
<path d="M89.1953 18.7266H87.4453V26.1172C87.4453 28.5625 89.1797 30.2734 92.0078 30.2734C94.8359 30.2734 96.5781 28.5625 96.5781 26.1172V18.7266H94.8281V25.9609C94.8281 27.5391 93.8047 28.6328 92.0078 28.6328C90.2188 28.6328 89.1953 27.5391 89.1953 25.9609V18.7266ZM103.648 21.3516C102.492 21.3516 101.492 21.9297 100.977 22.8984H100.852V21.4922H99.2344V32.8281H100.914V28.7109H101.047C101.492 29.6094 102.453 30.1406 103.664 30.1406C105.812 30.1406 107.18 28.4453 107.18 25.7422C107.18 23.0391 105.812 21.3516 103.648 21.3516ZM103.172 28.6328C101.766 28.6328 100.883 27.5234 100.883 25.75C100.883 23.9688 101.766 22.8594 103.18 22.8594C104.602 22.8594 105.453 23.9453 105.453 25.7422C105.453 27.5469 104.602 28.6328 103.172 28.6328ZM109.281 30H110.961V18.1719H109.281V30ZM117.078 30.1641C119.562 30.1641 121.086 28.5 121.086 25.7422C121.086 23 119.555 21.3281 117.078 21.3281C114.594 21.3281 113.062 23 113.062 25.7422C113.062 28.5 114.586 30.1641 117.078 30.1641ZM117.078 28.6719C115.617 28.6719 114.797 27.6016 114.797 25.7422C114.797 23.8984 115.617 22.8203 117.078 22.8203C118.531 22.8203 119.359 23.8984 119.359 25.7422C119.359 27.5938 118.531 28.6719 117.078 28.6719ZM125.891 28.7266C124.977 28.7266 124.312 28.2812 124.312 27.5156C124.312 26.7656 124.844 26.3672 126.016 26.2891L128.094 26.1562V26.8672C128.094 27.9219 127.156 28.7266 125.891 28.7266ZM125.461 30.1406C126.578 30.1406 127.508 29.6562 128.016 28.8047H128.148V30H129.766V24.1875C129.766 22.3906 128.562 21.3281 126.43 21.3281C124.5 21.3281 123.125 22.2656 122.953 23.7266H124.578C124.766 23.125 125.414 22.7812 126.352 22.7812C127.5 22.7812 128.094 23.2891 128.094 24.1875V24.9219L125.789 25.0547C123.766 25.1797 122.625 26.0625 122.625 27.5938C122.625 29.1484 123.82 30.1406 125.461 30.1406ZM135.266 30.1406C136.438 30.1406 137.43 29.5859 137.938 28.6562H138.07V30H139.68V18.1719H138V22.8438H137.875C137.414 21.9062 136.43 21.3516 135.266 21.3516C133.117 21.3516 131.734 23.0547 131.734 25.7422C131.734 28.4375 133.102 30.1406 135.266 30.1406ZM135.742 22.8594C137.148 22.8594 138.031 23.9766 138.031 25.75C138.031 27.5312 137.156 28.6328 135.742 28.6328C134.32 28.6328 133.469 27.5469 133.469 25.7422C133.469 23.9531 134.328 22.8594 135.742 22.8594ZM148.523 30V18.7266H146.773V30H148.523ZM151.156 30H152.836V24.7969C152.836 23.7031 153.609 22.8672 154.633 22.8672C155.633 22.8672 156.273 23.4531 156.273 24.4141V30H157.922V24.6484C157.922 23.6484 158.633 22.8672 159.719 22.8672C160.82 22.8672 161.367 23.4297 161.367 24.5781V30H163.047V24.1406C163.047 22.3672 162.047 21.3281 160.328 21.3281C159.148 21.3281 158.172 21.9297 157.742 22.8594H157.609C157.234 21.9297 156.43 21.3281 155.266 21.3281C154.133 21.3281 153.273 21.8984 152.898 22.8594H152.773V21.4922H151.156V30ZM168.188 28.7266C167.273 28.7266 166.609 28.2812 166.609 27.5156C166.609 26.7656 167.141 26.3672 168.312 26.2891L170.391 26.1562V26.8672C170.391 27.9219 169.453 28.7266 168.188 28.7266ZM167.758 30.1406C168.875 30.1406 169.805 29.6562 170.312 28.8047H170.445V30H172.062V24.1875C172.062 22.3906 170.859 21.3281 168.727 21.3281C166.797 21.3281 165.422 22.2656 165.25 23.7266H166.875C167.062 23.125 167.711 22.7812 168.648 22.7812C169.797 22.7812 170.391 23.2891 170.391 24.1875V24.9219L168.086 25.0547C166.062 25.1797 164.922 26.0625 164.922 27.5938C164.922 29.1484 166.117 30.1406 167.758 30.1406ZM178.016 28.4219C176.57 28.4219 175.758 27.3359 175.758 25.6406C175.758 23.9453 176.57 22.8594 178.016 22.8594C179.445 22.8594 180.32 23.9453 180.32 25.6406C180.32 27.3438 179.453 28.4219 178.016 28.4219ZM178.039 33.25C180.445 33.25 181.969 32.0156 181.969 30.0703V21.4922H180.359V22.8516H180.227C179.75 21.9297 178.727 21.3516 177.555 21.3516C175.383 21.3516 174.023 23.0547 174.023 25.6484C174.023 28.1953 175.367 29.875 177.539 29.875C178.711 29.875 179.648 29.3672 180.164 28.4453H180.289V30.0781C180.289 31.2031 179.461 31.8672 178.062 31.8672C176.93 31.8672 176.219 31.4688 176.078 30.8516H174.359C174.539 32.2969 175.914 33.25 178.039 33.25ZM187.898 22.7578C189.141 22.7578 189.953 23.625 189.992 24.9609H185.695C185.789 23.6328 186.656 22.7578 187.898 22.7578ZM189.984 27.7031C189.672 28.3672 188.977 28.7344 187.961 28.7344C186.617 28.7344 185.75 27.7891 185.695 26.2969V26.2031H191.703V25.6172C191.703 22.9453 190.273 21.3281 187.906 21.3281C185.508 21.3281 183.984 23.0547 183.984 25.7734C183.984 28.4922 185.477 30.1641 187.914 30.1641C189.859 30.1641 191.219 29.2266 191.602 27.7031H189.984Z" fill="#C8D8FF"/>
</g>
<defs>
<filter id="filter0_d_1440_77178" x="0" y="0" width="205" height="49" filterUnits="userSpaceOnUse" color-interpolation-filters="sRGB">
<feFlood flood-opacity="0" result="BackgroundImageFix"/>
<feColorMatrix in="SourceAlpha" type="matrix" values="0 0 0 0 0 0 0 0 0 0 0 0 0 0 0 0 0 0 127 0" result="hardAlpha"/>
<feOffset dy="1"/>
<feColorMatrix type="matrix" values="0 0 0 0 0 0 0 0 0 0 0 0 0 0 0 0 0 0 0.05 0"/>
<feBlend mode="normal" in2="BackgroundImageFix" result="effect1_dropShadow_1440_77178"/>
<feBlend mode="normal" in="SourceGraphic" in2="effect1_dropShadow_1440_77178" result="shape"/>
</filter>
</defs>
</svg>
