<svg width="26" height="26" viewBox="0 0 26 26" fill="none" xmlns="http://www.w3.org/2000/svg">
<g clip-path="url(#clip0_1484_76858)">
<path d="M24.9315 7.42269L22.2976 3.21814C22.0622 2.84071 21.6441 2.60938 21.1977 2.60938H4.80162C4.35519 2.60938 3.93717 2.84071 3.70178 3.21814L1.06785 7.42269C-0.291727 9.59395 0.91363 12.6134 3.45421 12.9584C3.63684 12.9828 3.82353 12.9949 4.01022 12.9949C5.21152 12.9949 6.27483 12.4673 7.00535 11.6516C7.73587 12.4673 8.80324 12.9949 10.0005 12.9949C11.2018 12.9949 12.2651 12.4673 12.9956 11.6516C13.7261 12.4673 14.7935 12.9949 15.9907 12.9949C17.192 12.9949 18.2554 12.4673 18.9859 11.6516C19.7204 12.4673 20.7838 12.9949 21.981 12.9949C22.1717 12.9949 22.3544 12.9828 22.537 12.9584C25.0857 12.6175 26.2951 9.59801 24.9315 7.42269ZM21.9891 14.2977C21.5833 14.2977 21.1815 14.2368 20.7919 14.1435V18.1938H5.20746V14.1435C4.81785 14.2328 4.41606 14.2977 4.01022 14.2977C3.76671 14.2977 3.51915 14.2815 3.2797 14.249C3.05243 14.2165 2.82921 14.1638 2.61412 14.1029V22.0899C2.61412 22.8082 3.19447 23.3886 3.91282 23.3886H22.0946C22.813 23.3886 23.3933 22.8082 23.3933 22.0899V14.1029C23.1742 14.1678 22.955 14.2206 22.7278 14.249C22.4802 14.2815 22.2367 14.2977 21.9891 14.2977Z" fill="#5C6D8E"/>
</g>
<defs>
<clipPath id="clip0_1484_76858">
<rect width="25" height="25" fill="white" transform="translate(0.5 0.5)"/>
</clipPath>
</defs>
</svg>
