<svg width="36" height="38" viewBox="0 0 36 38" fill="none" xmlns="http://www.w3.org/2000/svg">
<g filter="url(#filter0_d_112_11115)">
<path fill-rule="evenodd" clip-rule="evenodd" d="M16.0002 24.5C15.7442 24.5 15.4882 24.402 15.2932 24.207C14.9022 23.816 14.9022 23.184 15.2932 22.793L19.5862 18.5L15.2932 14.207C14.9022 13.816 14.9022 13.184 15.2932 12.793C15.6842 12.402 16.3162 12.402 16.7072 12.793L21.7073 17.793C22.0982 18.184 22.0982 18.816 21.7073 19.207L16.7072 24.207C16.5122 24.402 16.2563 24.5 16.0002 24.5Z" fill="#C8D8FF"/>
<path d="M0.5 1H32C33.933 1 35.5 2.567 35.5 4.5V32.5C35.5 34.433 33.933 36 32 36H0.5V1Z" stroke="#C8D8FF"/>
</g>
<defs>
<filter id="filter0_d_112_11115" x="0" y="0.5" width="36" height="37" filterUnits="userSpaceOnUse" color-interpolation-filters="sRGB">
<feFlood flood-opacity="0" result="BackgroundImageFix"/>
<feColorMatrix in="SourceAlpha" type="matrix" values="0 0 0 0 0 0 0 0 0 0 0 0 0 0 0 0 0 0 127 0" result="hardAlpha"/>
<feOffset dy="1"/>
<feColorMatrix type="matrix" values="0 0 0 0 0 0 0 0 0 0 0 0 0 0 0 0 0 0 0.05 0"/>
<feBlend mode="normal" in2="BackgroundImageFix" result="effect1_dropShadow_112_11115"/>
<feBlend mode="normal" in="SourceGraphic" in2="effect1_dropShadow_112_11115" result="shape"/>
</filter>
</defs>
</svg>
