<svg width="36" height="38" viewBox="0 0 36 38" fill="none" xmlns="http://www.w3.org/2000/svg">
<g filter="url(#filter0_d_112_11112)">
<path fill-rule="evenodd" clip-rule="evenodd" d="M20.0002 24.5C19.7442 24.5 19.4883 24.402 19.2933 24.207L14.2932 19.207C13.9022 18.816 13.9022 18.184 14.2932 17.793L19.2933 12.793C19.6842 12.402 20.3163 12.402 20.7073 12.793C21.0982 13.184 21.0982 13.816 20.7073 14.207L16.4142 18.5L20.7073 22.793C21.0982 23.184 21.0982 23.816 20.7073 24.207C20.5122 24.402 20.2562 24.5 20.0002 24.5Z" fill="#C8D8FF"/>
<path d="M0.5 4.5C0.5 2.567 2.067 1 4 1H35.5V36H4C2.067 36 0.5 34.433 0.5 32.5V4.5Z" stroke="#C8D8FF"/>
</g>
<defs>
<filter id="filter0_d_112_11112" x="0" y="0.5" width="36" height="37" filterUnits="userSpaceOnUse" color-interpolation-filters="sRGB">
<feFlood flood-opacity="0" result="BackgroundImageFix"/>
<feColorMatrix in="SourceAlpha" type="matrix" values="0 0 0 0 0 0 0 0 0 0 0 0 0 0 0 0 0 0 127 0" result="hardAlpha"/>
<feOffset dy="1"/>
<feColorMatrix type="matrix" values="0 0 0 0 0 0 0 0 0 0 0 0 0 0 0 0 0 0 0.05 0"/>
<feBlend mode="normal" in2="BackgroundImageFix" result="effect1_dropShadow_112_11112"/>
<feBlend mode="normal" in="SourceGraphic" in2="effect1_dropShadow_112_11112" result="shape"/>
</filter>
</defs>
</svg>
