<svg width="44" height="40" viewBox="0 0 44 40" fill="none" xmlns="http://www.w3.org/2000/svg">
<path d="M38.8336 20.8018L38.8336 20.8015C38.8409 18.4216 38.8409 16.2279 38.8363 14.612C38.834 13.804 38.8306 13.1411 38.8264 12.672C38.8243 12.4372 38.8221 12.2521 38.8197 12.122C38.8184 12.0567 38.8172 12.007 38.8161 11.9726C38.8157 11.9629 38.8154 11.9555 38.8152 11.95C38.8138 11.9445 38.8117 11.9373 38.8088 11.9283C38.8053 11.9176 38.8012 11.9062 38.7964 11.8945C38.7709 11.8922 38.7407 11.8898 38.7053 11.8874C38.4158 11.8678 37.8594 11.854 36.7634 11.8447C34.5801 11.8263 30.3112 11.8263 21.8964 11.8263C13.4816 11.8263 9.21267 11.8263 7.0294 11.8447C5.93339 11.854 5.37702 11.8678 5.08749 11.8874C5.05207 11.8898 5.02197 11.8922 4.9964 11.8945C4.99167 11.9062 4.98749 11.9176 4.98402 11.9283C4.98109 11.9373 4.97904 11.9446 4.97764 11.9501C4.97739 11.9556 4.97709 11.9629 4.97677 11.9726C4.97559 12.007 4.97438 12.0567 4.97317 12.122C4.97076 12.2521 4.96848 12.4372 4.96638 12.672C4.96219 13.1411 4.95878 13.804 4.95651 14.612C4.95197 16.2279 4.95197 18.4216 4.95924 20.8015L4.95924 20.8018L4.98056 29.2672L5.01304 29.3019L5.03214 29.3223H21.8964H38.7607L38.7798 29.3019L38.8123 29.2673L38.8336 20.8018Z" stroke="#C8D8FF"/>
<path d="M8.79658 13.3943C8.7171 13.4681 8.63762 13.656 8.61113 13.817C8.51178 14.4208 8.18063 14.7764 7.65077 14.8502C7.47195 14.8703 7.26663 14.9508 7.19377 15.0246C7.05469 15.1521 7.05469 15.1924 7.05469 20.2108C7.05469 22.9884 7.07456 25.3165 7.09443 25.3769C7.14741 25.5178 7.46532 25.6788 7.69713 25.6788C8.05479 25.6788 8.57802 26.1552 8.57802 26.4839C8.57802 26.5376 8.61113 26.6986 8.65087 26.8328C8.77671 27.3024 8.67736 27.289 12.6181 27.289C16.3271 27.289 16.4397 27.2823 16.5523 26.9871C16.6384 26.7456 16.592 26.4235 16.4463 26.2826C16.3073 26.1485 16.2344 26.1485 12.9824 26.1485H9.65759L9.57811 25.8667C9.46552 25.491 8.78333 24.7999 8.39919 24.6792L8.11439 24.5852V20.2712V15.9572L8.47867 15.7895C8.9158 15.5882 9.37942 15.1186 9.545 14.7093L9.67084 14.4074H12.9029C16.3073 14.4074 16.4397 14.394 16.5523 14.1055C16.6384 13.8639 16.592 13.5419 16.4463 13.401C16.3073 13.2668 16.2344 13.2668 12.6181 13.2668C9.05488 13.2668 8.92904 13.2735 8.79658 13.3943Z" fill="#C8D8FF"/>
<path d="M20.9018 13.3023C19.1864 13.6177 17.9478 14.2819 16.8351 15.4761C16.0735 16.2946 15.5834 17.1735 15.2191 18.3611C15.0601 18.8911 15.0469 19.0186 15.0469 20.2396C15.0469 21.4808 15.0535 21.5815 15.2257 22.1518C15.835 24.1511 17.0868 25.6674 18.8817 26.5463C21.9482 28.0558 25.6506 27.0696 27.5912 24.2316C28.0084 23.6144 28.3263 22.9367 28.5648 22.1518C28.7303 21.5815 28.7436 21.4741 28.7436 20.2732C28.7436 19.1796 28.7237 18.9246 28.6045 18.4818C28.0084 16.3282 26.5381 14.6106 24.5776 13.7854C23.71 13.4231 23.2066 13.3225 22.0939 13.2956C21.531 13.2822 20.9945 13.2889 20.9018 13.3023ZM23.551 14.6375C25.134 15.1541 26.346 16.194 27.0613 17.6566C27.5448 18.6361 27.6773 19.3004 27.6375 20.4409C27.6044 21.4741 27.5051 21.8968 27.1209 22.7153C26.24 24.6006 24.5511 25.8284 22.5046 26.0766C20.5507 26.3182 18.385 25.3386 17.2193 23.6949C16.8682 23.1917 16.4377 22.2926 16.292 21.7492C16.2258 21.5077 16.1728 20.9776 16.1529 20.4409C16.1132 19.3004 16.2457 18.6361 16.7292 17.6566C17.5372 16.0129 19.0274 14.8589 20.8421 14.4697C21.0011 14.4362 21.5508 14.4161 22.0608 14.4295C22.8556 14.4496 23.0675 14.4764 23.551 14.6375Z" fill="#C8D8FF"/>
<path d="M21.5066 15.5476C21.3873 15.6617 21.3608 15.7623 21.3608 16.1112V16.5339L21.0827 16.6144C20.672 16.7419 20.0296 17.4195 19.8706 17.8891C19.7117 18.3789 19.758 19.2243 19.9567 19.6201C20.3144 20.3179 20.9502 20.7405 21.7582 20.8211C22.0099 20.8412 22.3013 20.9217 22.4139 20.9888C23.2617 21.5121 22.8842 22.8875 21.8907 22.8875C21.3608 22.8875 20.9568 22.4916 20.8707 21.8878C20.8442 21.7067 20.7648 21.5255 20.6787 21.4517C20.4866 21.2706 20.1091 21.2773 19.9104 21.4651C19.7713 21.5926 19.758 21.653 19.7845 22.0891C19.8375 22.9009 20.2548 23.498 21.0098 23.8469L21.3608 24.0079V24.3769C21.3608 24.8264 21.4271 24.9606 21.692 25.0747C21.851 25.1418 21.9304 25.1418 22.0894 25.0747C22.3543 24.9606 22.4206 24.8264 22.4206 24.3769V24.0079L22.7716 23.8469C23.5597 23.4846 23.9505 22.8942 23.9969 22.0153C24.0366 21.2907 23.9041 20.8949 23.4736 20.4185C23.063 19.9623 22.6855 19.7744 22.0364 19.7006C21.4867 19.6402 21.288 19.5329 21.0496 19.1706C20.8509 18.8821 20.8442 18.4192 21.0297 18.1105C21.4205 17.4665 22.3609 17.4665 22.7517 18.1105C22.8246 18.2313 22.8842 18.3789 22.8842 18.4326C22.8908 19.1035 23.467 19.4524 23.8776 19.0364C24.0432 18.8687 24.0565 18.3252 23.8975 17.8556C23.7518 17.4195 23.0895 16.7352 22.6987 16.6144L22.4206 16.5339V16.1112C22.4206 15.6013 22.2748 15.4135 21.8907 15.4135C21.7384 15.4135 21.5993 15.4671 21.5066 15.5476Z" fill="#C8D8FF"/>
<path d="M27.3367 13.401C27.1909 13.5419 27.1446 13.8639 27.2307 14.1055C27.3433 14.394 27.4757 14.4074 30.8801 14.4074H34.1188L34.2049 14.6422C34.3572 15.0783 34.7679 15.5211 35.2381 15.7559L35.6686 15.9706V20.2712V24.5718L35.3043 24.7328C34.8606 24.9274 34.3175 25.4977 34.2049 25.8868L34.1254 26.1485H30.8006C27.5486 26.1485 27.4757 26.1485 27.3367 26.2826C27.1909 26.4235 27.1446 26.7456 27.2307 26.9871C27.3433 27.2823 27.4559 27.289 31.1648 27.289C35.1056 27.289 35.0063 27.3024 35.1321 26.8328C35.1719 26.6986 35.205 26.5376 35.205 26.4839C35.205 26.1552 35.7282 25.6788 36.0859 25.6788C36.3177 25.6788 36.6356 25.5178 36.6886 25.3769C36.7084 25.3165 36.7283 22.9884 36.7283 20.2108C36.7283 15.1924 36.7283 15.1521 36.5892 15.0246C36.5164 14.9508 36.311 14.8703 36.1322 14.8502C35.6024 14.7764 35.2712 14.4208 35.1719 13.817C35.1454 13.656 35.0659 13.4681 34.9864 13.3943C34.854 13.2735 34.7281 13.2668 31.1648 13.2668C27.5486 13.2668 27.4757 13.2668 27.3367 13.401Z" fill="#C8D8FF"/>
<path d="M10.6552 18.7217C10.3373 18.8626 9.95977 19.2383 9.82731 19.5335C9.66173 19.8958 9.66173 20.5868 9.82731 20.9424C10.0922 21.5328 10.6287 21.875 11.291 21.875C12.2845 21.875 12.927 21.1571 12.8673 20.1105C12.8475 19.7214 12.8077 19.5872 12.6422 19.3523C12.5362 19.198 12.3176 18.9766 12.1587 18.8626C11.9136 18.6881 11.8143 18.6613 11.3705 18.6412C11.0393 18.6345 10.7877 18.6613 10.6552 18.7217ZM11.6222 19.9025C11.7944 20.0769 11.7944 20.4459 11.6222 20.607C11.3175 20.8887 10.8274 20.6741 10.8274 20.2581C10.8274 19.9763 11.0261 19.7683 11.291 19.7683C11.4036 19.7683 11.5493 19.8287 11.6222 19.9025Z" fill="#C8D8FF"/>
<path d="M31.8583 18.7217C31.5404 18.8626 31.1629 19.2383 31.0304 19.5335C30.8649 19.8958 30.8649 20.5868 31.0304 20.9424C31.2954 21.5328 31.8318 21.875 32.4942 21.875C33.4876 21.875 34.1301 21.1571 34.0705 20.1105C34.0506 19.7214 34.0109 19.5872 33.8453 19.3523C33.7393 19.198 33.5207 18.9766 33.3618 18.8626C33.1167 18.6881 33.0174 18.6613 32.5736 18.6412C32.2425 18.6345 31.9908 18.6613 31.8583 18.7217ZM32.8253 19.9025C32.9975 20.0769 32.9975 20.4459 32.8253 20.607C32.5206 20.8887 32.0305 20.6741 32.0305 20.2581C32.0305 19.9763 32.2292 19.7683 32.4942 19.7683C32.6067 19.7683 32.7525 19.8287 32.8253 19.9025Z" fill="#C8D8FF"/>
</svg>
