<svg width="24" height="24" viewBox="0 0 24 24" fill="none" xmlns="http://www.w3.org/2000/svg">
<path d="M12.0001 3C12.7969 2.9999 13.565 3.27543 14.1535 3.77251C14.7421 4.26958 15.1085 4.95228 15.181 5.68657H20.1293C20.35 5.68663 20.5624 5.7642 20.7236 5.90361C20.8849 6.04302 20.9829 6.23387 20.998 6.4376C21.013 6.64133 20.9439 6.84275 20.8047 7.00116C20.6654 7.15956 20.4664 7.26315 20.2477 7.29099L20.1293 7.29851H19.4522L17.9809 19.0979C17.9153 19.6217 17.644 20.1049 17.2186 20.4556C16.7931 20.8063 16.2431 21.0001 15.6733 21H8.32692C7.75712 21.0001 7.20717 20.8063 6.7817 20.4556C6.35623 20.1049 6.08493 19.6217 6.0194 19.0979L4.54686 7.29851H3.87098C3.66051 7.2985 3.45716 7.22797 3.29854 7.09995C3.13992 6.97194 3.03675 6.7951 3.00813 6.60215L3 6.49254C3.00001 6.29777 3.07623 6.1096 3.21457 5.96282C3.35291 5.81604 3.54401 5.72058 3.75253 5.69409L3.87098 5.68657H8.81931C8.89175 4.95228 9.25821 4.26958 9.84673 3.77251C10.4352 3.27543 11.2033 2.9999 12.0001 3V3ZM10.2582 9.71642C9.97365 9.71642 9.73558 9.88299 9.68681 10.1022L9.67752 10.1871V16.7692L9.68681 16.853C9.73558 17.0722 9.97365 17.2388 10.2582 17.2388C10.5427 17.2388 10.7808 17.0722 10.8295 16.853L10.8388 16.7681V10.1882L10.8295 10.1022C10.7808 9.88406 10.5427 9.71642 10.2582 9.71642ZM13.7421 9.71642C13.4576 9.71642 13.2195 9.88299 13.1707 10.1022L13.1614 10.1871V16.7692L13.1707 16.853C13.2195 17.0722 13.4576 17.2388 13.7421 17.2388C14.0266 17.2388 14.2647 17.0722 14.3135 16.853L14.3227 16.7681V10.1882L14.3135 10.1022C14.2647 9.88406 14.0266 9.71749 13.7421 9.71749V9.71642ZM12.0001 4.61194C11.2975 4.61194 10.7111 5.07403 10.5775 5.68657H13.4227C13.288 5.07403 12.7027 4.61194 12.0001 4.61194V4.61194Z" fill="#AABDE9"/>
</svg>
