<svg width="21" height="21" viewBox="0 0 21 21" fill="none" xmlns="http://www.w3.org/2000/svg">
<path d="M16.7305 17.1169C16.7305 17.1169 15.765 18.0652 15.5283 18.3432C15.1429 18.7546 14.6887 18.9488 14.0934 18.9488C14.0361 18.9488 13.9751 18.9488 13.9178 18.945C12.7843 18.8726 11.731 18.4308 10.941 18.0538C8.78092 17.0102 6.88417 15.5287 5.30799 13.651C4.00659 12.0857 3.13645 10.6384 2.56017 9.0845C2.20524 8.13616 2.07548 7.39729 2.13273 6.70031C2.17089 6.2547 2.34263 5.88527 2.6594 5.56915L3.96079 4.27041C4.1478 4.09522 4.34625 4 4.54089 4C4.78132 4 4.97596 4.14473 5.09808 4.2666C5.1019 4.27041 5.10572 4.27422 5.10953 4.27803C5.34233 4.49512 5.56369 4.71983 5.79649 4.95977C5.9148 5.08165 6.03692 5.20352 6.15905 5.32921L7.20093 6.36896C7.60547 6.77267 7.60547 7.14592 7.20093 7.54963C7.09025 7.66008 6.98339 7.77053 6.87272 7.87717C6.55214 8.20471 6.80397 7.95339 6.47194 8.25047C6.46431 8.25808 6.45668 8.26189 6.45286 8.26951C6.12465 8.59705 6.18571 8.91697 6.25441 9.13406C6.25822 9.14549 6.26204 9.15692 6.26586 9.16834C6.53682 9.82342 6.91846 10.4404 7.49856 11.1755L7.50237 11.1793C8.5557 12.4742 9.66628 13.4835 10.8913 14.2567C11.0478 14.3557 11.2081 14.4357 11.3608 14.5118C11.4982 14.5804 11.6279 14.6451 11.7386 14.7137C11.7539 14.7213 11.7691 14.7327 11.7844 14.7403C11.9141 14.8051 12.0363 14.8356 12.1622 14.8356C12.479 14.8356 12.6774 14.6375 12.7423 14.5728L13.4904 13.8262C13.6201 13.6967 13.8262 13.5406 14.0667 13.5406C14.3033 13.5406 14.4979 13.6891 14.6162 13.8186C14.62 13.8224 14.62 13.8224 14.6239 13.8262L16.7267 15.9248C17.1198 16.3133 16.7305 17.1169 16.7305 17.1169Z" stroke="#C8D8FF" stroke-width="1.66667" stroke-linecap="round" stroke-linejoin="round"/>
</svg>
