<svg width="65" height="67" viewBox="0 0 65 67" fill="none" xmlns="http://www.w3.org/2000/svg">
<g filter="url(#filter0_b_1775_1731)">
<rect y="0.828125" width="64.8693" height="65.6602" rx="32.4346" fill="#110F26"/>
<rect y="0.828125" width="64.8693" height="65.6602" rx="32.4346" fill="url(#paint0_linear_1775_1731)" fill-opacity="0.2"/>
<g filter="url(#filter1_bd_1775_1731)">
<mask id="path-3-outside-1_1775_1731" maskUnits="userSpaceOnUse" x="14.4307" y="15.2578" width="36" height="37" fill="black">
<rect fill="white" x="14.4307" y="15.2578" width="36" height="37"/>
<path fill-rule="evenodd" clip-rule="evenodd" d="M24.236 16.3521C23.2307 16.4768 22.4893 16.6267 21.7048 16.8641C20.0556 17.3631 18.6621 18.0933 17.6396 18.9943C16.6066 19.9045 16.0181 20.7581 15.6186 21.9259L15.4557 22.402L15.4368 30.2893C15.4206 37.058 15.4324 38.2461 15.5204 38.666C15.7519 39.7714 16.309 40.7286 17.2769 41.6843C18.0239 42.4218 18.9079 43.0329 19.9275 43.5166C20.7249 43.8949 21.8148 44.2666 22.6349 44.44L23.203 44.5601V47.5088C23.203 50.8507 23.2049 50.8649 23.6625 50.9963C23.8526 51.0508 27.0968 51.0662 35.2889 51.0515C46.3201 51.0318 46.6617 51.0274 46.996 50.9C47.8673 50.5682 48.5768 49.9784 49.0115 49.2245C49.4537 48.4578 49.4386 48.7815 49.4386 40.0147C49.4386 31.1389 49.4604 31.5606 48.9601 30.7276C48.8125 30.4818 48.5622 30.1529 48.4041 29.9967C48.0682 29.665 47.4839 29.303 46.996 29.1243C46.6742 29.0065 46.3221 28.997 41.6073 28.9791L36.5629 28.96L36.5619 25.851C36.5608 22.6045 36.544 22.3806 36.2397 21.5519C36.0707 21.0916 35.5679 20.2762 35.1588 19.7989C33.875 18.3012 31.6827 17.1162 29.2216 16.5896C27.6779 16.2594 25.7316 16.1666 24.236 16.3521ZM27.5269 17.7446C30.3449 18.0378 32.9714 19.2439 34.1859 20.8025C34.5535 21.2742 34.8943 21.9231 35.0208 22.3923C35.1462 22.8574 35.1417 23.7406 35.0115 24.2345C34.8046 25.019 34.2142 25.8993 33.4295 26.5935C32.7007 27.2381 31.4777 27.9008 30.3053 28.2862C29.0614 28.6951 27.3492 28.9642 25.9921 28.9642C24.633 28.9642 22.9186 28.6944 21.6789 28.2854C20.7839 27.9902 19.714 27.4589 19.0849 26.9974C18.3357 26.4477 17.6089 25.6547 17.3139 25.0649C16.992 24.4212 16.8692 23.94 16.8683 23.3173C16.8655 21.5492 18.0747 20.0085 20.3509 18.8799C21.449 18.3355 22.9781 17.9063 24.3738 17.7509C25.105 17.6695 26.7724 17.6662 27.5269 17.7446ZM25.4618 20.8171C24.4999 20.9038 23.5584 21.3242 23.0279 21.9042C22.2172 22.7903 22.2545 23.97 23.1194 24.8018C24.5535 26.1812 27.4597 26.1801 28.8703 24.7996C29.3272 24.3524 29.5382 23.8822 29.5341 23.32C29.5322 23.0602 29.4804 22.755 29.4084 22.5794C29.3409 22.4153 29.1413 22.1193 28.9649 21.9216C28.2341 21.1032 26.9123 20.6864 25.4618 20.8171ZM26.9758 22.3359C27.4625 22.4787 27.9123 22.7882 28.0503 23.0753C28.1648 23.3137 28.1646 23.3365 28.0453 23.5775C27.8895 23.8922 27.3314 24.2349 26.796 24.3447C26.5855 24.3878 26.1325 24.4104 25.7895 24.3947C25.2956 24.3723 25.0775 24.3269 24.7421 24.1769C24.0532 23.8688 23.7572 23.4676 23.9262 23.0708C24.0869 22.6933 24.6546 22.3713 25.4067 22.2308C25.7911 22.159 26.5447 22.2094 26.9758 22.3359ZM18.4735 28.262C19.1925 28.7409 20.4049 29.3245 21.2553 29.6009C22.2214 29.915 22.9247 30.0851 23.8573 30.2303C24.5443 30.3372 25.6336 30.3518 35.5643 30.3873L45.628 30.4231C46.5737 30.4265 47.2743 30.5807 47.7765 31.5144C48.5038 32.8662 47.5311 34.4276 46.0757 34.5338C44.9038 34.6193 42.1505 34.6085 35.0112 34.6085C26.8562 34.6085 23.7829 34.6293 23.6191 34.6857C23.1999 34.83 23.203 34.7957 23.203 39.1576V43.0991L22.6005 42.9393C21.6908 42.698 21.0434 42.4529 20.2135 42.0357C19.3762 41.6148 18.578 41.0513 18.0915 40.5377C17.6954 40.1196 17.3197 39.5475 17.0817 39.0002L16.9019 38.5867L16.8828 32.7478L16.8637 26.909L17.4222 27.4213C17.7294 27.7031 18.2025 28.0814 18.4735 28.262ZM35.1167 27.9442V28.9642L33.7222 28.9612L32.3277 28.9582L32.5946 28.8082C33.3335 28.3929 34.1017 27.8497 34.5658 27.4144C34.8499 27.1479 35.0901 26.9286 35.0995 26.927C35.1089 26.9254 35.1167 27.3832 35.1167 27.9442ZM48.0743 47.4568C48.0421 47.4778 47.9955 47.6436 47.971 47.8253C47.913 48.254 47.6215 48.7765 47.2791 49.066C46.8613 49.4191 46.3769 49.5691 45.6547 49.5691H45.0418L45.0203 47.8064C44.9991 46.058 44.9976 46.0423 44.8353 45.8719C44.6278 45.654 44.3447 45.5919 44.0284 45.6951C43.6189 45.8285 43.5871 45.9872 43.5871 47.9009V49.5691H42.283H40.9789L40.9573 47.8399C40.9447 46.8243 40.899 46.4171 40.899 46.1791C40.899 45.3291 39.5241 45.2951 39.5241 46.2131V47.811V49.5691H38.1812H36.8384V47.798V46.2471C36.8384 45.3631 35.4611 45.3631 35.4611 46.2471V47.798V49.5691H34.1182H32.7753V47.811V46.2811C32.7753 45.9915 32.5724 45.7306 32.2601 45.6532C31.9938 45.5872 31.674 45.7004 31.5083 45.9194C31.3716 46.1 31.3624 46.2065 31.3421 47.8399L31.3205 49.5691H30.0164H28.7123V47.9009C28.7123 45.9872 28.6805 45.8285 28.271 45.6951C27.9547 45.5919 27.6716 45.654 27.4642 45.8719C27.3018 46.0423 27.3003 46.058 27.2791 47.8064L27.2576 49.5691H26.0236H24.7895L24.7887 42.8043L24.7878 36.0394L35.7197 36.021L45.4214 36.0046C46.3157 36.0031 47.0914 35.9913 47.8735 35.5023L48.0978 35.362L48.1154 41.3903C48.1251 44.7058 48.1066 47.4358 48.0743 47.4568Z"/>
</mask>
<path fill-rule="evenodd" clip-rule="evenodd" d="M24.236 16.3521C23.2307 16.4768 22.4893 16.6267 21.7048 16.8641C20.0556 17.3631 18.6621 18.0933 17.6396 18.9943C16.6066 19.9045 16.0181 20.7581 15.6186 21.9259L15.4557 22.402L15.4368 30.2893C15.4206 37.058 15.4324 38.2461 15.5204 38.666C15.7519 39.7714 16.309 40.7286 17.2769 41.6843C18.0239 42.4218 18.9079 43.0329 19.9275 43.5166C20.7249 43.8949 21.8148 44.2666 22.6349 44.44L23.203 44.5601V47.5088C23.203 50.8507 23.2049 50.8649 23.6625 50.9963C23.8526 51.0508 27.0968 51.0662 35.2889 51.0515C46.3201 51.0318 46.6617 51.0274 46.996 50.9C47.8673 50.5682 48.5768 49.9784 49.0115 49.2245C49.4537 48.4578 49.4386 48.7815 49.4386 40.0147C49.4386 31.1389 49.4604 31.5606 48.9601 30.7276C48.8125 30.4818 48.5622 30.1529 48.4041 29.9967C48.0682 29.665 47.4839 29.303 46.996 29.1243C46.6742 29.0065 46.3221 28.997 41.6073 28.9791L36.5629 28.96L36.5619 25.851C36.5608 22.6045 36.544 22.3806 36.2397 21.5519C36.0707 21.0916 35.5679 20.2762 35.1588 19.7989C33.875 18.3012 31.6827 17.1162 29.2216 16.5896C27.6779 16.2594 25.7316 16.1666 24.236 16.3521ZM27.5269 17.7446C30.3449 18.0378 32.9714 19.2439 34.1859 20.8025C34.5535 21.2742 34.8943 21.9231 35.0208 22.3923C35.1462 22.8574 35.1417 23.7406 35.0115 24.2345C34.8046 25.019 34.2142 25.8993 33.4295 26.5935C32.7007 27.2381 31.4777 27.9008 30.3053 28.2862C29.0614 28.6951 27.3492 28.9642 25.9921 28.9642C24.633 28.9642 22.9186 28.6944 21.6789 28.2854C20.7839 27.9902 19.714 27.4589 19.0849 26.9974C18.3357 26.4477 17.6089 25.6547 17.3139 25.0649C16.992 24.4212 16.8692 23.94 16.8683 23.3173C16.8655 21.5492 18.0747 20.0085 20.3509 18.8799C21.449 18.3355 22.9781 17.9063 24.3738 17.7509C25.105 17.6695 26.7724 17.6662 27.5269 17.7446ZM25.4618 20.8171C24.4999 20.9038 23.5584 21.3242 23.0279 21.9042C22.2172 22.7903 22.2545 23.97 23.1194 24.8018C24.5535 26.1812 27.4597 26.1801 28.8703 24.7996C29.3272 24.3524 29.5382 23.8822 29.5341 23.32C29.5322 23.0602 29.4804 22.755 29.4084 22.5794C29.3409 22.4153 29.1413 22.1193 28.9649 21.9216C28.2341 21.1032 26.9123 20.6864 25.4618 20.8171ZM26.9758 22.3359C27.4625 22.4787 27.9123 22.7882 28.0503 23.0753C28.1648 23.3137 28.1646 23.3365 28.0453 23.5775C27.8895 23.8922 27.3314 24.2349 26.796 24.3447C26.5855 24.3878 26.1325 24.4104 25.7895 24.3947C25.2956 24.3723 25.0775 24.3269 24.7421 24.1769C24.0532 23.8688 23.7572 23.4676 23.9262 23.0708C24.0869 22.6933 24.6546 22.3713 25.4067 22.2308C25.7911 22.159 26.5447 22.2094 26.9758 22.3359ZM18.4735 28.262C19.1925 28.7409 20.4049 29.3245 21.2553 29.6009C22.2214 29.915 22.9247 30.0851 23.8573 30.2303C24.5443 30.3372 25.6336 30.3518 35.5643 30.3873L45.628 30.4231C46.5737 30.4265 47.2743 30.5807 47.7765 31.5144C48.5038 32.8662 47.5311 34.4276 46.0757 34.5338C44.9038 34.6193 42.1505 34.6085 35.0112 34.6085C26.8562 34.6085 23.7829 34.6293 23.6191 34.6857C23.1999 34.83 23.203 34.7957 23.203 39.1576V43.0991L22.6005 42.9393C21.6908 42.698 21.0434 42.4529 20.2135 42.0357C19.3762 41.6148 18.578 41.0513 18.0915 40.5377C17.6954 40.1196 17.3197 39.5475 17.0817 39.0002L16.9019 38.5867L16.8828 32.7478L16.8637 26.909L17.4222 27.4213C17.7294 27.7031 18.2025 28.0814 18.4735 28.262ZM35.1167 27.9442V28.9642L33.7222 28.9612L32.3277 28.9582L32.5946 28.8082C33.3335 28.3929 34.1017 27.8497 34.5658 27.4144C34.8499 27.1479 35.0901 26.9286 35.0995 26.927C35.1089 26.9254 35.1167 27.3832 35.1167 27.9442ZM48.0743 47.4568C48.0421 47.4778 47.9955 47.6436 47.971 47.8253C47.913 48.254 47.6215 48.7765 47.2791 49.066C46.8613 49.4191 46.3769 49.5691 45.6547 49.5691H45.0418L45.0203 47.8064C44.9991 46.058 44.9976 46.0423 44.8353 45.8719C44.6278 45.654 44.3447 45.5919 44.0284 45.6951C43.6189 45.8285 43.5871 45.9872 43.5871 47.9009V49.5691H42.283H40.9789L40.9573 47.8399C40.9447 46.8243 40.899 46.4171 40.899 46.1791C40.899 45.3291 39.5241 45.2951 39.5241 46.2131V47.811V49.5691H38.1812H36.8384V47.798V46.2471C36.8384 45.3631 35.4611 45.3631 35.4611 46.2471V47.798V49.5691H34.1182H32.7753V47.811V46.2811C32.7753 45.9915 32.5724 45.7306 32.2601 45.6532C31.9938 45.5872 31.674 45.7004 31.5083 45.9194C31.3716 46.1 31.3624 46.2065 31.3421 47.8399L31.3205 49.5691H30.0164H28.7123V47.9009C28.7123 45.9872 28.6805 45.8285 28.271 45.6951C27.9547 45.5919 27.6716 45.654 27.4642 45.8719C27.3018 46.0423 27.3003 46.058 27.2791 47.8064L27.2576 49.5691H26.0236H24.7895L24.7887 42.8043L24.7878 36.0394L35.7197 36.021L45.4214 36.0046C46.3157 36.0031 47.0914 35.9913 47.8735 35.5023L48.0978 35.362L48.1154 41.3903C48.1251 44.7058 48.1066 47.4358 48.0743 47.4568Z" fill="url(#paint1_linear_1775_1731)" fill-opacity="0.45" shape-rendering="crispEdges"/>
<path fill-rule="evenodd" clip-rule="evenodd" d="M24.236 16.3521C23.2307 16.4768 22.4893 16.6267 21.7048 16.8641C20.0556 17.3631 18.6621 18.0933 17.6396 18.9943C16.6066 19.9045 16.0181 20.7581 15.6186 21.9259L15.4557 22.402L15.4368 30.2893C15.4206 37.058 15.4324 38.2461 15.5204 38.666C15.7519 39.7714 16.309 40.7286 17.2769 41.6843C18.0239 42.4218 18.9079 43.0329 19.9275 43.5166C20.7249 43.8949 21.8148 44.2666 22.6349 44.44L23.203 44.5601V47.5088C23.203 50.8507 23.2049 50.8649 23.6625 50.9963C23.8526 51.0508 27.0968 51.0662 35.2889 51.0515C46.3201 51.0318 46.6617 51.0274 46.996 50.9C47.8673 50.5682 48.5768 49.9784 49.0115 49.2245C49.4537 48.4578 49.4386 48.7815 49.4386 40.0147C49.4386 31.1389 49.4604 31.5606 48.9601 30.7276C48.8125 30.4818 48.5622 30.1529 48.4041 29.9967C48.0682 29.665 47.4839 29.303 46.996 29.1243C46.6742 29.0065 46.3221 28.997 41.6073 28.9791L36.5629 28.96L36.5619 25.851C36.5608 22.6045 36.544 22.3806 36.2397 21.5519C36.0707 21.0916 35.5679 20.2762 35.1588 19.7989C33.875 18.3012 31.6827 17.1162 29.2216 16.5896C27.6779 16.2594 25.7316 16.1666 24.236 16.3521ZM27.5269 17.7446C30.3449 18.0378 32.9714 19.2439 34.1859 20.8025C34.5535 21.2742 34.8943 21.9231 35.0208 22.3923C35.1462 22.8574 35.1417 23.7406 35.0115 24.2345C34.8046 25.019 34.2142 25.8993 33.4295 26.5935C32.7007 27.2381 31.4777 27.9008 30.3053 28.2862C29.0614 28.6951 27.3492 28.9642 25.9921 28.9642C24.633 28.9642 22.9186 28.6944 21.6789 28.2854C20.7839 27.9902 19.714 27.4589 19.0849 26.9974C18.3357 26.4477 17.6089 25.6547 17.3139 25.0649C16.992 24.4212 16.8692 23.94 16.8683 23.3173C16.8655 21.5492 18.0747 20.0085 20.3509 18.8799C21.449 18.3355 22.9781 17.9063 24.3738 17.7509C25.105 17.6695 26.7724 17.6662 27.5269 17.7446ZM25.4618 20.8171C24.4999 20.9038 23.5584 21.3242 23.0279 21.9042C22.2172 22.7903 22.2545 23.97 23.1194 24.8018C24.5535 26.1812 27.4597 26.1801 28.8703 24.7996C29.3272 24.3524 29.5382 23.8822 29.5341 23.32C29.5322 23.0602 29.4804 22.755 29.4084 22.5794C29.3409 22.4153 29.1413 22.1193 28.9649 21.9216C28.2341 21.1032 26.9123 20.6864 25.4618 20.8171ZM26.9758 22.3359C27.4625 22.4787 27.9123 22.7882 28.0503 23.0753C28.1648 23.3137 28.1646 23.3365 28.0453 23.5775C27.8895 23.8922 27.3314 24.2349 26.796 24.3447C26.5855 24.3878 26.1325 24.4104 25.7895 24.3947C25.2956 24.3723 25.0775 24.3269 24.7421 24.1769C24.0532 23.8688 23.7572 23.4676 23.9262 23.0708C24.0869 22.6933 24.6546 22.3713 25.4067 22.2308C25.7911 22.159 26.5447 22.2094 26.9758 22.3359ZM18.4735 28.262C19.1925 28.7409 20.4049 29.3245 21.2553 29.6009C22.2214 29.915 22.9247 30.0851 23.8573 30.2303C24.5443 30.3372 25.6336 30.3518 35.5643 30.3873L45.628 30.4231C46.5737 30.4265 47.2743 30.5807 47.7765 31.5144C48.5038 32.8662 47.5311 34.4276 46.0757 34.5338C44.9038 34.6193 42.1505 34.6085 35.0112 34.6085C26.8562 34.6085 23.7829 34.6293 23.6191 34.6857C23.1999 34.83 23.203 34.7957 23.203 39.1576V43.0991L22.6005 42.9393C21.6908 42.698 21.0434 42.4529 20.2135 42.0357C19.3762 41.6148 18.578 41.0513 18.0915 40.5377C17.6954 40.1196 17.3197 39.5475 17.0817 39.0002L16.9019 38.5867L16.8828 32.7478L16.8637 26.909L17.4222 27.4213C17.7294 27.7031 18.2025 28.0814 18.4735 28.262ZM35.1167 27.9442V28.9642L33.7222 28.9612L32.3277 28.9582L32.5946 28.8082C33.3335 28.3929 34.1017 27.8497 34.5658 27.4144C34.8499 27.1479 35.0901 26.9286 35.0995 26.927C35.1089 26.9254 35.1167 27.3832 35.1167 27.9442ZM48.0743 47.4568C48.0421 47.4778 47.9955 47.6436 47.971 47.8253C47.913 48.254 47.6215 48.7765 47.2791 49.066C46.8613 49.4191 46.3769 49.5691 45.6547 49.5691H45.0418L45.0203 47.8064C44.9991 46.058 44.9976 46.0423 44.8353 45.8719C44.6278 45.654 44.3447 45.5919 44.0284 45.6951C43.6189 45.8285 43.5871 45.9872 43.5871 47.9009V49.5691H42.283H40.9789L40.9573 47.8399C40.9447 46.8243 40.899 46.4171 40.899 46.1791C40.899 45.3291 39.5241 45.2951 39.5241 46.2131V47.811V49.5691H38.1812H36.8384V47.798V46.2471C36.8384 45.3631 35.4611 45.3631 35.4611 46.2471V47.798V49.5691H34.1182H32.7753V47.811V46.2811C32.7753 45.9915 32.5724 45.7306 32.2601 45.6532C31.9938 45.5872 31.674 45.7004 31.5083 45.9194C31.3716 46.1 31.3624 46.2065 31.3421 47.8399L31.3205 49.5691H30.0164H28.7123V47.9009C28.7123 45.9872 28.6805 45.8285 28.271 45.6951C27.9547 45.5919 27.6716 45.654 27.4642 45.8719C27.3018 46.0423 27.3003 46.058 27.2791 47.8064L27.2576 49.5691H26.0236H24.7895L24.7887 42.8043L24.7878 36.0394L35.7197 36.021L45.4214 36.0046C46.3157 36.0031 47.0914 35.9913 47.8735 35.5023L48.0978 35.362L48.1154 41.3903C48.1251 44.7058 48.1066 47.4358 48.0743 47.4568Z" stroke="url(#paint2_linear_1775_1731)" stroke-width="0.614748" shape-rendering="crispEdges" mask="url(#path-3-outside-1_1775_1731)"/>
</g>
<rect x="0.5" y="1.32812" width="63.8693" height="64.6602" rx="31.9346" stroke="url(#paint3_linear_1775_1731)"/>
</g>
<defs>
<filter id="filter0_b_1775_1731" x="-51.4353" y="-50.6072" width="167.74" height="168.527" filterUnits="userSpaceOnUse" color-interpolation-filters="sRGB">
<feFlood flood-opacity="0" result="BackgroundImageFix"/>
<feGaussianBlur in="BackgroundImageFix" stdDeviation="25.7176"/>
<feComposite in2="SourceAlpha" operator="in" result="effect1_backgroundBlur_1775_1731"/>
<feBlend mode="normal" in="SourceGraphic" in2="effect1_backgroundBlur_1775_1731" result="shape"/>
</filter>
<filter id="filter1_bd_1775_1731" x="3.59652" y="7.50034" width="57.6761" height="58.4671" filterUnits="userSpaceOnUse" color-interpolation-filters="sRGB">
<feFlood flood-opacity="0" result="BackgroundImageFix"/>
<feGaussianBlur in="BackgroundImageFix" stdDeviation="0.883861"/>
<feComposite in2="SourceAlpha" operator="in" result="effect1_backgroundBlur_1775_1731"/>
<feColorMatrix in="SourceAlpha" type="matrix" values="0 0 0 0 0 0 0 0 0 0 0 0 0 0 0 0 0 0 127 0" result="hardAlpha"/>
<feOffset dy="3.07374"/>
<feGaussianBlur stdDeviation="5.76326"/>
<feComposite in2="hardAlpha" operator="out"/>
<feColorMatrix type="matrix" values="0 0 0 0 0 0 0 0 0 0 0 0 0 0 0 0 0 0 0.25 0"/>
<feBlend mode="normal" in2="effect1_backgroundBlur_1775_1731" result="effect2_dropShadow_1775_1731"/>
<feBlend mode="normal" in="SourceGraphic" in2="effect2_dropShadow_1775_1731" result="shape"/>
</filter>
<linearGradient id="paint0_linear_1775_1731" x1="69.967" y1="65.8846" x2="-17.7165" y2="9.60379" gradientUnits="userSpaceOnUse">
<stop stop-color="#5961F8"/>
<stop offset="1" stop-color="#F2D9F7"/>
</linearGradient>
<linearGradient id="paint1_linear_1775_1731" x1="15.4307" y1="55.4591" x2="48.522" y2="22.9287" gradientUnits="userSpaceOnUse">
<stop stop-color="#686CF8"/>
<stop offset="1" stop-color="#ECABF1"/>
</linearGradient>
<linearGradient id="paint2_linear_1775_1731" x1="49.4388" y1="21.4986" x2="-0.584701" y2="37.4677" gradientUnits="userSpaceOnUse">
<stop stop-color="#9A7EBC" stop-opacity="0.7"/>
<stop offset="1" stop-color="#4F569F" stop-opacity="0.46"/>
</linearGradient>
<linearGradient id="paint3_linear_1775_1731" x1="-1.73267" y1="0.828125" x2="74.2319" y2="61.1197" gradientUnits="userSpaceOnUse">
<stop stop-color="#7E84BC" stop-opacity="0.4"/>
<stop offset="0.509573" stop-color="#37384A" stop-opacity="0.3"/>
<stop offset="1" stop-color="#7379B5" stop-opacity="0.4"/>
</linearGradient>
</defs>
</svg>
