<svg width="20" height="21" viewBox="0 0 20 21" fill="none" xmlns="http://www.w3.org/2000/svg">
<path d="M16.6668 9.50838C16.463 8.0419 15.7827 6.6831 14.7307 5.64129C13.6787 4.59949 12.3133 3.93248 10.8449 3.74301C9.37648 3.55354 7.88651 3.85212 6.6045 4.59275C5.32248 5.33339 4.31954 6.47499 3.75016 7.84171M3.3335 4.50838V7.84171H6.66683M3.3335 11.175C3.5373 12.6415 4.21761 14.0003 5.26963 15.0421C6.32166 16.0839 7.68703 16.7509 9.15544 16.9404C10.6238 17.1299 12.1138 16.8313 13.3958 16.0907C14.6778 15.35 15.6808 14.2084 16.2502 12.8417M16.6668 16.175V12.8417H13.3335" stroke="url(#paint0_linear_775_47511)" stroke-width="1.5" stroke-linecap="round" stroke-linejoin="round"/>
<defs>
<linearGradient id="paint0_linear_775_47511" x1="17.7146" y1="16.8736" x2="-0.160018" y2="5.23889" gradientUnits="userSpaceOnUse">
<stop stop-color="#5961F8"/>
<stop offset="1" stop-color="#F2D9F7"/>
</linearGradient>
</defs>
</svg>
