<svg width="104" height="42" viewBox="0 0 104 42" fill="none" xmlns="http://www.w3.org/2000/svg">
<g filter="url(#filter0_d_775_45133)">
<rect x="1" y="1.67188" width="102" height="39" rx="4" fill="#15142A"/>
<path d="M32.0708 12.0999L21.4068 22.7639M14.2715 17.4056L30.8774 11.6443C31.9 11.2896 32.8811 12.2707 32.5264 13.2933L26.7651 29.8992C26.3704 31.0368 24.773 31.068 24.3342 29.9467L21.6973 23.208C21.5656 22.8714 21.2993 22.6051 20.9627 22.4734L14.224 19.8365C13.1027 19.3977 13.1339 17.8003 14.2715 17.4056Z" stroke="#96ABDE" stroke-width="2" stroke-linecap="round"/>
<path d="M48.1992 15.8955H51.249C52.8838 15.8955 53.8682 16.8008 53.8682 18.3213C53.8682 19.877 52.9453 20.7471 51.3193 20.7471H48.1992V15.8955ZM48.1992 22.1533H51.3193L54.0352 27.1719H55.8896L52.9541 21.9072C54.5449 21.4062 55.5029 20.0352 55.5029 18.2686C55.5029 15.9834 53.9033 14.4893 51.46 14.4893H46.6172V27.1719H48.1992V22.1533ZM61.6992 18.8662C63.2021 18.8662 64.2041 19.9736 64.2393 21.6523H59.0186C59.1328 19.9736 60.1875 18.8662 61.6992 18.8662ZM64.1953 24.7197C63.7998 25.5547 62.9736 26.0029 61.752 26.0029C60.1436 26.0029 59.0977 24.8164 59.0186 22.9443V22.874H65.8301V22.2939C65.8301 19.3496 64.2744 17.5303 61.7168 17.5303C59.1152 17.5303 57.4453 19.4639 57.4453 22.4434C57.4453 25.4404 59.0889 27.3389 61.7168 27.3389C63.791 27.3389 65.25 26.3457 65.707 24.7197H64.1953ZM72.8174 17.5303C71.5254 17.5303 70.3916 18.1895 69.7852 19.2793H69.6445V17.6973H68.2031V30.3359H69.7148V25.748H69.8555C70.374 26.75 71.4639 27.3389 72.8174 27.3389C75.2256 27.3389 76.7988 25.3965 76.7988 22.4346C76.7988 19.4551 75.2344 17.5303 72.8174 17.5303ZM72.457 25.9766C70.752 25.9766 69.6709 24.6055 69.6709 22.4346C69.6709 20.2549 70.752 18.8926 72.4658 18.8926C74.1973 18.8926 75.2344 20.2197 75.2344 22.4346C75.2344 24.6494 74.1973 25.9766 72.457 25.9766ZM79.2598 27.1719H80.7715V13.9355H79.2598V27.1719ZM84.5156 30.5996C86.1943 30.5996 86.9502 29.9492 87.7588 27.752L91.459 17.6973H89.8506L87.2578 25.4932H87.1172L84.5156 17.6973H82.8809L86.3877 27.1807L86.2119 27.7432C85.8164 28.8857 85.3418 29.2988 84.4717 29.2988C84.2607 29.2988 84.0234 29.29 83.8389 29.2549V30.5469C84.0498 30.582 84.3135 30.5996 84.5156 30.5996Z" fill="#5C6D8E"/>
<rect x="1.5" y="2.17188" width="101" height="38" rx="3.5" stroke="#343E50"/>
</g>
<defs>
<filter id="filter0_d_775_45133" x="1" y="1.67188" width="102" height="40" filterUnits="userSpaceOnUse" color-interpolation-filters="sRGB">
<feFlood flood-opacity="0" result="BackgroundImageFix"/>
<feColorMatrix in="SourceAlpha" type="matrix" values="0 0 0 0 0 0 0 0 0 0 0 0 0 0 0 0 0 0 127 0" result="hardAlpha"/>
<feOffset dy="1"/>
<feColorMatrix type="matrix" values="0 0 0 0 0 0 0 0 0 0 0 0 0 0 0 0 0 0 0.05 0"/>
<feBlend mode="normal" in2="BackgroundImageFix" result="effect1_dropShadow_775_45133"/>
<feBlend mode="normal" in="SourceGraphic" in2="effect1_dropShadow_775_45133" result="shape"/>
</filter>
</defs>
</svg>
