<svg width="24" height="24" viewBox="0 0 24 24" fill="none" xmlns="http://www.w3.org/2000/svg">
<path d="M15.6004 7.79844H8.40039H10.364C11.0584 7.79844 11.7244 8.08742 12.2154 8.6018C12.7064 9.11619 12.9822 9.81384 12.9822 10.5413C12.9822 11.2687 12.7064 11.9664 12.2154 12.4808C11.7244 12.9952 11.0584 13.2841 10.364 13.2841H8.40039L12.3277 17.3984M8.40039 10.5413H15.6004M21.6004 11.9984C21.6004 17.3004 17.3023 21.5984 12.0004 21.5984C6.69846 21.5984 2.40039 17.3004 2.40039 11.9984C2.40039 6.6965 6.69846 2.39844 12.0004 2.39844C17.3023 2.39844 21.6004 6.6965 21.6004 11.9984Z" stroke="url(#paint0_linear_1980_112440)" stroke-width="2" stroke-linecap="round" stroke-linejoin="round"/>
<defs>
<linearGradient id="paint0_linear_1980_112440" x1="23.1092" y1="21.4219" x2="-2.65889" y2="4.68067" gradientUnits="userSpaceOnUse">
<stop stop-color="#5961F8"/>
<stop offset="1" stop-color="#F2D9F7"/>
</linearGradient>
</defs>
</svg>
