<svg width="35" height="21" viewBox="0 0 35 21" fill="none" xmlns="http://www.w3.org/2000/svg">
<path d="M34.1102 9.87538H30.2542C27.3474 9.87538 24.9152 8.43789 24.9152 6.74977V6.1248C24.9152 2.99919 19.4576 0.5 12.4576 0.5C5.45761 0.5 0 3.00063 0 6.12552V14.8752C0 18.0008 5.45761 20.5 12.4576 20.5C18.0494 20.5 22.6567 18.9046 24.2842 16.6698C25.2857 18.1983 27.5445 19.25 30.2542 19.25H34.1102C34.5847 19.25 35 18.8125 35 18.375V10.8129C35 10.313 34.5847 9.87545 34.1102 9.87545V9.87538ZM12.4576 1.75067C19.1017 1.75067 23.7287 4.06305 23.7287 6.12552C23.7287 8.18799 19.1017 10.5004 12.4576 10.5004C5.81355 10.5004 1.18651 8.18799 1.18651 6.12552C1.18651 4.06305 5.81362 1.75067 12.4576 1.75067ZM21.9492 17.1441V16.1252C21.9492 15.7502 21.712 15.5002 21.3559 15.5002C20.9999 15.5002 20.7627 15.7501 20.7627 16.1252V17.7595C20.2308 17.9933 19.6351 18.2082 18.9831 18.398V16.7502C18.9831 16.3752 18.7458 16.1252 18.3898 16.1252C18.0338 16.1252 17.7966 16.3751 17.7966 16.7502V18.6251C17.7967 18.6501 17.7978 18.6749 17.8 18.6998C17.2372 18.8243 16.6417 18.9307 16.0169 19.0166V17.376C16.0169 17.001 15.7797 16.7511 15.4237 16.7511C15.0676 16.7511 14.8304 17.001 14.8304 17.376V19.1491C14.2383 19.2006 13.6448 19.2325 13.0508 19.2446V18.0011C13.0508 17.6261 12.8136 17.3761 12.4575 17.3761C12.1015 17.3761 11.8643 17.626 11.8643 18.0011V19.2447C11.2703 19.2325 10.6768 19.2007 10.0846 19.1492V17.3761C10.0846 17.0011 9.84744 16.7511 9.49143 16.7511C9.13541 16.7511 8.8982 17.001 8.8982 17.3761V19.0167C8.2734 18.9315 7.67785 18.8251 7.11505 18.6998C7.11733 18.675 7.11849 18.6501 7.11854 18.6252V16.7501C7.11854 16.3751 6.88133 16.1252 6.52531 16.1252C6.1693 16.1252 5.93209 16.3751 5.93209 16.7501V18.3979C5.28008 18.2082 4.68439 17.9932 4.15242 17.7594V16.125C4.15242 15.75 3.91522 15.5 3.5592 15.5C3.20318 15.5 2.96598 15.7499 2.96598 16.125V17.1439C1.82438 16.4405 1.18631 15.6406 1.18631 14.8751V8.56306C1.65478 9.01174 2.25702 9.42772 2.96933 9.80178C2.96728 9.82583 2.96591 9.85039 2.96591 9.8756V12.3755C2.96591 12.7505 3.20312 13.0005 3.55913 13.0005C3.91515 13.0005 4.15235 12.7506 4.15235 12.3755V10.3434L4.27759 10.3933L4.29659 10.4005C4.80635 10.5985 5.35288 10.7781 5.93202 10.9369V12.3754C5.93202 12.7504 6.16923 13.0003 6.52524 13.0003C6.88126 13.0003 7.11847 12.7504 7.11847 12.3754V11.2227C7.68817 11.3425 8.28249 11.4437 8.89814 11.5242V13.626C8.89814 14.001 9.13534 14.2509 9.49136 14.2509C9.84737 14.2509 10.0846 14.001 10.0846 13.626V11.6522C10.4063 11.6793 10.7283 11.7007 11.0507 11.7165L11.0679 11.7173L11.519 11.7357L11.5306 11.7361L11.8642 11.7447V13.0009C11.8642 13.3759 12.1014 13.6259 12.4574 13.6259C12.8134 13.6259 13.0506 13.376 13.0506 13.0009V11.7449L13.396 11.7358L13.8642 11.7166C14.1866 11.7008 14.5087 11.6794 14.8304 11.6523V13.6261C14.8304 14.0011 15.0676 14.2511 15.4236 14.2511C15.7796 14.2511 16.0168 14.0012 16.0168 13.6261V11.525C16.6325 11.4444 17.2268 11.3434 17.7965 11.2236V12.3762C17.7965 12.7512 18.0337 13.0011 18.3897 13.0011C18.7457 13.0011 18.9829 12.7512 18.9829 12.3762V10.9368C19.5619 10.7781 20.1085 10.5984 20.6181 10.4005L20.6374 10.3931L20.7625 10.3433V12.3754C20.7625 12.7504 20.9997 13.0003 21.3557 13.0003C21.7117 13.0003 21.9489 12.7504 21.9489 12.3754V9.87545C21.9489 9.85025 21.9477 9.82504 21.9455 9.80164C22.6578 9.42764 23.26 9.01159 23.7285 8.56292V14.8751C23.7284 15.6407 23.0904 16.4406 21.9488 17.144L21.9492 17.1441ZM30.2548 18.0001C29.6328 18.0001 29.0341 17.9338 28.4752 17.8141V15.5002C28.4752 15.1252 28.238 14.8752 27.8819 14.8752C27.5259 14.8752 27.2887 15.1251 27.2887 15.5002V17.4565C25.8668 16.8871 24.9158 15.93 24.9158 14.8752V9.2952C25.2517 9.61496 25.651 9.90189 26.1023 10.1488V12.3752C26.1023 12.7502 26.3395 13.0002 26.6955 13.0002C27.0515 13.0002 27.2887 12.7503 27.2887 12.3752V10.6629C27.6636 10.7885 28.0603 10.8907 28.4752 10.9668V12.3753C28.4752 12.7503 28.7124 13.0003 29.0684 13.0003C29.4244 13.0003 29.6616 12.7504 29.6616 12.3753V11.108C29.8567 11.1192 30.0545 11.1253 30.2548 11.1253H30.8481V18H30.2548V18.0001ZM33.8142 18.0001H32.0332V11.1253H33.8129V18.0001H33.8142ZM12.4583 8.62543C14.8312 8.62543 17.2041 7.7504 17.2041 6.12552C17.2041 4.50063 14.8312 3.62561 12.4583 3.62561C10.0854 3.62561 7.71251 4.50063 7.71251 6.12552C7.71251 7.7504 10.0854 8.62543 12.4583 8.62543ZM12.4583 4.87556C14.6532 4.87556 16.0176 5.68793 16.0176 6.12552C16.0176 6.5631 14.6532 7.37547 12.4583 7.37547C10.2634 7.37547 8.89896 6.5631 8.89896 6.12552C8.89896 5.68793 10.2634 4.87556 12.4583 4.87556Z" fill="#C8D8FF"/>
</svg>
