<svg width="269" height="248" viewBox="0 0 269 248" fill="none" xmlns="http://www.w3.org/2000/svg">
<rect width="267" height="61.5" transform="translate(1 1)" fill="white" fill-opacity="0.03"/>
<path d="M13.5415 33.9888C13.6807 35.8125 15.2261 36.999 17.4673 36.999C19.8843 36.999 21.415 35.7612 21.415 33.8203C21.415 32.2676 20.5361 31.418 18.3462 30.8687L17.2402 30.5757C15.7827 30.2021 15.2041 29.7261 15.2041 28.8984C15.2041 27.8291 16.1343 27.126 17.5405 27.126C18.8589 27.126 19.7524 27.7705 19.9355 28.8545H21.2612C21.1514 27.1479 19.6279 25.9321 17.5845 25.9321C15.3506 25.9321 13.8491 27.1479 13.8491 28.9424C13.8491 30.4438 14.6768 31.3081 16.5884 31.7915L17.9434 32.1431C19.4009 32.5093 20.0601 33.0806 20.0601 33.9814C20.0601 35.0288 19.0127 35.7979 17.5918 35.7979C16.0903 35.7979 15.0356 35.0947 14.8745 33.9888H13.5415ZM23.4805 36.75H24.7402V28.8545H23.4805V36.75ZM24.1104 27.2505C24.5938 27.2505 24.9893 26.855 24.9893 26.3716C24.9893 25.8882 24.5938 25.4927 24.1104 25.4927C23.627 25.4927 23.2314 25.8882 23.2314 26.3716C23.2314 26.855 23.627 27.2505 24.1104 27.2505ZM26.9595 36.75H33.0386V35.6953H28.4829V35.5781L33.0166 29.7993V28.8545H26.9668V29.9092H31.5151V30.0264L26.9595 35.8271V36.75ZM38.1582 29.8286C39.4106 29.8286 40.2456 30.7515 40.2749 32.1504H35.9243C36.0195 30.7515 36.8984 29.8286 38.1582 29.8286ZM40.2383 34.7065C39.9087 35.4023 39.2202 35.7759 38.2021 35.7759C36.8618 35.7759 35.9902 34.7871 35.9243 33.2271V33.1685H41.6006V32.6851C41.6006 30.2314 40.3042 28.7153 38.1729 28.7153C36.0049 28.7153 34.6133 30.3267 34.6133 32.8096C34.6133 35.3071 35.9829 36.8892 38.1729 36.8892C39.9014 36.8892 41.1172 36.0615 41.498 34.7065H40.2383Z" fill="#AABDE9"/>
<rect x="1" y="1" width="53.4" height="61.5" stroke="#343E50"/>
<path d="M64.3613 35.5635H59.2637V26.1812H57.9453V36.75H64.3613V35.5635ZM69.0928 29.8286C70.3452 29.8286 71.1802 30.7515 71.2095 32.1504H66.8589C66.9541 30.7515 67.833 29.8286 69.0928 29.8286ZM71.1729 34.7065C70.8433 35.4023 70.1548 35.7759 69.1367 35.7759C67.7964 35.7759 66.9248 34.7871 66.8589 33.2271V33.1685H72.5352V32.6851C72.5352 30.2314 71.2388 28.7153 69.1074 28.7153C66.9395 28.7153 65.5479 30.3267 65.5479 32.8096C65.5479 35.3071 66.9175 36.8892 69.1074 36.8892C70.8359 36.8892 72.0518 36.0615 72.4326 34.7065H71.1729ZM74.5127 36.75H75.7725V32.0771C75.7725 30.6929 76.5854 29.8506 77.8452 29.8506C79.105 29.8506 79.7056 30.5244 79.7056 31.9453V36.75H80.9653V31.6377C80.9653 29.7627 79.9766 28.7153 78.2041 28.7153C76.9956 28.7153 76.2266 29.228 75.8311 30.0996H75.7139V28.8545H74.5127V36.75ZM86.4658 35.5195C85.001 35.5195 84.1807 34.4062 84.1807 32.6851C84.1807 30.9639 85.001 29.8506 86.4658 29.8506C87.9233 29.8506 88.8096 30.9639 88.8096 32.6851C88.8096 34.4062 87.9307 35.5195 86.4658 35.5195ZM86.5244 39.7822C88.6777 39.7822 90.04 38.6543 90.04 36.8892V28.8545H88.8389V30.1069H88.7217C88.2676 29.2573 87.2935 28.7153 86.1875 28.7153C84.1587 28.7153 82.877 30.3193 82.877 32.6851C82.877 35.0508 84.144 36.6328 86.1875 36.6328C87.2715 36.6328 88.165 36.1421 88.6631 35.2705H88.7803V36.8232C88.7803 37.9878 87.938 38.6836 86.5244 38.6836C85.3892 38.6836 84.686 38.2661 84.5469 37.6216H83.2139C83.4043 38.9253 84.6201 39.7822 86.5244 39.7822ZM92.9404 26.811V28.8545H91.666V29.9092H92.9404V34.6992C92.9404 36.208 93.5923 36.8086 95.2183 36.8086C95.4673 36.8086 95.709 36.7793 95.958 36.7354V35.6733C95.7236 35.6953 95.5991 35.7026 95.3721 35.7026C94.5518 35.7026 94.2002 35.3071 94.2002 34.377V29.9092H95.958V28.8545H94.2002V26.811H92.9404ZM97.9355 36.75H99.1953V32.0771C99.1953 30.7441 99.9717 29.8506 101.385 29.8506C102.579 29.8506 103.209 30.5464 103.209 31.9453V36.75H104.469V31.6377C104.469 29.7847 103.414 28.7153 101.744 28.7153C100.536 28.7153 99.708 29.228 99.3125 30.0996H99.1953V25.7197H97.9355V36.75Z" fill="#AABDE9"/>
<rect x="54.3984" y="1" width="53.4" height="61.5" stroke="#343E50"/>
<path d="M123.971 36.75C126.22 36.75 127.553 35.644 127.553 33.7837C127.553 32.3848 126.637 31.396 125.194 31.2129V31.0957C126.212 30.9126 127.018 29.9165 127.018 28.8179C127.018 27.1992 125.832 26.1812 123.891 26.1812H119.848V36.75H123.971ZM121.166 27.3457H123.612C124.923 27.3457 125.685 27.9683 125.685 29.0449C125.685 30.1655 124.872 30.7368 123.275 30.7368H121.166V27.3457ZM121.166 35.5854V31.8721H123.649C125.333 31.8721 126.198 32.4946 126.198 33.7178C126.198 34.9409 125.363 35.5854 123.773 35.5854H121.166ZM135.932 28.8545H134.672V33.5273C134.672 34.9116 133.91 35.7393 132.519 35.7393C131.259 35.7393 130.731 35.0801 130.731 33.6592V28.8545H129.472V33.9668C129.472 35.8345 130.395 36.8892 132.167 36.8892C133.375 36.8892 134.218 36.3911 134.613 35.5122H134.73V36.75H135.932V28.8545ZM138.122 31.0151C138.122 32.1577 138.795 32.7949 140.275 33.1538L141.63 33.4834C142.472 33.6885 142.882 34.0547 142.882 34.5967C142.882 35.3218 142.121 35.8271 141.059 35.8271C140.048 35.8271 139.418 35.4023 139.206 34.7358H137.909C138.048 36.0469 139.257 36.8892 141.015 36.8892C142.809 36.8892 144.179 35.915 144.179 34.5015C144.179 33.3662 143.461 32.7217 141.974 32.3628L140.758 32.0698C139.828 31.8428 139.389 31.5059 139.389 30.9639C139.389 30.2607 140.121 29.7847 141.059 29.7847C142.011 29.7847 142.626 30.2021 142.794 30.832H144.04C143.871 29.5356 142.721 28.7153 141.066 28.7153C139.389 28.7153 138.122 29.7041 138.122 31.0151ZM146.61 26.811V28.8545H145.336V29.9092H146.61V34.6992C146.61 36.208 147.262 36.8086 148.888 36.8086C149.137 36.8086 149.379 36.7793 149.628 36.7354V35.6733C149.394 35.6953 149.269 35.7026 149.042 35.7026C148.222 35.7026 147.87 35.3071 147.87 34.377V29.9092H149.628V28.8545H147.87V26.811H146.61Z" fill="#AABDE9"/>
<rect x="107.801" y="1" width="53.4" height="61.5" stroke="#343E50"/>
<path d="M156.741 33.9888C156.88 35.8125 158.425 36.999 160.667 36.999C163.083 36.999 164.614 35.7612 164.614 33.8203C164.614 32.2676 163.735 31.418 161.545 30.8687L160.439 30.5757C158.982 30.2021 158.403 29.7261 158.403 28.8984C158.403 27.8291 159.333 27.126 160.74 27.126C162.058 27.126 162.952 27.7705 163.135 28.8545H164.46C164.351 27.1479 162.827 25.9321 160.784 25.9321C158.55 25.9321 157.048 27.1479 157.048 28.9424C157.048 30.4438 157.876 31.3081 159.788 31.7915L161.143 32.1431C162.6 32.5093 163.259 33.0806 163.259 33.9814C163.259 35.0288 162.212 35.7979 160.791 35.7979C159.29 35.7979 158.235 35.0947 158.074 33.9888H156.741ZM166.724 36.75H167.983V32.0771C167.983 30.7441 168.76 29.8506 170.173 29.8506C171.367 29.8506 171.997 30.5464 171.997 31.9453V36.75H173.257V31.6377C173.257 29.7847 172.202 28.7153 170.532 28.7153C169.324 28.7153 168.496 29.228 168.101 30.0996H167.983V25.7197H166.724V36.75ZM178.801 36.8892C181.05 36.8892 182.441 35.3364 182.441 32.8022C182.441 30.2607 181.05 28.7153 178.801 28.7153C176.553 28.7153 175.161 30.2607 175.161 32.8022C175.161 35.3364 176.553 36.8892 178.801 36.8892ZM178.801 35.7539C177.307 35.7539 176.465 34.6699 176.465 32.8022C176.465 30.9272 177.307 29.8506 178.801 29.8506C180.295 29.8506 181.138 30.9272 181.138 32.8022C181.138 34.6699 180.295 35.7539 178.801 35.7539ZM190.806 28.8545H189.546V33.5273C189.546 34.9116 188.784 35.7393 187.393 35.7393C186.133 35.7393 185.605 35.0801 185.605 33.6592V28.8545H184.346V33.9668C184.346 35.8345 185.269 36.8892 187.041 36.8892C188.25 36.8892 189.092 36.3911 189.487 35.5122H189.604V36.75H190.806V28.8545ZM193.252 36.75H194.512V25.7197H193.252V36.75ZM199.88 36.8892C200.972 36.8892 201.909 36.3691 202.407 35.4902H202.524V36.75H203.726V25.7197H202.466V30.0996H202.356C201.909 29.2354 200.979 28.7153 199.88 28.7153C197.874 28.7153 196.562 30.3267 196.562 32.8022C196.562 35.2852 197.859 36.8892 199.88 36.8892ZM200.173 29.8506C201.602 29.8506 202.495 30.9932 202.495 32.8022C202.495 34.626 201.609 35.7539 200.173 35.7539C198.73 35.7539 197.866 34.6479 197.866 32.8022C197.866 30.9639 198.738 29.8506 200.173 29.8506ZM209.321 29.8286C210.574 29.8286 211.409 30.7515 211.438 32.1504H207.087C207.183 30.7515 208.062 29.8286 209.321 29.8286ZM211.401 34.7065C211.072 35.4023 210.383 35.7759 209.365 35.7759C208.025 35.7759 207.153 34.7871 207.087 33.2271V33.1685H212.764V32.6851C212.764 30.2314 211.467 28.7153 209.336 28.7153C207.168 28.7153 205.776 30.3267 205.776 32.8096C205.776 35.3071 207.146 36.8892 209.336 36.8892C211.064 36.8892 212.28 36.0615 212.661 34.7065H211.401ZM214.741 36.75H216.001V31.8574C216.001 30.7441 216.873 29.9385 218.074 29.9385C218.323 29.9385 218.777 29.9824 218.879 30.0117V28.752C218.718 28.73 218.455 28.7153 218.25 28.7153C217.202 28.7153 216.294 29.2573 216.06 30.0264H215.942V28.8545H214.741V36.75Z" fill="#AABDE9"/>
<rect x="161.199" y="1" width="53.4" height="61.5" stroke="#343E50"/>
<path d="M218.643 33.9888C218.782 35.8125 220.328 36.999 222.569 36.999C224.986 36.999 226.517 35.7612 226.517 33.8203C226.517 32.2676 225.638 31.418 223.448 30.8687L222.342 30.5757C220.884 30.2021 220.306 29.7261 220.306 28.8984C220.306 27.8291 221.236 27.126 222.642 27.126C223.96 27.126 224.854 27.7705 225.037 28.8545H226.363C226.253 27.1479 224.729 25.9321 222.686 25.9321C220.452 25.9321 218.951 27.1479 218.951 28.9424C218.951 30.4438 219.778 31.3081 221.69 31.7915L223.045 32.1431C224.502 32.5093 225.162 33.0806 225.162 33.9814C225.162 35.0288 224.114 35.7979 222.693 35.7979C221.192 35.7979 220.137 35.0947 219.976 33.9888H218.643ZM228.626 36.75H229.886V25.7197H228.626V36.75ZM235.481 29.8286C236.734 29.8286 237.569 30.7515 237.598 32.1504H233.248C233.343 30.7515 234.222 29.8286 235.481 29.8286ZM237.562 34.7065C237.232 35.4023 236.543 35.7759 235.525 35.7759C234.185 35.7759 233.313 34.7871 233.248 33.2271V33.1685H238.924V32.6851C238.924 30.2314 237.627 28.7153 235.496 28.7153C233.328 28.7153 231.937 30.3267 231.937 32.8096C231.937 35.3071 233.306 36.8892 235.496 36.8892C237.225 36.8892 238.44 36.0615 238.821 34.7065H237.562ZM244.051 29.8286C245.303 29.8286 246.138 30.7515 246.167 32.1504H241.817C241.912 30.7515 242.791 29.8286 244.051 29.8286ZM246.131 34.7065C245.801 35.4023 245.113 35.7759 244.095 35.7759C242.754 35.7759 241.883 34.7871 241.817 33.2271V33.1685H247.493V32.6851C247.493 30.2314 246.197 28.7153 244.065 28.7153C241.897 28.7153 240.506 30.3267 240.506 32.8096C240.506 35.3071 241.875 36.8892 244.065 36.8892C245.794 36.8892 247.01 36.0615 247.391 34.7065H246.131ZM255.77 28.8545H254.422L252.261 35.3584H252.144L249.983 28.8545H248.636L251.558 36.75H252.847L255.77 28.8545ZM260.311 29.8286C261.563 29.8286 262.398 30.7515 262.427 32.1504H258.077C258.172 30.7515 259.051 29.8286 260.311 29.8286ZM262.391 34.7065C262.061 35.4023 261.373 35.7759 260.354 35.7759C259.014 35.7759 258.143 34.7871 258.077 33.2271V33.1685H263.753V32.6851C263.753 30.2314 262.457 28.7153 260.325 28.7153C258.157 28.7153 256.766 30.3267 256.766 32.8096C256.766 35.3071 258.135 36.8892 260.325 36.8892C262.054 36.8892 263.27 36.0615 263.65 34.7065H262.391Z" fill="#AABDE9"/>
<rect x="214.602" y="1" width="53.4" height="61.5" stroke="#343E50"/>
<rect x="1" y="62.5" width="53.4" height="61.5" fill="white" fill-opacity="0.03"/>
<path d="M18.3584 98.25H19.8525L22.6724 94.0825H22.7896L25.5581 98.25H27.1401L23.5586 92.9912L27.2207 87.6812H25.7192L22.8921 91.8853H22.7749L19.9917 87.6812H18.4023L21.9766 92.9326L18.3584 98.25ZM28.6489 95.4888C28.7881 97.3125 30.3335 98.499 32.5747 98.499C34.9917 98.499 36.5225 97.2612 36.5225 95.3203C36.5225 93.7676 35.6436 92.918 33.4536 92.3687L32.3477 92.0757C30.8901 91.7021 30.3115 91.2261 30.3115 90.3984C30.3115 89.3291 31.2417 88.626 32.6479 88.626C33.9663 88.626 34.8599 89.2705 35.043 90.3545H36.3687C36.2588 88.6479 34.7354 87.4321 32.6919 87.4321C30.458 87.4321 28.9565 88.6479 28.9565 90.4424C28.9565 91.9438 29.7842 92.8081 31.6958 93.2915L33.0508 93.6431C34.5083 94.0093 35.1675 94.5806 35.1675 95.4814C35.1675 96.5288 34.1201 97.2979 32.6992 97.2979C31.1978 97.2979 30.1431 96.5947 29.9819 95.4888H28.6489Z" fill="#AABDE9"/>
<rect x="1" y="62.5" width="53.4" height="61.5" stroke="#343E50"/>
<path d="M76.0122 98.4917C78.1802 98.4917 79.7183 96.9756 79.7183 94.8516C79.7183 92.8008 78.2607 91.314 76.2466 91.314C74.9868 91.314 73.9541 91.9146 73.4341 92.9399H73.3169C73.3901 90.1274 74.3643 88.604 76.0854 88.604C77.1255 88.604 77.9238 89.2046 78.2095 90.1934H79.5645C79.2275 88.4941 77.8945 87.4321 76.1001 87.4321C73.5146 87.4321 72.0352 89.5122 72.0352 93.145C72.0352 94.3096 72.2036 95.2837 72.5479 96.0894C73.207 97.6421 74.4229 98.4917 76.0122 98.4917ZM75.9976 97.3345C74.6426 97.3345 73.6099 96.2651 73.6099 94.8516C73.6099 93.4526 74.6133 92.4565 76.0122 92.4565C77.4111 92.4565 78.3853 93.4526 78.3853 94.8955C78.3853 96.2798 77.3525 97.3345 75.9976 97.3345ZM86.6689 98.25H87.958V96.0601H89.4595V94.8809H87.958V87.6812H86.0464C84.1421 90.5303 82.4648 93.1816 81.52 94.8589V96.0601H86.6689V98.25ZM82.8677 94.8003C84.1274 92.6616 85.5044 90.479 86.5884 88.9043H86.6763V94.8882H82.8677V94.8003Z" fill="#AABDE9"/>
<rect x="54.3984" y="62.5" width="53.4" height="61.5" stroke="#343E50"/>
<path d="M130.556 98.4917C133.141 98.4917 134.621 96.4116 134.621 92.7788C134.621 91.6143 134.452 90.6401 134.108 89.8345C133.449 88.2744 132.226 87.4321 130.644 87.4321C128.476 87.4321 126.938 88.9482 126.938 91.0723C126.938 93.123 128.395 94.6099 130.409 94.6099C131.669 94.6099 132.702 94.0093 133.222 92.9839H133.251H133.28H133.339C133.266 95.7964 132.292 97.3198 130.57 97.3198C129.53 97.3198 128.732 96.7192 128.446 95.7305H127.091C127.428 97.4297 128.761 98.4917 130.556 98.4917ZM130.644 93.4673C129.245 93.4673 128.271 92.4712 128.271 91.0283C128.271 89.644 129.303 88.5894 130.658 88.5894C132.013 88.5894 133.046 89.6587 133.046 91.0723C133.046 92.4712 132.042 93.4673 130.644 93.4673ZM139.271 98.25H140.59V87.6812H139.279L136.466 89.7026V91.0942L139.154 89.146H139.271V98.25Z" fill="#AABDE9"/>
<rect x="107.801" y="62.5" width="53.4" height="61.5" stroke="#343E50"/>
<path d="M181.738 93.3794H183.079C184.58 93.3794 185.51 94.1411 185.51 95.3643C185.51 96.5215 184.521 97.3491 183.13 97.3491C181.768 97.3491 180.815 96.624 180.698 95.4961H179.424C179.519 97.3052 180.999 98.499 183.145 98.499C185.232 98.499 186.865 97.144 186.865 95.4009C186.865 93.958 185.994 92.9619 184.558 92.7788V92.6616C185.715 92.3833 186.411 91.4604 186.411 90.2007C186.411 88.6626 184.939 87.4321 183.093 87.4321C181.079 87.4321 179.768 88.5601 179.636 90.3911H180.918C181.028 89.2559 181.826 88.582 183.042 88.582C184.258 88.582 185.071 89.2998 185.071 90.3765C185.071 91.4751 184.221 92.2515 183.02 92.2515H181.738V93.3794ZM192.468 98.499C194.658 98.499 196.16 97.0342 196.16 94.8882C196.16 92.8081 194.753 91.3506 192.747 91.3506C191.772 91.3506 191.025 91.6509 190.513 92.2515H190.396L190.696 88.8604H195.559V87.6812H189.663L189.084 93.6724H190.322C190.754 92.918 191.545 92.4858 192.505 92.4858C193.889 92.4858 194.841 93.4746 194.841 94.9248C194.841 96.375 193.896 97.3418 192.483 97.3418C191.238 97.3418 190.33 96.5801 190.212 95.4375H188.916C189.033 97.2612 190.469 98.499 192.468 98.499Z" fill="#AABDE9"/>
<rect x="161.199" y="62.5" width="53.4" height="61.5" stroke="#343E50"/>
<path d="M236.466 98.499C238.656 98.499 240.158 97.0342 240.158 94.8882C240.158 92.8081 238.751 91.3506 236.745 91.3506C235.771 91.3506 235.023 91.6509 234.511 92.2515H234.394L234.694 88.8604H239.557V87.6812H233.661L233.083 93.6724H234.32C234.752 92.918 235.543 92.4858 236.503 92.4858C237.887 92.4858 238.839 93.4746 238.839 94.9248C238.839 96.375 237.895 97.3418 236.481 97.3418C235.236 97.3418 234.328 96.5801 234.21 95.4375H232.914C233.031 97.2612 234.467 98.499 236.466 98.499ZM244.428 93.3794H245.768C247.27 93.3794 248.2 94.1411 248.2 95.3643C248.2 96.5215 247.211 97.3491 245.819 97.3491C244.457 97.3491 243.505 96.624 243.388 95.4961H242.113C242.208 97.3052 243.688 98.499 245.834 98.499C247.921 98.499 249.555 97.144 249.555 95.4009C249.555 93.958 248.683 92.9619 247.248 92.7788V92.6616C248.405 92.3833 249.101 91.4604 249.101 90.2007C249.101 88.6626 247.628 87.4321 245.783 87.4321C243.769 87.4321 242.458 88.5601 242.326 90.3911H243.607C243.717 89.2559 244.516 88.582 245.731 88.582C246.947 88.582 247.76 89.2998 247.76 90.3765C247.76 91.4751 246.911 92.2515 245.709 92.2515H244.428V93.3794Z" fill="#AABDE9"/>
<rect x="214.602" y="62.5" width="53.4" height="61.5" stroke="#343E50"/>
<rect x="1" y="124" width="53.4" height="61.5" fill="white" fill-opacity="0.03"/>
<path d="M23.5415 156.989C23.6807 158.812 25.2261 159.999 27.4673 159.999C29.8843 159.999 31.415 158.761 31.415 156.82C31.415 155.268 30.5361 154.418 28.3462 153.869L27.2402 153.576C25.7827 153.202 25.2041 152.726 25.2041 151.898C25.2041 150.829 26.1343 150.126 27.5405 150.126C28.8589 150.126 29.7524 150.771 29.9355 151.854H31.2612C31.1514 150.148 29.6279 148.932 27.5845 148.932C25.3506 148.932 23.8491 150.148 23.8491 151.942C23.8491 153.444 24.6768 154.308 26.5884 154.792L27.9434 155.143C29.4009 155.509 30.0601 156.081 30.0601 156.981C30.0601 158.029 29.0127 158.798 27.5918 158.798C26.0903 158.798 25.0356 158.095 24.8745 156.989H23.5415Z" fill="#AABDE9"/>
<rect x="1" y="124" width="53.4" height="61.5" stroke="#343E50"/>
<path d="M76.0122 159.992C78.1802 159.992 79.7183 158.476 79.7183 156.352C79.7183 154.301 78.2607 152.814 76.2466 152.814C74.9868 152.814 73.9541 153.415 73.4341 154.44H73.3169C73.3901 151.627 74.3643 150.104 76.0854 150.104C77.1255 150.104 77.9238 150.705 78.2095 151.693H79.5645C79.2275 149.994 77.8945 148.932 76.1001 148.932C73.5146 148.932 72.0352 151.012 72.0352 154.645C72.0352 155.81 72.2036 156.784 72.5479 157.589C73.207 159.142 74.4229 159.992 76.0122 159.992ZM75.9976 158.834C74.6426 158.834 73.6099 157.765 73.6099 156.352C73.6099 154.953 74.6133 153.957 76.0122 153.957C77.4111 153.957 78.3853 154.953 78.3853 156.396C78.3853 157.78 77.3525 158.834 75.9976 158.834ZM85.5776 159.992C87.7456 159.992 89.2837 158.476 89.2837 156.352C89.2837 154.301 87.8262 152.814 85.812 152.814C84.5522 152.814 83.5195 153.415 82.9995 154.44H82.8823C82.9556 151.627 83.9297 150.104 85.6509 150.104C86.6909 150.104 87.4893 150.705 87.7749 151.693H89.1299C88.793 149.994 87.46 148.932 85.6655 148.932C83.0801 148.932 81.6006 151.012 81.6006 154.645C81.6006 155.81 81.769 156.784 82.1133 157.589C82.7725 159.142 83.9883 159.992 85.5776 159.992ZM85.563 158.834C84.208 158.834 83.1753 157.765 83.1753 156.352C83.1753 154.953 84.1787 153.957 85.5776 153.957C86.9766 153.957 87.9507 154.953 87.9507 156.396C87.9507 157.78 86.918 158.834 85.563 158.834Z" fill="#AABDE9"/>
<rect x="54.3984" y="124" width="53.4" height="61.5" stroke="#343E50"/>
<path d="M129.056 159.992C131.641 159.992 133.121 157.912 133.121 154.279C133.121 153.114 132.952 152.14 132.608 151.334C131.949 149.774 130.726 148.932 129.144 148.932C126.976 148.932 125.438 150.448 125.438 152.572C125.438 154.623 126.895 156.11 128.909 156.11C130.169 156.11 131.202 155.509 131.722 154.484H131.751H131.78H131.839C131.766 157.296 130.792 158.82 129.07 158.82C128.03 158.82 127.232 158.219 126.946 157.23H125.591C125.928 158.93 127.261 159.992 129.056 159.992ZM129.144 154.967C127.745 154.967 126.771 153.971 126.771 152.528C126.771 151.144 127.803 150.089 129.158 150.089C130.513 150.089 131.546 151.159 131.546 152.572C131.546 153.971 130.542 154.967 129.144 154.967ZM140.071 159.75H141.36V157.56H142.862V156.381H141.36V149.181H139.449C137.544 152.03 135.867 154.682 134.922 156.359V157.56H140.071V159.75ZM136.27 156.3C137.53 154.162 138.907 151.979 139.991 150.404H140.079V156.388H136.27V156.3Z" fill="#AABDE9"/>
<rect x="107.801" y="124" width="53.4" height="61.5" stroke="#343E50"/>
<path d="M175.238 154.879H176.579C178.08 154.879 179.01 155.641 179.01 156.864C179.01 158.021 178.021 158.849 176.63 158.849C175.268 158.849 174.315 158.124 174.198 156.996H172.924C173.019 158.805 174.499 159.999 176.645 159.999C178.732 159.999 180.365 158.644 180.365 156.901C180.365 155.458 179.494 154.462 178.058 154.279V154.162C179.215 153.883 179.911 152.96 179.911 151.701C179.911 150.163 178.439 148.932 176.593 148.932C174.579 148.932 173.268 150.06 173.136 151.891H174.418C174.528 150.756 175.326 150.082 176.542 150.082C177.758 150.082 178.571 150.8 178.571 151.876C178.571 152.975 177.721 153.751 176.52 153.751H175.238V154.879ZM185.968 159.999C188.158 159.999 189.66 158.534 189.66 156.388C189.66 154.308 188.253 152.851 186.247 152.851C185.272 152.851 184.525 153.151 184.013 153.751H183.896L184.196 150.36H189.059V149.181H183.163L182.584 155.172H183.822C184.254 154.418 185.045 153.986 186.005 153.986C187.389 153.986 188.341 154.975 188.341 156.425C188.341 157.875 187.396 158.842 185.983 158.842C184.738 158.842 183.83 158.08 183.712 156.938H182.416C182.533 158.761 183.969 159.999 185.968 159.999ZM192.304 159.823C192.831 159.823 193.256 159.391 193.256 158.871C193.256 158.344 192.831 157.919 192.304 157.919C191.784 157.919 191.352 158.344 191.352 158.871C191.352 159.391 191.784 159.823 192.304 159.823ZM198.712 159.999C200.902 159.999 202.404 158.534 202.404 156.388C202.404 154.308 200.998 152.851 198.991 152.851C198.017 152.851 197.27 153.151 196.757 153.751H196.64L196.94 150.36H201.803V149.181H195.907L195.329 155.172H196.566C196.999 154.418 197.79 153.986 198.749 153.986C200.133 153.986 201.085 154.975 201.085 156.425C201.085 157.875 200.141 158.842 198.727 158.842C197.482 158.842 196.574 158.08 196.457 156.938H195.16C195.277 158.761 196.713 159.999 198.712 159.999Z" fill="#AABDE9"/>
<rect x="161.199" y="124" width="53.4" height="61.5" stroke="#343E50"/>
<path d="M236.466 159.999C238.656 159.999 240.158 158.534 240.158 156.388C240.158 154.308 238.751 152.851 236.745 152.851C235.771 152.851 235.023 153.151 234.511 153.751H234.394L234.694 150.36H239.557V149.181H233.661L233.083 155.172H234.32C234.752 154.418 235.543 153.986 236.503 153.986C237.887 153.986 238.839 154.975 238.839 156.425C238.839 157.875 237.895 158.842 236.481 158.842C235.236 158.842 234.328 158.08 234.21 156.938H232.914C233.031 158.761 234.467 159.999 236.466 159.999ZM246.002 159.992C248.17 159.992 249.708 158.476 249.708 156.352C249.708 154.301 248.251 152.814 246.237 152.814C244.977 152.814 243.944 153.415 243.424 154.44H243.307C243.38 151.627 244.354 150.104 246.076 150.104C247.116 150.104 247.914 150.705 248.2 151.693H249.555C249.218 149.994 247.885 148.932 246.09 148.932C243.505 148.932 242.025 151.012 242.025 154.645C242.025 155.81 242.194 156.784 242.538 157.589C243.197 159.142 244.413 159.992 246.002 159.992ZM245.988 158.834C244.633 158.834 243.6 157.765 243.6 156.352C243.6 154.953 244.604 153.957 246.002 153.957C247.401 153.957 248.375 154.953 248.375 156.396C248.375 157.78 247.343 158.834 245.988 158.834Z" fill="#AABDE9"/>
<rect x="214.602" y="124" width="53.4" height="61.5" stroke="#343E50"/>
<rect x="1" y="185.5" width="53.4" height="61.5" fill="white" fill-opacity="0.03"/>
<path d="M32.4619 221.25V210.681H30.9312L27.313 219.426H27.1958L23.5776 210.681H22.0469V221.25H23.2773V213.179H23.3652L26.6978 221.177H27.811L31.1436 213.179H31.2314V221.25H32.4619Z" fill="#AABDE9"/>
<rect x="1" y="185.5" width="53.4" height="61.5" stroke="#343E50"/>
<path d="M76.0122 221.492C78.1802 221.492 79.7183 219.976 79.7183 217.852C79.7183 215.801 78.2607 214.314 76.2466 214.314C74.9868 214.314 73.9541 214.915 73.4341 215.94H73.3169C73.3901 213.127 74.3643 211.604 76.0854 211.604C77.1255 211.604 77.9238 212.205 78.2095 213.193H79.5645C79.2275 211.494 77.8945 210.432 76.1001 210.432C73.5146 210.432 72.0352 212.512 72.0352 216.145C72.0352 217.31 72.2036 218.284 72.5479 219.089C73.207 220.642 74.4229 221.492 76.0122 221.492ZM75.9976 220.334C74.6426 220.334 73.6099 219.265 73.6099 217.852C73.6099 216.453 74.6133 215.457 76.0122 215.457C77.4111 215.457 78.3853 216.453 78.3853 217.896C78.3853 219.28 77.3525 220.334 75.9976 220.334ZM85.2188 221.492C87.8042 221.492 89.2837 219.412 89.2837 215.779C89.2837 214.614 89.1152 213.64 88.771 212.834C88.1118 211.274 86.8887 210.432 85.3066 210.432C83.1387 210.432 81.6006 211.948 81.6006 214.072C81.6006 216.123 83.0581 217.61 85.0723 217.61C86.332 217.61 87.3647 217.009 87.8848 215.984H87.9141H87.9434H88.002C87.9287 218.796 86.9546 220.32 85.2334 220.32C84.1934 220.32 83.395 219.719 83.1094 218.73H81.7544C82.0913 220.43 83.4243 221.492 85.2188 221.492ZM85.3066 216.467C83.9077 216.467 82.9336 215.471 82.9336 214.028C82.9336 212.644 83.9663 211.589 85.3213 211.589C86.6763 211.589 87.709 212.659 87.709 214.072C87.709 215.471 86.7056 216.467 85.3066 216.467Z" fill="#AABDE9"/>
<rect x="54.3984" y="185.5" width="53.4" height="61.5" stroke="#343E50"/>
<path d="M129.056 221.492C131.641 221.492 133.121 219.412 133.121 215.779C133.121 214.614 132.952 213.64 132.608 212.834C131.949 211.274 130.726 210.432 129.144 210.432C126.976 210.432 125.438 211.948 125.438 214.072C125.438 216.123 126.895 217.61 128.909 217.61C130.169 217.61 131.202 217.009 131.722 215.984H131.751H131.78H131.839C131.766 218.796 130.792 220.32 129.07 220.32C128.03 220.32 127.232 219.719 126.946 218.73H125.591C125.928 220.43 127.261 221.492 129.056 221.492ZM129.144 216.467C127.745 216.467 126.771 215.471 126.771 214.028C126.771 212.644 127.803 211.589 129.158 211.589C130.513 211.589 131.546 212.659 131.546 214.072C131.546 215.471 130.542 216.467 129.144 216.467ZM138.98 221.492C141.148 221.492 142.686 219.976 142.686 217.852C142.686 215.801 141.229 214.314 139.214 214.314C137.955 214.314 136.922 214.915 136.402 215.94H136.285C136.358 213.127 137.332 211.604 139.053 211.604C140.093 211.604 140.892 212.205 141.177 213.193H142.532C142.195 211.494 140.862 210.432 139.068 210.432C136.482 210.432 135.003 212.512 135.003 216.145C135.003 217.31 135.171 218.284 135.516 219.089C136.175 220.642 137.391 221.492 138.98 221.492ZM138.965 220.334C137.61 220.334 136.578 219.265 136.578 217.852C136.578 216.453 137.581 215.457 138.98 215.457C140.379 215.457 141.353 216.453 141.353 217.896C141.353 219.28 140.32 220.334 138.965 220.334Z" fill="#AABDE9"/>
<rect x="107.801" y="185.5" width="53.4" height="61.5" stroke="#343E50"/>
<path d="M175.238 216.379H176.579C178.08 216.379 179.01 217.141 179.01 218.364C179.01 219.521 178.021 220.349 176.63 220.349C175.268 220.349 174.315 219.624 174.198 218.496H172.924C173.019 220.305 174.499 221.499 176.645 221.499C178.732 221.499 180.365 220.144 180.365 218.401C180.365 216.958 179.494 215.962 178.058 215.779V215.662C179.215 215.383 179.911 214.46 179.911 213.201C179.911 211.663 178.439 210.432 176.593 210.432C174.579 210.432 173.268 211.56 173.136 213.391H174.418C174.528 212.256 175.326 211.582 176.542 211.582C177.758 211.582 178.571 212.3 178.571 213.376C178.571 214.475 177.721 215.251 176.52 215.251H175.238V216.379ZM186.217 221.492C188.385 221.492 189.923 219.976 189.923 217.852C189.923 215.801 188.466 214.314 186.452 214.314C185.192 214.314 184.159 214.915 183.639 215.94H183.522C183.595 213.127 184.569 211.604 186.291 211.604C187.331 211.604 188.129 212.205 188.415 213.193H189.77C189.433 211.494 188.1 210.432 186.305 210.432C183.72 210.432 182.24 212.512 182.24 216.145C182.24 217.31 182.409 218.284 182.753 219.089C183.412 220.642 184.628 221.492 186.217 221.492ZM186.203 220.334C184.848 220.334 183.815 219.265 183.815 217.852C183.815 216.453 184.818 215.457 186.217 215.457C187.616 215.457 188.59 216.453 188.59 217.896C188.59 219.28 187.558 220.334 186.203 220.334ZM192.582 221.323C193.109 221.323 193.534 220.891 193.534 220.371C193.534 219.844 193.109 219.419 192.582 219.419C192.062 219.419 191.63 219.844 191.63 220.371C191.63 220.891 192.062 221.323 192.582 221.323ZM198.991 221.499C201.181 221.499 202.682 220.034 202.682 217.888C202.682 215.808 201.276 214.351 199.269 214.351C198.295 214.351 197.548 214.651 197.035 215.251H196.918L197.218 211.86H202.082V210.681H196.186L195.607 216.672H196.845C197.277 215.918 198.068 215.486 199.027 215.486C200.412 215.486 201.364 216.475 201.364 217.925C201.364 219.375 200.419 220.342 199.005 220.342C197.76 220.342 196.852 219.58 196.735 218.438H195.438C195.556 220.261 196.991 221.499 198.991 221.499Z" fill="#AABDE9"/>
<rect x="161.199" y="185.5" width="53.4" height="61.5" stroke="#343E50"/>
<path d="M236.215 221.492C238.383 221.492 239.921 219.976 239.921 217.852C239.921 215.801 238.464 214.314 236.45 214.314C235.19 214.314 234.157 214.915 233.637 215.94H233.52C233.593 213.127 234.567 211.604 236.289 211.604C237.329 211.604 238.127 212.205 238.413 213.193H239.768C239.431 211.494 238.098 210.432 236.303 210.432C233.718 210.432 232.238 212.512 232.238 216.145C232.238 217.31 232.407 218.284 232.751 219.089C233.41 220.642 234.626 221.492 236.215 221.492ZM236.201 220.334C234.846 220.334 233.813 219.265 233.813 217.852C233.813 216.453 234.816 215.457 236.215 215.457C237.614 215.457 238.588 216.453 238.588 217.896C238.588 219.28 237.556 220.334 236.201 220.334ZM245.598 221.499C247.971 221.499 249.333 219.492 249.333 215.984C249.333 212.483 247.949 210.432 245.598 210.432C243.232 210.432 241.848 212.476 241.848 215.962C241.848 219.478 243.217 221.499 245.598 221.499ZM245.598 220.349C244.038 220.349 243.173 218.789 243.173 215.962C243.173 213.171 244.052 211.589 245.598 211.589C247.143 211.589 248.007 213.157 248.007 215.962C248.007 218.796 247.158 220.349 245.598 220.349Z" fill="#AABDE9"/>
<rect x="214.602" y="185.5" width="53.4" height="61.5" stroke="#343E50"/>
</svg>
