<svg width="55" height="56" viewBox="0 0 55 56" fill="none" xmlns="http://www.w3.org/2000/svg">
<rect x="0.5" y="1" width="54" height="54" rx="4.5" fill="url(#paint0_linear_1415_10479)"/>
<path d="M18.832 34V29.957L20.1855 28.4014L24.1934 34H26.9619L21.7939 26.8457L26.584 21.3174H23.9824L18.9814 27.1533H18.832V21.3174H16.5645V34H18.832ZM34.4326 34C37.1396 34 38.792 32.6201 38.792 30.3965C38.792 28.7441 37.6143 27.5137 35.9092 27.3555V27.1973C37.1836 26.9951 38.168 25.8174 38.168 24.4814C38.168 22.5303 36.7178 21.3174 34.3096 21.3174H29.0098V34H34.4326ZM31.2773 23.1191H33.7559C35.127 23.1191 35.9268 23.7695 35.9268 24.8857C35.9268 26.0283 35.0742 26.6523 33.4658 26.6523H31.2773V23.1191ZM31.2773 32.1982V28.2871H33.8262C35.5576 28.2871 36.4717 28.9551 36.4717 30.2207C36.4717 31.5127 35.584 32.1982 33.9141 32.1982H31.2773Z" fill="white"/>
<rect x="0.5" y="1" width="54" height="54" rx="4.5" stroke="#D3D3D9"/>
<defs>
<linearGradient id="paint0_linear_1415_10479" x1="56.0999" y1="56.6001" x2="17.5245" y2="-11.6" gradientUnits="userSpaceOnUse">
<stop offset="0.104205" stop-color="#C59241"/>
<stop offset="0.26643" stop-color="#E0AE5F"/>
<stop offset="0.418579" stop-color="#D3A151"/>
<stop offset="0.780067" stop-color="#F5ECDC"/>
<stop offset="0.869037" stop-color="#F3D29C"/>
</linearGradient>
</defs>
</svg>
