<svg width="20" height="20" viewBox="0 0 20 20" fill="none" xmlns="http://www.w3.org/2000/svg">
<path d="M7.82866 15.2571H12.1715M14.4572 18H5.54295C5.038 18 4.62866 17.5907 4.62866 17.0857V14.6433C4.62866 14.4481 4.69112 14.2581 4.8069 14.101L7.42903 10.5424C7.66668 10.2198 7.66668 9.78016 7.42903 9.45765L4.8069 5.89903C4.69112 5.74191 4.62866 5.55185 4.62866 5.35668V2.91429C4.62866 2.40934 5.038 2 5.54295 2H14.2287C14.7336 2 15.1429 2.40934 15.1429 2.91429V5.3743C15.1429 5.55855 15.0873 5.73851 14.9832 5.89058L12.5382 9.46411C12.3186 9.78502 12.326 10.2097 12.5567 10.5227L15.1933 14.101C15.3091 14.2581 15.3715 14.4481 15.3715 14.6433V17.0857C15.3715 17.5907 14.9622 18 14.4572 18Z" stroke="#C8D8FF" stroke-width="2" stroke-linecap="round" stroke-linejoin="round"/>
</svg>
