<svg width="22" height="23" viewBox="0 0 22 23" fill="none" xmlns="http://www.w3.org/2000/svg">
<path d="M4.03174 10.741C4.27541 12.4153 5.11376 13.9459 6.39339 15.0528C7.67302 16.1597 9.3084 16.7688 11.0003 16.7688M11.0003 16.7688C12.6923 16.7688 14.3276 16.1597 15.6073 15.0528C16.8869 13.9459 17.7253 12.4153 17.9689 10.741M11.0003 16.7688V20.2953M11.0013 2.69531C10.2011 2.69531 9.43372 3.01319 8.8679 3.57901C8.30207 4.14484 7.9842 4.91226 7.9842 5.71246V9.73531C7.9842 10.5355 8.30207 11.3029 8.8679 11.8688C9.43372 12.4346 10.2011 12.7525 11.0013 12.7525C11.8015 12.7525 12.569 12.4346 13.1348 11.8688C13.7006 11.3029 14.0185 10.5355 14.0185 9.73531V5.71246C14.0185 4.91226 13.7006 4.14484 13.1348 3.57901C12.569 3.01319 11.8015 2.69531 11.0013 2.69531Z" stroke="#C8D8FF" stroke-width="1.5" stroke-linecap="round" stroke-linejoin="round"/>
</svg>
