<svg width="22" height="23" viewBox="0 0 22 23" fill="none" xmlns="http://www.w3.org/2000/svg">
<path d="M11.1335 21C12.4403 21 13.7007 20.8291 14.6606 20.533V18.8471C13.9899 19.1205 12.6137 19.3028 11.2491 19.3028C6.32278 19.3028 3.18888 16.2956 3.18888 11.5797V11.557C3.18888 6.93225 6.34591 3.67446 10.8328 3.67446C15.3082 3.67446 18.3033 6.41966 18.3033 10.5204V10.5432C18.3033 13.0492 17.4938 14.6667 16.2102 14.6667C15.4585 14.6667 15.0306 14.1882 15.0306 13.3909V7.08034H12.9144V8.44724H12.7062C12.2552 7.44484 11.2376 6.84113 10.0118 6.84113C7.6758 6.84113 6.06837 8.7434 6.06837 11.5V11.5228C6.06837 14.4047 7.6758 16.3411 10.0812 16.3411C11.4226 16.3411 12.4056 15.7146 12.8913 14.5641H13.0994L13.111 14.6325C13.3423 15.7032 14.383 16.3981 15.7707 16.3981C18.523 16.3981 20.2461 14.0971 20.2461 10.452V10.4293C20.2461 5.44005 16.453 2 10.9369 2C5.18949 2 1.24609 5.8729 1.24609 11.4886V11.5114C1.24609 17.2638 5.13167 21 11.1335 21ZM10.5322 14.4161C9.21384 14.4161 8.40434 13.3453 8.40434 11.5911V11.5683C8.40434 9.79137 9.20227 8.73201 10.5437 8.73201C11.9083 8.73201 12.764 9.82554 12.764 11.5683V11.5911C12.764 13.3225 11.8967 14.4161 10.5322 14.4161Z" fill="#C8D8FF"/>
</svg>
