<svg width="20" height="21" viewBox="0 0 20 21" fill="none" xmlns="http://www.w3.org/2000/svg">
<g clip-path="url(#clip0_1703_20576)">
<path d="M9.99995 0.703125C4.58795 0.703125 0.199951 5.09113 0.199951 10.5031C0.199951 15.9151 4.58795 20.3031 9.99995 20.3031C15.412 20.3031 19.8 15.9151 19.8 10.5031C19.8 5.09113 15.412 0.703125 9.99995 0.703125ZM9.99995 19.4391C5.06595 19.4391 1.06395 15.4391 1.06395 10.5031C1.06395 5.56913 5.06395 1.56713 9.99995 1.56713C14.934 1.56713 18.936 5.56712 18.936 10.5031C18.936 15.4371 14.934 19.4391 9.99995 19.4391Z" fill="#C8D8FF"/>
<path d="M4.64624 7.77387C4.64624 8.65787 5.36224 9.37587 6.24824 9.37587C7.13424 9.37587 7.85024 8.65987 7.85024 7.77387C7.85024 6.88987 7.13424 6.17188 6.24824 6.17188C5.36224 6.17188 4.64624 6.88788 4.64624 7.77387Z" fill="#C8D8FF"/>
<path d="M12.1499 7.77387C12.1499 8.65787 12.8659 9.37587 13.7519 9.37587C14.6359 9.37587 15.3539 8.65987 15.3539 7.77387C15.3539 6.88987 14.6379 6.17188 13.7519 6.17188C12.8679 6.17188 12.1499 6.88788 12.1499 7.77387Z" fill="#C8D8FF"/>
<path d="M15.3542 11.8594C15.3542 14.8154 12.9582 17.2134 10.0002 17.2134C7.04224 17.2134 4.64624 14.8174 4.64624 11.8594H15.3542Z" fill="#C8D8FF"/>
</g>
<defs>
<clipPath id="clip0_1703_20576">
<rect width="20" height="20" fill="white" transform="translate(0 0.5)"/>
</clipPath>
</defs>
</svg>
