<svg width="22" height="21" viewBox="0 0 22 21" fill="none" xmlns="http://www.w3.org/2000/svg">
<path d="M4.91528 13.9154C3.29224 13.9154 1.9765 12.8085 1.9765 11.1855C1.9765 9.56243 3.29224 8.24669 4.91528 8.24669C5.02565 8.24669 5.1346 8.25278 5.24181 8.26463V8.24669H5.28223C5.25555 8.03275 5.24181 7.8148 5.24181 7.59363C5.24181 4.70822 7.58089 2.36914 10.4663 2.36914C12.4202 2.36914 14.1236 3.44175 15.0198 5.03028C15.2388 4.99807 15.4628 4.98139 15.6908 4.98139C18.2155 4.98139 20.2622 7.02808 20.2622 9.55281C20.2622 11.6311 18.8753 13.2155 16.9765 13.7377M10.9751 17.8691V10.3691M10.9751 10.3691L7.9765 13.4622M10.9751 10.3691L13.9765 13.4622" stroke="#C8D8FF" stroke-width="2" stroke-linecap="round" stroke-linejoin="round"/>
</svg>
