<svg width="187" height="187" viewBox="0 0 187 187" fill="none" xmlns="http://www.w3.org/2000/svg">
<rect width="187" height="187" rx="93.5" fill="#15142A"/>
<path d="M47.4937 94.1952H50.3348V93.2286H47.4937V90.3874H46.5271V93.2286H43.686V94.1952H46.5271V97.0363H47.4937V94.1952ZM57.5323 88.0754H56.3567V94.2605C56.3567 96.2721 57.7609 97.7221 60.0991 97.7221C62.4373 97.7221 63.8415 96.2721 63.8415 94.2605V88.0754H62.6659V94.1821C62.6659 95.6059 61.7319 96.6379 60.0991 96.6379C58.4663 96.6379 57.5323 95.6059 57.5323 94.1821V88.0754ZM69.5629 90.3352C68.6028 90.3352 67.7603 90.825 67.3096 91.6349H67.2051V90.4593H66.134V99.8513H67.2574V96.4419H67.3619C67.7472 97.1865 68.5571 97.6241 69.5629 97.6241C71.3525 97.6241 72.5216 96.1807 72.5216 93.9796C72.5216 91.7655 71.359 90.3352 69.5629 90.3352ZM69.2951 96.6117C68.0281 96.6117 67.2247 95.5929 67.2247 93.9796C67.2247 92.3599 68.0281 91.3475 69.3017 91.3475C70.5883 91.3475 71.359 92.3338 71.359 93.9796C71.359 95.6255 70.5883 96.6117 69.2951 96.6117ZM74.3503 97.5H75.4737V87.6639H74.3503V97.5ZM80.5485 97.6241C82.5536 97.6241 83.7945 96.2395 83.7945 93.9796C83.7945 91.7133 82.5536 90.3352 80.5485 90.3352C78.5434 90.3352 77.3025 91.7133 77.3025 93.9796C77.3025 96.2395 78.5434 97.6241 80.5485 97.6241ZM80.5485 96.6117C79.2161 96.6117 78.465 95.6451 78.465 93.9796C78.465 92.3076 79.2161 91.3475 80.5485 91.3475C81.8809 91.3475 82.632 92.3076 82.632 93.9796C82.632 95.6451 81.8809 96.6117 80.5485 96.6117ZM87.7264 96.6379C86.91 96.6379 86.3025 96.2199 86.3025 95.5014C86.3025 94.7961 86.7728 94.4238 87.8439 94.3519L89.738 94.2278V94.8744C89.738 95.8802 88.8824 96.6379 87.7264 96.6379ZM87.5174 97.6241C88.4579 97.6241 89.2286 97.2126 89.6857 96.4615H89.7902V97.5H90.8614V92.6799C90.8614 91.2169 89.9013 90.3352 88.1835 90.3352C86.6814 90.3352 85.571 91.0798 85.4208 92.2097H86.5573C86.714 91.6545 87.3018 91.3345 88.1444 91.3345C89.1959 91.3345 89.738 91.8113 89.738 92.6799V93.32L87.7068 93.4441C86.0674 93.5421 85.14 94.267 85.14 95.5276C85.14 96.8142 86.1523 97.6241 87.5174 97.6241ZM95.5443 97.6241C96.5174 97.6241 97.3534 97.1604 97.7976 96.3766H97.9021V97.5H98.9732V87.6639H97.8498V91.5696H97.7519C97.3534 90.7989 96.524 90.3352 95.5443 90.3352C93.7547 90.3352 92.5856 91.7721 92.5856 93.9796C92.5856 96.1937 93.7417 97.6241 95.5443 97.6241ZM95.8055 91.3475C97.0791 91.3475 97.8759 92.3664 97.8759 93.9796C97.8759 95.6059 97.0857 96.6117 95.8055 96.6117C94.5189 96.6117 93.7482 95.6255 93.7482 93.9796C93.7482 92.3403 94.5254 91.3475 95.8055 91.3475ZM105.073 88.0754V97.5H106.249V94.1364H108.62C110.39 94.1364 111.65 92.8889 111.65 91.1255C111.65 89.3294 110.416 88.0754 108.633 88.0754H105.073ZM106.249 89.1204H108.326C109.691 89.1204 110.442 89.8323 110.442 91.1255C110.442 92.373 109.665 93.0914 108.326 93.0914H106.249V89.1204ZM113.433 97.5H114.557V93.1371C114.557 92.1444 115.334 91.4259 116.405 91.4259C116.627 91.4259 117.032 91.4651 117.124 91.4912V90.3679C116.98 90.3483 116.745 90.3352 116.562 90.3352C115.628 90.3352 114.818 90.8185 114.609 91.5043H114.505V90.4593H113.433V97.5ZM121.225 97.6241C123.23 97.6241 124.471 96.2395 124.471 93.9796C124.471 91.7133 123.23 90.3352 121.225 90.3352C119.22 90.3352 117.979 91.7133 117.979 93.9796C117.979 96.2395 119.22 97.6241 121.225 97.6241ZM121.225 96.6117C119.893 96.6117 119.142 95.6451 119.142 93.9796C119.142 92.3076 119.893 91.3475 121.225 91.3475C122.558 91.3475 123.309 92.3076 123.309 93.9796C123.309 95.6451 122.558 96.6117 121.225 96.6117ZM126.705 97.5H127.828V91.3998H129.442V90.4593H127.828V89.7082C127.828 88.9375 128.168 88.5456 128.978 88.5456C129.18 88.5456 129.37 88.5522 129.507 88.5783V87.6639C129.272 87.6182 129.024 87.5986 128.749 87.5986C127.41 87.5986 126.705 88.2713 126.705 89.6755V90.4593H125.536V91.3998H126.705V97.5ZM131.107 97.5H132.23V90.4593H131.107V97.5ZM131.669 89.0289C132.1 89.0289 132.452 88.6763 132.452 88.2452C132.452 87.8141 132.1 87.4614 131.669 87.4614C131.238 87.4614 130.885 87.8141 130.885 88.2452C130.885 88.6763 131.238 89.0289 131.669 89.0289ZM134.438 97.5H135.561V87.6639H134.438V97.5ZM140.551 91.328C141.668 91.328 142.413 92.1509 142.439 93.3984H138.559C138.644 92.1509 139.428 91.328 140.551 91.328ZM142.406 95.6778C142.112 96.2982 141.498 96.6313 140.59 96.6313C139.395 96.6313 138.618 95.7496 138.559 94.3585V94.3062H143.621V93.8751C143.621 91.6872 142.465 90.3352 140.564 90.3352C138.631 90.3352 137.39 91.7721 137.39 93.9862C137.39 96.2133 138.611 97.6241 140.564 97.6241C142.106 97.6241 143.19 96.8861 143.53 95.6778H142.406Z" fill="#6E8DD7"/>
</svg>
