<svg width="1056" height="279" viewBox="0 0 1056 279" fill="none" xmlns="http://www.w3.org/2000/svg">
<rect y="0.703125" width="1056" height="278" rx="4" fill="#15142A"/>
<path d="M481.031 129.256H484.854V127.955H481.031V124.132H479.73V127.955H475.907V129.256H479.73V133.079H481.031V129.256ZM501.158 133.703H502.819L498.144 121.021H496.579L491.903 133.703H493.564L494.839 130.073H499.884L501.158 133.703ZM497.291 123.068H497.432L499.418 128.729H495.305L497.291 123.068ZM507.829 133.87C509.139 133.87 510.264 133.246 510.861 132.191H511.002V133.703H512.443V120.467H510.932V125.723H510.8C510.264 124.686 509.147 124.062 507.829 124.062C505.421 124.062 503.848 125.995 503.848 128.966C503.848 131.945 505.403 133.87 507.829 133.87ZM508.181 125.424C509.895 125.424 510.967 126.795 510.967 128.966C510.967 131.154 509.903 132.508 508.181 132.508C506.449 132.508 505.412 131.181 505.412 128.966C505.412 126.76 506.458 125.424 508.181 125.424ZM518.886 133.87C520.195 133.87 521.32 133.246 521.918 132.191H522.059V133.703H523.5V120.467H521.988V125.723H521.856C521.32 124.686 520.204 124.062 518.886 124.062C516.478 124.062 514.904 125.995 514.904 128.966C514.904 131.945 516.46 133.87 518.886 133.87ZM519.237 125.424C520.951 125.424 522.023 126.795 522.023 128.966C522.023 131.154 520.96 132.508 519.237 132.508C517.506 132.508 516.469 131.181 516.469 128.966C516.469 126.76 517.515 125.424 519.237 125.424ZM531.516 133.703H533.027V127.832C533.027 126.496 533.985 125.424 535.225 125.424C536.42 125.424 537.202 126.145 537.202 127.27V133.703H538.714V127.612C538.714 126.408 539.593 125.424 540.911 125.424C542.247 125.424 542.906 126.109 542.906 127.507V133.703H544.418V127.155C544.418 125.169 543.337 124.062 541.403 124.062C540.094 124.062 539.013 124.721 538.503 125.723H538.362C537.923 124.738 537.026 124.062 535.743 124.062C534.478 124.062 533.528 124.668 533.098 125.723H532.957V124.229H531.516V133.703ZM550.957 125.397C552.46 125.397 553.462 126.505 553.497 128.184H548.276C548.391 126.505 549.445 125.397 550.957 125.397ZM553.453 131.251C553.058 132.086 552.231 132.534 551.01 132.534C549.401 132.534 548.355 131.348 548.276 129.476V129.405H555.088V128.825C555.088 125.881 553.532 124.062 550.975 124.062C548.373 124.062 546.703 125.995 546.703 128.975C546.703 131.972 548.347 133.87 550.975 133.87C553.049 133.87 554.508 132.877 554.965 131.251H553.453ZM560.968 133.87C562.277 133.87 563.402 133.246 564 132.191H564.141V133.703H565.582V120.467H564.07V125.723H563.938C563.402 124.686 562.286 124.062 560.968 124.062C558.56 124.062 556.986 125.995 556.986 128.966C556.986 131.945 558.542 133.87 560.968 133.87ZM561.319 125.424C563.033 125.424 564.105 126.795 564.105 128.966C564.105 131.154 563.042 132.508 561.319 132.508C559.588 132.508 558.551 131.181 558.551 128.966C558.551 126.76 559.597 125.424 561.319 125.424ZM568.553 133.703H570.064V124.229H568.553V133.703ZM569.309 122.304C569.889 122.304 570.363 121.829 570.363 121.249C570.363 120.669 569.889 120.194 569.309 120.194C568.729 120.194 568.254 120.669 568.254 121.249C568.254 121.829 568.729 122.304 569.309 122.304ZM575.865 132.543C574.767 132.543 573.949 131.98 573.949 131.014C573.949 130.064 574.582 129.563 576.023 129.467L578.572 129.3V130.17C578.572 131.523 577.421 132.543 575.865 132.543ZM575.584 133.87C576.85 133.87 577.887 133.316 578.502 132.306H578.643V133.703H580.084V127.217C580.084 125.248 578.792 124.062 576.48 124.062C574.459 124.062 572.965 125.063 572.763 126.584H574.292C574.503 125.837 575.294 125.406 576.428 125.406C577.843 125.406 578.572 126.048 578.572 127.217V128.078L575.839 128.245C573.633 128.377 572.385 129.353 572.385 131.049C572.385 132.78 573.747 133.87 575.584 133.87Z" fill="#6E8DD7"/>
<path d="M327.492 151.016C327.492 153.836 328.211 156.117 329.711 158.102H330.852C329.734 156.68 328.875 153.672 328.875 151.016C328.875 148.375 329.742 145.359 330.852 143.938H329.711C328.211 145.922 327.492 148.203 327.492 151.016ZM334.555 145.68H337.266C338.719 145.68 339.594 146.484 339.594 147.836C339.594 149.219 338.773 149.992 337.328 149.992H334.555V145.68ZM334.555 151.242H337.328L339.742 155.703H341.391L338.781 151.023C340.195 150.578 341.047 149.359 341.047 147.789C341.047 145.758 339.625 144.43 337.453 144.43H333.148V155.703H334.555V151.242ZM346.555 148.32C347.891 148.32 348.781 149.305 348.812 150.797H344.172C344.273 149.305 345.211 148.32 346.555 148.32ZM348.773 153.523C348.422 154.266 347.688 154.664 346.602 154.664C345.172 154.664 344.242 153.609 344.172 151.945V151.883H350.227V151.367C350.227 148.75 348.844 147.133 346.57 147.133C344.258 147.133 342.773 148.852 342.773 151.5C342.773 154.164 344.234 155.852 346.57 155.852C348.414 155.852 349.711 154.969 350.117 153.523H348.773ZM359.305 149.859C359.07 148.359 357.82 147.133 355.773 147.133C353.414 147.133 351.914 148.836 351.914 151.461C351.914 154.141 353.422 155.852 355.781 155.852C357.805 155.852 359.062 154.711 359.305 153.164H357.945C357.695 154.117 356.906 154.641 355.773 154.641C354.273 154.641 353.305 153.406 353.305 151.461C353.305 149.555 354.258 148.344 355.773 148.344C356.984 148.344 357.727 149.023 357.945 149.859H359.305ZM364.75 155.852C367.148 155.852 368.633 154.195 368.633 151.492C368.633 148.781 367.148 147.133 364.75 147.133C362.352 147.133 360.867 148.781 360.867 151.492C360.867 154.195 362.352 155.852 364.75 155.852ZM364.75 154.641C363.156 154.641 362.258 153.484 362.258 151.492C362.258 149.492 363.156 148.344 364.75 148.344C366.344 148.344 367.242 149.492 367.242 151.492C367.242 153.484 366.344 154.641 364.75 154.641ZM370.742 155.703H372.086V150.484C372.086 149.297 372.938 148.344 374.039 148.344C375.102 148.344 375.797 148.984 375.797 149.984V155.703H377.141V150.289C377.141 149.219 377.922 148.344 379.094 148.344C380.281 148.344 380.867 148.953 380.867 150.195V155.703H382.211V149.883C382.211 148.117 381.25 147.133 379.531 147.133C378.367 147.133 377.406 147.719 376.953 148.609H376.828C376.438 147.734 375.641 147.133 374.5 147.133C373.375 147.133 372.531 147.672 372.148 148.609H372.023V147.281H370.742V155.703ZM384.664 155.703H386.008V150.484C386.008 149.297 386.859 148.344 387.961 148.344C389.023 148.344 389.719 148.984 389.719 149.984V155.703H391.062V150.289C391.062 149.219 391.844 148.344 393.016 148.344C394.203 148.344 394.789 148.953 394.789 150.195V155.703H396.133V149.883C396.133 148.117 395.172 147.133 393.453 147.133C392.289 147.133 391.328 147.719 390.875 148.609H390.75C390.359 147.734 389.562 147.133 388.422 147.133C387.297 147.133 386.453 147.672 386.07 148.609H385.945V147.281H384.664V155.703ZM401.945 148.32C403.281 148.32 404.172 149.305 404.203 150.797H399.562C399.664 149.305 400.602 148.32 401.945 148.32ZM404.164 153.523C403.812 154.266 403.078 154.664 401.992 154.664C400.562 154.664 399.633 153.609 399.562 151.945V151.883H405.617V151.367C405.617 148.75 404.234 147.133 401.961 147.133C399.648 147.133 398.164 148.852 398.164 151.5C398.164 154.164 399.625 155.852 401.961 155.852C403.805 155.852 405.102 154.969 405.508 153.523H404.164ZM407.727 155.703H409.07V150.719C409.07 149.242 409.938 148.344 411.281 148.344C412.625 148.344 413.266 149.062 413.266 150.578V155.703H414.609V150.25C414.609 148.25 413.555 147.133 411.664 147.133C410.375 147.133 409.555 147.68 409.133 148.609H409.008V147.281H407.727V155.703ZM420.188 155.852C421.352 155.852 422.352 155.297 422.883 154.359H423.008V155.703H424.289V143.938H422.945V148.609H422.828C422.352 147.688 421.359 147.133 420.188 147.133C418.047 147.133 416.648 148.852 416.648 151.492C416.648 154.141 418.031 155.852 420.188 155.852ZM420.5 148.344C422.023 148.344 422.977 149.562 422.977 151.492C422.977 153.438 422.031 154.641 420.5 154.641C418.961 154.641 418.039 153.461 418.039 151.492C418.039 149.531 418.969 148.344 420.5 148.344ZM430.258 148.32C431.594 148.32 432.484 149.305 432.516 150.797H427.875C427.977 149.305 428.914 148.32 430.258 148.32ZM432.477 153.523C432.125 154.266 431.391 154.664 430.305 154.664C428.875 154.664 427.945 153.609 427.875 151.945V151.883H433.93V151.367C433.93 148.75 432.547 147.133 430.273 147.133C427.961 147.133 426.477 148.852 426.477 151.5C426.477 154.164 427.938 155.852 430.273 155.852C432.117 155.852 433.414 154.969 433.82 153.523H432.477ZM439.156 155.852C440.32 155.852 441.32 155.297 441.852 154.359H441.977V155.703H443.258V143.938H441.914V148.609H441.797C441.32 147.688 440.328 147.133 439.156 147.133C437.016 147.133 435.617 148.852 435.617 151.492C435.617 154.141 437 155.852 439.156 155.852ZM439.469 148.344C440.992 148.344 441.945 149.562 441.945 151.492C441.945 153.438 441 154.641 439.469 154.641C437.93 154.641 437.008 153.461 437.008 151.492C437.008 149.531 437.938 148.344 439.469 148.344ZM450.016 152.758C450.164 154.703 451.812 155.969 454.203 155.969C456.781 155.969 458.414 154.648 458.414 152.578C458.414 150.922 457.477 150.016 455.141 149.43L453.961 149.117C452.406 148.719 451.789 148.211 451.789 147.328C451.789 146.188 452.781 145.438 454.281 145.438C455.688 145.438 456.641 146.125 456.836 147.281H458.25C458.133 145.461 456.508 144.164 454.328 144.164C451.945 144.164 450.344 145.461 450.344 147.375C450.344 148.977 451.227 149.898 453.266 150.414L454.711 150.789C456.266 151.18 456.969 151.789 456.969 152.75C456.969 153.867 455.852 154.688 454.336 154.688C452.734 154.688 451.609 153.938 451.438 152.758H450.016ZM460.617 155.703H461.961V147.281H460.617V155.703ZM461.289 145.57C461.805 145.57 462.227 145.148 462.227 144.633C462.227 144.117 461.805 143.695 461.289 143.695C460.773 143.695 460.352 144.117 460.352 144.633C460.352 145.148 460.773 145.57 461.289 145.57ZM464.328 155.703H470.812V154.578H465.953V154.453L470.789 148.289V147.281H464.336V148.406H469.188V148.531L464.328 154.719V155.703ZM476.273 148.32C477.609 148.32 478.5 149.305 478.531 150.797H473.891C473.992 149.305 474.93 148.32 476.273 148.32ZM478.492 153.523C478.141 154.266 477.406 154.664 476.32 154.664C474.891 154.664 473.961 153.609 473.891 151.945V151.883H479.945V151.367C479.945 148.75 478.562 147.133 476.289 147.133C473.977 147.133 472.492 148.852 472.492 151.5C472.492 154.164 473.953 155.852 476.289 155.852C478.133 155.852 479.43 154.969 479.836 153.523H478.492ZM487.68 155.781C488.242 155.781 488.695 155.32 488.695 154.766C488.695 154.203 488.242 153.75 487.68 153.75C487.125 153.75 486.664 154.203 486.664 154.766C486.664 155.32 487.125 155.781 487.68 155.781ZM487.68 149.773C488.242 149.773 488.695 149.312 488.695 148.758C488.695 148.195 488.242 147.742 487.68 147.742C487.125 147.742 486.664 148.195 486.664 148.758C486.664 149.312 487.125 149.773 487.68 149.773ZM498.523 155.703H499.93V144.43H498.531L495.531 146.586V148.07L498.398 145.992H498.523V155.703ZM507.086 155.969C509.617 155.969 511.07 153.828 511.07 150.086C511.07 146.352 509.594 144.164 507.086 144.164C504.562 144.164 503.086 146.344 503.086 150.062C503.086 153.812 504.547 155.969 507.086 155.969ZM507.086 154.742C505.422 154.742 504.5 153.078 504.5 150.062C504.5 147.086 505.438 145.398 507.086 145.398C508.734 145.398 509.656 147.07 509.656 150.062C509.656 153.086 508.75 154.742 507.086 154.742ZM517.164 155.969C519.695 155.969 521.148 153.828 521.148 150.086C521.148 146.352 519.672 144.164 517.164 144.164C514.641 144.164 513.164 146.344 513.164 150.062C513.164 153.812 514.625 155.969 517.164 155.969ZM517.164 154.742C515.5 154.742 514.578 153.078 514.578 150.062C514.578 147.086 515.516 145.398 517.164 145.398C518.812 145.398 519.734 147.07 519.734 150.062C519.734 153.086 518.828 154.742 517.164 154.742ZM527.242 155.969C529.773 155.969 531.227 153.828 531.227 150.086C531.227 146.352 529.75 144.164 527.242 144.164C524.719 144.164 523.242 146.344 523.242 150.062C523.242 153.812 524.703 155.969 527.242 155.969ZM527.242 154.742C525.578 154.742 524.656 153.078 524.656 150.062C524.656 147.086 525.594 145.398 527.242 145.398C528.891 145.398 529.812 147.07 529.812 150.062C529.812 153.086 528.906 154.742 527.242 154.742ZM537.641 147.133C536.492 147.133 535.484 147.719 534.945 148.688H534.82V147.281H533.539V158.516H534.883V154.438H535.008C535.469 155.328 536.438 155.852 537.641 155.852C539.781 155.852 541.18 154.125 541.18 151.492C541.18 148.844 539.789 147.133 537.641 147.133ZM537.32 154.641C535.805 154.641 534.844 153.422 534.844 151.492C534.844 149.555 535.805 148.344 537.328 148.344C538.867 148.344 539.789 149.523 539.789 151.492C539.789 153.461 538.867 154.641 537.32 154.641ZM545.883 152.523L547.875 155.703H549.469L546.57 151.438L549.43 147.281H547.906L545.93 150.414H545.805L543.805 147.281H542.203L545.117 151.492L542.234 155.703H543.758L545.758 152.523H545.883ZM558.805 152.523L560.797 155.703H562.391L559.492 151.438L562.352 147.281H560.828L558.852 150.414H558.727L556.727 147.281H555.125L558.039 151.492L555.156 155.703H556.68L558.68 152.523H558.805ZM571.43 155.703H572.836V144.43H571.438L568.438 146.586V148.07L571.305 145.992H571.43V155.703ZM579.992 155.969C582.523 155.969 583.977 153.828 583.977 150.086C583.977 146.352 582.5 144.164 579.992 144.164C577.469 144.164 575.992 146.344 575.992 150.062C575.992 153.812 577.453 155.969 579.992 155.969ZM579.992 154.742C578.328 154.742 577.406 153.078 577.406 150.062C577.406 147.086 578.344 145.398 579.992 145.398C581.641 145.398 582.562 147.07 582.562 150.062C582.562 153.086 581.656 154.742 579.992 154.742ZM590.07 155.969C592.602 155.969 594.055 153.828 594.055 150.086C594.055 146.352 592.578 144.164 590.07 144.164C587.547 144.164 586.07 146.344 586.07 150.062C586.07 153.812 587.531 155.969 590.07 155.969ZM590.07 154.742C588.406 154.742 587.484 153.078 587.484 150.062C587.484 147.086 588.422 145.398 590.07 145.398C591.719 145.398 592.641 147.07 592.641 150.062C592.641 153.086 591.734 154.742 590.07 154.742ZM600.148 155.969C602.68 155.969 604.133 153.828 604.133 150.086C604.133 146.352 602.656 144.164 600.148 144.164C597.625 144.164 596.148 146.344 596.148 150.062C596.148 153.812 597.609 155.969 600.148 155.969ZM600.148 154.742C598.484 154.742 597.562 153.078 597.562 150.062C597.562 147.086 598.5 145.398 600.148 145.398C601.797 145.398 602.719 147.07 602.719 150.062C602.719 153.086 601.812 154.742 600.148 154.742ZM610.547 147.133C609.398 147.133 608.391 147.719 607.852 148.688H607.727V147.281H606.445V158.516H607.789V154.438H607.914C608.375 155.328 609.344 155.852 610.547 155.852C612.688 155.852 614.086 154.125 614.086 151.492C614.086 148.844 612.695 147.133 610.547 147.133ZM610.227 154.641C608.711 154.641 607.75 153.422 607.75 151.492C607.75 149.555 608.711 148.344 610.234 148.344C611.773 148.344 612.695 149.523 612.695 151.492C612.695 153.461 611.773 154.641 610.227 154.641ZM618.789 152.523L620.781 155.703H622.375L619.477 151.438L622.336 147.281H620.812L618.836 150.414H618.711L616.711 147.281H615.109L618.023 151.492L615.141 155.703H616.664L618.664 152.523H618.789ZM631.492 153.711C632.828 153.711 633.867 152.672 633.867 151.336C633.867 150 632.828 148.961 631.492 148.961C630.156 148.961 629.117 150 629.117 151.336C629.117 152.672 630.156 153.711 631.492 153.711ZM645.016 155.969C647.352 155.969 648.953 154.406 648.953 152.117C648.953 149.898 647.453 148.344 645.312 148.344C644.273 148.344 643.477 148.664 642.93 149.305H642.805L643.125 145.688H648.312V144.43H642.023L641.406 150.82H642.727C643.188 150.016 644.031 149.555 645.055 149.555C646.531 149.555 647.547 150.609 647.547 152.156C647.547 153.703 646.539 154.734 645.031 154.734C643.703 154.734 642.734 153.922 642.609 152.703H641.227C641.352 154.648 642.883 155.969 645.016 155.969ZM654.992 155.969C657.523 155.969 658.977 153.828 658.977 150.086C658.977 146.352 657.5 144.164 654.992 144.164C652.469 144.164 650.992 146.344 650.992 150.062C650.992 153.812 652.453 155.969 654.992 155.969ZM654.992 154.742C653.328 154.742 652.406 153.078 652.406 150.062C652.406 147.086 653.344 145.398 654.992 145.398C656.641 145.398 657.562 147.07 657.562 150.062C657.562 153.086 656.656 154.742 654.992 154.742ZM665.07 155.969C667.602 155.969 669.055 153.828 669.055 150.086C669.055 146.352 667.578 144.164 665.07 144.164C662.547 144.164 661.07 146.344 661.07 150.062C661.07 153.812 662.531 155.969 665.07 155.969ZM665.07 154.742C663.406 154.742 662.484 153.078 662.484 150.062C662.484 147.086 663.422 145.398 665.07 145.398C666.719 145.398 667.641 147.07 667.641 150.062C667.641 153.086 666.734 154.742 665.07 154.742ZM672.914 150.961H672.789V143.938H671.445V155.703H672.789V152.508L673.594 151.758L676.75 155.703H678.461L674.594 150.891L678.219 147.281H676.57L672.914 150.961ZM684.242 155.852C686.375 155.852 687.773 154.125 687.773 151.492C687.773 148.844 686.383 147.133 684.242 147.133C683.086 147.133 682.062 147.703 681.602 148.609H681.477V143.938H680.133V155.703H681.414V154.359H681.539C682.07 155.297 683.07 155.852 684.242 155.852ZM683.93 148.344C685.469 148.344 686.383 149.523 686.383 151.492C686.383 153.461 685.469 154.641 683.93 154.641C682.398 154.641 681.445 153.438 681.445 151.492C681.445 149.547 682.398 148.344 683.93 148.344ZM694.398 155.703H695.742V150.484C695.742 149.297 696.594 148.344 697.695 148.344C698.758 148.344 699.453 148.984 699.453 149.984V155.703H700.797V150.289C700.797 149.219 701.578 148.344 702.75 148.344C703.938 148.344 704.523 148.953 704.523 150.195V155.703H705.867V149.883C705.867 148.117 704.906 147.133 703.188 147.133C702.023 147.133 701.062 147.719 700.609 148.609H700.484C700.094 147.734 699.297 147.133 698.156 147.133C697.031 147.133 696.188 147.672 695.805 148.609H695.68V147.281H694.398V155.703ZM710.914 154.672C709.938 154.672 709.211 154.172 709.211 153.312C709.211 152.469 709.773 152.023 711.055 151.938L713.32 151.789V152.562C713.32 153.766 712.297 154.672 710.914 154.672ZM710.664 155.852C711.789 155.852 712.711 155.359 713.258 154.461H713.383V155.703H714.664V149.938C714.664 148.188 713.516 147.133 711.461 147.133C709.664 147.133 708.336 148.023 708.156 149.375H709.516C709.703 148.711 710.406 148.328 711.414 148.328C712.672 148.328 713.32 148.898 713.32 149.938V150.703L710.891 150.852C708.93 150.969 707.82 151.836 707.82 153.344C707.82 154.883 709.031 155.852 710.664 155.852ZM720.133 152.523L722.125 155.703H723.719L720.82 151.438L723.68 147.281H722.156L720.18 150.414H720.055L718.055 147.281H716.453L719.367 151.492L716.484 155.703H718.008L720.008 152.523H720.133ZM728.508 151.016C728.508 148.203 727.789 145.922 726.289 143.938H725.148C726.258 145.359 727.125 148.375 727.125 151.016C727.125 153.672 726.266 156.68 725.148 158.102H726.289C727.789 156.117 728.508 153.836 728.508 151.016Z" fill="#5C6D8E"/>
</svg>
