<svg width="28" height="29" viewBox="0 0 28 29" fill="none" xmlns="http://www.w3.org/2000/svg">
<path d="M23.5494 23.9616C24.0405 23.8622 24.3319 23.3485 24.0991 22.9048C23.4026 21.5781 22.2413 20.4121 20.7295 19.5364C18.8958 18.4742 16.6489 17.8984 14.3375 17.8984C12.0261 17.8984 9.77931 18.4742 7.94554 19.5364C6.4338 20.4121 5.27243 21.578 4.57598 22.9048C4.34312 23.3485 4.63454 23.8622 5.12562 23.9616L7.80661 24.5039C12.1169 25.3757 16.5582 25.3757 20.8685 24.5039L23.5494 23.9616Z" fill="url(#paint0_linear_707_62385)"/>
<ellipse cx="14.3333" cy="9.97426" rx="5.83333" ry="5.66176" fill="url(#paint1_linear_707_62385)"/>
<defs>
<linearGradient id="paint0_linear_707_62385" x1="26.0738" y1="25.752" x2="15.789" y2="8.65254" gradientUnits="userSpaceOnUse">
<stop stop-color="#5961F8"/>
<stop offset="1" stop-color="#F2D9F7"/>
</linearGradient>
<linearGradient id="paint1_linear_707_62385" x1="21.0835" y1="15.5319" x2="5.70659" y2="5.23899" gradientUnits="userSpaceOnUse">
<stop stop-color="#5961F8"/>
<stop offset="1" stop-color="#F2D9F7"/>
</linearGradient>
</defs>
</svg>
