<svg width="42" height="43" viewBox="0 0 42 43" fill="none" xmlns="http://www.w3.org/2000/svg">
<g clip-path="url(#clip0_12_7138)">
<rect x="1" y="1.71973" width="40" height="40" rx="20" fill="#C8D8FF"/>
<path d="M22.4468 8.34573C21.9134 6.0124 24.4424 4.22187 27.0468 5.45107C33.1801 8.34573 29.621 12.6791 27.421 12.2124C25.221 11.7457 22.9801 10.6791 22.4468 8.34573Z" fill="url(#paint0_linear_12_7138)"/>
<path d="M23.9319 23.0533C21.0675 24.4295 20.6496 24.3557 14.3319 19.1867C4.79853 11.3867 13.7985 4.25334 23.4652 8.05334C33.9319 12.6533 30.4253 19.9343 23.9319 23.0533Z" fill="url(#paint1_linear_12_7138)"/>
<path d="M24.2012 28.5186C23.2235 30.6519 21.979 31.7186 21.0012 31.7186C20.0235 31.7186 18.779 30.6519 17.8012 28.5186V25.8519C17.8012 25.8519 17.3662 25.8652 17.0679 25.8519C13.9491 25.7186 12.907 20.7016 13.3964 15.6836C13.7548 12.0087 16.8679 17.0519 21.9346 13.5186C21.7346 17.3852 23.4012 16.9852 24.1346 16.5186C27.4679 14.9852 27.5346 21.2519 24.24 20.7663C24.2408 20.833 24.2279 23.417 24.2012 28.5186Z" fill="url(#paint2_linear_12_7138)"/>
<path d="M17.7969 25.8522C18.9969 25.7633 20.4917 25.0922 22.2814 23.8389C21.733 25.7275 20.2381 26.843 17.7969 27.1855V25.8522Z" fill="#FF9768"/>
<path d="M16.6966 29.2953C16.6966 29.2953 16.8978 27.9063 17.3695 27.7874C17.8412 27.6685 20.5983 27.6541 20.6007 28.1874C20.6007 28.2853 20.6956 29.3341 21.01 29.3341C21.3244 29.3341 21.4052 28.2847 21.4058 28.1874C21.4083 27.6541 24.1494 27.6746 24.637 27.7874C25.1246 27.9002 25.3079 29.297 25.3079 29.297C25.3079 29.297 32.5079 32.6873 33.2656 34.1345C33.9174 35.3789 34.4063 38.2678 34.7323 42.8011H7.26562C7.59158 38.2678 8.08047 35.3789 8.73229 34.1345C9.49003 32.6879 16.6966 29.2953 16.6966 29.2953Z" fill="url(#paint3_linear_12_7138)"/>
<path d="M20.4688 38.3852C20.4688 38.2797 20.5 38.1766 20.5586 38.0889C20.6172 38.0012 20.7005 37.9329 20.798 37.8925C20.8954 37.8521 21.0027 37.8416 21.1061 37.8621C21.2096 37.8827 21.3046 37.9335 21.3792 38.0081C21.4538 38.0827 21.5046 38.1777 21.5252 38.2812C21.5457 38.3846 21.5352 38.4919 21.4948 38.5893C21.4545 38.6868 21.3861 38.7701 21.2984 38.8287C21.2107 38.8873 21.1076 38.9186 21.0021 38.9186C20.8606 38.9186 20.725 38.8624 20.625 38.7623C20.5249 38.6623 20.4688 38.5267 20.4688 38.3852ZM20.4688 35.7186C20.4688 35.6131 20.5 35.51 20.5586 35.4223C20.6172 35.3345 20.7005 35.2662 20.798 35.2258C20.8954 35.1855 21.0027 35.1749 21.1061 35.1955C21.2096 35.216 21.3046 35.2668 21.3792 35.3414C21.4538 35.416 21.5046 35.5111 21.5252 35.6145C21.5457 35.718 21.5352 35.8252 21.4948 35.9227C21.4545 36.0201 21.3861 36.1034 21.2984 36.162C21.2107 36.2206 21.1076 36.2519 21.0021 36.2519C20.8606 36.2519 20.725 36.1957 20.625 36.0957C20.5249 35.9957 20.4688 35.86 20.4688 35.7186ZM20.4688 33.0519C20.4688 32.9464 20.5 32.8433 20.5586 32.7556C20.6172 32.6679 20.7005 32.5995 20.798 32.5592C20.8954 32.5188 21.0027 32.5082 21.1061 32.5288C21.2096 32.5494 21.3046 32.6002 21.3792 32.6748C21.4538 32.7494 21.5046 32.8444 21.5252 32.9478C21.5457 33.0513 21.5352 33.1585 21.4948 33.256C21.4545 33.3534 21.3861 33.4367 21.2984 33.4953C21.2107 33.5539 21.1076 33.5852 21.0021 33.5852C20.8606 33.5852 20.725 33.529 20.625 33.429C20.5249 33.329 20.4688 33.1933 20.4688 33.0519Z" fill="#664F4D"/>
<path d="M22.411 12.31C20.2777 17.6433 21.4777 20.2433 23.1443 23.3766C24.811 26.51 22.7443 29.4433 22.7443 29.4433C22.7443 29.4433 25.1443 27.91 25.1443 24.51C25.1443 21.11 22.7443 18.9766 24.7443 16.1766C26.7443 13.3766 24.5443 6.97664 22.411 12.31Z" fill="url(#paint4_linear_12_7138)"/>
</g>
<rect x="0.5" y="1.21973" width="41" height="41" rx="20.5" stroke="url(#paint5_linear_12_7138)"/>
<defs>
<linearGradient id="paint0_linear_12_7138" x1="26.4199" y1="5.05176" x2="26.4199" y2="12.2472" gradientUnits="userSpaceOnUse">
<stop stop-color="#1D0024"/>
<stop offset="1" stop-color="#100014"/>
</linearGradient>
<linearGradient id="paint1_linear_12_7138" x1="20.1911" y1="7.00098" x2="20.1911" y2="23.8112" gradientUnits="userSpaceOnUse">
<stop stop-color="#1D0024"/>
<stop offset="1" stop-color="#100014"/>
</linearGradient>
<linearGradient id="paint2_linear_12_7138" x1="19.9772" y1="13.5186" x2="19.9772" y2="31.7186" gradientUnits="userSpaceOnUse">
<stop stop-color="#F7B186"/>
<stop offset="1" stop-color="#FFC299"/>
</linearGradient>
<linearGradient id="paint3_linear_12_7138" x1="20.999" y1="42.8011" x2="20.999" y2="27.7197" gradientUnits="userSpaceOnUse">
<stop stop-color="#FCF2EB"/>
<stop offset="1" stop-color="#FFF9F5"/>
</linearGradient>
<linearGradient id="paint4_linear_12_7138" x1="23.3979" y1="10.2529" x2="23.3979" y2="29.4433" gradientUnits="userSpaceOnUse">
<stop stop-color="#1D0024"/>
<stop offset="1" stop-color="#100014"/>
</linearGradient>
<linearGradient id="paint5_linear_12_7138" x1="44.1434" y1="41.352" x2="-9.54016" y2="6.47437" gradientUnits="userSpaceOnUse">
<stop stop-color="#5961F8"/>
<stop offset="1" stop-color="#F2D9F7"/>
</linearGradient>
<clipPath id="clip0_12_7138">
<rect x="1" y="1.71973" width="40" height="40" rx="20" fill="white"/>
</clipPath>
</defs>
</svg>
