<svg width="19" height="20" viewBox="0 0 19 20" fill="none" xmlns="http://www.w3.org/2000/svg">
<g clip-path="url(#clip0_692_644609)">
<path d="M10.0931 0.328125C10.7701 0.328125 11.4295 0.544214 11.9753 0.944939L13.0784 1.75244C13.26 1.88578 13.471 1.97336 13.6936 2.00775L15.0449 2.21556C15.7136 2.31836 16.3321 2.63171 16.8104 3.11008C17.2888 3.58845 17.6021 4.2069 17.7049 4.87556L17.9116 6.22813C17.9459 6.45072 18.0335 6.66173 18.1669 6.84325L18.9744 7.94525C19.3751 8.49099 19.5912 9.15038 19.5912 9.82744C19.5912 10.5045 19.3751 11.1639 18.9744 11.7096L18.1669 12.8116C18.0327 12.9933 17.946 13.2047 17.9116 13.4268L17.7038 14.7781C17.6011 15.4472 17.2877 16.066 16.8091 16.5446C16.3305 17.0233 15.7116 17.3367 15.0426 17.4393L13.6912 17.6471C13.4685 17.6811 13.2574 17.7687 13.0761 17.9024L11.9741 18.7099C11.4283 19.1107 10.7689 19.3268 10.0919 19.3268C9.41482 19.3268 8.75543 19.1107 8.20969 18.7099L7.10769 17.9024C6.926 17.7683 6.71463 17.6816 6.49256 17.6471L5.14119 17.4393C4.47253 17.3365 3.85407 17.0232 3.3757 16.5448C2.89733 16.0664 2.58398 15.448 2.48119 14.7793L2.27338 13.4279C2.23894 13.2047 2.15225 12.9945 2.01806 12.8128L1.21056 11.7108C0.809839 11.1651 0.59375 10.5057 0.59375 9.82863C0.59375 9.15157 0.809839 8.49218 1.21056 7.94644L2.01806 6.84444C2.15145 6.66294 2.23904 6.45192 2.27338 6.22931L2.48119 4.87556C2.58398 4.2069 2.89733 3.58845 3.3757 3.11008C3.85407 2.63171 4.47253 2.31836 5.14119 2.21556L6.49375 2.00775C6.71636 1.97341 6.92738 1.88582 7.10888 1.75244L8.21088 0.944939C8.75661 0.544214 9.416 0.328125 10.0931 0.328125Z" fill="#658DED"/>
<path fill-rule="evenodd" clip-rule="evenodd" d="M14.5691 7.98372C14.7499 7.79005 14.8483 7.5339 14.8436 7.26923C14.8389 7.00456 14.7315 6.75203 14.544 6.56485C14.3565 6.37767 14.1036 6.27045 13.8385 6.26578C13.5734 6.26111 13.3168 6.35936 13.1228 6.53982L8.72931 10.926L7.0647 9.26415C6.87071 9.08369 6.61414 8.98545 6.34902 8.99012C6.08391 8.99479 5.83097 9.10201 5.64348 9.28919C5.45598 9.47637 5.34859 9.72889 5.34391 9.99357C5.33923 10.2582 5.43764 10.5144 5.6184 10.7081L8.00616 13.0918C8.19804 13.2832 8.45813 13.3906 8.72931 13.3906C9.0005 13.3906 9.26059 13.2832 9.45247 13.0918L14.5691 7.98372Z" fill="white"/>
</g>
<defs>
<clipPath id="clip0_692_644609">
<rect width="19" height="19" fill="white" transform="translate(0 0.328125)"/>
</clipPath>
</defs>
</svg>
