<svg width="20" height="20" viewBox="0 0 20 20" fill="none" xmlns="http://www.w3.org/2000/svg">
<path d="M12.9994 10.6745L12.5902 10.046L12.5798 10.0528L12.5696 10.0599L12.9994 10.6745ZM12.9994 9.52771L12.5547 10.1316L12.5882 10.1563L12.6242 10.1771L12.9994 9.52771ZM8.40325 6.1433L8.84796 5.53937L8.8268 5.52379L8.8046 5.50972L8.40325 6.1433ZM7.43969 6.64881L8.18981 6.64663L8.18954 6.6335L7.43969 6.64881ZM7.45897 13.2969L6.70897 13.2991L6.70903 13.3203L6.71029 13.3415L7.45897 13.2969ZM8.45785 13.8509L8.82102 14.5071L8.85545 14.4881L8.8877 14.4655L8.45785 13.8509ZM10 17.25C5.99594 17.25 2.75 14.0041 2.75 10H1.25C1.25 14.8325 5.16751 18.75 10 18.75V17.25ZM17.25 10C17.25 14.0041 14.0041 17.25 10 17.25V18.75C14.8325 18.75 18.75 14.8325 18.75 10H17.25ZM10 2.75C14.0041 2.75 17.25 5.99594 17.25 10H18.75C18.75 5.16751 14.8325 1.25 10 1.25V2.75ZM10 1.25C5.16751 1.25 1.25 5.16751 1.25 10H2.75C2.75 5.99594 5.99594 2.75 10 2.75V1.25ZM13.4086 11.3031C13.7638 11.0719 14.1903 10.6734 14.1895 10.0835C14.1886 9.47686 13.741 9.09004 13.3747 8.87835L12.6242 10.1771C12.6685 10.2027 12.6987 10.2242 12.7179 10.2399C12.7373 10.2557 12.7422 10.2627 12.7392 10.2589C12.7359 10.2547 12.7231 10.2373 12.711 10.2058C12.6985 10.173 12.6895 10.1318 12.6895 10.0856C12.6894 10.0396 12.6982 10.0011 12.7084 9.9733C12.7183 9.94668 12.7277 9.93419 12.727 9.93523C12.7261 9.93647 12.717 9.94818 12.694 9.96866C12.6711 9.989 12.6375 10.0152 12.5902 10.046L13.4086 11.3031ZM13.4441 8.92378L8.84796 5.53937L7.95855 6.74724L12.5547 10.1316L13.4441 8.92378ZM8.8046 5.50972C8.42782 5.27105 7.90775 5.13985 7.42069 5.36726C6.89221 5.61402 6.6793 6.14737 6.68985 6.66411L8.18954 6.6335C8.18832 6.57385 8.20034 6.57513 8.18253 6.60922C8.16179 6.6489 8.11864 6.69684 8.0553 6.72641C7.99663 6.7538 7.95381 6.75032 7.9458 6.74919C7.9388 6.74821 7.9593 6.74989 8.00191 6.77688L8.8046 5.50972ZM6.6897 6.65098L6.70897 13.2991L8.20896 13.2947L8.18969 6.64663L6.6897 6.65098ZM6.71029 13.3415C6.73618 13.7764 6.8862 14.3323 7.40635 14.6101C7.91876 14.8838 8.45815 14.7079 8.82102 14.5071L8.09469 13.1947C8.05228 13.2182 8.01939 13.2326 7.99599 13.2411C7.97245 13.2497 7.96208 13.251 7.96376 13.2508C7.96575 13.2505 7.98257 13.2484 8.01053 13.2525C8.03956 13.2568 8.07553 13.267 8.113 13.287C8.15058 13.3071 8.18001 13.3318 8.20092 13.3552C8.22109 13.3777 8.22947 13.3945 8.23094 13.3976C8.23224 13.4004 8.22774 13.3915 8.22213 13.3664C8.21655 13.3414 8.21072 13.3041 8.20764 13.2523L6.71029 13.3415ZM8.8877 14.4655L13.4293 11.2891L12.5696 10.0599L8.02801 13.2363L8.8877 14.4655Z" fill="url(#paint0_linear_1833_97213)"/>
<defs>
<linearGradient id="paint0_linear_1833_97213" x1="19.2574" y1="17.8529" x2="-2.21606" y2="3.90186" gradientUnits="userSpaceOnUse">
<stop stop-color="#5961F8"/>
<stop offset="1" stop-color="#F2D9F7"/>
</linearGradient>
</defs>
</svg>
