<svg width="28" height="29" viewBox="0 0 28 29" fill="none" xmlns="http://www.w3.org/2000/svg">
<path fill-rule="evenodd" clip-rule="evenodd" d="M10.7424 5.7319C7.3702 7.13872 5 10.4673 5 14.3494C5 14.7567 5.02609 15.158 5.07669 15.5515L12.8178 13.4773L10.7424 5.7319ZM13.129 5.09309L15.3108 13.2356L15.3204 13.2713C15.3616 13.4242 15.4196 13.64 15.4451 13.8377C15.4772 14.087 15.4848 14.4813 15.2528 14.8831C15.0208 15.2849 14.6756 15.4755 14.4436 15.5724C14.2596 15.6492 14.0438 15.7067 13.8907 15.7476L13.855 15.7571L5.71491 17.9382C7.12122 21.3116 10.4504 23.6828 14.3333 23.6828C19.488 23.6828 23.6667 19.5041 23.6667 14.3494C23.6667 9.19479 19.488 5.01611 14.3333 5.01611C13.9252 5.01611 13.5233 5.0423 13.129 5.09309Z" fill="url(#paint0_linear_12_8294)"/>
<path d="M11.7453 4.66865C11.5398 3.90161 11.437 3.51809 11.0992 3.35366C10.7614 3.18923 10.4287 3.33106 9.76336 3.6147C8.86438 3.99795 8.01509 4.49349 7.23632 5.09105C6.02084 6.02373 5.00096 7.18668 4.23491 8.51351C3.46887 9.84034 2.97166 11.3051 2.77168 12.824C2.64356 13.7972 2.63905 14.7805 2.75664 15.7507C2.84368 16.4687 2.88719 16.8277 3.19849 17.0381C3.50979 17.2484 3.89331 17.1456 4.66034 16.9401L12.7476 14.7731C13.4976 14.5722 13.8726 14.4717 14.0431 14.1763C14.2137 13.8809 14.1132 13.5059 13.9123 12.7559L11.7453 4.66865Z" fill="url(#paint1_linear_12_8294)"/>
<defs>
<linearGradient id="paint0_linear_12_8294" x1="25.1336" y1="23.5112" x2="0.0812587" y2="7.23494" gradientUnits="userSpaceOnUse">
<stop stop-color="#5961F8"/>
<stop offset="1" stop-color="#F2D9F7"/>
</linearGradient>
<linearGradient id="paint1_linear_12_8294" x1="27.8389" y1="25.799" x2="-3.47655" y2="5.45372" gradientUnits="userSpaceOnUse">
<stop stop-color="#5961F8"/>
<stop offset="1" stop-color="#F2D9F7"/>
</linearGradient>
</defs>
</svg>
