<svg width="28" height="28" viewBox="0 0 28 28" fill="none" xmlns="http://www.w3.org/2000/svg">
<path d="M23.5494 23.2194C24.0405 23.12 24.3319 22.6063 24.0991 22.1627C23.4026 20.8359 22.2413 19.6699 20.7295 18.7942C18.8958 17.732 16.6489 17.1563 14.3375 17.1563C12.0261 17.1562 9.77931 17.732 7.94554 18.7942C6.4338 19.6699 5.27243 20.8359 4.57598 22.1627C4.34312 22.6063 4.63454 23.12 5.12562 23.2194L7.80661 23.7617C12.1169 24.6335 16.5582 24.6335 20.8685 23.7617L23.5494 23.2194Z" fill="url(#paint0_linear_12_8289)"/>
<ellipse cx="14.3333" cy="9.23208" rx="5.83333" ry="5.66176" fill="url(#paint1_linear_12_8289)"/>
<defs>
<linearGradient id="paint0_linear_12_8289" x1="26.0738" y1="25.0099" x2="15.789" y2="7.91035" gradientUnits="userSpaceOnUse">
<stop stop-color="#5961F8"/>
<stop offset="1" stop-color="#F2D9F7"/>
</linearGradient>
<linearGradient id="paint1_linear_12_8289" x1="21.0835" y1="14.7897" x2="5.70659" y2="4.4968" gradientUnits="userSpaceOnUse">
<stop stop-color="#5961F8"/>
<stop offset="1" stop-color="#F2D9F7"/>
</linearGradient>
</defs>
</svg>
