<svg width="28" height="29" viewBox="0 0 28 29" fill="none" xmlns="http://www.w3.org/2000/svg">
<path fill-rule="evenodd" clip-rule="evenodd" d="M15.5391 4.32015C14.655 3.41477 13.1989 3.41477 12.3148 4.32015L11.3244 5.3344C10.8939 5.77529 10.3016 6.02062 9.68547 6.01328L8.26799 5.9964C7.00265 5.98133 5.97303 7.01095 5.9881 8.27629L6.00498 9.69377C6.01232 10.3099 5.76699 10.9022 5.3261 11.3327L4.31185 12.3231C3.40647 13.2072 3.40647 14.6633 4.31185 15.5474L5.3261 16.5377C5.76699 16.9682 6.01232 17.5605 6.00498 18.1767L5.9881 19.5942C5.97303 20.8595 7.00265 21.8891 8.26799 21.8741L9.68547 21.8572C10.3016 21.8498 10.8939 22.0952 11.3244 22.5361L12.3148 23.5503C13.1989 24.4557 14.655 24.4557 15.5391 23.5503L16.5294 22.5361C16.9599 22.0952 17.5522 21.8498 18.1684 21.8572L19.5859 21.8741C20.8512 21.8891 21.8808 20.8595 21.8658 19.5942L21.8489 18.1767C21.8415 17.5605 22.0869 16.9682 22.5278 16.5377L23.542 15.5474C24.4474 14.6633 24.4474 13.2072 23.542 12.3231L22.5278 11.3327C22.0869 10.9022 21.8415 10.3099 21.8489 9.69377L21.8658 8.27629C21.8808 7.01095 20.8512 5.98133 19.5859 5.9964L18.1684 6.01328C17.5522 6.02062 16.9599 5.77529 16.5294 5.3344L15.5391 4.32015ZM10.8387 12.3911C11.6915 12.3911 12.3828 11.6998 12.3828 10.847C12.3828 9.9942 11.6915 9.30288 10.8387 9.30288C9.9859 9.30288 9.29458 9.9942 9.29458 10.847C9.29458 11.6998 9.9859 12.3911 10.8387 12.3911ZM17.0152 18.5676C17.868 18.5676 18.5593 17.8763 18.5593 17.0235C18.5593 16.1707 17.868 15.4793 17.0152 15.4793C16.1624 15.4793 15.471 16.1707 15.471 17.0235C15.471 17.8763 16.1624 18.5676 17.0152 18.5676ZM17.8158 10.0463C18.258 10.4885 18.258 11.2055 17.8158 11.6477L11.6393 17.8242C11.1971 18.2664 10.4801 18.2664 10.0379 17.8242C9.59569 17.3819 9.59569 16.665 10.0379 16.2228L16.2144 10.0463C16.6566 9.60408 17.3735 9.60408 17.8158 10.0463Z" fill="url(#paint0_linear_12_8301)"/>
<defs>
<linearGradient id="paint0_linear_12_8301" x1="25.839" y1="24.0401" x2="-1.79227" y2="6.08836" gradientUnits="userSpaceOnUse">
<stop stop-color="#5961F8"/>
<stop offset="1" stop-color="#F2D9F7"/>
</linearGradient>
</defs>
</svg>
