<svg width="28" height="29" viewBox="0 0 28 29" fill="none" xmlns="http://www.w3.org/2000/svg">
<path fill-rule="evenodd" clip-rule="evenodd" d="M4.55956 7.08446C3.83594 7.80808 3.83594 8.97272 3.83594 11.302V17.753C3.83594 20.0823 3.83594 21.2469 4.55956 21.9706C5.28317 22.6942 6.44782 22.6942 8.77711 22.6942H19.8948C22.2241 22.6942 23.3887 22.6942 24.1123 21.9706C24.8359 21.2469 24.8359 20.0823 24.8359 17.753V11.302C24.8359 8.97272 24.8359 7.80808 24.1123 7.08446C23.3887 6.36084 22.2241 6.36084 19.8948 6.36084H8.77711C6.44782 6.36084 5.28317 6.36084 4.55956 7.08446ZM7.79275 10.3397C7.41431 10.0874 6.90301 10.1897 6.65072 10.5681C6.39843 10.9465 6.50069 11.4578 6.87913 11.7101L13.4223 16.0722C13.9756 16.4411 14.6963 16.4411 15.2496 16.0722L21.7927 11.7101C22.1712 11.4578 22.2734 10.9465 22.0212 10.5681C21.7689 10.1897 21.2576 10.0874 20.8791 10.3397L14.3359 14.7018L7.79275 10.3397Z" fill="url(#paint0_linear_12_8311)"/>
<defs>
<linearGradient id="paint0_linear_12_8311" x1="26.4862" y1="22.544" x2="2.87841" y2="2.82407" gradientUnits="userSpaceOnUse">
<stop stop-color="#5961F8"/>
<stop offset="1" stop-color="#F2D9F7"/>
</linearGradient>
</defs>
</svg>
