<svg width="28" height="28" viewBox="0 0 28 28" fill="none" xmlns="http://www.w3.org/2000/svg">
<path fill-rule="evenodd" clip-rule="evenodd" d="M12.4594 25.1423L5.75324 20.4931C5.05887 20.0117 4.71169 19.771 4.52382 19.4121C4.33594 19.0533 4.33594 18.6308 4.33594 17.7859V10.1423C4.33594 9.86078 4.33594 9.62617 4.34289 9.42519L13.5127 15.7824V25.8327C13.2286 25.6755 12.8966 25.4454 12.4594 25.1423ZM15.1598 25.8327C15.444 25.6755 15.7759 25.4454 16.2131 25.1423L22.9193 20.4931C23.6137 20.0117 23.9608 19.771 24.1487 19.4121C24.3366 19.0533 24.3366 18.6308 24.3366 17.7859V10.1423C24.3366 9.86078 24.3366 9.62617 24.3296 9.42519L15.1598 15.7824V25.8327ZM23.6034 7.92449L14.3363 14.3492L5.0691 7.92449C5.24871 7.78489 5.47262 7.62965 5.75324 7.43511L12.4594 2.78585C13.3673 2.15648 13.8212 1.8418 14.3363 1.8418C14.8514 1.8418 15.3053 2.15648 16.2131 2.78585L22.9193 7.43511C23.1999 7.62965 23.4238 7.78489 23.6034 7.92449Z" fill="url(#paint0_linear_12_8305)"/>
<defs>
<linearGradient id="paint0_linear_12_8305" x1="25.9083" y1="25.6121" x2="-3.60603" y2="9.62622" gradientUnits="userSpaceOnUse">
<stop stop-color="#5961F8"/>
<stop offset="1" stop-color="#F2D9F7"/>
</linearGradient>
</defs>
</svg>
