<svg width="28" height="29" viewBox="0 0 28 29" fill="none" xmlns="http://www.w3.org/2000/svg">
<path d="M22.087 5.56601C21.071 4.49324 19.8622 3.64093 18.5301 3.05805C17.198 2.47516 15.7688 2.17318 14.3248 2.16947C12.8807 2.16575 11.4502 2.46037 10.1153 3.03639C8.78051 3.61242 7.5677 4.4585 6.54659 5.52602C5.52548 6.59355 4.71618 7.86148 4.1652 9.25698C3.61422 10.6525 3.33242 12.148 3.33597 13.6578C3.33952 15.1675 3.62837 16.6615 4.18591 18.0542C4.74346 19.4468 5.55871 20.7106 6.58484 21.7729C7.60091 22.8456 8.80972 23.6979 10.1418 24.2808C11.4739 24.8637 12.903 25.1657 14.3471 25.1694C15.7912 25.1731 17.2217 24.8785 18.5565 24.3025C19.8914 23.7264 21.1042 22.8804 22.1253 21.8128C23.1464 20.7453 23.9557 19.4774 24.5067 18.0819C25.0576 16.6864 25.3395 15.1908 25.3359 13.6811C25.3323 12.1714 25.0435 10.6773 24.486 9.28467C23.9284 7.89202 23.1132 6.62827 22.087 5.56601ZM4.94007 13.6694C4.93972 12.8001 5.04998 11.9345 5.26795 11.0955C5.62714 11.9039 6.14881 12.6022 6.5036 13.4315C6.96214 14.4977 8.19339 14.202 8.73708 15.1362C9.21959 15.9655 8.70429 17.0144 9.06544 17.882C9.32774 18.5118 9.94631 18.6495 10.373 19.1099C10.8091 19.5745 10.7998 20.2109 10.8663 20.8167C10.9414 21.5284 11.0632 22.2338 11.2309 22.9281C11.2309 22.9332 11.2309 22.9388 11.2348 22.9439C7.57287 21.5994 4.94007 17.9501 4.94007 13.6694ZM14.3359 23.4924C13.8112 23.4922 13.2874 23.4463 12.77 23.3553C12.7753 23.2166 12.7778 23.0872 12.791 22.9971C12.9099 22.1837 13.2995 21.3881 13.825 20.7793C14.3443 20.1787 15.0558 19.7725 15.4943 19.091C15.9239 18.4259 16.0526 17.5306 15.8755 16.7534C15.6147 15.6054 14.1226 15.2222 13.3181 14.5995C12.8556 14.2414 12.444 13.6879 11.8367 13.6428C11.5568 13.6224 11.3224 13.6853 11.0449 13.6106C10.7905 13.5415 10.5908 13.3983 10.3197 13.4356C9.8132 13.5052 9.49364 14.071 8.94946 13.9943C8.43318 13.9222 7.90124 13.2903 7.78379 12.7762C7.63306 12.1152 8.1332 11.9008 8.66905 11.842C8.8927 11.8174 9.14374 11.7908 9.35857 11.8767C9.64143 11.9862 9.77503 12.2758 10.029 12.4221C10.5052 12.6953 10.6016 12.2589 10.5287 11.8169C10.4195 11.1549 10.2923 10.8852 10.857 10.4294C11.2485 10.1153 11.5832 9.88811 11.5206 9.3238C11.4834 8.99228 11.3097 8.84237 11.4717 8.51238C11.5945 8.26118 11.9317 8.03454 12.1514 7.88464C12.7186 7.49786 14.5811 7.52651 13.8201 6.44394C13.5965 6.12623 13.184 5.55834 12.7925 5.48057C12.3031 5.38388 12.0858 5.95484 11.7447 6.20655C11.3924 6.46696 10.7063 6.76267 10.3535 6.36003C9.87877 5.81823 10.6681 5.64071 10.8428 5.26211C10.9236 5.08561 10.8428 4.84054 10.7068 4.60981C10.8833 4.53204 11.0627 4.4599 11.2451 4.39339C11.3594 4.48165 11.495 4.5348 11.6366 4.54688C11.964 4.56939 12.2728 4.38419 12.5586 4.61748C12.8757 4.87329 13.1042 5.19663 13.5251 5.27644C13.9322 5.35369 14.3633 5.10556 14.4642 4.66967C14.5253 4.40465 14.4642 4.1248 14.4054 3.85109C16.2357 3.8621 18.0225 4.43513 19.5438 5.49899C19.4459 5.46011 19.329 5.46471 19.1846 5.5348C18.8875 5.67908 18.4667 6.04641 18.4319 6.41068C18.3923 6.82406 18.9756 6.88239 19.2526 6.88239C19.6686 6.88239 20.0899 6.68797 19.9558 6.18557C19.8976 5.96763 19.8183 5.74098 19.6906 5.60387C19.9976 5.8266 20.2918 6.06817 20.5715 6.32729C20.5671 6.33189 20.5627 6.33599 20.5583 6.3411C20.2764 6.64807 19.949 6.89109 19.7562 7.26456C19.6201 7.52753 19.467 7.65236 19.1914 7.72041C19.0397 7.75776 18.8665 7.77157 18.7393 7.87798C18.385 8.1696 18.5866 8.87051 18.9223 9.08078C19.3466 9.34631 19.9759 9.22148 20.296 8.84237C20.546 8.54564 20.6933 8.03045 21.143 8.03096C21.341 8.03053 21.5312 8.11157 21.6725 8.25658C21.8585 8.45815 21.8218 8.64643 21.8614 8.89814C21.9314 9.34529 22.3087 9.10278 22.5382 8.87716C22.7055 9.18844 22.8565 9.50901 22.9904 9.83746C22.7379 10.2176 22.5373 10.632 21.93 10.1889C21.5664 9.92341 21.3427 9.53817 20.8861 9.41845C20.4873 9.31613 20.0787 9.42254 19.6847 9.49366C19.237 9.575 18.706 9.61081 18.3664 9.96536C18.038 10.3071 17.8643 10.7645 17.5149 11.1078C16.8391 11.7729 16.5538 12.4989 16.9912 13.4392C17.4121 14.3432 18.2925 14.8339 19.2423 14.7694C20.1756 14.7044 21.145 14.1386 21.1181 15.5563C21.1083 16.0582 21.2086 16.4055 21.3559 16.8716C21.4925 17.3014 21.4832 17.7178 21.5145 18.1614C21.5443 18.6808 21.6219 19.196 21.7464 19.6998C20.8693 20.8805 19.7456 21.836 18.4613 22.4933C17.177 23.1506 15.7659 23.4923 14.3359 23.4924Z" fill="url(#paint0_linear_12_8325)"/>
<defs>
<linearGradient id="paint0_linear_12_8325" x1="27.0648" y1="24.958" x2="-3.22596" y2="6.13404" gradientUnits="userSpaceOnUse">
<stop stop-color="#5961F8"/>
<stop offset="1" stop-color="#F2D9F7"/>
</linearGradient>
</defs>
</svg>
