<svg width="24" height="24" viewBox="0 0 24 24" fill="none" xmlns="http://www.w3.org/2000/svg">
<path d="M4 18H12C12.55 18 13 17.55 13 17C13 16.45 12.55 16 12 16H4C3.45 16 3 16.45 3 17C3 17.55 3.45 18 4 18ZM4 13H13C13.55 13 14 12.55 14 12C14 11.45 13.55 11 13 11H4C3.45 11 3 11.45 3 12C3 12.55 3.45 13 4 13ZM3 7C3 7.55 3.45 8 4 8H12C12.55 8 13 7.55 13 7C13 6.45 12.55 6 12 6H4C3.45 6 3 6.45 3 7Z" fill="#C8D8FF"/>
<path d="M18.1794 12.0039L15.2994 14.8839C14.9094 15.2739 14.9194 15.9139 15.2994 16.3039C15.6894 16.6939 16.3194 16.6939 16.7094 16.3039L20.2994 12.7139C20.3921 12.6214 20.4656 12.5115 20.5158 12.3905C20.566 12.2695 20.5918 12.1399 20.5918 12.0089C20.5918 11.8779 20.566 11.7482 20.5158 11.6273C20.4656 11.5063 20.3921 11.3964 20.2994 11.3039L16.7094 7.7139C16.6168 7.62131 16.5069 7.54787 16.3859 7.49777C16.2649 7.44766 16.1353 7.42188 16.0044 7.42188C15.8734 7.42188 15.7438 7.44766 15.6228 7.49777C15.5018 7.54787 15.3919 7.62131 15.2994 7.7139C15.2068 7.80648 15.1333 7.91639 15.0832 8.03735C15.0331 8.15832 15.0073 8.28797 15.0073 8.4189C15.0073 8.54983 15.0331 8.67947 15.0832 8.80044C15.1333 8.9214 15.2068 9.03131 15.2994 9.1239L18.1794 12.0039Z" fill="#C8D8FF"/>
</svg>
