<svg width="28" height="28" viewBox="0 0 28 28" fill="none" xmlns="http://www.w3.org/2000/svg">
<path d="M5 8.50518C5 8.33687 5 8.25272 5.03134 8.17705C5.06269 8.10137 5.12219 8.04187 5.24121 7.92286L7.53518 5.62889C8.01123 5.15284 8.24925 4.91481 8.55193 4.78944C8.85461 4.66406 9.19123 4.66406 9.86447 4.66406H18.8022C19.4754 4.66406 19.8121 4.66406 20.1147 4.78944C20.4174 4.91481 20.6554 5.15284 21.1315 5.62889L23.4255 7.92286C23.5445 8.04187 23.604 8.10137 23.6353 8.17705C23.6667 8.25272 23.6667 8.33687 23.6667 8.50518V9.33073H5V8.50518Z" stroke="url(#paint0_linear_12_8864)" stroke-width="1.64706"/>
<path fill-rule="evenodd" clip-rule="evenodd" d="M24.8359 9.33594H3.83594V21.2085C3.83594 22.7613 3.83594 23.5378 4.31835 24.0202C4.80076 24.5026 5.57719 24.5026 7.13005 24.5026H21.5418C23.0947 24.5026 23.8711 24.5026 24.3535 24.0202C24.8359 23.5378 24.8359 22.7613 24.8359 21.2085V9.33594ZM11.6595 12.8359C11.6595 12.3811 11.2908 12.0124 10.8359 12.0124C10.3811 12.0124 10.0124 12.3811 10.0124 12.8359C10.0124 13.9826 10.4679 15.0823 11.2787 15.8931C12.0896 16.7039 13.1893 17.1594 14.3359 17.1594C15.4826 17.1594 16.5823 16.7039 17.3931 15.8931C18.204 15.0823 18.6595 13.9826 18.6595 12.8359C18.6595 12.3811 18.2908 12.0124 17.8359 12.0124C17.3811 12.0124 17.0124 12.3811 17.0124 12.8359C17.0124 13.5458 16.7304 14.2265 16.2285 14.7285C15.7266 15.2304 15.0458 15.5124 14.3359 15.5124C13.6261 15.5124 12.9453 15.2304 12.4434 14.7285C11.9415 14.2265 11.6595 13.5458 11.6595 12.8359Z" fill="url(#paint1_linear_12_8864)"/>
<defs>
<linearGradient id="paint0_linear_12_8864" x1="25.1336" y1="9.28783" x2="20.5387" y2="-2.65323" gradientUnits="userSpaceOnUse">
<stop stop-color="#5961F8"/>
<stop offset="1" stop-color="#F2D9F7"/>
</linearGradient>
<linearGradient id="paint1_linear_12_8864" x1="26.4862" y1="24.3632" x2="4.333" y2="4.43481" gradientUnits="userSpaceOnUse">
<stop stop-color="#5961F8"/>
<stop offset="1" stop-color="#F2D9F7"/>
</linearGradient>
</defs>
</svg>
