<svg width="28" height="29" viewBox="0 0 28 29" fill="none" xmlns="http://www.w3.org/2000/svg">
<path fill-rule="evenodd" clip-rule="evenodd" d="M9.08946 4.19274C8.70008 4.2394 8.1697 4.34994 7.8732 4.44622C7.50258 4.56657 6.83606 4.89398 6.48123 5.12999C5.99038 5.45644 5.4392 5.99318 5.02425 6.54889C4.78584 6.86812 4.3992 7.62681 4.26541 8.03784C4.20143 8.23438 4.11555 8.57386 4.07455 8.79223C4.00417 9.16713 4 9.46833 4 14.1921C4 18.8577 4.00485 19.2191 4.07181 19.5523C4.11133 19.7489 4.1798 20.0348 4.22406 20.1876C4.31861 20.5145 4.70545 21.3223 4.92179 21.6447C5.19463 22.0512 5.64159 22.5414 6.03722 22.868C6.45877 23.216 6.84342 23.4569 7.33996 23.6837C7.73805 23.8656 8.03157 23.9621 8.51292 24.0693C8.88429 24.1521 8.97221 24.1537 13.7416 24.1679C17.1265 24.178 18.7126 24.1691 18.9901 24.1383C19.7938 24.049 20.5354 23.7978 21.2777 23.3633C21.9676 22.9594 22.8 22.1278 23.2046 21.4383C23.5773 20.8033 23.7975 20.2257 23.9258 19.5473C23.9957 19.1778 24 18.8676 24 14.1524C24 9.48688 23.9951 9.12548 23.9282 8.79223C23.8887 8.59569 23.8198 8.30982 23.775 8.15695C23.6783 7.82645 23.2921 7.01813 23.0784 6.69906C22.7038 6.13949 22.0563 5.48749 21.5233 5.13296C21.1909 4.91188 20.5203 4.57618 20.1911 4.46607C19.8247 4.34346 19.4361 4.25822 19.011 4.20708C18.7967 4.18131 16.9512 4.16876 13.9414 4.17253C11.3384 4.17579 9.15507 4.18492 9.08946 4.19274ZM11.3891 8.87097C11.9338 8.98623 12.4048 9.28148 12.7204 9.70545C12.8179 9.83648 12.9397 10.0375 12.9911 10.1521L13.0845 10.3606L15.9379 10.3615C18.655 10.3623 18.7992 10.366 18.9576 10.4377C19.0623 10.4852 19.1655 10.5758 19.2359 10.6821C19.3282 10.8214 19.3479 10.894 19.3479 11.0951C19.3479 11.2949 19.3281 11.3691 19.2385 11.5042C19.1784 11.595 19.0531 11.7099 18.9602 11.7594L18.7913 11.8495L15.9289 11.8694L13.0666 11.8892L13.0118 12.0084C12.8911 12.2711 12.6248 12.638 12.434 12.8046C12.1851 13.0221 11.7822 13.2371 11.4731 13.3175C11.1681 13.3968 10.6142 13.3955 10.3392 13.3148C9.94867 13.2002 9.58358 12.9815 9.28759 12.685C9.13412 12.5312 8.95928 12.3129 8.89905 12.1999C8.83881 12.0869 8.75412 11.8562 8.71085 11.6873C8.56926 11.1344 8.6262 10.5756 8.87809 10.0464C9.04115 9.70383 9.47129 9.26822 9.82 9.09253C10.1429 8.92981 10.5737 8.81689 10.8787 8.81495C11.0099 8.81415 11.2396 8.83932 11.3891 8.87097ZM17.6 15.0265C17.7303 15.0596 17.9699 15.1515 18.1322 15.2307C18.4949 15.4075 18.8931 15.7915 19.0805 16.1451C19.2401 16.4461 19.368 16.9287 19.3671 17.226C19.3661 17.5517 19.2676 17.9624 19.1121 18.2894C18.9385 18.6545 18.529 19.0761 18.1746 19.2547C17.8648 19.4109 17.3946 19.5327 17.105 19.5318C16.8069 19.5309 16.3887 19.4387 16.1155 19.3138C15.6468 19.0996 15.2229 18.67 15.0089 18.1924L14.9155 17.984L12.0621 17.9831C9.34497 17.9823 9.2008 17.9786 9.04239 17.9068C8.93773 17.8594 8.83451 17.7687 8.76406 17.6625C8.67177 17.5232 8.65209 17.4506 8.65209 17.2494C8.65209 17.0497 8.67193 16.9755 8.76147 16.8404C8.82163 16.7496 8.94688 16.6347 9.0398 16.5852L9.20875 16.495L12.0616 16.4836L14.9144 16.4722L14.9996 16.3049C15.1667 15.9769 15.3997 15.6759 15.6226 15.5005C15.8942 15.2869 16.2468 15.1064 16.5447 15.0287C16.8346 14.9531 17.3067 14.9521 17.6 15.0265Z" fill="url(#paint0_linear_12_8285)"/>
<defs>
<linearGradient id="paint0_linear_12_8285" x1="25.5717" y1="23.988" x2="-1.27008" y2="6.5492" gradientUnits="userSpaceOnUse">
<stop stop-color="#5961F8"/>
<stop offset="1" stop-color="#F2D9F7"/>
</linearGradient>
</defs>
</svg>
