<svg width="28" height="29" viewBox="0 0 28 29" fill="none" xmlns="http://www.w3.org/2000/svg">
<path d="M2.67188 7.46599C2.67188 5.91313 2.67188 5.1367 3.15429 4.65429C3.6367 4.17188 4.41313 4.17188 5.96599 4.17188H22.7111C24.264 4.17188 25.0404 4.17188 25.5228 4.65429C26.0052 5.1367 26.0052 5.91313 26.0052 7.46599V9.52482C26.0052 10.3012 26.0052 10.6895 25.764 10.9307C25.5228 11.1719 25.1346 11.1719 24.3581 11.1719H4.31894C3.5425 11.1719 3.15429 11.1719 2.91308 10.9307C2.67188 10.6895 2.67188 10.3012 2.67188 9.52482V7.46599Z" fill="url(#paint0_linear_12_8262)"/>
<path fill-rule="evenodd" clip-rule="evenodd" d="M5.72362 24.4484C5 23.7248 5 22.5602 5 20.2309V13.5054H23.6667V20.2309C23.6667 22.5602 23.6667 23.7248 22.943 24.4484C22.2194 25.172 21.0548 25.172 18.7255 25.172H9.94118C7.61188 25.172 6.44724 25.172 5.72362 24.4484ZM12 18.5165C11.5452 18.5165 11.1765 18.8852 11.1765 19.34C11.1765 19.7948 11.5452 20.1635 12 20.1635H16.6667C17.1215 20.1635 17.4902 19.7948 17.4902 19.34C17.4902 18.8852 17.1215 18.5165 16.6667 18.5165H12Z" fill="url(#paint1_linear_12_8262)"/>
<defs>
<linearGradient id="paint0_linear_12_8262" x1="27.8389" y1="11.1075" x2="20.0122" y2="-5.8422" gradientUnits="userSpaceOnUse">
<stop stop-color="#5961F8"/>
<stop offset="1" stop-color="#F2D9F7"/>
</linearGradient>
<linearGradient id="paint1_linear_12_8262" x1="25.1336" y1="25.0648" x2="8.00997" y2="7.26474" gradientUnits="userSpaceOnUse">
<stop stop-color="#5961F8"/>
<stop offset="1" stop-color="#F2D9F7"/>
</linearGradient>
</defs>
</svg>
