<svg width="28" height="28" viewBox="0 0 28 28" fill="none" xmlns="http://www.w3.org/2000/svg">
<path fill-rule="evenodd" clip-rule="evenodd" d="M14 25C20.0751 25 25 20.0751 25 14C25 7.92487 20.0751 3 14 3C7.92487 3 3 7.92487 3 14C3 20.0751 7.92487 25 14 25ZM10.087 8C9.48667 8 9.00003 8.50175 9.00003 9.12069C9.00003 9.73963 9.48667 10.2414 10.087 10.2414H12.2214C12.6711 10.2414 13.1133 10.4339 13.4474 10.7948C13.5268 10.8805 13.5983 10.974 13.6614 11.0739H10.087C9.48667 11.0739 9.00003 11.5756 9.00003 12.1946C9.00003 12.8135 9.48667 13.3153 10.087 13.3153H13.6614C13.5983 13.4152 13.5268 13.5087 13.4474 13.5943C13.1133 13.9553 12.6711 14.1478 12.2214 14.1478H10.087C9.65194 14.1478 9.25881 14.4152 9.08767 14.8276C8.91653 15.24 9.00034 15.7178 9.30073 16.0423L13.5695 20.6531C13.984 21.1008 14.672 21.1173 15.1063 20.69C15.5405 20.2626 15.5565 19.5532 15.142 19.1055L12.6084 16.3688C13.5237 16.2725 14.3766 15.8368 15.0199 15.142C15.4972 14.6265 15.8344 13.9958 16.0112 13.3153H17.913C18.5134 13.3153 19 12.8135 19 12.1946C19 11.5756 18.5134 11.0739 17.913 11.0739H16.0112C15.9364 10.7858 15.8328 10.5066 15.702 10.2414H17.913C18.5134 10.2414 19 9.73963 19 9.12069C19 8.50175 18.5134 8 17.913 8H10.087Z" fill="url(#paint0_linear_7505_165448)"/>
<defs>
<linearGradient id="paint0_linear_7505_165448" x1="26.7289" y1="24.7977" x2="-2.79709" y2="5.61505" gradientUnits="userSpaceOnUse">
<stop stop-color="#5961F8"/>
<stop offset="1" stop-color="#F2D9F7"/>
</linearGradient>
</defs>
</svg>
