<svg width="28" height="29" viewBox="0 0 28 29" fill="none" xmlns="http://www.w3.org/2000/svg">
<path fill-rule="evenodd" clip-rule="evenodd" d="M12.7777 3.82178C12.2743 3.82178 11.8475 4.19848 11.7763 4.70561L11.4006 7.38074C10.69 7.65652 10.0342 8.0454 9.45444 8.52577L6.98782 7.5184C6.52048 7.32758 5.98645 7.51537 5.73475 7.95903L4.58888 9.97863C4.33693 10.4223 4.44413 10.9868 4.84033 11.3031L6.93027 12.9723C6.87197 13.3447 6.84159 13.7267 6.84159 14.1159C6.84159 14.5051 6.87197 14.8871 6.93027 15.2595L4.84033 16.9287C4.44413 17.245 4.33693 17.8095 4.58888 18.2531L5.73475 20.2727C5.98645 20.7164 6.52048 20.9042 6.98782 20.7134L9.45444 19.706C10.0342 20.1864 10.69 20.5753 11.4006 20.8511L11.7763 23.5262C11.8475 24.0333 12.2743 24.41 12.7777 24.41H15.0699C15.5733 24.41 16.0001 24.0333 16.0713 23.5262L16.447 20.8511C17.1576 20.5753 17.8134 20.1864 18.3932 19.7061L20.8595 20.7134C21.3269 20.9042 21.8609 20.7164 22.1126 20.2727L23.2587 18.2531C23.5104 17.8095 23.4032 17.245 23.0073 16.9287L20.9173 15.2596C20.9756 14.8871 21.006 14.5051 21.006 14.1159C21.006 13.9888 21.0028 13.8625 20.9964 13.737C20.9833 13.4782 20.9566 13.223 20.9173 12.9722L23.0073 11.3031C23.4032 10.9868 23.5104 10.4223 23.2587 9.97863L22.1126 7.95903C21.8609 7.51537 21.3269 7.32758 20.8595 7.5184L18.3932 8.52571C17.8134 8.04537 17.1576 7.65652 16.447 7.38074L16.0713 4.70561C16.0001 4.19848 15.5733 3.82178 15.0699 3.82178H12.7777ZM13.9239 17.2041C15.6002 17.2041 16.9591 15.8215 16.9591 14.1159C16.9591 12.4103 15.6002 11.0277 13.9239 11.0277C12.2476 11.0277 10.8887 12.4103 10.8887 14.1159C10.8887 15.8215 12.2476 17.2041 13.9239 17.2041Z" fill="url(#paint0_linear_12_8351)"/>
<defs>
<linearGradient id="paint0_linear_12_8351" x1="24.8828" y1="24.2207" x2="-1.75226" y2="8.3006" gradientUnits="userSpaceOnUse">
<stop stop-color="#5961F8"/>
<stop offset="1" stop-color="#F2D9F7"/>
</linearGradient>
</defs>
</svg>
