<svg width="28" height="29" viewBox="0 0 28 29" fill="none" xmlns="http://www.w3.org/2000/svg">
<path d="M17.6407 11.84C18.7999 11.84 19.7407 12.7547 19.7407 13.8817V19.4222C19.7407 20.8149 19.1717 22.1505 18.1588 23.1353C17.1458 24.1201 15.772 24.6733 14.3395 24.6733C12.9071 24.6733 11.5332 24.1201 10.5203 23.1353C9.50739 22.1505 8.93834 20.8149 8.93834 19.4222V13.8817C8.93834 12.7547 9.87794 11.84 11.0383 11.84H17.6407ZM8.49314 11.84C8.06092 12.3457 7.80094 12.9694 7.74914 13.625L7.73714 13.8817V19.4222C7.73714 20.4103 7.96754 21.346 8.37794 22.1813C7.66667 22.3663 6.92118 22.3898 6.19909 22.25C5.477 22.1101 4.79768 21.8107 4.21363 21.3748C3.62959 20.9389 3.15648 20.3783 2.83089 19.7363C2.5053 19.0942 2.33595 18.388 2.33594 17.6722V13.8817C2.33596 13.3693 2.53414 12.8756 2.89115 12.4987C3.24816 12.1218 3.7379 11.8892 4.26314 11.847L4.43594 11.84H8.49314ZM20.1859 11.84H24.2359C25.3951 11.84 26.3359 12.7547 26.3359 13.8817V17.6733C26.3361 18.3887 26.1671 19.0945 25.842 19.7363C25.5169 20.378 25.0444 20.9385 24.461 21.3744C23.8776 21.8104 23.199 22.1101 22.4775 22.2504C21.7559 22.3907 21.0109 22.3679 20.2999 22.1837C20.6599 21.451 20.8807 20.6437 20.9299 19.7897L20.9407 19.4222V13.8817C20.9407 13.1058 20.6587 12.3942 20.1859 11.84ZM14.3359 3.67334C15.2907 3.67334 16.2064 4.04209 16.8815 4.69847C17.5567 5.35484 17.9359 6.24508 17.9359 7.17334C17.9359 8.1016 17.5567 8.99184 16.8815 9.64821C16.2064 10.3046 15.2907 10.6733 14.3359 10.6733C13.3812 10.6733 12.4655 10.3046 11.7904 9.64821C11.1152 8.99184 10.7359 8.1016 10.7359 7.17334C10.7359 6.24508 11.1152 5.35484 11.7904 4.69847C12.4655 4.04209 13.3812 3.67334 14.3359 3.67334ZM22.1359 4.84001C22.9316 4.84001 23.6946 5.1473 24.2573 5.69428C24.8199 6.24126 25.1359 6.98312 25.1359 7.75667C25.1359 8.53022 24.8199 9.27209 24.2573 9.81907C23.6946 10.366 22.9316 10.6733 22.1359 10.6733C21.3403 10.6733 20.5772 10.366 20.0146 9.81907C19.452 9.27209 19.1359 8.53022 19.1359 7.75667C19.1359 6.98312 19.452 6.24126 20.0146 5.69428C20.5772 5.1473 21.3403 4.84001 22.1359 4.84001ZM6.53594 4.84001C7.33159 4.84001 8.09465 5.1473 8.65726 5.69428C9.21987 6.24126 9.53594 6.98312 9.53594 7.75667C9.53594 8.53022 9.21987 9.27209 8.65726 9.81907C8.09465 10.366 7.33159 10.6733 6.53594 10.6733C5.74029 10.6733 4.97723 10.366 4.41462 9.81907C3.85201 9.27209 3.53594 8.53022 3.53594 7.75667C3.53594 6.98312 3.85201 6.24126 4.41462 5.69428C4.97723 5.1473 5.74029 4.84001 6.53594 4.84001Z" fill="url(#paint0_linear_12_8317)"/>
<defs>
<linearGradient id="paint0_linear_12_8317" x1="28.222" y1="24.4803" x2="-1.30528" y2="2.55623" gradientUnits="userSpaceOnUse">
<stop stop-color="#5961F8"/>
<stop offset="1" stop-color="#F2D9F7"/>
</linearGradient>
</defs>
</svg>
