<svg width="21" height="21" viewBox="0 0 21 21" fill="none" xmlns="http://www.w3.org/2000/svg">
<path d="M6.26814 8.61078L4.40693 10.472C3.71182 11.1671 3.31209 12.1129 3.31939 13.1069C3.3267 14.1009 3.71768 15.0525 4.44578 15.7581C5.15135 16.4862 6.10312 16.8772 7.09697 16.8845C8.11349 16.892 9.03691 16.5148 9.73206 15.8196L11.5933 13.9584M13.9706 11.6265L15.8318 9.76533C16.5269 9.07022 16.9267 8.12442 16.9194 7.13041C16.9121 6.1364 16.5211 5.18482 15.793 4.47921C15.0876 3.77381 14.136 3.3828 13.142 3.3755C12.1479 3.36819 11.202 3.74524 10.5069 4.44037L8.64566 6.30158M7.29697 12.8913L12.8806 7.30766" stroke="#C8D8FF" stroke-width="2" stroke-linecap="round" stroke-linejoin="round"/>
</svg>
