<svg width="25" height="24" viewBox="0 0 25 24" fill="none" xmlns="http://www.w3.org/2000/svg">
<path d="M12.5 22C18.0228 22 22.5 17.5228 22.5 12C22.5 6.47715 18.0228 2 12.5 2C6.97715 2 2.5 6.47715 2.5 12C2.5 17.5228 6.97715 22 12.5 22Z" stroke="url(#paint0_linear_49_16121)" stroke-width="1.99832" stroke-linecap="round" stroke-linejoin="round"/>
<path d="M2.5 12H22.5" stroke="url(#paint1_linear_49_16121)" stroke-width="1.99832" stroke-linecap="round" stroke-linejoin="round"/>
<path d="M12.5 2C15.0013 4.73835 16.4228 8.29203 16.5 12C16.4228 15.708 15.0013 19.2616 12.5 22C9.99872 19.2616 8.57725 15.708 8.5 12C8.57725 8.29203 9.99872 4.73835 12.5 2V2Z" stroke="url(#paint2_linear_49_16121)" stroke-width="1.99832" stroke-linecap="round" stroke-linejoin="round"/>
<defs>
<linearGradient id="paint0_linear_49_16121" x1="24.0717" y1="21.8161" x2="-2.77008" y2="4.37732" gradientUnits="userSpaceOnUse">
<stop stop-color="#5961F8"/>
<stop offset="1" stop-color="#F2D9F7"/>
</linearGradient>
<linearGradient id="paint1_linear_49_16121" x1="24.0717" y1="12.9908" x2="23.8469" y2="10.0704" gradientUnits="userSpaceOnUse">
<stop stop-color="#5961F8"/>
<stop offset="1" stop-color="#F2D9F7"/>
</linearGradient>
<linearGradient id="paint2_linear_49_16121" x1="17.1287" y1="21.8161" x2="2.82598" y2="18.0992" gradientUnits="userSpaceOnUse">
<stop stop-color="#5961F8"/>
<stop offset="1" stop-color="#F2D9F7"/>
</linearGradient>
</defs>
</svg>
