<svg width="1392" height="388" viewBox="0 0 1392 388" fill="none" xmlns="http://www.w3.org/2000/svg">
<rect x="0.5" y="0.671875" width="1391" height="386" rx="3.5" fill="#191832"/>
<path d="M636.578 182.225H640.402V180.924H636.578V177.101H635.278V180.924H631.454V182.225H635.278V186.048H636.578V182.225ZM656.705 186.672H658.366L653.691 173.989H652.126L647.45 186.672H649.112L650.386 183.042H655.431L656.705 186.672ZM652.838 176.037H652.979L654.965 181.697H650.852L652.838 176.037ZM663.376 186.839C664.686 186.839 665.811 186.215 666.408 185.16H666.549V186.672H667.99V173.436H666.479V178.691H666.347C665.811 177.654 664.695 177.03 663.376 177.03C660.968 177.03 659.395 178.964 659.395 181.935C659.395 184.914 660.95 186.839 663.376 186.839ZM663.728 178.393C665.442 178.393 666.514 179.764 666.514 181.935C666.514 184.123 665.45 185.477 663.728 185.477C661.996 185.477 660.959 184.149 660.959 181.935C660.959 179.729 662.005 178.393 663.728 178.393ZM674.433 186.839C675.742 186.839 676.867 186.215 677.465 185.16H677.606V186.672H679.047V173.436H677.535V178.691H677.404C676.867 177.654 675.751 177.03 674.433 177.03C672.025 177.03 670.451 178.964 670.451 181.935C670.451 184.914 672.007 186.839 674.433 186.839ZM674.784 178.393C676.498 178.393 677.571 179.764 677.571 181.935C677.571 184.123 676.507 185.477 674.784 185.477C673.053 185.477 672.016 184.149 672.016 181.935C672.016 179.729 673.062 178.393 674.784 178.393ZM687.256 173.989V186.672H688.838V182.146H692.029C694.41 182.146 696.107 180.467 696.107 178.094C696.107 175.677 694.446 173.989 692.046 173.989H687.256ZM688.838 175.396H691.633C693.47 175.396 694.481 176.354 694.481 178.094C694.481 179.772 693.435 180.739 691.633 180.739H688.838V175.396ZM698.506 186.672H700.018V180.801C700.018 179.465 701.064 178.498 702.505 178.498C702.804 178.498 703.349 178.551 703.472 178.586V177.074C703.279 177.048 702.962 177.03 702.716 177.03C701.459 177.03 700.369 177.681 700.088 178.604H699.948V177.197H698.506V186.672ZM708.991 186.839C711.69 186.839 713.36 184.976 713.36 181.935C713.36 178.885 711.69 177.03 708.991 177.03C706.293 177.03 704.623 178.885 704.623 181.935C704.623 184.976 706.293 186.839 708.991 186.839ZM708.991 185.477C707.198 185.477 706.188 184.176 706.188 181.935C706.188 179.685 707.198 178.393 708.991 178.393C710.784 178.393 711.795 179.685 711.795 181.935C711.795 184.176 710.784 185.477 708.991 185.477ZM719.24 186.839C720.549 186.839 721.674 186.215 722.272 185.16H722.412V186.672H723.854V173.436H722.342V178.691H722.21C721.674 177.654 720.558 177.03 719.24 177.03C716.831 177.03 715.258 178.964 715.258 181.935C715.258 184.914 716.814 186.839 719.24 186.839ZM719.591 178.393C721.305 178.393 722.377 179.764 722.377 181.935C722.377 184.123 721.314 185.477 719.591 185.477C717.86 185.477 716.823 184.149 716.823 181.935C716.823 179.729 717.868 178.393 719.591 178.393ZM734.453 177.197H732.942V182.805C732.942 184.466 732.028 185.459 730.358 185.459C728.846 185.459 728.213 184.668 728.213 182.963V177.197H726.701V183.332C726.701 185.573 727.809 186.839 729.936 186.839C731.386 186.839 732.397 186.241 732.871 185.187H733.012V186.672H734.453V177.197ZM745.141 180.098C744.877 178.41 743.471 177.03 741.168 177.03C738.514 177.03 736.826 178.946 736.826 181.899C736.826 184.914 738.523 186.839 741.177 186.839C743.453 186.839 744.868 185.556 745.141 183.815H743.612C743.33 184.888 742.443 185.477 741.168 185.477C739.481 185.477 738.391 184.088 738.391 181.899C738.391 179.755 739.463 178.393 741.168 178.393C742.531 178.393 743.365 179.157 743.612 180.098H745.141ZM748.182 174.745V177.197H746.653V178.463H748.182V184.211C748.182 186.021 748.964 186.742 750.915 186.742C751.214 186.742 751.504 186.707 751.803 186.654V185.38C751.522 185.406 751.372 185.415 751.1 185.415C750.115 185.415 749.694 184.94 749.694 183.824V178.463H751.803V177.197H749.694V174.745H748.182ZM753.693 179.79C753.693 181.161 754.501 181.926 756.277 182.356L757.903 182.752C758.913 182.998 759.406 183.438 759.406 184.088C759.406 184.958 758.491 185.564 757.217 185.564C756.004 185.564 755.248 185.055 754.993 184.255H753.438C753.605 185.828 755.055 186.839 757.164 186.839C759.318 186.839 760.961 185.67 760.961 183.974C760.961 182.611 760.1 181.838 758.316 181.407L756.857 181.056C755.74 180.783 755.213 180.379 755.213 179.729C755.213 178.885 756.092 178.313 757.217 178.313C758.36 178.313 759.098 178.814 759.3 179.57H760.794C760.592 178.015 759.212 177.03 757.226 177.03C755.213 177.03 753.693 178.217 753.693 179.79Z" fill="#6E8DD7"/>
<path d="M620.415 213.672V200.989H618.578L614.237 211.483H614.096L609.754 200.989H607.917V213.672H609.394V203.986H609.499L613.498 213.584H614.834L618.833 203.986H618.939V213.672H620.415ZM626.374 212.512C625.276 212.512 624.458 211.949 624.458 210.982C624.458 210.033 625.091 209.532 626.532 209.436L629.081 209.269V210.139C629.081 211.492 627.93 212.512 626.374 212.512ZM626.093 213.839C627.359 213.839 628.396 213.285 629.011 212.274H629.152V213.672H630.593V207.186C630.593 205.217 629.301 204.03 626.99 204.03C624.968 204.03 623.474 205.032 623.272 206.553H624.801C625.012 205.806 625.803 205.375 626.937 205.375C628.352 205.375 629.081 206.017 629.081 207.186V208.047L626.348 208.214C624.142 208.346 622.894 209.321 622.894 211.018C622.894 212.749 624.256 213.839 626.093 213.839ZM636.745 210.095L638.987 213.672H640.78L637.519 208.873L640.736 204.197H639.022L636.798 207.722H636.657L634.407 204.197H632.606L635.884 208.935L632.641 213.672H634.355L636.605 210.095H636.745ZM642.88 213.672H644.392V204.197H642.88V213.672ZM643.636 202.272C644.216 202.272 644.691 201.798 644.691 201.218C644.691 200.638 644.216 200.163 643.636 200.163C643.056 200.163 642.581 200.638 642.581 201.218C642.581 201.798 643.056 202.272 643.636 202.272ZM647.275 213.672H648.786V207.801C648.786 206.465 649.744 205.393 650.984 205.393C652.179 205.393 652.961 206.113 652.961 207.238V213.672H654.473V207.581C654.473 206.377 655.352 205.393 656.67 205.393C658.006 205.393 658.665 206.078 658.665 207.476V213.672H660.177V207.124C660.177 205.138 659.096 204.03 657.162 204.03C655.853 204.03 654.772 204.689 654.262 205.691H654.121C653.682 204.707 652.785 204.03 651.502 204.03C650.237 204.03 649.287 204.637 648.857 205.691H648.716V204.197H647.275V213.672ZM670.601 204.197H669.089V209.805C669.089 211.466 668.175 212.459 666.505 212.459C664.993 212.459 664.361 211.668 664.361 209.963V204.197H662.849V210.332C662.849 212.573 663.956 213.839 666.083 213.839C667.533 213.839 668.544 213.241 669.019 212.187H669.159V213.672H670.601V204.197ZM673.448 213.672H674.96V207.801C674.96 206.465 675.918 205.393 677.157 205.393C678.353 205.393 679.135 206.113 679.135 207.238V213.672H680.647V207.581C680.647 206.377 681.526 205.393 682.844 205.393C684.18 205.393 684.839 206.078 684.839 207.476V213.672H686.351V207.124C686.351 205.138 685.27 204.03 683.336 204.03C682.027 204.03 680.946 204.689 680.436 205.691H680.295C679.856 204.707 678.959 204.03 677.676 204.03C676.41 204.03 675.461 204.637 675.031 205.691H674.89V204.197H673.448V213.672ZM699.974 213.672H701.521V211.044H703.323V209.629H701.521V200.989H699.227C696.942 204.408 694.929 207.59 693.795 209.603V211.044H699.974V213.672ZM695.412 209.532C696.924 206.966 698.576 204.347 699.877 202.457H699.983V209.638H695.412V209.532ZM711.048 200.989V213.672H712.63V209.146H715.821C718.202 209.146 719.899 207.467 719.899 205.094C719.899 202.677 718.238 200.989 715.838 200.989H711.048ZM712.63 202.396H715.425C717.262 202.396 718.273 203.354 718.273 205.094C718.273 206.772 717.227 207.739 715.425 207.739H712.63V202.396ZM722.298 213.672H723.81V207.801C723.81 206.465 724.856 205.498 726.297 205.498C726.596 205.498 727.141 205.551 727.264 205.586V204.074C727.071 204.048 726.754 204.03 726.508 204.03C725.251 204.03 724.161 204.681 723.88 205.604H723.74V204.197H722.298V213.672ZM732.783 213.839C735.482 213.839 737.152 211.976 737.152 208.935C737.152 205.885 735.482 204.03 732.783 204.03C730.085 204.03 728.415 205.885 728.415 208.935C728.415 211.976 730.085 213.839 732.783 213.839ZM732.783 212.477C730.99 212.477 729.98 211.176 729.98 208.935C729.98 206.685 730.99 205.393 732.783 205.393C734.576 205.393 735.587 206.685 735.587 208.935C735.587 211.176 734.576 212.477 732.783 212.477ZM743.031 213.839C744.341 213.839 745.466 213.215 746.064 212.16H746.204V213.672H747.646V200.436H746.134V205.691H746.002C745.466 204.654 744.35 204.03 743.031 204.03C740.623 204.03 739.05 205.964 739.05 208.935C739.05 211.914 740.606 213.839 743.031 213.839ZM743.383 205.393C745.097 205.393 746.169 206.764 746.169 208.935C746.169 211.123 745.106 212.477 743.383 212.477C741.652 212.477 740.615 211.149 740.615 208.935C740.615 206.729 741.66 205.393 743.383 205.393ZM758.245 204.197H756.734V209.805C756.734 211.466 755.82 212.459 754.15 212.459C752.638 212.459 752.005 211.668 752.005 209.963V204.197H750.493V210.332C750.493 212.573 751.601 213.839 753.728 213.839C755.178 213.839 756.189 213.241 756.663 212.187H756.804V213.672H758.245V204.197ZM768.933 207.098C768.669 205.41 767.263 204.03 764.96 204.03C762.306 204.03 760.618 205.946 760.618 208.899C760.618 211.914 762.315 213.839 764.969 213.839C767.245 213.839 768.66 212.556 768.933 210.815H767.404C767.122 211.888 766.235 212.477 764.96 212.477C763.273 212.477 762.183 211.088 762.183 208.899C762.183 206.755 763.255 205.393 764.96 205.393C766.323 205.393 767.157 206.157 767.404 207.098H768.933ZM771.974 201.745V204.197H770.445V205.463H771.974V211.211C771.974 213.021 772.756 213.742 774.707 213.742C775.006 213.742 775.296 213.707 775.595 213.654V212.38C775.314 212.406 775.164 212.415 774.892 212.415C773.907 212.415 773.486 211.94 773.486 210.824V205.463H775.595V204.197H773.486V201.745H771.974ZM777.485 206.79C777.485 208.161 778.293 208.926 780.069 209.356L781.695 209.752C782.705 209.998 783.198 210.438 783.198 211.088C783.198 211.958 782.283 212.564 781.009 212.564C779.796 212.564 779.04 212.055 778.785 211.255H777.23C777.397 212.828 778.847 213.839 780.956 213.839C783.11 213.839 784.753 212.67 784.753 210.974C784.753 209.611 783.892 208.838 782.108 208.407L780.649 208.056C779.532 207.783 779.005 207.379 779.005 206.729C779.005 205.885 779.884 205.313 781.009 205.313C782.152 205.313 782.89 205.814 783.092 206.57H784.586C784.384 205.015 783.004 204.03 781.018 204.03C779.005 204.03 777.485 205.217 777.485 206.79Z" fill="#5C6D8E"/>
<rect x="0.5" y="0.671875" width="1391" height="386" rx="3.5" stroke="#343E50" stroke-dasharray="10 10"/>
</svg>
