<svg width="27" height="20" viewBox="0 0 27 20" fill="none" xmlns="http://www.w3.org/2000/svg">
<path d="M0.292969 7.1875H26.793V12.9844H0.292969V7.1875Z" fill="#E6E7E8"/>
<path d="M22.6523 0.976562H4.43359C1.6896 0.976562 0.292969 3.01582 0.292969 5.53125V7.1875H26.793V5.53125C26.793 3.01582 25.3963 0.976562 22.6523 0.976562Z" fill="#FF9933"/>
<path d="M0.292969 14.6406C0.292969 17.1561 1.6896 19.1953 4.43359 19.1953H22.6523C25.3963 19.1953 26.793 17.1561 26.793 14.6406V12.9844H0.292969V14.6406Z" fill="#128807"/>
<path fill-rule="evenodd" clip-rule="evenodd" d="M13.6779 7.42969C14.207 7.42969 14.7241 7.58662 15.164 7.88063C15.6038 8.17464 15.9465 8.59251 16.1488 9.08136C16.3511 9.57021 16.4038 10.1081 16.3003 10.6269C16.1967 11.1457 15.9417 11.6222 15.5673 11.996C15.1929 12.3698 14.716 12.6241 14.1971 12.7268C13.6781 12.8296 13.1403 12.776 12.6518 12.573C12.1632 12.37 11.7459 12.0266 11.4525 11.5863C11.1592 11.146 11.0031 10.6286 11.0039 10.0996C11.0051 9.39112 11.2874 8.7121 11.7887 8.21155C12.29 7.71099 12.9695 7.4298 13.6779 7.42969ZM11.8954 8.58699C11.9413 8.63916 11.9496 8.69506 11.919 8.74185C11.906 8.7634 11.886 8.77978 11.8623 8.78823C11.8441 8.79499 11.8245 8.79724 11.8053 8.79479C11.786 8.79234 11.7676 8.78526 11.7517 8.77415C11.6797 8.87721 11.6164 8.98607 11.5625 9.0996C11.625 9.14059 11.6457 9.19194 11.625 9.24866C11.6139 9.27754 11.592 9.30095 11.564 9.31394C11.5359 9.32693 11.5039 9.32847 11.4747 9.31823C11.4449 9.37785 11.3791 9.6296 11.3782 9.6826C11.4056 9.68784 11.4303 9.70267 11.4478 9.72442C11.4663 9.74602 11.4757 9.77388 11.4743 9.80227C11.4664 9.88011 11.4184 9.91323 11.3451 9.91613C11.3335 9.99108 11.3347 10.242 11.3463 10.2913C11.4242 10.2996 11.4652 10.3335 11.4718 10.3927C11.4809 10.4565 11.4503 10.4979 11.3757 10.5269C11.3981 10.6499 11.43 10.7708 11.4718 10.8892C11.501 10.8804 11.5323 10.8814 11.5608 10.8921C11.5886 10.9041 11.6105 10.9248 11.6221 10.9534C11.6325 10.9757 11.6345 10.9989 11.6291 11.0233C11.6253 11.0415 11.6172 11.0585 11.6057 11.073C11.5941 11.0875 11.5793 11.0992 11.5625 11.107C11.618 11.2221 11.6792 11.3306 11.7517 11.4324C11.8163 11.4005 11.8726 11.408 11.9107 11.4535C11.9275 11.4723 11.937 11.4963 11.9376 11.5215C11.9389 11.54 11.9357 11.5586 11.9282 11.5756C11.9207 11.5927 11.9091 11.6076 11.8946 11.6192C11.9774 11.7161 12.0656 11.8047 12.1616 11.8862C12.2159 11.8386 12.2722 11.8312 12.3206 11.8651C12.3426 11.8804 12.3579 11.9007 12.3649 11.9256C12.37 11.9432 12.371 11.9617 12.368 11.9797C12.365 11.9978 12.358 12.0149 12.3475 12.0299C12.4523 12.102 12.5604 12.1641 12.6734 12.2179C12.7173 12.1562 12.7674 12.1355 12.8216 12.1562C12.8453 12.1647 12.8658 12.1801 12.8804 12.2005C12.9011 12.2336 12.904 12.2701 12.892 12.309C13.0113 12.3512 13.1314 12.3835 13.2556 12.4055C13.28 12.3355 13.3222 12.3028 13.3786 12.3069C13.4046 12.309 13.4282 12.3169 13.4489 12.3347C13.4779 12.3612 13.4916 12.3947 13.4891 12.4361C13.6166 12.4452 13.7413 12.4461 13.8651 12.4361C13.8742 12.3562 13.9061 12.316 13.9703 12.3069C13.9946 12.3036 14.0194 12.3085 14.0406 12.321C14.0561 12.3298 14.0695 12.3419 14.0797 12.3565C14.0898 12.3712 14.0966 12.3879 14.0994 12.4055C14.2245 12.3823 14.3458 12.3504 14.463 12.3086C14.4526 12.2303 14.4717 12.1835 14.5243 12.1591C14.5434 12.1509 14.5644 12.1476 14.5851 12.1496C14.6067 12.1512 14.6261 12.1579 14.6419 12.1719C14.6572 12.1848 14.67 12.2005 14.6849 12.2167C14.7978 12.1634 14.9061 12.1009 15.0087 12.0299C14.9665 11.9637 14.9913 11.9003 15.0257 11.8722C15.0377 11.8619 15.0516 11.8541 15.0666 11.8493C15.0816 11.8444 15.0975 11.8426 15.1132 11.844C15.1289 11.8453 15.1442 11.8498 15.1582 11.8571C15.1722 11.8645 15.1846 11.8745 15.1946 11.8867C15.2903 11.8047 15.3801 11.7156 15.4605 11.62C15.4137 11.5666 15.4046 11.5103 15.4389 11.4618C15.4528 11.4401 15.4742 11.4242 15.499 11.4171C15.5166 11.4115 15.5353 11.41 15.5537 11.4128C15.572 11.4156 15.5894 11.4226 15.6046 11.4333C15.677 11.3289 15.74 11.2208 15.7938 11.1074C15.7333 11.0668 15.7114 11.0192 15.7296 10.965C15.7362 10.9408 15.7508 10.9197 15.771 10.9049C15.7871 10.8937 15.8056 10.8864 15.825 10.8835C15.8444 10.8806 15.8642 10.8823 15.8828 10.8884C15.9097 10.83 15.9768 10.584 15.9805 10.5244C15.9519 10.5192 15.926 10.5039 15.9077 10.4813C15.898 10.4701 15.8908 10.4571 15.8864 10.443C15.8821 10.4289 15.8807 10.414 15.8824 10.3993C15.884 10.3731 15.8948 10.3483 15.913 10.3294C15.9255 10.3162 15.9407 10.3061 15.9577 10.2996C15.9746 10.2932 15.9927 10.2906 16.0108 10.2921C16.0211 10.1669 16.0211 10.041 16.0108 9.91572C15.9317 9.90785 15.894 9.87721 15.8836 9.81469C15.879 9.79104 15.8825 9.76652 15.8936 9.74512C15.9021 9.72858 15.9144 9.71425 15.9294 9.70325C15.9444 9.69226 15.9618 9.6849 15.9801 9.68177C15.9584 9.55807 15.9261 9.43644 15.8836 9.31823C15.807 9.33106 15.7598 9.31036 15.7346 9.25736C15.728 9.24319 15.7244 9.22785 15.7238 9.21225C15.7232 9.19665 15.7258 9.18109 15.7313 9.16648C15.7368 9.15187 15.7452 9.13851 15.7559 9.12717C15.7666 9.11583 15.7795 9.10674 15.7938 9.10043C15.7401 8.9866 15.6768 8.87758 15.6046 8.77456C15.5379 8.80645 15.4837 8.79899 15.4456 8.75345C15.4286 8.7342 15.4192 8.7095 15.4191 8.68388C15.4183 8.66569 15.4218 8.64756 15.4292 8.63095C15.4367 8.61434 15.448 8.59971 15.4621 8.58823C15.3803 8.49252 15.2913 8.40324 15.1959 8.32116C15.1387 8.37002 15.0833 8.37623 15.0361 8.34228C15.0146 8.32798 14.9989 8.30657 14.9917 8.28183C14.9866 8.26445 14.9855 8.24613 14.9885 8.22826C14.9915 8.21039 14.9986 8.19345 15.0091 8.17873C14.9059 8.10677 14.7969 8.04348 14.6833 7.9895C14.6406 8.05078 14.5926 8.07107 14.5383 8.05285C14.5143 8.04516 14.4933 8.0301 14.4783 8.00979C14.4674 7.99363 14.4604 7.97513 14.458 7.95578C14.4555 7.93643 14.4577 7.91677 14.4642 7.89841C14.3461 7.85569 14.2245 7.82341 14.1007 7.80193C14.0771 7.86901 14.0344 7.90379 13.9794 7.90048C13.9536 7.89965 13.9289 7.89033 13.909 7.87398C13.8942 7.86153 13.8827 7.84568 13.8754 7.82779C13.8681 7.8099 13.8653 7.79051 13.8672 7.77129C13.742 7.76066 13.6163 7.7608 13.4912 7.7717C13.4825 7.84623 13.4502 7.88888 13.3951 7.89799C13.3704 7.90328 13.3445 7.90007 13.3218 7.88888C13.3049 7.8805 13.2902 7.86821 13.279 7.85301C13.2677 7.83782 13.2603 7.82017 13.2572 7.80152C13.1335 7.82403 13.0118 7.85657 12.8933 7.89882C12.9065 7.97211 12.8858 8.02014 12.8353 8.04623C12.8134 8.05741 12.7902 8.06196 12.7645 8.05741C12.7452 8.05478 12.7269 8.04717 12.7115 8.03534C12.696 8.0235 12.6839 8.00785 12.6763 7.98991C12.6055 8.01641 12.3803 8.14684 12.3504 8.17955C12.3811 8.24084 12.374 8.29508 12.3318 8.334C12.3199 8.34454 12.3059 8.35258 12.2908 8.35763C12.2757 8.36268 12.2598 8.36465 12.2439 8.36341C12.228 8.36217 12.2126 8.35776 12.1984 8.35043C12.1843 8.3431 12.1718 8.33301 12.1616 8.32075C12.0661 8.40243 11.9771 8.49145 11.8954 8.58699Z" fill="#010088"/>
<path fill-rule="evenodd" clip-rule="evenodd" d="M14.824 12.0837C14.819 12.0783 14.814 12.0746 14.8103 12.0688C14.5696 11.7008 14.3282 11.3332 14.0861 10.9661C14.0807 10.9558 14.0745 10.9454 14.0695 10.9338C14.0132 10.8026 13.9582 10.6713 13.9006 10.5405C13.8987 10.5337 13.896 10.5272 13.8927 10.521C13.8695 10.5297 13.8484 10.5396 13.8236 10.5491L13.8319 10.5703C13.8836 10.6974 13.9333 10.8249 13.9859 10.952C14 10.986 14.0058 11.0216 14.0132 11.0572C14.0538 11.2473 14.0919 11.4381 14.1329 11.6286L14.2728 12.3089C14.2735 12.3105 14.2738 12.3123 14.2736 12.314C14.2733 12.3158 14.2727 12.3175 14.2716 12.3189L14.2658 12.3044C14.1524 11.957 14.036 11.61 13.9221 11.2626C13.8994 11.1947 13.8791 11.1276 13.8542 11.0597C13.8426 11.0257 13.8389 10.991 13.8335 10.9558C13.819 10.8572 13.8066 10.7578 13.7905 10.6593C13.7884 10.6357 13.7847 10.6125 13.7814 10.5897C13.7803 10.5803 13.7788 10.5709 13.7768 10.5616C13.752 10.5641 13.7292 10.5674 13.7043 10.5703C13.7043 10.5802 13.7052 10.5906 13.706 10.6009C13.7205 10.7222 13.7329 10.844 13.7503 10.9649C13.7594 11.0311 13.7549 11.0961 13.7511 11.1624C13.7486 11.2183 13.7449 11.2742 13.7424 11.3305C13.735 11.4439 13.7292 11.557 13.7213 11.67L13.7089 11.9035C13.7019 12.036 13.6936 12.1681 13.6865 12.2998C13.6832 12.3371 13.6824 12.3752 13.6787 12.4116L13.6687 12.2861L13.6559 12.0145L13.641 11.7723C13.6368 11.6895 13.6315 11.6071 13.6269 11.5243C13.6232 11.47 13.6211 11.4158 13.6178 11.3624C13.6132 11.2767 13.6079 11.1909 13.6037 11.1061C13.5996 11.0608 13.6008 11.0152 13.607 10.9702C13.6157 10.909 13.6224 10.8464 13.6298 10.7843C13.6381 10.7231 13.6451 10.6614 13.6526 10.6009C13.6534 10.5914 13.6534 10.5814 13.6546 10.5703L13.5822 10.5607C13.5801 10.5773 13.5764 10.5935 13.5735 10.61C13.5563 10.7365 13.5386 10.8629 13.5205 10.9893C13.5155 11.0386 13.4961 11.0841 13.4795 11.1301C13.352 11.5185 13.224 11.9073 13.0948 12.2952C13.0919 12.3023 13.0907 12.3089 13.0853 12.3155C13.0853 12.3106 13.0853 12.3068 13.0874 12.3023C13.1408 12.0406 13.1946 11.7785 13.2501 11.5168C13.2857 11.3429 13.3226 11.1694 13.3578 10.9959L13.3677 10.9674C13.4211 10.8361 13.4725 10.7036 13.5271 10.5723C13.529 10.5646 13.5318 10.5571 13.5354 10.55C13.5126 10.5402 13.4897 10.5307 13.4667 10.5214C13.4638 10.5289 13.4592 10.5351 13.4567 10.5425C13.3996 10.6742 13.3437 10.8063 13.2865 10.938C13.283 10.9478 13.2785 10.9574 13.2733 10.9665C13.029 11.3366 12.7854 11.7072 12.5425 12.0783C12.5391 12.0839 12.5348 12.0888 12.5296 12.0928C12.5317 12.0861 12.5354 12.0808 12.5379 12.075L13.1367 10.8879C13.1418 10.8771 13.1482 10.8669 13.1557 10.8576L13.4116 10.5144C13.417 10.5086 13.4203 10.5032 13.4253 10.497C13.4041 10.4817 13.3872 10.4676 13.366 10.4514C13.3615 10.4568 13.3574 10.4614 13.3536 10.4667C13.2642 10.579 13.176 10.692 13.0886 10.8038C13.0787 10.8141 13.0696 10.8249 13.0584 10.8344C12.7321 11.1264 12.4058 11.4166 12.0783 11.7089C12.0717 11.7143 12.0651 11.7201 12.0568 11.7238C12.0605 11.7201 12.0626 11.7156 12.0651 11.7127C12.3338 11.4125 12.6004 11.1127 12.8679 10.8125C12.8833 10.7959 12.8986 10.7794 12.9131 10.7616C12.9437 10.726 12.9781 10.6945 13.0153 10.6663L13.3126 10.4324C13.3193 10.4274 13.3242 10.422 13.3317 10.4171C13.317 10.3972 13.3018 10.3778 13.2861 10.3587C13.2795 10.3628 13.2741 10.367 13.2679 10.3715C13.154 10.4568 13.0398 10.5413 12.9259 10.627C12.9132 10.6366 12.8996 10.6451 12.8853 10.6522C12.4965 10.8485 12.1056 11.0448 11.716 11.241C11.7086 11.2444 11.7015 11.2485 11.6928 11.2485L11.7086 11.2373L12.4356 10.7611C12.5624 10.6779 12.6895 10.5947 12.8153 10.5111C12.8261 10.5048 12.8373 10.4995 12.8468 10.4945C12.9789 10.4386 13.1106 10.3823 13.2414 10.326C13.2476 10.3235 13.2538 10.321 13.2613 10.3173L13.2335 10.249C13.2257 10.251 13.2207 10.2531 13.2145 10.2552C13.0803 10.3086 12.9474 10.3628 12.8124 10.4158C12.7847 10.4262 12.7545 10.4311 12.7251 10.4374L11.8204 10.6253C11.7065 10.6498 11.5905 10.6738 11.4763 10.6974C11.4717 10.6985 11.4668 10.6979 11.4626 10.6957C11.4941 10.6858 11.5255 10.6746 11.5566 10.6643C11.9475 10.5355 12.3379 10.4071 12.7276 10.2775C12.7582 10.2672 12.7909 10.2643 12.822 10.2593C12.9478 10.2419 13.0733 10.2237 13.1979 10.2059C13.2056 10.2045 13.2132 10.2029 13.2207 10.2009C13.2182 10.1769 13.2145 10.1529 13.2124 10.128L13.152 10.1347L12.9019 10.1649C12.8551 10.1711 12.8087 10.1761 12.7628 10.1819C12.7516 10.1831 12.7408 10.1835 12.73 10.1831L12.4667 10.1678L12.311 10.1591L12.0427 10.1434L11.6514 10.1218C11.557 10.1169 11.4651 10.1107 11.3711 10.104C11.386 10.1028 11.4026 10.1003 11.4187 10.1003L11.7396 10.0821L12.1636 10.0581L12.5147 10.0382L12.735 10.0249C12.7437 10.0245 12.7541 10.0258 12.7628 10.0266L13.0153 10.0568L13.1942 10.0784H13.2124C13.2145 10.0548 13.2182 10.0324 13.2207 10.0067C13.2054 10.0034 13.188 10.0009 13.1727 9.99803C13.0621 9.98271 12.9524 9.96656 12.8418 9.95041C12.8189 9.94778 12.796 9.94475 12.7731 9.9413C12.7604 9.93959 12.748 9.93668 12.7358 9.93261C12.4067 9.82454 12.0796 9.71564 11.7508 9.60757C11.6593 9.57758 11.5679 9.54721 11.4767 9.51648C11.4688 9.51439 11.4614 9.51088 11.4547 9.50612L11.5123 9.51772L12.215 9.66388C12.4029 9.70322 12.5938 9.74214 12.7818 9.78189C12.7931 9.78439 12.8042 9.78785 12.8149 9.79224C12.9474 9.84441 13.0787 9.89824 13.2124 9.95124L13.2323 9.95911C13.2414 9.93634 13.2514 9.91439 13.2613 9.89079C13.2545 9.88676 13.2475 9.8833 13.2402 9.88044C13.1085 9.82495 12.9772 9.76823 12.846 9.7115C12.8357 9.70714 12.8257 9.70202 12.8162 9.69618C12.4448 9.45312 12.075 9.20883 11.7032 8.96536C11.6983 8.96264 11.6944 8.95844 11.692 8.95335L11.7069 8.96163C12.0771 9.14796 12.4477 9.33429 12.8187 9.5202C12.8799 9.55084 12.9396 9.58769 12.9942 9.62952C13.0845 9.69949 13.1764 9.76657 13.2683 9.8353C13.2745 9.83986 13.2799 9.844 13.2865 9.84814L13.3321 9.79059L13.3159 9.77651L12.9793 9.51192C12.9677 9.50281 12.9586 9.49329 12.9487 9.48335C12.6555 9.155 12.3619 8.82623 12.0696 8.49788C12.0654 8.49449 12.0621 8.49007 12.0601 8.48505C12.0688 8.48587 12.0721 8.49167 12.0758 8.4954C12.2535 8.65274 12.4294 8.81009 12.6058 8.96743L13.0621 9.37404C13.0704 9.38149 13.0783 9.3906 13.0857 9.39888L13.347 9.73096C13.3536 9.73841 13.3586 9.74628 13.366 9.75622L13.4261 9.71026C13.4224 9.70446 13.4174 9.69991 13.4145 9.69452C13.3292 9.58066 13.2443 9.46637 13.1582 9.35292C13.1493 9.33956 13.1412 9.32574 13.1338 9.31152C12.935 8.92023 12.7379 8.52728 12.5404 8.13558C12.5367 8.12812 12.533 8.12233 12.5321 8.11446C12.5359 8.1186 12.5396 8.12233 12.5421 8.12605L12.9652 8.77282L13.2646 9.22829C13.275 9.24568 13.2865 9.2639 13.2932 9.28294C13.3491 9.41048 13.4029 9.53842 13.4571 9.66595C13.4609 9.67175 13.4634 9.67796 13.4671 9.68541L13.5358 9.65684L13.5284 9.63945C13.4766 9.51027 13.4261 9.38108 13.3735 9.25272C13.359 9.22001 13.3536 9.18605 13.3466 9.1521C13.3015 8.93637 13.258 8.72023 13.2128 8.50409C13.1685 8.29623 13.1263 8.09003 13.0828 7.88134C13.082 7.8801 13.0828 7.87844 13.0845 7.8743L13.1209 7.98486C13.2509 8.37532 13.3797 8.76661 13.5072 9.1579C13.518 9.18854 13.5217 9.22208 13.5263 9.25396C13.5416 9.36244 13.5569 9.47176 13.5743 9.58107C13.5772 9.60177 13.5785 9.62248 13.5826 9.64525L13.6546 9.63614V9.60881C13.6443 9.52227 13.6331 9.43532 13.6232 9.34919C13.617 9.29868 13.6124 9.24941 13.6054 9.20013C13.6012 9.167 13.6012 9.13348 13.6054 9.10034C13.6083 9.04403 13.6124 8.98813 13.6149 8.93223L13.6352 8.59477C13.6389 8.53432 13.6402 8.47304 13.6439 8.41259C13.6493 8.33391 13.6534 8.254 13.658 8.17491C13.6617 8.11694 13.6646 8.05856 13.6671 8.00101C13.6704 7.93269 13.6758 7.86478 13.6816 7.79688C13.6832 7.81551 13.684 7.83455 13.6849 7.85443C13.6907 7.93766 13.6948 8.02088 13.6998 8.10452L13.7213 8.4838L13.7341 8.69663C13.7408 8.81961 13.7466 8.943 13.7536 9.06598C13.7557 9.08461 13.7565 9.102 13.7578 9.12022C13.7631 9.16825 13.7536 9.21587 13.7495 9.26348L13.723 9.48045C13.7188 9.52145 13.7126 9.56244 13.7076 9.60384C13.7068 9.61378 13.7068 9.62455 13.7039 9.63655C13.7296 9.64028 13.7528 9.64277 13.7785 9.64608C13.7822 9.62827 13.7838 9.61171 13.7867 9.59432C13.8066 9.45975 13.8257 9.32518 13.8447 9.18978C13.8464 9.17984 13.8505 9.16949 13.853 9.15914C13.988 8.75419 14.1205 8.34882 14.2546 7.94304C14.2613 7.92441 14.2662 7.9066 14.2766 7.8888C14.2755 7.89824 14.2739 7.90764 14.272 7.91695C14.2116 8.21011 14.1486 8.50244 14.0886 8.79477C14.0617 8.93182 14.0331 9.06929 14.0045 9.20634C14.0025 9.2177 13.9989 9.22872 13.9938 9.23905L13.8339 9.63863C13.831 9.64442 13.829 9.65063 13.8261 9.65809C13.8509 9.66761 13.8712 9.67713 13.8952 9.68666L13.9047 9.66678L14.0716 9.27466C14.0782 9.26141 14.0832 9.24858 14.0919 9.23781L14.8144 8.13558C14.819 8.12978 14.8227 8.12398 14.8298 8.11984C14.8269 8.12564 14.8248 8.13144 14.8211 8.13723L14.2269 9.31731C14.2207 9.32849 14.2145 9.33967 14.207 9.34961C14.1209 9.4643 14.0343 9.579 13.9495 9.69287C13.9454 9.69939 13.9408 9.70562 13.9358 9.7115L13.9946 9.75746C13.9992 9.75253 14.0035 9.74727 14.0074 9.74173C14.0952 9.62993 14.1826 9.51772 14.2716 9.40592C14.2814 9.39334 14.2924 9.3817 14.3043 9.37114C14.6314 9.07881 14.9589 8.7869 15.2865 8.4954C15.2919 8.49084 15.2956 8.48629 15.3043 8.4838L15.2935 8.49705C15.1598 8.64819 15.026 8.79849 14.8902 8.9488C14.7287 9.12891 14.5693 9.30862 14.4091 9.48873C14.4008 9.49784 14.3909 9.50571 14.3822 9.51316L14.0455 9.77775L14.029 9.791C14.0447 9.81087 14.0588 9.82992 14.0753 9.8498L14.0931 9.83655L14.4381 9.57817C14.4469 9.5719 14.456 9.56609 14.4654 9.56078C14.8629 9.3612 15.2579 9.16245 15.6529 8.96288C15.6595 8.95998 15.6649 8.95749 15.672 8.95749C15.6537 8.9695 15.6368 8.98109 15.6185 8.99227C15.2612 9.22705 14.9039 9.46182 14.5453 9.69659C14.5354 9.70239 14.5262 9.70819 14.5155 9.71274C14.3834 9.76988 14.2501 9.82619 14.1192 9.88292L14.0981 9.8912C14.1093 9.91439 14.1172 9.93634 14.1271 9.95952L14.1461 9.95331C14.2791 9.90073 14.4111 9.84566 14.5453 9.79473C14.5784 9.78148 14.6149 9.77568 14.6509 9.76823L15.2608 9.64152C15.4504 9.6026 15.6384 9.56285 15.8285 9.52351C15.8459 9.51979 15.862 9.51606 15.8802 9.51275C15.8848 9.51275 15.8889 9.51192 15.8956 9.51441L15.8376 9.53345C15.433 9.66719 15.0297 9.80052 14.6252 9.93261C14.5946 9.94337 14.5606 9.94627 14.5287 9.95124C14.4381 9.96491 14.3486 9.97691 14.2604 9.98975C14.2281 9.9943 14.1962 9.99927 14.1639 10.0034L14.1403 10.0076C14.1428 10.032 14.1466 10.0548 14.1482 10.0813L14.2107 10.0746L14.4343 10.0481C14.4902 10.0411 14.5486 10.0332 14.607 10.0278C14.6331 10.0258 14.6596 10.0283 14.6865 10.0295C14.7432 10.032 14.7999 10.037 14.8592 10.0394L15.1937 10.0593C15.2434 10.0622 15.2931 10.0643 15.3444 10.0676L15.6856 10.0871C15.7664 10.092 15.8496 10.0957 15.9299 10.1007C15.9499 10.1019 15.9697 10.1037 15.9895 10.1061L15.9291 10.1111L15.6786 10.1247L15.3685 10.143L15.1345 10.1554C15.0269 10.162 14.9171 10.1682 14.8086 10.1752C14.749 10.1777 14.6877 10.1835 14.6277 10.1839C14.5933 10.1848 14.5573 10.1781 14.5238 10.1744C14.4502 10.1658 14.3766 10.157 14.3031 10.1479L14.1619 10.1309H14.1482C14.1466 10.155 14.1428 10.1786 14.1403 10.2038C14.2863 10.2254 14.4323 10.2465 14.5784 10.2672C14.6215 10.2726 14.6592 10.2895 14.6997 10.3024L15.8773 10.6912C15.885 10.6928 15.8922 10.696 15.8985 10.7007C15.8885 10.699 15.879 10.6974 15.8691 10.6966L14.8463 10.4833L14.5764 10.427C14.5677 10.4245 14.5561 10.4212 14.5465 10.4166C14.4136 10.3641 14.2803 10.3102 14.1466 10.2568L14.1288 10.2506C14.1191 10.2733 14.109 10.2958 14.0985 10.3181L14.1205 10.3285C14.2526 10.3848 14.3838 10.4407 14.5151 10.4974C14.5254 10.5019 14.5358 10.5073 14.5465 10.5148L15.6488 11.2369C15.6542 11.241 15.6612 11.246 15.6657 11.2539C15.6604 11.2506 15.6542 11.2485 15.6496 11.2452L15.0753 10.957C14.8749 10.8551 14.6728 10.7541 14.4704 10.6522C14.4574 10.6459 14.4453 10.6379 14.4343 10.6286C14.3205 10.5438 14.2054 10.4585 14.0915 10.3728C14.0864 10.3685 14.081 10.3646 14.0753 10.3612C14.0596 10.3802 14.0455 10.3988 14.029 10.4187L14.0447 10.4311C14.1557 10.5197 14.2687 10.6084 14.3801 10.6966C14.3928 10.7056 14.4043 10.7162 14.4145 10.728L15.2919 11.7098C15.2954 11.7147 15.2982 11.7201 15.3001 11.7259C15.2956 11.7209 15.2894 11.7176 15.2848 11.7139C14.9556 11.4195 14.626 11.1268 14.296 10.8328C14.2885 10.8261 14.2819 10.8186 14.2762 10.8104L14.0078 10.4684C14.0041 10.463 13.9996 10.4581 13.995 10.4527C13.976 10.4684 13.9573 10.4825 13.9383 10.499C13.9399 10.504 13.9437 10.5094 13.947 10.5144L14.2074 10.8614C14.2149 10.8715 14.2215 10.8821 14.2273 10.8932C14.4248 11.2849 14.6219 11.6775 14.819 12.0696C14.8222 12.0749 14.8243 12.0808 14.8252 12.087H14.824V12.0837Z" fill="#010088"/>
<path fill-rule="evenodd" clip-rule="evenodd" d="M14.8242 12.0859C14.8282 12.0899 14.8306 12.0943 14.8338 12.0979C14.8318 12.0987 14.8318 12.0999 14.8294 12.1003C14.8286 12.0947 14.8258 12.0911 14.825 12.0859H14.8242Z" fill="#010088"/>
</svg>
