<svg width="100" height="107" viewBox="0 0 100 107" fill="none" xmlns="http://www.w3.org/2000/svg">
<g filter="url(#filter0_bd_594_16156)">
<mask id="path-1-outside-1_594_16156" maskUnits="userSpaceOnUse" x="20" y="11" width="60" height="78" fill="black">
<rect fill="white" x="20" y="11" width="60" height="78"/>
<path fill-rule="evenodd" clip-rule="evenodd" d="M30.201 14.7844C29.332 15.5429 28.6611 16.7856 28.4933 17.9479C28.4079 18.5393 28.4118 18.987 28.5083 19.6216C28.5645 19.9918 28.7216 20.3384 29.9231 22.7424C30.6664 24.2297 31.2916 25.5135 31.3124 25.5951C31.3421 25.7114 31.25 25.8356 30.8881 26.1674C30.3445 26.6657 29.8315 27.288 29.4143 27.9546C29.0258 28.5756 21.8682 44.2032 21.5698 45.0822C21.16 46.2891 20.9651 47.5306 21.0051 48.6799C21.0374 49.6082 21.3094 50.9092 21.6635 51.8296C21.7437 52.0382 21.8337 52.3964 21.8634 52.6258C21.8931 52.8551 21.9742 53.4911 22.0435 54.0391C22.1127 54.5871 22.2118 55.3626 22.2636 55.7624C22.3154 56.1623 22.3995 56.8353 22.4505 57.2579C22.5016 57.6806 22.5711 58.2141 22.6051 58.4437C22.639 58.6732 22.7087 59.2067 22.7599 59.6292C22.9441 61.1479 23.1219 62.5389 23.1856 62.961C23.2013 63.0651 23.2558 63.4963 23.3067 63.919C23.3575 64.3417 23.4222 64.8778 23.4503 65.1102C23.4784 65.3427 23.529 65.7207 23.5627 65.9504C23.5964 66.18 23.6657 66.7137 23.7168 67.1363C23.7678 67.559 23.8526 68.2316 23.9053 68.631C23.9579 69.0305 24.0568 69.806 24.1252 70.3545C24.1935 70.9029 24.3186 71.8854 24.4032 72.5378C24.6003 74.057 24.6898 74.7659 24.8051 75.7185C24.8563 76.141 24.9258 76.6746 24.9598 76.9041C24.9937 77.1336 25.0633 77.6672 25.1145 78.0898C25.6409 82.4405 25.7684 83.0212 26.3894 83.8964C26.5749 84.1577 26.8424 84.4952 26.9838 84.6462C27.6014 85.3054 28.6558 85.893 29.6123 86.1107C30.2361 86.2527 30.8668 86.2619 31.8068 86.1427C32.2437 86.0873 33.0179 85.9921 33.5272 85.9309C34.0366 85.8698 35.0073 85.75 35.6844 85.6645C36.3615 85.579 37.2619 85.4656 37.6852 85.4125C38.1085 85.3594 38.5091 85.3399 38.5752 85.3694C38.6414 85.3988 38.8114 85.6004 38.9528 85.8175C39.4234 86.5394 40.243 87.1929 41.1829 87.5958C42.1382 88.0052 43.2946 88.1098 44.3394 87.8812C44.9162 87.755 45.0743 87.6773 60.8423 79.7638C77.5676 71.3699 76.9591 71.6876 77.6111 71.0103C78.2314 70.3659 78.7844 69.2444 78.9391 68.3167C79.0217 67.8212 79.0202 67.1491 78.9349 66.5333C78.8789 66.1289 78.6998 65.7663 73.8372 56.2136L68.9335 46.5802C68.6269 45.978 67.8017 45.8038 67.1684 45.9692C66.7966 46.0664 66.3801 46.3469 66.1622 46.6468C65.9751 46.9046 65.8582 47.2927 65.8608 47.6472C65.8614 47.7287 65.8797 47.8236 66.0116 48.1276C66.3444 48.8948 67.4006 50.9942 70.7214 57.573C75.2276 66.5001 75.5804 67.219 75.5882 67.4908C75.6005 67.9282 75.3427 68.4754 74.9914 68.7573C74.7786 68.928 70.2365 71.2252 59.0585 76.8152C43.888 84.4019 43.4157 84.6335 43.1684 84.609C42.7557 84.568 42.3866 84.4417 42.1224 84.251C41.8812 84.0767 41.6731 83.6752 33.2846 67.196C25.8043 52.5008 24.673 50.2474 24.5323 49.7617C24.2242 48.6987 24.2409 47.857 24.5918 46.7721C24.7089 46.4098 24.9537 45.7865 25.1357 45.387C25.5867 44.397 25.6421 44.2762 26.7043 41.9626C27.2169 40.8461 27.6945 39.8053 27.7659 39.6498C31.5524 31.39 32.3214 29.7544 32.5882 29.3928C32.7573 29.1635 32.9373 28.9795 32.9883 28.9839C33.0524 28.9895 33.5471 29.9079 34.5988 31.9741L36.1169 34.9563L35.7552 35.4251C35.0983 36.277 34.6982 37.4634 34.6976 38.5618C34.6971 39.3495 34.879 40.0737 35.2703 40.8425C35.617 41.5236 35.926 41.9171 36.5101 42.4211C37.0194 42.8607 37.5344 43.1467 38.2351 43.3794C39.0566 43.6521 39.8277 43.7123 40.7927 43.579C41.3115 43.5073 42.5691 42.9395 43.0427 42.563C43.5607 42.1514 43.9962 41.644 44.3126 41.0832C44.6338 40.5144 44.8737 39.767 44.9492 39.1007C45.0768 37.9752 44.8673 36.9318 44.3299 36.0162C44.146 35.7028 43.8629 35.3005 43.7008 35.1221C43.2727 34.6509 42.5161 34.1097 41.9143 33.8444C41.3009 33.574 40.4173 33.4014 39.6946 33.4109L39.1823 33.4176L37.6644 30.4358C36.7213 28.5829 36.163 27.4271 36.1899 27.3834C36.2526 27.2814 36.8387 27.2759 37.4589 27.3713C38.349 27.5083 54.8202 30.9824 55.3504 31.1449C56.4656 31.4869 57.2008 31.9551 57.919 32.7808C58.1533 33.0502 58.5721 33.8018 59.9241 36.3797C61.4347 39.2601 61.6593 39.6581 61.8594 39.8099C61.9838 39.9043 62.1468 40.0074 62.2216 40.039C62.5233 40.1663 63.0052 40.198 63.3552 40.1136C63.6429 40.0441 63.7879 39.9706 64.0061 39.7836C64.5742 39.2967 64.8571 38.5719 64.5216 37.9132L61.294 31.5766L60.7313 30.9139C59.4213 29.3711 57.9058 28.3928 55.8714 27.7768C55.4256 27.6418 53.2153 27.1429 50.9599 26.6682L46.8589 25.8051L43.8086 19.8647C40.7796 13.966 40.7558 13.9219 40.4122 13.593C39.295 12.5234 38.0373 12.0043 36.5528 12C36.3512 11.9994 36.0832 12.016 35.9574 12.0369C35.1126 12.1769 34.9073 12.2606 32.7686 13.3375C30.875 14.2911 30.5679 14.4642 30.201 14.7844ZM36.7039 15.4073C37.0991 15.4168 37.5341 15.6032 37.8435 15.8957C38.0118 16.0547 38.5048 16.978 40.2617 20.4237C41.4754 22.8043 42.4513 24.7798 42.4305 24.814C42.4095 24.848 41.5162 24.6919 40.4452 24.4672C39.3744 24.2424 38.289 24.0213 38.0334 23.9758C37.403 23.8637 36.233 23.873 35.4511 23.9963C35.0967 24.0522 34.7269 24.107 34.6292 24.1181L34.4518 24.1382L33.1406 21.5154C31.9465 19.1267 31.8306 18.8686 31.8411 18.6241C31.857 18.2523 32.1097 17.6807 32.3559 17.4593C32.4757 17.3516 33.3545 16.8826 34.459 16.3367C36.2879 15.4329 36.369 15.3993 36.7039 15.4073ZM39.5213 36.8501C39.7747 36.7936 39.9992 36.8168 40.3676 36.9376C40.7629 37.067 40.9235 37.1657 41.1265 37.4036C41.4209 37.7486 41.5665 38.1361 41.5644 38.5685C41.5628 38.8831 41.4797 39.1423 41.2614 39.5129C41.1589 39.6871 41.0139 39.7946 40.6074 39.9976C40.0402 40.281 39.7894 40.3107 39.3051 40.152C38.8289 39.996 38.6362 39.8188 38.3668 39.289C38.1748 38.9113 38.1206 38.7245 38.1253 38.4568C38.1346 37.9354 38.5472 37.2739 39.0289 37.0082C39.1101 36.9635 39.3316 36.8923 39.5213 36.8501ZM31.7467 71.8963C34.5701 77.4429 36.8706 82.0098 36.8589 82.0451C36.8473 82.0805 36.7931 82.1007 36.7385 82.0901C36.6839 82.0796 36.5725 82.0844 36.4908 82.1008C36.4091 82.1173 35.8908 82.185 35.3391 82.2514C34.7874 82.3177 34.2506 82.3852 34.1463 82.4015C34.0419 82.4176 33.6086 82.4713 33.1834 82.5208C32.7582 82.5701 32.2558 82.6328 32.0669 82.66C31.1641 82.7901 30.6156 82.8297 30.3508 82.784C30.1915 82.7565 29.9196 82.6432 29.7467 82.5322C29.498 82.3726 29.3889 82.2448 29.2245 81.9208C29.1103 81.6954 28.9981 81.3554 28.9754 81.1652C28.9526 80.9749 28.891 80.4923 28.8386 80.0928C28.7861 79.6933 28.7014 79.0206 28.6504 78.5979C28.5993 78.1753 28.5298 77.6417 28.4958 77.4122C28.4619 77.1826 28.3922 76.6491 28.341 76.2266C28.1869 74.956 28.1479 74.6464 28.0468 73.8884C27.9936 73.4892 27.9245 72.9554 27.8934 72.7021C27.8621 72.4488 27.7945 71.9143 27.743 71.5142C27.6915 71.1142 27.5931 70.3384 27.5243 69.7902C27.4554 69.242 27.3305 68.2594 27.2465 67.6068C27.0721 66.2515 26.9214 65.0648 26.721 63.4693C26.6442 62.8579 26.5642 62.2471 26.5431 62.112C26.522 61.9768 26.5292 61.854 26.5591 61.8391C26.589 61.8241 28.9234 66.3499 31.7467 71.8963ZM45.0373 72.4281C44.618 72.8541 44.3998 73.455 44.4944 73.9238C44.6375 74.6326 45.0362 75.1018 45.6709 75.3083C46.6289 75.6199 47.471 75.1853 47.7921 74.2136C47.9239 73.815 47.9358 73.6437 47.8553 73.3098C47.7758 72.9804 47.7087 72.8437 47.5203 72.6279C47.1391 72.1911 46.6597 71.981 46.0888 72.0003C45.7853 72.0106 45.2232 72.2392 45.0373 72.4281ZM49.4 70.3323C49.1224 70.6501 48.9625 71.0906 48.9769 71.4974C48.991 71.8944 49.286 72.5004 49.5916 72.7605C49.9203 73.0402 50.3857 73.1735 50.8555 73.1224C51.2604 73.0784 51.4324 72.9958 58.4727 69.4638C65.5736 65.9014 65.6797 65.8458 65.9651 65.538C66.261 65.2189 66.4206 64.7983 66.4246 64.3277C66.4258 64.1776 66.3397 63.9037 66.2077 63.6383C65.9609 63.1418 65.6469 62.8661 65.1958 62.7494C64.5636 62.5859 65.1564 62.3224 57.0597 66.3663C50.1634 69.8108 49.601 70.102 49.4 70.3323Z"/>
</mask>
<path fill-rule="evenodd" clip-rule="evenodd" d="M30.201 14.7844C29.332 15.5429 28.6611 16.7856 28.4933 17.9479C28.4079 18.5393 28.4118 18.987 28.5083 19.6216C28.5645 19.9918 28.7216 20.3384 29.9231 22.7424C30.6664 24.2297 31.2916 25.5135 31.3124 25.5951C31.3421 25.7114 31.25 25.8356 30.8881 26.1674C30.3445 26.6657 29.8315 27.288 29.4143 27.9546C29.0258 28.5756 21.8682 44.2032 21.5698 45.0822C21.16 46.2891 20.9651 47.5306 21.0051 48.6799C21.0374 49.6082 21.3094 50.9092 21.6635 51.8296C21.7437 52.0382 21.8337 52.3964 21.8634 52.6258C21.8931 52.8551 21.9742 53.4911 22.0435 54.0391C22.1127 54.5871 22.2118 55.3626 22.2636 55.7624C22.3154 56.1623 22.3995 56.8353 22.4505 57.2579C22.5016 57.6806 22.5711 58.2141 22.6051 58.4437C22.639 58.6732 22.7087 59.2067 22.7599 59.6292C22.9441 61.1479 23.1219 62.5389 23.1856 62.961C23.2013 63.0651 23.2558 63.4963 23.3067 63.919C23.3575 64.3417 23.4222 64.8778 23.4503 65.1102C23.4784 65.3427 23.529 65.7207 23.5627 65.9504C23.5964 66.18 23.6657 66.7137 23.7168 67.1363C23.7678 67.559 23.8526 68.2316 23.9053 68.631C23.9579 69.0305 24.0568 69.806 24.1252 70.3545C24.1935 70.9029 24.3186 71.8854 24.4032 72.5378C24.6003 74.057 24.6898 74.7659 24.8051 75.7185C24.8563 76.141 24.9258 76.6746 24.9598 76.9041C24.9937 77.1336 25.0633 77.6672 25.1145 78.0898C25.6409 82.4405 25.7684 83.0212 26.3894 83.8964C26.5749 84.1577 26.8424 84.4952 26.9838 84.6462C27.6014 85.3054 28.6558 85.893 29.6123 86.1107C30.2361 86.2527 30.8668 86.2619 31.8068 86.1427C32.2437 86.0873 33.0179 85.9921 33.5272 85.9309C34.0366 85.8698 35.0073 85.75 35.6844 85.6645C36.3615 85.579 37.2619 85.4656 37.6852 85.4125C38.1085 85.3594 38.5091 85.3399 38.5752 85.3694C38.6414 85.3988 38.8114 85.6004 38.9528 85.8175C39.4234 86.5394 40.243 87.1929 41.1829 87.5958C42.1382 88.0052 43.2946 88.1098 44.3394 87.8812C44.9162 87.755 45.0743 87.6773 60.8423 79.7638C77.5676 71.3699 76.9591 71.6876 77.6111 71.0103C78.2314 70.3659 78.7844 69.2444 78.9391 68.3167C79.0217 67.8212 79.0202 67.1491 78.9349 66.5333C78.8789 66.1289 78.6998 65.7663 73.8372 56.2136L68.9335 46.5802C68.6269 45.978 67.8017 45.8038 67.1684 45.9692C66.7966 46.0664 66.3801 46.3469 66.1622 46.6468C65.9751 46.9046 65.8582 47.2927 65.8608 47.6472C65.8614 47.7287 65.8797 47.8236 66.0116 48.1276C66.3444 48.8948 67.4006 50.9942 70.7214 57.573C75.2276 66.5001 75.5804 67.219 75.5882 67.4908C75.6005 67.9282 75.3427 68.4754 74.9914 68.7573C74.7786 68.928 70.2365 71.2252 59.0585 76.8152C43.888 84.4019 43.4157 84.6335 43.1684 84.609C42.7557 84.568 42.3866 84.4417 42.1224 84.251C41.8812 84.0767 41.6731 83.6752 33.2846 67.196C25.8043 52.5008 24.673 50.2474 24.5323 49.7617C24.2242 48.6987 24.2409 47.857 24.5918 46.7721C24.7089 46.4098 24.9537 45.7865 25.1357 45.387C25.5867 44.397 25.6421 44.2762 26.7043 41.9626C27.2169 40.8461 27.6945 39.8053 27.7659 39.6498C31.5524 31.39 32.3214 29.7544 32.5882 29.3928C32.7573 29.1635 32.9373 28.9795 32.9883 28.9839C33.0524 28.9895 33.5471 29.9079 34.5988 31.9741L36.1169 34.9563L35.7552 35.4251C35.0983 36.277 34.6982 37.4634 34.6976 38.5618C34.6971 39.3495 34.879 40.0737 35.2703 40.8425C35.617 41.5236 35.926 41.9171 36.5101 42.4211C37.0194 42.8607 37.5344 43.1467 38.2351 43.3794C39.0566 43.6521 39.8277 43.7123 40.7927 43.579C41.3115 43.5073 42.5691 42.9395 43.0427 42.563C43.5607 42.1514 43.9962 41.644 44.3126 41.0832C44.6338 40.5144 44.8737 39.767 44.9492 39.1007C45.0768 37.9752 44.8673 36.9318 44.3299 36.0162C44.146 35.7028 43.8629 35.3005 43.7008 35.1221C43.2727 34.6509 42.5161 34.1097 41.9143 33.8444C41.3009 33.574 40.4173 33.4014 39.6946 33.4109L39.1823 33.4176L37.6644 30.4358C36.7213 28.5829 36.163 27.4271 36.1899 27.3834C36.2526 27.2814 36.8387 27.2759 37.4589 27.3713C38.349 27.5083 54.8202 30.9824 55.3504 31.1449C56.4656 31.4869 57.2008 31.9551 57.919 32.7808C58.1533 33.0502 58.5721 33.8018 59.9241 36.3797C61.4347 39.2601 61.6593 39.6581 61.8594 39.8099C61.9838 39.9043 62.1468 40.0074 62.2216 40.039C62.5233 40.1663 63.0052 40.198 63.3552 40.1136C63.6429 40.0441 63.7879 39.9706 64.0061 39.7836C64.5742 39.2967 64.8571 38.5719 64.5216 37.9132L61.294 31.5766L60.7313 30.9139C59.4213 29.3711 57.9058 28.3928 55.8714 27.7768C55.4256 27.6418 53.2153 27.1429 50.9599 26.6682L46.8589 25.8051L43.8086 19.8647C40.7796 13.966 40.7558 13.9219 40.4122 13.593C39.295 12.5234 38.0373 12.0043 36.5528 12C36.3512 11.9994 36.0832 12.016 35.9574 12.0369C35.1126 12.1769 34.9073 12.2606 32.7686 13.3375C30.875 14.2911 30.5679 14.4642 30.201 14.7844ZM36.7039 15.4073C37.0991 15.4168 37.5341 15.6032 37.8435 15.8957C38.0118 16.0547 38.5048 16.978 40.2617 20.4237C41.4754 22.8043 42.4513 24.7798 42.4305 24.814C42.4095 24.848 41.5162 24.6919 40.4452 24.4672C39.3744 24.2424 38.289 24.0213 38.0334 23.9758C37.403 23.8637 36.233 23.873 35.4511 23.9963C35.0967 24.0522 34.7269 24.107 34.6292 24.1181L34.4518 24.1382L33.1406 21.5154C31.9465 19.1267 31.8306 18.8686 31.8411 18.6241C31.857 18.2523 32.1097 17.6807 32.3559 17.4593C32.4757 17.3516 33.3545 16.8826 34.459 16.3367C36.2879 15.4329 36.369 15.3993 36.7039 15.4073ZM39.5213 36.8501C39.7747 36.7936 39.9992 36.8168 40.3676 36.9376C40.7629 37.067 40.9235 37.1657 41.1265 37.4036C41.4209 37.7486 41.5665 38.1361 41.5644 38.5685C41.5628 38.8831 41.4797 39.1423 41.2614 39.5129C41.1589 39.6871 41.0139 39.7946 40.6074 39.9976C40.0402 40.281 39.7894 40.3107 39.3051 40.152C38.8289 39.996 38.6362 39.8188 38.3668 39.289C38.1748 38.9113 38.1206 38.7245 38.1253 38.4568C38.1346 37.9354 38.5472 37.2739 39.0289 37.0082C39.1101 36.9635 39.3316 36.8923 39.5213 36.8501ZM31.7467 71.8963C34.5701 77.4429 36.8706 82.0098 36.8589 82.0451C36.8473 82.0805 36.7931 82.1007 36.7385 82.0901C36.6839 82.0796 36.5725 82.0844 36.4908 82.1008C36.4091 82.1173 35.8908 82.185 35.3391 82.2514C34.7874 82.3177 34.2506 82.3852 34.1463 82.4015C34.0419 82.4176 33.6086 82.4713 33.1834 82.5208C32.7582 82.5701 32.2558 82.6328 32.0669 82.66C31.1641 82.7901 30.6156 82.8297 30.3508 82.784C30.1915 82.7565 29.9196 82.6432 29.7467 82.5322C29.498 82.3726 29.3889 82.2448 29.2245 81.9208C29.1103 81.6954 28.9981 81.3554 28.9754 81.1652C28.9526 80.9749 28.891 80.4923 28.8386 80.0928C28.7861 79.6933 28.7014 79.0206 28.6504 78.5979C28.5993 78.1753 28.5298 77.6417 28.4958 77.4122C28.4619 77.1826 28.3922 76.6491 28.341 76.2266C28.1869 74.956 28.1479 74.6464 28.0468 73.8884C27.9936 73.4892 27.9245 72.9554 27.8934 72.7021C27.8621 72.4488 27.7945 71.9143 27.743 71.5142C27.6915 71.1142 27.5931 70.3384 27.5243 69.7902C27.4554 69.242 27.3305 68.2594 27.2465 67.6068C27.0721 66.2515 26.9214 65.0648 26.721 63.4693C26.6442 62.8579 26.5642 62.2471 26.5431 62.112C26.522 61.9768 26.5292 61.854 26.5591 61.8391C26.589 61.8241 28.9234 66.3499 31.7467 71.8963ZM45.0373 72.4281C44.618 72.8541 44.3998 73.455 44.4944 73.9238C44.6375 74.6326 45.0362 75.1018 45.6709 75.3083C46.6289 75.6199 47.471 75.1853 47.7921 74.2136C47.9239 73.815 47.9358 73.6437 47.8553 73.3098C47.7758 72.9804 47.7087 72.8437 47.5203 72.6279C47.1391 72.1911 46.6597 71.981 46.0888 72.0003C45.7853 72.0106 45.2232 72.2392 45.0373 72.4281ZM49.4 70.3323C49.1224 70.6501 48.9625 71.0906 48.9769 71.4974C48.991 71.8944 49.286 72.5004 49.5916 72.7605C49.9203 73.0402 50.3857 73.1735 50.8555 73.1224C51.2604 73.0784 51.4324 72.9958 58.4727 69.4638C65.5736 65.9014 65.6797 65.8458 65.9651 65.538C66.261 65.2189 66.4206 64.7983 66.4246 64.3277C66.4258 64.1776 66.3397 63.9037 66.2077 63.6383C65.9609 63.1418 65.6469 62.8661 65.1958 62.7494C64.5636 62.5859 65.1564 62.3224 57.0597 66.3663C50.1634 69.8108 49.601 70.102 49.4 70.3323Z" fill="url(#paint0_linear_594_16156)" fill-opacity="0.45" shape-rendering="crispEdges"/>
<path fill-rule="evenodd" clip-rule="evenodd" d="M30.201 14.7844C29.332 15.5429 28.6611 16.7856 28.4933 17.9479C28.4079 18.5393 28.4118 18.987 28.5083 19.6216C28.5645 19.9918 28.7216 20.3384 29.9231 22.7424C30.6664 24.2297 31.2916 25.5135 31.3124 25.5951C31.3421 25.7114 31.25 25.8356 30.8881 26.1674C30.3445 26.6657 29.8315 27.288 29.4143 27.9546C29.0258 28.5756 21.8682 44.2032 21.5698 45.0822C21.16 46.2891 20.9651 47.5306 21.0051 48.6799C21.0374 49.6082 21.3094 50.9092 21.6635 51.8296C21.7437 52.0382 21.8337 52.3964 21.8634 52.6258C21.8931 52.8551 21.9742 53.4911 22.0435 54.0391C22.1127 54.5871 22.2118 55.3626 22.2636 55.7624C22.3154 56.1623 22.3995 56.8353 22.4505 57.2579C22.5016 57.6806 22.5711 58.2141 22.6051 58.4437C22.639 58.6732 22.7087 59.2067 22.7599 59.6292C22.9441 61.1479 23.1219 62.5389 23.1856 62.961C23.2013 63.0651 23.2558 63.4963 23.3067 63.919C23.3575 64.3417 23.4222 64.8778 23.4503 65.1102C23.4784 65.3427 23.529 65.7207 23.5627 65.9504C23.5964 66.18 23.6657 66.7137 23.7168 67.1363C23.7678 67.559 23.8526 68.2316 23.9053 68.631C23.9579 69.0305 24.0568 69.806 24.1252 70.3545C24.1935 70.9029 24.3186 71.8854 24.4032 72.5378C24.6003 74.057 24.6898 74.7659 24.8051 75.7185C24.8563 76.141 24.9258 76.6746 24.9598 76.9041C24.9937 77.1336 25.0633 77.6672 25.1145 78.0898C25.6409 82.4405 25.7684 83.0212 26.3894 83.8964C26.5749 84.1577 26.8424 84.4952 26.9838 84.6462C27.6014 85.3054 28.6558 85.893 29.6123 86.1107C30.2361 86.2527 30.8668 86.2619 31.8068 86.1427C32.2437 86.0873 33.0179 85.9921 33.5272 85.9309C34.0366 85.8698 35.0073 85.75 35.6844 85.6645C36.3615 85.579 37.2619 85.4656 37.6852 85.4125C38.1085 85.3594 38.5091 85.3399 38.5752 85.3694C38.6414 85.3988 38.8114 85.6004 38.9528 85.8175C39.4234 86.5394 40.243 87.1929 41.1829 87.5958C42.1382 88.0052 43.2946 88.1098 44.3394 87.8812C44.9162 87.755 45.0743 87.6773 60.8423 79.7638C77.5676 71.3699 76.9591 71.6876 77.6111 71.0103C78.2314 70.3659 78.7844 69.2444 78.9391 68.3167C79.0217 67.8212 79.0202 67.1491 78.9349 66.5333C78.8789 66.1289 78.6998 65.7663 73.8372 56.2136L68.9335 46.5802C68.6269 45.978 67.8017 45.8038 67.1684 45.9692C66.7966 46.0664 66.3801 46.3469 66.1622 46.6468C65.9751 46.9046 65.8582 47.2927 65.8608 47.6472C65.8614 47.7287 65.8797 47.8236 66.0116 48.1276C66.3444 48.8948 67.4006 50.9942 70.7214 57.573C75.2276 66.5001 75.5804 67.219 75.5882 67.4908C75.6005 67.9282 75.3427 68.4754 74.9914 68.7573C74.7786 68.928 70.2365 71.2252 59.0585 76.8152C43.888 84.4019 43.4157 84.6335 43.1684 84.609C42.7557 84.568 42.3866 84.4417 42.1224 84.251C41.8812 84.0767 41.6731 83.6752 33.2846 67.196C25.8043 52.5008 24.673 50.2474 24.5323 49.7617C24.2242 48.6987 24.2409 47.857 24.5918 46.7721C24.7089 46.4098 24.9537 45.7865 25.1357 45.387C25.5867 44.397 25.6421 44.2762 26.7043 41.9626C27.2169 40.8461 27.6945 39.8053 27.7659 39.6498C31.5524 31.39 32.3214 29.7544 32.5882 29.3928C32.7573 29.1635 32.9373 28.9795 32.9883 28.9839C33.0524 28.9895 33.5471 29.9079 34.5988 31.9741L36.1169 34.9563L35.7552 35.4251C35.0983 36.277 34.6982 37.4634 34.6976 38.5618C34.6971 39.3495 34.879 40.0737 35.2703 40.8425C35.617 41.5236 35.926 41.9171 36.5101 42.4211C37.0194 42.8607 37.5344 43.1467 38.2351 43.3794C39.0566 43.6521 39.8277 43.7123 40.7927 43.579C41.3115 43.5073 42.5691 42.9395 43.0427 42.563C43.5607 42.1514 43.9962 41.644 44.3126 41.0832C44.6338 40.5144 44.8737 39.767 44.9492 39.1007C45.0768 37.9752 44.8673 36.9318 44.3299 36.0162C44.146 35.7028 43.8629 35.3005 43.7008 35.1221C43.2727 34.6509 42.5161 34.1097 41.9143 33.8444C41.3009 33.574 40.4173 33.4014 39.6946 33.4109L39.1823 33.4176L37.6644 30.4358C36.7213 28.5829 36.163 27.4271 36.1899 27.3834C36.2526 27.2814 36.8387 27.2759 37.4589 27.3713C38.349 27.5083 54.8202 30.9824 55.3504 31.1449C56.4656 31.4869 57.2008 31.9551 57.919 32.7808C58.1533 33.0502 58.5721 33.8018 59.9241 36.3797C61.4347 39.2601 61.6593 39.6581 61.8594 39.8099C61.9838 39.9043 62.1468 40.0074 62.2216 40.039C62.5233 40.1663 63.0052 40.198 63.3552 40.1136C63.6429 40.0441 63.7879 39.9706 64.0061 39.7836C64.5742 39.2967 64.8571 38.5719 64.5216 37.9132L61.294 31.5766L60.7313 30.9139C59.4213 29.3711 57.9058 28.3928 55.8714 27.7768C55.4256 27.6418 53.2153 27.1429 50.9599 26.6682L46.8589 25.8051L43.8086 19.8647C40.7796 13.966 40.7558 13.9219 40.4122 13.593C39.295 12.5234 38.0373 12.0043 36.5528 12C36.3512 11.9994 36.0832 12.016 35.9574 12.0369C35.1126 12.1769 34.9073 12.2606 32.7686 13.3375C30.875 14.2911 30.5679 14.4642 30.201 14.7844ZM36.7039 15.4073C37.0991 15.4168 37.5341 15.6032 37.8435 15.8957C38.0118 16.0547 38.5048 16.978 40.2617 20.4237C41.4754 22.8043 42.4513 24.7798 42.4305 24.814C42.4095 24.848 41.5162 24.6919 40.4452 24.4672C39.3744 24.2424 38.289 24.0213 38.0334 23.9758C37.403 23.8637 36.233 23.873 35.4511 23.9963C35.0967 24.0522 34.7269 24.107 34.6292 24.1181L34.4518 24.1382L33.1406 21.5154C31.9465 19.1267 31.8306 18.8686 31.8411 18.6241C31.857 18.2523 32.1097 17.6807 32.3559 17.4593C32.4757 17.3516 33.3545 16.8826 34.459 16.3367C36.2879 15.4329 36.369 15.3993 36.7039 15.4073ZM39.5213 36.8501C39.7747 36.7936 39.9992 36.8168 40.3676 36.9376C40.7629 37.067 40.9235 37.1657 41.1265 37.4036C41.4209 37.7486 41.5665 38.1361 41.5644 38.5685C41.5628 38.8831 41.4797 39.1423 41.2614 39.5129C41.1589 39.6871 41.0139 39.7946 40.6074 39.9976C40.0402 40.281 39.7894 40.3107 39.3051 40.152C38.8289 39.996 38.6362 39.8188 38.3668 39.289C38.1748 38.9113 38.1206 38.7245 38.1253 38.4568C38.1346 37.9354 38.5472 37.2739 39.0289 37.0082C39.1101 36.9635 39.3316 36.8923 39.5213 36.8501ZM31.7467 71.8963C34.5701 77.4429 36.8706 82.0098 36.8589 82.0451C36.8473 82.0805 36.7931 82.1007 36.7385 82.0901C36.6839 82.0796 36.5725 82.0844 36.4908 82.1008C36.4091 82.1173 35.8908 82.185 35.3391 82.2514C34.7874 82.3177 34.2506 82.3852 34.1463 82.4015C34.0419 82.4176 33.6086 82.4713 33.1834 82.5208C32.7582 82.5701 32.2558 82.6328 32.0669 82.66C31.1641 82.7901 30.6156 82.8297 30.3508 82.784C30.1915 82.7565 29.9196 82.6432 29.7467 82.5322C29.498 82.3726 29.3889 82.2448 29.2245 81.9208C29.1103 81.6954 28.9981 81.3554 28.9754 81.1652C28.9526 80.9749 28.891 80.4923 28.8386 80.0928C28.7861 79.6933 28.7014 79.0206 28.6504 78.5979C28.5993 78.1753 28.5298 77.6417 28.4958 77.4122C28.4619 77.1826 28.3922 76.6491 28.341 76.2266C28.1869 74.956 28.1479 74.6464 28.0468 73.8884C27.9936 73.4892 27.9245 72.9554 27.8934 72.7021C27.8621 72.4488 27.7945 71.9143 27.743 71.5142C27.6915 71.1142 27.5931 70.3384 27.5243 69.7902C27.4554 69.242 27.3305 68.2594 27.2465 67.6068C27.0721 66.2515 26.9214 65.0648 26.721 63.4693C26.6442 62.8579 26.5642 62.2471 26.5431 62.112C26.522 61.9768 26.5292 61.854 26.5591 61.8391C26.589 61.8241 28.9234 66.3499 31.7467 71.8963ZM45.0373 72.4281C44.618 72.8541 44.3998 73.455 44.4944 73.9238C44.6375 74.6326 45.0362 75.1018 45.6709 75.3083C46.6289 75.6199 47.471 75.1853 47.7921 74.2136C47.9239 73.815 47.9358 73.6437 47.8553 73.3098C47.7758 72.9804 47.7087 72.8437 47.5203 72.6279C47.1391 72.1911 46.6597 71.981 46.0888 72.0003C45.7853 72.0106 45.2232 72.2392 45.0373 72.4281ZM49.4 70.3323C49.1224 70.6501 48.9625 71.0906 48.9769 71.4974C48.991 71.8944 49.286 72.5004 49.5916 72.7605C49.9203 73.0402 50.3857 73.1735 50.8555 73.1224C51.2604 73.0784 51.4324 72.9958 58.4727 69.4638C65.5736 65.9014 65.6797 65.8458 65.9651 65.538C66.261 65.2189 66.4206 64.7983 66.4246 64.3277C66.4258 64.1776 66.3397 63.9037 66.2077 63.6383C65.9609 63.1418 65.6469 62.8661 65.1958 62.7494C64.5636 62.5859 65.1564 62.3224 57.0597 66.3663C50.1634 69.8108 49.601 70.102 49.4 70.3323Z" stroke="url(#paint1_linear_594_16156)" stroke-width="0.77729" shape-rendering="crispEdges" mask="url(#path-1-outside-1_594_16156)"/>
</g>
<defs>
<filter id="filter0_bd_594_16156" x="6.03713" y="0.923586" width="87.9257" height="105.926" filterUnits="userSpaceOnUse" color-interpolation-filters="sRGB">
<feFlood flood-opacity="0" result="BackgroundImageFix"/>
<feGaussianBlur in="BackgroundImageFix" stdDeviation="1.11756"/>
<feComposite in2="SourceAlpha" operator="in" result="effect1_backgroundBlur_594_16156"/>
<feColorMatrix in="SourceAlpha" type="matrix" values="0 0 0 0 0 0 0 0 0 0 0 0 0 0 0 0 0 0 127 0" result="hardAlpha"/>
<feOffset dy="3.88645"/>
<feGaussianBlur stdDeviation="7.2871"/>
<feComposite in2="hardAlpha" operator="out"/>
<feColorMatrix type="matrix" values="0 0 0 0 0 0 0 0 0 0 0 0 0 0 0 0 0 0 0.25 0"/>
<feBlend mode="normal" in2="effect1_backgroundBlur_594_16156" result="effect2_dropShadow_594_16156"/>
<feBlend mode="normal" in="SourceGraphic" in2="effect2_dropShadow_594_16156" result="shape"/>
</filter>
<linearGradient id="paint0_linear_594_16156" x1="21" y1="97.6145" x2="90.8262" y2="44.0111" gradientUnits="userSpaceOnUse">
<stop stop-color="#686CF8"/>
<stop offset="1" stop-color="#ECABF1"/>
</linearGradient>
<linearGradient id="paint1_linear_594_16156" x1="79" y1="23.4458" x2="-9.50773" y2="45.5099" gradientUnits="userSpaceOnUse">
<stop stop-color="#9A7EBC" stop-opacity="0.7"/>
<stop offset="1" stop-color="#4F569F" stop-opacity="0.46"/>
</linearGradient>
</defs>
</svg>
