<svg width="93" height="112" viewBox="0 0 93 112" fill="none" xmlns="http://www.w3.org/2000/svg">
<g filter="url(#filter0_bd_2_62073)">
<mask id="path-1-outside-1_2_62073" maskUnits="userSpaceOnUse" x="14.0683" y="10.2578" width="64" height="84" fill="black">
<rect fill="white" x="14.0683" y="10.2578" width="64" height="84"/>
<path fill-rule="evenodd" clip-rule="evenodd" d="M24.9868 14.248C24.05 15.0625 23.3268 16.397 23.1459 17.6452C23.0538 18.2802 23.0581 18.7611 23.162 19.4425C23.2227 19.8402 23.3921 20.2123 24.6872 22.7939C25.4885 24.3911 26.1625 25.7697 26.1849 25.8575C26.2169 25.9823 26.1176 26.1157 25.7274 26.4721C25.1415 27.0071 24.5884 27.6754 24.1388 28.3913C23.72 29.0582 16.0043 45.8405 15.6826 46.7843C15.2408 48.0804 15.0307 49.4137 15.0738 50.648C15.1086 51.6448 15.4019 53.042 15.7836 54.0303C15.87 54.2543 15.9671 54.6391 15.9991 54.8854C16.0311 55.1317 16.1184 55.8146 16.1931 56.4031C16.2678 56.9916 16.3746 57.8244 16.4304 58.2538C16.4863 58.6832 16.5769 59.4059 16.632 59.8597C16.687 60.3136 16.7619 60.8866 16.7985 61.1331C16.8351 61.3796 16.9102 61.9525 16.9655 62.4063C17.164 64.0372 17.3556 65.5309 17.4243 65.9842C17.4413 66.0961 17.5 66.559 17.5549 67.013C17.6097 67.467 17.6794 68.0426 17.7096 68.2923C17.74 68.5418 17.7945 68.9479 17.8308 69.1945C17.8672 69.441 17.9419 70.0141 17.9969 70.468C18.052 70.9219 18.1434 71.6442 18.2001 72.0732C18.2569 72.5021 18.3635 73.335 18.4372 73.924C18.5108 74.513 18.6457 75.568 18.7369 76.2686C18.9493 77.9001 19.0459 78.6614 19.1701 79.6843C19.2253 80.1381 19.3003 80.7111 19.3369 80.9575C19.3734 81.204 19.4484 81.777 19.5036 82.2308C20.0711 86.903 20.2085 87.5267 20.878 88.4665C21.0779 88.7471 21.3662 89.1095 21.5188 89.2717C22.1845 89.9796 23.3211 90.6106 24.3521 90.8444C25.0246 90.9969 25.7044 91.0067 26.7178 90.8788C27.1887 90.8193 28.0233 90.717 28.5724 90.6513C29.1214 90.5857 30.1679 90.457 30.8978 90.3652C31.6277 90.2734 32.5982 90.1517 33.0546 90.0946C33.5109 90.0376 33.9427 90.0167 34.014 90.0483C34.0854 90.0799 34.2686 90.2964 34.4211 90.5295C34.9283 91.3047 35.8118 92.0066 36.825 92.4392C37.8548 92.8789 39.1014 92.9912 40.2276 92.7457C40.8495 92.6102 41.0198 92.5267 58.0174 84.0285C76.0469 75.0144 75.3909 75.3556 76.0938 74.6282C76.7625 73.9363 77.3585 72.7319 77.5253 71.7356C77.6144 71.2036 77.6127 70.4818 77.5208 69.8205C77.4604 69.3862 77.2674 68.9967 72.0256 58.7383L66.7395 48.3931C66.409 47.7463 65.5195 47.5593 64.8368 47.737C64.4359 47.8413 63.987 48.1425 63.7521 48.4646C63.5504 48.7414 63.4244 49.1582 63.4272 49.5389C63.4279 49.6264 63.4476 49.7283 63.5898 50.0548C63.9485 50.8787 65.0871 53.1332 68.6669 60.1981C73.5245 69.7848 73.9047 70.5568 73.9131 70.8487C73.9264 71.3184 73.6485 71.9061 73.2698 72.2088C73.0404 72.3921 68.1441 74.859 56.0945 80.8621C39.741 89.0093 39.2319 89.258 38.9653 89.2317C38.5205 89.1877 38.1225 89.0521 37.8378 88.8473C37.5777 88.6602 37.3534 88.2289 28.3109 70.5321C20.2472 54.7511 19.0278 52.3312 18.876 51.8097C18.5439 50.6681 18.5619 49.7642 18.9402 48.5991C19.0665 48.2101 19.3303 47.5407 19.5265 47.1117C20.0127 46.0486 20.0724 45.9188 21.2174 43.4342C21.7699 42.2353 22.2849 41.1176 22.3618 40.9506C26.4436 32.0805 27.2725 30.324 27.5601 29.9357C27.7424 29.6895 27.9365 29.4919 27.9914 29.4966C28.0605 29.5026 28.5938 30.4889 29.7275 32.7077L31.3639 35.9103L30.9741 36.4138C30.2659 37.3286 29.8346 38.6026 29.834 39.7823C29.8335 40.6282 30.0295 41.4058 30.4514 42.2315C30.8251 42.9629 31.1582 43.3854 31.7878 43.9267C32.3369 44.3987 32.8921 44.7059 33.6473 44.9557C34.5329 45.2487 35.3642 45.3133 36.4044 45.1701C36.9636 45.0931 38.3193 44.4833 38.8299 44.0791C39.3882 43.6371 39.8577 43.0921 40.1988 42.49C40.545 41.8791 40.8036 41.0765 40.885 40.3609C41.0225 39.1523 40.7967 38.0317 40.2174 37.0485C40.0191 36.712 39.714 36.28 39.5393 36.0883C39.0778 35.5823 38.2621 35.0012 37.6134 34.7163C36.9523 34.4259 35.9997 34.2405 35.2207 34.2507L34.6684 34.258L33.0322 31.0558C32.0155 29.066 31.4136 27.8248 31.4427 27.7778C31.5102 27.6684 32.1421 27.6624 32.8107 27.7649C33.7701 27.912 51.5257 31.6428 52.0973 31.8173C53.2994 32.1846 54.0919 32.6874 54.8662 33.574C55.1187 33.8633 55.5702 34.6705 57.0275 37.4389C58.656 40.5321 58.8981 40.9595 59.1137 41.1225C59.2479 41.2239 59.4236 41.3346 59.5043 41.3685C59.8294 41.5053 60.3489 41.5393 60.7262 41.4487C61.0364 41.3741 61.1927 41.2951 61.4279 41.0943C62.0403 40.5714 62.3452 39.793 61.9836 39.0857L58.5043 32.2809L57.8977 31.5693C56.4856 29.9124 54.852 28.8618 52.6589 28.2003C52.1783 28.0553 49.7957 27.5196 47.3644 27.0099L42.9436 26.083L39.6554 19.7036C36.3903 13.369 36.3646 13.3218 35.9942 12.9685C34.7899 11.8199 33.4341 11.2624 31.8339 11.2578C31.6165 11.2572 31.3277 11.275 31.1921 11.2974C30.2813 11.4477 30.0601 11.5377 27.7546 12.6942C25.7134 13.7182 25.3822 13.9041 24.9868 14.248ZM31.9968 14.9169C32.4227 14.927 32.8917 15.1272 33.2252 15.4414C33.4066 15.6121 33.9381 16.6036 35.832 20.304C37.1403 22.8604 38.1924 24.9819 38.1698 25.0186C38.1472 25.0552 37.1843 24.8875 36.0298 24.6462C34.8755 24.4048 33.7055 24.1673 33.4299 24.1185C32.7503 23.9981 31.4891 24.0081 30.6462 24.1405C30.2642 24.2005 29.8656 24.2594 29.7603 24.2713L29.5691 24.2929L28.1556 21.4763C26.8684 18.9111 26.7434 18.6339 26.7547 18.3714C26.7719 17.9721 27.0443 17.3582 27.3097 17.1205C27.4388 17.0049 28.3862 16.5011 29.5768 15.915C31.5483 14.9444 31.6357 14.9083 31.9968 14.9169ZM35.0339 37.944C35.307 37.8834 35.5491 37.9083 35.9461 38.038C36.3723 38.177 36.5454 38.2829 36.7642 38.5384C37.0816 38.909 37.2385 39.325 37.2363 39.7894C37.2346 40.1272 37.1449 40.4056 36.9097 40.8036C36.7991 40.9907 36.6428 41.1061 36.2046 41.3241C35.5932 41.6284 35.3229 41.6603 34.8007 41.4899C34.2874 41.3223 34.0797 41.1321 33.7894 40.5632C33.5823 40.1575 33.5239 39.957 33.529 39.6695C33.539 39.1096 33.9838 38.3991 34.5031 38.1138C34.5906 38.0658 34.8294 37.9893 35.0339 37.944ZM26.653 75.5798C29.6965 81.5361 32.1764 86.4405 32.1639 86.4784C32.1513 86.5164 32.0929 86.5381 32.0341 86.5268C31.9752 86.5154 31.8551 86.5206 31.767 86.5382C31.6789 86.5559 31.1203 86.6287 30.5255 86.6999C29.9308 86.7712 29.3521 86.8437 29.2397 86.8611C29.1272 86.8785 28.6601 86.9361 28.2017 86.9892C27.7433 87.0422 27.2018 87.1096 26.9982 87.1387C26.025 87.2785 25.4337 87.3209 25.1483 87.2719C24.9765 87.2423 24.6834 87.1207 24.4971 87.0015C24.229 86.8301 24.1114 86.6929 23.9342 86.3449C23.811 86.1029 23.6901 85.7378 23.6656 85.5334C23.641 85.3291 23.5747 84.8108 23.5181 84.3818C23.4615 83.9528 23.3702 83.2304 23.3152 82.7765C23.2602 82.3226 23.1853 81.7496 23.1487 81.5031C23.1121 81.2566 23.037 80.6837 22.9817 80.23C22.8156 78.8655 22.7736 78.533 22.6647 77.719C22.6073 77.2903 22.5328 76.7171 22.4992 76.4451C22.4655 76.1731 22.3926 75.599 22.3371 75.1694C22.2816 74.7399 22.1756 73.9067 22.1013 73.318C22.0271 72.7293 21.8924 71.6741 21.8019 70.9733C21.6139 69.5178 21.4515 68.2434 21.2354 66.5301C21.1527 65.8735 21.0664 65.2176 21.0436 65.0724C21.0209 64.9273 21.0287 64.7955 21.0609 64.7794C21.0931 64.7633 23.6095 69.6235 26.653 75.5798ZM40.98 76.1508C40.528 76.6083 40.2928 77.2536 40.3947 77.757C40.549 78.5183 40.9788 79.0221 41.663 79.2438C42.6957 79.5784 43.6034 79.1118 43.9496 78.0683C44.0916 77.6402 44.1045 77.4562 44.0177 77.0976C43.932 76.7439 43.8596 76.5971 43.6566 76.3654C43.2457 75.8963 42.7289 75.6707 42.1135 75.6914C41.7863 75.7024 41.1804 75.948 40.98 76.1508ZM45.6828 73.9001C45.3836 74.2414 45.2112 74.7145 45.2268 75.1514C45.242 75.5777 45.5599 76.2285 45.8894 76.5078C46.2437 76.8082 46.7454 76.9513 47.2519 76.8964C47.6884 76.8492 47.8738 76.7605 55.463 72.9675C63.1176 69.1419 63.232 69.0822 63.5396 68.7516C63.8586 68.4089 64.0307 67.9573 64.035 67.4519C64.0363 67.2907 63.9434 66.9965 63.8012 66.7116C63.5351 66.1784 63.1967 65.8823 62.7103 65.757C62.0288 65.5814 62.6678 65.2984 53.9399 69.6412C46.5058 73.3401 45.8996 73.6528 45.6828 73.9001Z"/>
</mask>
<path fill-rule="evenodd" clip-rule="evenodd" d="M24.9868 14.248C24.05 15.0625 23.3268 16.397 23.1459 17.6452C23.0538 18.2802 23.0581 18.7611 23.162 19.4425C23.2227 19.8402 23.3921 20.2123 24.6872 22.7939C25.4885 24.3911 26.1625 25.7697 26.1849 25.8575C26.2169 25.9823 26.1176 26.1157 25.7274 26.4721C25.1415 27.0071 24.5884 27.6754 24.1388 28.3913C23.72 29.0582 16.0043 45.8405 15.6826 46.7843C15.2408 48.0804 15.0307 49.4137 15.0738 50.648C15.1086 51.6448 15.4019 53.042 15.7836 54.0303C15.87 54.2543 15.9671 54.6391 15.9991 54.8854C16.0311 55.1317 16.1184 55.8146 16.1931 56.4031C16.2678 56.9916 16.3746 57.8244 16.4304 58.2538C16.4863 58.6832 16.5769 59.4059 16.632 59.8597C16.687 60.3136 16.7619 60.8866 16.7985 61.1331C16.8351 61.3796 16.9102 61.9525 16.9655 62.4063C17.164 64.0372 17.3556 65.5309 17.4243 65.9842C17.4413 66.0961 17.5 66.559 17.5549 67.013C17.6097 67.467 17.6794 68.0426 17.7096 68.2923C17.74 68.5418 17.7945 68.9479 17.8308 69.1945C17.8672 69.441 17.9419 70.0141 17.9969 70.468C18.052 70.9219 18.1434 71.6442 18.2001 72.0732C18.2569 72.5021 18.3635 73.335 18.4372 73.924C18.5108 74.513 18.6457 75.568 18.7369 76.2686C18.9493 77.9001 19.0459 78.6614 19.1701 79.6843C19.2253 80.1381 19.3003 80.7111 19.3369 80.9575C19.3734 81.204 19.4484 81.777 19.5036 82.2308C20.0711 86.903 20.2085 87.5267 20.878 88.4665C21.0779 88.7471 21.3662 89.1095 21.5188 89.2717C22.1845 89.9796 23.3211 90.6106 24.3521 90.8444C25.0246 90.9969 25.7044 91.0067 26.7178 90.8788C27.1887 90.8193 28.0233 90.717 28.5724 90.6513C29.1214 90.5857 30.1679 90.457 30.8978 90.3652C31.6277 90.2734 32.5982 90.1517 33.0546 90.0946C33.5109 90.0376 33.9427 90.0167 34.014 90.0483C34.0854 90.0799 34.2686 90.2964 34.4211 90.5295C34.9283 91.3047 35.8118 92.0066 36.825 92.4392C37.8548 92.8789 39.1014 92.9912 40.2276 92.7457C40.8495 92.6102 41.0198 92.5267 58.0174 84.0285C76.0469 75.0144 75.3909 75.3556 76.0938 74.6282C76.7625 73.9363 77.3585 72.7319 77.5253 71.7356C77.6144 71.2036 77.6127 70.4818 77.5208 69.8205C77.4604 69.3862 77.2674 68.9967 72.0256 58.7383L66.7395 48.3931C66.409 47.7463 65.5195 47.5593 64.8368 47.737C64.4359 47.8413 63.987 48.1425 63.7521 48.4646C63.5504 48.7414 63.4244 49.1582 63.4272 49.5389C63.4279 49.6264 63.4476 49.7283 63.5898 50.0548C63.9485 50.8787 65.0871 53.1332 68.6669 60.1981C73.5245 69.7848 73.9047 70.5568 73.9131 70.8487C73.9264 71.3184 73.6485 71.9061 73.2698 72.2088C73.0404 72.3921 68.1441 74.859 56.0945 80.8621C39.741 89.0093 39.2319 89.258 38.9653 89.2317C38.5205 89.1877 38.1225 89.0521 37.8378 88.8473C37.5777 88.6602 37.3534 88.2289 28.3109 70.5321C20.2472 54.7511 19.0278 52.3312 18.876 51.8097C18.5439 50.6681 18.5619 49.7642 18.9402 48.5991C19.0665 48.2101 19.3303 47.5407 19.5265 47.1117C20.0127 46.0486 20.0724 45.9188 21.2174 43.4342C21.7699 42.2353 22.2849 41.1176 22.3618 40.9506C26.4436 32.0805 27.2725 30.324 27.5601 29.9357C27.7424 29.6895 27.9365 29.4919 27.9914 29.4966C28.0605 29.5026 28.5938 30.4889 29.7275 32.7077L31.3639 35.9103L30.9741 36.4138C30.2659 37.3286 29.8346 38.6026 29.834 39.7823C29.8335 40.6282 30.0295 41.4058 30.4514 42.2315C30.8251 42.9629 31.1582 43.3854 31.7878 43.9267C32.3369 44.3987 32.8921 44.7059 33.6473 44.9557C34.5329 45.2487 35.3642 45.3133 36.4044 45.1701C36.9636 45.0931 38.3193 44.4833 38.8299 44.0791C39.3882 43.6371 39.8577 43.0921 40.1988 42.49C40.545 41.8791 40.8036 41.0765 40.885 40.3609C41.0225 39.1523 40.7967 38.0317 40.2174 37.0485C40.0191 36.712 39.714 36.28 39.5393 36.0883C39.0778 35.5823 38.2621 35.0012 37.6134 34.7163C36.9523 34.4259 35.9997 34.2405 35.2207 34.2507L34.6684 34.258L33.0322 31.0558C32.0155 29.066 31.4136 27.8248 31.4427 27.7778C31.5102 27.6684 32.1421 27.6624 32.8107 27.7649C33.7701 27.912 51.5257 31.6428 52.0973 31.8173C53.2994 32.1846 54.0919 32.6874 54.8662 33.574C55.1187 33.8633 55.5702 34.6705 57.0275 37.4389C58.656 40.5321 58.8981 40.9595 59.1137 41.1225C59.2479 41.2239 59.4236 41.3346 59.5043 41.3685C59.8294 41.5053 60.3489 41.5393 60.7262 41.4487C61.0364 41.3741 61.1927 41.2951 61.4279 41.0943C62.0403 40.5714 62.3452 39.793 61.9836 39.0857L58.5043 32.2809L57.8977 31.5693C56.4856 29.9124 54.852 28.8618 52.6589 28.2003C52.1783 28.0553 49.7957 27.5196 47.3644 27.0099L42.9436 26.083L39.6554 19.7036C36.3903 13.369 36.3646 13.3218 35.9942 12.9685C34.7899 11.8199 33.4341 11.2624 31.8339 11.2578C31.6165 11.2572 31.3277 11.275 31.1921 11.2974C30.2813 11.4477 30.0601 11.5377 27.7546 12.6942C25.7134 13.7182 25.3822 13.9041 24.9868 14.248ZM31.9968 14.9169C32.4227 14.927 32.8917 15.1272 33.2252 15.4414C33.4066 15.6121 33.9381 16.6036 35.832 20.304C37.1403 22.8604 38.1924 24.9819 38.1698 25.0186C38.1472 25.0552 37.1843 24.8875 36.0298 24.6462C34.8755 24.4048 33.7055 24.1673 33.4299 24.1185C32.7503 23.9981 31.4891 24.0081 30.6462 24.1405C30.2642 24.2005 29.8656 24.2594 29.7603 24.2713L29.5691 24.2929L28.1556 21.4763C26.8684 18.9111 26.7434 18.6339 26.7547 18.3714C26.7719 17.9721 27.0443 17.3582 27.3097 17.1205C27.4388 17.0049 28.3862 16.5011 29.5768 15.915C31.5483 14.9444 31.6357 14.9083 31.9968 14.9169ZM35.0339 37.944C35.307 37.8834 35.5491 37.9083 35.9461 38.038C36.3723 38.177 36.5454 38.2829 36.7642 38.5384C37.0816 38.909 37.2385 39.325 37.2363 39.7894C37.2346 40.1272 37.1449 40.4056 36.9097 40.8036C36.7991 40.9907 36.6428 41.1061 36.2046 41.3241C35.5932 41.6284 35.3229 41.6603 34.8007 41.4899C34.2874 41.3223 34.0797 41.1321 33.7894 40.5632C33.5823 40.1575 33.5239 39.957 33.529 39.6695C33.539 39.1096 33.9838 38.3991 34.5031 38.1138C34.5906 38.0658 34.8294 37.9893 35.0339 37.944ZM26.653 75.5798C29.6965 81.5361 32.1764 86.4405 32.1639 86.4784C32.1513 86.5164 32.0929 86.5381 32.0341 86.5268C31.9752 86.5154 31.8551 86.5206 31.767 86.5382C31.6789 86.5559 31.1203 86.6287 30.5255 86.6999C29.9308 86.7712 29.3521 86.8437 29.2397 86.8611C29.1272 86.8785 28.6601 86.9361 28.2017 86.9892C27.7433 87.0422 27.2018 87.1096 26.9982 87.1387C26.025 87.2785 25.4337 87.3209 25.1483 87.2719C24.9765 87.2423 24.6834 87.1207 24.4971 87.0015C24.229 86.8301 24.1114 86.6929 23.9342 86.3449C23.811 86.1029 23.6901 85.7378 23.6656 85.5334C23.641 85.3291 23.5747 84.8108 23.5181 84.3818C23.4615 83.9528 23.3702 83.2304 23.3152 82.7765C23.2602 82.3226 23.1853 81.7496 23.1487 81.5031C23.1121 81.2566 23.037 80.6837 22.9817 80.23C22.8156 78.8655 22.7736 78.533 22.6647 77.719C22.6073 77.2903 22.5328 76.7171 22.4992 76.4451C22.4655 76.1731 22.3926 75.599 22.3371 75.1694C22.2816 74.7399 22.1756 73.9067 22.1013 73.318C22.0271 72.7293 21.8924 71.6741 21.8019 70.9733C21.6139 69.5178 21.4515 68.2434 21.2354 66.5301C21.1527 65.8735 21.0664 65.2176 21.0436 65.0724C21.0209 64.9273 21.0287 64.7955 21.0609 64.7794C21.0931 64.7633 23.6095 69.6235 26.653 75.5798ZM40.98 76.1508C40.528 76.6083 40.2928 77.2536 40.3947 77.757C40.549 78.5183 40.9788 79.0221 41.663 79.2438C42.6957 79.5784 43.6034 79.1118 43.9496 78.0683C44.0916 77.6402 44.1045 77.4562 44.0177 77.0976C43.932 76.7439 43.8596 76.5971 43.6566 76.3654C43.2457 75.8963 42.7289 75.6707 42.1135 75.6914C41.7863 75.7024 41.1804 75.948 40.98 76.1508ZM45.6828 73.9001C45.3836 74.2414 45.2112 74.7145 45.2268 75.1514C45.242 75.5777 45.5599 76.2285 45.8894 76.5078C46.2437 76.8082 46.7454 76.9513 47.2519 76.8964C47.6884 76.8492 47.8738 76.7605 55.463 72.9675C63.1176 69.1419 63.232 69.0822 63.5396 68.7516C63.8586 68.4089 64.0307 67.9573 64.035 67.4519C64.0363 67.2907 63.9434 66.9965 63.8012 66.7116C63.5351 66.1784 63.1967 65.8823 62.7103 65.757C62.0288 65.5814 62.6678 65.2984 53.9399 69.6412C46.5058 73.3401 45.8996 73.6528 45.6828 73.9001Z" fill="url(#paint0_linear_2_62073)" fill-opacity="0.45" shape-rendering="crispEdges"/>
<path fill-rule="evenodd" clip-rule="evenodd" d="M24.9868 14.248C24.05 15.0625 23.3268 16.397 23.1459 17.6452C23.0538 18.2802 23.0581 18.7611 23.162 19.4425C23.2227 19.8402 23.3921 20.2123 24.6872 22.7939C25.4885 24.3911 26.1625 25.7697 26.1849 25.8575C26.2169 25.9823 26.1176 26.1157 25.7274 26.4721C25.1415 27.0071 24.5884 27.6754 24.1388 28.3913C23.72 29.0582 16.0043 45.8405 15.6826 46.7843C15.2408 48.0804 15.0307 49.4137 15.0738 50.648C15.1086 51.6448 15.4019 53.042 15.7836 54.0303C15.87 54.2543 15.9671 54.6391 15.9991 54.8854C16.0311 55.1317 16.1184 55.8146 16.1931 56.4031C16.2678 56.9916 16.3746 57.8244 16.4304 58.2538C16.4863 58.6832 16.5769 59.4059 16.632 59.8597C16.687 60.3136 16.7619 60.8866 16.7985 61.1331C16.8351 61.3796 16.9102 61.9525 16.9655 62.4063C17.164 64.0372 17.3556 65.5309 17.4243 65.9842C17.4413 66.0961 17.5 66.559 17.5549 67.013C17.6097 67.467 17.6794 68.0426 17.7096 68.2923C17.74 68.5418 17.7945 68.9479 17.8308 69.1945C17.8672 69.441 17.9419 70.0141 17.9969 70.468C18.052 70.9219 18.1434 71.6442 18.2001 72.0732C18.2569 72.5021 18.3635 73.335 18.4372 73.924C18.5108 74.513 18.6457 75.568 18.7369 76.2686C18.9493 77.9001 19.0459 78.6614 19.1701 79.6843C19.2253 80.1381 19.3003 80.7111 19.3369 80.9575C19.3734 81.204 19.4484 81.777 19.5036 82.2308C20.0711 86.903 20.2085 87.5267 20.878 88.4665C21.0779 88.7471 21.3662 89.1095 21.5188 89.2717C22.1845 89.9796 23.3211 90.6106 24.3521 90.8444C25.0246 90.9969 25.7044 91.0067 26.7178 90.8788C27.1887 90.8193 28.0233 90.717 28.5724 90.6513C29.1214 90.5857 30.1679 90.457 30.8978 90.3652C31.6277 90.2734 32.5982 90.1517 33.0546 90.0946C33.5109 90.0376 33.9427 90.0167 34.014 90.0483C34.0854 90.0799 34.2686 90.2964 34.4211 90.5295C34.9283 91.3047 35.8118 92.0066 36.825 92.4392C37.8548 92.8789 39.1014 92.9912 40.2276 92.7457C40.8495 92.6102 41.0198 92.5267 58.0174 84.0285C76.0469 75.0144 75.3909 75.3556 76.0938 74.6282C76.7625 73.9363 77.3585 72.7319 77.5253 71.7356C77.6144 71.2036 77.6127 70.4818 77.5208 69.8205C77.4604 69.3862 77.2674 68.9967 72.0256 58.7383L66.7395 48.3931C66.409 47.7463 65.5195 47.5593 64.8368 47.737C64.4359 47.8413 63.987 48.1425 63.7521 48.4646C63.5504 48.7414 63.4244 49.1582 63.4272 49.5389C63.4279 49.6264 63.4476 49.7283 63.5898 50.0548C63.9485 50.8787 65.0871 53.1332 68.6669 60.1981C73.5245 69.7848 73.9047 70.5568 73.9131 70.8487C73.9264 71.3184 73.6485 71.9061 73.2698 72.2088C73.0404 72.3921 68.1441 74.859 56.0945 80.8621C39.741 89.0093 39.2319 89.258 38.9653 89.2317C38.5205 89.1877 38.1225 89.0521 37.8378 88.8473C37.5777 88.6602 37.3534 88.2289 28.3109 70.5321C20.2472 54.7511 19.0278 52.3312 18.876 51.8097C18.5439 50.6681 18.5619 49.7642 18.9402 48.5991C19.0665 48.2101 19.3303 47.5407 19.5265 47.1117C20.0127 46.0486 20.0724 45.9188 21.2174 43.4342C21.7699 42.2353 22.2849 41.1176 22.3618 40.9506C26.4436 32.0805 27.2725 30.324 27.5601 29.9357C27.7424 29.6895 27.9365 29.4919 27.9914 29.4966C28.0605 29.5026 28.5938 30.4889 29.7275 32.7077L31.3639 35.9103L30.9741 36.4138C30.2659 37.3286 29.8346 38.6026 29.834 39.7823C29.8335 40.6282 30.0295 41.4058 30.4514 42.2315C30.8251 42.9629 31.1582 43.3854 31.7878 43.9267C32.3369 44.3987 32.8921 44.7059 33.6473 44.9557C34.5329 45.2487 35.3642 45.3133 36.4044 45.1701C36.9636 45.0931 38.3193 44.4833 38.8299 44.0791C39.3882 43.6371 39.8577 43.0921 40.1988 42.49C40.545 41.8791 40.8036 41.0765 40.885 40.3609C41.0225 39.1523 40.7967 38.0317 40.2174 37.0485C40.0191 36.712 39.714 36.28 39.5393 36.0883C39.0778 35.5823 38.2621 35.0012 37.6134 34.7163C36.9523 34.4259 35.9997 34.2405 35.2207 34.2507L34.6684 34.258L33.0322 31.0558C32.0155 29.066 31.4136 27.8248 31.4427 27.7778C31.5102 27.6684 32.1421 27.6624 32.8107 27.7649C33.7701 27.912 51.5257 31.6428 52.0973 31.8173C53.2994 32.1846 54.0919 32.6874 54.8662 33.574C55.1187 33.8633 55.5702 34.6705 57.0275 37.4389C58.656 40.5321 58.8981 40.9595 59.1137 41.1225C59.2479 41.2239 59.4236 41.3346 59.5043 41.3685C59.8294 41.5053 60.3489 41.5393 60.7262 41.4487C61.0364 41.3741 61.1927 41.2951 61.4279 41.0943C62.0403 40.5714 62.3452 39.793 61.9836 39.0857L58.5043 32.2809L57.8977 31.5693C56.4856 29.9124 54.852 28.8618 52.6589 28.2003C52.1783 28.0553 49.7957 27.5196 47.3644 27.0099L42.9436 26.083L39.6554 19.7036C36.3903 13.369 36.3646 13.3218 35.9942 12.9685C34.7899 11.8199 33.4341 11.2624 31.8339 11.2578C31.6165 11.2572 31.3277 11.275 31.1921 11.2974C30.2813 11.4477 30.0601 11.5377 27.7546 12.6942C25.7134 13.7182 25.3822 13.9041 24.9868 14.248ZM31.9968 14.9169C32.4227 14.927 32.8917 15.1272 33.2252 15.4414C33.4066 15.6121 33.9381 16.6036 35.832 20.304C37.1403 22.8604 38.1924 24.9819 38.1698 25.0186C38.1472 25.0552 37.1843 24.8875 36.0298 24.6462C34.8755 24.4048 33.7055 24.1673 33.4299 24.1185C32.7503 23.9981 31.4891 24.0081 30.6462 24.1405C30.2642 24.2005 29.8656 24.2594 29.7603 24.2713L29.5691 24.2929L28.1556 21.4763C26.8684 18.9111 26.7434 18.6339 26.7547 18.3714C26.7719 17.9721 27.0443 17.3582 27.3097 17.1205C27.4388 17.0049 28.3862 16.5011 29.5768 15.915C31.5483 14.9444 31.6357 14.9083 31.9968 14.9169ZM35.0339 37.944C35.307 37.8834 35.5491 37.9083 35.9461 38.038C36.3723 38.177 36.5454 38.2829 36.7642 38.5384C37.0816 38.909 37.2385 39.325 37.2363 39.7894C37.2346 40.1272 37.1449 40.4056 36.9097 40.8036C36.7991 40.9907 36.6428 41.1061 36.2046 41.3241C35.5932 41.6284 35.3229 41.6603 34.8007 41.4899C34.2874 41.3223 34.0797 41.1321 33.7894 40.5632C33.5823 40.1575 33.5239 39.957 33.529 39.6695C33.539 39.1096 33.9838 38.3991 34.5031 38.1138C34.5906 38.0658 34.8294 37.9893 35.0339 37.944ZM26.653 75.5798C29.6965 81.5361 32.1764 86.4405 32.1639 86.4784C32.1513 86.5164 32.0929 86.5381 32.0341 86.5268C31.9752 86.5154 31.8551 86.5206 31.767 86.5382C31.6789 86.5559 31.1203 86.6287 30.5255 86.6999C29.9308 86.7712 29.3521 86.8437 29.2397 86.8611C29.1272 86.8785 28.6601 86.9361 28.2017 86.9892C27.7433 87.0422 27.2018 87.1096 26.9982 87.1387C26.025 87.2785 25.4337 87.3209 25.1483 87.2719C24.9765 87.2423 24.6834 87.1207 24.4971 87.0015C24.229 86.8301 24.1114 86.6929 23.9342 86.3449C23.811 86.1029 23.6901 85.7378 23.6656 85.5334C23.641 85.3291 23.5747 84.8108 23.5181 84.3818C23.4615 83.9528 23.3702 83.2304 23.3152 82.7765C23.2602 82.3226 23.1853 81.7496 23.1487 81.5031C23.1121 81.2566 23.037 80.6837 22.9817 80.23C22.8156 78.8655 22.7736 78.533 22.6647 77.719C22.6073 77.2903 22.5328 76.7171 22.4992 76.4451C22.4655 76.1731 22.3926 75.599 22.3371 75.1694C22.2816 74.7399 22.1756 73.9067 22.1013 73.318C22.0271 72.7293 21.8924 71.6741 21.8019 70.9733C21.6139 69.5178 21.4515 68.2434 21.2354 66.5301C21.1527 65.8735 21.0664 65.2176 21.0436 65.0724C21.0209 64.9273 21.0287 64.7955 21.0609 64.7794C21.0931 64.7633 23.6095 69.6235 26.653 75.5798ZM40.98 76.1508C40.528 76.6083 40.2928 77.2536 40.3947 77.757C40.549 78.5183 40.9788 79.0221 41.663 79.2438C42.6957 79.5784 43.6034 79.1118 43.9496 78.0683C44.0916 77.6402 44.1045 77.4562 44.0177 77.0976C43.932 76.7439 43.8596 76.5971 43.6566 76.3654C43.2457 75.8963 42.7289 75.6707 42.1135 75.6914C41.7863 75.7024 41.1804 75.948 40.98 76.1508ZM45.6828 73.9001C45.3836 74.2414 45.2112 74.7145 45.2268 75.1514C45.242 75.5777 45.5599 76.2285 45.8894 76.5078C46.2437 76.8082 46.7454 76.9513 47.2519 76.8964C47.6884 76.8492 47.8738 76.7605 55.463 72.9675C63.1176 69.1419 63.232 69.0822 63.5396 68.7516C63.8586 68.4089 64.0307 67.9573 64.035 67.4519C64.0363 67.2907 63.9434 66.9965 63.8012 66.7116C63.5351 66.1784 63.1967 65.8823 62.7103 65.757C62.0288 65.5814 62.6678 65.2984 53.9399 69.6412C46.5058 73.3401 45.8996 73.6528 45.6828 73.9001Z" stroke="url(#paint1_linear_2_62073)" stroke-width="0.77729" shape-rendering="crispEdges" mask="url(#path-1-outside-1_2_62073)"/>
</g>
<defs>
<filter id="filter0_bd_2_62073" x="0.105471" y="0.181398" width="92.4483" height="111.541" filterUnits="userSpaceOnUse" color-interpolation-filters="sRGB">
<feFlood flood-opacity="0" result="BackgroundImageFix"/>
<feGaussianBlur in="BackgroundImageFix" stdDeviation="1.11756"/>
<feComposite in2="SourceAlpha" operator="in" result="effect1_backgroundBlur_2_62073"/>
<feColorMatrix in="SourceAlpha" type="matrix" values="0 0 0 0 0 0 0 0 0 0 0 0 0 0 0 0 0 0 127 0" result="hardAlpha"/>
<feOffset dy="3.88645"/>
<feGaussianBlur stdDeviation="7.2871"/>
<feComposite in2="hardAlpha" operator="out"/>
<feColorMatrix type="matrix" values="0 0 0 0 0 0 0 0 0 0 0 0 0 0 0 0 0 0 0.25 0"/>
<feBlend mode="normal" in2="effect1_backgroundBlur_2_62073" result="effect2_dropShadow_2_62073"/>
<feBlend mode="normal" in="SourceGraphic" in2="effect2_dropShadow_2_62073" result="shape"/>
</filter>
<linearGradient id="paint0_linear_2_62073" x1="15.0683" y1="103.198" x2="90.127" y2="45.3586" gradientUnits="userSpaceOnUse">
<stop stop-color="#686CF8"/>
<stop offset="1" stop-color="#ECABF1"/>
</linearGradient>
<linearGradient id="paint1_linear_2_62073" x1="77.591" y1="23.5493" x2="-17.7757" y2="47.4138" gradientUnits="userSpaceOnUse">
<stop stop-color="#9A7EBC" stop-opacity="0.7"/>
<stop offset="1" stop-color="#4F569F" stop-opacity="0.46"/>
</linearGradient>
</defs>
</svg>
