<svg width="100" height="100" viewBox="0 0 100 100" fill="none" xmlns="http://www.w3.org/2000/svg">
<g filter="url(#filter0_b_594_16160)">
<mask id="path-1-inside-1_594_16160" fill="white">
<path d="M46.7181 35.0136C45.3051 35.6823 45.0703 37.4818 46.0301 40.2843C49.0073 48.9774 61.3557 49.9117 65.6883 41.7716C67.6441 38.0972 67.2116 34.9151 64.7563 34.9156C63.3799 34.916 62.715 35.6404 62.5703 37.2971C62.3382 39.9564 60.8821 41.8559 58.3042 42.8625C57.586 43.1429 56.0331 43.2755 55.1889 43.1284C52.1284 42.5955 50.0705 40.3626 49.806 37.2879C49.7211 36.3005 49.66 36.0904 49.3295 35.6472C48.7368 34.8527 47.627 34.5834 46.7181 35.0136Z"/>
<path d="M34.9406 58.0114C35.7069 58.0114 36.3282 58.6167 36.3282 59.3635V65.3229C37.1565 65.7823 37.715 66.6503 37.715 67.6454C37.715 67.7537 37.7084 67.8606 37.6955 67.9656L42.7616 71.6411C43.3763 72.0871 43.5036 72.9341 43.0459 73.5331C42.5883 74.1321 41.719 74.2561 41.1043 73.8102L36.0139 70.117C35.6934 70.2451 35.3425 70.3158 34.9746 70.3158C33.4611 70.3158 32.2342 69.1202 32.2342 67.6454C32.2342 66.6777 32.7623 65.8303 33.5531 65.3619V59.3635C33.5531 58.6167 34.1743 58.0114 34.9406 58.0114Z"/>
<path fill-rule="evenodd" clip-rule="evenodd" d="M55.0087 14.0648C50.6531 14.5385 47.0863 17.5122 45.8533 21.6977L45.6641 22.34L41.5775 22.3773C37.2799 22.4165 37.0663 22.4808 36.2285 22.733L36.1556 22.7549C33.9342 23.4209 32.4903 25.6547 32.1891 28.4245C32.1487 28.7963 32.0848 29.3895 32.0472 29.7428C31.8833 31.2823 31.8269 31.8089 31.6996 32.9878C31.6253 33.6757 31.4858 34.9839 31.3895 35.8948C31.2932 36.8058 31.1834 37.825 31.1455 38.1596C31.1077 38.4943 31.0431 39.0875 31.0021 39.4779C30.879 40.6498 30.7955 41.4376 30.7244 42.0976C30.6874 42.4415 30.6274 43.0044 30.5912 43.3483C30.4864 44.3415 30.3787 45.3463 30.3103 45.968C30.2755 46.2841 30.2137 46.8621 30.1729 47.2525C30.1321 47.643 30.0691 48.2362 30.0327 48.5708C30.0055 48.8211 29.9633 49.2159 29.9266 49.5624C21.8942 51.7408 16 58.9208 16 67.4423C16 77.6915 24.5264 86 35.0442 86C42.1474 86 48.3422 82.2105 51.616 76.5931C61.1636 76.6041 72.8139 76.5817 73.1556 76.5252C74.8503 76.2449 75.6845 76.0037 76.9214 75.4366C80.3992 73.8421 83.035 70.5752 83.7612 66.9595C84.0405 65.5685 84.0696 64.5215 83.8756 62.8356C83.8068 62.2372 83.7295 61.5362 83.5924 60.2666C83.5542 59.9133 83.4908 59.3277 83.4515 58.9652C83.4122 58.6027 83.3197 57.728 83.2458 57.0215C83.172 56.315 83.0622 55.2807 83.0017 54.7229C82.9412 54.1652 82.83 53.1308 82.7544 52.4244C82.6788 51.7179 82.5856 50.8508 82.5472 50.4976C82.4815 49.8908 82.4503 49.5958 82.2799 47.9624C82.2411 47.5906 82.1752 46.9821 82.1336 46.6103C82.0326 45.7101 81.9417 44.8633 81.8579 44.0413C81.82 43.6695 81.7593 43.0914 81.7229 42.7568C81.6865 42.4221 81.6251 41.8441 81.5862 41.4723C81.5474 41.1005 81.4823 40.492 81.4417 40.1202C81.401 39.7483 81.3377 39.1551 81.301 38.8019C81.2644 38.4486 81.2022 37.8706 81.1629 37.5174C81.1235 37.1641 81.014 36.1298 80.9194 35.2188C80.8249 34.3078 80.7007 33.1518 80.6435 32.6498C80.5861 32.1478 80.5082 31.4405 80.4701 31.078C80.3145 29.5943 80.2518 29.0016 80.1858 28.3906C79.8571 25.3481 77.9557 22.7549 75.3017 22.527C75.2354 22.5213 75.1727 22.5156 75.11 22.5099C74.5338 22.4575 73.9701 22.4063 70.7988 22.3773L66.7122 22.34L66.523 21.6977C65.0507 16.6997 60.2209 13.498 55.0087 14.0648ZM53.3983 72.4102C62.3508 72.4202 72.4039 72.3842 72.8735 72.3017C77.3616 71.5129 80.1175 67.8636 79.5882 63.4102C79.5045 62.7067 79.3709 61.4735 79.0463 58.4074C78.9538 57.5336 78.8457 56.5297 78.8061 56.1765C78.7665 55.8232 78.7034 55.23 78.6658 54.8581C78.6283 54.4863 78.5679 53.9083 78.5315 53.5736C78.4952 53.239 78.4311 52.6458 78.389 52.2553C78.347 51.8649 78.2829 51.2717 78.2465 50.937C78.2102 50.6024 78.1497 50.0244 78.1122 49.6525C78.0747 49.2807 78.0131 48.7027 77.9755 48.368C77.8666 47.4005 77.7653 46.4587 77.6952 45.7652C77.6596 45.412 77.5982 44.8263 77.5588 44.4638C77.4871 43.8045 77.4108 43.0991 77.2772 41.861C77.1499 40.68 76.8629 37.986 76.7246 36.6723C76.6501 35.9658 76.5568 35.0988 76.517 34.7456C76.4772 34.3923 76.4139 33.7991 76.3764 33.4272C76.3388 33.0554 76.2784 32.4774 76.2421 32.1427C76.2057 31.8081 76.1433 31.2301 76.1035 30.8582C76.0636 30.4864 76.0002 29.9084 75.9625 29.5737C75.9249 29.2391 75.8737 28.7675 75.849 28.5259C75.7606 27.6656 75.1858 26.916 74.4331 26.6791C73.8869 26.5072 38.446 26.5113 37.916 26.6833C37.0702 26.9579 36.6175 27.6494 36.4885 28.8639C36.447 29.2543 36.3837 29.8323 36.3478 30.1484C36.312 30.4644 36.2493 31.0425 36.2086 31.4329C36.1679 31.8233 36.1041 32.4242 36.0668 32.7681L35.9315 34.0188C35.8942 34.3627 35.8315 34.9484 35.7922 35.3202C35.7528 35.692 35.6435 36.7112 35.5493 37.585C35.4551 38.4588 35.3294 39.63 35.2701 40.1878C35.2109 40.7455 35.1311 41.4909 35.0931 41.8441C34.9817 42.8763 34.7483 45.0714 34.6796 45.7314C34.6448 46.0661 34.5831 46.6441 34.5423 47.0159C34.5016 47.3878 34.4365 47.9962 34.3977 48.368C34.3818 48.5201 34.3621 48.7067 34.3419 48.897C34.575 48.8888 34.8091 48.8847 35.0442 48.8847C45.562 48.8847 54.0884 57.1932 54.0884 67.4423C54.0884 69.163 53.8481 70.829 53.3983 72.4102ZM57.4938 18.3487C59.3819 18.7357 61.0305 19.9656 61.8811 21.6216C62.0315 21.9145 62.1546 22.2036 62.1546 22.264C62.1546 22.3644 61.648 22.3738 56.1881 22.3738C50.7283 22.3738 50.2216 22.3644 50.2216 22.264C50.2216 22.2036 50.3447 21.9145 50.4952 21.6216C51.7575 19.1641 54.7178 17.7797 57.4938 18.3487ZM50.2726 67.4423C50.2726 75.6379 43.4546 82.2817 35.0442 82.2817C26.6338 82.2817 19.8158 75.6379 19.8158 67.4423C19.8158 59.2468 26.6338 52.603 35.0442 52.603C43.4546 52.603 50.2726 59.2468 50.2726 67.4423Z"/>
</mask>
<path d="M46.7181 35.0136C45.3051 35.6823 45.0703 37.4818 46.0301 40.2843C49.0073 48.9774 61.3557 49.9117 65.6883 41.7716C67.6441 38.0972 67.2116 34.9151 64.7563 34.9156C63.3799 34.916 62.715 35.6404 62.5703 37.2971C62.3382 39.9564 60.8821 41.8559 58.3042 42.8625C57.586 43.1429 56.0331 43.2755 55.1889 43.1284C52.1284 42.5955 50.0705 40.3626 49.806 37.2879C49.7211 36.3005 49.66 36.0904 49.3295 35.6472C48.7368 34.8527 47.627 34.5834 46.7181 35.0136Z" fill="url(#paint0_linear_594_16160)" fill-opacity="0.45"/>
<path d="M34.9406 58.0114C35.7069 58.0114 36.3282 58.6167 36.3282 59.3635V65.3229C37.1565 65.7823 37.715 66.6503 37.715 67.6454C37.715 67.7537 37.7084 67.8606 37.6955 67.9656L42.7616 71.6411C43.3763 72.0871 43.5036 72.9341 43.0459 73.5331C42.5883 74.1321 41.719 74.2561 41.1043 73.8102L36.0139 70.117C35.6934 70.2451 35.3425 70.3158 34.9746 70.3158C33.4611 70.3158 32.2342 69.1202 32.2342 67.6454C32.2342 66.6777 32.7623 65.8303 33.5531 65.3619V59.3635C33.5531 58.6167 34.1743 58.0114 34.9406 58.0114Z" fill="url(#paint1_linear_594_16160)" fill-opacity="0.45"/>
<path fill-rule="evenodd" clip-rule="evenodd" d="M55.0087 14.0648C50.6531 14.5385 47.0863 17.5122 45.8533 21.6977L45.6641 22.34L41.5775 22.3773C37.2799 22.4165 37.0663 22.4808 36.2285 22.733L36.1556 22.7549C33.9342 23.4209 32.4903 25.6547 32.1891 28.4245C32.1487 28.7963 32.0848 29.3895 32.0472 29.7428C31.8833 31.2823 31.8269 31.8089 31.6996 32.9878C31.6253 33.6757 31.4858 34.9839 31.3895 35.8948C31.2932 36.8058 31.1834 37.825 31.1455 38.1596C31.1077 38.4943 31.0431 39.0875 31.0021 39.4779C30.879 40.6498 30.7955 41.4376 30.7244 42.0976C30.6874 42.4415 30.6274 43.0044 30.5912 43.3483C30.4864 44.3415 30.3787 45.3463 30.3103 45.968C30.2755 46.2841 30.2137 46.8621 30.1729 47.2525C30.1321 47.643 30.0691 48.2362 30.0327 48.5708C30.0055 48.8211 29.9633 49.2159 29.9266 49.5624C21.8942 51.7408 16 58.9208 16 67.4423C16 77.6915 24.5264 86 35.0442 86C42.1474 86 48.3422 82.2105 51.616 76.5931C61.1636 76.6041 72.8139 76.5817 73.1556 76.5252C74.8503 76.2449 75.6845 76.0037 76.9214 75.4366C80.3992 73.8421 83.035 70.5752 83.7612 66.9595C84.0405 65.5685 84.0696 64.5215 83.8756 62.8356C83.8068 62.2372 83.7295 61.5362 83.5924 60.2666C83.5542 59.9133 83.4908 59.3277 83.4515 58.9652C83.4122 58.6027 83.3197 57.728 83.2458 57.0215C83.172 56.315 83.0622 55.2807 83.0017 54.7229C82.9412 54.1652 82.83 53.1308 82.7544 52.4244C82.6788 51.7179 82.5856 50.8508 82.5472 50.4976C82.4815 49.8908 82.4503 49.5958 82.2799 47.9624C82.2411 47.5906 82.1752 46.9821 82.1336 46.6103C82.0326 45.7101 81.9417 44.8633 81.8579 44.0413C81.82 43.6695 81.7593 43.0914 81.7229 42.7568C81.6865 42.4221 81.6251 41.8441 81.5862 41.4723C81.5474 41.1005 81.4823 40.492 81.4417 40.1202C81.401 39.7483 81.3377 39.1551 81.301 38.8019C81.2644 38.4486 81.2022 37.8706 81.1629 37.5174C81.1235 37.1641 81.014 36.1298 80.9194 35.2188C80.8249 34.3078 80.7007 33.1518 80.6435 32.6498C80.5861 32.1478 80.5082 31.4405 80.4701 31.078C80.3145 29.5943 80.2518 29.0016 80.1858 28.3906C79.8571 25.3481 77.9557 22.7549 75.3017 22.527C75.2354 22.5213 75.1727 22.5156 75.11 22.5099C74.5338 22.4575 73.9701 22.4063 70.7988 22.3773L66.7122 22.34L66.523 21.6977C65.0507 16.6997 60.2209 13.498 55.0087 14.0648ZM53.3983 72.4102C62.3508 72.4202 72.4039 72.3842 72.8735 72.3017C77.3616 71.5129 80.1175 67.8636 79.5882 63.4102C79.5045 62.7067 79.3709 61.4735 79.0463 58.4074C78.9538 57.5336 78.8457 56.5297 78.8061 56.1765C78.7665 55.8232 78.7034 55.23 78.6658 54.8581C78.6283 54.4863 78.5679 53.9083 78.5315 53.5736C78.4952 53.239 78.4311 52.6458 78.389 52.2553C78.347 51.8649 78.2829 51.2717 78.2465 50.937C78.2102 50.6024 78.1497 50.0244 78.1122 49.6525C78.0747 49.2807 78.0131 48.7027 77.9755 48.368C77.8666 47.4005 77.7653 46.4587 77.6952 45.7652C77.6596 45.412 77.5982 44.8263 77.5588 44.4638C77.4871 43.8045 77.4108 43.0991 77.2772 41.861C77.1499 40.68 76.8629 37.986 76.7246 36.6723C76.6501 35.9658 76.5568 35.0988 76.517 34.7456C76.4772 34.3923 76.4139 33.7991 76.3764 33.4272C76.3388 33.0554 76.2784 32.4774 76.2421 32.1427C76.2057 31.8081 76.1433 31.2301 76.1035 30.8582C76.0636 30.4864 76.0002 29.9084 75.9625 29.5737C75.9249 29.2391 75.8737 28.7675 75.849 28.5259C75.7606 27.6656 75.1858 26.916 74.4331 26.6791C73.8869 26.5072 38.446 26.5113 37.916 26.6833C37.0702 26.9579 36.6175 27.6494 36.4885 28.8639C36.447 29.2543 36.3837 29.8323 36.3478 30.1484C36.312 30.4644 36.2493 31.0425 36.2086 31.4329C36.1679 31.8233 36.1041 32.4242 36.0668 32.7681L35.9315 34.0188C35.8942 34.3627 35.8315 34.9484 35.7922 35.3202C35.7528 35.692 35.6435 36.7112 35.5493 37.585C35.4551 38.4588 35.3294 39.63 35.2701 40.1878C35.2109 40.7455 35.1311 41.4909 35.0931 41.8441C34.9817 42.8763 34.7483 45.0714 34.6796 45.7314C34.6448 46.0661 34.5831 46.6441 34.5423 47.0159C34.5016 47.3878 34.4365 47.9962 34.3977 48.368C34.3818 48.5201 34.3621 48.7067 34.3419 48.897C34.575 48.8888 34.8091 48.8847 35.0442 48.8847C45.562 48.8847 54.0884 57.1932 54.0884 67.4423C54.0884 69.163 53.8481 70.829 53.3983 72.4102ZM57.4938 18.3487C59.3819 18.7357 61.0305 19.9656 61.8811 21.6216C62.0315 21.9145 62.1546 22.2036 62.1546 22.264C62.1546 22.3644 61.648 22.3738 56.1881 22.3738C50.7283 22.3738 50.2216 22.3644 50.2216 22.264C50.2216 22.2036 50.3447 21.9145 50.4952 21.6216C51.7575 19.1641 54.7178 17.7797 57.4938 18.3487ZM50.2726 67.4423C50.2726 75.6379 43.4546 82.2817 35.0442 82.2817C26.6338 82.2817 19.8158 75.6379 19.8158 67.4423C19.8158 59.2468 26.6338 52.603 35.0442 52.603C43.4546 52.603 50.2726 59.2468 50.2726 67.4423Z" fill="url(#paint2_linear_594_16160)" fill-opacity="0.45"/>
<path d="M46.7181 35.0136C45.3051 35.6823 45.0703 37.4818 46.0301 40.2843C49.0073 48.9774 61.3557 49.9117 65.6883 41.7716C67.6441 38.0972 67.2116 34.9151 64.7563 34.9156C63.3799 34.916 62.715 35.6404 62.5703 37.2971C62.3382 39.9564 60.8821 41.8559 58.3042 42.8625C57.586 43.1429 56.0331 43.2755 55.1889 43.1284C52.1284 42.5955 50.0705 40.3626 49.806 37.2879C49.7211 36.3005 49.66 36.0904 49.3295 35.6472C48.7368 34.8527 47.627 34.5834 46.7181 35.0136Z" stroke="url(#paint3_linear_594_16160)" stroke-width="0.77729" mask="url(#path-1-inside-1_594_16160)"/>
<path d="M34.9406 58.0114C35.7069 58.0114 36.3282 58.6167 36.3282 59.3635V65.3229C37.1565 65.7823 37.715 66.6503 37.715 67.6454C37.715 67.7537 37.7084 67.8606 37.6955 67.9656L42.7616 71.6411C43.3763 72.0871 43.5036 72.9341 43.0459 73.5331C42.5883 74.1321 41.719 74.2561 41.1043 73.8102L36.0139 70.117C35.6934 70.2451 35.3425 70.3158 34.9746 70.3158C33.4611 70.3158 32.2342 69.1202 32.2342 67.6454C32.2342 66.6777 32.7623 65.8303 33.5531 65.3619V59.3635C33.5531 58.6167 34.1743 58.0114 34.9406 58.0114Z" stroke="url(#paint4_linear_594_16160)" stroke-width="0.77729" mask="url(#path-1-inside-1_594_16160)"/>
<path fill-rule="evenodd" clip-rule="evenodd" d="M55.0087 14.0648C50.6531 14.5385 47.0863 17.5122 45.8533 21.6977L45.6641 22.34L41.5775 22.3773C37.2799 22.4165 37.0663 22.4808 36.2285 22.733L36.1556 22.7549C33.9342 23.4209 32.4903 25.6547 32.1891 28.4245C32.1487 28.7963 32.0848 29.3895 32.0472 29.7428C31.8833 31.2823 31.8269 31.8089 31.6996 32.9878C31.6253 33.6757 31.4858 34.9839 31.3895 35.8948C31.2932 36.8058 31.1834 37.825 31.1455 38.1596C31.1077 38.4943 31.0431 39.0875 31.0021 39.4779C30.879 40.6498 30.7955 41.4376 30.7244 42.0976C30.6874 42.4415 30.6274 43.0044 30.5912 43.3483C30.4864 44.3415 30.3787 45.3463 30.3103 45.968C30.2755 46.2841 30.2137 46.8621 30.1729 47.2525C30.1321 47.643 30.0691 48.2362 30.0327 48.5708C30.0055 48.8211 29.9633 49.2159 29.9266 49.5624C21.8942 51.7408 16 58.9208 16 67.4423C16 77.6915 24.5264 86 35.0442 86C42.1474 86 48.3422 82.2105 51.616 76.5931C61.1636 76.6041 72.8139 76.5817 73.1556 76.5252C74.8503 76.2449 75.6845 76.0037 76.9214 75.4366C80.3992 73.8421 83.035 70.5752 83.7612 66.9595C84.0405 65.5685 84.0696 64.5215 83.8756 62.8356C83.8068 62.2372 83.7295 61.5362 83.5924 60.2666C83.5542 59.9133 83.4908 59.3277 83.4515 58.9652C83.4122 58.6027 83.3197 57.728 83.2458 57.0215C83.172 56.315 83.0622 55.2807 83.0017 54.7229C82.9412 54.1652 82.83 53.1308 82.7544 52.4244C82.6788 51.7179 82.5856 50.8508 82.5472 50.4976C82.4815 49.8908 82.4503 49.5958 82.2799 47.9624C82.2411 47.5906 82.1752 46.9821 82.1336 46.6103C82.0326 45.7101 81.9417 44.8633 81.8579 44.0413C81.82 43.6695 81.7593 43.0914 81.7229 42.7568C81.6865 42.4221 81.6251 41.8441 81.5862 41.4723C81.5474 41.1005 81.4823 40.492 81.4417 40.1202C81.401 39.7483 81.3377 39.1551 81.301 38.8019C81.2644 38.4486 81.2022 37.8706 81.1629 37.5174C81.1235 37.1641 81.014 36.1298 80.9194 35.2188C80.8249 34.3078 80.7007 33.1518 80.6435 32.6498C80.5861 32.1478 80.5082 31.4405 80.4701 31.078C80.3145 29.5943 80.2518 29.0016 80.1858 28.3906C79.8571 25.3481 77.9557 22.7549 75.3017 22.527C75.2354 22.5213 75.1727 22.5156 75.11 22.5099C74.5338 22.4575 73.9701 22.4063 70.7988 22.3773L66.7122 22.34L66.523 21.6977C65.0507 16.6997 60.2209 13.498 55.0087 14.0648ZM53.3983 72.4102C62.3508 72.4202 72.4039 72.3842 72.8735 72.3017C77.3616 71.5129 80.1175 67.8636 79.5882 63.4102C79.5045 62.7067 79.3709 61.4735 79.0463 58.4074C78.9538 57.5336 78.8457 56.5297 78.8061 56.1765C78.7665 55.8232 78.7034 55.23 78.6658 54.8581C78.6283 54.4863 78.5679 53.9083 78.5315 53.5736C78.4952 53.239 78.4311 52.6458 78.389 52.2553C78.347 51.8649 78.2829 51.2717 78.2465 50.937C78.2102 50.6024 78.1497 50.0244 78.1122 49.6525C78.0747 49.2807 78.0131 48.7027 77.9755 48.368C77.8666 47.4005 77.7653 46.4587 77.6952 45.7652C77.6596 45.412 77.5982 44.8263 77.5588 44.4638C77.4871 43.8045 77.4108 43.0991 77.2772 41.861C77.1499 40.68 76.8629 37.986 76.7246 36.6723C76.6501 35.9658 76.5568 35.0988 76.517 34.7456C76.4772 34.3923 76.4139 33.7991 76.3764 33.4272C76.3388 33.0554 76.2784 32.4774 76.2421 32.1427C76.2057 31.8081 76.1433 31.2301 76.1035 30.8582C76.0636 30.4864 76.0002 29.9084 75.9625 29.5737C75.9249 29.2391 75.8737 28.7675 75.849 28.5259C75.7606 27.6656 75.1858 26.916 74.4331 26.6791C73.8869 26.5072 38.446 26.5113 37.916 26.6833C37.0702 26.9579 36.6175 27.6494 36.4885 28.8639C36.447 29.2543 36.3837 29.8323 36.3478 30.1484C36.312 30.4644 36.2493 31.0425 36.2086 31.4329C36.1679 31.8233 36.1041 32.4242 36.0668 32.7681L35.9315 34.0188C35.8942 34.3627 35.8315 34.9484 35.7922 35.3202C35.7528 35.692 35.6435 36.7112 35.5493 37.585C35.4551 38.4588 35.3294 39.63 35.2701 40.1878C35.2109 40.7455 35.1311 41.4909 35.0931 41.8441C34.9817 42.8763 34.7483 45.0714 34.6796 45.7314C34.6448 46.0661 34.5831 46.6441 34.5423 47.0159C34.5016 47.3878 34.4365 47.9962 34.3977 48.368C34.3818 48.5201 34.3621 48.7067 34.3419 48.897C34.575 48.8888 34.8091 48.8847 35.0442 48.8847C45.562 48.8847 54.0884 57.1932 54.0884 67.4423C54.0884 69.163 53.8481 70.829 53.3983 72.4102ZM57.4938 18.3487C59.3819 18.7357 61.0305 19.9656 61.8811 21.6216C62.0315 21.9145 62.1546 22.2036 62.1546 22.264C62.1546 22.3644 61.648 22.3738 56.1881 22.3738C50.7283 22.3738 50.2216 22.3644 50.2216 22.264C50.2216 22.2036 50.3447 21.9145 50.4952 21.6216C51.7575 19.1641 54.7178 17.7797 57.4938 18.3487ZM50.2726 67.4423C50.2726 75.6379 43.4546 82.2817 35.0442 82.2817C26.6338 82.2817 19.8158 75.6379 19.8158 67.4423C19.8158 59.2468 26.6338 52.603 35.0442 52.603C43.4546 52.603 50.2726 59.2468 50.2726 67.4423Z" stroke="url(#paint5_linear_594_16160)" stroke-width="0.77729" mask="url(#path-1-inside-1_594_16160)"/>
</g>
<defs>
<filter id="filter0_b_594_16160" x="13.7649" y="11.7649" width="72.4702" height="76.4702" filterUnits="userSpaceOnUse" color-interpolation-filters="sRGB">
<feFlood flood-opacity="0" result="BackgroundImageFix"/>
<feGaussianBlur in="BackgroundImageFix" stdDeviation="1.11756"/>
<feComposite in2="SourceAlpha" operator="in" result="effect1_backgroundBlur_594_16160"/>
<feBlend mode="normal" in="SourceGraphic" in2="effect1_backgroundBlur_594_16160" result="shape"/>
</filter>
<linearGradient id="paint0_linear_594_16160" x1="16" y1="95.1084" x2="84.3869" y2="30.139" gradientUnits="userSpaceOnUse">
<stop stop-color="#686CF8"/>
<stop offset="1" stop-color="#ECABF1"/>
</linearGradient>
<linearGradient id="paint1_linear_594_16160" x1="16" y1="95.1084" x2="84.3869" y2="30.139" gradientUnits="userSpaceOnUse">
<stop stop-color="#686CF8"/>
<stop offset="1" stop-color="#ECABF1"/>
</linearGradient>
<linearGradient id="paint2_linear_594_16160" x1="16" y1="95.1084" x2="84.3869" y2="30.139" gradientUnits="userSpaceOnUse">
<stop stop-color="#686CF8"/>
<stop offset="1" stop-color="#ECABF1"/>
</linearGradient>
<linearGradient id="paint3_linear_594_16160" x1="84" y1="24.8434" x2="-16.6379" y2="55.8911" gradientUnits="userSpaceOnUse">
<stop stop-color="#9A7EBC" stop-opacity="0.7"/>
<stop offset="1" stop-color="#4F569F" stop-opacity="0.46"/>
</linearGradient>
<linearGradient id="paint4_linear_594_16160" x1="84" y1="24.8434" x2="-16.6379" y2="55.8911" gradientUnits="userSpaceOnUse">
<stop stop-color="#9A7EBC" stop-opacity="0.7"/>
<stop offset="1" stop-color="#4F569F" stop-opacity="0.46"/>
</linearGradient>
<linearGradient id="paint5_linear_594_16160" x1="84" y1="24.8434" x2="-16.6379" y2="55.8911" gradientUnits="userSpaceOnUse">
<stop stop-color="#9A7EBC" stop-opacity="0.7"/>
<stop offset="1" stop-color="#4F569F" stop-opacity="0.46"/>
</linearGradient>
</defs>
</svg>
