<svg width="73" height="77" viewBox="0 0 73 77" fill="none" xmlns="http://www.w3.org/2000/svg">
<g filter="url(#filter0_b_2_62087)">
<mask id="path-1-inside-1_2_62087" fill="white">
<path d="M33.3684 22.6053C31.8691 23.3182 31.6199 25.2366 32.6384 28.2243C35.7974 37.4918 48.9003 38.4878 53.4976 29.8099C55.5729 25.8926 55.1139 22.5003 52.5086 22.5009C51.0482 22.5012 50.3426 23.2735 50.1891 25.0397C49.9428 27.8747 48.3977 29.8997 45.6623 30.9728C44.9003 31.2717 43.2525 31.4131 42.3567 31.2563C39.1092 30.6882 36.9256 28.3078 36.645 25.0298C36.5549 23.9773 36.4901 23.7532 36.1393 23.2808C35.5104 22.4338 34.3328 22.1467 33.3684 22.6053Z"/>
<path d="M20.8714 47.1227C21.6845 47.1227 22.3437 47.7681 22.3437 48.5642V54.9174C23.2226 55.4071 23.8153 56.3325 23.8153 57.3933C23.8153 57.5089 23.8083 57.6228 23.7946 57.7348L29.1702 61.6531C29.8224 62.1285 29.9575 63.0316 29.4719 63.6701C28.9863 64.3087 28.0639 64.4409 27.4117 63.9655L22.0102 60.0283C21.6702 60.1649 21.2978 60.2402 20.9074 60.2402C19.3015 60.2402 17.9996 58.9656 17.9996 57.3933C17.9996 56.3617 18.56 55.4583 19.3991 54.9589V48.5642C19.3991 47.7681 20.0583 47.1227 20.8714 47.1227Z"/>
<path fill-rule="evenodd" clip-rule="evenodd" d="M42.1655 0.27221C37.5438 0.777223 33.7591 3.94741 32.4508 8.4095L32.25 9.09419L27.9137 9.13398C23.3536 9.17582 23.127 9.24434 22.238 9.51317L22.1606 9.53653C19.8035 10.2466 18.2714 12.628 17.9518 15.5807C17.909 15.9771 17.8411 16.6096 17.8013 16.9861C17.6273 18.6275 17.5674 19.1888 17.4324 20.4456C17.3535 21.179 17.2055 22.5736 17.1033 23.5448C17.0011 24.5159 16.8847 25.6024 16.8445 25.9592C16.8043 26.316 16.7358 26.9484 16.6923 27.3646C16.5616 28.6139 16.473 29.4538 16.3976 30.1574C16.3584 30.5241 16.2947 31.1241 16.2563 31.4908C16.1451 32.5496 16.0308 33.6208 15.9582 34.2836C15.9213 34.6205 15.8557 35.2368 15.8124 35.653C15.7691 36.0692 15.7022 36.7016 15.6637 37.0584C15.6348 37.3251 15.59 37.746 15.551 38.1154C7.02794 40.4378 0.773621 48.0923 0.773621 57.1769C0.773621 68.1033 9.82091 76.9608 20.9813 76.9608C28.5184 76.9608 35.0918 72.921 38.5655 66.9323C48.6965 66.9441 61.0585 66.9202 61.4211 66.8599C63.2193 66.5611 64.1045 66.304 65.417 65.6994C69.1073 63.9995 71.9041 60.5168 72.6746 56.6622C72.971 55.1793 73.0019 54.063 72.796 52.2657C72.723 51.6278 72.641 50.8805 72.4955 49.527C72.455 49.1504 72.3878 48.526 72.346 48.1396C72.3044 47.7531 72.2062 46.8206 72.1277 46.0675C72.0494 45.3143 71.9329 44.2116 71.8688 43.617C71.8046 43.0224 71.6865 41.9197 71.6063 41.1665C71.5261 40.4134 71.4272 39.489 71.3865 39.1125C71.3167 38.4656 71.2837 38.1511 71.1029 36.4097C71.0616 36.0133 70.9918 35.3647 70.9475 34.9683C70.8404 34.0086 70.744 33.1058 70.6551 32.2295C70.6148 31.8331 70.5504 31.2169 70.5118 30.8601C70.4732 30.5034 70.408 29.8872 70.3668 29.4908C70.3255 29.0944 70.2565 28.4457 70.2134 28.0493C70.1702 27.6529 70.1031 27.0205 70.0641 26.6439C70.0253 26.2673 69.9593 25.6511 69.9176 25.2745C69.8758 24.8979 69.7596 23.7952 69.6592 22.824C69.559 21.8529 69.4271 20.6204 69.3664 20.0853C69.3056 19.5501 69.2228 18.7961 69.1825 18.4096C69.0173 16.8279 68.9508 16.196 68.8808 15.5447C68.532 12.3011 66.5144 9.53653 63.6983 9.29355C63.628 9.28748 63.5614 9.28139 63.4949 9.27532C62.8835 9.21948 62.2854 9.16486 58.9203 9.13398L54.584 9.09419L54.3833 8.4095C52.821 3.08117 47.6962 -0.332047 42.1655 0.27221ZM40.4568 62.473C49.9562 62.4837 60.6235 62.4453 61.1217 62.3573C65.884 61.5164 68.8083 57.626 68.2466 52.8783C68.1578 52.1283 68.0161 50.8137 67.6717 47.545C67.5735 46.6134 67.4588 45.5431 67.4167 45.1666C67.3748 44.79 67.3078 44.1575 67.268 43.7611C67.2281 43.3647 67.164 42.7485 67.1255 42.3918C67.0869 42.035 67.0188 41.4026 66.9742 40.9863C66.9296 40.5701 66.8616 39.9377 66.823 39.5809C66.7845 39.2242 66.7203 38.6079 66.6805 38.2115C66.6407 37.8151 66.5754 37.1989 66.5354 36.8422C66.4199 35.8107 66.3124 34.8066 66.2381 34.0674C66.2002 33.6908 66.1351 33.0664 66.0933 32.68C66.0172 31.9771 65.9362 31.2251 65.7945 29.9052C65.6594 28.6461 65.3549 25.7741 65.2081 24.3736C65.1291 23.6204 65.03 22.6961 64.9878 22.3195C64.9456 21.9429 64.8784 21.3105 64.8386 20.9141C64.7988 20.5177 64.7347 19.9015 64.6961 19.5447C64.6575 19.188 64.5914 18.5717 64.5491 18.1753C64.5068 17.7789 64.4395 17.1627 64.3995 16.806C64.3595 16.4492 64.3053 15.9465 64.279 15.6888C64.1853 14.7718 63.5754 13.9726 62.7766 13.72C62.1971 13.5368 24.591 13.5411 24.0286 13.7246C23.1311 14.0173 22.6507 14.7545 22.5138 16.0492C22.4698 16.4654 22.4026 17.0816 22.3646 17.4186C22.3265 17.7555 22.26 18.3717 22.2168 18.788C22.1736 19.2042 22.106 19.8448 22.0664 20.2114L21.9228 21.5447C21.8833 21.9114 21.8167 22.5357 21.775 22.9321C21.7332 23.3285 21.6172 24.415 21.5173 25.3466C21.4173 26.2781 21.284 27.5268 21.221 28.1214C21.1582 28.716 21.0736 29.5106 21.0332 29.8872C20.915 30.9876 20.6673 33.3277 20.5945 34.0313C20.5575 34.3881 20.492 35.0043 20.4488 35.4007C20.4056 35.7971 20.3365 36.4458 20.2953 36.8422C20.2784 37.0043 20.2575 37.2032 20.2361 37.4061C20.4834 37.3974 20.7318 37.3929 20.9813 37.3929C32.1417 37.3929 41.189 46.2505 41.189 57.1769C41.189 59.0113 40.934 60.7874 40.4568 62.473ZM44.8024 4.83917C46.8059 5.25178 48.5552 6.56293 49.4577 8.32835C49.6174 8.64064 49.748 8.94882 49.748 9.01318C49.748 9.12028 49.2104 9.13023 43.417 9.13023C37.6236 9.13023 37.086 9.12028 37.086 9.01318C37.086 8.94882 37.2166 8.64064 37.3763 8.32835C38.7156 5.70843 41.8569 4.23253 44.8024 4.83917ZM37.1401 57.1769C37.1401 65.914 29.9056 72.9968 20.9813 72.9968C12.0571 72.9968 4.82252 65.914 4.82252 57.1769C4.82252 48.4398 12.0571 41.3569 20.9813 41.3569C29.9056 41.3569 37.1401 48.4398 37.1401 57.1769Z"/>
</mask>
<path d="M33.3684 22.6053C31.8691 23.3182 31.6199 25.2366 32.6384 28.2243C35.7974 37.4918 48.9003 38.4878 53.4976 29.8099C55.5729 25.8926 55.1139 22.5003 52.5086 22.5009C51.0482 22.5012 50.3426 23.2735 50.1891 25.0397C49.9428 27.8747 48.3977 29.8997 45.6623 30.9728C44.9003 31.2717 43.2525 31.4131 42.3567 31.2563C39.1092 30.6882 36.9256 28.3078 36.645 25.0298C36.5549 23.9773 36.4901 23.7532 36.1393 23.2808C35.5104 22.4338 34.3328 22.1467 33.3684 22.6053Z" fill="url(#paint0_linear_2_62087)" fill-opacity="0.45"/>
<path d="M20.8714 47.1227C21.6845 47.1227 22.3437 47.7681 22.3437 48.5642V54.9174C23.2226 55.4071 23.8153 56.3325 23.8153 57.3933C23.8153 57.5089 23.8083 57.6228 23.7946 57.7348L29.1702 61.6531C29.8224 62.1285 29.9575 63.0316 29.4719 63.6701C28.9863 64.3087 28.0639 64.4409 27.4117 63.9655L22.0102 60.0283C21.6702 60.1649 21.2978 60.2402 20.9074 60.2402C19.3015 60.2402 17.9996 58.9656 17.9996 57.3933C17.9996 56.3617 18.56 55.4583 19.3991 54.9589V48.5642C19.3991 47.7681 20.0583 47.1227 20.8714 47.1227Z" fill="url(#paint1_linear_2_62087)" fill-opacity="0.45"/>
<path fill-rule="evenodd" clip-rule="evenodd" d="M42.1655 0.27221C37.5438 0.777223 33.7591 3.94741 32.4508 8.4095L32.25 9.09419L27.9137 9.13398C23.3536 9.17582 23.127 9.24434 22.238 9.51317L22.1606 9.53653C19.8035 10.2466 18.2714 12.628 17.9518 15.5807C17.909 15.9771 17.8411 16.6096 17.8013 16.9861C17.6273 18.6275 17.5674 19.1888 17.4324 20.4456C17.3535 21.179 17.2055 22.5736 17.1033 23.5448C17.0011 24.5159 16.8847 25.6024 16.8445 25.9592C16.8043 26.316 16.7358 26.9484 16.6923 27.3646C16.5616 28.6139 16.473 29.4538 16.3976 30.1574C16.3584 30.5241 16.2947 31.1241 16.2563 31.4908C16.1451 32.5496 16.0308 33.6208 15.9582 34.2836C15.9213 34.6205 15.8557 35.2368 15.8124 35.653C15.7691 36.0692 15.7022 36.7016 15.6637 37.0584C15.6348 37.3251 15.59 37.746 15.551 38.1154C7.02794 40.4378 0.773621 48.0923 0.773621 57.1769C0.773621 68.1033 9.82091 76.9608 20.9813 76.9608C28.5184 76.9608 35.0918 72.921 38.5655 66.9323C48.6965 66.9441 61.0585 66.9202 61.4211 66.8599C63.2193 66.5611 64.1045 66.304 65.417 65.6994C69.1073 63.9995 71.9041 60.5168 72.6746 56.6622C72.971 55.1793 73.0019 54.063 72.796 52.2657C72.723 51.6278 72.641 50.8805 72.4955 49.527C72.455 49.1504 72.3878 48.526 72.346 48.1396C72.3044 47.7531 72.2062 46.8206 72.1277 46.0675C72.0494 45.3143 71.9329 44.2116 71.8688 43.617C71.8046 43.0224 71.6865 41.9197 71.6063 41.1665C71.5261 40.4134 71.4272 39.489 71.3865 39.1125C71.3167 38.4656 71.2837 38.1511 71.1029 36.4097C71.0616 36.0133 70.9918 35.3647 70.9475 34.9683C70.8404 34.0086 70.744 33.1058 70.6551 32.2295C70.6148 31.8331 70.5504 31.2169 70.5118 30.8601C70.4732 30.5034 70.408 29.8872 70.3668 29.4908C70.3255 29.0944 70.2565 28.4457 70.2134 28.0493C70.1702 27.6529 70.1031 27.0205 70.0641 26.6439C70.0253 26.2673 69.9593 25.6511 69.9176 25.2745C69.8758 24.8979 69.7596 23.7952 69.6592 22.824C69.559 21.8529 69.4271 20.6204 69.3664 20.0853C69.3056 19.5501 69.2228 18.7961 69.1825 18.4096C69.0173 16.8279 68.9508 16.196 68.8808 15.5447C68.532 12.3011 66.5144 9.53653 63.6983 9.29355C63.628 9.28748 63.5614 9.28139 63.4949 9.27532C62.8835 9.21948 62.2854 9.16486 58.9203 9.13398L54.584 9.09419L54.3833 8.4095C52.821 3.08117 47.6962 -0.332047 42.1655 0.27221ZM40.4568 62.473C49.9562 62.4837 60.6235 62.4453 61.1217 62.3573C65.884 61.5164 68.8083 57.626 68.2466 52.8783C68.1578 52.1283 68.0161 50.8137 67.6717 47.545C67.5735 46.6134 67.4588 45.5431 67.4167 45.1666C67.3748 44.79 67.3078 44.1575 67.268 43.7611C67.2281 43.3647 67.164 42.7485 67.1255 42.3918C67.0869 42.035 67.0188 41.4026 66.9742 40.9863C66.9296 40.5701 66.8616 39.9377 66.823 39.5809C66.7845 39.2242 66.7203 38.6079 66.6805 38.2115C66.6407 37.8151 66.5754 37.1989 66.5354 36.8422C66.4199 35.8107 66.3124 34.8066 66.2381 34.0674C66.2002 33.6908 66.1351 33.0664 66.0933 32.68C66.0172 31.9771 65.9362 31.2251 65.7945 29.9052C65.6594 28.6461 65.3549 25.7741 65.2081 24.3736C65.1291 23.6204 65.03 22.6961 64.9878 22.3195C64.9456 21.9429 64.8784 21.3105 64.8386 20.9141C64.7988 20.5177 64.7347 19.9015 64.6961 19.5447C64.6575 19.188 64.5914 18.5717 64.5491 18.1753C64.5068 17.7789 64.4395 17.1627 64.3995 16.806C64.3595 16.4492 64.3053 15.9465 64.279 15.6888C64.1853 14.7718 63.5754 13.9726 62.7766 13.72C62.1971 13.5368 24.591 13.5411 24.0286 13.7246C23.1311 14.0173 22.6507 14.7545 22.5138 16.0492C22.4698 16.4654 22.4026 17.0816 22.3646 17.4186C22.3265 17.7555 22.26 18.3717 22.2168 18.788C22.1736 19.2042 22.106 19.8448 22.0664 20.2114L21.9228 21.5447C21.8833 21.9114 21.8167 22.5357 21.775 22.9321C21.7332 23.3285 21.6172 24.415 21.5173 25.3466C21.4173 26.2781 21.284 27.5268 21.221 28.1214C21.1582 28.716 21.0736 29.5106 21.0332 29.8872C20.915 30.9876 20.6673 33.3277 20.5945 34.0313C20.5575 34.3881 20.492 35.0043 20.4488 35.4007C20.4056 35.7971 20.3365 36.4458 20.2953 36.8422C20.2784 37.0043 20.2575 37.2032 20.2361 37.4061C20.4834 37.3974 20.7318 37.3929 20.9813 37.3929C32.1417 37.3929 41.189 46.2505 41.189 57.1769C41.189 59.0113 40.934 60.7874 40.4568 62.473ZM44.8024 4.83917C46.8059 5.25178 48.5552 6.56293 49.4577 8.32835C49.6174 8.64064 49.748 8.94882 49.748 9.01318C49.748 9.12028 49.2104 9.13023 43.417 9.13023C37.6236 9.13023 37.086 9.12028 37.086 9.01318C37.086 8.94882 37.2166 8.64064 37.3763 8.32835C38.7156 5.70843 41.8569 4.23253 44.8024 4.83917ZM37.1401 57.1769C37.1401 65.914 29.9056 72.9968 20.9813 72.9968C12.0571 72.9968 4.82252 65.914 4.82252 57.1769C4.82252 48.4398 12.0571 41.3569 20.9813 41.3569C29.9056 41.3569 37.1401 48.4398 37.1401 57.1769Z" fill="url(#paint2_linear_2_62087)" fill-opacity="0.45"/>
<path d="M33.3684 22.6053C31.8691 23.3182 31.6199 25.2366 32.6384 28.2243C35.7974 37.4918 48.9003 38.4878 53.4976 29.8099C55.5729 25.8926 55.1139 22.5003 52.5086 22.5009C51.0482 22.5012 50.3426 23.2735 50.1891 25.0397C49.9428 27.8747 48.3977 29.8997 45.6623 30.9728C44.9003 31.2717 43.2525 31.4131 42.3567 31.2563C39.1092 30.6882 36.9256 28.3078 36.645 25.0298C36.5549 23.9773 36.4901 23.7532 36.1393 23.2808C35.5104 22.4338 34.3328 22.1467 33.3684 22.6053Z" stroke="url(#paint3_linear_2_62087)" stroke-width="0.77729" mask="url(#path-1-inside-1_2_62087)"/>
<path d="M20.8714 47.1227C21.6845 47.1227 22.3437 47.7681 22.3437 48.5642V54.9174C23.2226 55.4071 23.8153 56.3325 23.8153 57.3933C23.8153 57.5089 23.8083 57.6228 23.7946 57.7348L29.1702 61.6531C29.8224 62.1285 29.9575 63.0316 29.4719 63.6701C28.9863 64.3087 28.0639 64.4409 27.4117 63.9655L22.0102 60.0283C21.6702 60.1649 21.2978 60.2402 20.9074 60.2402C19.3015 60.2402 17.9996 58.9656 17.9996 57.3933C17.9996 56.3617 18.56 55.4583 19.3991 54.9589V48.5642C19.3991 47.7681 20.0583 47.1227 20.8714 47.1227Z" stroke="url(#paint4_linear_2_62087)" stroke-width="0.77729" mask="url(#path-1-inside-1_2_62087)"/>
<path fill-rule="evenodd" clip-rule="evenodd" d="M42.1655 0.27221C37.5438 0.777223 33.7591 3.94741 32.4508 8.4095L32.25 9.09419L27.9137 9.13398C23.3536 9.17582 23.127 9.24434 22.238 9.51317L22.1606 9.53653C19.8035 10.2466 18.2714 12.628 17.9518 15.5807C17.909 15.9771 17.8411 16.6096 17.8013 16.9861C17.6273 18.6275 17.5674 19.1888 17.4324 20.4456C17.3535 21.179 17.2055 22.5736 17.1033 23.5448C17.0011 24.5159 16.8847 25.6024 16.8445 25.9592C16.8043 26.316 16.7358 26.9484 16.6923 27.3646C16.5616 28.6139 16.473 29.4538 16.3976 30.1574C16.3584 30.5241 16.2947 31.1241 16.2563 31.4908C16.1451 32.5496 16.0308 33.6208 15.9582 34.2836C15.9213 34.6205 15.8557 35.2368 15.8124 35.653C15.7691 36.0692 15.7022 36.7016 15.6637 37.0584C15.6348 37.3251 15.59 37.746 15.551 38.1154C7.02794 40.4378 0.773621 48.0923 0.773621 57.1769C0.773621 68.1033 9.82091 76.9608 20.9813 76.9608C28.5184 76.9608 35.0918 72.921 38.5655 66.9323C48.6965 66.9441 61.0585 66.9202 61.4211 66.8599C63.2193 66.5611 64.1045 66.304 65.417 65.6994C69.1073 63.9995 71.9041 60.5168 72.6746 56.6622C72.971 55.1793 73.0019 54.063 72.796 52.2657C72.723 51.6278 72.641 50.8805 72.4955 49.527C72.455 49.1504 72.3878 48.526 72.346 48.1396C72.3044 47.7531 72.2062 46.8206 72.1277 46.0675C72.0494 45.3143 71.9329 44.2116 71.8688 43.617C71.8046 43.0224 71.6865 41.9197 71.6063 41.1665C71.5261 40.4134 71.4272 39.489 71.3865 39.1125C71.3167 38.4656 71.2837 38.1511 71.1029 36.4097C71.0616 36.0133 70.9918 35.3647 70.9475 34.9683C70.8404 34.0086 70.744 33.1058 70.6551 32.2295C70.6148 31.8331 70.5504 31.2169 70.5118 30.8601C70.4732 30.5034 70.408 29.8872 70.3668 29.4908C70.3255 29.0944 70.2565 28.4457 70.2134 28.0493C70.1702 27.6529 70.1031 27.0205 70.0641 26.6439C70.0253 26.2673 69.9593 25.6511 69.9176 25.2745C69.8758 24.8979 69.7596 23.7952 69.6592 22.824C69.559 21.8529 69.4271 20.6204 69.3664 20.0853C69.3056 19.5501 69.2228 18.7961 69.1825 18.4096C69.0173 16.8279 68.9508 16.196 68.8808 15.5447C68.532 12.3011 66.5144 9.53653 63.6983 9.29355C63.628 9.28748 63.5614 9.28139 63.4949 9.27532C62.8835 9.21948 62.2854 9.16486 58.9203 9.13398L54.584 9.09419L54.3833 8.4095C52.821 3.08117 47.6962 -0.332047 42.1655 0.27221ZM40.4568 62.473C49.9562 62.4837 60.6235 62.4453 61.1217 62.3573C65.884 61.5164 68.8083 57.626 68.2466 52.8783C68.1578 52.1283 68.0161 50.8137 67.6717 47.545C67.5735 46.6134 67.4588 45.5431 67.4167 45.1666C67.3748 44.79 67.3078 44.1575 67.268 43.7611C67.2281 43.3647 67.164 42.7485 67.1255 42.3918C67.0869 42.035 67.0188 41.4026 66.9742 40.9863C66.9296 40.5701 66.8616 39.9377 66.823 39.5809C66.7845 39.2242 66.7203 38.6079 66.6805 38.2115C66.6407 37.8151 66.5754 37.1989 66.5354 36.8422C66.4199 35.8107 66.3124 34.8066 66.2381 34.0674C66.2002 33.6908 66.1351 33.0664 66.0933 32.68C66.0172 31.9771 65.9362 31.2251 65.7945 29.9052C65.6594 28.6461 65.3549 25.7741 65.2081 24.3736C65.1291 23.6204 65.03 22.6961 64.9878 22.3195C64.9456 21.9429 64.8784 21.3105 64.8386 20.9141C64.7988 20.5177 64.7347 19.9015 64.6961 19.5447C64.6575 19.188 64.5914 18.5717 64.5491 18.1753C64.5068 17.7789 64.4395 17.1627 64.3995 16.806C64.3595 16.4492 64.3053 15.9465 64.279 15.6888C64.1853 14.7718 63.5754 13.9726 62.7766 13.72C62.1971 13.5368 24.591 13.5411 24.0286 13.7246C23.1311 14.0173 22.6507 14.7545 22.5138 16.0492C22.4698 16.4654 22.4026 17.0816 22.3646 17.4186C22.3265 17.7555 22.26 18.3717 22.2168 18.788C22.1736 19.2042 22.106 19.8448 22.0664 20.2114L21.9228 21.5447C21.8833 21.9114 21.8167 22.5357 21.775 22.9321C21.7332 23.3285 21.6172 24.415 21.5173 25.3466C21.4173 26.2781 21.284 27.5268 21.221 28.1214C21.1582 28.716 21.0736 29.5106 21.0332 29.8872C20.915 30.9876 20.6673 33.3277 20.5945 34.0313C20.5575 34.3881 20.492 35.0043 20.4488 35.4007C20.4056 35.7971 20.3365 36.4458 20.2953 36.8422C20.2784 37.0043 20.2575 37.2032 20.2361 37.4061C20.4834 37.3974 20.7318 37.3929 20.9813 37.3929C32.1417 37.3929 41.189 46.2505 41.189 57.1769C41.189 59.0113 40.934 60.7874 40.4568 62.473ZM44.8024 4.83917C46.8059 5.25178 48.5552 6.56293 49.4577 8.32835C49.6174 8.64064 49.748 8.94882 49.748 9.01318C49.748 9.12028 49.2104 9.13023 43.417 9.13023C37.6236 9.13023 37.086 9.12028 37.086 9.01318C37.086 8.94882 37.2166 8.64064 37.3763 8.32835C38.7156 5.70843 41.8569 4.23253 44.8024 4.83917ZM37.1401 57.1769C37.1401 65.914 29.9056 72.9968 20.9813 72.9968C12.0571 72.9968 4.82252 65.914 4.82252 57.1769C4.82252 48.4398 12.0571 41.3569 20.9813 41.3569C29.9056 41.3569 37.1401 48.4398 37.1401 57.1769Z" stroke="url(#paint5_linear_2_62087)" stroke-width="0.77729" mask="url(#path-1-inside-1_2_62087)"/>
</g>
<defs>
<filter id="filter0_b_2_62087" x="-1.46149" y="-2.03199" width="76.6246" height="81.228" filterUnits="userSpaceOnUse" color-interpolation-filters="sRGB">
<feFlood flood-opacity="0" result="BackgroundImageFix"/>
<feGaussianBlur in="BackgroundImageFix" stdDeviation="1.11756"/>
<feComposite in2="SourceAlpha" operator="in" result="effect1_backgroundBlur_2_62087"/>
<feBlend mode="normal" in="SourceGraphic" in2="effect1_backgroundBlur_2_62087" result="shape"/>
</filter>
<linearGradient id="paint0_linear_2_62087" x1="0.773624" y1="86.6711" x2="73.6612" y2="17.7498" gradientUnits="userSpaceOnUse">
<stop stop-color="#686CF8"/>
<stop offset="1" stop-color="#ECABF1"/>
</linearGradient>
<linearGradient id="paint1_linear_2_62087" x1="0.773624" y1="86.6711" x2="73.6612" y2="17.7498" gradientUnits="userSpaceOnUse">
<stop stop-color="#686CF8"/>
<stop offset="1" stop-color="#ECABF1"/>
</linearGradient>
<linearGradient id="paint2_linear_2_62087" x1="0.773624" y1="86.6711" x2="73.6612" y2="17.7498" gradientUnits="userSpaceOnUse">
<stop stop-color="#686CF8"/>
<stop offset="1" stop-color="#ECABF1"/>
</linearGradient>
<linearGradient id="paint3_linear_2_62087" x1="72.928" y1="11.763" x2="-33.9449" y2="44.5801" gradientUnits="userSpaceOnUse">
<stop stop-color="#9A7EBC" stop-opacity="0.7"/>
<stop offset="1" stop-color="#4F569F" stop-opacity="0.46"/>
</linearGradient>
<linearGradient id="paint4_linear_2_62087" x1="72.928" y1="11.763" x2="-33.9449" y2="44.5801" gradientUnits="userSpaceOnUse">
<stop stop-color="#9A7EBC" stop-opacity="0.7"/>
<stop offset="1" stop-color="#4F569F" stop-opacity="0.46"/>
</linearGradient>
<linearGradient id="paint5_linear_2_62087" x1="72.928" y1="11.763" x2="-33.9449" y2="44.5801" gradientUnits="userSpaceOnUse">
<stop stop-color="#9A7EBC" stop-opacity="0.7"/>
<stop offset="1" stop-color="#4F569F" stop-opacity="0.46"/>
</linearGradient>
</defs>
</svg>
