<svg width="778" height="333" viewBox="0 0 778 333" fill="none" xmlns="http://www.w3.org/2000/svg">
<rect x="0.0195312" width="777.98" height="332.02" rx="8" fill="#1A1932"/>
<path d="M186.251 157.126C185.945 157.433 185.945 157.929 186.251 158.235C186.557 158.542 187.054 158.542 187.36 158.235L186.251 157.126ZM191.443 153.044L191.997 152.49C191.691 152.183 191.194 152.183 190.888 152.49L191.443 153.044ZM193.761 155.363L193.206 155.917C193.513 156.223 194.009 156.223 194.316 155.917L193.761 155.363ZM198.977 150.146L199.532 149.591C199.226 149.285 198.729 149.285 198.423 149.591L198.977 150.146ZM203.06 155.337C203.366 155.644 203.863 155.644 204.169 155.337C204.475 155.031 204.475 154.535 204.169 154.228L203.06 155.337ZM187.36 158.235L191.997 153.599L190.888 152.49L186.251 157.126L187.36 158.235ZM190.888 153.599L193.206 155.917L194.316 154.808L191.997 152.49L190.888 153.599ZM194.316 155.917L199.532 150.701L198.423 149.591L193.206 154.808L194.316 155.917ZM198.423 150.701L203.06 155.337L204.169 154.228L199.532 149.591L198.423 150.701ZM189.124 141.657H200.716V140.088H189.124V141.657ZM203.41 144.35V155.942H204.978V144.35H203.41ZM200.716 158.635H189.124V160.204H200.716V158.635ZM186.431 155.942V144.35H184.862V155.942H186.431ZM189.124 158.635C187.637 158.635 186.431 157.43 186.431 155.942H184.862C184.862 158.296 186.77 160.204 189.124 160.204V158.635ZM203.41 155.942C203.41 157.43 202.204 158.635 200.716 158.635V160.204C203.07 160.204 204.978 158.296 204.978 155.942H203.41ZM200.716 141.657C202.204 141.657 203.41 142.862 203.41 144.35H204.978C204.978 141.996 203.07 140.088 200.716 140.088V141.657ZM189.124 140.088C186.77 140.088 184.862 141.996 184.862 144.35H186.431C186.431 142.862 187.637 141.657 189.124 141.657V140.088ZM191.818 146.089C191.818 146.616 191.39 147.043 190.863 147.043V148.612C192.256 148.612 193.386 147.482 193.386 146.089H191.818ZM190.863 147.043C190.336 147.043 189.908 146.616 189.908 146.089H188.34C188.34 147.482 189.469 148.612 190.863 148.612V147.043ZM189.908 146.089C189.908 145.562 190.336 145.134 190.863 145.134V143.566C189.469 143.566 188.34 144.695 188.34 146.089H189.908ZM190.863 145.134C191.39 145.134 191.818 145.562 191.818 146.089H193.386C193.386 144.695 192.256 143.566 190.863 143.566V145.134Z" fill="#96ABDE"/>
<path d="M223.23 156.146H224.707L220.551 144.873H219.16L215.004 156.146H216.48L217.613 152.919H222.098L223.23 156.146ZM219.793 146.693H219.918L221.684 151.724H218.027L219.793 146.693ZM229.16 156.294C230.324 156.294 231.324 155.74 231.855 154.802H231.98V156.146H233.262V144.38H231.918V149.052H231.801C231.324 148.13 230.332 147.576 229.16 147.576C227.02 147.576 225.621 149.294 225.621 151.935C225.621 154.583 227.004 156.294 229.16 156.294ZM229.473 148.787C230.996 148.787 231.949 150.005 231.949 151.935C231.949 153.88 231.004 155.083 229.473 155.083C227.934 155.083 227.012 153.904 227.012 151.935C227.012 149.974 227.941 148.787 229.473 148.787ZM238.988 156.294C240.152 156.294 241.152 155.74 241.684 154.802H241.809V156.146H243.09V144.38H241.746V149.052H241.629C241.152 148.13 240.16 147.576 238.988 147.576C236.848 147.576 235.449 149.294 235.449 151.935C235.449 154.583 236.832 156.294 238.988 156.294ZM239.301 148.787C240.824 148.787 241.777 150.005 241.777 151.935C241.777 153.88 240.832 155.083 239.301 155.083C237.762 155.083 236.84 153.904 236.84 151.935C236.84 149.974 237.77 148.787 239.301 148.787ZM251.793 156.146V144.873H250.387V156.146H251.793ZM254.496 156.146H255.84V150.927C255.84 149.74 256.691 148.787 257.793 148.787C258.855 148.787 259.551 149.427 259.551 150.427V156.146H260.895V150.732C260.895 149.662 261.676 148.787 262.848 148.787C264.035 148.787 264.621 149.396 264.621 150.638V156.146H265.965V150.326C265.965 148.56 265.004 147.576 263.285 147.576C262.121 147.576 261.16 148.162 260.707 149.052H260.582C260.191 148.177 259.395 147.576 258.254 147.576C257.129 147.576 256.285 148.115 255.902 149.052H255.777V147.724H254.496V156.146ZM271.012 155.115C270.035 155.115 269.309 154.615 269.309 153.755C269.309 152.912 269.871 152.466 271.152 152.38L273.418 152.232V153.005C273.418 154.208 272.395 155.115 271.012 155.115ZM270.762 156.294C271.887 156.294 272.809 155.802 273.355 154.904H273.48V156.146H274.762V150.38C274.762 148.63 273.613 147.576 271.559 147.576C269.762 147.576 268.434 148.466 268.254 149.818H269.613C269.801 149.154 270.504 148.771 271.512 148.771C272.77 148.771 273.418 149.341 273.418 150.38V151.146L270.988 151.294C269.027 151.412 267.918 152.279 267.918 153.787C267.918 155.326 269.129 156.294 270.762 156.294ZM280.652 154.833C279.09 154.833 278.215 153.646 278.215 151.81C278.215 149.974 279.09 148.787 280.652 148.787C282.207 148.787 283.152 149.974 283.152 151.81C283.152 153.646 282.215 154.833 280.652 154.833ZM280.715 159.38C283.012 159.38 284.465 158.177 284.465 156.294V147.724H283.184V149.06H283.059C282.574 148.154 281.535 147.576 280.355 147.576C278.191 147.576 276.824 149.287 276.824 151.81C276.824 154.333 278.176 156.021 280.355 156.021C281.512 156.021 282.465 155.498 282.996 154.568H283.121V156.224C283.121 157.466 282.223 158.208 280.715 158.208C279.504 158.208 278.754 157.763 278.605 157.076H277.184C277.387 158.466 278.684 159.38 280.715 159.38ZM290.355 148.763C291.691 148.763 292.582 149.748 292.613 151.24H287.973C288.074 149.748 289.012 148.763 290.355 148.763ZM292.574 153.966C292.223 154.708 291.488 155.107 290.402 155.107C288.973 155.107 288.043 154.052 287.973 152.388V152.326H294.027V151.81C294.027 149.193 292.645 147.576 290.371 147.576C288.059 147.576 286.574 149.294 286.574 151.943C286.574 154.607 288.035 156.294 290.371 156.294C292.215 156.294 293.512 155.412 293.918 153.966H292.574ZM295.941 150.029C295.941 151.248 296.66 151.927 298.238 152.31L299.684 152.662C300.582 152.88 301.02 153.271 301.02 153.849C301.02 154.623 300.207 155.162 299.074 155.162C297.996 155.162 297.324 154.708 297.098 153.998H295.715C295.863 155.396 297.152 156.294 299.027 156.294C300.941 156.294 302.402 155.255 302.402 153.748C302.402 152.537 301.637 151.849 300.051 151.466L298.754 151.154C297.762 150.912 297.293 150.552 297.293 149.974C297.293 149.224 298.074 148.716 299.074 148.716C300.09 148.716 300.746 149.162 300.926 149.833H302.254C302.074 148.451 300.848 147.576 299.082 147.576C297.293 147.576 295.941 148.63 295.941 150.029Z" fill="#6E8DD7"/>
<line x1="323.159" y1="142.418" x2="323.159" y2="157.874" stroke="#C8D8FF" stroke-opacity="0.1" stroke-width="0.966013"/>
<path d="M353.588 148.407H351.27M357.066 150.625L361.857 154.058C362.354 154.364 362.875 154.184 362.862 153.545L362.842 146.802C362.799 146.109 362.395 145.92 361.8 146.24L357.066 149.462M346.633 155.363H354.747C356.028 155.363 357.066 154.325 357.066 153.044V147.248C357.066 145.968 356.028 144.93 354.747 144.93H346.633C345.352 144.93 344.314 145.968 344.314 147.248V153.044C344.314 154.325 345.352 155.363 346.633 155.363Z" stroke="#96ABDE" stroke-width="1.56854" stroke-linecap="round" stroke-linejoin="round"/>
<path d="M381.789 156.146H383.266L379.109 144.873H377.719L373.562 156.146H375.039L376.172 152.919H380.656L381.789 156.146ZM378.352 146.693H378.477L380.242 151.724H376.586L378.352 146.693ZM387.719 156.294C388.883 156.294 389.883 155.74 390.414 154.802H390.539V156.146H391.82V144.38H390.477V149.052H390.359C389.883 148.13 388.891 147.576 387.719 147.576C385.578 147.576 384.18 149.294 384.18 151.935C384.18 154.583 385.562 156.294 387.719 156.294ZM388.031 148.787C389.555 148.787 390.508 150.005 390.508 151.935C390.508 153.88 389.562 155.083 388.031 155.083C386.492 155.083 385.57 153.904 385.57 151.935C385.57 149.974 386.5 148.787 388.031 148.787ZM397.547 156.294C398.711 156.294 399.711 155.74 400.242 154.802H400.367V156.146H401.648V144.38H400.305V149.052H400.188C399.711 148.13 398.719 147.576 397.547 147.576C395.406 147.576 394.008 149.294 394.008 151.935C394.008 154.583 395.391 156.294 397.547 156.294ZM397.859 148.787C399.383 148.787 400.336 150.005 400.336 151.935C400.336 153.88 399.391 155.083 397.859 155.083C396.32 155.083 395.398 153.904 395.398 151.935C395.398 149.974 396.328 148.787 397.859 148.787ZM413.594 156.146L417.75 144.873H416.273L412.961 154.326H412.836L409.523 144.873H408.047L412.203 156.146H413.594ZM419.586 156.146H420.93V147.724H419.586V156.146ZM420.258 146.013C420.773 146.013 421.195 145.591 421.195 145.076C421.195 144.56 420.773 144.138 420.258 144.138C419.742 144.138 419.32 144.56 419.32 145.076C419.32 145.591 419.742 146.013 420.258 146.013ZM426.609 156.294C427.773 156.294 428.773 155.74 429.305 154.802H429.43V156.146H430.711V144.38H429.367V149.052H429.25C428.773 148.13 427.781 147.576 426.609 147.576C424.469 147.576 423.07 149.294 423.07 151.935C423.07 154.583 424.453 156.294 426.609 156.294ZM426.922 148.787C428.445 148.787 429.398 150.005 429.398 151.935C429.398 153.88 428.453 155.083 426.922 155.083C425.383 155.083 424.461 153.904 424.461 151.935C424.461 149.974 425.391 148.787 426.922 148.787ZM436.68 148.763C438.016 148.763 438.906 149.748 438.938 151.24H434.297C434.398 149.748 435.336 148.763 436.68 148.763ZM438.898 153.966C438.547 154.708 437.812 155.107 436.727 155.107C435.297 155.107 434.367 154.052 434.297 152.388V152.326H440.352V151.81C440.352 149.193 438.969 147.576 436.695 147.576C434.383 147.576 432.898 149.294 432.898 151.943C432.898 154.607 434.359 156.294 436.695 156.294C438.539 156.294 439.836 155.412 440.242 153.966H438.898ZM445.922 156.294C448.32 156.294 449.805 154.638 449.805 151.935C449.805 149.224 448.32 147.576 445.922 147.576C443.523 147.576 442.039 149.224 442.039 151.935C442.039 154.638 443.523 156.294 445.922 156.294ZM445.922 155.083C444.328 155.083 443.43 153.927 443.43 151.935C443.43 149.935 444.328 148.787 445.922 148.787C447.516 148.787 448.414 149.935 448.414 151.935C448.414 153.927 447.516 155.083 445.922 155.083ZM451.719 150.029C451.719 151.248 452.438 151.927 454.016 152.31L455.461 152.662C456.359 152.88 456.797 153.271 456.797 153.849C456.797 154.623 455.984 155.162 454.852 155.162C453.773 155.162 453.102 154.708 452.875 153.998H451.492C451.641 155.396 452.93 156.294 454.805 156.294C456.719 156.294 458.18 155.255 458.18 153.748C458.18 152.537 457.414 151.849 455.828 151.466L454.531 151.154C453.539 150.912 453.07 150.552 453.07 149.974C453.07 149.224 453.852 148.716 454.852 148.716C455.867 148.716 456.523 149.162 456.703 149.833H458.031C457.852 148.451 456.625 147.576 454.859 147.576C453.07 147.576 451.719 148.63 451.719 150.029Z" fill="#6E8DD7"/>
<line x1="478.826" y1="142.418" x2="478.826" y2="157.874" stroke="#C8D8FF" stroke-opacity="0.1" stroke-width="0.966013"/>
<path d="M504.791 148.398L502.633 150.556C501.827 151.362 501.364 152.458 501.372 153.61C501.381 154.763 501.834 155.866 502.678 156.684C503.496 157.528 504.599 157.981 505.751 157.989C506.93 157.998 508 157.561 508.806 156.755L510.964 154.597M513.719 151.894L515.877 149.737C516.683 148.931 517.146 147.835 517.138 146.682C517.129 145.53 516.676 144.427 515.832 143.609C515.014 142.791 513.911 142.338 512.759 142.33C511.607 142.321 510.51 142.758 509.704 143.564L507.547 145.722M505.983 153.36L512.456 146.888" stroke="#96ABDE" stroke-width="1.93203" stroke-linecap="round" stroke-linejoin="round"/>
<path d="M537.487 156.146H538.964L534.808 144.873H533.417L529.261 156.146H530.737L531.87 152.919H536.354L537.487 156.146ZM534.05 146.693H534.175L535.94 151.724H532.284L534.05 146.693ZM543.417 156.294C544.581 156.294 545.581 155.74 546.112 154.802H546.237V156.146H547.519V144.38H546.175V149.052H546.058C545.581 148.13 544.589 147.576 543.417 147.576C541.276 147.576 539.878 149.294 539.878 151.935C539.878 154.583 541.261 156.294 543.417 156.294ZM543.729 148.787C545.253 148.787 546.206 150.005 546.206 151.935C546.206 153.88 545.261 155.083 543.729 155.083C542.19 155.083 541.269 153.904 541.269 151.935C541.269 149.974 542.198 148.787 543.729 148.787ZM553.245 156.294C554.409 156.294 555.409 155.74 555.94 154.802H556.065V156.146H557.347V144.38H556.003V149.052H555.886C555.409 148.13 554.417 147.576 553.245 147.576C551.104 147.576 549.706 149.294 549.706 151.935C549.706 154.583 551.089 156.294 553.245 156.294ZM553.558 148.787C555.081 148.787 556.034 150.005 556.034 151.935C556.034 153.88 555.089 155.083 553.558 155.083C552.019 155.083 551.097 153.904 551.097 151.935C551.097 149.974 552.026 148.787 553.558 148.787ZM566.089 144.873H564.683V152.271C564.683 154.677 566.362 156.412 569.159 156.412C571.956 156.412 573.636 154.677 573.636 152.271V144.873H572.229V152.177C572.229 153.88 571.112 155.115 569.159 155.115C567.206 155.115 566.089 153.88 566.089 152.177V144.873ZM577.956 146.123H580.667C582.12 146.123 582.995 146.927 582.995 148.279C582.995 149.662 582.175 150.435 580.729 150.435H577.956V146.123ZM577.956 151.685H580.729L583.144 156.146H584.792L582.183 151.466C583.597 151.021 584.448 149.802 584.448 148.232C584.448 146.201 583.026 144.873 580.854 144.873H576.55V156.146H577.956V151.685ZM593.847 154.88H588.409V144.873H587.003V156.146H593.847V154.88Z" fill="#6E8DD7"/>
<path d="M308.978 188.022C311.376 188.022 312.861 186.366 312.861 183.663C312.861 180.952 311.376 179.304 308.978 179.304C306.579 179.304 305.095 180.952 305.095 183.663C305.095 186.366 306.579 188.022 308.978 188.022ZM308.978 186.812C307.384 186.812 306.486 185.655 306.486 183.663C306.486 181.663 307.384 180.515 308.978 180.515C310.572 180.515 311.47 181.663 311.47 183.663C311.47 185.655 310.572 186.812 308.978 186.812ZM314.97 187.874H316.314V182.655C316.314 181.468 317.243 180.608 318.525 180.608C318.79 180.608 319.275 180.655 319.384 180.687V179.343C319.212 179.319 318.931 179.304 318.712 179.304C317.595 179.304 316.626 179.882 316.376 180.702H316.251V179.452H314.97V187.874ZM328.697 188.022C329.861 188.022 330.861 187.468 331.392 186.53H331.517V187.874H332.798V176.108H331.454V180.78H331.337C330.861 179.858 329.868 179.304 328.697 179.304C326.556 179.304 325.158 181.022 325.158 183.663C325.158 186.312 326.54 188.022 328.697 188.022ZM329.009 180.515C330.533 180.515 331.486 181.733 331.486 183.663C331.486 185.608 330.54 186.812 329.009 186.812C327.47 186.812 326.548 185.632 326.548 183.663C326.548 181.702 327.478 180.515 329.009 180.515ZM335.408 187.874H336.751V182.655C336.751 181.468 337.681 180.608 338.962 180.608C339.228 180.608 339.712 180.655 339.822 180.687V179.343C339.65 179.319 339.368 179.304 339.15 179.304C338.033 179.304 337.064 179.882 336.814 180.702H336.689V179.452H335.408V187.874ZM344.728 188.022C347.126 188.022 348.611 186.366 348.611 183.663C348.611 180.952 347.126 179.304 344.728 179.304C342.329 179.304 340.845 180.952 340.845 183.663C340.845 186.366 342.329 188.022 344.728 188.022ZM344.728 186.812C343.134 186.812 342.236 185.655 342.236 183.663C342.236 181.663 343.134 180.515 344.728 180.515C346.322 180.515 347.22 181.663 347.22 183.663C347.22 185.655 346.322 186.812 344.728 186.812ZM354.822 179.304C353.673 179.304 352.665 179.89 352.126 180.858H352.001V179.452H350.72V190.687H352.064V186.608H352.189C352.65 187.499 353.618 188.022 354.822 188.022C356.962 188.022 358.361 186.296 358.361 183.663C358.361 181.015 356.97 179.304 354.822 179.304ZM354.501 186.812C352.986 186.812 352.025 185.593 352.025 183.663C352.025 181.726 352.986 180.515 354.509 180.515C356.048 180.515 356.97 181.694 356.97 183.663C356.97 185.632 356.048 186.812 354.501 186.812ZM366.564 187.874V182.991H371.556V181.741H366.564V177.866H372.001V176.601H365.158V187.874H366.564ZM374.173 187.874H375.517V179.452H374.173V187.874ZM374.845 177.741C375.361 177.741 375.783 177.319 375.783 176.804C375.783 176.288 375.361 175.866 374.845 175.866C374.329 175.866 373.908 176.288 373.908 176.804C373.908 177.319 374.329 177.741 374.845 177.741ZM378.158 187.874H379.501V176.108H378.158V187.874ZM385.47 180.491C386.806 180.491 387.697 181.476 387.728 182.968H383.087C383.189 181.476 384.126 180.491 385.47 180.491ZM387.689 185.694C387.337 186.437 386.603 186.835 385.517 186.835C384.087 186.835 383.158 185.78 383.087 184.116V184.054H389.142V183.538C389.142 180.921 387.759 179.304 385.486 179.304C383.173 179.304 381.689 181.022 381.689 183.671C381.689 186.335 383.15 188.022 385.486 188.022C387.329 188.022 388.626 187.14 389.033 185.694H387.689ZM391.056 181.757C391.056 182.976 391.775 183.655 393.353 184.038L394.798 184.39C395.697 184.608 396.134 184.999 396.134 185.577C396.134 186.351 395.322 186.89 394.189 186.89C393.111 186.89 392.439 186.437 392.212 185.726H390.829C390.978 187.124 392.267 188.022 394.142 188.022C396.056 188.022 397.517 186.983 397.517 185.476C397.517 184.265 396.751 183.577 395.165 183.194L393.868 182.882C392.876 182.64 392.408 182.28 392.408 181.702C392.408 180.952 393.189 180.444 394.189 180.444C395.204 180.444 395.861 180.89 396.04 181.562H397.368C397.189 180.179 395.962 179.304 394.197 179.304C392.408 179.304 391.056 180.358 391.056 181.757ZM404.704 177.272V179.452H403.345V180.577H404.704V185.687C404.704 187.296 405.4 187.937 407.134 187.937C407.4 187.937 407.658 187.905 407.923 187.858V186.726C407.673 186.749 407.54 186.757 407.298 186.757C406.423 186.757 406.048 186.335 406.048 185.343V180.577H407.923V179.452H406.048V177.272H404.704ZM413.29 188.022C415.689 188.022 417.173 186.366 417.173 183.663C417.173 180.952 415.689 179.304 413.29 179.304C410.892 179.304 409.408 180.952 409.408 183.663C409.408 186.366 410.892 188.022 413.29 188.022ZM413.29 186.812C411.697 186.812 410.798 185.655 410.798 183.663C410.798 181.663 411.697 180.515 413.29 180.515C414.884 180.515 415.783 181.663 415.783 183.663C415.783 185.655 414.884 186.812 413.29 186.812ZM430.611 179.452H429.267V184.437C429.267 185.913 428.454 186.796 426.97 186.796C425.626 186.796 425.064 186.093 425.064 184.577V179.452H423.72V184.905C423.72 186.897 424.704 188.022 426.595 188.022C427.884 188.022 428.783 187.491 429.204 186.554H429.329V187.874H430.611V179.452ZM437.243 179.304C436.095 179.304 435.087 179.89 434.548 180.858H434.423V179.452H433.142V190.687H434.486V186.608H434.611C435.072 187.499 436.04 188.022 437.243 188.022C439.384 188.022 440.783 186.296 440.783 183.663C440.783 181.015 439.392 179.304 437.243 179.304ZM436.923 186.812C435.408 186.812 434.447 185.593 434.447 183.663C434.447 181.726 435.408 180.515 436.931 180.515C438.47 180.515 439.392 181.694 439.392 183.663C439.392 185.632 438.47 186.812 436.923 186.812ZM442.97 187.874H444.314V176.108H442.97V187.874ZM450.384 188.022C452.783 188.022 454.267 186.366 454.267 183.663C454.267 180.952 452.783 179.304 450.384 179.304C447.986 179.304 446.501 180.952 446.501 183.663C446.501 186.366 447.986 188.022 450.384 188.022ZM450.384 186.812C448.79 186.812 447.892 185.655 447.892 183.663C447.892 181.663 448.79 180.515 450.384 180.515C451.978 180.515 452.876 181.663 452.876 183.663C452.876 185.655 451.978 186.812 450.384 186.812ZM458.97 186.843C457.993 186.843 457.267 186.343 457.267 185.483C457.267 184.64 457.829 184.194 459.111 184.108L461.376 183.96V184.733C461.376 185.937 460.353 186.843 458.97 186.843ZM458.72 188.022C459.845 188.022 460.767 187.53 461.314 186.632H461.439V187.874H462.72V182.108C462.72 180.358 461.572 179.304 459.517 179.304C457.72 179.304 456.392 180.194 456.212 181.546H457.572C457.759 180.882 458.462 180.499 459.47 180.499C460.728 180.499 461.376 181.069 461.376 182.108V182.874L458.947 183.022C456.986 183.14 455.876 184.007 455.876 185.515C455.876 187.054 457.087 188.022 458.72 188.022ZM468.322 188.022C469.486 188.022 470.486 187.468 471.017 186.53H471.142V187.874H472.423V176.108H471.079V180.78H470.962C470.486 179.858 469.493 179.304 468.322 179.304C466.181 179.304 464.783 181.022 464.783 183.663C464.783 186.312 466.165 188.022 468.322 188.022ZM468.634 180.515C470.158 180.515 471.111 181.733 471.111 183.663C471.111 185.608 470.165 186.812 468.634 186.812C467.095 186.812 466.173 185.632 466.173 183.663C466.173 181.702 467.103 180.515 468.634 180.515Z" fill="#5C6D8E"/>
</svg>
