<svg width="283" height="283" viewBox="0 0 283 283" fill="none" xmlns="http://www.w3.org/2000/svg">
<rect width="282.02" height="282.02" rx="8" fill="#1A1932"/>
<path d="M83.9191 86.1654C83.6128 86.4717 83.6128 86.9683 83.9191 87.2746C84.2254 87.5808 84.722 87.5808 85.0282 87.2746L83.9191 86.1654ZM89.1105 82.0831L89.6651 81.5286C89.3588 81.2223 88.8622 81.2223 88.556 81.5286L89.1105 82.0831ZM91.429 84.4016L90.8744 84.9561C91.1807 85.2624 91.6772 85.2624 91.9835 84.9561L91.429 84.4016ZM96.6454 79.1851L97.2 78.6305C96.8937 78.3243 96.3971 78.3243 96.0909 78.6305L96.6454 79.1851ZM100.728 84.3765C101.034 84.6828 101.531 84.6828 101.837 84.3765C102.143 84.0702 102.143 83.5737 101.837 83.2674L100.728 84.3765ZM85.0282 87.2746L89.6651 82.6377L88.556 81.5286L83.9191 86.1654L85.0282 87.2746ZM88.556 82.6377L90.8744 84.9561L91.9835 83.847L89.6651 81.5286L88.556 82.6377ZM91.9835 84.9561L97.2 79.7397L96.0909 78.6305L90.8744 83.847L91.9835 84.9561ZM96.0909 79.7397L100.728 84.3765L101.837 83.2674L97.2 78.6305L96.0909 79.7397ZM86.7921 70.6956H98.3842V69.1271H86.7921V70.6956ZM101.078 73.389V84.9812H102.646V73.389H101.078ZM98.3842 87.6745H86.7921V89.2431H98.3842V87.6745ZM84.0987 84.9812V73.389H82.5302V84.9812H84.0987ZM86.7921 87.6745C85.3046 87.6745 84.0987 86.4687 84.0987 84.9812H82.5302C82.5302 87.335 84.4383 89.2431 86.7921 89.2431V87.6745ZM101.078 84.9812C101.078 86.4687 99.8718 87.6745 98.3842 87.6745V89.2431C100.738 89.2431 102.646 87.335 102.646 84.9812H101.078ZM98.3842 70.6956C99.8718 70.6956 101.078 71.9015 101.078 73.389H102.646C102.646 71.0352 100.738 69.1271 98.3842 69.1271V70.6956ZM86.7921 69.1271C84.4383 69.1271 82.5302 71.0352 82.5302 73.389H84.0987C84.0987 71.9015 85.3046 70.6956 86.7921 70.6956V69.1271ZM89.4855 75.1278C89.4855 75.655 89.0581 76.0824 88.5309 76.0824V77.6509C89.9244 77.6509 91.054 76.5213 91.054 75.1278H89.4855ZM88.5309 76.0824C88.0037 76.0824 87.5764 75.655 87.5764 75.1278H86.0078C86.0078 76.5213 87.1375 77.6509 88.5309 77.6509V76.0824ZM87.5764 75.1278C87.5764 74.6007 88.0037 74.1733 88.5309 74.1733V72.6048C87.1375 72.6048 86.0078 73.7344 86.0078 75.1278H87.5764ZM88.5309 74.1733C89.0581 74.1733 89.4855 74.6007 89.4855 75.1278H91.054C91.054 73.7344 89.9244 72.6048 88.5309 72.6048V74.1733Z" fill="#96ABDE"/>
<path d="M120.789 85.1851H122.266L118.109 73.9116H116.719L112.562 85.1851H114.039L115.172 81.9585H119.656L120.789 85.1851ZM117.352 75.7319H117.477L119.242 80.7632H115.586L117.352 75.7319ZM126.719 85.3335C127.883 85.3335 128.883 84.7788 129.414 83.8413H129.539V85.1851H130.82V73.4194H129.477V78.0913H129.359C128.883 77.1694 127.891 76.6147 126.719 76.6147C124.578 76.6147 123.18 78.3335 123.18 80.9741C123.18 83.6226 124.562 85.3335 126.719 85.3335ZM127.031 77.8257C128.555 77.8257 129.508 79.0444 129.508 80.9741C129.508 82.9194 128.562 84.1226 127.031 84.1226C125.492 84.1226 124.57 82.9429 124.57 80.9741C124.57 79.0132 125.5 77.8257 127.031 77.8257ZM136.547 85.3335C137.711 85.3335 138.711 84.7788 139.242 83.8413H139.367V85.1851H140.648V73.4194H139.305V78.0913H139.188C138.711 77.1694 137.719 76.6147 136.547 76.6147C134.406 76.6147 133.008 78.3335 133.008 80.9741C133.008 83.6226 134.391 85.3335 136.547 85.3335ZM136.859 77.8257C138.383 77.8257 139.336 79.0444 139.336 80.9741C139.336 82.9194 138.391 84.1226 136.859 84.1226C135.32 84.1226 134.398 82.9429 134.398 80.9741C134.398 79.0132 135.328 77.8257 136.859 77.8257ZM149.352 85.1851V73.9116H147.945V85.1851H149.352ZM152.055 85.1851H153.398V79.9663C153.398 78.7788 154.25 77.8257 155.352 77.8257C156.414 77.8257 157.109 78.4663 157.109 79.4663V85.1851H158.453V79.771C158.453 78.7007 159.234 77.8257 160.406 77.8257C161.594 77.8257 162.18 78.4351 162.18 79.6772V85.1851H163.523V79.3647C163.523 77.5991 162.562 76.6147 160.844 76.6147C159.68 76.6147 158.719 77.2007 158.266 78.0913H158.141C157.75 77.2163 156.953 76.6147 155.812 76.6147C154.688 76.6147 153.844 77.1538 153.461 78.0913H153.336V76.7632H152.055V85.1851ZM168.57 84.1538C167.594 84.1538 166.867 83.6538 166.867 82.7944C166.867 81.9507 167.43 81.5054 168.711 81.4194L170.977 81.271V82.0444C170.977 83.2476 169.953 84.1538 168.57 84.1538ZM168.32 85.3335C169.445 85.3335 170.367 84.8413 170.914 83.9429H171.039V85.1851H172.32V79.4194C172.32 77.6694 171.172 76.6147 169.117 76.6147C167.32 76.6147 165.992 77.5054 165.812 78.8569H167.172C167.359 78.1929 168.062 77.8101 169.07 77.8101C170.328 77.8101 170.977 78.3804 170.977 79.4194V80.1851L168.547 80.3335C166.586 80.4507 165.477 81.3179 165.477 82.8257C165.477 84.3647 166.688 85.3335 168.32 85.3335ZM178.211 83.8726C176.648 83.8726 175.773 82.6851 175.773 80.8491C175.773 79.0132 176.648 77.8257 178.211 77.8257C179.766 77.8257 180.711 79.0132 180.711 80.8491C180.711 82.6851 179.773 83.8726 178.211 83.8726ZM178.273 88.4194C180.57 88.4194 182.023 87.2163 182.023 85.3335V76.7632H180.742V78.0991H180.617C180.133 77.1929 179.094 76.6147 177.914 76.6147C175.75 76.6147 174.383 78.3257 174.383 80.8491C174.383 83.3726 175.734 85.0601 177.914 85.0601C179.07 85.0601 180.023 84.5366 180.555 83.6069H180.68V85.2632C180.68 86.5054 179.781 87.2476 178.273 87.2476C177.062 87.2476 176.312 86.8022 176.164 86.1147H174.742C174.945 87.5054 176.242 88.4194 178.273 88.4194ZM187.914 77.8022C189.25 77.8022 190.141 78.7866 190.172 80.2788H185.531C185.633 78.7866 186.57 77.8022 187.914 77.8022ZM190.133 83.0054C189.781 83.7476 189.047 84.146 187.961 84.146C186.531 84.146 185.602 83.0913 185.531 81.4272V81.3647H191.586V80.8491C191.586 78.2319 190.203 76.6147 187.93 76.6147C185.617 76.6147 184.133 78.3335 184.133 80.9819C184.133 83.646 185.594 85.3335 187.93 85.3335C189.773 85.3335 191.07 84.4507 191.477 83.0054H190.133ZM193.5 79.0679C193.5 80.2866 194.219 80.9663 195.797 81.3491L197.242 81.7007C198.141 81.9194 198.578 82.3101 198.578 82.8882C198.578 83.6616 197.766 84.2007 196.633 84.2007C195.555 84.2007 194.883 83.7476 194.656 83.0366H193.273C193.422 84.4351 194.711 85.3335 196.586 85.3335C198.5 85.3335 199.961 84.2944 199.961 82.7866C199.961 81.5757 199.195 80.8882 197.609 80.5054L196.312 80.1929C195.32 79.9507 194.852 79.5913 194.852 79.0132C194.852 78.2632 195.633 77.7554 196.633 77.7554C197.648 77.7554 198.305 78.2007 198.484 78.8726H199.812C199.633 77.4897 198.406 76.6147 196.641 76.6147C194.852 76.6147 193.5 77.6694 193.5 79.0679Z" fill="#6E8DD7"/>
<line x1="146.01" y1="110.581" x2="136.01" y2="110.581" stroke="#C8D8FF" stroke-opacity="0.1" stroke-width="0.966013"/>
<path d="M94.0882 139.271H91.7697M97.5658 141.489L102.357 144.922C102.854 145.228 103.375 145.048 103.362 144.409L103.342 137.666C103.299 136.973 102.895 136.784 102.3 137.104L97.5658 140.326M87.1329 146.226H95.2474C96.5278 146.226 97.5658 145.188 97.5658 143.908V138.112C97.5658 136.831 96.5278 135.793 95.2474 135.793H87.1329C85.8524 135.793 84.8145 136.831 84.8145 138.112V143.908C84.8145 145.188 85.8524 146.226 87.1329 146.226Z" stroke="#96ABDE" stroke-width="1.56854" stroke-linecap="round" stroke-linejoin="round"/>
<path d="M122.289 147.01H123.766L119.609 135.736H118.219L114.062 147.01H115.539L116.672 143.783H121.156L122.289 147.01ZM118.852 137.557H118.977L120.742 142.588H117.086L118.852 137.557ZM128.219 147.158C129.383 147.158 130.383 146.604 130.914 145.666H131.039V147.01H132.32V135.244H130.977V139.916H130.859C130.383 138.994 129.391 138.439 128.219 138.439C126.078 138.439 124.68 140.158 124.68 142.799C124.68 145.447 126.062 147.158 128.219 147.158ZM128.531 139.65C130.055 139.65 131.008 140.869 131.008 142.799C131.008 144.744 130.062 145.947 128.531 145.947C126.992 145.947 126.07 144.768 126.07 142.799C126.07 140.838 127 139.65 128.531 139.65ZM138.047 147.158C139.211 147.158 140.211 146.604 140.742 145.666H140.867V147.01H142.148V135.244H140.805V139.916H140.688C140.211 138.994 139.219 138.439 138.047 138.439C135.906 138.439 134.508 140.158 134.508 142.799C134.508 145.447 135.891 147.158 138.047 147.158ZM138.359 139.65C139.883 139.65 140.836 140.869 140.836 142.799C140.836 144.744 139.891 145.947 138.359 145.947C136.82 145.947 135.898 144.768 135.898 142.799C135.898 140.838 136.828 139.65 138.359 139.65ZM154.094 147.01L158.25 135.736H156.773L153.461 145.189H153.336L150.023 135.736H148.547L152.703 147.01H154.094ZM160.086 147.01H161.43V138.588H160.086V147.01ZM160.758 136.877C161.273 136.877 161.695 136.455 161.695 135.939C161.695 135.424 161.273 135.002 160.758 135.002C160.242 135.002 159.82 135.424 159.82 135.939C159.82 136.455 160.242 136.877 160.758 136.877ZM167.109 147.158C168.273 147.158 169.273 146.604 169.805 145.666H169.93V147.01H171.211V135.244H169.867V139.916H169.75C169.273 138.994 168.281 138.439 167.109 138.439C164.969 138.439 163.57 140.158 163.57 142.799C163.57 145.447 164.953 147.158 167.109 147.158ZM167.422 139.65C168.945 139.65 169.898 140.869 169.898 142.799C169.898 144.744 168.953 145.947 167.422 145.947C165.883 145.947 164.961 144.768 164.961 142.799C164.961 140.838 165.891 139.65 167.422 139.65ZM177.18 139.627C178.516 139.627 179.406 140.611 179.438 142.104H174.797C174.898 140.611 175.836 139.627 177.18 139.627ZM179.398 144.83C179.047 145.572 178.312 145.971 177.227 145.971C175.797 145.971 174.867 144.916 174.797 143.252V143.189H180.852V142.674C180.852 140.057 179.469 138.439 177.195 138.439C174.883 138.439 173.398 140.158 173.398 142.807C173.398 145.471 174.859 147.158 177.195 147.158C179.039 147.158 180.336 146.275 180.742 144.83H179.398ZM186.422 147.158C188.82 147.158 190.305 145.502 190.305 142.799C190.305 140.088 188.82 138.439 186.422 138.439C184.023 138.439 182.539 140.088 182.539 142.799C182.539 145.502 184.023 147.158 186.422 147.158ZM186.422 145.947C184.828 145.947 183.93 144.791 183.93 142.799C183.93 140.799 184.828 139.65 186.422 139.65C188.016 139.65 188.914 140.799 188.914 142.799C188.914 144.791 188.016 145.947 186.422 145.947ZM192.219 140.893C192.219 142.111 192.938 142.791 194.516 143.174L195.961 143.525C196.859 143.744 197.297 144.135 197.297 144.713C197.297 145.486 196.484 146.025 195.352 146.025C194.273 146.025 193.602 145.572 193.375 144.861H191.992C192.141 146.26 193.43 147.158 195.305 147.158C197.219 147.158 198.68 146.119 198.68 144.611C198.68 143.4 197.914 142.713 196.328 142.33L195.031 142.018C194.039 141.775 193.57 141.416 193.57 140.838C193.57 140.088 194.352 139.58 195.352 139.58C196.367 139.58 197.023 140.025 197.203 140.697H198.531C198.352 139.314 197.125 138.439 195.359 138.439C193.57 138.439 192.219 139.494 192.219 140.893Z" fill="#6E8DD7"/>
<line x1="146.51" y1="172.405" x2="135.51" y2="172.405" stroke="#C8D8FF" stroke-opacity="0.1" stroke-width="0.966013"/>
<path d="M99.6236 201.087L97.4661 203.245C96.6603 204.05 96.1969 205.147 96.2054 206.299C96.2139 207.451 96.6671 208.554 97.5111 209.372C98.329 210.216 99.4323 210.67 100.584 210.678C101.763 210.687 102.833 210.25 103.639 209.444L105.797 207.286M108.552 204.583L110.71 202.425C111.516 201.62 111.979 200.523 111.971 199.371C111.962 198.219 111.509 197.116 110.665 196.298C109.847 195.48 108.744 195.027 107.592 195.018C106.44 195.01 105.343 195.447 104.537 196.253L102.38 198.41M100.816 206.049L107.289 199.577" stroke="#96ABDE" stroke-width="1.93203" stroke-linecap="round" stroke-linejoin="round"/>
<path d="M132.289 208.835H133.766L129.609 197.561H128.219L124.062 208.835H125.539L126.672 205.608H131.156L132.289 208.835ZM128.852 199.382H128.977L130.742 204.413H127.086L128.852 199.382ZM138.219 208.983C139.383 208.983 140.383 208.428 140.914 207.491H141.039V208.835H142.32V197.069H140.977V201.741H140.859C140.383 200.819 139.391 200.264 138.219 200.264C136.078 200.264 134.68 201.983 134.68 204.624C134.68 207.272 136.062 208.983 138.219 208.983ZM138.531 201.475C140.055 201.475 141.008 202.694 141.008 204.624C141.008 206.569 140.062 207.772 138.531 207.772C136.992 207.772 136.07 206.593 136.07 204.624C136.07 202.663 137 201.475 138.531 201.475ZM148.047 208.983C149.211 208.983 150.211 208.428 150.742 207.491H150.867V208.835H152.148V197.069H150.805V201.741H150.688C150.211 200.819 149.219 200.264 148.047 200.264C145.906 200.264 144.508 201.983 144.508 204.624C144.508 207.272 145.891 208.983 148.047 208.983ZM148.359 201.475C149.883 201.475 150.836 202.694 150.836 204.624C150.836 206.569 149.891 207.772 148.359 207.772C146.82 207.772 145.898 206.593 145.898 204.624C145.898 202.663 146.828 201.475 148.359 201.475ZM160.891 197.561H159.484V204.96C159.484 207.366 161.164 209.1 163.961 209.1C166.758 209.1 168.438 207.366 168.438 204.96V197.561H167.031V204.866C167.031 206.569 165.914 207.803 163.961 207.803C162.008 207.803 160.891 206.569 160.891 204.866V197.561ZM172.758 198.811H175.469C176.922 198.811 177.797 199.616 177.797 200.968C177.797 202.35 176.977 203.124 175.531 203.124H172.758V198.811ZM172.758 204.374H175.531L177.945 208.835H179.594L176.984 204.155C178.398 203.71 179.25 202.491 179.25 200.921C179.25 198.889 177.828 197.561 175.656 197.561H171.352V208.835H172.758V204.374ZM188.648 207.569H183.211V197.561H181.805V208.835H188.648V207.569Z" fill="#6E8DD7"/>
</svg>
