<svg width="100" height="104" viewBox="0 0 100 104" fill="none" xmlns="http://www.w3.org/2000/svg">
<g filter="url(#filter0_bd_594_16157)">
<mask id="path-1-outside-1_594_16157" maskUnits="userSpaceOnUse" x="14.5" y="14" width="71" height="72" fill="black">
<rect fill="white" x="14.5" y="14" width="71" height="72"/>
<path fill-rule="evenodd" clip-rule="evenodd" d="M33.3655 15.1897C31.3258 15.4405 29.8215 15.7421 28.2298 16.2196C24.8836 17.2234 22.0565 18.6922 19.9819 20.5045C17.8859 22.3355 16.6918 24.0526 15.8813 26.4017L15.5508 27.3593L15.5125 43.2252C15.4796 56.8407 15.5036 59.2306 15.682 60.0752C16.1518 62.2989 17.282 64.2243 19.2459 66.1468C20.7615 67.6303 22.555 68.8595 24.6239 69.8325C26.2416 70.5935 28.4529 71.3412 30.1169 71.69L31.2696 71.9316V77.863C31.2696 84.5855 31.2734 84.6139 32.2018 84.8782C32.5875 84.9879 39.1697 85.019 55.7909 84.9894C78.1724 84.9498 78.8655 84.9409 79.5438 84.6847C81.3117 84.0171 82.7511 82.8307 83.6332 81.3143C84.5303 79.7719 84.4997 80.4232 84.4997 62.7883C84.4997 44.9341 84.5439 45.7824 83.5288 44.1067C83.2294 43.6123 82.7216 42.9508 82.4007 42.6364C81.7192 41.9693 80.5337 41.2412 79.5438 40.8817C78.8908 40.6446 78.1764 40.6256 68.6105 40.5896L58.3758 40.5512L58.3737 34.2972C58.3716 27.7666 58.3375 27.3163 57.7201 25.6494C57.3772 24.7234 56.3571 23.0832 55.527 22.1232C52.9223 19.1105 48.4742 16.7266 43.4808 15.6674C40.3488 15.0032 36.3998 14.8166 33.3655 15.1897ZM40.0424 17.9908C45.7598 18.5805 51.089 21.0067 53.5531 24.1418C54.299 25.0907 54.9903 26.3961 55.247 27.3398C55.5014 28.2755 55.4923 30.052 55.2281 31.0455C54.8083 32.6237 53.6104 34.3945 52.0184 35.7907C50.5397 37.0875 48.0583 38.4205 45.6796 39.1957C43.1558 40.0182 39.6819 40.5597 36.9284 40.5597C34.171 40.5597 30.6926 40.0169 28.1771 39.1942C26.3613 38.6003 24.1906 37.5315 22.9142 36.6032C21.394 35.4974 19.9195 33.9023 19.321 32.7159C18.6678 31.4212 18.4188 30.4532 18.4168 29.2005C18.4111 25.6439 20.8646 22.5446 25.4827 20.2746C27.7107 19.1794 30.8133 18.3161 33.6449 18.0034C35.1286 17.8397 38.5116 17.833 40.0424 17.9908ZM35.8524 24.1712C33.9009 24.3456 31.9906 25.1914 30.9142 26.3581C29.2695 28.1404 29.3451 30.5134 31.0999 32.1868C34.0096 34.9615 39.9061 34.9591 42.7681 32.1823C43.695 31.2827 44.1231 30.337 44.1149 29.206C44.1111 28.6833 44.0059 28.0694 43.8597 27.7163C43.7228 27.3861 43.3179 26.7906 42.9599 26.393C41.4772 24.7467 38.7954 23.9083 35.8524 24.1712ZM38.9242 27.2264C39.9117 27.5137 40.8243 28.1362 41.1043 28.7138C41.3366 29.1934 41.3362 29.2391 41.0942 29.724C40.7782 30.3569 39.6458 31.0464 38.5595 31.2671C38.1324 31.3539 37.2133 31.3993 36.5173 31.3678C35.5152 31.3227 35.0727 31.2314 34.3923 30.9297C32.9945 30.31 32.394 29.5029 32.7368 28.7048C33.063 27.9454 34.2147 27.2976 35.7407 27.015C36.5205 26.8705 38.0495 26.972 38.9242 27.2264ZM21.6737 39.147C23.1325 40.1103 25.5924 41.2842 27.3178 41.8403C29.278 42.4721 30.7049 42.8144 32.597 43.1063C33.9909 43.3215 36.2011 43.3509 56.3498 43.4222L76.7683 43.4943C78.687 43.5011 80.1085 43.8112 81.1274 45.6893C82.603 48.4086 80.6296 51.5495 77.6765 51.7631C75.2989 51.935 69.7125 51.9134 55.2276 51.9134C38.6816 51.9134 32.4461 51.9552 32.1138 52.0686C31.2632 52.359 31.2696 52.29 31.2696 61.0642V68.9926L30.047 68.6712C28.2014 68.1858 26.8878 67.6928 25.204 66.8536C23.5052 66.0069 21.8857 64.8734 20.8987 63.8402C20.095 62.9992 19.3327 61.8484 18.8498 60.7475L18.485 59.9157L18.4463 48.1705L18.4076 36.4254L19.5407 37.456C20.164 38.0229 21.1238 38.7838 21.6737 39.147ZM55.4416 38.5078V40.5597L52.6122 40.5536L49.7829 40.5475L50.3244 40.2459C51.8235 39.4105 53.3821 38.3178 54.3238 37.442C54.9002 36.906 55.3875 36.4648 55.4067 36.4617C55.4258 36.4585 55.4416 37.3793 55.4416 38.5078ZM81.7317 77.7585C81.6663 77.8008 81.5718 78.1343 81.5219 78.4996C81.4043 79.362 80.813 80.4131 80.1182 80.9954C79.2706 81.7056 78.2877 82.0075 76.8225 82.0075H75.5788L75.5353 78.4617C75.4922 74.9447 75.4891 74.9131 75.1598 74.5703C74.739 74.132 74.1646 74.0071 73.5227 74.2146C72.6919 74.483 72.6275 74.8022 72.6275 78.6517V82.0075H69.9814H67.3355L67.2918 78.529C67.2661 76.486 67.1734 75.6671 67.1734 75.1883C67.1734 73.4784 64.3839 73.41 64.3839 75.2567V78.4709V82.0075H61.6593H58.9347V78.4448V75.3251C58.9347 73.5468 56.1402 73.5468 56.1402 75.3251V78.4448V82.0075H53.4156H50.6911V78.4709V75.3935C50.6911 74.8108 50.2793 74.286 49.6456 74.1304C49.1053 73.9977 48.4566 74.2253 48.1204 74.6658C47.8431 75.0292 47.8244 75.2435 47.7831 78.529L47.7394 82.0075H45.0935H42.4474V78.6517C42.4474 74.8022 42.383 74.483 41.5522 74.2146C40.9103 74.0071 40.3359 74.132 39.9151 74.5703C39.5858 74.9131 39.5827 74.9447 39.5397 78.4617L39.4961 82.0075H36.9922H34.4884L34.4867 68.3996L34.4851 54.7917L56.665 54.7547L76.3492 54.7218C78.1636 54.7187 79.7373 54.6949 81.3242 53.7112L81.7793 53.4292L81.8149 65.5553C81.8346 72.2247 81.7972 77.7161 81.7317 77.7585Z"/>
</mask>
<path fill-rule="evenodd" clip-rule="evenodd" d="M33.3655 15.1897C31.3258 15.4405 29.8215 15.7421 28.2298 16.2196C24.8836 17.2234 22.0565 18.6922 19.9819 20.5045C17.8859 22.3355 16.6918 24.0526 15.8813 26.4017L15.5508 27.3593L15.5125 43.2252C15.4796 56.8407 15.5036 59.2306 15.682 60.0752C16.1518 62.2989 17.282 64.2243 19.2459 66.1468C20.7615 67.6303 22.555 68.8595 24.6239 69.8325C26.2416 70.5935 28.4529 71.3412 30.1169 71.69L31.2696 71.9316V77.863C31.2696 84.5855 31.2734 84.6139 32.2018 84.8782C32.5875 84.9879 39.1697 85.019 55.7909 84.9894C78.1724 84.9498 78.8655 84.9409 79.5438 84.6847C81.3117 84.0171 82.7511 82.8307 83.6332 81.3143C84.5303 79.7719 84.4997 80.4232 84.4997 62.7883C84.4997 44.9341 84.5439 45.7824 83.5288 44.1067C83.2294 43.6123 82.7216 42.9508 82.4007 42.6364C81.7192 41.9693 80.5337 41.2412 79.5438 40.8817C78.8908 40.6446 78.1764 40.6256 68.6105 40.5896L58.3758 40.5512L58.3737 34.2972C58.3716 27.7666 58.3375 27.3163 57.7201 25.6494C57.3772 24.7234 56.3571 23.0832 55.527 22.1232C52.9223 19.1105 48.4742 16.7266 43.4808 15.6674C40.3488 15.0032 36.3998 14.8166 33.3655 15.1897ZM40.0424 17.9908C45.7598 18.5805 51.089 21.0067 53.5531 24.1418C54.299 25.0907 54.9903 26.3961 55.247 27.3398C55.5014 28.2755 55.4923 30.052 55.2281 31.0455C54.8083 32.6237 53.6104 34.3945 52.0184 35.7907C50.5397 37.0875 48.0583 38.4205 45.6796 39.1957C43.1558 40.0182 39.6819 40.5597 36.9284 40.5597C34.171 40.5597 30.6926 40.0169 28.1771 39.1942C26.3613 38.6003 24.1906 37.5315 22.9142 36.6032C21.394 35.4974 19.9195 33.9023 19.321 32.7159C18.6678 31.4212 18.4188 30.4532 18.4168 29.2005C18.4111 25.6439 20.8646 22.5446 25.4827 20.2746C27.7107 19.1794 30.8133 18.3161 33.6449 18.0034C35.1286 17.8397 38.5116 17.833 40.0424 17.9908ZM35.8524 24.1712C33.9009 24.3456 31.9906 25.1914 30.9142 26.3581C29.2695 28.1404 29.3451 30.5134 31.0999 32.1868C34.0096 34.9615 39.9061 34.9591 42.7681 32.1823C43.695 31.2827 44.1231 30.337 44.1149 29.206C44.1111 28.6833 44.0059 28.0694 43.8597 27.7163C43.7228 27.3861 43.3179 26.7906 42.9599 26.393C41.4772 24.7467 38.7954 23.9083 35.8524 24.1712ZM38.9242 27.2264C39.9117 27.5137 40.8243 28.1362 41.1043 28.7138C41.3366 29.1934 41.3362 29.2391 41.0942 29.724C40.7782 30.3569 39.6458 31.0464 38.5595 31.2671C38.1324 31.3539 37.2133 31.3993 36.5173 31.3678C35.5152 31.3227 35.0727 31.2314 34.3923 30.9297C32.9945 30.31 32.394 29.5029 32.7368 28.7048C33.063 27.9454 34.2147 27.2976 35.7407 27.015C36.5205 26.8705 38.0495 26.972 38.9242 27.2264ZM21.6737 39.147C23.1325 40.1103 25.5924 41.2842 27.3178 41.8403C29.278 42.4721 30.7049 42.8144 32.597 43.1063C33.9909 43.3215 36.2011 43.3509 56.3498 43.4222L76.7683 43.4943C78.687 43.5011 80.1085 43.8112 81.1274 45.6893C82.603 48.4086 80.6296 51.5495 77.6765 51.7631C75.2989 51.935 69.7125 51.9134 55.2276 51.9134C38.6816 51.9134 32.4461 51.9552 32.1138 52.0686C31.2632 52.359 31.2696 52.29 31.2696 61.0642V68.9926L30.047 68.6712C28.2014 68.1858 26.8878 67.6928 25.204 66.8536C23.5052 66.0069 21.8857 64.8734 20.8987 63.8402C20.095 62.9992 19.3327 61.8484 18.8498 60.7475L18.485 59.9157L18.4463 48.1705L18.4076 36.4254L19.5407 37.456C20.164 38.0229 21.1238 38.7838 21.6737 39.147ZM55.4416 38.5078V40.5597L52.6122 40.5536L49.7829 40.5475L50.3244 40.2459C51.8235 39.4105 53.3821 38.3178 54.3238 37.442C54.9002 36.906 55.3875 36.4648 55.4067 36.4617C55.4258 36.4585 55.4416 37.3793 55.4416 38.5078ZM81.7317 77.7585C81.6663 77.8008 81.5718 78.1343 81.5219 78.4996C81.4043 79.362 80.813 80.4131 80.1182 80.9954C79.2706 81.7056 78.2877 82.0075 76.8225 82.0075H75.5788L75.5353 78.4617C75.4922 74.9447 75.4891 74.9131 75.1598 74.5703C74.739 74.132 74.1646 74.0071 73.5227 74.2146C72.6919 74.483 72.6275 74.8022 72.6275 78.6517V82.0075H69.9814H67.3355L67.2918 78.529C67.2661 76.486 67.1734 75.6671 67.1734 75.1883C67.1734 73.4784 64.3839 73.41 64.3839 75.2567V78.4709V82.0075H61.6593H58.9347V78.4448V75.3251C58.9347 73.5468 56.1402 73.5468 56.1402 75.3251V78.4448V82.0075H53.4156H50.6911V78.4709V75.3935C50.6911 74.8108 50.2793 74.286 49.6456 74.1304C49.1053 73.9977 48.4566 74.2253 48.1204 74.6658C47.8431 75.0292 47.8244 75.2435 47.7831 78.529L47.7394 82.0075H45.0935H42.4474V78.6517C42.4474 74.8022 42.383 74.483 41.5522 74.2146C40.9103 74.0071 40.3359 74.132 39.9151 74.5703C39.5858 74.9131 39.5827 74.9447 39.5397 78.4617L39.4961 82.0075H36.9922H34.4884L34.4867 68.3996L34.4851 54.7917L56.665 54.7547L76.3492 54.7218C78.1636 54.7187 79.7373 54.6949 81.3242 53.7112L81.7793 53.4292L81.8149 65.5553C81.8346 72.2247 81.7972 77.7161 81.7317 77.7585Z" fill="url(#paint0_linear_594_16157)" fill-opacity="0.45" shape-rendering="crispEdges"/>
<path fill-rule="evenodd" clip-rule="evenodd" d="M33.3655 15.1897C31.3258 15.4405 29.8215 15.7421 28.2298 16.2196C24.8836 17.2234 22.0565 18.6922 19.9819 20.5045C17.8859 22.3355 16.6918 24.0526 15.8813 26.4017L15.5508 27.3593L15.5125 43.2252C15.4796 56.8407 15.5036 59.2306 15.682 60.0752C16.1518 62.2989 17.282 64.2243 19.2459 66.1468C20.7615 67.6303 22.555 68.8595 24.6239 69.8325C26.2416 70.5935 28.4529 71.3412 30.1169 71.69L31.2696 71.9316V77.863C31.2696 84.5855 31.2734 84.6139 32.2018 84.8782C32.5875 84.9879 39.1697 85.019 55.7909 84.9894C78.1724 84.9498 78.8655 84.9409 79.5438 84.6847C81.3117 84.0171 82.7511 82.8307 83.6332 81.3143C84.5303 79.7719 84.4997 80.4232 84.4997 62.7883C84.4997 44.9341 84.5439 45.7824 83.5288 44.1067C83.2294 43.6123 82.7216 42.9508 82.4007 42.6364C81.7192 41.9693 80.5337 41.2412 79.5438 40.8817C78.8908 40.6446 78.1764 40.6256 68.6105 40.5896L58.3758 40.5512L58.3737 34.2972C58.3716 27.7666 58.3375 27.3163 57.7201 25.6494C57.3772 24.7234 56.3571 23.0832 55.527 22.1232C52.9223 19.1105 48.4742 16.7266 43.4808 15.6674C40.3488 15.0032 36.3998 14.8166 33.3655 15.1897ZM40.0424 17.9908C45.7598 18.5805 51.089 21.0067 53.5531 24.1418C54.299 25.0907 54.9903 26.3961 55.247 27.3398C55.5014 28.2755 55.4923 30.052 55.2281 31.0455C54.8083 32.6237 53.6104 34.3945 52.0184 35.7907C50.5397 37.0875 48.0583 38.4205 45.6796 39.1957C43.1558 40.0182 39.6819 40.5597 36.9284 40.5597C34.171 40.5597 30.6926 40.0169 28.1771 39.1942C26.3613 38.6003 24.1906 37.5315 22.9142 36.6032C21.394 35.4974 19.9195 33.9023 19.321 32.7159C18.6678 31.4212 18.4188 30.4532 18.4168 29.2005C18.4111 25.6439 20.8646 22.5446 25.4827 20.2746C27.7107 19.1794 30.8133 18.3161 33.6449 18.0034C35.1286 17.8397 38.5116 17.833 40.0424 17.9908ZM35.8524 24.1712C33.9009 24.3456 31.9906 25.1914 30.9142 26.3581C29.2695 28.1404 29.3451 30.5134 31.0999 32.1868C34.0096 34.9615 39.9061 34.9591 42.7681 32.1823C43.695 31.2827 44.1231 30.337 44.1149 29.206C44.1111 28.6833 44.0059 28.0694 43.8597 27.7163C43.7228 27.3861 43.3179 26.7906 42.9599 26.393C41.4772 24.7467 38.7954 23.9083 35.8524 24.1712ZM38.9242 27.2264C39.9117 27.5137 40.8243 28.1362 41.1043 28.7138C41.3366 29.1934 41.3362 29.2391 41.0942 29.724C40.7782 30.3569 39.6458 31.0464 38.5595 31.2671C38.1324 31.3539 37.2133 31.3993 36.5173 31.3678C35.5152 31.3227 35.0727 31.2314 34.3923 30.9297C32.9945 30.31 32.394 29.5029 32.7368 28.7048C33.063 27.9454 34.2147 27.2976 35.7407 27.015C36.5205 26.8705 38.0495 26.972 38.9242 27.2264ZM21.6737 39.147C23.1325 40.1103 25.5924 41.2842 27.3178 41.8403C29.278 42.4721 30.7049 42.8144 32.597 43.1063C33.9909 43.3215 36.2011 43.3509 56.3498 43.4222L76.7683 43.4943C78.687 43.5011 80.1085 43.8112 81.1274 45.6893C82.603 48.4086 80.6296 51.5495 77.6765 51.7631C75.2989 51.935 69.7125 51.9134 55.2276 51.9134C38.6816 51.9134 32.4461 51.9552 32.1138 52.0686C31.2632 52.359 31.2696 52.29 31.2696 61.0642V68.9926L30.047 68.6712C28.2014 68.1858 26.8878 67.6928 25.204 66.8536C23.5052 66.0069 21.8857 64.8734 20.8987 63.8402C20.095 62.9992 19.3327 61.8484 18.8498 60.7475L18.485 59.9157L18.4463 48.1705L18.4076 36.4254L19.5407 37.456C20.164 38.0229 21.1238 38.7838 21.6737 39.147ZM55.4416 38.5078V40.5597L52.6122 40.5536L49.7829 40.5475L50.3244 40.2459C51.8235 39.4105 53.3821 38.3178 54.3238 37.442C54.9002 36.906 55.3875 36.4648 55.4067 36.4617C55.4258 36.4585 55.4416 37.3793 55.4416 38.5078ZM81.7317 77.7585C81.6663 77.8008 81.5718 78.1343 81.5219 78.4996C81.4043 79.362 80.813 80.4131 80.1182 80.9954C79.2706 81.7056 78.2877 82.0075 76.8225 82.0075H75.5788L75.5353 78.4617C75.4922 74.9447 75.4891 74.9131 75.1598 74.5703C74.739 74.132 74.1646 74.0071 73.5227 74.2146C72.6919 74.483 72.6275 74.8022 72.6275 78.6517V82.0075H69.9814H67.3355L67.2918 78.529C67.2661 76.486 67.1734 75.6671 67.1734 75.1883C67.1734 73.4784 64.3839 73.41 64.3839 75.2567V78.4709V82.0075H61.6593H58.9347V78.4448V75.3251C58.9347 73.5468 56.1402 73.5468 56.1402 75.3251V78.4448V82.0075H53.4156H50.6911V78.4709V75.3935C50.6911 74.8108 50.2793 74.286 49.6456 74.1304C49.1053 73.9977 48.4566 74.2253 48.1204 74.6658C47.8431 75.0292 47.8244 75.2435 47.7831 78.529L47.7394 82.0075H45.0935H42.4474V78.6517C42.4474 74.8022 42.383 74.483 41.5522 74.2146C40.9103 74.0071 40.3359 74.132 39.9151 74.5703C39.5858 74.9131 39.5827 74.9447 39.5397 78.4617L39.4961 82.0075H36.9922H34.4884L34.4867 68.3996L34.4851 54.7917L56.665 54.7547L76.3492 54.7218C78.1636 54.7187 79.7373 54.6949 81.3242 53.7112L81.7793 53.4292L81.8149 65.5553C81.8346 72.2247 81.7972 77.7161 81.7317 77.7585Z" stroke="url(#paint1_linear_594_16157)" stroke-width="0.77729" shape-rendering="crispEdges" mask="url(#path-1-outside-1_594_16157)"/>
</g>
<defs>
<filter id="filter0_bd_594_16157" x="0.537134" y="3.92359" width="98.9257" height="99.9257" filterUnits="userSpaceOnUse" color-interpolation-filters="sRGB">
<feFlood flood-opacity="0" result="BackgroundImageFix"/>
<feGaussianBlur in="BackgroundImageFix" stdDeviation="1.11756"/>
<feComposite in2="SourceAlpha" operator="in" result="effect1_backgroundBlur_594_16157"/>
<feColorMatrix in="SourceAlpha" type="matrix" values="0 0 0 0 0 0 0 0 0 0 0 0 0 0 0 0 0 0 127 0" result="hardAlpha"/>
<feOffset dy="3.88645"/>
<feGaussianBlur stdDeviation="7.2871"/>
<feComposite in2="hardAlpha" operator="out"/>
<feColorMatrix type="matrix" values="0 0 0 0 0 0 0 0 0 0 0 0 0 0 0 0 0 0 0.25 0"/>
<feBlend mode="normal" in2="effect1_backgroundBlur_594_16157" result="effect2_dropShadow_594_16157"/>
<feBlend mode="normal" in="SourceGraphic" in2="effect2_dropShadow_594_16157" result="shape"/>
</filter>
<linearGradient id="paint0_linear_594_16157" x1="15.5" y1="93.8554" x2="82.0723" y2="27.8463" gradientUnits="userSpaceOnUse">
<stop stop-color="#686CF8"/>
<stop offset="1" stop-color="#ECABF1"/>
</linearGradient>
<linearGradient id="paint1_linear_594_16157" x1="84.5" y1="25.5422" x2="-16.8314" y2="58.1699" gradientUnits="userSpaceOnUse">
<stop stop-color="#9A7EBC" stop-opacity="0.7"/>
<stop offset="1" stop-color="#4F569F" stop-opacity="0.46"/>
</linearGradient>
</defs>
</svg>
