<svg width="108" height="108" viewBox="0 0 108 108" fill="none" xmlns="http://www.w3.org/2000/svg">
<g filter="url(#filter0_bd_2_62080)">
<mask id="path-1-outside-1_2_62080" maskUnits="userSpaceOnUse" x="14.4282" y="10.2031" width="79" height="80" fill="black">
<rect fill="white" x="14.4282" y="10.2031" width="79" height="80"/>
<path fill-rule="evenodd" clip-rule="evenodd" d="M35.3425 11.4138C33.0689 11.6922 31.3921 12.0272 29.6179 12.5574C25.8879 13.672 22.7366 15.3029 20.424 17.3154C18.0877 19.3485 16.7567 21.2553 15.8532 23.8638L15.4849 24.927L15.4422 42.5448C15.4054 57.6637 15.4322 60.3175 15.6311 61.2553C16.1547 63.7245 17.4146 65.8626 19.6037 67.9973C21.2931 69.6446 23.2923 71.0095 25.5984 72.09C27.4016 72.935 29.8666 73.7652 31.7214 74.1526L33.0063 74.4208V81.0071C33.0063 88.4719 33.0105 88.5035 34.0454 88.7969C34.4753 88.9188 41.8123 88.9532 60.3396 88.9204C85.2878 88.8764 86.0604 88.8665 86.8164 88.582C88.787 87.8408 90.3915 86.5234 91.3748 84.8395C92.3748 83.1268 92.3407 83.85 92.3407 64.268C92.3407 44.4424 92.3899 45.3843 91.2584 43.5236C90.9247 42.9746 90.3587 42.2401 90.0009 41.891C89.2414 41.1502 87.9199 40.3417 86.8164 39.9425C86.0886 39.6793 85.2923 39.6582 74.6293 39.6182L63.2209 39.5755L63.2186 32.631C63.2163 25.3794 63.1783 24.8793 62.49 23.0283C62.1078 22.0002 60.9707 20.1788 60.0454 19.1128C57.142 15.7674 52.1839 13.1204 46.6178 11.9442C43.1266 11.2066 38.7248 10.9994 35.3425 11.4138ZM42.7851 14.5242C49.1582 15.179 55.0985 17.873 57.8452 21.3543C58.6766 22.408 59.4472 23.8575 59.7333 24.9055C60.0169 25.9444 60.0068 27.9171 59.7123 29.0203C59.2443 30.7727 57.9091 32.739 56.1345 34.2894C54.4862 35.7294 51.7202 37.2096 49.0688 38.0704C46.2556 38.9837 42.3833 39.5849 39.314 39.5849C36.2403 39.5849 32.363 38.9822 29.5592 38.0687C27.5351 37.4092 25.1154 36.2224 23.6927 35.1917C21.9982 33.9638 20.3546 32.1925 19.6874 30.8751C18.9593 29.4374 18.6817 28.3626 18.6795 26.9716C18.6732 23.0223 21.408 19.5808 26.5558 17.0601C29.0393 15.844 32.4976 14.8854 35.6539 14.5382C37.3078 14.3563 41.0787 14.3489 42.7851 14.5242ZM38.1146 21.387C35.9393 21.5806 33.8099 22.5198 32.6101 23.8153C30.7768 25.7944 30.861 28.4294 32.817 30.2876C36.0604 33.3686 42.6332 33.366 45.8234 30.2826C46.8566 29.2837 47.3338 28.2335 47.3246 26.9776C47.3204 26.3972 47.2031 25.7155 47.0402 25.3235C46.8876 24.9568 46.4362 24.2956 46.0372 23.8541C44.3844 22.026 41.395 21.095 38.1146 21.387ZM41.5386 24.7796C42.6395 25.0985 43.6566 25.7898 43.9687 26.4311C44.2277 26.9637 44.2273 27.0144 43.9575 27.5529C43.6052 28.2557 42.3431 29.0212 41.1321 29.2664C40.656 29.3627 39.6315 29.4131 38.8558 29.3782C37.7388 29.3281 37.2455 29.2267 36.487 28.8917C34.929 28.2036 34.2596 27.3074 34.6418 26.4211C35.0053 25.5779 36.2891 24.8585 37.9901 24.5447C38.8593 24.3843 40.5637 24.497 41.5386 24.7796ZM22.31 38.0163C23.936 39.086 26.678 40.3895 28.6013 41.007C30.7863 41.7086 32.3767 42.0886 34.4859 42.4128C36.0396 42.6517 38.5033 42.6844 60.9626 42.7635L83.7227 42.8436C85.8614 42.8512 87.4459 43.1955 88.5816 45.281C90.2265 48.3005 88.0268 51.7883 84.7351 52.0254C82.0847 52.2163 75.8578 52.1923 59.7117 52.1923C41.2683 52.1923 34.3176 52.2388 33.9473 52.3647C32.9991 52.6871 33.0063 52.6104 33.0063 62.3535V71.1573L31.6435 70.8004C29.5863 70.2614 28.1219 69.714 26.245 68.7821C24.3515 67.8419 22.5462 66.5833 21.446 65.436C20.5502 64.5022 19.7004 63.2243 19.1622 62.0018L18.7555 61.0782L18.7124 48.0361L18.6693 34.9942L19.9324 36.1386C20.6271 36.768 21.697 37.613 22.31 38.0163ZM59.9503 37.3065V39.5849L56.7964 39.5783L53.6426 39.5714L54.2462 39.2365C55.9172 38.3089 57.6546 37.0955 58.7043 36.1231C59.3468 35.5278 59.89 35.038 59.9113 35.0345C59.9327 35.031 59.9503 36.0534 59.9503 37.3065ZM89.2552 80.8911C89.1823 80.938 89.077 81.3083 89.0214 81.7141C88.8903 82.6716 88.2312 83.8388 87.4567 84.4854C86.5119 85.274 85.4162 85.6093 83.7831 85.6093H82.3968L82.3482 81.672C82.3002 77.7666 82.2968 77.7315 81.9297 77.3509C81.4606 76.8642 80.8204 76.7255 80.1049 76.9559C79.1788 77.254 79.107 77.6083 79.107 81.883V85.6093H76.1575H73.2081L73.1594 81.7467C73.1308 79.4781 73.0274 78.5687 73.0274 78.0371C73.0274 76.1384 69.918 76.0625 69.918 78.1131V81.6822V85.6093H66.881H63.8439V81.6531V78.189C63.8439 76.2144 60.729 76.2144 60.729 78.189V81.6531V85.6093H57.692H54.6549V81.6822V78.265C54.6549 77.618 54.196 77.0352 53.4896 76.8624C52.8874 76.715 52.1642 76.9678 51.7895 77.4569C51.4804 77.8605 51.4595 78.0983 51.4135 81.7467L51.3648 85.6093H48.4154H45.4659V81.883C45.4659 77.6083 45.3941 77.254 44.4681 76.9559C43.7526 76.7255 43.1123 76.8642 42.6432 77.3509C42.2761 77.7315 42.2727 77.7666 42.2247 81.672L42.1761 85.6093H39.3851H36.5942L36.5923 70.4989L36.5904 55.3885L61.314 55.3473L83.2555 55.3108C85.278 55.3074 87.0322 55.2809 88.8011 54.1886L89.3083 53.8754L89.348 67.3405C89.37 74.7463 89.3283 80.844 89.2552 80.8911Z"/>
</mask>
<path fill-rule="evenodd" clip-rule="evenodd" d="M35.3425 11.4138C33.0689 11.6922 31.3921 12.0272 29.6179 12.5574C25.8879 13.672 22.7366 15.3029 20.424 17.3154C18.0877 19.3485 16.7567 21.2553 15.8532 23.8638L15.4849 24.927L15.4422 42.5448C15.4054 57.6637 15.4322 60.3175 15.6311 61.2553C16.1547 63.7245 17.4146 65.8626 19.6037 67.9973C21.2931 69.6446 23.2923 71.0095 25.5984 72.09C27.4016 72.935 29.8666 73.7652 31.7214 74.1526L33.0063 74.4208V81.0071C33.0063 88.4719 33.0105 88.5035 34.0454 88.7969C34.4753 88.9188 41.8123 88.9532 60.3396 88.9204C85.2878 88.8764 86.0604 88.8665 86.8164 88.582C88.787 87.8408 90.3915 86.5234 91.3748 84.8395C92.3748 83.1268 92.3407 83.85 92.3407 64.268C92.3407 44.4424 92.3899 45.3843 91.2584 43.5236C90.9247 42.9746 90.3587 42.2401 90.0009 41.891C89.2414 41.1502 87.9199 40.3417 86.8164 39.9425C86.0886 39.6793 85.2923 39.6582 74.6293 39.6182L63.2209 39.5755L63.2186 32.631C63.2163 25.3794 63.1783 24.8793 62.49 23.0283C62.1078 22.0002 60.9707 20.1788 60.0454 19.1128C57.142 15.7674 52.1839 13.1204 46.6178 11.9442C43.1266 11.2066 38.7248 10.9994 35.3425 11.4138ZM42.7851 14.5242C49.1582 15.179 55.0985 17.873 57.8452 21.3543C58.6766 22.408 59.4472 23.8575 59.7333 24.9055C60.0169 25.9444 60.0068 27.9171 59.7123 29.0203C59.2443 30.7727 57.9091 32.739 56.1345 34.2894C54.4862 35.7294 51.7202 37.2096 49.0688 38.0704C46.2556 38.9837 42.3833 39.5849 39.314 39.5849C36.2403 39.5849 32.363 38.9822 29.5592 38.0687C27.5351 37.4092 25.1154 36.2224 23.6927 35.1917C21.9982 33.9638 20.3546 32.1925 19.6874 30.8751C18.9593 29.4374 18.6817 28.3626 18.6795 26.9716C18.6732 23.0223 21.408 19.5808 26.5558 17.0601C29.0393 15.844 32.4976 14.8854 35.6539 14.5382C37.3078 14.3563 41.0787 14.3489 42.7851 14.5242ZM38.1146 21.387C35.9393 21.5806 33.8099 22.5198 32.6101 23.8153C30.7768 25.7944 30.861 28.4294 32.817 30.2876C36.0604 33.3686 42.6332 33.366 45.8234 30.2826C46.8566 29.2837 47.3338 28.2335 47.3246 26.9776C47.3204 26.3972 47.2031 25.7155 47.0402 25.3235C46.8876 24.9568 46.4362 24.2956 46.0372 23.8541C44.3844 22.026 41.395 21.095 38.1146 21.387ZM41.5386 24.7796C42.6395 25.0985 43.6566 25.7898 43.9687 26.4311C44.2277 26.9637 44.2273 27.0144 43.9575 27.5529C43.6052 28.2557 42.3431 29.0212 41.1321 29.2664C40.656 29.3627 39.6315 29.4131 38.8558 29.3782C37.7388 29.3281 37.2455 29.2267 36.487 28.8917C34.929 28.2036 34.2596 27.3074 34.6418 26.4211C35.0053 25.5779 36.2891 24.8585 37.9901 24.5447C38.8593 24.3843 40.5637 24.497 41.5386 24.7796ZM22.31 38.0163C23.936 39.086 26.678 40.3895 28.6013 41.007C30.7863 41.7086 32.3767 42.0886 34.4859 42.4128C36.0396 42.6517 38.5033 42.6844 60.9626 42.7635L83.7227 42.8436C85.8614 42.8512 87.4459 43.1955 88.5816 45.281C90.2265 48.3005 88.0268 51.7883 84.7351 52.0254C82.0847 52.2163 75.8578 52.1923 59.7117 52.1923C41.2683 52.1923 34.3176 52.2388 33.9473 52.3647C32.9991 52.6871 33.0063 52.6104 33.0063 62.3535V71.1573L31.6435 70.8004C29.5863 70.2614 28.1219 69.714 26.245 68.7821C24.3515 67.8419 22.5462 66.5833 21.446 65.436C20.5502 64.5022 19.7004 63.2243 19.1622 62.0018L18.7555 61.0782L18.7124 48.0361L18.6693 34.9942L19.9324 36.1386C20.6271 36.768 21.697 37.613 22.31 38.0163ZM59.9503 37.3065V39.5849L56.7964 39.5783L53.6426 39.5714L54.2462 39.2365C55.9172 38.3089 57.6546 37.0955 58.7043 36.1231C59.3468 35.5278 59.89 35.038 59.9113 35.0345C59.9327 35.031 59.9503 36.0534 59.9503 37.3065ZM89.2552 80.8911C89.1823 80.938 89.077 81.3083 89.0214 81.7141C88.8903 82.6716 88.2312 83.8388 87.4567 84.4854C86.5119 85.274 85.4162 85.6093 83.7831 85.6093H82.3968L82.3482 81.672C82.3002 77.7666 82.2968 77.7315 81.9297 77.3509C81.4606 76.8642 80.8204 76.7255 80.1049 76.9559C79.1788 77.254 79.107 77.6083 79.107 81.883V85.6093H76.1575H73.2081L73.1594 81.7467C73.1308 79.4781 73.0274 78.5687 73.0274 78.0371C73.0274 76.1384 69.918 76.0625 69.918 78.1131V81.6822V85.6093H66.881H63.8439V81.6531V78.189C63.8439 76.2144 60.729 76.2144 60.729 78.189V81.6531V85.6093H57.692H54.6549V81.6822V78.265C54.6549 77.618 54.196 77.0352 53.4896 76.8624C52.8874 76.715 52.1642 76.9678 51.7895 77.4569C51.4804 77.8605 51.4595 78.0983 51.4135 81.7467L51.3648 85.6093H48.4154H45.4659V81.883C45.4659 77.6083 45.3941 77.254 44.4681 76.9559C43.7526 76.7255 43.1123 76.8642 42.6432 77.3509C42.2761 77.7315 42.2727 77.7666 42.2247 81.672L42.1761 85.6093H39.3851H36.5942L36.5923 70.4989L36.5904 55.3885L61.314 55.3473L83.2555 55.3108C85.278 55.3074 87.0322 55.2809 88.8011 54.1886L89.3083 53.8754L89.348 67.3405C89.37 74.7463 89.3283 80.844 89.2552 80.8911Z" fill="url(#paint0_linear_2_62080)" fill-opacity="0.45" shape-rendering="crispEdges"/>
<path fill-rule="evenodd" clip-rule="evenodd" d="M35.3425 11.4138C33.0689 11.6922 31.3921 12.0272 29.6179 12.5574C25.8879 13.672 22.7366 15.3029 20.424 17.3154C18.0877 19.3485 16.7567 21.2553 15.8532 23.8638L15.4849 24.927L15.4422 42.5448C15.4054 57.6637 15.4322 60.3175 15.6311 61.2553C16.1547 63.7245 17.4146 65.8626 19.6037 67.9973C21.2931 69.6446 23.2923 71.0095 25.5984 72.09C27.4016 72.935 29.8666 73.7652 31.7214 74.1526L33.0063 74.4208V81.0071C33.0063 88.4719 33.0105 88.5035 34.0454 88.7969C34.4753 88.9188 41.8123 88.9532 60.3396 88.9204C85.2878 88.8764 86.0604 88.8665 86.8164 88.582C88.787 87.8408 90.3915 86.5234 91.3748 84.8395C92.3748 83.1268 92.3407 83.85 92.3407 64.268C92.3407 44.4424 92.3899 45.3843 91.2584 43.5236C90.9247 42.9746 90.3587 42.2401 90.0009 41.891C89.2414 41.1502 87.9199 40.3417 86.8164 39.9425C86.0886 39.6793 85.2923 39.6582 74.6293 39.6182L63.2209 39.5755L63.2186 32.631C63.2163 25.3794 63.1783 24.8793 62.49 23.0283C62.1078 22.0002 60.9707 20.1788 60.0454 19.1128C57.142 15.7674 52.1839 13.1204 46.6178 11.9442C43.1266 11.2066 38.7248 10.9994 35.3425 11.4138ZM42.7851 14.5242C49.1582 15.179 55.0985 17.873 57.8452 21.3543C58.6766 22.408 59.4472 23.8575 59.7333 24.9055C60.0169 25.9444 60.0068 27.9171 59.7123 29.0203C59.2443 30.7727 57.9091 32.739 56.1345 34.2894C54.4862 35.7294 51.7202 37.2096 49.0688 38.0704C46.2556 38.9837 42.3833 39.5849 39.314 39.5849C36.2403 39.5849 32.363 38.9822 29.5592 38.0687C27.5351 37.4092 25.1154 36.2224 23.6927 35.1917C21.9982 33.9638 20.3546 32.1925 19.6874 30.8751C18.9593 29.4374 18.6817 28.3626 18.6795 26.9716C18.6732 23.0223 21.408 19.5808 26.5558 17.0601C29.0393 15.844 32.4976 14.8854 35.6539 14.5382C37.3078 14.3563 41.0787 14.3489 42.7851 14.5242ZM38.1146 21.387C35.9393 21.5806 33.8099 22.5198 32.6101 23.8153C30.7768 25.7944 30.861 28.4294 32.817 30.2876C36.0604 33.3686 42.6332 33.366 45.8234 30.2826C46.8566 29.2837 47.3338 28.2335 47.3246 26.9776C47.3204 26.3972 47.2031 25.7155 47.0402 25.3235C46.8876 24.9568 46.4362 24.2956 46.0372 23.8541C44.3844 22.026 41.395 21.095 38.1146 21.387ZM41.5386 24.7796C42.6395 25.0985 43.6566 25.7898 43.9687 26.4311C44.2277 26.9637 44.2273 27.0144 43.9575 27.5529C43.6052 28.2557 42.3431 29.0212 41.1321 29.2664C40.656 29.3627 39.6315 29.4131 38.8558 29.3782C37.7388 29.3281 37.2455 29.2267 36.487 28.8917C34.929 28.2036 34.2596 27.3074 34.6418 26.4211C35.0053 25.5779 36.2891 24.8585 37.9901 24.5447C38.8593 24.3843 40.5637 24.497 41.5386 24.7796ZM22.31 38.0163C23.936 39.086 26.678 40.3895 28.6013 41.007C30.7863 41.7086 32.3767 42.0886 34.4859 42.4128C36.0396 42.6517 38.5033 42.6844 60.9626 42.7635L83.7227 42.8436C85.8614 42.8512 87.4459 43.1955 88.5816 45.281C90.2265 48.3005 88.0268 51.7883 84.7351 52.0254C82.0847 52.2163 75.8578 52.1923 59.7117 52.1923C41.2683 52.1923 34.3176 52.2388 33.9473 52.3647C32.9991 52.6871 33.0063 52.6104 33.0063 62.3535V71.1573L31.6435 70.8004C29.5863 70.2614 28.1219 69.714 26.245 68.7821C24.3515 67.8419 22.5462 66.5833 21.446 65.436C20.5502 64.5022 19.7004 63.2243 19.1622 62.0018L18.7555 61.0782L18.7124 48.0361L18.6693 34.9942L19.9324 36.1386C20.6271 36.768 21.697 37.613 22.31 38.0163ZM59.9503 37.3065V39.5849L56.7964 39.5783L53.6426 39.5714L54.2462 39.2365C55.9172 38.3089 57.6546 37.0955 58.7043 36.1231C59.3468 35.5278 59.89 35.038 59.9113 35.0345C59.9327 35.031 59.9503 36.0534 59.9503 37.3065ZM89.2552 80.8911C89.1823 80.938 89.077 81.3083 89.0214 81.7141C88.8903 82.6716 88.2312 83.8388 87.4567 84.4854C86.5119 85.274 85.4162 85.6093 83.7831 85.6093H82.3968L82.3482 81.672C82.3002 77.7666 82.2968 77.7315 81.9297 77.3509C81.4606 76.8642 80.8204 76.7255 80.1049 76.9559C79.1788 77.254 79.107 77.6083 79.107 81.883V85.6093H76.1575H73.2081L73.1594 81.7467C73.1308 79.4781 73.0274 78.5687 73.0274 78.0371C73.0274 76.1384 69.918 76.0625 69.918 78.1131V81.6822V85.6093H66.881H63.8439V81.6531V78.189C63.8439 76.2144 60.729 76.2144 60.729 78.189V81.6531V85.6093H57.692H54.6549V81.6822V78.265C54.6549 77.618 54.196 77.0352 53.4896 76.8624C52.8874 76.715 52.1642 76.9678 51.7895 77.4569C51.4804 77.8605 51.4595 78.0983 51.4135 81.7467L51.3648 85.6093H48.4154H45.4659V81.883C45.4659 77.6083 45.3941 77.254 44.4681 76.9559C43.7526 76.7255 43.1123 76.8642 42.6432 77.3509C42.2761 77.7315 42.2727 77.7666 42.2247 81.672L42.1761 85.6093H39.3851H36.5942L36.5923 70.4989L36.5904 55.3885L61.314 55.3473L83.2555 55.3108C85.278 55.3074 87.0322 55.2809 88.8011 54.1886L89.3083 53.8754L89.348 67.3405C89.37 74.7463 89.3283 80.844 89.2552 80.8911Z" stroke="url(#paint1_linear_2_62080)" stroke-width="0.77729" shape-rendering="crispEdges" mask="url(#path-1-outside-1_2_62080)"/>
</g>
<defs>
<filter id="filter0_bd_2_62080" x="0.465387" y="0.126711" width="106.838" height="107.655" filterUnits="userSpaceOnUse" color-interpolation-filters="sRGB">
<feFlood flood-opacity="0" result="BackgroundImageFix"/>
<feGaussianBlur in="BackgroundImageFix" stdDeviation="1.11756"/>
<feComposite in2="SourceAlpha" operator="in" result="effect1_backgroundBlur_2_62080"/>
<feColorMatrix in="SourceAlpha" type="matrix" values="0 0 0 0 0 0 0 0 0 0 0 0 0 0 0 0 0 0 127 0" result="hardAlpha"/>
<feOffset dy="3.88645"/>
<feGaussianBlur stdDeviation="7.2871"/>
<feComposite in2="hardAlpha" operator="out"/>
<feColorMatrix type="matrix" values="0 0 0 0 0 0 0 0 0 0 0 0 0 0 0 0 0 0 0.25 0"/>
<feBlend mode="normal" in2="effect1_backgroundBlur_2_62080" result="effect2_dropShadow_2_62080"/>
<feBlend mode="normal" in="SourceGraphic" in2="effect2_dropShadow_2_62080" result="shape"/>
</filter>
<linearGradient id="paint0_linear_2_62080" x1="15.4282" y1="98.7654" x2="89.3529" y2="25.1846" gradientUnits="userSpaceOnUse">
<stop stop-color="#686CF8"/>
<stop offset="1" stop-color="#ECABF1"/>
</linearGradient>
<linearGradient id="paint1_linear_2_62080" x1="92.341" y1="22.9093" x2="-20.5294" y2="59.392" gradientUnits="userSpaceOnUse">
<stop stop-color="#9A7EBC" stop-opacity="0.7"/>
<stop offset="1" stop-color="#4F569F" stop-opacity="0.46"/>
</linearGradient>
</defs>
</svg>
