<svg width="27" height="27" viewBox="0 0 27 27" fill="none" xmlns="http://www.w3.org/2000/svg">
<rect width="26.0036" height="26.0036" rx="13.0018" fill="url(#paint0_linear_49_16090)"/>
<path d="M6.36293 14.9004C6.46884 16.2884 7.64503 17.1915 9.35077 17.1915C11.1903 17.1915 12.3553 16.2494 12.3553 14.7722C12.3553 13.5905 11.6864 12.9438 10.0197 12.5258L9.17797 12.3028C8.06868 12.0185 7.6283 11.6562 7.6283 11.0263C7.6283 10.2124 8.33624 9.67729 9.40651 9.67729C10.4099 9.67729 11.09 10.1678 11.2293 10.9928H12.2383C12.1547 9.69401 10.9952 8.76868 9.43996 8.76868C7.73979 8.76868 6.59705 9.69401 6.59705 11.0597C6.59705 12.2025 7.22695 12.8602 8.68185 13.2281L9.7131 13.4957C10.8224 13.7744 11.3241 14.2092 11.3241 14.8949C11.3241 15.692 10.527 16.2773 9.44553 16.2773C8.3028 16.2773 7.50009 15.7422 7.37746 14.9004H6.36293ZM13.643 14.9004C13.7489 16.2884 14.9251 17.1915 16.6308 17.1915C18.4704 17.1915 19.6354 16.2494 19.6354 14.7722C19.6354 13.5905 18.9665 12.9438 17.2998 12.5258L16.458 12.3028C15.3487 12.0185 14.9084 11.6562 14.9084 11.0263C14.9084 10.2124 15.6163 9.67729 16.6866 9.67729C17.69 9.67729 18.37 10.1678 18.5094 10.9928H19.5183C19.4347 9.69401 18.2753 8.76868 16.72 8.76868C15.0199 8.76868 13.8771 9.69401 13.8771 11.0597C13.8771 12.2025 14.507 12.8602 15.9619 13.2281L16.9932 13.4957C18.1025 13.7744 18.6041 14.2092 18.6041 14.8949C18.6041 15.692 17.807 16.2773 16.7256 16.2773C15.5829 16.2773 14.7802 15.7422 14.6575 14.9004H13.643Z" fill="white"/>
<defs>
<linearGradient id="paint0_linear_49_16090" x1="28.0471" y1="25.7645" x2="-6.85206" y2="3.09095" gradientUnits="userSpaceOnUse">
<stop stop-color="#C76ECF"/>
</linearGradient>
</defs>
</svg>
