<svg width="27" height="27" viewBox="0 0 27 27" fill="none" xmlns="http://www.w3.org/2000/svg">
<rect y="0.00341797" width="26.0036" height="26.0036" rx="13.0018" fill="url(#paint0_linear_49_16089)"/>
<g filter="url(#filter0_d_49_16089)">
<path d="M6.25145 14.9039C6.35736 16.2919 7.53354 17.1949 9.23928 17.1949C11.0788 17.1949 12.2438 16.2528 12.2438 14.7756C12.2438 13.5939 11.5749 12.9473 9.9082 12.5292L9.06648 12.3062C7.95719 12.0219 7.51682 11.6596 7.51682 11.0297C7.51682 10.2158 8.22476 9.68071 9.29503 9.68071C10.2984 9.68071 10.9785 10.1712 11.1178 10.9962H12.1268C12.0432 9.69743 10.8837 8.77209 9.32847 8.77209C7.6283 8.77209 6.48557 9.69743 6.48557 11.0631C6.48557 12.2059 7.11547 12.8636 8.57037 13.2316L9.60162 13.4991C10.7109 13.7778 11.2126 14.2126 11.2126 14.8983C11.2126 15.6954 10.4155 16.2807 9.33405 16.2807C8.19131 16.2807 7.38861 15.7456 7.26597 14.9039H6.25145ZM17.0545 17.0054C18.7658 17.0054 19.7803 16.1636 19.7803 14.7478C19.7803 13.6831 19.0835 12.9305 17.9854 12.7912V12.702C18.7602 12.5626 19.3734 11.8045 19.3734 10.9684C19.3734 9.73645 18.4704 8.96162 16.9932 8.96162H13.9161V17.0054H17.0545ZM14.9195 9.84794H16.7813C17.7791 9.84794 18.3589 10.3218 18.3589 11.1412C18.3589 11.9941 17.7401 12.4289 16.5249 12.4289H14.9195V9.84794ZM14.9195 16.1191V13.2929H16.8092C18.0913 13.2929 18.7491 13.7667 18.7491 14.6976C18.7491 15.6285 18.1136 16.1191 16.904 16.1191H14.9195Z" fill="white"/>
</g>
<defs>
<filter id="filter0_d_49_16089" x="0.542868" y="3.6981" width="24.9455" height="19.8391" filterUnits="userSpaceOnUse" color-interpolation-filters="sRGB">
<feFlood flood-opacity="0" result="BackgroundImageFix"/>
<feColorMatrix in="SourceAlpha" type="matrix" values="0 0 0 0 0 0 0 0 0 0 0 0 0 0 0 0 0 0 127 0" result="hardAlpha"/>
<feOffset dy="0.634234"/>
<feGaussianBlur stdDeviation="2.85405"/>
<feComposite in2="hardAlpha" operator="out"/>
<feColorMatrix type="matrix" values="0 0 0 0 0 0 0 0 0 0 0 0 0 0 0 0 0 0 0.6 0"/>
<feBlend mode="normal" in2="BackgroundImageFix" result="effect1_dropShadow_49_16089"/>
<feBlend mode="normal" in="SourceGraphic" in2="effect1_dropShadow_49_16089" result="shape"/>
</filter>
<linearGradient id="paint0_linear_49_16089" x1="28.0471" y1="25.768" x2="-6.85206" y2="3.09436" gradientUnits="userSpaceOnUse">
<stop stop-color="#5961F8"/>
</linearGradient>
</defs>
</svg>
