<svg width="30" height="27" viewBox="0 0 30 27" fill="none" xmlns="http://www.w3.org/2000/svg">
<rect x="3" y="0.00732422" width="26.0036" height="26.0036" rx="13.0018" fill="url(#paint0_linear_49_16088)"/>
<g filter="url(#filter0_d_49_16088)">
<path d="M8.96395 14.1887H11.3888V13.3637H8.96395V10.9388H8.13895V13.3637H5.71412V14.1887H8.13895V16.6135H8.96395V14.1887ZM13.1001 11.2287V11.2343H14.07V11.2287C14.07 10.2811 14.7055 9.65117 15.6476 9.65117C16.5339 9.65117 17.2195 10.2699 17.2195 11.0726C17.2195 11.7192 16.9687 12.154 15.9319 13.2801L13.1503 16.3181V17.0093H18.3567V16.1062H14.5884V16.017L16.5227 13.9378C17.8438 12.5219 18.2229 11.8698 18.2229 11.0336C18.2229 9.75708 17.1192 8.776 15.6754 8.776C14.1815 8.776 13.1001 9.80168 13.1001 11.2287Z" fill="white"/>
</g>
<defs>
<filter id="filter0_d_49_16088" x="0.00575876" y="3.702" width="24.0588" height="19.6496" filterUnits="userSpaceOnUse" color-interpolation-filters="sRGB">
<feFlood flood-opacity="0" result="BackgroundImageFix"/>
<feColorMatrix in="SourceAlpha" type="matrix" values="0 0 0 0 0 0 0 0 0 0 0 0 0 0 0 0 0 0 127 0" result="hardAlpha"/>
<feOffset dy="0.634234"/>
<feGaussianBlur stdDeviation="2.85405"/>
<feComposite in2="hardAlpha" operator="out"/>
<feColorMatrix type="matrix" values="0 0 0 0 0 0 0 0 0 0 0 0 0 0 0 0 0 0 0.6 0"/>
<feBlend mode="normal" in2="BackgroundImageFix" result="effect1_dropShadow_49_16088"/>
<feBlend mode="normal" in="SourceGraphic" in2="effect1_dropShadow_49_16088" result="shape"/>
</filter>
<linearGradient id="paint0_linear_49_16088" x1="31.0471" y1="25.7719" x2="-3.85206" y2="3.09827" gradientUnits="userSpaceOnUse">
<stop stop-color="#11A5C6"/>
</linearGradient>
</defs>
</svg>
