<svg width="27" height="20" viewBox="0 0 27 20" fill="none" xmlns="http://www.w3.org/2000/svg">
<path d="M16.313 19.6735H23.0306C23.8606 19.6735 24.5659 19.4759 25.1516 19.1317L16.313 13.5679V19.6735Z" fill="#2E3192"/>
<path d="M27.0848 16.2175C27.1805 15.7669 27.2292 15.2897 27.2292 14.7948V12.5796H21.3052L27.0831 16.2175" fill="#2E3192"/>
<path d="M0.50686 3.61475C0.407357 4.08612 0.35807 4.56774 0.359913 5.05066V7.2659H6.30664L0.50686 3.61475Z" fill="#2E3192"/>
<path d="M11.2714 0.177246H4.55386C3.7297 0.177246 3.02897 0.372187 2.4458 0.711562L11.2714 6.26738V0.177246Z" fill="#2E3192"/>
<path d="M2.47705 19.1537C3.05476 19.4834 3.74625 19.6739 4.55824 19.6739H11.2758V13.6147L2.47705 19.1537Z" fill="#2E3192"/>
<path d="M0.359863 12.5796V14.7948C0.359863 15.3048 0.411085 15.7961 0.512268 16.2582L6.35613 12.5796H0.359863Z" fill="#2E3192"/>
<path d="M25.1781 0.733271C24.5878 0.379719 23.8728 0.177246 23.0306 0.177246H16.313V6.3139L25.1781 0.733271Z" fill="#2E3192"/>
<path d="M27.2327 7.26723V5.05199C27.2327 4.56729 27.1853 4.09988 27.0933 3.65771L21.3599 7.26723H27.2327Z" fill="#2E3192"/>
<path d="M21.3521 7.26601L27.0856 3.6565C26.8228 2.38761 26.1829 1.33715 25.174 0.733271L16.3089 6.3139V0.177246H15.4692V8.15211H27.225V7.26601H21.3521Z" fill="#E6E7E8"/>
<path d="M0.359863 11.6968V12.5829H6.35613L0.512268 16.2615C0.789787 17.5264 1.44895 18.5649 2.47716 19.1515L11.2759 13.6125V19.6716H12.1156V11.6968H0.359863Z" fill="#E6E7E8"/>
<path d="M27.225 11.6968H15.4692V19.6716H16.3089V13.566L25.1476 19.1302C26.164 18.533 26.8118 17.4883 27.0805 16.2212L21.3026 12.5829H27.225V11.6968Z" fill="#E6E7E8"/>
<path d="M11.2759 0.177246V6.26738L2.45029 0.711562C1.43006 1.30525 0.778032 2.34818 0.50639 3.61486L6.30659 7.26601H0.359863V8.15211H12.1156V0.177246H11.2759Z" fill="#E6E7E8"/>
<path d="M15.4744 8.15211V0.177246H12.1156V8.15211H0.359863V11.6965H12.1156V19.6714H15.4744V11.6965H27.2301V8.15211H15.4744Z" fill="#BE1E2D"/>
<path d="M9.57567 7.26524L1.15772 1.9624C0.97677 2.24595 0.831502 2.55786 0.711426 2.89014L7.65865 7.26524H9.57441" fill="#BE1E2D"/>
<path d="M26.8501 17.0499L19.7912 12.5796H17.8364L26.3648 17.9932C26.5626 17.7016 26.7256 17.3854 26.8501 17.0517" fill="#BE1E2D"/>
<path d="M25.8489 1.23584L16.2974 7.26528L18.2366 7.26661L26.4787 2.05947C26.2948 1.70636 26.1008 1.47863 25.8489 1.23584Z" fill="#BE1E2D"/>
<path d="M1.12549 17.8408C1.31435 18.1443 1.54163 18.4192 1.80102 18.6578L11.3068 12.5796H9.39103L1.12549 17.8408Z" fill="#BE1E2D"/>
</svg>
