<svg width="704" height="156" viewBox="0 0 704 156" fill="none" xmlns="http://www.w3.org/2000/svg">
<rect width="703.256" height="155.621" rx="4" fill="#15142A"/>
<path d="M360.628 65.3105V69.3105C360.628 69.841 360.417 70.3497 360.042 70.7248C359.667 71.0998 359.158 71.3105 358.628 71.3105H344.628C344.097 71.3105 343.589 71.0998 343.214 70.7248C342.839 70.3497 342.628 69.841 342.628 69.3105V65.3105M356.628 58.3105L351.628 53.3105M351.628 53.3105L346.628 58.3105M351.628 53.3105V65.3105" stroke="#C8D8FF" stroke-width="2" stroke-linecap="round" stroke-linejoin="round"/>
<path d="M266.04 98.6094C269.187 98.6094 271.067 96.7109 271.067 93.9512V85.6279H269.485V93.8457C269.485 95.7969 268.237 97.1504 266.04 97.1504C263.843 97.1504 262.577 95.7969 262.577 93.8457V85.6279H260.995V93.9512C260.995 96.7109 262.894 98.6094 266.04 98.6094ZM274.091 101.475H275.62V96.8164H275.761C276.279 97.8271 277.413 98.4775 278.714 98.4775C281.122 98.4775 282.687 96.5527 282.687 93.582V93.5645C282.687 90.6113 281.113 88.6689 278.714 88.6689C277.396 88.6689 276.341 89.293 275.761 90.3477H275.62V88.8359H274.091V101.475ZM278.362 97.124C276.64 97.124 275.585 95.7705 275.585 93.582V93.5645C275.585 91.376 276.64 90.0225 278.362 90.0225C280.094 90.0225 281.122 91.3584 281.122 93.5645V93.582C281.122 95.7881 280.094 97.124 278.362 97.124ZM285.165 98.3105H286.694V85.0742H285.165V98.3105ZM293.523 98.4775C296.222 98.4775 297.892 96.6143 297.892 93.582V93.5645C297.892 90.5234 296.222 88.6689 293.523 88.6689C290.825 88.6689 289.155 90.5234 289.155 93.5645V93.582C289.155 96.6143 290.825 98.4775 293.523 98.4775ZM293.523 97.124C291.73 97.124 290.72 95.8145 290.72 93.582V93.5645C290.72 91.3232 291.73 90.0225 293.523 90.0225C295.316 90.0225 296.327 91.3232 296.327 93.5645V93.582C296.327 95.8145 295.316 97.124 293.523 97.124ZM302.866 98.4775C304.141 98.4775 305.134 97.9238 305.731 96.9131H305.872V98.3105H307.401V91.8242C307.401 89.8555 306.109 88.6689 303.798 88.6689C301.776 88.6689 300.335 89.6709 300.089 91.1562L300.08 91.209H301.609L301.618 91.1826C301.864 90.4443 302.611 90.0225 303.745 90.0225C305.16 90.0225 305.872 90.6553 305.872 91.8242V92.6855L303.156 92.8525C300.95 92.9844 299.702 93.96 299.702 95.6475V95.665C299.702 97.3877 301.064 98.4775 302.866 98.4775ZM301.267 95.6299V95.6123C301.267 94.6719 301.899 94.1621 303.341 94.0742L305.872 93.916V94.7773C305.872 96.1309 304.738 97.1504 303.183 97.1504C302.084 97.1504 301.267 96.5879 301.267 95.6299ZM313.694 98.4775C315.013 98.4775 316.067 97.8535 316.647 96.7988H316.788V98.3105H318.317V85.0742H316.788V90.3301H316.647C316.129 89.3193 314.995 88.6689 313.694 88.6689C311.286 88.6689 309.722 90.5938 309.722 93.5645V93.582C309.722 96.5352 311.295 98.4775 313.694 98.4775ZM314.046 97.124C312.314 97.124 311.286 95.7881 311.286 93.582V93.5645C311.286 91.3584 312.314 90.0225 314.046 90.0225C315.769 90.0225 316.823 91.376 316.823 93.5645V93.582C316.823 95.7705 315.769 97.124 314.046 97.124ZM326.948 98.3105H328.478V90.1016H330.631V88.8359H328.478V87.8252C328.478 86.7881 328.917 86.252 330.007 86.252C330.279 86.252 330.534 86.2607 330.719 86.2959V85.0742C330.402 85.0127 330.068 84.9863 329.699 84.9863C327.897 84.9863 326.948 85.8916 326.948 87.7812V88.8359H325.375V90.1016H326.948V98.3105ZM332.837 98.3105H334.366V92.4395C334.366 91.0508 335.403 90.1279 336.862 90.1279C337.196 90.1279 337.486 90.1631 337.803 90.2158V88.7305C337.653 88.7041 337.328 88.6689 337.038 88.6689C335.755 88.6689 334.867 89.249 334.507 90.2422H334.366V88.8359H332.837V98.3105ZM343.322 98.4775C346.021 98.4775 347.69 96.6143 347.69 93.582V93.5645C347.69 90.5234 346.021 88.6689 343.322 88.6689C340.624 88.6689 338.954 90.5234 338.954 93.5645V93.582C338.954 96.6143 340.624 98.4775 343.322 98.4775ZM343.322 97.124C341.529 97.124 340.519 95.8145 340.519 93.582V93.5645C340.519 91.3232 341.529 90.0225 343.322 90.0225C345.115 90.0225 346.126 91.3232 346.126 93.5645V93.582C346.126 95.8145 345.115 97.124 343.322 97.124ZM350.063 98.3105H351.593V92.4395C351.593 91.1035 352.533 90.0225 353.772 90.0225C354.968 90.0225 355.741 90.752 355.741 91.877V98.3105H357.271V92.2197C357.271 91.0156 358.141 90.0225 359.459 90.0225C360.795 90.0225 361.437 90.7168 361.437 92.1143V98.3105H362.966V91.7627C362.966 89.7764 361.885 88.6689 359.951 88.6689C358.642 88.6689 357.561 89.3281 357.051 90.3301H356.91C356.471 89.3457 355.574 88.6689 354.291 88.6689C353.052 88.6689 352.155 89.2578 351.733 90.2773H351.593V88.8359H350.063V98.3105ZM374.154 98.3809C374.453 98.3809 374.743 98.3457 375.042 98.293V96.9922C374.761 97.0186 374.611 97.0273 374.339 97.0273C373.354 97.0273 372.968 96.5791 372.968 95.4629V90.1016H375.042V88.8359H372.968V86.3838H371.386V88.8359H369.892V90.1016H371.386V95.8496C371.386 97.6602 372.203 98.3809 374.154 98.3809ZM381.054 98.4775C383.286 98.4775 384.64 97.2119 384.965 95.9287L384.982 95.8584H383.453L383.418 95.9375C383.163 96.5088 382.372 97.1152 381.089 97.1152C379.401 97.1152 378.32 95.9727 378.276 94.0127H385.097V93.415C385.097 90.585 383.532 88.6689 380.957 88.6689C378.382 88.6689 376.712 90.6729 376.712 93.5996V93.6084C376.712 96.5791 378.347 98.4775 381.054 98.4775ZM380.948 90.0312C382.346 90.0312 383.383 90.9189 383.541 92.791H378.303C378.47 90.9893 379.542 90.0312 380.948 90.0312ZM387.47 98.3105H388.999V92.4395C388.999 91.1035 389.939 90.0225 391.179 90.0225C392.374 90.0225 393.147 90.752 393.147 91.877V98.3105H394.677V92.2197C394.677 91.0156 395.547 90.0225 396.865 90.0225C398.201 90.0225 398.843 90.7168 398.843 92.1143V98.3105H400.372V91.7627C400.372 89.7764 399.291 88.6689 397.357 88.6689C396.048 88.6689 394.967 89.3281 394.457 90.3301H394.316C393.877 89.3457 392.98 88.6689 391.697 88.6689C390.458 88.6689 389.562 89.2578 389.14 90.2773H388.999V88.8359H387.47V98.3105ZM403.132 101.475H404.661V96.8164H404.802C405.32 97.8271 406.454 98.4775 407.755 98.4775C410.163 98.4775 411.728 96.5527 411.728 93.582V93.5645C411.728 90.6113 410.154 88.6689 407.755 88.6689C406.437 88.6689 405.382 89.293 404.802 90.3477H404.661V88.8359H403.132V101.475ZM407.403 97.124C405.681 97.124 404.626 95.7705 404.626 93.582V93.5645C404.626 91.376 405.681 90.0225 407.403 90.0225C409.135 90.0225 410.163 91.3584 410.163 93.5645V93.582C410.163 95.7881 409.135 97.124 407.403 97.124ZM414.206 98.3105H415.735V85.0742H414.206V98.3105ZM421.272 98.4775C422.547 98.4775 423.54 97.9238 424.138 96.9131H424.278V98.3105H425.808V91.8242C425.808 89.8555 424.516 88.6689 422.204 88.6689C420.183 88.6689 418.741 89.6709 418.495 91.1562L418.486 91.209H420.016L420.024 91.1826C420.271 90.4443 421.018 90.0225 422.151 90.0225C423.566 90.0225 424.278 90.6553 424.278 91.8242V92.6855L421.562 92.8525C419.356 92.9844 418.108 93.96 418.108 95.6475V95.665C418.108 97.3877 419.471 98.4775 421.272 98.4775ZM419.673 95.6299V95.6123C419.673 94.6719 420.306 94.1621 421.747 94.0742L424.278 93.916V94.7773C424.278 96.1309 423.145 97.1504 421.589 97.1504C420.49 97.1504 419.673 96.5879 419.673 95.6299ZM431.969 98.3809C432.268 98.3809 432.558 98.3457 432.856 98.293V96.9922C432.575 97.0186 432.426 97.0273 432.153 97.0273C431.169 97.0273 430.782 96.5791 430.782 95.4629V90.1016H432.856V88.8359H430.782V86.3838H429.2V88.8359H427.706V90.1016H429.2V95.8496C429.2 97.6602 430.018 98.3809 431.969 98.3809ZM438.868 98.4775C441.101 98.4775 442.454 97.2119 442.779 95.9287L442.797 95.8584H441.268L441.232 95.9375C440.978 96.5088 440.187 97.1152 438.903 97.1152C437.216 97.1152 436.135 95.9727 436.091 94.0127H442.911V93.415C442.911 90.585 441.347 88.6689 438.771 88.6689C436.196 88.6689 434.526 90.6729 434.526 93.5996V93.6084C434.526 96.5791 436.161 98.4775 438.868 98.4775ZM438.763 90.0312C440.16 90.0312 441.197 90.9189 441.355 92.791H436.117C436.284 90.9893 437.356 90.0312 438.763 90.0312Z" fill="url(#paint0_linear_2_48247)"/>
<defs>
<linearGradient id="paint0_linear_2_48247" x1="458.666" y1="102.127" x2="449.153" y2="44.9561" gradientUnits="userSpaceOnUse">
<stop stop-color="#5961F8"/>
<stop offset="1" stop-color="#F2D9F7"/>
</linearGradient>
</defs>
</svg>
