<svg width="703" height="95" viewBox="0 0 703 95" fill="none" xmlns="http://www.w3.org/2000/svg">
<rect y="0.621094" width="703" height="94" rx="4" fill="#15142A"/>
<path d="M160.522 53.6211H165.471C168.169 53.6211 169.769 52.2939 169.769 50.0703V50.0527C169.769 48.3828 168.67 47.1963 166.938 46.9766V46.8359C168.16 46.6162 169.127 45.4209 169.127 44.1113V44.0938C169.127 42.1602 167.703 40.9385 165.374 40.9385H160.522V53.6211ZM165.04 42.3359C166.613 42.3359 167.527 43.083 167.527 44.3662V44.3838C167.527 45.7197 166.552 46.4053 164.636 46.4053H162.104V42.3359H165.04ZM165.084 47.7676C167.105 47.7676 168.143 48.5146 168.143 49.9736V49.9912C168.143 51.4502 167.141 52.2236 165.233 52.2236H162.104V47.7676H165.084ZM172.159 53.6211H173.688V47.75C173.688 46.3613 174.726 45.4385 176.185 45.4385C176.519 45.4385 176.809 45.4736 177.125 45.5264V44.041C176.976 44.0146 176.65 43.9795 176.36 43.9795C175.077 43.9795 174.189 44.5596 173.829 45.5527H173.688V44.1465H172.159V53.6211ZM182.645 53.7881C185.343 53.7881 187.013 51.9248 187.013 48.8926V48.875C187.013 45.834 185.343 43.9795 182.645 43.9795C179.946 43.9795 178.276 45.834 178.276 48.875V48.8926C178.276 51.9248 179.946 53.7881 182.645 53.7881ZM182.645 52.4346C180.852 52.4346 179.841 51.125 179.841 48.8926V48.875C179.841 46.6338 180.852 45.333 182.645 45.333C184.438 45.333 185.448 46.6338 185.448 48.875V48.8926C185.448 51.125 184.438 52.4346 182.645 52.4346ZM190.862 53.6211H192.392L194.501 46.291H194.642L196.76 53.6211H198.298L200.952 44.1465H199.432L197.568 51.7227H197.428L195.31 44.1465H193.859L191.741 51.7227H191.601L189.737 44.1465H188.208L190.862 53.6211ZM205.962 53.7881C208.115 53.7881 209.759 52.6191 209.759 50.9316V50.9141C209.759 49.5605 208.897 48.7871 207.113 48.3564L205.654 48.0049C204.538 47.7324 204.063 47.3281 204.063 46.6865V46.6689C204.063 45.834 204.89 45.2539 206.015 45.2539C207.157 45.2539 207.896 45.7725 208.098 46.5195H209.601C209.39 44.9727 208.01 43.9795 206.023 43.9795C204.011 43.9795 202.499 45.166 202.499 46.7393V46.748C202.499 48.1104 203.299 48.8838 205.074 49.3057L206.542 49.6572C207.711 49.9385 208.194 50.3867 208.194 51.0283V51.0459C208.194 51.9072 207.289 52.5137 206.015 52.5137C204.802 52.5137 204.046 51.9951 203.791 51.2041H202.227C202.402 52.7686 203.853 53.7881 205.962 53.7881ZM215.999 53.7881C218.231 53.7881 219.585 52.5225 219.91 51.2393L219.928 51.1689H218.398L218.363 51.248C218.108 51.8193 217.317 52.4258 216.034 52.4258C214.347 52.4258 213.266 51.2832 213.222 49.3232H220.042V48.7256C220.042 45.8955 218.478 43.9795 215.902 43.9795C213.327 43.9795 211.657 45.9834 211.657 48.9102V48.9189C211.657 51.8896 213.292 53.7881 215.999 53.7881ZM215.894 45.3418C217.291 45.3418 218.328 46.2295 218.486 48.1016H213.248C213.415 46.2998 214.487 45.3418 215.894 45.3418ZM230.844 53.6914C231.143 53.6914 231.433 53.6562 231.731 53.6035V52.3027C231.45 52.3291 231.301 52.3379 231.028 52.3379C230.044 52.3379 229.657 51.8896 229.657 50.7734V45.4121H231.731V44.1465H229.657V41.6943H228.075V44.1465H226.581V45.4121H228.075V51.1602C228.075 52.9707 228.893 53.6914 230.844 53.6914ZM234.104 53.6211H235.634V48.0137C235.634 46.3525 236.592 45.333 238.104 45.333C239.615 45.333 240.318 46.1504 240.318 47.8555V53.6211H241.848V47.4863C241.848 45.2363 240.661 43.9795 238.534 43.9795C237.137 43.9795 236.249 44.5684 235.774 45.5703H235.634V40.3848H234.104V53.6211ZM248.483 53.7881C250.716 53.7881 252.069 52.5225 252.395 51.2393L252.412 51.1689H250.883L250.848 51.248C250.593 51.8193 249.802 52.4258 248.519 52.4258C246.831 52.4258 245.75 51.2832 245.706 49.3232H252.526V48.7256C252.526 45.8955 250.962 43.9795 248.387 43.9795C245.812 43.9795 244.142 45.9834 244.142 48.9102V48.9189C244.142 51.8896 245.776 53.7881 248.483 53.7881ZM248.378 45.3418C249.775 45.3418 250.812 46.2295 250.971 48.1016H245.732C245.899 46.2998 246.972 45.3418 248.378 45.3418ZM260.155 53.6211H261.737V48.1279H267.354V46.7217H261.737V42.3623H267.854V40.9385H260.155V53.6211ZM274.156 53.7881C276.854 53.7881 278.524 51.9248 278.524 48.8926V48.875C278.524 45.834 276.854 43.9795 274.156 43.9795C271.458 43.9795 269.788 45.834 269.788 48.875V48.8926C269.788 51.9248 271.458 53.7881 274.156 53.7881ZM274.156 52.4346C272.363 52.4346 271.353 51.125 271.353 48.8926V48.875C271.353 46.6338 272.363 45.333 274.156 45.333C275.949 45.333 276.96 46.6338 276.96 48.875V48.8926C276.96 51.125 275.949 52.4346 274.156 52.4346ZM280.985 53.6211H282.515V40.3848H280.985V53.6211ZM288.948 53.7881C290.267 53.7881 291.321 53.1641 291.901 52.1094H292.042V53.6211H293.571V40.3848H292.042V45.6406H291.901C291.383 44.6299 290.249 43.9795 288.948 43.9795C286.54 43.9795 284.976 45.9043 284.976 48.875V48.8926C284.976 51.8457 286.549 53.7881 288.948 53.7881ZM289.3 52.4346C287.568 52.4346 286.54 51.0986 286.54 48.8926V48.875C286.54 46.6689 287.568 45.333 289.3 45.333C291.022 45.333 292.077 46.6865 292.077 48.875V48.8926C292.077 51.0811 291.022 52.4346 289.3 52.4346ZM300.374 53.7881C302.606 53.7881 303.96 52.5225 304.285 51.2393L304.303 51.1689H302.773L302.738 51.248C302.483 51.8193 301.692 52.4258 300.409 52.4258C298.722 52.4258 297.641 51.2832 297.597 49.3232H304.417V48.7256C304.417 45.8955 302.853 43.9795 300.277 43.9795C297.702 43.9795 296.032 45.9834 296.032 48.9102V48.9189C296.032 51.8896 297.667 53.7881 300.374 53.7881ZM300.269 45.3418C301.666 45.3418 302.703 46.2295 302.861 48.1016H297.623C297.79 46.2998 298.862 45.3418 300.269 45.3418ZM306.79 53.6211H308.319V47.75C308.319 46.3613 309.356 45.4385 310.815 45.4385C311.149 45.4385 311.439 45.4736 311.756 45.5264V44.041C311.606 44.0146 311.281 43.9795 310.991 43.9795C309.708 43.9795 308.82 44.5596 308.46 45.5527H308.319V44.1465H306.79V53.6211ZM322.584 53.7881C324.86 53.7881 326.135 52.5664 326.521 50.8525L326.539 50.7559L325.027 50.7646L325.01 50.8174C324.658 51.8721 323.85 52.4346 322.575 52.4346C320.888 52.4346 319.798 51.0371 319.798 48.8574V48.8398C319.798 46.7041 320.87 45.333 322.575 45.333C323.938 45.333 324.781 46.0889 325.019 47.0205L325.027 47.0469H326.548L326.539 46.9941C326.258 45.3066 324.878 43.9795 322.575 43.9795C319.921 43.9795 318.233 45.8955 318.233 48.8398V48.8574C318.233 51.8633 319.93 53.7881 322.584 53.7881ZM332.674 53.7881C335.372 53.7881 337.042 51.9248 337.042 48.8926V48.875C337.042 45.834 335.372 43.9795 332.674 43.9795C329.976 43.9795 328.306 45.834 328.306 48.875V48.8926C328.306 51.9248 329.976 53.7881 332.674 53.7881ZM332.674 52.4346C330.881 52.4346 329.87 51.125 329.87 48.8926V48.875C329.87 46.6338 330.881 45.333 332.674 45.333C334.467 45.333 335.478 46.6338 335.478 48.875V48.8926C335.478 51.125 334.467 52.4346 332.674 52.4346ZM339.415 53.6211H340.944V48.0137C340.944 46.3525 341.902 45.333 343.414 45.333C344.926 45.333 345.629 46.1504 345.629 47.8555V53.6211H347.158V47.4863C347.158 45.2363 345.972 43.9795 343.845 43.9795C342.447 43.9795 341.56 44.5684 341.085 45.5703H340.944V44.1465H339.415V53.6211ZM353.293 53.6914C353.592 53.6914 353.882 53.6562 354.181 53.6035V52.3027C353.899 52.3291 353.75 52.3379 353.478 52.3379C352.493 52.3379 352.106 51.8896 352.106 50.7734V45.4121H354.181V44.1465H352.106V41.6943H350.524V44.1465H349.03V45.4121H350.524V51.1602C350.524 52.9707 351.342 53.6914 353.293 53.6914ZM359.067 53.7881C360.342 53.7881 361.335 53.2344 361.933 52.2236H362.073V53.6211H363.603V47.1348C363.603 45.166 362.311 43.9795 359.999 43.9795C357.978 43.9795 356.536 44.9814 356.29 46.4668L356.281 46.5195H357.811L357.819 46.4932C358.065 45.7549 358.812 45.333 359.946 45.333C361.361 45.333 362.073 45.9658 362.073 47.1348V47.9961L359.357 48.1631C357.151 48.2949 355.903 49.2705 355.903 50.958V50.9756C355.903 52.6982 357.266 53.7881 359.067 53.7881ZM357.468 50.9404V50.9229C357.468 49.9824 358.101 49.4727 359.542 49.3848L362.073 49.2266V50.0879C362.073 51.4414 360.939 52.4609 359.384 52.4609C358.285 52.4609 357.468 51.8984 357.468 50.9404ZM367.206 42.3184C367.786 42.3184 368.261 41.8438 368.261 41.2637C368.261 40.6836 367.786 40.209 367.206 40.209C366.626 40.209 366.151 40.6836 366.151 41.2637C366.151 41.8438 366.626 42.3184 367.206 42.3184ZM366.433 53.6211H367.962V44.1465H366.433V53.6211ZM370.845 53.6211H372.374V48.0137C372.374 46.3525 373.332 45.333 374.844 45.333C376.355 45.333 377.059 46.1504 377.059 47.8555V53.6211H378.588V47.4863C378.588 45.2363 377.401 43.9795 375.274 43.9795C373.877 43.9795 372.989 44.5684 372.515 45.5703H372.374V44.1465H370.845V53.6211ZM382.165 42.3184C382.745 42.3184 383.22 41.8438 383.22 41.2637C383.22 40.6836 382.745 40.209 382.165 40.209C381.585 40.209 381.11 40.6836 381.11 41.2637C381.11 41.8438 381.585 42.3184 382.165 42.3184ZM381.392 53.6211H382.921V44.1465H381.392V53.6211ZM385.804 53.6211H387.333V48.0137C387.333 46.3525 388.291 45.333 389.803 45.333C391.314 45.333 392.018 46.1504 392.018 47.8555V53.6211H393.547V47.4863C393.547 45.2363 392.36 43.9795 390.233 43.9795C388.836 43.9795 387.948 44.5684 387.474 45.5703H387.333V44.1465H385.804V53.6211ZM400.218 56.9609C402.802 56.9609 404.437 55.6074 404.437 53.4893V44.1465H402.907V45.7109H402.802C402.222 44.6387 401.185 43.9795 399.849 43.9795C397.37 43.9795 395.841 45.9043 395.841 48.5586V48.5762C395.841 51.2305 397.361 53.1289 399.813 53.1289C401.114 53.1289 402.187 52.54 402.784 51.4941H402.925V53.4102C402.925 54.8076 401.914 55.6074 400.218 55.6074C398.855 55.6074 398.012 55.0977 397.845 54.377L397.836 54.3682H396.254L396.236 54.377C396.474 55.9326 397.933 56.9609 400.218 56.9609ZM400.147 51.7754C398.39 51.7754 397.405 50.457 397.405 48.5762V48.5586C397.405 46.6777 398.39 45.333 400.147 45.333C401.896 45.333 402.96 46.6777 402.96 48.5586V48.5762C402.96 50.457 401.905 51.7754 400.147 51.7754ZM412.54 53.6211H414.122V49.0947H417.321C419.703 49.0947 421.391 47.416 421.391 45.0078V44.9902C421.391 42.582 419.703 40.9385 417.321 40.9385H412.54V53.6211ZM416.917 42.3447C418.728 42.3447 419.773 43.3379 419.773 45.0078V45.0254C419.773 46.6953 418.728 47.6885 416.917 47.6885H414.122V42.3447H416.917ZM423.79 53.6211H425.319V47.75C425.319 46.3613 426.356 45.4385 427.815 45.4385C428.149 45.4385 428.439 45.4736 428.756 45.5264V44.041C428.606 44.0146 428.281 43.9795 427.991 43.9795C426.708 43.9795 425.82 44.5596 425.46 45.5527H425.319V44.1465H423.79V53.6211ZM434.275 53.7881C436.974 53.7881 438.644 51.9248 438.644 48.8926V48.875C438.644 45.834 436.974 43.9795 434.275 43.9795C431.577 43.9795 429.907 45.834 429.907 48.875V48.8926C429.907 51.9248 431.577 53.7881 434.275 53.7881ZM434.275 52.4346C432.482 52.4346 431.472 51.125 431.472 48.8926V48.875C431.472 46.6338 432.482 45.333 434.275 45.333C436.068 45.333 437.079 46.6338 437.079 48.875V48.8926C437.079 51.125 436.068 52.4346 434.275 52.4346ZM444.515 53.7881C445.833 53.7881 446.888 53.1641 447.468 52.1094H447.608V53.6211H449.138V40.3848H447.608V45.6406H447.468C446.949 44.6299 445.815 43.9795 444.515 43.9795C442.106 43.9795 440.542 45.9043 440.542 48.875V48.8926C440.542 51.8457 442.115 53.7881 444.515 53.7881ZM444.866 52.4346C443.135 52.4346 442.106 51.0986 442.106 48.8926V48.875C442.106 46.6689 443.135 45.333 444.866 45.333C446.589 45.333 447.644 46.6865 447.644 48.875V48.8926C447.644 51.0811 446.589 52.4346 444.866 52.4346ZM455.246 53.7881C456.635 53.7881 457.593 53.2168 458.059 52.2061H458.199V53.6211H459.729V44.1465H458.199V49.7539C458.199 51.415 457.312 52.4346 455.642 52.4346C454.13 52.4346 453.515 51.6172 453.515 49.9121V44.1465H451.985V50.2812C451.985 52.5225 453.093 53.7881 455.246 53.7881ZM466.461 53.7881C468.737 53.7881 470.012 52.5664 470.398 50.8525L470.416 50.7559L468.904 50.7646L468.887 50.8174C468.535 51.8721 467.727 52.4346 466.452 52.4346C464.765 52.4346 463.675 51.0371 463.675 48.8574V48.8398C463.675 46.7041 464.747 45.333 466.452 45.333C467.814 45.333 468.658 46.0889 468.896 47.0205L468.904 47.0469H470.425L470.416 46.9941C470.135 45.3066 468.755 43.9795 466.452 43.9795C463.798 43.9795 462.11 45.8955 462.11 48.8398V48.8574C462.11 51.8633 463.807 53.7881 466.461 53.7881ZM476.199 53.6914C476.498 53.6914 476.788 53.6562 477.087 53.6035V52.3027C476.806 52.3291 476.656 52.3379 476.384 52.3379C475.399 52.3379 475.013 51.8896 475.013 50.7734V45.4121H477.087V44.1465H475.013V41.6943H473.431V44.1465H471.937V45.4121H473.431V51.1602C473.431 52.9707 474.248 53.6914 476.199 53.6914ZM484.628 53.6211H486.21V40.9385H484.628V53.6211ZM489.251 53.6211H490.78V47.75C490.78 46.4141 491.721 45.333 492.96 45.333C494.155 45.333 494.929 46.0625 494.929 47.1875V53.6211H496.458V47.5303C496.458 46.3262 497.328 45.333 498.646 45.333C499.982 45.333 500.624 46.0273 500.624 47.4248V53.6211H502.153V47.0732C502.153 45.0869 501.072 43.9795 499.139 43.9795C497.829 43.9795 496.748 44.6387 496.238 45.6406H496.098C495.658 44.6562 494.762 43.9795 493.479 43.9795C492.239 43.9795 491.343 44.5684 490.921 45.5879H490.78V44.1465H489.251V53.6211ZM507.515 53.7881C508.789 53.7881 509.782 53.2344 510.38 52.2236H510.521V53.6211H512.05V47.1348C512.05 45.166 510.758 43.9795 508.446 43.9795C506.425 43.9795 504.983 44.9814 504.737 46.4668L504.729 46.5195H506.258L506.267 46.4932C506.513 45.7549 507.26 45.333 508.394 45.333C509.809 45.333 510.521 45.9658 510.521 47.1348V47.9961L507.805 48.1631C505.599 48.2949 504.351 49.2705 504.351 50.958V50.9756C504.351 52.6982 505.713 53.7881 507.515 53.7881ZM505.915 50.9404V50.9229C505.915 49.9824 506.548 49.4727 507.989 49.3848L510.521 49.2266V50.0879C510.521 51.4414 509.387 52.4609 507.831 52.4609C506.732 52.4609 505.915 51.8984 505.915 50.9404ZM518.747 56.9609C521.331 56.9609 522.966 55.6074 522.966 53.4893V44.1465H521.437V45.7109H521.331C520.751 44.6387 519.714 43.9795 518.378 43.9795C515.899 43.9795 514.37 45.9043 514.37 48.5586V48.5762C514.37 51.2305 515.891 53.1289 518.343 53.1289C519.644 53.1289 520.716 52.54 521.313 51.4941H521.454V53.4102C521.454 54.8076 520.443 55.6074 518.747 55.6074C517.385 55.6074 516.541 55.0977 516.374 54.377L516.365 54.3682H514.783L514.766 54.377C515.003 55.9326 516.462 56.9609 518.747 56.9609ZM518.677 51.7754C516.919 51.7754 515.935 50.457 515.935 48.5762V48.5586C515.935 46.6777 516.919 45.333 518.677 45.333C520.426 45.333 521.489 46.6777 521.489 48.5586V48.5762C521.489 50.457 520.435 51.7754 518.677 51.7754ZM529.681 53.7881C531.913 53.7881 533.267 52.5225 533.592 51.2393L533.609 51.1689H532.08L532.045 51.248C531.79 51.8193 530.999 52.4258 529.716 52.4258C528.028 52.4258 526.947 51.2832 526.903 49.3232H533.724V48.7256C533.724 45.8955 532.159 43.9795 529.584 43.9795C527.009 43.9795 525.339 45.9834 525.339 48.9102V48.9189C525.339 51.8896 526.974 53.7881 529.681 53.7881ZM529.575 45.3418C530.973 45.3418 532.01 46.2295 532.168 48.1016H526.93C527.097 46.2998 528.169 45.3418 529.575 45.3418ZM539.349 53.7881C541.502 53.7881 543.146 52.6191 543.146 50.9316V50.9141C543.146 49.5605 542.284 48.7871 540.5 48.3564L539.041 48.0049C537.925 47.7324 537.45 47.3281 537.45 46.6865V46.6689C537.45 45.834 538.276 45.2539 539.401 45.2539C540.544 45.2539 541.282 45.7725 541.484 46.5195H542.987C542.776 44.9727 541.396 43.9795 539.41 43.9795C537.397 43.9795 535.886 45.166 535.886 46.7393V46.748C535.886 48.1104 536.686 48.8838 538.461 49.3057L539.929 49.6572C541.098 49.9385 541.581 50.3867 541.581 51.0283V51.0459C541.581 51.9072 540.676 52.5137 539.401 52.5137C538.188 52.5137 537.433 51.9951 537.178 51.2041H535.613C535.789 52.7686 537.239 53.7881 539.349 53.7881Z" fill="url(#paint0_linear_2_48253)"/>
<defs>
<linearGradient id="paint0_linear_2_48253" x1="574.834" y1="57.4372" x2="570.178" y2="-0.945059" gradientUnits="userSpaceOnUse">
<stop stop-color="#5961F8"/>
<stop offset="1" stop-color="#F2D9F7"/>
</linearGradient>
</defs>
</svg>
