<svg width="704" height="156" viewBox="0 0 704 156" fill="none" xmlns="http://www.w3.org/2000/svg">
<rect width="703.256" height="155.621" rx="4" fill="#15142A"/>
<path d="M360.628 65.3105V69.3105C360.628 69.841 360.417 70.3497 360.042 70.7248C359.667 71.0998 359.158 71.3105 358.628 71.3105H344.628C344.097 71.3105 343.589 71.0998 343.214 70.7248C342.839 70.3497 342.628 69.841 342.628 69.3105V65.3105M356.628 58.3105L351.628 53.3105M351.628 53.3105L346.628 58.3105M351.628 53.3105V65.3105" stroke="#C8D8FF" stroke-width="2" stroke-linecap="round" stroke-linejoin="round"/>
<path d="M259.791 85.6279H258.209V93.9512C258.209 96.6582 260.099 98.6094 263.245 98.6094C266.392 98.6094 268.281 96.6582 268.281 93.9512V85.6279H266.699V93.8457C266.699 95.7617 265.442 97.1504 263.245 97.1504C261.048 97.1504 259.791 95.7617 259.791 93.8457V85.6279ZM275.98 88.6689C274.688 88.6689 273.555 89.3281 272.948 90.418H272.808V88.8359H271.366V101.475H272.878V96.8867H273.019C273.537 97.8887 274.627 98.4775 275.98 98.4775C278.389 98.4775 279.962 96.5352 279.962 93.5732C279.962 90.5938 278.397 88.6689 275.98 88.6689ZM275.62 97.1152C273.915 97.1152 272.834 95.7441 272.834 93.5732C272.834 91.3936 273.915 90.0312 275.629 90.0312C277.36 90.0312 278.397 91.3584 278.397 93.5732C278.397 95.7881 277.36 97.1152 275.62 97.1152ZM282.423 98.3105H283.935V85.0742H282.423V98.3105ZM290.764 98.4775C293.462 98.4775 295.132 96.6143 295.132 93.5732C295.132 90.5234 293.462 88.6689 290.764 88.6689C288.065 88.6689 286.396 90.5234 286.396 93.5732C286.396 96.6143 288.065 98.4775 290.764 98.4775ZM290.764 97.1152C288.971 97.1152 287.96 95.8145 287.96 93.5732C287.96 91.3232 288.971 90.0312 290.764 90.0312C292.557 90.0312 293.567 91.3232 293.567 93.5732C293.567 95.8145 292.557 97.1152 290.764 97.1152ZM300.423 97.1504C299.324 97.1504 298.507 96.5879 298.507 95.6211C298.507 94.6719 299.14 94.1709 300.581 94.0742L303.13 93.9072V94.7773C303.13 96.1309 301.979 97.1504 300.423 97.1504ZM300.142 98.4775C301.407 98.4775 302.444 97.9238 303.06 96.9131H303.2V98.3105H304.642V91.8242C304.642 89.8555 303.35 88.6689 301.038 88.6689C299.017 88.6689 297.522 89.6709 297.32 91.1914H298.85C299.061 90.4443 299.852 90.0137 300.985 90.0137C302.4 90.0137 303.13 90.6553 303.13 91.8242V92.6855L300.396 92.8525C298.19 92.9844 296.942 93.96 296.942 95.6562C296.942 97.3877 298.305 98.4775 300.142 98.4775ZM310.943 98.4775C312.253 98.4775 313.378 97.8535 313.976 96.7988H314.116V98.3105H315.558V85.0742H314.046V90.3301H313.914C313.378 89.293 312.262 88.6689 310.943 88.6689C308.535 88.6689 306.962 90.6025 306.962 93.5732C306.962 96.5527 308.518 98.4775 310.943 98.4775ZM311.295 90.0312C313.009 90.0312 314.081 91.4023 314.081 93.5732C314.081 95.7617 313.018 97.1152 311.295 97.1152C309.563 97.1152 308.526 95.7881 308.526 93.5732C308.526 91.3672 309.572 90.0312 311.295 90.0312ZM324.382 101.738C326.061 101.738 326.816 101.088 327.625 98.8906L331.325 88.8359H329.717L327.124 96.6318H326.983L324.382 88.8359H322.747L326.254 98.3193L326.078 98.8818C325.683 100.024 325.208 100.438 324.338 100.438C324.127 100.438 323.89 100.429 323.705 100.394V101.686C323.916 101.721 324.18 101.738 324.382 101.738ZM336.889 98.4775C339.587 98.4775 341.257 96.6143 341.257 93.5732C341.257 90.5234 339.587 88.6689 336.889 88.6689C334.19 88.6689 332.521 90.5234 332.521 93.5732C332.521 96.6143 334.19 98.4775 336.889 98.4775ZM336.889 97.1152C335.096 97.1152 334.085 95.8145 334.085 93.5732C334.085 91.3232 335.096 90.0312 336.889 90.0312C338.682 90.0312 339.692 91.3232 339.692 93.5732C339.692 95.8145 338.682 97.1152 336.889 97.1152ZM351.294 88.8359H349.782V94.4434C349.782 96.1045 348.868 97.0977 347.198 97.0977C345.687 97.0977 345.054 96.3066 345.054 94.6016V88.8359H343.542V94.9707C343.542 97.2119 344.649 98.4775 346.776 98.4775C348.227 98.4775 349.237 97.8799 349.712 96.8252H349.853V98.3105H351.294V88.8359ZM354.142 98.3105H355.653V92.4395C355.653 91.1035 356.699 90.1367 358.141 90.1367C358.439 90.1367 358.984 90.1895 359.107 90.2246V88.7129C358.914 88.6865 358.598 88.6689 358.352 88.6689C357.095 88.6689 356.005 89.3193 355.724 90.2422H355.583V88.8359H354.142V98.3105ZM366.165 98.3105H367.677V85.0742H366.165V98.3105ZM370.647 98.3105H372.159V88.8359H370.647V98.3105ZM371.403 86.9111C371.983 86.9111 372.458 86.4365 372.458 85.8564C372.458 85.2764 371.983 84.8018 371.403 84.8018C370.823 84.8018 370.349 85.2764 370.349 85.8564C370.349 86.4365 370.823 86.9111 371.403 86.9111ZM375.042 98.3105H376.554V92.7031C376.554 91.042 377.529 90.0312 379.041 90.0312C380.553 90.0312 381.273 90.8398 381.273 92.5449V98.3105H382.785V92.1758C382.785 89.9258 381.599 88.6689 379.472 88.6689C378.021 88.6689 377.099 89.2842 376.624 90.3301H376.483V88.8359H375.042V98.3105ZM389.333 90.0049C390.836 90.0049 391.838 91.1123 391.873 92.791H386.652C386.767 91.1123 387.821 90.0049 389.333 90.0049ZM391.829 95.8584C391.434 96.6934 390.607 97.1416 389.386 97.1416C387.777 97.1416 386.731 95.9551 386.652 94.083V94.0127H393.464V93.4326C393.464 90.4883 391.908 88.6689 389.351 88.6689C386.749 88.6689 385.079 90.6025 385.079 93.582C385.079 96.5791 386.723 98.4775 389.351 98.4775C391.425 98.4775 392.884 97.4844 393.341 95.8584H391.829ZM400.697 91.4287C400.697 92.7998 401.506 93.5645 403.281 93.9951L404.907 94.3906C405.918 94.6367 406.41 95.0762 406.41 95.7266C406.41 96.5967 405.496 97.2031 404.222 97.2031C403.009 97.2031 402.253 96.6934 401.998 95.8936H400.442C400.609 97.4668 402.06 98.4775 404.169 98.4775C406.322 98.4775 407.966 97.3086 407.966 95.6123C407.966 94.25 407.104 93.4766 405.32 93.0459L403.861 92.6943C402.745 92.4219 402.218 92.0176 402.218 91.3672C402.218 90.5234 403.097 89.9521 404.222 89.9521C405.364 89.9521 406.103 90.4531 406.305 91.209H407.799C407.597 89.6533 406.217 88.6689 404.23 88.6689C402.218 88.6689 400.697 89.8555 400.697 91.4287ZM410.427 98.3105H411.938V92.7031C411.938 91.1035 412.87 90.0312 414.566 90.0312C415.999 90.0312 416.755 90.8662 416.755 92.5449V98.3105H418.267V92.1758C418.267 89.9521 417.001 88.6689 414.997 88.6689C413.547 88.6689 412.554 89.2842 412.079 90.3301H411.938V85.0742H410.427V98.3105ZM424.806 90.0049C426.309 90.0049 427.311 91.1123 427.346 92.791H422.125C422.239 91.1123 423.294 90.0049 424.806 90.0049ZM427.302 95.8584C426.906 96.6934 426.08 97.1416 424.858 97.1416C423.25 97.1416 422.204 95.9551 422.125 94.083V94.0127H428.937V93.4326C428.937 90.4883 427.381 88.6689 424.823 88.6689C422.222 88.6689 420.552 90.6025 420.552 93.582C420.552 96.5791 422.195 98.4775 424.823 98.4775C426.897 98.4775 428.356 97.4844 428.813 95.8584H427.302ZM435.089 90.0049C436.592 90.0049 437.594 91.1123 437.629 92.791H432.408C432.522 91.1123 433.577 90.0049 435.089 90.0049ZM437.585 95.8584C437.189 96.6934 436.363 97.1416 435.142 97.1416C433.533 97.1416 432.487 95.9551 432.408 94.083V94.0127H439.22V93.4326C439.22 90.4883 437.664 88.6689 435.106 88.6689C432.505 88.6689 430.835 90.6025 430.835 93.582C430.835 96.5791 432.479 98.4775 435.106 98.4775C437.181 98.4775 438.64 97.4844 439.097 95.8584H437.585ZM442.226 86.3838V88.8359H440.696V90.1016H442.226V95.8496C442.226 97.6602 443.008 98.3809 444.959 98.3809C445.258 98.3809 445.548 98.3457 445.847 98.293V97.0186C445.565 97.0449 445.416 97.0537 445.144 97.0537C444.159 97.0537 443.737 96.5791 443.737 95.4629V90.1016H445.847V88.8359H443.737V86.3838H442.226Z" fill="url(#paint0_linear_2_48284)"/>
<defs>
<linearGradient id="paint0_linear_2_48284" x1="462.138" y1="102.127" x2="452.908" y2="44.8606" gradientUnits="userSpaceOnUse">
<stop stop-color="#5961F8"/>
<stop offset="1" stop-color="#F2D9F7"/>
</linearGradient>
</defs>
</svg>
