<svg width="27" height="19" viewBox="0 0 27 19" fill="none" xmlns="http://www.w3.org/2000/svg">
<path d="M11.1255 3.28271V4.69274H26.3949C26.3736 4.23803 26.3278 3.66317 26.1637 3.28271" fill="#EC1C24"/>
<path d="M25.4437 1.87256H11.1255V3.28258H26.1637C26.0004 2.75653 25.7575 2.27679 25.4437 1.87256Z" fill="#E6E7E8"/>
<path d="M22.387 0.462402H11.1255V1.87242H25.4437C24.7725 1.00055 23.6676 0.462402 22.387 0.462402Z" fill="#EC1C24"/>
<path d="M26.3949 4.69287H11.1255V6.10289H26.409V5.16302C26.409 5.07917 26.4038 4.9974 26.4014 4.91522C26.3998 4.89269 26.3974 4.83471 26.3949 4.69287Z" fill="#E6E7E8"/>
<path d="M11.1255 7.51305H26.409V6.10303H11.1255V7.51305Z" fill="#EC1C24"/>
<path d="M11.1255 8.9232H26.409V7.51318H11.1255V8.9232Z" fill="#E6E7E8"/>
<path d="M11.1255 8.92334H26.409V10.3334H11.1255V8.92334Z" fill="#EC1C24"/>
<path d="M0.664551 10.3335V11.7435H26.4052V10.3335H11.1217H0.664551Z" fill="#E6E7E8"/>
<path d="M0.664551 11.7437H26.4052V13.1537H0.664551V11.7437Z" fill="#EC1C24"/>
<path d="M0.666562 14.0211C0.666562 14.0211 0.662942 14.3628 0.672595 14.5638H26.3972C26.4084 14.3578 26.4032 14.0211 26.4032 14.0211L26.4052 13.1538H0.664551L0.666562 14.0211Z" fill="#E6E7E8"/>
<path d="M4.68691 18.8193H22.3836C23.6678 18.8193 24.7353 18.3354 25.4645 17.3843H1.60205C2.35497 18.3563 3.44251 18.8193 4.6849 18.8193" fill="#EC1C24"/>
<path d="M1.60254 17.3841H25.465C25.7831 16.9649 26.0206 16.4862 26.1648 15.9741H0.906738C1.05358 16.4847 1.29016 16.9628 1.60455 17.3841" fill="#E6E7E8"/>
<path d="M0.905638 15.974H26.1637C26.2954 15.5153 26.3737 15.0419 26.397 14.564H0.672363C0.712181 15.0462 0.749183 15.4104 0.905638 15.974Z" fill="#EC1C24"/>
<path d="M11.1217 0.462402H4.68653C2.02117 0.462402 0.664551 2.51694 0.664551 5.05123V10.3325H11.1217V0.462402Z" fill="#176496"/>
<path d="M1.79768 2.95359L2.01647 2.77922L2.23487 2.95359L2.15 2.67326L2.36759 2.5018H2.09892L2.01567 2.22021L1.93282 2.5018H1.66455L1.88294 2.67326L1.79768 2.95359Z" fill="white"/>
<path d="M3.24339 2.95359L3.46219 2.77922L3.68058 2.95359L3.59612 2.67326L3.81331 2.5018H3.54504L3.46179 2.22021L3.37893 2.5018H3.10986L3.32826 2.67326L3.24339 2.95359Z" fill="white"/>
<path d="M4.83513 2.95359L5.05353 2.77922L5.27232 2.95359L5.18746 2.67326L5.40464 2.5018H5.13799L5.05353 2.22021L4.97027 2.5018H4.70361L4.91959 2.67326L4.83513 2.95359Z" fill="white"/>
<path d="M6.42268 2.95359L6.64107 2.77922L6.85987 2.95359L6.77541 2.67326L6.99259 2.5018H6.72312L6.64107 2.22021L6.55822 2.5018H6.28955L6.50754 2.67326L6.42268 2.95359Z" fill="white"/>
<path d="M8.00821 2.95359L8.22701 2.77922L8.4454 2.95359L8.36094 2.67326L8.57853 2.5018H8.30946L8.22661 2.22021L8.14375 2.5018H7.87549L8.09267 2.67326L8.00821 2.95359Z" fill="white"/>
<path d="M2.57112 3.68323L2.78951 3.50927L3.0079 3.68323L2.92384 3.40331L3.14103 3.23185H2.87236L2.78911 2.95068L2.70746 3.23185H2.43799L2.65558 3.40331L2.57112 3.68323Z" fill="white"/>
<path d="M4.01643 3.68323L4.23482 3.50927L4.45322 3.68323L4.36875 3.40331L4.58594 3.23185H4.31566L4.23482 2.95068L4.15157 3.23185H3.8833L4.10089 3.40331L4.01643 3.68323Z" fill="white"/>
<path d="M5.60317 3.68323L5.82116 3.50927L6.03956 3.68323L5.95509 3.40331L6.17268 3.23185H5.90442L5.82116 2.95068L5.73791 3.23185H5.46924L5.68683 3.40331L5.60317 3.68323Z" fill="white"/>
<path d="M7.19571 3.68323L7.41451 3.50927L7.6333 3.68323L7.54764 3.40331L7.76563 3.23185H7.49736L7.41411 2.95068L7.33166 3.23185H7.06299L7.28058 3.40331L7.19571 3.68323Z" fill="white"/>
<path d="M8.78366 3.68323L9.00045 3.50927L9.21884 3.68323L9.13357 3.40331L9.35157 3.23185H9.0837L9.00004 2.95068L8.91759 3.23185H8.64893L8.86651 3.40331L8.78366 3.68323Z" fill="white"/>
<path d="M9.67509 2.95359L9.89349 2.77922L10.1123 2.95359L10.0274 2.67326L10.2446 2.5018H9.97795L9.89308 2.22021L9.81023 2.5018H9.53955L9.75955 2.67326L9.67509 2.95359Z" fill="white"/>
<path d="M1.77424 8.81378L1.99304 8.64149L2.21143 8.81378L2.12697 8.53595L2.34416 8.36408L2.07589 8.36491L1.99223 8.08374L1.91018 8.36491L1.64111 8.36408L1.8587 8.53595L1.77424 8.81378Z" fill="white"/>
<path d="M3.21915 8.81354L3.43754 8.64125L3.65634 8.81354L3.57148 8.5357L3.78866 8.36383L3.5208 8.36467L3.43714 8.0835L3.35469 8.36467L3.08643 8.36383L3.30361 8.5357L3.21915 8.81354Z" fill="white"/>
<path d="M4.82112 8.81354L5.03951 8.64125L5.25831 8.81354L5.17344 8.5357L5.39063 8.36383L5.12075 8.36467L5.03911 8.0835L4.95625 8.36467L4.68799 8.36383L4.90558 8.5357L4.82112 8.81354Z" fill="white"/>
<path d="M6.39924 8.81354L6.61763 8.64125L6.83603 8.81354L6.75277 8.5357L6.96875 8.36383L6.70008 8.36467L6.61723 8.0835L6.53438 8.36467L6.26611 8.36383L6.4833 8.5357L6.39924 8.81354Z" fill="white"/>
<path d="M7.98478 8.81354L8.20357 8.64125L8.42237 8.81354L8.33871 8.5357L8.55469 8.36383L8.28642 8.36467L8.20317 8.0835L8.12072 8.36467L7.85205 8.36383L8.06924 8.5357L7.98478 8.81354Z" fill="white"/>
<path d="M9.65045 8.81378L9.86884 8.64149L10.0876 8.81378L10.0028 8.53595L10.2204 8.36408L9.95049 8.36491L9.86844 8.08374L9.78559 8.36491L9.51611 8.36408L9.73491 8.53595L9.65045 8.81378Z" fill="white"/>
<path d="M1.79768 4.41802L2.01647 4.24364L2.23487 4.41802L2.15 4.13768L2.36759 3.96623L2.09892 3.96706L2.01567 3.68506L1.93282 3.96706L1.66455 3.96623L1.88294 4.13768L1.79768 4.41802Z" fill="white"/>
<path d="M3.24339 4.41802L3.46219 4.24364L3.68058 4.41802L3.59612 4.13768L3.81331 3.96623L3.54504 3.96706L3.46179 3.68506L3.37893 3.96706L3.10986 3.96623L3.32826 4.13768L3.24339 4.41802Z" fill="white"/>
<path d="M4.83513 4.41802L5.05353 4.24364L5.27232 4.41802L5.18746 4.13768L5.40464 3.96623L5.13799 3.96706L5.05353 3.68506L4.97027 3.96706L4.70361 3.96623L4.91959 4.13768L4.83513 4.41802Z" fill="white"/>
<path d="M6.42268 4.41802L6.64107 4.24364L6.85987 4.41802L6.77541 4.13768L6.99259 3.96623L6.72312 3.96706L6.64107 3.68506L6.55822 3.96706L6.28955 3.96623L6.50754 4.13768L6.42268 4.41802Z" fill="white"/>
<path d="M8.00821 4.41802L8.22701 4.24364L8.4454 4.41802L8.36094 4.13768L8.57853 3.96623L8.30946 3.96706L8.22661 3.68506L8.14375 3.96706L7.87549 3.96623L8.09267 4.13768L8.00821 4.41802Z" fill="white"/>
<path d="M2.57112 5.15197L2.78951 4.97802L3.0079 5.15197L2.92384 4.87206L3.14103 4.69977H2.87236L2.78911 4.41943L2.70746 4.69977H2.43799L2.65558 4.87206L2.57112 5.15197Z" fill="white"/>
<path d="M4.01643 5.15197L4.23482 4.97802L4.45322 5.15197L4.36875 4.87206L4.58594 4.69977H4.31566L4.23482 4.41943L4.15157 4.69977H3.8833L4.10089 4.87206L4.01643 5.15197Z" fill="white"/>
<path d="M5.60317 5.15197L5.82116 4.97802L6.03956 5.15197L5.95509 4.87206L6.17268 4.69977H5.90442L5.82116 4.41943L5.73791 4.69977H5.46924L5.68683 4.87206L5.60317 5.15197Z" fill="white"/>
<path d="M7.19571 5.15197L7.41451 4.97802L7.6333 5.15197L7.54764 4.87206L7.76563 4.69977H7.49736L7.41411 4.41943L7.33166 4.69977H7.06299L7.28058 4.87206L7.19571 5.15197Z" fill="white"/>
<path d="M8.78366 5.15197L9.00045 4.97802L9.21884 5.15197L9.13357 4.87206L9.35157 4.69977H9.0837L9.00004 4.41943L8.91759 4.69977H8.64893L8.86651 4.87206L8.78366 5.15197Z" fill="white"/>
<path d="M9.67509 4.41802L9.89349 4.24364L10.1123 4.41802L10.0274 4.13768L10.2446 3.96623L9.97795 3.96706L9.89308 3.68506L9.81023 3.96706L9.53955 3.96623L9.75955 4.13768L9.67509 4.41802Z" fill="white"/>
<path d="M1.77424 5.88269L1.99304 5.70873L2.21143 5.88269L2.12657 5.60319L2.34416 5.43132L2.07549 5.43215L1.99223 5.15015L1.91018 5.43215L1.64111 5.43132L1.8587 5.60319L1.77424 5.88269Z" fill="white"/>
<path d="M3.21915 5.88245L3.43754 5.70849L3.65634 5.88245L3.57148 5.60295L3.78866 5.43107L3.5208 5.43191L3.43714 5.1499L3.35469 5.43191L3.08643 5.43107L3.30321 5.60295L3.21915 5.88245Z" fill="white"/>
<path d="M4.82112 5.88245L5.03951 5.70849L5.2579 5.88245L5.17344 5.60295L5.39063 5.43107L5.12075 5.43191L5.03911 5.1499L4.95625 5.43191L4.68799 5.43107L4.90558 5.60295L4.82112 5.88245Z" fill="white"/>
<path d="M6.39924 5.88245L6.61723 5.70849L6.83603 5.88245L6.75277 5.60295L6.96875 5.43107L6.70008 5.43191L6.61723 5.1499L6.53438 5.43191L6.26611 5.43107L6.4833 5.60295L6.39924 5.88245Z" fill="white"/>
<path d="M7.98478 5.88245L8.20357 5.70849L8.42196 5.88245L8.33871 5.60295L8.55469 5.43107L8.28602 5.43191L8.20317 5.1499L8.12072 5.43191L7.85205 5.43107L8.06924 5.60295L7.98478 5.88245Z" fill="white"/>
<path d="M2.54768 6.61682L2.76607 6.44328L2.98447 6.61682L2.90041 6.33899L3.11719 6.16628H2.84852L2.76567 5.88428L2.68322 6.16628H2.41455L2.63214 6.33899L2.54768 6.61682Z" fill="white"/>
<path d="M3.98558 6.61682L4.20397 6.44328L4.42237 6.61682L4.33791 6.33899L4.55509 6.16628H4.28602L4.20357 5.88428L4.12072 6.16628H3.85205L4.07004 6.33899L3.98558 6.61682Z" fill="white"/>
<path d="M5.57973 6.61682L5.79732 6.44328L6.01612 6.61682L5.93005 6.33899L6.14884 6.16628H5.88058L5.79732 5.88428L5.71447 6.16628H5.4458L5.66339 6.33899L5.57973 6.61682Z" fill="white"/>
<path d="M7.16366 6.61682L7.38326 6.44328L7.60206 6.61682L7.51759 6.33899L7.73438 6.16628H7.46611L7.38286 5.88428L7.30041 6.16628H7.03174L7.24933 6.33899L7.16366 6.61682Z" fill="white"/>
<path d="M8.7496 6.61682L8.9692 6.44328L9.18799 6.61682L9.10313 6.33899L9.32112 6.16628H9.05285L8.9692 5.88428L8.88634 6.16628H8.61768L8.83527 6.33899L8.7496 6.61682Z" fill="white"/>
<path d="M9.65045 5.88269L9.86884 5.70873L10.0872 5.88269L10.0028 5.60319L10.2204 5.43132L9.95049 5.43215L9.86844 5.15015L9.78559 5.43215L9.51611 5.43132L9.73491 5.60319L9.65045 5.88269Z" fill="white"/>
<path d="M1.77424 7.34771L1.99304 7.17542L2.21143 7.34771L2.12657 7.06779L2.34416 6.89592L2.07549 6.89675L1.99223 6.61475L1.91018 6.89675L1.64111 6.89592L1.8587 7.06779L1.77424 7.34771Z" fill="white"/>
<path d="M3.21915 7.34771L3.43754 7.17542L3.65634 7.34771L3.57148 7.06779L3.78866 6.89592L3.5208 6.89675L3.43714 6.61475L3.35469 6.89675L3.08643 6.89592L3.30321 7.06779L3.21915 7.34771Z" fill="white"/>
<path d="M4.82112 7.34771L5.03951 7.17542L5.2579 7.34771L5.17344 7.06779L5.39063 6.89592L5.12075 6.89675L5.03911 6.61475L4.95625 6.89675L4.68799 6.89592L4.90558 7.06779L4.82112 7.34771Z" fill="white"/>
<path d="M6.39924 7.34771L6.61723 7.17542L6.83603 7.34771L6.75277 7.06779L6.96875 6.89592L6.70008 6.89675L6.61723 6.61475L6.53438 6.89675L6.26611 6.89592L6.4833 7.06779L6.39924 7.34771Z" fill="white"/>
<path d="M7.98478 7.34771L8.20357 7.17542L8.42196 7.34771L8.33871 7.06779L8.55469 6.89592L8.28602 6.89675L8.20317 6.61475L8.12072 6.89675L7.85205 6.89592L8.06924 7.06779L7.98478 7.34771Z" fill="white"/>
<path d="M2.54768 8.08208L2.76607 7.9077L2.98447 8.08208L2.90041 7.80174L3.11719 7.63154H2.84852L2.76567 7.34912L2.68322 7.63154H2.41455L2.63214 7.80174L2.54768 8.08208Z" fill="white"/>
<path d="M3.98558 8.08208L4.20397 7.9077L4.42237 8.08208L4.33791 7.80174L4.55509 7.63154H4.28602L4.20357 7.34912L4.12072 7.63154H3.85205L4.07004 7.80174L3.98558 8.08208Z" fill="white"/>
<path d="M5.57973 8.08208L5.79732 7.9077L6.01612 8.08208L5.93005 7.80174L6.14884 7.63154H5.88058L5.79732 7.34912L5.71447 7.63154H5.4458L5.66339 7.80174L5.57973 8.08208Z" fill="white"/>
<path d="M7.16366 8.08208L7.38326 7.9077L7.60206 8.08208L7.51759 7.80174L7.73438 7.63154H7.46611L7.38286 7.34912L7.30041 7.63154H7.03174L7.24933 7.80174L7.16366 8.08208Z" fill="white"/>
<path d="M8.7496 8.08208L8.9692 7.9077L9.18799 8.08208L9.10313 7.80174L9.32112 7.63154H9.05285L8.9692 7.34912L8.88634 7.63154H8.61768L8.83527 7.80174L8.7496 8.08208Z" fill="white"/>
<path d="M9.65045 7.34771L9.86884 7.17542L10.0872 7.34771L10.0028 7.06779L10.2204 6.89592L9.95049 6.89675L9.86844 6.61475L9.78559 6.89675L9.51611 6.89592L9.73491 7.06779L9.65045 7.34771Z" fill="white"/>
</svg>
