<svg width="65" height="65" viewBox="0 0 65 65" fill="none" xmlns="http://www.w3.org/2000/svg">
<path d="M42.1876 25.1892V27.1802H39.2012V30.1665H37.2103V27.1802H34.2239V25.1892H37.2103V22.2029H39.2012V25.1892H42.1876ZM33.7262 32.1574C34.1224 32.1573 34.5022 31.9998 34.7823 31.7196C35.0623 31.4394 35.2195 31.0594 35.2194 30.6633C35.2193 30.2671 35.0618 29.8872 34.7815 29.6072C34.5013 29.3272 34.1214 29.1699 33.7252 29.1701C33.5291 29.1701 33.3348 29.2088 33.1536 29.284C32.9724 29.3591 32.8078 29.4692 32.6692 29.6079C32.5305 29.7467 32.4205 29.9114 32.3455 30.0926C32.2705 30.2739 32.232 30.4681 32.232 30.6643C32.2321 30.8604 32.2708 31.0546 32.3459 31.2358C32.421 31.417 32.5311 31.5816 32.6699 31.7203C32.8086 31.859 32.9733 31.9689 33.1546 32.0439C33.3358 32.1189 33.5301 32.1575 33.7262 32.1574ZM37.2103 35.3767L36.6996 34.8093C36.5129 34.6014 36.2845 34.4352 36.0293 34.3213C35.7741 34.2075 35.4978 34.1487 35.2184 34.1487C34.939 34.1487 34.6627 34.2075 34.4075 34.3213C34.1523 34.4352 33.9239 34.6014 33.7372 34.8093L33.0841 35.537L28.2512 30.1665L25.2648 33.4844V27.1802H32.233V25.1892H25.2648C24.7368 25.1892 24.2304 25.399 23.857 25.7724C23.4837 26.1457 23.2739 26.6521 23.2739 27.1802V39.1256C23.2739 39.6536 23.4837 40.16 23.857 40.5334C24.2304 40.9068 24.7368 41.1165 25.2648 41.1165H37.2103C37.7383 41.1165 38.2447 40.9068 38.6181 40.5334C38.9915 40.16 39.2012 39.6536 39.2012 39.1256V32.1574H37.2103V35.3767Z" fill="#AABDE9"/>
</svg>
